<?xml version="1.0" ?>
<svg version="1.1" encoding="iso-8859-1" baseProfile="full"
xmlns:dc="http://purl.org/dc/elements/1.1/"
xmlns:cc="http://creativecommons.org/ns#"
xmlns:rdf="http://www.w3.org/1999/02/22-rdf-syntax-ns#"
xmlns="http://www.w3.org/2000/svg"
xmlns:xlink="http://www.w3.org/1999/xlink"
xmlns:ev="http://www.w3.org/2001/xml-events"
xmlns:sodipodi="http://sodipodi.sourceforge.net/DTD/sodipodi-0.dtd"
xmlns:inkscape="http://www.inkscape.org/namespaces/inkscape"
inkscape:version="0.46"
inkscape:output_extension="org.inkscape.output.svg.inkscape"
viewBox="0 0 681 243" xml:space="preserve">
<title>Magics plot</title>
<metadata id="MAGICSmetadata">
<rdf:RDF><cc:Work rdf:about="">
	<dc:format>image/svg+xml</dc:format>
	<dc:title>Magics plot</dc:title>
	<dc:author>baudouin on Baudouins-iMac-3.local</dc:author>
	<dc:date>Sun Sep 13 07:59:11 2020</dc:date>
	<dc:language>en-GB</dc:language>
	<dc:publisher><cc:Agent>
	 <dc:title>Magics 4.4.5 (64 bit)</dc:title>
	</cc:Agent></dc:publisher>
	<dc:coverage>Plot of meteorological data</dc:coverage>
</cc:Work></rdf:RDF>
</metadata>
<g id="page" transform="translate(0,242.857)" vector-effect="non-scaling-stroke">
<g id="Page23">
<g inkscape:groupmode="layer" inkscape:label="Coastline" id="Coastline"><title>Coastline</title>
<g>
<g id="drawing" transform="translate(277.435,-305.396)">
</g>
</g>
</g>
<g inkscape:groupmode="layer" inkscape:label="Coastline" id="Coastline"><title>Coastline</title>
<g>
<g id="drawing" transform="translate(277.435,-305.396)">
<g fill-rule="evenodd" stroke="none">
<path fill="rgb(255,225,170)" d="M-214.209 302.035l-0.724488 -3.26512l-1.6301 -3.20905l-2.83774 1.34441l-1.75085 4.09265l0.0369123 4.3989h8.01444l-1.10818 -3.36179"/>
<path fill="rgb(255,225,170)" d="M-192.861 305.396l-0.0188934 -0.0743074l-0.664114 -3.32222l-1.26801 -3.43423l-2.35451 -2.70372l-2.53579 -2.0018l-1.63018 -2.63768l-1.08673 -3.40621l0.482912 -3.03018l1.93197 -3.45008l1.8113 -2.46992l1.69055 -2.5906l2.89803 -0.604128l2.11309 -1.80225l-1.44898 -2.52416l-0.181042 -2.78244l0.422618 -2.88659l1.50943 -2.13711l2.23392 -1.8335l2.11309 -1.677l2.53571 -0.694581l2.29429 1.11267l1.32839 -1.52801l3.13937 -2.0647l1.14719 -2.31385l-1.81122 -1.75146l-2.41496 0.806292l-1.751 2.16654l-2.23392 1.7783l-2.53571 0.826089l-2.17346 1.38474l-1.93205 2.23614l-2.9584 0.421938l-1.93205 1.84017l-1.69047 2.00131l-1.20756 3.18699l-2.47549 2.20319l-2.11309 2.37888l-1.9925 2.86298l-1.69039 2.29106l-1.50935 3.56687l0.362244 3.15697l0.60366 3.53407l-0.482912 3.27064l-1.20756 3.49649l-1.44898 3.22046l-0.30187 3.44998l0.130262 2.52797"/>
<path fill="rgb(255,225,170)" d="M154.13 280.87l-0.213053 0.15566l-2.89811 -0.155005l-1.99234 2.18284l-2.77736 2.84336l-2.89795 -0.95251l-2.41496 1.75l-2.53587 1.92756l-2.41496 1.78435l-3.6226 1.63649l-3.0187 1.15458l-3.19998 2.83286l-2.7772 1.51687l-1.08673 3.76129l-3.13961 2.08342l-2.29437 -2.25638l-2.17346 -3.07969l-3.19982 0.680186l-2.65661 -2.03279l-1.20748 -3.00916l-3.19998 -1.32141l-1.75085 2.81999l-1.69047 4.73929l-2.35474 2.41536l-3.13945 0.870172l-2.89811 1.57617l-0.660774 0.602965"/>
<path fill="rgb(255,225,170)" d="M62.4778 305.396l-3.10874 -0.954269l-3.26035 -0.175406l-3.62244 0.350975l-2.4456 0.778699"/>
<path fill="rgb(255,225,170)" d="M24.8214 305.396l-0.953221 -0.954269l-0.560302 0.954269"/>
<path fill="rgb(255,225,170)" d="M43.2922 305.396l-1.91508 -0.250537l-0.316683 0.250537"/>
<path fill="rgb(255,225,170)" d="M-207.432 204.513l1.02068 -2.17416l1.57188 1.89747l2.92848 -0.269645l1.38717 -2.67793l-4.31565 -1.32654l-4.00739 -3.15084l-1.5413 -3.87538l-1.18375 -2.3618l-2.19371 -0.597445l-2.84164 2.09657l-0.999689 3.52066l-1.59047 2.39009l-4.08892 -1.87328l-4.32773 -3.44387l-2.54139 -1.0713l4.24577 5.77703l3.14827 2.82849l3.8786 2.97922l3.22931 0.777872l2.23794 1.62636l3.33991 0.613283l2.64364 -1.68485"/>
<path fill="rgb(255,225,170)" d="M-184.494 186.625l1.38717 1.74897l4.16152 -1.49996l0.924782 -1.73728l-2.46608 -2.21402l-1.84956 1.96694l-2.62022 -1.23135l-3.69913 2.96671l1.5413 2.25122l2.62022 -2.25122"/>
<path fill="rgb(255,225,170)" d="M142.671 79.738l2.50703 -0.801498l1.39322 -3.9025l1.18072 -4.63313l1.90441 -6.23867l0.549772 -1.62298h-13.3856l-0.0316042 0.236044l-1.47335 2.47946l-0.0082835 1.0926l-1.41919 0.569417l-0.552127 2.37801l0.281958 2.38549l1.08546 2.6581l0.203424 2.97527l0.850652 1.78086l2.44714 1.2118l1.77538 0.86709l2.69102 -1.43537"/>
<path fill="rgb(255,225,170)" d="M-218.884 196.724l0.496897 -4.81394l2.78176 -1.83399l1.48392 -1.24033l2.743 0.0377443l1.29916 0.254558l-2.05137 -2.89493l-0.995676 -5.10219l1.26322 -2.2631l2.81318 -1.88945l2.00339 -5.52467l3.64084 -2.61184l1.06077 -4.09596l-2.94695 -0.913449l-3.03181 -3.27869l0.883728 -3.31226l2.41656 -2.23739l2.91214 -0.0122068l0.728695 -2.31739l0.453059 -4.29601l2.47545 -2.61951l2.83839 -1.29749l-0.918347 -2.15696l-1.68768 1.30724l-2.08129 -1.24817l-0.429729 -4.07861l1.18947 -1.06357l2.96426 1.48153l3.15881 -0.562846l1.84892 -1.42825l-0.568769 -2.03405l0.631046 -2.99145l-0.647603 -2.36024l3.38609 0.397157l6.18252 -0.820408l4.57066 -2.10241l2.962 -4.9649l0.15635 -1.86864l-1.92606 -1.6569l0.420886 -2.60312l-3.91384 -3.2032l0.210913 -1.93607l1.8779 2.05144l2.09032 -0.119234l2.84987 1.60137l1.6683 -0.400329l2.27564 0.747478l3.48148 -2.07383l1.33415 -2.3284l2.03914 -2.10318l1.40565 -3.46911l2.09596 -1.69169l2.71045 -2.8506l3.42052 -6.23985l2.15429 -1.92905l0.699532 -1.70167l0.575919 -3.49808l-0.512702 -1.89853l0.448543 -2.55266l2.60942 -3.36558l3.62786 -2.68202l3.4525 -0.979945l2.17103 -1.48766l4.84931 -1.28111l3.34902 0.00792433l0.721921 -1.9913l2.49502 -1.43384l0.52399 -3.40028l2.16847 -2.95827h-92.7319l0.192332 4.56456l-0.964255 7.41784l-0.989467 7.00694l-0.555223 6.63827l-1.80245 4.25075l0.369333 4.34867l-0.920793 2.93677l0.709692 5.40066l-1.30461 5.4622l-2.13133 5.97176l-1.89145 6.152l-1.29878 0.125263l0.254375 4.37206l0.887491 3.84212l-1.41656 2.72402l-1.05043 7.52372l-0.968018 5.9592l1.94394 0.59425l0.962938 -5.22079l2.06906 1.10288l-1.61092 8.76202l-3.42598 -1.5098l-1.0493 7.20887l-2.93566 3.9232l4.67885 1.30894l-3.25551 3.50331l-1.31101 4.43441l0.395486 8.07334l1.55071 3.22908l-0.873568 2.88328l0.965572 3.15969l3.83501 2.89449l3.52889 3.57319l3.47753 1.68811l1.30555 -0.120901"/>
<path fill="rgb(255,225,170)" d="M61.8719 113.859l1.90443 -1.40901l2.63199 -0.588585l3.17931 -1.46197l1.2762 0.193345l1.86755 -0.450351l3.34093 0.712246l1.52588 -0.703457l1.87357 0.545842l0.397743 -1.02504l1.57141 -0.191878l3.22202 -1.42609l2.32738 -1.66478l2.17555 -2.18157l3.48411 -3.71852l1.74845 -2.55814l0.859269 -1.82276l1.30706 -1.79266l0.602448 -0.508651l2.10349 -1.77086l0.797745 -1.57542l0.363877 -2.8828l0.769899 -2.50735l0.2651 -1.80281l-0.788526 -0.230214l-0.263783 -1.43602l1.35203 -1.25658l3.70707 -1.83196l2.54262 -1.14006l1.28843 -1.19622l0.458703 -1.3954l-0.726249 -0.572773l0.499343 -1.55017l0.0888055 -3.25569l-0.544875 0.165373l-0.0383821 -0.988935l-0.608469 -1.9327l-1.46172 -2.48376l0.181899 -1.62338h-67.1737l1.17992 2.85436l1.59135 2.71735l1.19906 1.36173l0.394545 1.80808l0.0690501 3.99138l1.03331 5.19287l0.759551 2.46597l0.680717 3.33859l1.20659 2.52378l2.29088 2.62879l2.2128 4.56605l0.00489183 0.00928336l1.54864 3.00944l2.01844 3.35618l0.0809034 2.77763l-0.994547 0.662658l1.00132 2.45015l-0.0173096 2.15916l0.409973 0.994891l0.145438 -0.513656l1.32738 1.65683l1.04196 0.0681393l1.30461 1.32969l1.40189 -0.0896473"/>
<path fill="rgb(114,163,255)" d="M92.5755 304.793l2.89811 -1.57617l3.13945 -0.870172l2.35474 -2.41536l1.69047 -4.73929l1.75085 -2.81999l3.19998 1.32141l1.20748 3.00916l2.65661 2.03279l3.19982 -0.680186l2.17346 3.07969l2.29437 2.25638l3.13961 -2.08342l1.08673 -3.76129l2.7772 -1.51687l3.19998 -2.83286l3.0187 -1.15458l3.6226 -1.63649l2.41496 -1.78435l2.53587 -1.92756l2.41496 -1.75l2.89795 0.95251l2.77736 -2.84336l1.99234 -2.18284l2.89811 0.155005l0.213053 -0.15566v-218.331h-3.92451l-0.549772 1.62298l-1.90441 6.23867l-1.18072 4.63313l-1.39322 3.9025l-2.50703 0.801498l-2.69102 1.43537l-1.77538 -0.86709l-2.44714 -1.2118l-0.850652 -1.78086l-0.203424 -2.97527l-1.08546 -2.6581l-0.281958 -2.38549l0.552127 -2.37801l1.41919 -0.569417l0.0082835 -1.0926l1.47335 -2.47946l0.0316042 -0.236044h-29.666l-0.181899 1.62338l1.46172 2.48376l0.608469 1.9327l0.0383821 0.988935l0.544875 -0.165373l-0.0888055 3.25569l-0.499343 1.55017l0.726249 0.572773l-0.458703 1.3954l-1.28843 1.19622l-2.54262 1.14006l-3.70707 1.83196l-1.35203 1.25658l0.263783 1.43602l0.788526 0.230214l-0.2651 1.80281l-0.769899 2.50735l-0.363877 2.8828l-0.797745 1.57542l-2.10349 1.77086l-0.602448 0.508651l-1.30706 1.79266l-0.859269 1.82276l-1.74845 2.55814l-3.48411 3.71852l-2.17555 2.18157l-2.32738 1.66478l-3.22202 1.42609l-1.57141 0.191878l-0.397743 1.02504l-1.87357 -0.545842l-1.52588 0.703457l-3.34093 -0.712246l-1.86755 0.450351l-1.2762 -0.193345l-3.17931 1.46197l-2.63199 0.588585l-1.90443 1.40901l-1.40189 0.0896473l-1.30461 -1.32969l-1.04196 -0.0681393l-1.32738 -1.65683l-0.145438 0.513656l-0.409973 -0.994891l0.0173096 -2.15916l-1.00132 -2.45015l0.994547 -0.662658l-0.0809034 -2.77763l-2.01844 -3.35618l-1.54864 -3.00944l-0.00489183 -0.00928336l-2.2128 -4.56605l-2.29088 -2.62879l-1.20659 -2.52378l-0.680717 -3.33859l-0.759551 -2.46597l-1.03331 -5.19287l-0.0690501 -3.99138l-0.394545 -1.80808l-1.19906 -1.36173l-1.59135 -2.71735l-1.17992 -2.85436h-163.504l-2.16847 2.95827l-0.52399 3.40028l-2.49502 1.43384l-0.721921 1.9913l-3.34902 -0.00792433l-4.84931 1.28111l-2.17103 1.48766l-3.4525 0.979945l-3.62786 2.68202l-2.60942 3.36558l-0.448543 2.55266l0.512702 1.89853l-0.575919 3.49808l-0.699532 1.70167l-2.15429 1.92905l-3.42052 6.23985l-2.71045 2.8506l-2.09596 1.69169l-1.40565 3.46911l-2.03914 2.10318l-1.33415 2.3284l-3.48148 2.07383l-2.27564 -0.747478l-1.6683 0.400329l-2.84987 -1.60137l-2.09032 0.119234l-1.8779 -2.05144l-0.210913 1.93607l3.91384 3.2032l-0.420886 2.60312l1.92606 1.6569l-0.15635 1.86864l-2.962 4.9649l-4.57066 2.10241l-6.18252 0.820408l-3.38609 -0.397157l0.647603 2.36024l-0.631046 2.99145l0.568769 2.03405l-1.84892 1.42825l-3.15881 0.562846l-2.96426 -1.48153l-1.18947 1.06357l0.429729 4.07861l2.08129 1.24817l1.68768 -1.30724l0.918347 2.15696l-2.83839 1.29749l-2.47545 2.61951l-0.453059 4.29601l-0.728695 2.31739l-2.91214 0.0122068l-2.41656 2.23739l-0.883728 3.31226l3.03181 3.27869l2.94695 0.913449l-1.06077 4.09596l-3.64084 2.61184l-2.00339 5.52467l-2.81318 1.88945l-1.26322 2.2631l0.995676 5.10219l2.05137 2.89493l-1.29916 -0.254558l-2.743 -0.0377443l-1.48392 1.24033l-2.78176 1.83399l-0.496897 4.81394l-1.30555 0.120901l-3.47753 -1.68811l-3.52889 -3.57319l-3.83501 -2.89449l-0.965572 -3.15969l0.873568 -2.88328l-1.55071 -3.22908l-0.395486 -8.07334l1.31101 -4.43441l3.25551 -3.50331l-4.67885 -1.30894l2.93566 -3.9232l1.0493 -7.20887l3.42598 1.5098l1.61092 -8.76202l-2.06906 -1.10288l-0.962938 5.22079l-1.94394 -0.59425l0.968018 -5.9592l1.05043 -7.52372l1.41656 -2.72402l-0.887491 -3.84212l-0.254375 -4.37206l1.29878 -0.125263l1.89145 -6.152l2.13133 -5.97176l1.30461 -5.4622l-0.709692 -5.40066l0.920793 -2.93677l-0.369333 -4.34867l1.80245 -4.25075l0.555223 -6.63827l0.989467 -7.00694l0.964255 -7.41784l-0.192332 -4.56456h-61.1787v242.857h56.3198l-0.0369123 -4.3989l1.75085 -4.09265l2.83774 -1.34441l1.6301 3.20905l0.724488 3.26512l1.10818 3.36179h1.9358l-0.130262 -2.52797l0.30187 -3.44998l1.44898 -3.22046l1.20756 -3.49649l0.482912 -3.27064l-0.60366 -3.53407l-0.362244 -3.15697l1.50935 -3.56687l1.69039 -2.29106l1.9925 -2.86298l2.11309 -2.37888l2.47549 -2.20319l1.20756 -3.18699l1.69047 -2.00131l1.93205 -1.84017l2.9584 -0.421938l1.93205 -2.23614l2.17346 -1.38474l2.53571 -0.826089l2.23392 -1.7783l1.751 -2.16654l2.41496 -0.806292l1.81122 1.75146l-1.14719 2.31385l-3.13937 2.0647l-1.32839 1.52801l-2.29429 -1.11267l-2.53571 0.694581l-2.11309 1.677l-2.23392 1.8335l-1.50943 2.13711l-0.422618 2.88659l0.181042 2.78244l1.44898 2.52416l-2.11309 1.80225l-2.89803 0.604128l-1.69055 2.5906l-1.8113 2.46992l-1.93197 3.45008l-0.482912 3.03018l1.08673 3.40621l1.63018 2.63768l2.53579 2.0018l2.35451 2.70372l1.26801 3.43423l0.664114 3.32222l0.0188934 0.0743074h216.169l0.560302 -0.954269l0.953221 0.954269h16.239l0.316683 -0.250537l1.91508 0.250537h6.74845l2.4456 -0.778699l3.62244 -0.350975l3.26035 0.175406l3.10874 0.954269h29.437l0.660774 -0.602965z
M-188.655 186.625L-184.956 183.658L-182.336 184.89L-180.487 182.923L-178.021 185.137L-178.945 186.874L-183.107 188.374L-184.494 186.625L-187.114 188.876L-188.655 186.625z
M-213.415 205.584L-215.653 203.958L-218.883 203.18L-222.761 200.201L-225.909 197.372L-230.155 191.595L-227.614 192.667L-223.286 196.111L-219.197 197.984L-217.607 195.594L-216.607 192.073L-213.765 189.977L-211.572 190.573L-211.572 190.574L-210.388 192.936L-208.847 196.811L-204.839 199.962L-200.524 201.289L-201.911 203.966L-204.839 204.236L-206.411 202.339L-207.432 204.513L-210.075 206.198L-213.415 205.584"/>
</g>
<g stroke-width="0.5px" stroke="rgb(209,179,139)" fill="none">
<path d="M-221.152 300.997l1.75085 -4.09265l2.83774 -1.34441l1.6301 3.20905l0.724488 3.26512"/>
<path d="M-211.295 302.868l0.30187 -3.44998l1.44898 -3.22046l1.20756 -3.49649l0.482912 -3.27064l-0.60366 -3.53407l-0.362244 -3.15697l1.50935 -3.56687l1.69039 -2.29106l1.9925 -2.86298l2.11309 -2.37888l2.47549 -2.20319l1.20756 -3.18699l1.69047 -2.00131l1.93205 -1.84017l2.9584 -0.421938l1.93205 -2.23614l2.17346 -1.38474l2.53571 -0.826089l2.23392 -1.7783l1.751 -2.16654l2.41496 -0.806292l1.81122 1.75146l-1.14719 2.31385l-3.13937 2.0647l-1.32839 1.52801l-2.29429 -1.11267l-2.53571 0.694581l-2.11309 1.677l-2.23392 1.8335l-1.50943 2.13711l-0.422618 2.88659l0.181042 2.78244l1.44898 2.52416l-2.11309 1.80225l-2.89803 0.604128l-1.69055 2.5906l-1.8113 2.46992l-1.93197 3.45008l-0.482912 3.03018l1.08673 3.40621l1.63018 2.63768l2.53579 2.0018l2.35451 2.70372l1.26801 3.43423l0.664114 3.32222"/>
<path d="M52.4863 304.618l3.62244 -0.350975l3.26035 0.175406"/>
<path d="M92.5755 304.793l2.89811 -1.57617l3.13945 -0.870172l2.35474 -2.41536l1.69047 -4.73929l1.75085 -2.81999l3.19998 1.32141l1.20748 3.00916l2.65661 2.03279l3.19982 -0.680186l2.17346 3.07969l2.29437 2.25638l3.13961 -2.08342l1.08673 -3.76129l2.7772 -1.51687l3.19998 -2.83286l3.0187 -1.15458l3.6226 -1.63649l2.41496 -1.78435l2.53587 -1.92756l2.41496 -1.75l2.89795 0.95251l2.77736 -2.84336l1.99234 -2.18284l2.89811 0.155005"/>
<path d="M-208.847 196.811l4.00739 3.15084l4.31565 1.32654l-1.38717 2.67793l-2.92848 0.269645l-1.57188 -1.89747l-1.02068 2.17416l-2.64364 1.68485l-3.33991 -0.613283l-2.23794 -1.62636l-3.22931 -0.777872l-3.8786 -2.97922l-3.14827 -2.82849l-4.24577 -5.77703l2.54139 1.0713l4.32773 3.44387l4.08892 1.87328l1.59047 -2.39009l0.999689 -3.52066l2.84164 -2.09657l2.1934 0.596835l0.000307559 0.000610356l1.18375 2.3618l1.5413 3.87538"/>
<path d="M-180.487 182.923l2.46608 2.21402l-0.924782 1.73728l-4.16152 1.49996l-1.38717 -1.74897l-2.62022 2.25122l-1.5413 -2.25122l3.69913 -2.96671l2.62022 1.23135l1.84956 -1.96694"/>
<path d="M149.656 64.1622l-1.90441 6.23867l-1.18072 4.63313l-1.39322 3.9025l-2.50703 0.801498l-2.69102 1.43537l-1.77538 -0.86709l-2.44714 -1.2118l-0.850652 -1.78086l-0.203424 -2.97527l-1.08546 -2.6581l-0.281958 -2.38549l0.552127 -2.37801l1.41919 -0.569417l0.0082835 -1.0926l1.47335 -2.47946"/>
<path d="M-125.692 65.4975l-0.52399 3.40028l-2.49502 1.43384l-0.721921 1.9913l-3.34902 -0.00792433l-4.84931 1.28111l-2.17103 1.48766l-3.4525 0.979945l-3.62786 2.68202l-2.60942 3.36558l-0.448543 2.55266l0.512702 1.89853l-0.575919 3.49808l-0.699532 1.70167l-2.15429 1.92905l-3.42052 6.23985l-2.71045 2.8506l-2.09596 1.69169l-1.40565 3.46911l-2.03914 2.10318l-1.33415 2.3284l-3.48148 2.07383l-2.27564 -0.747478l-1.6683 0.400329l-2.84987 -1.60137l-2.09032 0.119234l-1.8779 -2.05144l-0.210913 1.93607l3.91384 3.2032l-0.420886 2.60312l1.92606 1.6569l-0.15635 1.86864l-2.962 4.9649l-4.57066 2.10241l-6.18252 0.820408l-3.38609 -0.397157l0.647603 2.36024l-0.631046 2.99145l0.568769 2.03405l-1.84892 1.42825l-3.15881 0.562846l-2.96426 -1.48153l-1.18947 1.06357l0.429729 4.07861l2.08129 1.24817l1.68768 -1.30724l0.918347 2.15696l-2.83839 1.29749l-2.47545 2.61951l-0.453059 4.29601l-0.728695 2.31739l-2.91214 0.0122068l-2.41656 2.23739l-0.883728 3.31226l3.03181 3.27869l2.94695 0.913449l-1.06077 4.09596l-3.64084 2.61184l-2.00339 5.52467l-2.81318 1.88945l-1.26322 2.2631l0.995676 5.10219l2.05137 2.89493l-1.29916 -0.254558l-2.743 -0.0377443l-1.48392 1.24033l-2.78176 1.83399l-0.496897 4.81394l-1.30555 0.120901l-3.47753 -1.68811l-3.52889 -3.57319l-3.83501 -2.89449l-0.965572 -3.15969l0.873568 -2.88328l-1.55071 -3.22908l-0.395486 -8.07334l1.31101 -4.43441l3.25551 -3.50331l-4.67885 -1.30894l2.93566 -3.9232l1.0493 -7.20887l3.42598 1.5098l1.61092 -8.76202l-2.06906 -1.10288l-0.962938 5.22079l-1.94394 -0.59425l0.968018 -5.9592l1.05043 -7.52372l1.41656 -2.72402l-0.887491 -3.84212l-0.254375 -4.37206l1.29878 -0.125263l1.89145 -6.152l2.13133 -5.97176l1.30461 -5.4622l-0.709692 -5.40066l0.920793 -2.93677l-0.369333 -4.34867l1.80245 -4.25075l0.555223 -6.63827l0.989467 -7.00694l0.964255 -7.41784"/>
<path d="M106.972 64.1626l1.46172 2.48376l0.608469 1.9327l0.0383821 0.988935l0.544875 -0.165373l-0.0888055 3.25569l-0.499343 1.55017l0.726249 0.572773l-0.458703 1.3954l-1.28843 1.19622l-2.54262 1.14006l-3.70707 1.83196l-1.35203 1.25658l0.263783 1.43602l0.788526 0.230214l-0.2651 1.80281l-0.769899 2.50735l-0.363877 2.8828l-0.797745 1.57542l-2.10349 1.77086l-0.602448 0.508651l-1.30706 1.79266l-0.859269 1.82276l-1.74845 2.55814l-3.48411 3.71852l-2.17555 2.18157l-2.32738 1.66478l-3.22202 1.42609l-1.57141 0.191878l-0.397743 1.02504l-1.87357 -0.545842l-1.52588 0.703457l-3.34093 -0.712246l-1.86755 0.450351l-1.2762 -0.193345l-3.17931 1.46197l-2.63199 0.588585l-1.90443 1.40901l-1.40189 0.0896473l-1.30461 -1.32969l-1.04196 -0.0681393l-1.32738 -1.65683l-0.145438 0.513656l-0.409973 -0.994891l0.0173096 -2.15916l-1.00132 -2.45015l0.994547 -0.662658l-0.0809034 -2.77763l-2.01844 -3.35618l-1.54864 -3.00944l-0.00489183 -0.00928336l-2.2128 -4.56605l-2.29088 -2.62879l-1.20659 -2.52378l-0.680717 -3.33859l-0.759551 -2.46597l-1.03331 -5.19287l-0.0690501 -3.99138l-0.394545 -1.80808l-1.19906 -1.36173l-1.59135 -2.71735"/>
</g>
</g>
</g>
</g>
<g inkscape:groupmode="layer" inkscape:label="Coastline" id="Coastline"><title>Coastline</title>
<g>
<g id="drawing" transform="translate(277.435,-305.396)">
<g stroke-width="0.5px" stroke="rgb(0,0,0)" fill="none">
<path d="M-221.152 300.997l1.75085 -4.09265l2.83774 -1.34441l1.6301 3.20905l0.724488 3.26512"/>
<path d="M-211.295 302.868l0.30187 -3.44998l1.44898 -3.22046l1.20756 -3.49649l0.482912 -3.27064l-0.60366 -3.53407l-0.362244 -3.15697l1.50935 -3.56687l1.69039 -2.29106l1.9925 -2.86298l2.11309 -2.37888l2.47549 -2.20319l1.20756 -3.18699l1.69047 -2.00131l1.93205 -1.84017l2.9584 -0.421938l1.93205 -2.23614l2.17346 -1.38474l2.53571 -0.826089l2.23392 -1.7783l1.751 -2.16654l2.41496 -0.806292l1.81122 1.75146l-1.14719 2.31385l-3.13937 2.0647l-1.32839 1.52801l-2.29429 -1.11267l-2.53571 0.694581l-2.11309 1.677l-2.23392 1.8335l-1.50943 2.13711l-0.422618 2.88659l0.181042 2.78244l1.44898 2.52416l-2.11309 1.80225l-2.89803 0.604128l-1.69055 2.5906l-1.8113 2.46992l-1.93197 3.45008l-0.482912 3.03018l1.08673 3.40621l1.63018 2.63768l2.53579 2.0018l2.35451 2.70372l1.26801 3.43423l0.664114 3.32222"/>
<path d="M52.4863 304.618l3.62244 -0.350975l3.26035 0.175406"/>
<path d="M92.5755 304.793l2.89811 -1.57617l3.13945 -0.870172l2.35474 -2.41536l1.69047 -4.73929l1.75085 -2.81999l3.19998 1.32141l1.20748 3.00916l2.65661 2.03279l3.19982 -0.680186l2.17346 3.07969l2.29437 2.25638l3.13961 -2.08342l1.08673 -3.76129l2.7772 -1.51687l3.19998 -2.83286l3.0187 -1.15458l3.6226 -1.63649l2.41496 -1.78435l2.53587 -1.92756l2.41496 -1.75l2.89795 0.95251l2.77736 -2.84336l1.99234 -2.18284l2.89811 0.155005"/>
<path d="M-208.847 196.811l4.00739 3.15084l4.31565 1.32654l-1.38717 2.67793l-2.92848 0.269645l-1.57188 -1.89747l-1.02068 2.17416l-2.64364 1.68485l-3.33991 -0.613283l-2.23794 -1.62636l-3.22931 -0.777872l-3.8786 -2.97922l-3.14827 -2.82849l-4.24577 -5.77703l2.54139 1.0713l4.32773 3.44387l4.08892 1.87328l1.59047 -2.39009l0.999689 -3.52066l2.84164 -2.09657l2.1934 0.596835l0.000307559 0.000610356l1.18375 2.3618l1.5413 3.87538"/>
<path d="M-180.487 182.923l2.46608 2.21402l-0.924782 1.73728l-4.16152 1.49996l-1.38717 -1.74897l-2.62022 2.25122l-1.5413 -2.25122l3.69913 -2.96671l2.62022 1.23135l1.84956 -1.96694"/>
<path d="M149.656 64.1622l-1.90441 6.23867l-1.18072 4.63313l-1.39322 3.9025l-2.50703 0.801498l-2.69102 1.43537l-1.77538 -0.86709l-2.44714 -1.2118l-0.850652 -1.78086l-0.203424 -2.97527l-1.08546 -2.6581l-0.281958 -2.38549l0.552127 -2.37801l1.41919 -0.569417l0.0082835 -1.0926l1.47335 -2.47946"/>
<path d="M-125.692 65.4975l-0.52399 3.40028l-2.49502 1.43384l-0.721921 1.9913l-3.34902 -0.00792433l-4.84931 1.28111l-2.17103 1.48766l-3.4525 0.979945l-3.62786 2.68202l-2.60942 3.36558l-0.448543 2.55266l0.512702 1.89853l-0.575919 3.49808l-0.699532 1.70167l-2.15429 1.92905l-3.42052 6.23985l-2.71045 2.8506l-2.09596 1.69169l-1.40565 3.46911l-2.03914 2.10318l-1.33415 2.3284l-3.48148 2.07383l-2.27564 -0.747478l-1.6683 0.400329l-2.84987 -1.60137l-2.09032 0.119234l-1.8779 -2.05144l-0.210913 1.93607l3.91384 3.2032l-0.420886 2.60312l1.92606 1.6569l-0.15635 1.86864l-2.962 4.9649l-4.57066 2.10241l-6.18252 0.820408l-3.38609 -0.397157l0.647603 2.36024l-0.631046 2.99145l0.568769 2.03405l-1.84892 1.42825l-3.15881 0.562846l-2.96426 -1.48153l-1.18947 1.06357l0.429729 4.07861l2.08129 1.24817l1.68768 -1.30724l0.918347 2.15696l-2.83839 1.29749l-2.47545 2.61951l-0.453059 4.29601l-0.728695 2.31739l-2.91214 0.0122068l-2.41656 2.23739l-0.883728 3.31226l3.03181 3.27869l2.94695 0.913449l-1.06077 4.09596l-3.64084 2.61184l-2.00339 5.52467l-2.81318 1.88945l-1.26322 2.2631l0.995676 5.10219l2.05137 2.89493l-1.29916 -0.254558l-2.743 -0.0377443l-1.48392 1.24033l-2.78176 1.83399l-0.496897 4.81394l-1.30555 0.120901l-3.47753 -1.68811l-3.52889 -3.57319l-3.83501 -2.89449l-0.965572 -3.15969l0.873568 -2.88328l-1.55071 -3.22908l-0.395486 -8.07334l1.31101 -4.43441l3.25551 -3.50331l-4.67885 -1.30894l2.93566 -3.9232l1.0493 -7.20887l3.42598 1.5098l1.61092 -8.76202l-2.06906 -1.10288l-0.962938 5.22079l-1.94394 -0.59425l0.968018 -5.9592l1.05043 -7.52372l1.41656 -2.72402l-0.887491 -3.84212l-0.254375 -4.37206l1.29878 -0.125263l1.89145 -6.152l2.13133 -5.97176l1.30461 -5.4622l-0.709692 -5.40066l0.920793 -2.93677l-0.369333 -4.34867l1.80245 -4.25075l0.555223 -6.63827l0.989467 -7.00694l0.964255 -7.41784"/>
<path d="M106.972 64.1626l1.46172 2.48376l0.608469 1.9327l0.0383821 0.988935l0.544875 -0.165373l-0.0888055 3.25569l-0.499343 1.55017l0.726249 0.572773l-0.458703 1.3954l-1.28843 1.19622l-2.54262 1.14006l-3.70707 1.83196l-1.35203 1.25658l0.263783 1.43602l0.788526 0.230214l-0.2651 1.80281l-0.769899 2.50735l-0.363877 2.8828l-0.797745 1.57542l-2.10349 1.77086l-0.602448 0.508651l-1.30706 1.79266l-0.859269 1.82276l-1.74845 2.55814l-3.48411 3.71852l-2.17555 2.18157l-2.32738 1.66478l-3.22202 1.42609l-1.57141 0.191878l-0.397743 1.02504l-1.87357 -0.545842l-1.52588 0.703457l-3.34093 -0.712246l-1.86755 0.450351l-1.2762 -0.193345l-3.17931 1.46197l-2.63199 0.588585l-1.90443 1.40901l-1.40189 0.0896473l-1.30461 -1.32969l-1.04196 -0.0681393l-1.32738 -1.65683l-0.145438 0.513656l-0.409973 -0.994891l0.0173096 -2.15916l-1.00132 -2.45015l0.994547 -0.662658l-0.0809034 -2.77763l-2.01844 -3.35618l-1.54864 -3.00944l-0.00489183 -0.00928336l-2.2128 -4.56605l-2.29088 -2.62879l-1.20659 -2.52378l-0.680717 -3.33859l-0.759551 -2.46597l-1.03331 -5.19287l-0.0690501 -3.99138l-0.394545 -1.80808l-1.19906 -1.36173l-1.59135 -2.71735"/>
</g>
</g>
</g>
</g>
<g inkscape:groupmode="layer" inkscape:label="Coastline" id="Coastline"><title>Coastline</title>
<g>
<g id="drawing" transform="translate(277.435,-305.396)">
<g stroke-width="1px" stroke="rgb(51,51,51)" fill="none">
<path d="M-277.435 305.396l0 -242.857l431.565 0l0 242.857l-431.565 0"/>
</g>
</g>
</g>
</g>
<g id="Clone of page">
</g>
</g>
</g><!--ePage-->
</svg>
