<?xml version="1.0" ?>
<svg version="1.1" encoding="iso-8859-1" baseProfile="full"
xmlns:dc="http://purl.org/dc/elements/1.1/"
xmlns:cc="http://creativecommons.org/ns#"
xmlns:rdf="http://www.w3.org/1999/02/22-rdf-syntax-ns#"
xmlns="http://www.w3.org/2000/svg"
xmlns:xlink="http://www.w3.org/1999/xlink"
xmlns:ev="http://www.w3.org/2001/xml-events"
xmlns:sodipodi="http://sodipodi.sourceforge.net/DTD/sodipodi-0.dtd"
xmlns:inkscape="http://www.inkscape.org/namespaces/inkscape"
inkscape:version="0.46"
inkscape:output_extension="org.inkscape.output.svg.inkscape"
viewBox="0 0 681 445" xml:space="preserve">
<title>Magics plot</title>
<metadata id="MAGICSmetadata">
<rdf:RDF><cc:Work rdf:about="">
	<dc:format>image/svg+xml</dc:format>
	<dc:title>Magics plot</dc:title>
	<dc:author>baudouin on Baudouins-iMac-3.local</dc:author>
	<dc:date>Sun Sep 13 07:59:11 2020</dc:date>
	<dc:language>en-GB</dc:language>
	<dc:publisher><cc:Agent>
	 <dc:title>Magics 4.4.5 (64 bit)</dc:title>
	</cc:Agent></dc:publisher>
	<dc:coverage>Plot of meteorological data</dc:coverage>
</cc:Work></rdf:RDF>
</metadata>
<g id="page" transform="translate(0,444.615)" vector-effect="non-scaling-stroke">
<g id="Page22">
<g inkscape:groupmode="layer" inkscape:label="Coastline" id="Coastline"><title>Coastline</title>
<g>
<g id="drawing" transform="translate(653.846,-340)">
</g>
</g>
</g>
<g inkscape:groupmode="layer" inkscape:label="Coastline" id="Coastline"><title>Coastline</title>
<g>
<g id="drawing" transform="translate(653.846,-340)">
<g fill-rule="evenodd" stroke="none">
<path fill="rgb(255,225,170)" d="M-324.423 338.949l3.79066 -1.33262l3.58563 -1.2299l4.30275 -0.512503l3.8931 0.820113l2.25409 -1.12745l5.32708 -1.53751l1.94662 -1.7424l-3.0734 -1.33262l-4.09786 0.61495l-2.97122 1.63996l-3.79066 1.33262l-4.30275 0.61495l-3.68808 1.02501l-3.27842 1.63996l-5.02002 0.30734l-3.27842 1.33262l-1.07617 0.538388h7.7264l1.75065 -1.05089"/>
<path fill="rgb(255,225,170)" d="M-351.984 289.268l1.73196 -2.11548l2.66727 1.84746l4.96923 -0.261538l2.35385 -2.61538l-7.32308 -1.30769l-6.8 -3.13846l-2.61538 -3.92308l-2.00867 -2.42514l-3.72242 -0.6176l-4.82188 2.15994l-1.69634 3.58098l-2.69882 2.39831l-6.93835 -1.87748l-7.34358 -3.494l-4.3124 -1.09815l7.2045 5.85862l5.34218 2.81217l6.58146 2.92238l5.4797 0.756369l3.79749 1.57253l5.66738 0.589874l4.48591 -1.62462"/>
<path fill="rgb(255,225,170)" d="M-313.062 271.215l2.35385 1.83077l7.06154 -1.56923l1.56923 -1.83077l-4.18462 -2.35385l-3.13846 2.09231l-4.44615 -1.30769l-6.27692 3.13846l2.61539 2.35385l4.44615 -2.35385"/>
<path fill="rgb(255,225,170)" d="M-318.737 -52.8831l0.209231 -3.89692l-1.09846 -0.183077l-3.00769 0.680001l0.104615 2.06615l-1.51692 1.43846l0.941539 0.47077l4.36769 -0.575385"/>
<path fill="rgb(255,225,170)" d="M-348.369 -94.0588l3.93757 0.0309505l1.33991 -1.31883l-0.943103 -1.03906l-2.67361 -0.460739l-4.28005 -0.0305451l-0.741454 0.76443l0.304772 2.23828l3.05596 -0.184485"/>
<path fill="rgb(255,225,170)" d="M-402.26 -93.4646l3.67672 -0.0974456l-0.866741 -1.43236l-2.7789 -1.25625l-3.52021 -0.468983l-1.19138 -0.17624l-2.19882 0.36451l-0.627654 1.19557l2.99041 1.90594l2.92757 0.83944l1.589 -0.874175"/>
<path fill="rgb(255,225,170)" d="M-371.384 -95.6359l1.72956 -0.750914l0.79592 1.26896l2.00811 -0.322342l0.943102 -0.95405l1.72064 0.248953l2.40114 -0.219355l2.48791 1.13772l1.94256 -2.12921l-2.57076 -1.91905l-2.32735 -0.188945l0.168536 -1.55886l-2.86188 0.104339l-0.949725 -1.85553l-1.37857 0.131369l-3.0984 -1.3464l-4.08313 -0.0241923l-0.654144 0.891609l-4.53671 -0.821465l-3.19139 -0.231113l-1.17814 1.44439l3.30018 0.815788l-0.0394651 1.99798l2.38925 2.26599l-1.88337 1.16448l-3.94717 -0.419788l-4.81431 -0.726316l-0.460875 1.68618l2.8016 1.62968l2.44736 -0.977702l3.19152 0.37816l2.46858 -0.362753l3.47413 0.889041l0.264901 1.50345l1.34667 0.831736l2.09367 -3.58184"/>
<path fill="rgb(255,225,170)" d="M-399.231 -104.369l3.60387 0.413841l3.52075 -0.259765l2.09784 -0.400492h-15.8036l-0.90839 0.755947l7.48955 -0.50953"/>
<path fill="rgb(255,225,170)" d="M-371.417 281.589l0.843168 -4.88565l4.72027 -1.8897l2.51801 -1.28694l4.6545 0.039269l2.2045 0.264667l-3.4809 -3.02787l-1.68953 -5.43286l2.14352 -2.44937l4.77359 -2.0637l3.39949 -6.13236l6.17802 -2.95029l1.79999 -4.69313l-5.00058 -1.05771l-5.14457 -3.82985l1.49957 -3.92212l4.10059 -2.67956l4.94152 -0.0146864l1.2365 -2.80119l0.76878 -5.26206l4.20051 -3.25263l4.81637 -1.62344l-1.55831 -2.71691l-2.86377 1.6493l-3.53166 -1.57459l-0.729192 -5.19788l2.01837 -1.36867l5.02995 1.90503l5.36007 -0.722487l3.13738 -1.84022l-0.965126 -2.63773l1.0708 -3.91541l-1.0989 -3.1195l5.74574 0.52678l10.4909 -1.089l7.7558 -2.80534l5.02612 -6.70799l0.265306 -2.55472l-3.26827 -2.27888l0.714186 -3.60605l-6.64126 -4.48019l0.357891 -2.73064l3.18654 2.89282l3.54699 -0.167612l4.83584 2.24568l2.83089 -0.560303l3.86146 1.04558l5.9076 -2.90719l2.26388 -3.28743l3.46015 -2.99052l2.3852 -4.976l3.55657 -2.44586l4.59927 -4.14975l5.80416 -9.20557l3.65554 -2.87909l1.18701 -2.55249l0.977257 -5.28409l-0.869986 -2.88835l0.761118 -3.90584l4.42783 -5.18799l6.15599 -4.16476l5.85844 -1.5283l3.68395 -2.32677l8.22863 -2.01007l5.68284 0.0124508l1.225 -3.13578l4.23372 -2.26643l0.889141 -5.40253l5.30356 -6.82803l0.927453 -6.99309l1.65409 -2.0637l0.555833 -3.44866l1.45774 -8.06261l-0.370662 -9.80035l1.46094 -3.84837l1.30769 -0.102483l3.87231 -4.53446l3.33244 -5.91335l7.37333 -7.27819l2.66104 -3.41513l2.08286 -8.6475l-0.868389 -3.16451l-1.77541 -6.66042l-1.89545 -1.64994l-4.47284 -0.209754l-4.02939 -1.50883l-6.68021 -5.86003l-7.7325 -4.32918l-7.81487 0.204008l-10.1796 -2.7664l-6.08288 1.61195l0.857854 -2.8957l-2.55313 -3.06522l-8.68773 -3.19452l-6.58188 -1.87981l-3.97288 3.43237l-0.188683 -5.24322l-9.24643 -0.821458l-1.62727 -1.57683l3.93457 -4.30619l-0.140794 -3.6102l-2.79736 -0.862962l-2.93401 -9.14874l-1.29396 -2.8925l-1.78211 0.246789l-0.865836 -2.14256l-5.53822 -4.41474l-3.85156 -1.23745l-1.77637 -0.575627l-5.6241 -1.40602l-4.22957 0.377685l-0.562218 0.942778l-6.26709 -1.04718l-2.06498 -1.82138l-2.80343 -2.55153l-1.9708 -0.124512l-0.146541 -2.69296l-3.23667 -3.40843l-3.43461 -1.92387l-2.04934 -1.2333l-2.72585 0.118126l-0.83327 -4.18966l-3.96586 -2.5726l-4.18359 -0.393329l-1.7869 -2.46884l4.44188 -1.54522l-6.26837 0.073111l-6.4794 0.31511l-0.0597019 1.31695l-2.93433 1.6343l-4.00066 -0.646822l-2.99499 -2.3421l-5.58866 0.537635l-4.69665 -0.0459738l-0.204966 -1.73135l-3.39853 -2.91772l-3.66831 -0.0849231l-1.87725 -3.67501l-1.83415 1.64962l0.725041 2.46597l-6.5142 2.12564l0.264029 3.96075l1.62216 1.84022l-1.17488 3.78069l-2.25462 0.340013l-1.97974 -4.15007l2.3073 -3.03777l0.0638525 -2.73575l-1.70645 -2.3737l3.07065 -0.611065l0.148456 -1.23554l1.01589 -1.76168l-1.3725 -1.37569l-1.85331 -0.320218l-2.53238 2.51929l-2.03784 1.16945l-4.11591 2.64156l-4.09324 -0.43611l-0.415678 1.08996l-3.29669 0.0992905l-2.99978 2.42734l-0.963848 4.41985l-0.0520394 1.73039l-2.15341 0.556472l-3.92467 3.65234l-2.70254 -0.166335l-1.96792 -1.44593l-1.70741 -1.57332l-2.32773 -0.903827l-2.91613 -0.179106l0.194749 -0.51369l-2.88803 -0.307448l-1.78531 1.56406l-3.17665 1.05452l-2.22525 1.3211l-2.57292 0.377686l-1.43795 -1.28566l-0.494216 0.425894l-2.08701 -0.235615l0.107272 -1.10784l-1.87853 -1.87661l-2.45575 -2.23259l-2.0222 -2.10489l-1.32493 -2.84238l-0.801983 -0.858811l-0.243277 -1.41337l1.06984 -1.33802l-0.359487 -1.38112l0.489107 -2.2377l0.79911 -0.513691l-0.131536 -2.35487l-0.280949 -1.34824l0.169528 -2.30474l0.56126 -2.10489l1.20489 -1.78179l-0.533804 -1.91429l0.266582 -1.16754l0.449839 -0.502197l-1.37665 -1.43827l-1.90184 -0.801344l-1.5117 -1.17296l-1.59662 -0.976938l-0.830398 -0.116211l-2.38903 -0.725041l-1.03919 0.453031l-1.36835 0.123554l-1.25182 -0.355657l-1.66654 -0.271052l-0.613619 0.585844l-1.68282 0.578501l-2.41808 0.136963l-2.42957 -0.471868l-0.81188 0.259559l-0.484957 -0.426852l-1.49701 0.0753456l-1.1471 0.919471l-0.543382 -0.204007l-1.53437 -0.668532l-0.451435 0.779635l-1.70517 -0.94597l1.03664 -1.81181l0.944693 -0.166335l1.02738 -1.38815l0.606276 -2.64252l-0.330116 -0.500282l0.547852 -1.87151l-0.457182 -0.809646l0.84668 -2.26196l0.0868386 -1.42263l-0.991305 -0.0239444l-0.0191556 -0.768142l1.09538 -0.0868391l1.32525 1.34345l1.31152 -4.08111l0.783466 -2.26164l-0.963848 -0.910212l0.72165 -1.84916h-15.8888l-0.0676851 0.693116l-1.24639 3.05149l-3.32734 2.13426l-3.29222 0.896484l-3.91669 0.940543l-3.98853 0.528377l-4.5881 1.46253l-2.16171 -2.18853l-5.5545 -1.38847l-2.04646 -2.57548l-1.22085 -2.98381l-0.508599 -0.570519h-46.5341l0.13592 0.277757l2.62049 3.2986l5.62059 2.96881l2.17864 2.38743l5.35049 1.65505l2.92698 0.312876l1.32046 1.39645l4.37579 2.50045l5.92197 2.43117l3.92148 0.733342l4.88916 2.39988l3.91988 0.994817l3.69417 1.37889l2.63614 -0.515606l4.20147 -1.96792l2.92188 -0.380878l4.27043 1.3642l2.69807 1.69911l5.91941 5.63144l2.81428 2.1582l2.3919 1.0376l3.26316 0.0941816l2.68339 0.912448l1.48137 1.12348l2.90655 0.324369l2.16299 1.04079l1.88268 0.50124l3.02947 0.0772611l0.580735 -1.23139l1.58864 0.455266l0.903827 1.63621l-0.396522 0.369065l-0.863601 -0.787616l-0.580735 0.809645l2.62081 2.36221l2.20513 1.64355l1.15094 1.76392l2.44522 2.10999l1.80925 1.64771l-1.19882 1.01046l1.47722 0.737812l-0.692477 1.6477l-0.0300105 1.59215l0.715144 1.05452l1.68027 0.516883l1.19563 1.45072l1.04366 -1.24991l-0.335862 -1.52032l1.37154 0.934476l0.344163 1.53054l1.80031 0.66949l2.05827 1.02834l1.4504 1.25214l0.18996 1.15604l-0.602445 0.907978l1.06218 1.09858l2.83887 1.16019l0.600529 0.790809l0.161546 -1.13497l2.24472 -0.00830071l1.35718 0.612023l2.14511 0.348313l1.0558 2.10361l1.72497 0.307767l0.680983 -0.889141l0.905424 3.12461l2.43404 -0.266582l0.75569 -0.775165l1.42805 -0.668532l-2.49566 -2.83919l0.513052 -1.08932l1.14104 -0.181978l2.11319 -1.31376l1.06027 -1.82043l2.28846 -0.33267l2.60613 1.45423l0.97598 1.72816l1.32589 0.357891l-1.29237 1.3974l1.12029 2.82354l1.74348 1.50883l2.11798 2.78683l0.825927 4.42432l-1.12156 1.3725l1.17999 4.78508l-0.986835 3.03585l1.92802 1.24512l-2.00177 2.74405l-2.2029 3.28679l-2.59495 0.350548l-1.2266 1.89577l0.231783 2.61954l-1.95164 0.393329l0.709397 1.62344l-3.59615 2.0819l-2.86537 1.12156l0.364915 2.13426l-1.97974 3.36948l-0.962571 3.25869l-1.83224 0.788255l0.883075 4.74773l-1.06154 1.47435l3.13323 2.29261l1.99921 -2.42957l1.13146 2.28463l-2.78427 3.90903l-4.16955 3.30371l-1.62823 3.6632l2.53493 4.98909l-1.69336 2.33443l3.72705 2.11798l4.06419 3.41354l1.64547 3.85252l2.13937 2.38424l4.94216 10.4149l5.15702 9.65094l4.43038 6.86411l-0.858811 1.50755l2.1665 4.32119l4.03514 3.22422l9.3802 5.72083l10.3702 5.25184l0.453988 2.14671l5.24482 3.00297l1.08836 7.36758l0.383113 8.56226l-1.63621 11.6939l-1.67899 10.8641l-0.942139 10.119l-3.05852 6.38681l0.626709 6.45641l-1.56246 4.31481l1.20425 7.83721l-2.21375 7.79507l-3.61659 8.36751l-3.20953 8.44764l-2.20386 0.170166l0.43164 5.89292l1.50595 5.1037l-2.40371 3.57572l-1.78243 9.69052l-1.6426 7.48092l3.2986 0.736535l1.63398 -6.52952l3.51091 1.39038l-2.73351 10.836l-5.81342 -1.84054l-1.78052 8.68804l-4.98143 4.62194l7.93938 1.52543l-5.52417 4.04184l-2.22461 5.03091l0.671086 8.91632l2.63135 3.47899l-1.48233 3.06458l1.63845 3.31329l6.50749 2.99403l5.98806 3.64213l5.9009 1.70006l2.21535 -0.121319z
M-446.133 -58.4599L-448.755 -60.2048L-449.245 -62.2467L-447.573 -62.4571L-444.808 -60.2671L-443.859 -58.3121L-446.133 -58.4599z
M-361.398 86.1089L-361.875 85.7907L-362.236 84.8825L-363.051 84.3524L-364.737 83.3198L-366.068 82.3175L-365.511 81.9653L-365.463 81.318L-365.555 80.3146L-364.045 80.6087L-360.855 83.0955L-360.712 83.2388L-359.596 85.5545L-360.427 86.3424L-360.929 86.4981L-361.398 86.1089"/>
<path fill="rgb(255,225,170)" d="M-34.1501 -24.6112l3.63159 -1.50978l6.19589 -0.913086l3.35352 -0.0606597l3.64947 1.02291l2.38009 -0.0533167l4.66249 1.48552l4.71357 -1.51681l2.90815 -1.79425l8.20053 -3.06203l4.21169 -1.11614l4.32279 -0.610108l4.61651 0.00319286l3.93042 -0.0648103l3.52719 3.28211v-75.097h-111.396l-0.425393 2.12436l0.631498 2.6007l0.578501 5.16883l-0.649696 4.92428l-1.4603 2.57995l0.453351 2.81843l-1.2432 2.68626l-2.53429 3.67214l-2.30059 0.992901l2.60964 1.86321l2.15725 4.07153l-0.668532 2.32039l0.858173 4.00992l0.332989 1.11933l1.59471 1.11007l-0.0303296 0.795917l1.20042 1.47403l2.20226 0.346398l2.79257 2.1863l1.52128 0.856896l0.765268 1.15285l0.593506 2.31113l1.30578 1.03983l1.33962 0.676833l2.03369 2.04742l2.29453 3.09555l0.640756 3.86657l0.91564 1.91014l2.72457 2.80279l3.76568 2.1068l1.40922 0.388221l3.5224 3.37491l4.45656 2.86122l4.75252 3.9815l5.39136 2.49311l1.37059 -0.0459738l1.01046 0.137921l5.17969 -1.91844"/>
<path fill="rgb(114,163,255)" d="M26.1538 -29.5184l-3.52719 -3.28211l-3.93042 0.0648103l-4.61651 -0.00319286l-4.32279 0.610108l-4.21169 1.11614l-8.20053 3.06203l-2.90815 1.79425l-4.71357 1.51681l-4.66249 -1.48552l-2.38009 0.0533167l-3.64947 -1.02291l-3.35352 0.0606597l-6.19589 0.913086l-3.63159 1.50978l-5.17969 1.91844l-1.01046 -0.137921l-1.37059 0.0459738l-5.39136 -2.49311l-4.75252 -3.9815l-4.45656 -2.86122l-3.5224 -3.37491l-1.40922 -0.388221l-3.76568 -2.1068l-2.72457 -2.80279l-0.91564 -1.91014l-0.640756 -3.86657l-2.29453 -3.09555l-2.03369 -2.04742l-1.33962 -0.676833l-1.30578 -1.03983l-0.593506 -2.31113l-0.765268 -1.15285l-1.52128 -0.856896l-2.79257 -2.1863l-2.20226 -0.346398l-1.20042 -1.47403l0.0303296 -0.795917l-1.59471 -1.11007l-0.332989 -1.11933l-0.858173 -4.00992l0.668532 -2.32039l-2.15725 -4.07153l-2.60964 -1.86321l2.30059 -0.992901l2.53429 -3.67214l1.2432 -2.68626l-0.453351 -2.81843l1.4603 -2.57995l0.649696 -4.92428l-0.578501 -5.16883l-0.631498 -2.6007l0.425393 -2.12436h-304.767l-2.09784 0.400492l-3.52075 0.259765l-3.60387 -0.413841l-7.48955 0.50953l0.90839 -0.755947h-51.7908l-0.72165 1.84916l0.963848 0.910212l-0.783466 2.26164l-1.31152 4.08111l-1.32525 -1.34345l-1.09538 0.0868391l0.0191556 0.768142l0.991305 0.0239444l-0.0868386 1.42263l-0.84668 2.26196l0.457182 0.809646l-0.547852 1.87151l0.330116 0.500282l-0.606276 2.64252l-1.02738 1.38815l-0.944693 0.166335l-1.03664 1.81181l1.70517 0.94597l0.451435 -0.779635l1.53437 0.668532l0.543382 0.204007l1.1471 -0.919471l1.49701 -0.0753456l0.484957 0.426852l0.81188 -0.259559l2.42957 0.471868l2.41808 -0.136963l1.68282 -0.578501l0.613619 -0.585844l1.66654 0.271052l1.25182 0.355657l1.36835 -0.123554l1.03919 -0.453031l2.38903 0.725041l0.830398 0.116211l1.59662 0.976938l1.5117 1.17296l1.90184 0.801344l1.37665 1.43827l-0.449839 0.502197l-0.266582 1.16754l0.533804 1.91429l-1.20489 1.78179l-0.56126 2.10489l-0.169528 2.30474l0.280949 1.34824l0.131536 2.35487l-0.79911 0.513691l-0.489107 2.2377l0.359487 1.38112l-1.06984 1.33802l0.243277 1.41337l0.801983 0.858811l1.32493 2.84238l2.0222 2.10489l2.45575 2.23259l1.87853 1.87661l-0.107272 1.10784l2.08701 0.235615l0.494216 -0.425894l1.43795 1.28566l2.57292 -0.377686l2.22525 -1.3211l3.17665 -1.05452l1.78531 -1.56406l2.88803 0.307448l-0.194749 0.51369l2.91613 0.179106l2.32773 0.903827l1.70741 1.57332l1.96792 1.44593l2.70254 0.166335l3.92467 -3.65234l2.15341 -0.556472l0.0520394 -1.73039l0.963848 -4.41985l2.99978 -2.42734l3.29669 -0.0992905l0.415678 -1.08996l4.09324 0.43611l4.11591 -2.64156l2.03784 -1.16945l2.53238 -2.51929l1.85331 0.320218l1.3725 1.37569l-1.01589 1.76168l-0.148456 1.23554l-3.07065 0.611065l1.70645 2.3737l-0.0638525 2.73575l-2.3073 3.03777l1.97974 4.15007l2.25462 -0.340013l1.17488 -3.78069l-1.62216 -1.84022l-0.264029 -3.96075l6.5142 -2.12564l-0.725041 -2.46597l1.83415 -1.64962l1.87725 3.67501l3.66831 0.0849231l3.39853 2.91772l0.204966 1.73135l4.69665 0.0459738l5.58866 -0.537635l2.99499 2.3421l4.00066 0.646822l2.93433 -1.6343l0.0597019 -1.31695l6.4794 -0.31511l6.26837 -0.073111l-4.44188 1.54522l1.7869 2.46884l4.18359 0.393329l3.96586 2.5726l0.83327 4.18966l2.72585 -0.118126l2.04934 1.2333l3.43461 1.92387l3.23667 3.40843l0.146541 2.69296l1.9708 0.124512l2.80343 2.55153l2.06498 1.82138l6.26709 1.04718l0.562218 -0.942778l4.22957 -0.377685l5.6241 1.40602l1.77637 0.575627l3.85156 1.23745l5.53822 4.41474l0.865836 2.14256l1.78211 -0.246789l1.29396 2.8925l2.93401 9.14874l2.79736 0.862962l0.140794 3.6102l-3.93457 4.30619l1.62727 1.57683l9.24643 0.821458l0.188683 5.24322l3.97288 -3.43237l6.58188 1.87981l8.68773 3.19452l2.55313 3.06522l-0.857854 2.8957l6.08288 -1.61195l10.1796 2.7664l7.81487 -0.204008l7.7325 4.32918l6.68021 5.86003l4.02939 1.50883l4.47284 0.209754l1.89545 1.64994l1.77541 6.66042l0.868389 3.16451l-2.08286 8.6475l-2.66104 3.41513l-7.37333 7.27819l-3.33244 5.91335l-3.87231 4.53446l-1.30769 0.102483l-1.46094 3.84837l0.370662 9.80035l-1.45774 8.06261l-0.555833 3.44866l-1.65409 2.0637l-0.927453 6.99309l-5.30356 6.82803l-0.889141 5.40253l-4.23372 2.26643l-1.225 3.13578l-5.68284 -0.0124508l-8.22863 2.01007l-3.68395 2.32677l-5.85844 1.5283l-6.15599 4.16476l-4.42783 5.18799l-0.761118 3.90584l0.869986 2.88835l-0.977257 5.28409l-1.18701 2.55249l-3.65554 2.87909l-5.80416 9.20557l-4.59927 4.14975l-3.55657 2.44586l-2.3852 4.976l-3.46015 2.99052l-2.26388 3.28743l-5.9076 2.90719l-3.86146 -1.04558l-2.83089 0.560303l-4.83584 -2.24568l-3.54699 0.167612l-3.18654 -2.89282l-0.357891 2.73064l6.64126 4.48019l-0.714186 3.60605l3.26827 2.27888l-0.265306 2.55472l-5.02612 6.70799l-7.7558 2.80534l-10.4909 1.089l-5.74574 -0.52678l1.0989 3.1195l-1.0708 3.91541l0.965126 2.63773l-3.13738 1.84022l-5.36007 0.722487l-5.02995 -1.90503l-2.01837 1.36867l0.729192 5.19788l3.53166 1.57459l2.86377 -1.6493l1.55831 2.71691l-4.81637 1.62344l-4.20051 3.25263l-0.76878 5.26206l-1.2365 2.80119l-4.94152 0.0146864l-4.10059 2.67956l-1.49957 3.92212l5.14457 3.82985l5.00058 1.05771l-1.79999 4.69313l-6.17802 2.95029l-3.39949 6.13236l-4.77359 2.0637l-2.14352 2.44937l1.68953 5.43286l3.4809 3.02787l-2.2045 -0.264667l-4.6545 -0.039269l-2.51801 1.28694l-4.72027 1.8897l-0.843168 4.88565l-2.21535 0.121319l-5.9009 -1.70006l-5.98806 -3.64213l-6.50749 -2.99403l-1.63845 -3.31329l1.48233 -3.06458l-2.63135 -3.47899l-0.671086 -8.91632l2.22461 -5.03091l5.52417 -4.04184l-7.93938 -1.52543l4.98143 -4.62194l1.78052 -8.68804l5.81342 1.84054l2.73351 -10.836l-3.51091 -1.39038l-1.63398 6.52952l-3.2986 -0.736535l1.6426 -7.48092l1.78243 -9.69052l2.40371 -3.57572l-1.50595 -5.1037l-0.43164 -5.89292l2.20386 -0.170166l3.20953 -8.44764l3.61659 -8.36751l2.21375 -7.79507l-1.20425 -7.83721l1.56246 -4.31481l-0.626709 -6.45641l3.05852 -6.38681l0.942139 -10.119l1.67899 -10.8641l1.63621 -11.6939l-0.383113 -8.56226l-1.08836 -7.36758l-5.24482 -3.00297l-0.453988 -2.14671l-10.3702 -5.25184l-9.3802 -5.72083l-4.03514 -3.22422l-2.1665 -4.32119l0.858811 -1.50755l-4.43038 -6.86411l-5.15702 -9.65094l-4.94216 -10.4149l-2.13937 -2.38424l-1.64547 -3.85252l-4.06419 -3.41354l-3.72705 -2.11798l1.69336 -2.33443l-2.53493 -4.98909l1.62823 -3.6632l4.16955 -3.30371l2.78427 -3.90903l-1.13146 -2.28463l-1.99921 2.42957l-3.13323 -2.29261l1.06154 -1.47435l-0.883075 -4.74773l1.83224 -0.788255l0.962571 -3.25869l1.97974 -3.36948l-0.364915 -2.13426l2.86537 -1.12156l3.59615 -2.0819l-0.709397 -1.62344l1.95164 -0.393329l-0.231783 -2.61954l1.2266 -1.89577l2.59495 -0.350548l2.2029 -3.28679l2.00177 -2.74405l-1.92802 -1.24512l0.986835 -3.03585l-1.17999 -4.78508l1.12156 -1.3725l-0.825927 -4.42432l-2.11798 -2.78683l-1.74348 -1.50883l-1.12029 -2.82354l1.29237 -1.3974l-1.32589 -0.357891l-0.97598 -1.72816l-2.60613 -1.45423l-2.28846 0.33267l-1.06027 1.82043l-2.11319 1.31376l-1.14104 0.181978l-0.513052 1.08932l2.49566 2.83919l-1.42805 0.668532l-0.75569 0.775165l-2.43404 0.266582l-0.905424 -3.12461l-0.680983 0.889141l-1.72497 -0.307767l-1.0558 -2.10361l-2.14511 -0.348313l-1.35718 -0.612023l-2.24472 0.00830071l-0.161546 1.13497l-0.600529 -0.790809l-2.83887 -1.16019l-1.06218 -1.09858l0.602445 -0.907978l-0.18996 -1.15604l-1.4504 -1.25214l-2.05827 -1.02834l-1.80031 -0.66949l-0.344163 -1.53054l-1.37154 -0.934476l0.335862 1.52032l-1.04366 1.24991l-1.19563 -1.45072l-1.68027 -0.516883l-0.715144 -1.05452l0.0300105 -1.59215l0.692477 -1.6477l-1.47722 -0.737812l1.19882 -1.01046l-1.80925 -1.64771l-2.44522 -2.10999l-1.15094 -1.76392l-2.20513 -1.64355l-2.62081 -2.36221l0.580735 -0.809645l0.863601 0.787616l0.396522 -0.369065l-0.903827 -1.63621l-1.58864 -0.455266l-0.580735 1.23139l-3.02947 -0.0772611l-1.88268 -0.50124l-2.16299 -1.04079l-2.90655 -0.324369l-1.48137 -1.12348l-2.68339 -0.912448l-3.26316 -0.0941816l-2.3919 -1.0376l-2.81428 -2.1582l-5.91941 -5.63144l-2.69807 -1.69911l-4.27043 -1.3642l-2.92188 0.380878l-4.20147 1.96792l-2.63614 0.515606l-3.69417 -1.37889l-3.91988 -0.994817l-4.88916 -2.39988l-3.92148 -0.733342l-5.92197 -2.43117l-4.37579 -2.50045l-1.32046 -1.39645l-2.92698 -0.312876l-5.35049 -1.65505l-2.17864 -2.38743l-5.62059 -2.96881l-2.62049 -3.2986l-0.13592 -0.277757h-101.901v444.615h319.946l1.07617 -0.538388l3.27842 -1.33262l5.02002 -0.30734l3.27842 -1.63996l3.68808 -1.02501l4.30275 -0.61495l3.79066 -1.33262l2.97122 -1.63996l4.09786 -0.61495l3.0734 1.33262l-1.94662 1.7424l-5.32708 1.53751l-2.25409 1.12745l-3.8931 -0.820113l-4.30275 0.512503l-3.58563 1.2299l-3.79066 1.33262l-1.75065 1.05089h352.328v-369.518z
M-374.825 -92.8858L-375.09 -94.3892L-378.564 -95.2783L-381.032 -94.9155L-384.224 -95.2937L-386.671 -94.316L-389.473 -95.9456L-389.012 -97.6318L-384.198 -96.9055L-380.25 -96.4857L-378.367 -97.6502L-380.756 -99.9162L-380.717 -101.914L-384.017 -102.73L-382.839 -104.174L-379.648 -103.943L-375.111 -103.122L-374.457 -104.013L-370.374 -103.989L-367.275 -102.643L-365.897 -102.774L-364.947 -100.919L-362.085 -101.023L-362.254 -99.4641L-359.926 -99.2752L-357.355 -97.3561L-359.298 -95.2269L-361.786 -96.3646L-364.187 -96.1453L-365.908 -96.3942L-366.851 -95.4402L-368.859 -95.1178L-369.655 -96.3868L-371.384 -95.6359L-373.478 -92.054L-374.825 -92.8858z
M-406.776 -93.4299L-409.767 -95.3358L-409.139 -96.5314L-406.94 -96.8959L-405.749 -96.7197L-402.228 -96.2507L-399.45 -94.9944L-398.583 -93.5621L-402.26 -93.4646L-403.849 -92.5905L-406.776 -93.4299z
M-351.73 -96.1126L-350.988 -96.877L-346.708 -96.8464L-344.035 -96.3857L-343.091 -95.3466L-344.431 -94.0278L-348.369 -94.0588L-351.425 -93.8743L-351.73 -96.1126z
M-324.046 -52.7785L-322.529 -54.2169L-322.634 -56.2831L-319.626 -56.9631L-318.528 -56.78L-318.737 -52.8831L-323.105 -52.3077L-324.046 -52.7785z
M-320.123 271.215L-313.846 268.077L-309.4 269.385L-306.262 267.292L-302.077 269.646L-303.646 271.477L-310.708 273.046L-313.062 271.215L-317.508 273.569L-320.123 271.215z
M-362.137 290.303L-365.935 288.73L-371.414 287.974L-377.996 285.052L-383.338 282.239L-390.542 276.381L-386.23 277.479L-378.886 280.973L-371.948 282.85L-369.249 280.452L-367.553 276.871L-362.731 274.711L-359.009 275.328L-359.009 275.329L-357 277.754L-354.385 281.677L-347.585 284.815L-340.262 286.123L-342.615 288.738L-347.585 289L-350.252 287.153L-351.984 289.268L-356.47 290.893L-362.137 290.303"/>
<path fill="rgb(114,163,255)" d="M-489.331 -96.3711l3.98853 -0.528377l3.91669 -0.940543l3.29222 -0.896484l3.32734 -2.13426l1.24639 -3.05149l0.0676851 -0.693116h-31.9191l0.508599 0.570519l1.22085 2.98381l2.04646 2.57548l5.5545 1.38847l2.16171 2.18853l4.5881 -1.46253"/>
<path fill="rgb(114,163,255)" d="M-444.808 -60.2671l-2.76443 -2.19003l-1.67293 0.210434l0.490878 2.0419l2.62158 1.74484l2.27356 0.147858l-0.948644 -1.955"/>
<path fill="rgb(114,163,255)" d="M-360.427 86.3424l0.831736 -0.787946l-1.11651 -2.31572l-0.142723 -0.143263l-3.18963 -2.48683l-1.51088 -0.294095l0.092175 1.00338l-0.0473039 0.647387l-0.557779 0.352211l1.33153 1.0023l1.68618 1.03257l0.814706 0.530073l0.36059 0.908233l0.477093 0.318152l0.469119 0.389243l0.50169 -0.155697"/>
</g>
<g stroke-width="0.5px" stroke="rgb(209,179,139)" fill="none">
<path d="M-332.824 339.462l3.27842 -1.33262l5.02002 -0.30734l3.27842 -1.63996l3.68808 -1.02501l4.30275 -0.61495l3.79066 -1.33262l2.97122 -1.63996l4.09786 -0.61495l3.0734 1.33262l-1.94662 1.7424l-5.32708 1.53751l-2.25409 1.12745l-3.8931 -0.820113l-4.30275 0.512503l-3.58563 1.2299l-3.79066 1.33262"/>
<path d="M-354.385 281.677l6.8 3.13846l7.32308 1.30769l-2.35385 2.61538l-4.96923 0.261538l-2.66727 -1.84746l-1.73196 2.11548l-4.48591 1.62462l-5.66738 -0.589874l-3.79749 -1.57253l-5.4797 -0.756369l-6.58146 -2.92238l-5.34218 -2.81217l-7.2045 -5.85862l4.3124 1.09815l7.34358 3.494l6.93835 1.87748l2.69882 -2.39831l1.69634 -3.58098l4.82188 -2.15994l3.7219 0.616969l0.000521886 0.000630093l2.00867 2.42514l2.61538 3.92308"/>
<path d="M-306.262 267.292l4.18462 2.35385l-1.56923 1.83077l-7.06154 1.56923l-2.35385 -1.83077l-4.44615 2.35385l-2.61538 -2.35385l6.27692 -3.13846l4.44615 1.30769l3.13846 -2.09231"/>
<path d="M-318.737 -52.8831l-4.36769 0.575385l-0.941538 -0.470769l1.51692 -1.43846l-0.104615 -2.06615l3.00769 -0.68l1.09846 0.183077l-0.209231 3.89692"/>
<path d="M-343.091 -95.3466l-1.33991 1.31883l-3.93757 -0.0309502l-3.05596 0.184485l-0.304772 -2.23828l0.741453 -0.76443l4.28005 0.0305447l2.67361 0.460739l0.943103 1.03906"/>
<path d="M-402.26 -93.4646l-1.589 0.874174l-2.92757 -0.83944l-2.99041 -1.90594l0.627654 -1.19557l2.19882 -0.36451l1.19138 0.17624l3.52021 0.468983l2.7789 1.25625l0.866741 1.43236l-3.67672 0.0974459"/>
<path d="M-379.648 -103.943l4.53671 0.821464l0.654144 -0.891609l4.08313 0.0241925l3.0984 1.3464l1.37857 -0.131369l0.949725 1.85553l2.86188 -0.104339l-0.168537 1.55886l2.32735 0.188945l2.57076 1.91905l-1.94256 2.12921l-2.48791 -1.13772l-2.40114 0.219355l-1.72064 -0.248953l-0.943103 0.95405l-2.00811 0.322342l-0.79592 -1.26896l-1.72956 0.750914l-2.09367 3.58184l-1.34667 -0.831736l-0.264901 -1.50345l-3.47413 -0.889041l-2.46858 0.362753l-3.19152 -0.37816l-2.44736 0.977702l-2.8016 -1.62968l0.460874 -1.68618l4.81431 0.726316l3.94717 0.419788l1.88337 -1.16448l-2.38925 -2.26599l0.0394649 -1.99798l-3.30018 -0.815788l1.17814 -1.44439l3.19139 0.231113"/>
<path d="M-392.107 -104.215l-3.52076 0.259765l-3.60387 -0.413841l-7.48954 0.50953"/>
<path d="M-504.903 -104.045l1.22085 2.98381l2.04646 2.57548l5.5545 1.38847l2.16171 2.18853l4.5881 -1.46253l3.98853 -0.528377l3.91669 -0.940542l3.29222 -0.896484l3.32734 -2.13426l1.24639 -3.05149"/>
<path d="M-458.325 -102.766l0.963848 0.910213l-0.783466 2.26164l-1.31152 4.08111l-1.32525 -1.34345l-1.09538 0.0868389l0.0191556 0.768142l0.991305 0.0239446l-0.0868389 1.42263l-0.84668 2.26196l0.457181 0.809645l-0.547852 1.87151l0.330116 0.500282l-0.606276 2.64252l-1.02738 1.38815l-0.944693 0.166335l-1.03664 1.81181l1.70517 0.94597l0.451435 -0.779635l1.53437 0.668532l0.543382 0.204008l1.1471 -0.919471l1.49701 -0.0753456l0.484957 0.426852l0.81188 -0.259559l2.42957 0.471867l2.41808 -0.136963l1.68282 -0.578501l0.613619 -0.585844l1.66654 0.271052l1.25182 0.355657l1.36835 -0.123554l1.03919 -0.453031l2.38903 0.725041l0.830397 0.116211l1.59662 0.976938l1.5117 1.17296l1.90184 0.801345l1.37665 1.43827l-0.449838 0.502197l-0.266583 1.16754l0.533804 1.91429l-1.20489 1.78179l-0.561261 2.10489l-0.169527 2.30474l0.28095 1.34824l0.131535 2.35487l-0.79911 0.513691l-0.489108 2.2377l0.359488 1.38112l-1.06984 1.33802l0.243277 1.41337l0.801983 0.858812l1.32493 2.84238l2.0222 2.10489l2.45575 2.23259l1.87853 1.87662l-0.107272 1.10784l2.08701 0.235614l0.494216 -0.425894l1.43795 1.28566l2.57292 -0.377686l2.22525 -1.3211l3.17665 -1.05452l1.78531 -1.56406l2.88803 0.307448l-0.194749 0.513691l2.91613 0.179105l2.32773 0.903827l1.70741 1.57332l1.96792 1.44593l2.70254 0.166335l3.92467 -3.65234l2.15341 -0.556472l0.0520395 -1.73039l0.963848 -4.41985l2.99977 -2.42734l3.29669 -0.0992901l0.415678 -1.08996l4.09324 0.43611l4.11591 -2.64156l2.03784 -1.16945l2.53238 -2.51929l1.85331 0.320219l1.3725 1.37569l-1.01589 1.76168l-0.148456 1.23554l-3.07065 0.611065l1.70645 2.3737l-0.0638522 2.73575l-2.3073 3.03777l1.97974 4.15007l2.25462 -0.340013l1.17488 -3.78069l-1.62216 -1.84022l-0.264029 -3.96075l6.5142 -2.12564l-0.725041 -2.46597l1.83415 -1.64962l1.87725 3.67501l3.66831 0.0849234l3.39853 2.91772l0.204965 1.73135l4.69665 0.0459736l5.58866 -0.537635l2.99499 2.3421l4.00066 0.646822l2.93433 -1.6343l0.0597018 -1.31695l6.4794 -0.31511l6.26837 -0.0731107l-4.44188 1.54522l1.7869 2.46884l4.18359 0.393329l3.96586 2.5726l0.833271 4.18966l2.72585 -0.118127l2.04934 1.2333l3.43461 1.92387l3.23667 3.40843l0.146541 2.69296l1.9708 0.124512l2.80343 2.55153l2.06498 1.82138l6.26709 1.04718l0.562218 -0.942777l4.22957 -0.377686l5.6241 1.40602l1.77637 0.575627l3.85156 1.23745l5.53822 4.41474l0.865835 2.14256l1.78211 -0.246789l1.29396 2.8925l2.93401 9.14874l2.79736 0.862962l0.140794 3.6102l-3.93457 4.30619l1.62727 1.57683l9.24643 0.821458l0.188683 5.24322l3.97288 -3.43237l6.58188 1.87981l8.68773 3.19452l2.55313 3.06522l-0.857854 2.8957l6.08288 -1.61195l10.1796 2.76639l7.81487 -0.204008l7.7325 4.32918l6.68021 5.86003l4.02939 1.50883l4.47284 0.209754l1.89545 1.64994l1.77541 6.66042l0.868389 3.16451l-2.08286 8.6475l-2.66104 3.41513l-7.37333 7.27819l-3.33244 5.91335l-3.87231 4.53446l-1.30769 0.102483l-1.46094 3.84837l0.370662 9.80035l-1.45774 8.06261l-0.555833 3.44866l-1.65409 2.0637l-0.927453 6.99309l-5.30356 6.82803l-0.889141 5.40253l-4.23372 2.26643l-1.225 3.13578l-5.68284 -0.0124512l-8.22863 2.01007l-3.68395 2.32677l-5.85844 1.5283l-6.15599 4.16476l-4.42783 5.18799l-0.761118 3.90584l0.869986 2.88835l-0.977257 5.28409l-1.18701 2.55249l-3.65554 2.87909l-5.80416 9.20557l-4.59927 4.14975l-3.55657 2.44586l-2.3852 4.976l-3.46015 2.99052l-2.26388 3.28743l-5.9076 2.90719l-3.86146 -1.04558l-2.83089 0.560303l-4.83584 -2.24568l-3.54699 0.167612l-3.18654 -2.89282l-0.357891 2.73064l6.64126 4.48019l-0.714186 3.60605l3.26827 2.27888l-0.265306 2.55473l-5.02612 6.70799l-7.7558 2.80534l-10.4909 1.089l-5.74574 -0.52678l1.0989 3.1195l-1.0708 3.91541l0.965125 2.63773l-3.13738 1.84022l-5.36007 0.722487l-5.02995 -1.90503l-2.01837 1.36867l0.729192 5.19789l3.53166 1.57459l2.86377 -1.6493l1.55831 2.71691l-4.81637 1.62344l-4.20051 3.25263l-0.76878 5.26206l-1.2365 2.80119l-4.94152 0.014686l-4.10059 2.67956l-1.49957 3.92212l5.14457 3.82985l5.00058 1.05771l-1.79999 4.69313l-6.17802 2.95029l-3.39949 6.13236l-4.77359 2.0637l-2.14352 2.44937l1.68953 5.43286l3.4809 3.02787l-2.2045 -0.264667l-4.6545 -0.0392691l-2.51801 1.28694l-4.72027 1.8897l-0.843168 4.88565l-2.21535 0.121319l-5.9009 -1.70006l-5.98806 -3.64213l-6.50749 -2.99403l-1.63845 -3.31329l1.48233 -3.06458l-2.63135 -3.47899l-0.671086 -8.91632l2.22461 -5.03091l5.52417 -4.04184l-7.93938 -1.52543l4.98143 -4.62194l1.78052 -8.68804l5.81342 1.84054l2.73351 -10.836l-3.51091 -1.39038l-1.63398 6.52952l-3.2986 -0.736535l1.6426 -7.48092l1.78243 -9.69052l2.40371 -3.57572l-1.50595 -5.1037l-0.431641 -5.89292l2.20386 -0.170166l3.20953 -8.44764l3.61659 -8.36751l2.21375 -7.79507l-1.20425 -7.83721l1.56246 -4.31481l-0.626709 -6.45641l3.05852 -6.38681l0.942139 -10.119l1.67899 -10.8641l1.63621 -11.6939l-0.383113 -8.56226l-1.08836 -7.36758l-5.24482 -3.00297l-0.453989 -2.14671l-10.3702 -5.25184l-9.3802 -5.72083l-4.03514 -3.22421l-2.1665 -4.3212l0.858812 -1.50755l-4.43038 -6.86411l-5.15702 -9.65094l-4.94216 -10.4149l-2.13937 -2.38424l-1.64547 -3.85252l-4.06419 -3.41354l-3.72705 -2.11798l1.69336 -2.33444l-2.53493 -4.98909l1.62823 -3.6632l4.16955 -3.30371l2.78427 -3.90903l-1.13146 -2.28463l-1.99921 2.42957l-3.13323 -2.29261l1.06154 -1.47435l-0.883075 -4.74773l1.83224 -0.788255l0.962571 -3.2587l1.97974 -3.36948l-0.364915 -2.13426l2.86537 -1.12156l3.59615 -2.0819l-0.709398 -1.62344l1.95164 -0.393329l-0.231783 -2.61954l1.2266 -1.89577l2.59495 -0.350548l2.2029 -3.28679l2.00177 -2.74405l-1.92802 -1.24512l0.986835 -3.03585l-1.17999 -4.78508l1.12156 -1.3725l-0.825928 -4.42432l-2.11798 -2.78683l-1.74348 -1.50883l-1.12029 -2.82354l1.29237 -1.3974l-1.32589 -0.357891l-0.97598 -1.72816l-2.60613 -1.45423l-2.28846 0.33267l-1.06027 1.82043l-2.11319 1.31376l-1.14104 0.181979l-0.513052 1.08932l2.49566 2.83919l-1.42805 0.668532l-0.75569 0.775165l-2.43404 0.266583l-0.905424 -3.12461l-0.680983 0.889141l-1.72497 -0.307767l-1.0558 -2.10361l-2.14511 -0.348314l-1.35718 -0.612023l-2.24472 0.00830078l-0.161546 1.13497l-0.60053 -0.790809l-2.83887 -1.16019l-1.06218 -1.09858l0.602445 -0.907978l-0.18996 -1.15604l-1.4504 -1.25214l-2.05827 -1.02834l-1.80031 -0.66949l-0.344163 -1.53054l-1.37154 -0.934476l0.335862 1.52032l-1.04366 1.24991l-1.19563 -1.45072l-1.68027 -0.516883l-0.715144 -1.05452l0.0300105 -1.59215l0.692477 -1.64771l-1.47722 -0.737812l1.19882 -1.01046l-1.80925 -1.64771l-2.44522 -2.10999l-1.15094 -1.76392l-2.20513 -1.64355l-2.62081 -2.36221l0.580735 -0.809645l0.863601 0.787616l0.396522 -0.369066l-0.903827 -1.63621l-1.58864 -0.455266l-0.580735 1.23139l-3.02947 -0.0772611l-1.88268 -0.501239l-2.16299 -1.04079l-2.90655 -0.324369l-1.48137 -1.12348l-2.68339 -0.912447l-3.26316 -0.0941819l-2.3919 -1.0376l-2.81428 -2.1582l-5.91941 -5.63144l-2.69807 -1.69911l-4.27043 -1.3642l-2.92187 0.380878l-4.20147 1.96792l-2.63614 0.515606l-3.69417 -1.37889l-3.91988 -0.994817l-4.88916 -2.39988l-3.92148 -0.733342l-5.92197 -2.43117l-4.37579 -2.50045l-1.32046 -1.39645l-2.92698 -0.312876l-5.35049 -1.65505l-2.17864 -2.38743l-5.62059 -2.96881l-2.62049 -3.2986"/>
<path d="M-443.859 -58.3121l-0.948644 -1.955l-2.76443 -2.19003l-1.67293 0.210434l0.490878 2.0419l2.62158 1.74483l2.27356 0.147858"/>
<path d="M-363.051 84.3524l0.814707 0.530073l0.36059 0.908233l0.477093 0.318152l0.469119 0.389243l0.501691 -0.155697l0.831736 -0.787946l-1.11651 -2.31572l-0.142722 -0.143263l-3.18963 -2.48683l-1.51088 -0.294095l0.0921749 1.00338l-0.0473038 0.647386l-0.55778 0.352211l1.33153 1.0023l1.68618 1.03257"/>
<path d="M22.6267 -32.8005l-3.93042 0.0648099l-4.61651 -0.00319261l-4.32279 0.610107l-4.21169 1.11614l-8.20053 3.06203l-2.90815 1.79425l-4.71357 1.51681l-4.66248 -1.48552l-2.38009 0.0533166l-3.64947 -1.02291l-3.35352 0.0606596l-6.19589 0.913086l-3.63159 1.50978l-5.17969 1.91844l-1.01046 -0.137921l-1.37059 0.0459736l-5.39136 -2.49311l-4.75252 -3.9815l-4.45656 -2.86122l-3.5224 -3.37491l-1.40922 -0.388221l-3.76568 -2.1068l-2.72457 -2.80279l-0.91564 -1.91014l-0.640756 -3.86657l-2.29453 -3.09555l-2.03369 -2.04742l-1.33962 -0.676833l-1.30578 -1.03983l-0.593506 -2.31113l-0.765268 -1.15285l-1.52128 -0.856896l-2.79257 -2.1863l-2.20226 -0.346398l-1.20042 -1.47403l0.0303298 -0.795917l-1.59471 -1.11007l-0.332989 -1.11933l-0.858173 -4.00992l0.668532 -2.32039l-2.15725 -4.07153l-2.60964 -1.86321l2.30059 -0.992901l2.53429 -3.67214l1.2432 -2.68626l-0.45335 -2.81843l1.4603 -2.57995l0.649696 -4.92428l-0.578501 -5.16883l-0.631498 -2.6007"/>
</g>
</g>
</g>
</g>
<g inkscape:groupmode="layer" inkscape:label="Coastline" id="Coastline"><title>Coastline</title>
<g>
<g id="drawing" transform="translate(653.846,-340)">
<g stroke-width="0.5px" stroke="rgb(0,0,0)" fill="none">
<path d="M-332.824 339.462l3.27842 -1.33262l5.02002 -0.30734l3.27842 -1.63996l3.68808 -1.02501l4.30275 -0.61495l3.79066 -1.33262l2.97122 -1.63996l4.09786 -0.61495l3.0734 1.33262l-1.94662 1.7424l-5.32708 1.53751l-2.25409 1.12745l-3.8931 -0.820113l-4.30275 0.512503l-3.58563 1.2299l-3.79066 1.33262"/>
<path d="M-354.385 281.677l6.8 3.13846l7.32308 1.30769l-2.35385 2.61538l-4.96923 0.261538l-2.66727 -1.84746l-1.73196 2.11548l-4.48591 1.62462l-5.66738 -0.589874l-3.79749 -1.57253l-5.4797 -0.756369l-6.58146 -2.92238l-5.34218 -2.81217l-7.2045 -5.85862l4.3124 1.09815l7.34358 3.494l6.93835 1.87748l2.69882 -2.39831l1.69634 -3.58098l4.82188 -2.15994l3.7219 0.616969l0.000521886 0.000630093l2.00867 2.42514l2.61538 3.92308"/>
<path d="M-306.262 267.292l4.18462 2.35385l-1.56923 1.83077l-7.06154 1.56923l-2.35385 -1.83077l-4.44615 2.35385l-2.61538 -2.35385l6.27692 -3.13846l4.44615 1.30769l3.13846 -2.09231"/>
<path d="M-318.737 -52.8831l-4.36769 0.575385l-0.941538 -0.470769l1.51692 -1.43846l-0.104615 -2.06615l3.00769 -0.68l1.09846 0.183077l-0.209231 3.89692"/>
<path d="M-343.091 -95.3466l-1.33991 1.31883l-3.93757 -0.0309502l-3.05596 0.184485l-0.304772 -2.23828l0.741453 -0.76443l4.28005 0.0305447l2.67361 0.460739l0.943103 1.03906"/>
<path d="M-402.26 -93.4646l-1.589 0.874174l-2.92757 -0.83944l-2.99041 -1.90594l0.627654 -1.19557l2.19882 -0.36451l1.19138 0.17624l3.52021 0.468983l2.7789 1.25625l0.866741 1.43236l-3.67672 0.0974459"/>
<path d="M-379.648 -103.943l4.53671 0.821464l0.654144 -0.891609l4.08313 0.0241925l3.0984 1.3464l1.37857 -0.131369l0.949725 1.85553l2.86188 -0.104339l-0.168537 1.55886l2.32735 0.188945l2.57076 1.91905l-1.94256 2.12921l-2.48791 -1.13772l-2.40114 0.219355l-1.72064 -0.248953l-0.943103 0.95405l-2.00811 0.322342l-0.79592 -1.26896l-1.72956 0.750914l-2.09367 3.58184l-1.34667 -0.831736l-0.264901 -1.50345l-3.47413 -0.889041l-2.46858 0.362753l-3.19152 -0.37816l-2.44736 0.977702l-2.8016 -1.62968l0.460874 -1.68618l4.81431 0.726316l3.94717 0.419788l1.88337 -1.16448l-2.38925 -2.26599l0.0394649 -1.99798l-3.30018 -0.815788l1.17814 -1.44439l3.19139 0.231113"/>
<path d="M-392.107 -104.215l-3.52076 0.259765l-3.60387 -0.413841l-7.48954 0.50953"/>
<path d="M-504.903 -104.045l1.22085 2.98381l2.04646 2.57548l5.5545 1.38847l2.16171 2.18853l4.5881 -1.46253l3.98853 -0.528377l3.91669 -0.940542l3.29222 -0.896484l3.32734 -2.13426l1.24639 -3.05149"/>
<path d="M-458.325 -102.766l0.963848 0.910213l-0.783466 2.26164l-1.31152 4.08111l-1.32525 -1.34345l-1.09538 0.0868389l0.0191556 0.768142l0.991305 0.0239446l-0.0868389 1.42263l-0.84668 2.26196l0.457181 0.809645l-0.547852 1.87151l0.330116 0.500282l-0.606276 2.64252l-1.02738 1.38815l-0.944693 0.166335l-1.03664 1.81181l1.70517 0.94597l0.451435 -0.779635l1.53437 0.668532l0.543382 0.204008l1.1471 -0.919471l1.49701 -0.0753456l0.484957 0.426852l0.81188 -0.259559l2.42957 0.471867l2.41808 -0.136963l1.68282 -0.578501l0.613619 -0.585844l1.66654 0.271052l1.25182 0.355657l1.36835 -0.123554l1.03919 -0.453031l2.38903 0.725041l0.830397 0.116211l1.59662 0.976938l1.5117 1.17296l1.90184 0.801345l1.37665 1.43827l-0.449838 0.502197l-0.266583 1.16754l0.533804 1.91429l-1.20489 1.78179l-0.561261 2.10489l-0.169527 2.30474l0.28095 1.34824l0.131535 2.35487l-0.79911 0.513691l-0.489108 2.2377l0.359488 1.38112l-1.06984 1.33802l0.243277 1.41337l0.801983 0.858812l1.32493 2.84238l2.0222 2.10489l2.45575 2.23259l1.87853 1.87662l-0.107272 1.10784l2.08701 0.235614l0.494216 -0.425894l1.43795 1.28566l2.57292 -0.377686l2.22525 -1.3211l3.17665 -1.05452l1.78531 -1.56406l2.88803 0.307448l-0.194749 0.513691l2.91613 0.179105l2.32773 0.903827l1.70741 1.57332l1.96792 1.44593l2.70254 0.166335l3.92467 -3.65234l2.15341 -0.556472l0.0520395 -1.73039l0.963848 -4.41985l2.99977 -2.42734l3.29669 -0.0992901l0.415678 -1.08996l4.09324 0.43611l4.11591 -2.64156l2.03784 -1.16945l2.53238 -2.51929l1.85331 0.320219l1.3725 1.37569l-1.01589 1.76168l-0.148456 1.23554l-3.07065 0.611065l1.70645 2.3737l-0.0638522 2.73575l-2.3073 3.03777l1.97974 4.15007l2.25462 -0.340013l1.17488 -3.78069l-1.62216 -1.84022l-0.264029 -3.96075l6.5142 -2.12564l-0.725041 -2.46597l1.83415 -1.64962l1.87725 3.67501l3.66831 0.0849234l3.39853 2.91772l0.204965 1.73135l4.69665 0.0459736l5.58866 -0.537635l2.99499 2.3421l4.00066 0.646822l2.93433 -1.6343l0.0597018 -1.31695l6.4794 -0.31511l6.26837 -0.0731107l-4.44188 1.54522l1.7869 2.46884l4.18359 0.393329l3.96586 2.5726l0.833271 4.18966l2.72585 -0.118127l2.04934 1.2333l3.43461 1.92387l3.23667 3.40843l0.146541 2.69296l1.9708 0.124512l2.80343 2.55153l2.06498 1.82138l6.26709 1.04718l0.562218 -0.942777l4.22957 -0.377686l5.6241 1.40602l1.77637 0.575627l3.85156 1.23745l5.53822 4.41474l0.865835 2.14256l1.78211 -0.246789l1.29396 2.8925l2.93401 9.14874l2.79736 0.862962l0.140794 3.6102l-3.93457 4.30619l1.62727 1.57683l9.24643 0.821458l0.188683 5.24322l3.97288 -3.43237l6.58188 1.87981l8.68773 3.19452l2.55313 3.06522l-0.857854 2.8957l6.08288 -1.61195l10.1796 2.76639l7.81487 -0.204008l7.7325 4.32918l6.68021 5.86003l4.02939 1.50883l4.47284 0.209754l1.89545 1.64994l1.77541 6.66042l0.868389 3.16451l-2.08286 8.6475l-2.66104 3.41513l-7.37333 7.27819l-3.33244 5.91335l-3.87231 4.53446l-1.30769 0.102483l-1.46094 3.84837l0.370662 9.80035l-1.45774 8.06261l-0.555833 3.44866l-1.65409 2.0637l-0.927453 6.99309l-5.30356 6.82803l-0.889141 5.40253l-4.23372 2.26643l-1.225 3.13578l-5.68284 -0.0124512l-8.22863 2.01007l-3.68395 2.32677l-5.85844 1.5283l-6.15599 4.16476l-4.42783 5.18799l-0.761118 3.90584l0.869986 2.88835l-0.977257 5.28409l-1.18701 2.55249l-3.65554 2.87909l-5.80416 9.20557l-4.59927 4.14975l-3.55657 2.44586l-2.3852 4.976l-3.46015 2.99052l-2.26388 3.28743l-5.9076 2.90719l-3.86146 -1.04558l-2.83089 0.560303l-4.83584 -2.24568l-3.54699 0.167612l-3.18654 -2.89282l-0.357891 2.73064l6.64126 4.48019l-0.714186 3.60605l3.26827 2.27888l-0.265306 2.55473l-5.02612 6.70799l-7.7558 2.80534l-10.4909 1.089l-5.74574 -0.52678l1.0989 3.1195l-1.0708 3.91541l0.965125 2.63773l-3.13738 1.84022l-5.36007 0.722487l-5.02995 -1.90503l-2.01837 1.36867l0.729192 5.19789l3.53166 1.57459l2.86377 -1.6493l1.55831 2.71691l-4.81637 1.62344l-4.20051 3.25263l-0.76878 5.26206l-1.2365 2.80119l-4.94152 0.014686l-4.10059 2.67956l-1.49957 3.92212l5.14457 3.82985l5.00058 1.05771l-1.79999 4.69313l-6.17802 2.95029l-3.39949 6.13236l-4.77359 2.0637l-2.14352 2.44937l1.68953 5.43286l3.4809 3.02787l-2.2045 -0.264667l-4.6545 -0.0392691l-2.51801 1.28694l-4.72027 1.8897l-0.843168 4.88565l-2.21535 0.121319l-5.9009 -1.70006l-5.98806 -3.64213l-6.50749 -2.99403l-1.63845 -3.31329l1.48233 -3.06458l-2.63135 -3.47899l-0.671086 -8.91632l2.22461 -5.03091l5.52417 -4.04184l-7.93938 -1.52543l4.98143 -4.62194l1.78052 -8.68804l5.81342 1.84054l2.73351 -10.836l-3.51091 -1.39038l-1.63398 6.52952l-3.2986 -0.736535l1.6426 -7.48092l1.78243 -9.69052l2.40371 -3.57572l-1.50595 -5.1037l-0.431641 -5.89292l2.20386 -0.170166l3.20953 -8.44764l3.61659 -8.36751l2.21375 -7.79507l-1.20425 -7.83721l1.56246 -4.31481l-0.626709 -6.45641l3.05852 -6.38681l0.942139 -10.119l1.67899 -10.8641l1.63621 -11.6939l-0.383113 -8.56226l-1.08836 -7.36758l-5.24482 -3.00297l-0.453989 -2.14671l-10.3702 -5.25184l-9.3802 -5.72083l-4.03514 -3.22421l-2.1665 -4.3212l0.858812 -1.50755l-4.43038 -6.86411l-5.15702 -9.65094l-4.94216 -10.4149l-2.13937 -2.38424l-1.64547 -3.85252l-4.06419 -3.41354l-3.72705 -2.11798l1.69336 -2.33444l-2.53493 -4.98909l1.62823 -3.6632l4.16955 -3.30371l2.78427 -3.90903l-1.13146 -2.28463l-1.99921 2.42957l-3.13323 -2.29261l1.06154 -1.47435l-0.883075 -4.74773l1.83224 -0.788255l0.962571 -3.2587l1.97974 -3.36948l-0.364915 -2.13426l2.86537 -1.12156l3.59615 -2.0819l-0.709398 -1.62344l1.95164 -0.393329l-0.231783 -2.61954l1.2266 -1.89577l2.59495 -0.350548l2.2029 -3.28679l2.00177 -2.74405l-1.92802 -1.24512l0.986835 -3.03585l-1.17999 -4.78508l1.12156 -1.3725l-0.825928 -4.42432l-2.11798 -2.78683l-1.74348 -1.50883l-1.12029 -2.82354l1.29237 -1.3974l-1.32589 -0.357891l-0.97598 -1.72816l-2.60613 -1.45423l-2.28846 0.33267l-1.06027 1.82043l-2.11319 1.31376l-1.14104 0.181979l-0.513052 1.08932l2.49566 2.83919l-1.42805 0.668532l-0.75569 0.775165l-2.43404 0.266583l-0.905424 -3.12461l-0.680983 0.889141l-1.72497 -0.307767l-1.0558 -2.10361l-2.14511 -0.348314l-1.35718 -0.612023l-2.24472 0.00830078l-0.161546 1.13497l-0.60053 -0.790809l-2.83887 -1.16019l-1.06218 -1.09858l0.602445 -0.907978l-0.18996 -1.15604l-1.4504 -1.25214l-2.05827 -1.02834l-1.80031 -0.66949l-0.344163 -1.53054l-1.37154 -0.934476l0.335862 1.52032l-1.04366 1.24991l-1.19563 -1.45072l-1.68027 -0.516883l-0.715144 -1.05452l0.0300105 -1.59215l0.692477 -1.64771l-1.47722 -0.737812l1.19882 -1.01046l-1.80925 -1.64771l-2.44522 -2.10999l-1.15094 -1.76392l-2.20513 -1.64355l-2.62081 -2.36221l0.580735 -0.809645l0.863601 0.787616l0.396522 -0.369066l-0.903827 -1.63621l-1.58864 -0.455266l-0.580735 1.23139l-3.02947 -0.0772611l-1.88268 -0.501239l-2.16299 -1.04079l-2.90655 -0.324369l-1.48137 -1.12348l-2.68339 -0.912447l-3.26316 -0.0941819l-2.3919 -1.0376l-2.81428 -2.1582l-5.91941 -5.63144l-2.69807 -1.69911l-4.27043 -1.3642l-2.92187 0.380878l-4.20147 1.96792l-2.63614 0.515606l-3.69417 -1.37889l-3.91988 -0.994817l-4.88916 -2.39988l-3.92148 -0.733342l-5.92197 -2.43117l-4.37579 -2.50045l-1.32046 -1.39645l-2.92698 -0.312876l-5.35049 -1.65505l-2.17864 -2.38743l-5.62059 -2.96881l-2.62049 -3.2986"/>
<path d="M-443.859 -58.3121l-0.948644 -1.955l-2.76443 -2.19003l-1.67293 0.210434l0.490878 2.0419l2.62158 1.74483l2.27356 0.147858"/>
<path d="M-363.051 84.3524l0.814707 0.530073l0.36059 0.908233l0.477093 0.318152l0.469119 0.389243l0.501691 -0.155697l0.831736 -0.787946l-1.11651 -2.31572l-0.142722 -0.143263l-3.18963 -2.48683l-1.51088 -0.294095l0.0921749 1.00338l-0.0473038 0.647386l-0.55778 0.352211l1.33153 1.0023l1.68618 1.03257"/>
<path d="M22.6267 -32.8005l-3.93042 0.0648099l-4.61651 -0.00319261l-4.32279 0.610107l-4.21169 1.11614l-8.20053 3.06203l-2.90815 1.79425l-4.71357 1.51681l-4.66248 -1.48552l-2.38009 0.0533166l-3.64947 -1.02291l-3.35352 0.0606596l-6.19589 0.913086l-3.63159 1.50978l-5.17969 1.91844l-1.01046 -0.137921l-1.37059 0.0459736l-5.39136 -2.49311l-4.75252 -3.9815l-4.45656 -2.86122l-3.5224 -3.37491l-1.40922 -0.388221l-3.76568 -2.1068l-2.72457 -2.80279l-0.91564 -1.91014l-0.640756 -3.86657l-2.29453 -3.09555l-2.03369 -2.04742l-1.33962 -0.676833l-1.30578 -1.03983l-0.593506 -2.31113l-0.765268 -1.15285l-1.52128 -0.856896l-2.79257 -2.1863l-2.20226 -0.346398l-1.20042 -1.47403l0.0303298 -0.795917l-1.59471 -1.11007l-0.332989 -1.11933l-0.858173 -4.00992l0.668532 -2.32039l-2.15725 -4.07153l-2.60964 -1.86321l2.30059 -0.992901l2.53429 -3.67214l1.2432 -2.68626l-0.45335 -2.81843l1.4603 -2.57995l0.649696 -4.92428l-0.578501 -5.16883l-0.631498 -2.6007"/>
</g>
</g>
</g>
</g>
<g inkscape:groupmode="layer" inkscape:label="Coastline" id="Coastline"><title>Coastline</title>
<g>
<g id="drawing" transform="translate(653.846,-340)">
<g stroke-width="1px" stroke="rgb(51,51,51)" fill="none">
<path d="M-653.846 340l0 -444.615l680 0l0 444.615l-680 0"/>
</g>
</g>
</g>
</g>
<g id="Clone of page">
</g>
</g>
</g><!--ePage-->
</svg>
