<?xml version="1.0" ?>
<svg version="1.1" encoding="iso-8859-1" baseProfile="full"
xmlns:dc="http://purl.org/dc/elements/1.1/"
xmlns:cc="http://creativecommons.org/ns#"
xmlns:rdf="http://www.w3.org/1999/02/22-rdf-syntax-ns#"
xmlns="http://www.w3.org/2000/svg"
xmlns:xlink="http://www.w3.org/1999/xlink"
xmlns:ev="http://www.w3.org/2001/xml-events"
xmlns:sodipodi="http://sodipodi.sourceforge.net/DTD/sodipodi-0.dtd"
xmlns:inkscape="http://www.inkscape.org/namespaces/inkscape"
inkscape:version="0.46"
inkscape:output_extension="org.inkscape.output.svg.inkscape"
viewBox="0 0 681 681" xml:space="preserve">
<title>Magics plot</title>
<metadata id="MAGICSmetadata">
<rdf:RDF><cc:Work rdf:about="">
	<dc:format>image/svg+xml</dc:format>
	<dc:title>Magics plot</dc:title>
	<dc:author>baudouin on Baudouins-iMac-3.local</dc:author>
	<dc:date>Mon Sep 14 09:17:20 2020</dc:date>
	<dc:language>en-GB</dc:language>
	<dc:publisher><cc:Agent>
	 <dc:title>Magics 4.4.5 (64 bit)</dc:title>
	</cc:Agent></dc:publisher>
	<dc:coverage>Plot of meteorological data</dc:coverage>
</cc:Work></rdf:RDF>
</metadata>
<g id="page" transform="translate(0,680)" vector-effect="non-scaling-stroke">
<g id="Page1">
<g inkscape:groupmode="layer" inkscape:label="Coastline" id="Coastline"><title>Coastline</title>
<g>
<g id="drawing" transform="translate(339.407,-340.593)">
</g>
</g>
</g>
<g inkscape:groupmode="layer" inkscape:label="Coastline" id="Coastline"><title>Coastline</title>
<g>
<g id="drawing" transform="translate(339.407,-340.593)">
<g fill-rule="evenodd" stroke="none">
<path fill="rgb(255,225,170)" d="M36.9114 20.3434l-1.273 -1.30091l1.06275 -1.17205l0.825546 -1.38962l-1.29164 -0.151816l-0.15087 -0.0679882l-1.63407 0.179573l-0.447075 1.44515l-1.17914 0.943351l1.54913 1.1236l1.7539 1.26647l1.89484 0.196116l-1.11037 -1.07188"/>
<path fill="rgb(255,225,170)" d="M15.688 -41.3167l0.470798 -1.86151l-0.0720919 -1.61762l-0.356216 -1.53168l-1.31927 -1.12264l-0.946238 1.36503l0.180473 1.2666l-0.0420557 0.247587l0.00578414 1.56563l0.498454 1.73543l1.58036 -0.0468197"/>
<path fill="rgb(255,225,170)" d="M37.2775 35.1742l0.21974 -1.59051l0.297154 -0.334438l-0.950545 -1.56632l-0.809625 -1.35448l-0.976836 -1.28995l-1.10231 -1.53371l-0.698156 -1.38408l0.0119361 -1.93882l-1.33539 -1.12046l-1.65801 -0.12438l-1.16572 1.07443l-0.278918 1.59793l-0.135326 1.61571l-0.0244803 1.56569l0.121591 1.72763l1.50073 1.54674l1.32152 1.26163l2.03489 1.61501l2.04055 0.556188l1.5872 -0.323824"/>
<path fill="rgb(255,225,170)" d="M61.2084 -33.5441l-1.36751 -0.892089l-0.217898 -1.6891l-0.128101 -1.64036l-1.34466 0.545989l-0.645567 1.81102l0.552785 1.57474l1.49794 0.423808l1.65302 -0.134001"/>
<path fill="rgb(255,225,170)" d="M56.781 -40.5906l0.0931779 -1.58394l-1.27296 -0.156346l0.0451311 2.03164l0.549798 1.50396l0.255944 0.672177l0.328906 -2.46749"/>
<path fill="rgb(255,225,170)" d="M75.8236 -9.02522l-0.687534 -1.38037l0.369959 -1.52846l0.00548887 -1.96702l0.25074 -1.794l-0.917748 -0.66571l-1.58428 1.05344l-0.566582 1.46205l0.555311 1.67696l0.0784987 1.60419l0.374435 1.53589l-0.218009 1.0449l2.33972 -1.04187"/>
<path fill="rgb(255,225,170)" d="M84.3721 30.2873l-0.168245 -1.579l-1.65633 -1.47507l-3.3109 -1.06222l-1.50081 -0.584124l-1.96122 -1.0754l0.640632 -1.48447l-0.216951 -1.05627l-1.22426 -1.89919l-1.73056 -0.382813l-1.48474 0.630437l0.1546 1.56596l0.0965271 1.65343l-1.40694 -1.12588l-0.611371 1.58372l0.310131 1.64768l0.00885363 1.64978l1.35883 0.922849l1.48124 0.843454l1.86662 0.563547l1.95387 0.346571l1.91344 0.218279l2.05189 0.0893898l1.63725 0.226961l1.79845 -0.217602"/>
<path fill="rgb(255,225,170)" d="M-10.3994 83.0693l1.35241 -0.778944l1.66584 -0.51362l1.52802 -0.894098l1.60824 -0.492448l1.61403 -0.522823l1.43159 -0.72608l1.50943 -1.42646l0.60479 1.76817l1.58357 0.219641l1.71599 -0.580021l1.7264 -0.872782l1.65465 0.111074l0.510092 1.56234l1.5517 0.253112l0.495187 -1.76492l-0.153379 -1.59703l1.62473 -0.0584543l0.882461 1.31465l1.67043 -0.028368l0.759933 -1.34579l0.250962 -2.11395l0.659682 -1.86058l0.980065 -1.6035l1.10718 -1.31249l1.03783 -1.14651l0.423677 -1.51645l-0.0867252 -1.81059l-1.47649 -0.624688l-0.121891 -1.70529l0.671664 -1.50225l0.515615 -1.64636l1.0134 -1.74152l0.765717 -1.33373l0.835896 -1.38492l0.869017 -1.24744l1.14386 -1.12533l1.35126 -0.805311l0.475921 -0.600672l0.940557 -1.13013l0.8381 -1.30036l-0.0576686 -1.87888l0.353257 -1.65489l0.295943 -1.64754l0.725023 -1.66206l0.47084 -1.53685l-0.214595 -0.970359l-1.75537 -2.62398l-1.09663 -1.15216l-1.24745 0.862509l-0.992906 1.42403l-1.2288 0.921031l-0.780218 -1.36866l-1.0146 -1.14003l-1.16651 -1.0592l0.41713 -1.46858l0.90885 -1.42133l0.847786 -1.25115l0.485454 -1.4593l0.462449 -1.49482l1.18499 -1.08421l-0.171628 -1.50324l-0.94346 -1.60114l1.54449 -0.107819l1.44115 -0.661665l0.938971 -1.18666l-0.220404 -1.55583l-0.12462 -1.6041l-0.512271 -1.55671l-0.539914 -1.41895l-0.922647 -1.31884l1.46738 0.606867l1.97366 0.558672l1.74523 -0.237563l1.56768 -0.323623l1.69311 -0.86119l1.22345 -1.18577l1.65761 -0.631707l1.56667 -0.469626l1.48305 -0.839084l1.04366 -1.26503l1.75174 -0.519391l1.57017 0.202613l1.57603 -0.590651l1.61696 0.37593l1.69524 0.412158l0.780169 1.44301l-0.77421 1.34825l1.01329 1.3042l1.59488 -0.129907l1.39467 -0.69222l1.07125 -1.21796l1.69144 0.0782916l-0.387184 1.60021l-0.0870687 1.58821l-0.66284 1.60736l-0.344947 1.54762l1.37593 1.34762l0.365373 1.61736l0.35913 1.5513l0.0549584 1.55093l0.759808 2.13388l0.986651 1.22135l1.12297 1.1247l-0.178442 1.6195l0.930601 1.27538l1.22733 1.42097l1.89633 1.25361l1.66018 0.475183l1.52144 0.726774l1.58874 0.431749l3.57346 1.73197l1.61063 0.397535l1.58782 0.0773642l1.70145 0.402856l1.57982 0.453776l1.79777 0.213025l1.7453 -0.454826l1.47938 -0.723471l1.59093 -0.188106l1.86615 0.223553l1.37058 0.905783l1.26633 1.74483l0.806623 1.49424l0.894007 1.49262l-0.432767 1.62224l0.355662 1.54622l1.68263 -0.0642241l1.50041 0.657446l1.41373 1.01735l0.720689 1.41043l0.339658 1.73584l0.273088 1.64503l-0.408448 1.58364l-1.32106 0.874954l0.386586 1.19953l0.0605965 2.36122l0.848834 1.40893l1.57818 -0.377146l0.378331 -1.59905l-0.609291 -1.67673l-0.254155 -1.78976l0.337885 -1.64093l-0.100956 -1.60607l-0.652878 -1.70651l0.60722 -1.72894l-0.474321 -1.5559l-0.636292 -1.44618l-1.39832 -1.46622l-0.556295 -1.85772l-0.751482 -1.67751l-1.03957 -1.69165l-0.812649 -1.37494l-1.50017 -1.52231l-1.65579 -0.467857l-1.85751 -0.421665l-1.47856 -0.884391l-1.42147 -1.24693l-1.23031 -1.27382l-1.52532 -0.760541l-1.61021 -0.539946l-1.55426 -0.217259l-1.73698 -0.216076l-1.75137 -0.183297l-1.72391 -0.25189l-1.6934 -0.541147l-1.58976 -1.00027l-0.95905 -1.20804l-0.406295 -1.48881l0.00350655 -1.69465l0.094701 -1.81578l-0.104075 -1.60093l-0.690742 -1.49796l-0.554128 -1.44531l-0.012055 -1.63331l1.57718 -0.46484l1.17068 -1.00623l-0.0814815 -1.7213l1.87086 -0.911688l-1.41155 -0.725472l-1.42863 -1.17941l1.11159 -1.29088l0.672344 -1.40143l0.319087 -1.57354l1.75276 -0.882456l-0.328063 -1.58124l0.809986 -1.41147l1.95483 -0.980249l-3.27211 -1.10424l-0.357448 -1.6297l0.965011 -1.28892l-0.584678 -1.49773l-0.965 -1.61171l-0.740068 -1.5022l0.0503179 -1.65408l1.4245 -0.730891l1.05544 -1.44766l0.411507 -1.58078l-0.55977 -1.56432l-0.107602 -1.68255l0.348522 -1.0852l-3.00242 1.17611l-1.49291 0.619223l-1.40419 1.01028l-0.0164391 1.5471l-1.37254 0.841877l-1.26738 0.974127l-1.91438 -0.239833l0.444281 -1.61154l0.244464 -1.57966l-0.245227 -1.66002l-1.10058 -1.15052l-0.686944 -1.40281l0.716619 -1.57391l-0.0271616 -1.58917l1.01006 -1.82913l-1.60426 -0.63005l1.03105 -1.22693l1.22606 -0.969763l0.921572 -1.24183l-1.90391 -0.538665l-1.28347 -0.931891l0.160783 -1.72401l-1.26107 -0.939579l-1.6706 -0.413581l-0.936761 -1.26608l-0.824498 -1.48802l-0.839164 -1.43065l-1.04214 -1.21028l-0.666649 -1.62255l-0.616926 -1.48905l-1.40407 -0.806569l-1.07744 -1.14361l-0.453235 -1.64606l-1.59793 -0.853862l-0.307598 -0.799183l-0.459442 -0.818653l-1.64251 -0.3114l-1.52038 -0.159598l-1.7933 -0.257258l-1.40595 -0.64968l-1.27262 -0.92568l-1.66044 0.088109l-1.81393 -0.300684l0.306765 -1.52502l-1.58012 -0.171428l-1.09341 1.07877l-0.57541 1.52235l-0.850651 1.33784l-1.47959 -0.468255l-1.68827 0.619515l-1.62149 0.394794l-1.53373 0.188659l-1.48875 -0.31694l0.134405 -1.98178l-1.60588 -0.119274l-1.57899 -0.242695l-0.275087 -1.55713l-0.281253 -0.562023l-1.52332 4.58871l0.0597511 1.64184l0.472318 1.65174l-0.169087 1.65455l1.21841 1.04492l0.995955 1.17324l1.28131 1.00893l0.324195 1.65011l0.191782 1.49961l-0.744528 1.59277l-1.23864 0.871565l-1.76872 0.749601l-1.62013 0.491417l-0.150523 -1.68417l-1.64829 -0.0896529l-1.33708 -0.878359l0.37023 1.61196l-0.204315 1.54749l0.37355 1.4749l-0.694843 1.59325l-0.894539 1.30429l-0.950506 1.46158l-0.922195 1.66015l0.657441 1.37072l-0.495437 1.61425l0.610033 1.53474l1.19056 1.03955l-1.25545 1.52977l-1.46949 0.367916l-1.40786 0.562121l-0.0294239 -1.54235l-0.96033 -1.41116l-1.37966 0.659707l-0.922179 -1.387l-0.408197 -1.50199l-0.802536 -1.3115l-0.307887 -1.50015l-0.0987222 -0.532051l-0.231967 -1.04135l-1.39399 0.539951l-0.126969 0.225587l-0.714016 1.68373l-0.450296 -1.79639l-0.0399489 -0.0717288l-0.0642725 -0.0143184l-0.0750022 0.180258l-0.148411 0.364109l-0.166171 0.420183l-0.133285 0.347365l-0.0544314 0.144686l-0.710504 -1.34219l-0.382107 2.44471l-0.0222441 -0.0339176l-0.697831 -1.00243l-1.01945 -1.2691l-1.05057 1.17513l-0.46639 -1.19551l-0.12573 -0.307824l-1.40814 -0.691433l-0.623456 -1.98011l-1.39992 -1.04676l-1.08788 -1.08761l-1.08681 -1.06812l-1.07054 -1.14243l-0.97213 -1.33543l-0.856045 -1.54368l-1.28899 -1.03445l-0.199375 -1.60051l-0.237646 -1.58475l-0.530077 -1.92087l-0.150654 -2.4871l1.39735 -0.608687l0.942476 -1.21009l1.27589 -0.999795l-0.738496 -1.70367l-1.70042 -0.165681l-0.799079 -1.33139l-0.619618 -1.46723l-0.976045 -1.44976l-0.468225 -1.51203l-0.450544 -1.86676l-0.194374 -1.59503l-0.065207 -1.80574l0.40092 -1.4977l0.331337 -1.73021l0.0875215 -1.74892l1.24693 -1.24068l0.355579 -1.62238l1.41048 -0.968314l0.243499 -1.83812l0.16924 -1.56639l0.243202 -2.00424l0.441756 -1.60715l-0.104144 -1.69036l-1.15005 -1.09681l-1.55905 -0.582177l-1.61826 -0.717152l-1.6653 -0.24726l-1.72848 0.0605741l-1.62379 0.506736l-1.54508 0.168593l-1.55247 0.555094l-1.72723 -0.15412l-1.5394 -1.08586l-1.91691 -0.391859l-1.28172 -1.33117l-1.8151 0.16416l-1.8703 0.317935l-1.64816 -0.391588l-1.64538 -0.746883l-1.76661 -0.483925l-0.279883 1.74771l-1.62279 0.728472l-1.73208 0.150519l-2.19952 0.44826l-2.16571 0.386909l-2.11321 0.00309269l-2.03072 0.0912798l-1.5981 -0.474525l-0.633766 -1.53147l-1.76204 -0.459593l-1.76544 0.820869l-1.92226 1.19837l-1.23398 1.05155l-1.76691 1.4072l-1.02867 1.18611l-1.6501 1.5347l-1.27489 1.49249l-1.5841 0.421576l-1.52251 -0.563141l-1.67469 -0.889939l-1.60671 -1.19665l-1.6614 -0.0541914l1.22681 1.32997l1.17647 1.86362l-0.864905 1.3775l-0.800028 1.47076l-1.34287 1.47228l-1.04893 1.45464l-0.690818 1.87823l-0.390238 1.69697l-1.3238 0.982797l-1.27112 0.954844l-0.934086 1.26l-0.392742 1.72511l-1.37469 1.236l-1.36968 0.972891l-0.561827 1.50669l0.553257 1.70295l0.477775 1.85257l-0.591096 1.68678l-1.40746 1.64103l-1.93819 1.27575l-1.52927 0.545989l-0.683307 1.78047l-1.76513 0.525711l-1.62371 0.244667l-1.3541 0.928525l0.344608 1.59371l-0.593028 1.89887l0.758103 1.59475l0.618413 1.76334l-0.0614137 1.95171l-0.102999 1.91519l-0.476742 1.50096l-0.563081 1.58112l-3.15248 1.41645l-1.79334 0.753062l-1.49733 1.04379l-0.85324 1.00316l2.7183 2.88204l0.944459 1.41059l1.26954 1.13296l1.2353 1.36959l-0.872464 1.63958l0.370065 1.62877l-0.228625 1.80443l0.430466 1.57247l-1.05795 1.1938l-0.370521 1.40369l0.355357 1.08891l-0.170832 1.58392l-0.405402 1.71347l0.481792 1.63583l-0.346583 1.62385l-0.837011 1.44571l-2.03661 0.862789l-1.18019 0.691904l2.949 0.77118l1.25926 1.17464l-0.132753 1.87548l0.651567 1.61166l0.578533 1.46965l-0.2274 1.72433l0.839656 1.12034l0.897349 0.830163l1.57372 0.674212l1.0684 1.21612l1.37579 1.35663l1.79967 0.755556l1.67623 0.121679l1.81939 0.378407l1.00541 1.35244l0.854729 1.33645l0.602626 1.60061l0.66315 0.784522l2.25193 0.148052l1.56453 -0.0894019l1.47413 0.471107l1.52041 0.312886l1.66526 -0.0704573l1.83234 0.153968l1.22343 1.17919l0.142539 1.56809l-0.878523 1.44095l-1.88167 0.0667362l-1.75145 -0.0733394l-1.64832 0.425094l0.662921 1.45222l-1.49399 0.820684l-1.92302 -0.472106l-1.54212 -0.945815l-1.89311 0.512796l-1.05771 0.326759l-3.75953 2.82468l0.601929 1.51957l0.301583 1.61321l0.149167 1.62384l0.206318 1.68786l-0.17387 1.82015l2.24341 0.48518l1.36043 0.779258l0.511828 1.50272l-0.389739 1.76295l-0.488923 1.55676l0.58277 1.98932l-0.482071 1.50449l-0.421232 2.05895l-1.4939 1.16605l-0.224348 1.8516l0.587671 1.63383l0.697145 1.44388l1.2477 1.13609l1.62066 1.01395l1.57213 0.625545l1.86093 0.404138l1.41043 -0.711229l1.68758 0.425843l0.973578 1.26996l1.6208 0.0290562l2.14768 0.0822888l0.6883 1.48855l1.57506 0.282178l1.67468 0.236673l1.5622 0.220135l1.95304 0.679996l1.55203 0.611414l2.18165 -0.00384458l1.56152 0.326446l1.61197 -1.08945l1.83202 0.178667l0.196567 1.56071l-0.0771072 1.86938l1.48479 0.682007l0.485566 1.60589l-0.378452 1.60633l0.974995 1.49249l1.54831 -0.7089l2.00873 -1.53329l1.61448 -0.383987l1.52596 0.436911l1.59553 0.0541276l1.716 -0.39022l1.59861 0.293414l1.55826 0.145442l1.48021 0.64458l1.48101 0.703533l1.61444 0.541793l1.74531 -0.0830537l0.37979 1.52703l0.106309 1.59213l1.39511 0.805475l1.3854 1.03997l1.46373 0.585819l1.71762 0.367471l1.67503 -0.0346929l1.59097 -1.22849l0.13916 1.70317l1.82142 0.718859l1.72596 -0.8216l0.994064 -1.51755l1.75304 -0.509846l0.520178 1.64571l0.694048 2.18485l1.60378 -0.346651l0.933511 1.24641l1.08523 -1.39705"/>
<path fill="rgb(255,225,170)" d="M141.309 61.5894l3.93493 -2.16872l3.75433 0.0234212l2.41116 -0.211227l1.24077 -1.69029l-0.910452 -3.11487l-2.7023 -1.91947l-1.54741 -2.0335l2.71731 -2.92491l4.10676 -2.82882l1.57247 -1.9658l-6.06631 2.23507l-3.19819 1.90446l-3.50514 2.36835l-1.55083 2.3799l-1.95999 1.29875l-1.50743 2.43729l0.474099 2.61253l1.37852 1.52963l-2.02829 0.59242l-0.806001 2.37401l1.59692 2.04823l2.59508 -2.94645"/>
<path fill="rgb(255,225,170)" d="M144.856 88.5938l-0.698862 -2.48858l2.28153 -1.55908l-0.736044 -4.4457l-2.54562 0.235265l0.618027 3.17521l-2.07409 0.290516l-0.819274 4.06007l0.929652 1.61449l3.04468 -0.88219"/>
<path fill="rgb(255,225,170)" d="M-168.445 65.1073l2.00606 -0.282403l2.33743 -0.992838l-1.94226 -4.3144l-2.33451 -0.0901635l-0.819485 0.405486l0.449563 2.99095l-0.689946 2.4379l0.99314 -0.154536"/>
<path fill="rgb(255,225,170)" d="M-113.308 -172.255l0.768995 -0.184739l0.236626 -4.27925l1.80535 0.475191l-1.81136 -3.60846l0.170128 -2.14055l-3.37492 -4.95961l-2.13296 0.931404l-1.99118 2.43719l-1.35434 1.72347l-4.04276 0.6259l-2.32081 1.07222l1.26223 1.95512l4.30241 2.35093l2.29833 2.43518l4.25572 2.26382l1.92855 -1.09782"/>
<path fill="rgb(255,225,170)" d="M-35.3835 -187.843l1.39245 -1.66776l2.24521 -2.59794l1.14743 -5.20669l0.442781 -3.33303l2.75009 -2.2765l2.72756 -0.411407l-1.61165 -2.20673l1.59942 -2.21687l1.97859 -3.93478l1.14181 -2.46005l-0.216293 -2.11223l-1.31633 -2.01387l-2.46626 2.34108l-1.10883 -1.97211l-1.11402 -2.03728l-2.36752 2.68144l-0.167556 2.87507l-1.23045 1.46716l-1.07385 3.94983l-1.76021 2.91154l-2.61106 3.10207l-2.18002 2.33271l-2.06944 1.36647l-3.27183 5.69482l-0.965404 3.95966l0.968233 1.61132l3.64653 -0.476007l2.45515 1.12172l3.03549 -0.491646"/>
<path fill="rgb(255,225,170)" d="M-15.1362 -217.135l1.66718 -3.58815l1.30659 -2.82509l0.52486 -0.979783l-0.481935 -2.1814l0.98055 -1.61391l3.04707 -0.022421l1.12216 -3.04713l0.859709 -4.63003l-2.10809 -0.538416l-2.27062 2.07685l-2.78767 -0.275149l-3.41532 -1.4829l-0.905982 -3.90205l-2.00693 -1.28243l0.202815 3.57731l-3.52573 -5.24179l-1.66528 -4.58184l-3.51624 -1.01571l-2.72261 -2.66971l-1.57323 0.621775l2.28794 3.52245l3.90087 4.27294l2.24308 1.95477l-0.0213031 0.933261l2.02169 3.3304l0.500464 3.33561l-0.310208 4.03135l-2.69803 2.08018l0.0882677 1.86207l4.41982 1.62221l1.51294 2.68678l-1.83536 4.35161l1.64038 0.58342l0.757644 1.26446l2.76049 -2.22953"/>
<path fill="rgb(255,225,170)" d="M-72.0779 -315.215l-3.50923 -2.06683l-5.46953 -2.58165l-2.21965 -1.21791l-3.00852 -1.38948l-3.71557 -1.18224l-2.45315 0.598887l1.35714 1.81088l4.85935 3.18371l4.40033 2.20281l4.60654 1.67438l3.39839 0.873777l1.7539 -1.90633"/>
<path fill="rgb(255,225,170)" d="M-249.229 255.283l4.07899 -1.09547l3.75941 -4.59545l1.97334 -3.67276l1.10075 -3.10532l3.17581 -2.48114l5.28195 -1.44425l1.43698 -1.47115l2.6484 1.05316l3.77341 -2.51253l2.62396 -3.53353l1.8925 -4.82366l3.3956 -4.06958l1.09641 -3.27821l-1.54595 -4.46597l-1.09117 -3.21928l-5.00918 -1.59293l-3.99503 -2.20251l-6.72365 2.87224l-7.63217 4.06504l-11.0392 5.11863l-8.41537 3.5019l-7.17507 3.04563l-4.40384 3.25587l-2.25304 -0.334371l-2.47067 1.36042l-2.93895 4.06412l-2.26902 0.35l1.57881 -4.14112l-2.20817 0.376404l-2.85351 1.53473l-1.33609 3.27481l-5.5523 6.00711l-2.39276 4.16301l-1.07881 3.25325l-0.718469 3.72625l3.80634 -0.338954l3.19268 -2.62548l5.96382 -0.39384l1.26327 2.62739l1.54812 -2.60224l3.82093 -0.820561l6.62166 1.11272l5.24124 0.049614l1.9977 1.94757l2.49211 0.846264l3.43743 1.55157l2.40258 2.03709l3.49822 -2.37446"/>
<path fill="rgb(255,225,170)" d="M-228.762 -109.429l5.11816 -2.68569l1.32881 -2.60816l1.6634 -2.72266l-0.498021 -2.6571l-0.263212 -2.6652l0.838877 -1.00653l-1.18615 -3.71048l1.3308 -2.77383l1.14922 -3.06105l2.91409 -2.84349l1.10287 -2.62266l1.97024 -3.24552l-0.897959 -2.5992l-1.86309 -2.31841l1.22093 -3.97397l0.567995 -5.60049l2.92556 -3.32744l1.78021 -5.29803l2.26731 -5.94643l5.05571 -6.73768l4.99398 -1.56803l2.32968 -2.2986l6.49061 -2.00553l0.301395 1.49402l3.13426 -0.294939l4.76344 0.772646l1.91022 2.12074l3.99326 -0.830581l-1.73014 -4.2459l0.767984 -3.25578l-0.415958 -5.8919l2.9609 2.73245l0.498476 3.11457l1.59963 2.73188l0.334997 3.71721l2.18149 -3.34646l-0.883838 -4.18507l3.43225 2.25838l0.652017 2.87254l3.52991 -2.26064l2.99368 0.255763l2.47311 1.39174l3.15564 2.54253l4.09875 0.769617l4.01471 -1.31013l2.05598 -1.14179l2.32072 -0.750731l3.62998 -0.968078l0.67296 -5.11688l1.2605 -2.09348l1.03428 2.57731l2.55647 -0.667128l4.03506 0.0217637l0.809517 -3.18483l0.478612 -2.69532l2.06325 -3.81323l3.84154 -2.54179l1.13134 -2.75785l-1.01137 -1.32448l-1.33739 -3.4036l-1.02685 -3.96798l0.151416 -3.12739l-1.10924 -4.66403l0.0197517 -3.04601l-0.548957 -4.47102l1.74324 -3.95075l-0.46715 -5.36951l-0.96529 -3.95223l-1.53006 -2.79813l-1.0827 -5.04975l-0.406824 -2.71649l-1.98294 -4.62637l-4.34624 -3.2658l-1.29869 -3.34917l-1.6165 -2.89574l-3.458 -3.51962l-5.92677 -2.30429l-3.291 -0.812947l-5.17198 -1.35188l-3.95782 -5.12055l-0.736028 1.48588l-3.28741 -1.15769l-1.27387 2.28576l-5.26587 -4.58207l-4.8269 -1.62223l-0.128458 -1.68256l-4.76925 -0.263968l-5.1204 -0.301536l-7.21352 0.76106l-4.02091 -2.50091l-1.36372 -3.08669l-4.47756 -3.64683l-1.74332 0.226168l-2.62839 -2.15232l-4.32384 -3.88272l-1.1345 -2.79829l-4.03727 -0.369173l-3.4038 -1.07778l-1.90992 4.50034l-5.02876 -2.87323l-1.27772 -2.12506l-2.7019 -2.81788l-4.05423 -1.35248l-1.97937 -2.15731l-1.86281 0.34979l-3.03283 -3.21159l-3.64744 -1.55872l-0.423317 3.66856l1.09371 1.68978l1.33785 3.82556l0.985453 3.90179l2.24694 1.15951l-0.144567 1.89009l2.51133 4.56673l2.99816 2.55917l0.84638 1.82365l2.70968 1.97763l1.75811 5.33692l1.63868 3.30191l0.824467 3.04922l1.25088 3.46916l-1.73413 4.28128l-5.89297 2.12453l-2.0192 -0.8993l-3.5452 0.888355l-1.31055 1.1703l-5.95591 0.158619l-3.92764 0.542048l-5.01424 1.81931l-6.21211 0.909766l-1.65167 -1.02029l-0.658462 -3.97327l-0.964805 -3.76741l-2.43945 -1.42453l1.48744 -1.74461l-0.0674779 -3.74727l-1.21671 -3.91391l-4.62038 -0.363728l-0.230973 2.06541l-2.25821 1.33543l-1.44071 4.19199l-4.48155 1.46625l-0.860128 1.87661l-5.26075 2.88978l-4.58047 0.682811l-4.37218 2.17273l-1.70309 3.40827l5.08516 -2.17688l2.70349 2.31573l-2.85035 5.09311l-2.90909 2.04862l-0.836474 4.68748l1.10212 4.75706l1.97209 0.311554l-0.562138 3.42724l2.168 5.87455l3.70861 1.2805l-3.08188 2.7767l-2.55969 3.12525l-5.34745 0.385849l-5.40274 1.95905l-1.17269 3.08859l-0.929852 2.89442l1.29958 1.09176l-2.31676 1.86061l1.46635 1.17878l-0.959842 3.31966l1.26418 2.78752l0.697201 4.73466l3.70374 3.45907l-2.73312 1.50754l1.55152 3.40232l3.78896 -0.140427l-0.38348 2.90944l-6.13727 -0.88351l2.30298 6.65444l2.87785 2.00954l2.01699 1.59751l0.869212 4.72185l2.08558 3.0731l0.724214 4.20666l-1.545 6.27385l-1.73012 2.75527l-0.258366 1.63652l0.767334 1.43939l-1.08548 3.44265l-0.0928678 5.13306l-1.41193 1.06815l-0.763847 2.57223l0.0756705 4.96617l1.15376 3.65763l-0.10329 5.06032l2.83005 3.90402l-4.4095 -1.51293l3.06254 3.91354l3.47665 0.881066l2.44881 1.902l0.900392 1.61979l2.92737 1.91317l2.12581 -0.438996l1.91119 0.276288l5.29244 -0.520956l2.75972 1.14578l-2.69219 0.493081l-2.60278 1.71096l5.66271 0.547342l-3.21965 1.09368l2.56269 0.322789l5.36998 -0.850232l4.35323 1.2557l2.98153 -1.08485l1.56774 0.579259l4.1581 -0.237618l2.80679 1.541l3.218 0.634947l6.12707 0.13915l3.15746 0.942987l3.17312 2.15414l1.82685 0.700909l0.779808 1.22435l-0.290213 2.3363l2.75581 1.39487l1.94026 -1.71973"/>
<path fill="rgb(255,225,170)" d="M-333.995 -221.738l2.05717 -5.85105l-1.77111 -6.84608l1.78046 -6.07007l1.88662 -7.91068l0.0277751 -3.31513l-2.38264 1.64034l-0.624719 2.36328l-2.79096 4.21859l-2.27649 6.01673l0.920997 1.67868l-1.63151 7.46183l1.95259 4.97403l1.6755 1.86849l1.17632 -0.228966"/>
<path fill="rgb(255,225,170)" d="M-306.45 -303.519l-2.5623 -2.56318l-2.80784 -0.339265l0.732374 2.94538l1.02279 2.86745l4.57782 3.42953l-0.962838 -6.33991"/>
<path fill="rgb(255,225,170)" d="M-325.817 -307.762l-1.17791 -4.31594l13.4022 -3.32158l5.02386 -4.01277l15.3641 -5.40078l6.97845 2.33913l6.86088 4.83018l-2.09412 4.62217l1.7291 6.52241l6.6975 -6.27996l-0.0214062 -2.75206l6.58257 -3.65643l8.75439 0.548644l5.97998 -4.36239l3.90385 -1.48479l2.98819 -5.36544l-3.952 -3.76981l2.13869 -4.59568l0.850149 -1.18955h-71.3966l-1.91946 5.54005l1.11394 10.7354l-9.19009 2.45947l-10.9773 -7.54212l-1.22885 -0.473172v14.3991l4.94175 -5.29137l2.01216 0.990929l-4.05396 4.05602l-2.89996 6.50668v1.59345l6.18129 -1.63901l2.53901 2.3136l3.3209 0.655738l1.5486 -2.66011"/>
<path fill="rgb(255,225,170)" d="M317.021 335.021l4.99563 -8.26689l2.18348 4.10456l6.17018 0.600707l10.2235 -4.88607v-197.344l-1.65387 0.966295l-0.230431 0.096618l-3.19735 0.207002l-0.558515 -1.28628l0.034256 -0.630578l0.655193 -0.350932l0.575614 -0.393062l1.21738 -0.00159889l0.968891 -0.683809l1.92783 -1.45616l0.261013 -0.161936v-18.5696l-5.48891 5.40691l-2.67764 -0.337429l-5.47546 4.56471l-8.80857 -1.83739l-9.70471 -3.05493l-12.177 -6.23611l-11.0228 -5.72113l-10.2767 -4.56282l-5.63815 -5.01899l-6.76775 -1.6548l-3.90075 -2.81413l-8.16279 -1.58602l-7.06802 -4.36926l-7.21612 -5.50795l-7.36609 -4.99884l0.339647 -1.73275l-5.72193 -1.33545l-5.15609 -0.331854l-2.84134 -2.73765l-8.66355 -3.87024l-6.57492 -3.06866l-1.30304 2.00355l5.66005 2.86766l-2.00262 1.9961l-9.29964 -4.82144l2.76706 -3.29078l-7.55673 -3.32243l-3.34075 -4.20771l-2.68168 4.50038l-2.68751 -4.32761l-4.13131 -2.48519l-7.96674 -1.64391l-3.42663 0.654937l-2.45405 -1.51542l-3.10706 0.11152l-3.53422 2.68398l-4.03338 2.11807l-2.39586 2.48515l-0.271582 1.13306l3.96363 1.84439l0.733254 2.97302l0.603485 1.68892l-0.945904 2.36805l-0.665277 1.03419l3.23069 -0.789743l4.91311 0.867045l1.62606 1.94958l0.710759 3.27847l4.39549 4.01223l0.988446 4.52988l3.49077 2.79311l2.17034 -2.48329l4.5529 -1.6355l3.00784 2.3043l1.25018 3.47415l-1.31984 3.00362l2.05519 1.84747l4.30525 2.56079l1.55974 3.95941l-0.09334 3.7203l2.8251 0.168151l-0.531435 -2.5235l2.4406 -1.62131l4.76751 1.6378l0.575235 1.90096l-3.2607 2.51183l-1.13489 3.80662l0.517666 2.8663l2.60479 0.563038l3.01398 2.49677l3.10583 0.687679l-2.54187 3.63963l-3.06904 7.52919l-0.774393 6.57257l3.47712 6.95788l2.02944 1.58554l3.37598 -0.982249l2.75816 2.47045l6.83216 -2.27772l2.23183 1.72668l-3.95328 0.730045l-1.46662 2.61972l-4.15487 2.13849l-0.855343 2.28738l-2.71913 2.05231l-0.47783 5.76988l1.57595 3.55783l0.676785 4.24343l2.83773 4.81352l0.0681181 4.07084l0.809551 5.97254l4.11167 10.4222l0.0995944 4.65153l1.33894 2.68169l3.71264 4.54133l2.95893 1.46925l2.75501 3.44439l1.33261 7.23541l-0.87069 7.86973l-2.99869 5.60243l-0.85069 4.62171l-4.67743 7.70496l-4.45927 4.07118l1.44903 3.57779l-1.685 5.00021l3.4179 5.43826l0.734839 10.0425l4.59012 7.19907l0.117409 3.17521l2.18179 3.70732l4.98981 8.93432l8.23244 9.4661l1.69902 5.06414l-1.22046 1.14401l-0.238011 7.77015l1.32802 8.92364l-2.08097 13.8202l-0.225678 5.94375l1.85246 4.69826h68.0203l10.83 -5.57258"/>
<path fill="rgb(255,225,170)" d="M-74.806 334.424l-0.394574 -4.14554l-1.29959 -7.97901l-1.68148 -5.64084l-1.52743 -2.98l0.123143 -3.39011l1.66979 -7.00289l0.54852 -9.28301l-0.167493 -4.42923l0.365127 -5.74655l-0.8089 -4.57425l-2.40372 -5.16655l-1.27775 -8.03258l-0.00305464 -0.0163163l-0.903392 -5.23094l-1.35707 -5.87552l1.20086 -4.03479l1.72004 -0.483967l-0.277519 -3.92294l1.01605 -3.00101l-0.108846 -1.55993l-0.434941 0.641415l-1.04568 -2.88363l-1.38031 -0.579747l-1.12347 -2.41816l-1.91996 -0.556652l-3.2557 0.948361l-3.83494 -0.570035l-5.0571 0.241671l-1.59804 -0.976807l-2.75033 -0.468784l-3.99892 -2.92939l-2.43968 -0.00314761l-2.11262 -1.8883l-1.17279 1.09504l-2.18101 -0.758259l-5.15971 -0.267594l-4.19672 0.579489l-4.42197 1.32185l-7.40442 2.33611l-4.34366 2.06626l-2.62447 1.77747l-3.24466 1.37246l-1.24363 0.194648l-4.37127 0.643567l-2.46226 1.4754l-3.05734 3.68543l-3.34604 2.8387l-2.03333 2.32314l0.911223 1.0537l-0.94714 2.3135l-3.12516 0.566053l-7.11091 -0.897352l-4.79085 -0.875764l-3.06993 0.419661l-2.10522 1.55012l0.457518 1.58602l-2.34881 1.75629l-3.58891 4.74507l0.989927 0.331204l-1.00024 1.53028l-1.15911 3.58991l-0.436102 5.41093l-2.94416 3.37493l-2.82802 -0.207655l-5.99593 1.23058l-2.55347 -0.425652l-9.61986 1.37622l-7.41385 -1.80724l-5.97513 -1.6582l-5.66728 0.562826l-4.84354 1.90269l-4.55618 2.36407l-1.27749 3.24019l-6.72977 8.25198l-3.31122 5.16581l-4.75498 5.13847l-1.20174 3.15346l0.963754 2.8516l-2.2778 7.32943l-0.950613 5.12138l-2.58554 2.41497l-1.0937 2.00347l-4.41623 2.18604l-1.06439 1.64359l1.9822 5.14458l-2.34057 3.62622l-3.99875 2.36143h203.585l-3.0247 -6.16937z
M-228.545 332.234L-224.798 325.768L-225.126 322.267L-219.961 317.737L-215.919 309.887L-216.774 308.943L-215.789 305.22L-215.181 304.63L-214.79 308.109L-212.889 307.376L-212.851 309.159L-214.316 311.237L-214.187 313.74L-215.912 316.16L-217.107 321.481L-220.911 323.568L-225.335 330.826L-225.862 336.035L-227.615 337.509L-228.545 332.234"/>
<path fill="rgb(114,163,255)" d="M-225.862 336.035l0.527219 -5.20908l4.4242 -7.25805l3.80386 -2.08734l1.1946 -5.32025l1.7257 -2.42062l-0.129583 -2.50257l1.46556 -2.0782l-0.0383552 -1.78304l-1.90038 0.73289l-0.391569 -3.4793l-0.608248 0.589955l-0.985128 3.72365l0.854988 0.94384l-4.04196 7.85015l-5.16495 4.53003l0.328191 3.50035l-3.74656 6.4661l0.929901 5.27545l1.75251 -1.47397"/>
<path fill="rgb(114,163,255)" d="M338.709 130.292l0.230431 -0.096618l1.65387 -0.966295v-3.69444l-0.261013 0.161936l-1.92783 1.45616l-0.968891 0.683809l-1.21738 0.00159889l-0.575614 0.393062l-0.655193 0.350932l-0.034256 0.630578l0.558515 1.28628l3.19735 -0.207002"/>
</g>
<g stroke-width="0.5px" stroke="rgb(209,179,139)" fill="none">
<path d="M36.1269 21.2192l-1.7539 -1.26647l-1.54913 -1.1236l1.17914 -0.943351l0.447075 -1.44515l1.63407 -0.179573l0.15087 0.0679882l1.29164 0.151816l-0.825546 1.38962l-1.06275 1.17205l1.273 1.30091l1.11037 1.07188l-1.89484 -0.196116"/>
<path d="M15.688 -41.3167l-1.58036 0.0468197l-0.498454 -1.73543l-0.00578414 -1.56563l0.0420557 -0.247587l-0.180474 -1.2666l9.59665e-07 -3.28454e-06l0.946238 -1.36503l1.31927 1.12264l0.356216 1.53168l0.0720919 1.61762l-0.470798 1.86151"/>
<path d="M35.6903 35.498l-2.04055 -0.556188l-2.03489 -1.61501l-1.32152 -1.26163l-1.50073 -1.54674l-0.121591 -1.72763l0.0244803 -1.56569l0.135326 -1.61571l0.278918 -1.59793l1.16572 -1.07443l1.65801 0.12438l1.33539 1.12046l-0.0119361 1.93882l0.698156 1.38408l1.10231 1.53371l0.976836 1.28995l0.809625 1.35448l0.950547 1.56632l-2.57169e-06 -2.26242e-06l-0.297154 0.334438l-0.21974 1.59051l-1.5872 0.323824"/>
<path d="M59.623 -36.1253l0.217898 1.6891l1.36751 0.892089l-1.65302 0.134001l-1.49794 -0.423808l-0.552785 -1.57474l0.645565 -1.81101l2.38792e-06 -2.68363e-06l1.34466 -0.545989l0.128101 1.64036"/>
<path d="M56.781 -40.5906l-0.328906 2.46749l-0.255944 -0.672177l-0.549798 -1.50396l-0.0451333 -2.03164l2.15613e-06 -2.87926e-06l1.27296 0.156346l-0.0931779 1.58394"/>
<path d="M75.506 -11.9341l-0.369959 1.52846l0.687534 1.38037l-2.33972 1.04187l0.218009 -1.0449l-0.374435 -1.53589l-0.0784987 -1.60419l-0.555311 -1.67696l0.566582 -1.46205l1.58427 -1.05344l3.39395e-06 -7.41909e-07l0.917748 0.66571l-0.25074 1.794l-0.00548887 1.96702"/>
<path d="M75.0172 29.6237l-1.86662 -0.563547l-1.48124 -0.843454l-1.35883 -0.922849l-0.00885363 -1.64978l-0.310131 -1.64768l0.611371 -1.58372l1.40694 1.12588l-0.0965271 -1.65343l-0.1546 -1.56596l1.48474 -0.630437l1.73056 0.382813l1.22425 1.89919l3.34401e-06 9.642e-07l0.216951 1.05627l-0.640632 1.48447l1.96122 1.0754l1.50081 0.584124l3.3109 1.06222l1.65633 1.47507l0.168245 1.579l-1.79845 0.217602l-1.63725 -0.226961l-2.05189 -0.0893898l-1.91344 -0.218279l-1.95387 -0.346571"/>
<path d="M2.71856e-15 -22.1987l0.0222441 0.0339176l0.382107 -2.44471l0.710504 1.34219l0.0544314 -0.144686l0.133285 -0.347365l0.166171 -0.420183l0.148411 -0.364109l0.0750022 -0.180258l0.0642725 0.0143184l0.0399489 0.0717288l0.450296 1.79639l0.714016 -1.68373l0.126969 -0.225587l1.39399 -0.539951l0.231967 1.04135l0.0987222 0.532051l0.307887 1.50015l0.802536 1.3115l0.408197 1.50199l0.922179 1.387l1.37966 -0.659707l0.96033 1.41116l0.0294239 1.54235l1.40786 -0.562121l1.46949 -0.367916l1.25545 -1.52977l-1.19056 -1.03955l-0.610033 -1.53474l0.495437 -1.61425l-0.657441 -1.37072l0.922195 -1.66015l0.950506 -1.46158l0.894539 -1.30429l0.694843 -1.59325l-0.37355 -1.4749l0.204315 -1.54749l-0.37023 -1.61196l1.33708 0.878359l1.64829 0.0896529l0.150523 1.68417l1.62013 -0.491417l1.76872 -0.749601l1.23864 -0.871565l0.744528 -1.59277l-0.191782 -1.49961l-0.324195 -1.65011l-1.28131 -1.00893l-0.995955 -1.17324l-1.21841 -1.04492l0.169087 -1.65455l-0.472318 -1.65174l-0.0597511 -1.64184l1.52332 -4.58871l0.281253 0.562023l0.275087 1.55713l1.57899 0.242695l1.60588 0.119274l-0.134405 1.98178l1.48875 0.31694l1.53373 -0.188659l1.62149 -0.394794l1.68827 -0.619515l1.47959 0.468255l0.850651 -1.33784l0.57541 -1.52235l1.09341 -1.07877l1.58012 0.171428l-0.306765 1.52502l1.81393 0.300684l1.66044 -0.088109l1.27262 0.92568l1.40595 0.64968l1.7933 0.257258l1.52038 0.159598l1.64251 0.3114l0.459442 0.818653l0.307598 0.799183l1.59793 0.853862l0.453235 1.64606l1.07744 1.14361l1.40407 0.806569l0.616926 1.48905l0.666649 1.62255l1.04214 1.21028l0.839164 1.43065l0.824498 1.48802l0.936761 1.26608l1.6706 0.413581l1.26107 0.939579l-0.160783 1.72401l1.28347 0.931891l1.90391 0.538665l-0.921572 1.24183l-1.22606 0.969763l-1.03105 1.22693l1.60426 0.63005l-1.01006 1.82913l0.0271616 1.58917l-0.716619 1.57391l0.686944 1.40281l1.10058 1.15052l0.245227 1.66002l-0.244464 1.57966l-0.444281 1.61154l1.91438 0.239833l1.26738 -0.974127l1.37254 -0.841877l0.0164391 -1.5471l1.40419 -1.01028l1.49291 -0.619223l3.00242 -1.17611l-0.348522 1.0852l0.107602 1.68255l0.55977 1.56432l-0.411507 1.58078l-1.05544 1.44766l-1.4245 0.730891l-0.0503179 1.65408l0.740068 1.5022l0.965 1.61171l0.584678 1.49773l-0.965011 1.28892l0.357448 1.6297l3.27211 1.10424l-1.95483 0.980249l-0.809986 1.41147l0.328063 1.58124l-1.75276 0.882456l-0.319087 1.57354l-0.672344 1.40143l-1.11159 1.29088l1.42863 1.17941l1.41155 0.725472l-1.87086 0.911688l0.0814815 1.7213l-1.17068 1.00623l-1.57718 0.46484l0.012055 1.63331l0.554128 1.44531l0.690742 1.49796l0.104075 1.60093l-0.094701 1.81578l-0.00350655 1.69465l0.406295 1.48881l0.95905 1.20804l1.58976 1.00027l1.6934 0.541147l1.72391 0.25189l1.75137 0.183297l1.73698 0.216076l1.55426 0.217259l1.61021 0.539946l1.52532 0.760541l1.23031 1.27382l1.42147 1.24693l1.47856 0.884391l1.85751 0.421665l1.65579 0.467857l1.50017 1.52231l0.812649 1.37494l1.03957 1.69165l0.751482 1.67751l0.556295 1.85772l1.39832 1.46622l0.636292 1.44618l0.474321 1.5559l-0.60722 1.72894l0.652878 1.70651l0.100956 1.60607l-0.337885 1.64093l0.254155 1.78976l0.609291 1.67673l-0.378331 1.59905l-1.57818 0.377146l-0.848834 -1.40893l-0.0605965 -2.36122l-0.386586 -1.19953l1.32106 -0.874954l0.408448 -1.58364l-0.273088 -1.64503l-0.339658 -1.73584l-0.720689 -1.41043l-1.41373 -1.01735l-1.50041 -0.657446l-1.68263 0.0642241l-0.355662 -1.54622l0.432767 -1.62224l-0.894007 -1.49262l-0.806623 -1.49424l-1.26633 -1.74483l-1.37058 -0.905783l-1.86615 -0.223553l-1.59093 0.188106l-1.47938 0.723471l-1.7453 0.454826l-1.79777 -0.213025l-1.57982 -0.453776l-1.70145 -0.402856l-1.58782 -0.0773642l-1.61063 -0.397535l-3.57346 -1.73197l-1.58874 -0.431749l-1.52144 -0.726774l-1.66018 -0.475183l-1.89633 -1.25361l-1.22733 -1.42097l-0.930601 -1.27538l0.178442 -1.6195l-1.12297 -1.1247l-0.986651 -1.22135l-0.759808 -2.13388l-0.0549584 -1.55093l-0.35913 -1.5513l-0.365373 -1.61736l-1.37593 -1.34762l0.344947 -1.54762l0.66284 -1.60736l0.0870687 -1.58821l0.387184 -1.60021l-1.69144 -0.0782916l-1.07125 1.21796l-1.39467 0.69222l-1.59488 0.129907l-1.01329 -1.3042l0.77421 -1.34825l-0.780169 -1.44301l-1.69524 -0.412158l-1.61696 -0.37593l-1.57603 0.590651l-1.57017 -0.202613l-1.75174 0.519391l-1.04366 1.26503l-1.48305 0.839084l-1.56667 0.469626l-1.65761 0.631707l-1.22345 1.18577l-1.69311 0.86119l-1.56768 0.323623l-1.74523 0.237563l-1.97366 -0.558672l-1.46738 -0.606867l0.922647 1.31884l0.539914 1.41895l0.512271 1.55671l0.12462 1.6041l0.220404 1.55583l-0.938971 1.18666l-1.44115 0.661665l-1.54449 0.107819l0.94346 1.60114l0.171628 1.50324l-1.18499 1.08421l-0.462449 1.49482l-0.485454 1.4593l-0.847786 1.25115l-0.90885 1.42133l-0.41713 1.46858l1.16651 1.0592l1.0146 1.14003l0.780218 1.36866l1.2288 -0.921031l0.992906 -1.42403l1.24745 -0.862509l1.09663 1.15216l1.75537 2.62398l0.214595 0.970359l-0.47084 1.53685l-0.725023 1.66206l-0.295943 1.64754l-0.353257 1.65489l0.0576686 1.87888l-0.8381 1.30036l-0.940557 1.13013l-0.475921 0.600672l-1.35126 0.805311l-1.14386 1.12533l-0.869017 1.24744l-0.835896 1.38492l-0.765717 1.33373l-1.0134 1.74152l-0.515615 1.64636l-0.671664 1.50225l0.121891 1.70529l1.47649 0.624688l0.0867252 1.81059l-0.423677 1.51645l-1.03783 1.14651l-1.10718 1.31249l-0.980065 1.6035l-0.659682 1.86058l-0.250962 2.11395l-0.759933 1.34579l-1.67043 0.028368l-0.882461 -1.31465l-1.62473 0.0584543l0.153379 1.59703l-0.495187 1.76492l-1.5517 -0.253112l-0.510092 -1.56234l-1.65465 -0.111074l-1.7264 0.872782l-1.71599 0.580021l-1.58357 -0.219641l-0.60479 -1.76817l-1.50943 1.42646l-1.43159 0.72608l-1.61403 0.522823l-1.60824 0.492448l-1.52802 0.894098l-1.66584 0.51362l-1.35241 0.778944l-1.08523 1.39705l-0.933511 -1.24641l-1.60378 0.346651l-0.694048 -2.18485l-0.520178 -1.64571l-1.75304 0.509846l-0.994064 1.51755l-1.72596 0.8216l-1.82142 -0.718859l-0.13916 -1.70317l-1.59097 1.22849l-1.67503 0.0346929l-1.71762 -0.367471l-1.46373 -0.585819l-1.3854 -1.03997l-1.39511 -0.805475l-0.106309 -1.59213l-0.37979 -1.52703l-1.74531 0.0830537l-1.61444 -0.541793l-1.48101 -0.703533l-1.48021 -0.64458l-1.55826 -0.145442l-1.59861 -0.293414l-1.716 0.39022l-1.59553 -0.0541276l-1.52596 -0.436911l-1.61448 0.383987l-2.00873 1.53329l-1.54831 0.7089l-0.974995 -1.49249l0.378452 -1.60633l-0.485566 -1.60589l-1.48479 -0.682007l0.0771072 -1.86938l-0.196567 -1.56071l-1.83202 -0.178667l-1.61197 1.08945l-1.56152 -0.326446l-2.18165 0.00384458l-1.55203 -0.611414l-1.95304 -0.679996l-1.5622 -0.220135l-1.67468 -0.236673l-1.57506 -0.282178l-0.6883 -1.48855l-2.14768 -0.0822888l-1.6208 -0.0290562l-0.973578 -1.26996l-1.68758 -0.425843l-1.41043 0.711229l-1.86093 -0.404138l-1.57213 -0.625545l-1.62066 -1.01395l-1.2477 -1.13609l-0.697145 -1.44388l-0.587671 -1.63383l0.224348 -1.8516l1.4939 -1.16605l0.421232 -2.05895l0.482071 -1.50449l-0.58277 -1.98932l0.488923 -1.55676l0.389739 -1.76295l-0.511828 -1.50272l-1.36043 -0.779258l-2.24341 -0.48518l0.17387 -1.82015l-0.206318 -1.68786l-0.149167 -1.62384l-0.301583 -1.61321l-0.601929 -1.51957l3.75953 -2.82468l1.05771 -0.326759l1.89311 -0.512796l1.54212 0.945815l1.92302 0.472106l1.49399 -0.820684l-0.662921 -1.45222l1.64832 -0.425094l1.75145 0.0733394l1.88167 -0.0667362l0.878523 -1.44095l-0.142539 -1.56809l-1.22343 -1.17919l-1.83234 -0.153968l-1.66526 0.0704573l-1.52041 -0.312886l-1.47413 -0.471107l-1.56453 0.0894019l-2.25193 -0.148052l-0.66315 -0.784522l-0.602626 -1.60061l-0.854729 -1.33645l-1.00541 -1.35244l-1.81939 -0.378407l-1.67623 -0.121679l-1.79967 -0.755556l-1.37579 -1.35663l-1.0684 -1.21612l-1.57372 -0.674212l-0.897349 -0.830163l-0.839656 -1.12034l0.2274 -1.72433l-0.578533 -1.46965l-0.651567 -1.61166l0.132753 -1.87548l-1.25926 -1.17464l-2.949 -0.77118l1.18019 -0.691904l2.03661 -0.862789l0.837011 -1.44571l0.346583 -1.62385l-0.481792 -1.63583l0.405402 -1.71347l0.170832 -1.58392l-0.355357 -1.08891l0.370521 -1.40369l1.05795 -1.1938l-0.430466 -1.57247l0.228625 -1.80443l-0.370065 -1.62877l0.872464 -1.63958l-1.2353 -1.36959l-1.26954 -1.13296l-0.944459 -1.41059l-2.7183 -2.88204l0.85324 -1.00316l1.49733 -1.04379l1.79334 -0.753062l3.15248 -1.41645l0.563081 -1.58112l0.476742 -1.50096l0.102999 -1.91519l0.0614137 -1.95171l-0.618413 -1.76334l-0.758103 -1.59475l0.593028 -1.89887l-0.344608 -1.59371l1.3541 -0.928525l1.62371 -0.244667l1.76513 -0.525711l0.683307 -1.78047l1.52927 -0.545989l1.93819 -1.27575l1.40746 -1.64103l0.591096 -1.68678l-0.477775 -1.85257l-0.553257 -1.70295l0.561827 -1.50669l1.36968 -0.972891l1.37469 -1.236l0.392742 -1.72511l0.934086 -1.26l1.27112 -0.954844l1.3238 -0.982797l0.390238 -1.69697l0.690818 -1.87823l1.04893 -1.45464l1.34287 -1.47228l0.800028 -1.47076l0.864905 -1.3775l-1.17647 -1.86362l-1.22681 -1.32997l1.6614 0.0541914l1.60671 1.19665l1.67469 0.889939l1.52251 0.563141l1.5841 -0.421576l1.27489 -1.49249l1.6501 -1.5347l1.02867 -1.18611l1.76691 -1.4072l1.23398 -1.05155l1.92226 -1.19837l1.76544 -0.820869l1.76204 0.459593l0.633766 1.53147l1.5981 0.474525l2.03072 -0.0912798l2.11321 -0.00309269l2.16571 -0.386909l2.19952 -0.44826l1.73208 -0.150519l1.62279 -0.728472l0.279883 -1.74771l1.76661 0.483925l1.64538 0.746883l1.64816 0.391588l1.8703 -0.317935l1.8151 -0.16416l1.28172 1.33117l1.91691 0.391859l1.5394 1.08586l1.72723 0.15412l1.55247 -0.555094l1.54508 -0.168593l1.62379 -0.506736l1.72848 -0.0605741l1.6653 0.24726l1.61826 0.717152l1.55905 0.582177l1.15005 1.09681l0.104144 1.69036l-0.441756 1.60715l-0.243202 2.00424l-0.16924 1.56639l-0.243499 1.83812l-1.41048 0.968314l-0.355579 1.62238l-1.24693 1.24068l-0.0875215 1.74892l-0.331337 1.73021l-0.40092 1.4977l0.065207 1.80574l0.194374 1.59503l0.450544 1.86676l0.468225 1.51203l0.976045 1.44976l0.619618 1.46723l0.799079 1.33139l1.70042 0.165681l0.738496 1.70367l-1.27589 0.999795l-0.942476 1.21009l-1.39735 0.608687l0.150654 2.4871l0.530077 1.92087l0.237646 1.58475l0.199375 1.60051l1.28899 1.03445l0.856045 1.54368l0.97213 1.33543l1.07054 1.14243l1.08681 1.06812l1.08788 1.08761l1.39992 1.04676l0.623456 1.98011l1.40814 0.691433l0.12573 0.307824l0.46639 1.19551l1.05057 -1.17513l1.01945 1.2691l0.697831 1.00243l-5.37122e-14 0"/>
<path d="M145.244 59.4207l-3.93493 2.16872l-2.59508 2.94645l-1.59692 -2.04823l0.806001 -2.37401l2.02829 -0.59242l-1.37852 -1.52963l-0.474099 -2.61253l1.50743 -2.43729l1.95999 -1.29875l1.55083 -2.3799l3.50514 -2.36835l3.19819 -1.90446l6.06631 -2.23507l-1.57247 1.9658l-4.10676 2.82882l-2.71731 2.92491l1.54741 2.0335l2.7023 1.91947l0.910452 3.11487l-1.24014 1.69023l-0.000627677 5.84557e-05l-2.41116 0.211227l-3.75433 -0.0234212"/>
<path d="M144.856 88.5938l-3.04468 0.88219l-0.929652 -1.61449l0.819274 -4.06007l2.07409 -0.290516l-0.618027 -3.17521l2.54562 -0.235265l0.736044 4.4457l-2.28153 1.55908l0.698862 2.48858"/>
<path d="M-166.044 59.5176l1.94226 4.3144l-2.33743 0.992838l-2.00606 0.282403l-0.99314 0.154536l0.689946 -2.4379l-0.449563 -2.99095l0.819485 -0.405486l2.33451 0.0901635"/>
<path d="M-125.035 -181.234l4.04276 -0.6259l1.35434 -1.72347l1.99118 -2.43719l2.13296 -0.931404l3.37492 4.95961l-0.170128 2.14055l1.81136 3.60846l-1.80535 -0.475191l-0.236626 4.27925l-0.768995 0.184739l-1.92855 1.09782l-4.25572 -2.26382l-2.29833 -2.43518l-4.30241 -2.35093l-1.26223 -1.95512l2.32081 -1.07222"/>
<path d="M-26.6775 -217.912l1.10883 1.97211l2.46626 -2.34108l1.31633 2.01387l0.216293 2.11223l-1.14181 2.46005l-1.97859 3.93478l-1.59942 2.21687l1.61165 2.20673l-2.72756 0.411407l-2.75009 2.2765l-0.442781 3.33303l-1.14743 5.20669l-2.24521 2.59794l-1.39245 1.66776l-3.03549 0.491646l-2.45515 -1.12172l-3.64653 0.476007l-0.968233 -1.61132l0.965404 -3.95966l3.27183 -5.69482l2.06944 -1.36647l2.18002 -2.33271l2.61106 -3.10207l1.76021 -2.91154l1.07385 -3.94983l1.23045 -1.46716l0.167556 -2.87507l2.36752 -2.68144l1.11402 2.03728"/>
<path d="M-22.9275 -243.092l3.52573 5.24179l-0.202815 -3.57731l2.00693 1.28243l0.905982 3.90205l3.41532 1.4829l2.78767 0.275149l2.27062 -2.07685l2.10809 0.538416l-0.859709 4.63003l-1.12216 3.04713l-3.04707 0.022421l-0.98055 1.61391l0.481935 2.1814l-0.52486 0.979783l-1.30659 2.82509l-1.66718 3.58815l-2.76049 2.22953l-0.757644 -1.26446l-1.64038 -0.58342l1.83536 -4.35161l-1.51294 -2.68678l-4.41982 -1.62221l-0.0882677 -1.86207l2.69803 -2.08018l0.310208 -4.03135l-0.500464 -3.33561l-2.02169 -3.3304l0.0213031 -0.933261l-2.24308 -1.95477l-3.90087 -4.27294l-2.28794 -3.52245l1.57323 -0.621775l2.72261 2.66971l3.51624 1.01571l1.66528 4.58184"/>
<path d="M-72.0779 -315.215l-1.7539 1.90633l-3.39839 -0.873777l-4.60654 -1.67438l-4.40033 -2.20281l-4.85935 -3.18371l-1.35714 -1.81088l2.45315 -0.598887l3.71557 1.18224l3.00852 1.38948l2.21965 1.21791l5.46953 2.58165l3.50923 2.06683"/>
<path d="M-290.325 243.124l5.5523 -6.00711l1.33609 -3.27481l2.85351 -1.53473l2.20817 -0.376404l-1.57881 4.14112l2.26902 -0.35l2.93895 -4.06412l2.47067 -1.36042l2.25304 0.334371l4.40384 -3.25587l7.17507 -3.04563l8.41537 -3.5019l11.0392 -5.11863l7.63217 -4.06504l6.72365 -2.87224l3.99503 2.20251l5.00918 1.59293l1.09117 3.21928l1.54595 4.46597l-1.09641 3.27821l-3.3956 4.06958l-1.8925 4.82366l-2.62396 3.53353l-3.77341 2.51253l-2.6484 -1.05316l-1.43698 1.47115l-5.28195 1.44425l-3.17581 2.48114l-1.10075 3.10532l-1.97334 3.67276l-3.75941 4.59545l-4.07899 1.09547l-3.49822 2.37446l-2.40258 -2.03709l-3.43743 -1.55157l-2.49211 -0.846264l-1.9977 -1.94757l-5.24124 -0.049614l-6.62166 -1.11272l-3.82093 0.820561l-1.54812 2.60224l-1.26327 -2.62739l-5.96382 0.39384l-3.19268 2.62548l-3.80634 0.338954l0.718469 -3.72625l1.07881 -3.25325l2.39276 -4.16301"/>
<path d="M-224.08 -303.511l5.02876 2.87323l1.90992 -4.50034l3.4038 1.07778l4.03727 0.369173l1.1345 2.79829l4.32384 3.88272l2.62839 2.15232l1.74332 -0.226168l4.47756 3.64683l1.36372 3.08669l4.02091 2.50091l7.21352 -0.76106l5.1204 0.301536l4.76925 0.263968l0.128458 1.68256l4.8269 1.62223l5.26587 4.58207l1.27387 -2.28576l3.28741 1.15769l0.736028 -1.48588l3.95782 5.12055l5.17198 1.35188l3.291 0.812947l5.92677 2.30429l3.458 3.51962l1.6165 2.89574l1.29869 3.34917l4.34624 3.2658l1.98294 4.62637l0.406824 2.71649l1.0827 5.04975l1.53006 2.79813l0.96529 3.95223l0.46715 5.36951l-1.74324 3.95075l0.548957 4.47102l-0.0197517 3.04601l1.10924 4.66403l-0.151416 3.12739l1.02685 3.96798l1.33739 3.4036l1.01137 1.32448l-1.13134 2.75785l-3.84154 2.54179l-2.06325 3.81323l-0.478612 2.69532l-0.809517 3.18483l-4.03506 -0.0217637l-2.55647 0.667128l-1.03428 -2.57731l-1.2605 2.09348l-0.67296 5.11688l-3.62998 0.968078l-2.32072 0.750731l-2.05598 1.14179l-4.01471 1.31013l-4.09875 -0.769617l-3.15564 -2.54253l-2.47311 -1.39174l-2.99368 -0.255763l-3.52991 2.26064l-0.652017 -2.87254l-3.43225 -2.25838l0.883838 4.18507l-2.18149 3.34646l-0.334997 -3.71721l-1.59963 -2.73188l-0.498476 -3.11457l-2.9609 -2.73245l0.415958 5.8919l-0.767984 3.25578l1.73014 4.2459l-3.99326 0.830581l-1.91022 -2.12074l-4.76344 -0.772646l-3.13426 0.294939l-0.301395 -1.49402l-6.49061 2.00553l-2.32968 2.2986l-4.99398 1.56803l-5.05571 6.73768l-2.26731 5.94643l-1.78021 5.29803l-2.92556 3.32744l-0.567995 5.60049l-1.22093 3.97397l1.86309 2.31841l0.897959 2.5992l-1.97024 3.24552l-1.10287 2.62266l-2.91409 2.84349l-1.14922 3.06105l-1.3308 2.77383l1.18615 3.71048l-0.838877 1.00653l0.263212 2.6652l0.498021 2.6571l-1.6634 2.72266l-1.32881 2.60816l-5.11816 2.68569l-1.94026 1.71973l-2.75581 -1.39487l0.290213 -2.3363l-0.779808 -1.22435l-1.82685 -0.700909l-3.17312 -2.15414l-3.15746 -0.942987l-6.12707 -0.13915l-3.218 -0.634947l-2.80679 -1.541l-4.1581 0.237618l-1.56774 -0.579259l-2.98153 1.08485l-4.35323 -1.2557l-5.36998 0.850232l-2.56269 -0.322789l3.21965 -1.09368l-5.66271 -0.547342l2.60278 -1.71096l2.69219 -0.493081l-2.75972 -1.14578l-5.29244 0.520956l-1.91119 -0.276288l-2.12581 0.438996l-2.92737 -1.91317l-0.900392 -1.61979l-2.44881 -1.902l-3.47665 -0.881066l-3.06254 -3.91354l4.4095 1.51293l-2.83005 -3.90402l0.10329 -5.06032l-1.15376 -3.65763l-0.0756705 -4.96617l0.763847 -2.57223l1.41193 -1.06815l0.0928678 -5.13306l1.08548 -3.44265l-0.767334 -1.43939l0.258366 -1.63652l1.73012 -2.75527l1.545 -6.27385l-0.724214 -4.20666l-2.08558 -3.0731l-0.869212 -4.72185l-2.01699 -1.59751l-2.87785 -2.00954l-2.30298 -6.65444l6.13727 0.88351l0.38348 -2.90944l-3.78896 0.140427l-1.55152 -3.40232l2.73312 -1.50754l-3.70374 -3.45907l-0.697201 -4.73466l-1.26418 -2.78752l0.959842 -3.31966l-1.46635 -1.17878l2.31676 -1.86061l-1.29958 -1.09176l0.929852 -2.89442l1.17269 -3.08859l5.40274 -1.95905l5.34745 -0.385849l2.55969 -3.12525l3.08188 -2.7767l-3.70861 -1.2805l-2.168 -5.87455l0.562138 -3.42724l-1.97209 -0.311554l-1.10212 -4.75706l0.836474 -4.68748l2.90909 -2.04862l2.85035 -5.09311l-2.70349 -2.31573l-5.08516 2.17688l1.70309 -3.40827l4.37218 -2.17273l4.58047 -0.682811l5.26075 -2.88978l0.860128 -1.87661l4.48155 -1.46625l1.44071 -4.19199l2.25821 -1.33543l0.230973 -2.06541l4.62038 0.363728l1.21671 3.91391l0.0674779 3.74727l-1.48744 1.74461l2.43945 1.42453l0.964805 3.76741l0.658462 3.97327l1.65167 1.02029l6.21211 -0.909766l5.01424 -1.81931l3.92764 -0.542048l5.95591 -0.158619l1.31055 -1.1703l3.5452 -0.888355l2.0192 0.8993l5.89297 -2.12453l1.73413 -4.28128l-1.25088 -3.46916l-0.824467 -3.04922l-1.63868 -3.30191l-1.75811 -5.33692l-2.70968 -1.97763l-0.84638 -1.82365l-2.99816 -2.55917l-2.51133 -4.56673l0.144567 -1.89009l-2.24694 -1.15951l-0.985453 -3.90179l-1.33785 -3.82556l-1.09371 -1.68978l0.423317 -3.66856l3.64744 1.55872l3.03283 3.21159l1.86281 -0.34979l1.97937 2.15731l4.05423 1.35248l2.7019 2.81788l1.27772 2.12506"/>
<path d="M-331.938 -227.589l-2.05717 5.85105l-1.17632 0.228966l-1.6755 -1.86849l-1.95259 -4.97403l1.63151 -7.46183l-0.920997 -1.67868l2.27649 -6.01673l2.79096 -4.21859l0.624719 -2.36328l2.38264 -1.64034l-0.0277751 3.31513l-1.88662 7.91068l-1.78046 6.07007l1.77111 6.84608"/>
<path d="M-306.45 -303.519l0.962838 6.33991l-4.57782 -3.42953l-1.02279 -2.86745l-0.732374 -2.94538l2.80784 0.339265l2.5623 2.56318"/>
<path d="M-338.178 -328.214l10.9773 7.54212l9.19009 -2.45947l-1.11394 -10.7354"/>
<path d="M-246.658 -338.217l-2.13869 4.59568l3.952 3.76981l-2.98819 5.36544l-3.90385 1.48479l-5.97998 4.36239l-8.75439 -0.548644l-6.58257 3.65643l0.0214062 2.75206l-6.6975 6.27996l-1.7291 -6.52241l2.09412 -4.62217l-6.86088 -4.83018l-6.97845 -2.33913l-15.3641 5.40078l-5.02386 4.01277l-13.4022 3.32158l1.17791 4.31594l-1.5486 2.66011l-3.3209 -0.655738l-2.53901 -2.3136"/>
<path d="M-336.507 -314.532l4.05396 -4.05602l-2.01216 -0.990929"/>
<path d="M330.37 331.459l-6.17018 -0.600707l-2.18348 -4.10456l-4.99563 8.26689"/>
<path d="M236.318 335.895l0.225678 -5.94375l2.08097 -13.8202l-1.32802 -8.92364l0.238011 -7.77015l1.22046 -1.14401l-1.69902 -5.06414l-8.23244 -9.4661l-4.98981 -8.93432l-2.18179 -3.70732l-0.117409 -3.17521l-4.59012 -7.19907l-0.734839 -10.0425l-3.4179 -5.43826l1.685 -5.00021l-1.44903 -3.57779l4.45927 -4.07118l4.67743 -7.70496l0.85069 -4.62171l2.99869 -5.60243l0.87069 -7.86973l-1.33261 -7.23541l-2.75501 -3.44439l-2.95893 -1.46925l-3.71264 -4.54133l-1.33894 -2.68169l-0.0995944 -4.65153l-4.11167 -10.4222l-0.809551 -5.97254l-0.0681181 -4.07084l-2.83773 -4.81352l-0.676785 -4.24343l-1.57595 -3.55783l0.47783 -5.76988l2.71913 -2.05231l0.855343 -2.28738l4.15487 -2.13849l1.46662 -2.61972l3.95328 -0.730045l-2.23183 -1.72668l-6.83216 2.27772l-2.75816 -2.47045l-3.37598 0.982249l-2.02944 -1.58554l-3.47712 -6.95788l0.774393 -6.57257l3.06904 -7.52919l2.54187 -3.63963l-3.10583 -0.687679l-3.01398 -2.49677l-2.60479 -0.563038l-0.517666 -2.8663l1.13489 -3.80662l3.2607 -2.51183l-0.575235 -1.90096l-4.76751 -1.6378l-2.4406 1.62131l0.531435 2.5235l-2.8251 -0.168151l0.09334 -3.7203l-1.55974 -3.95941l-4.30525 -2.56079l-2.05519 -1.84747l1.31984 -3.00362l-1.25018 -3.47415l-3.00784 -2.3043l-4.5529 1.6355l-2.17034 2.48329l-3.49077 -2.79311l-0.988446 -4.52988l-4.39549 -4.01223l-0.710759 -3.27847l-1.62606 -1.94958l-4.91311 -0.867045l-3.23069 0.789743l0.665277 -1.03419l0.945904 -2.36805l-0.603485 -1.68892l-0.733254 -2.97302l-3.96363 -1.84439l0.271582 -1.13306l2.39586 -2.48515l4.03338 -2.11807l3.53422 -2.68398l3.10706 -0.11152l2.45405 1.51542l3.42663 -0.654937l7.96674 1.64391l4.13131 2.48519l2.68751 4.32761l2.68168 -4.50038l3.34075 4.20771l7.55673 3.32243l-2.76706 3.29078l9.29964 4.82144l2.00262 -1.9961l-5.66005 -2.86766l1.30304 -2.00355l6.57492 3.06866l8.66355 3.87024l2.84134 2.73765l5.15609 0.331854l5.72193 1.33545l-0.339647 1.73275l7.36609 4.99884l7.21612 5.50795l7.06802 4.36926l8.16279 1.58602l3.90075 2.81413l6.76775 1.6548l5.63815 5.01899l10.2767 4.56282l11.0228 5.72113l12.177 6.23611l9.70471 3.05493l8.80857 1.83739l5.47546 -4.56471l2.67764 0.337429"/>
<path d="M338.405 127.152l-0.968891 0.683809l-1.21738 0.00159889l-0.575614 0.393062l-0.655193 0.350932l-0.034256 0.630578l0.558515 1.28628l3.19735 -0.207002l0.230431 -0.096618"/>
<path d="M340.332 125.696l-1.92783 1.45616"/>
<path d="M-271.367 338.232l2.34057 -3.62622l-1.9822 -5.14458l1.06439 -1.64359l4.41623 -2.18604l1.0937 -2.00347l2.58554 -2.41497l0.950613 -5.12138l2.2778 -7.32943l-0.963754 -2.8516l1.20174 -3.15346l4.75498 -5.13847l3.31122 -5.16581l6.72977 -8.25198l1.27749 -3.24019l4.55618 -2.36407l4.84354 -1.90269l5.66728 -0.562826l5.97513 1.6582l7.41385 1.80724l9.61986 -1.37622l2.55347 0.425652l5.99593 -1.23058l2.82802 0.207655l2.94416 -3.37493l0.436102 -5.41093l1.15911 -3.58991l1.00024 -1.53028l-0.989927 -0.331204l3.58891 -4.74507l2.34881 -1.75629l-0.457518 -1.58602l2.10522 -1.55012l3.06993 -0.419661l4.79085 0.875764l7.11091 0.897352l3.12516 -0.566053l0.94714 -2.3135l-0.911223 -1.0537l2.03333 -2.32314l3.34604 -2.8387l3.05734 -3.68543l2.46226 -1.4754l4.37127 -0.643567l1.24363 -0.194648l3.24466 -1.37246l2.62447 -1.77747l4.34366 -2.06626l7.40442 -2.33611l4.42197 -1.32185l4.19672 -0.579489l5.15971 0.267594l2.18101 0.758259l1.17279 -1.09504l2.11262 1.8883l2.43968 0.00314761l3.99892 2.92939l2.75033 0.468784l1.59804 0.976807l5.0571 -0.241671l3.83494 0.570035l3.2557 -0.948361l1.91996 0.556652l1.12347 2.41816l1.38031 0.579747l1.04568 2.88363l0.434941 -0.641415l0.108846 1.55993l-1.01605 3.00101l0.277519 3.92294l-1.72004 0.483967l-1.20086 4.03479l1.35707 5.87552l0.903392 5.23094l0.00305464 0.0163163l1.27775 8.03258l2.40372 5.16655l0.8089 4.57425l-0.365127 5.74655l0.167493 4.42923l-0.54852 9.28301l-1.66979 7.00289l-0.123143 3.39011l1.52743 2.98l1.68148 5.64084l1.29959 7.97901l0.394574 4.14554"/>
<path d="M-215.789 305.22l-0.985128 3.72365l0.854988 0.94384l-4.04196 7.85015l-5.16495 4.53003l0.328191 3.50035l-3.74656 6.4661l0.929901 5.27545l1.75251 -1.47397l0.527219 -5.20908l4.4242 -7.25805l3.80386 -2.08734l1.1946 -5.32025l1.7257 -2.42062l-0.129583 -2.50257l1.46556 -2.0782l-0.0383552 -1.78304l-1.90038 0.73289l-0.391569 -3.4793l-0.608248 0.589955"/>
</g>
</g>
</g>
</g>
<g inkscape:groupmode="layer" inkscape:label="Coastline" id="Coastline"><title>Coastline</title>
<g>
<g id="drawing" transform="translate(339.407,-340.593)">
<g stroke-width="0.5px" stroke="rgb(0,0,0)" fill="none">
<path d="M36.1269 21.2192l-1.7539 -1.26647l-1.54913 -1.1236l1.17914 -0.943351l0.447075 -1.44515l1.63407 -0.179573l0.15087 0.0679882l1.29164 0.151816l-0.825546 1.38962l-1.06275 1.17205l1.273 1.30091l1.11037 1.07188l-1.89484 -0.196116"/>
<path d="M15.688 -41.3167l-1.58036 0.0468197l-0.498454 -1.73543l-0.00578414 -1.56563l0.0420557 -0.247587l-0.180474 -1.2666l9.59665e-07 -3.28454e-06l0.946238 -1.36503l1.31927 1.12264l0.356216 1.53168l0.0720919 1.61762l-0.470798 1.86151"/>
<path d="M35.6903 35.498l-2.04055 -0.556188l-2.03489 -1.61501l-1.32152 -1.26163l-1.50073 -1.54674l-0.121591 -1.72763l0.0244803 -1.56569l0.135326 -1.61571l0.278918 -1.59793l1.16572 -1.07443l1.65801 0.12438l1.33539 1.12046l-0.0119361 1.93882l0.698156 1.38408l1.10231 1.53371l0.976836 1.28995l0.809625 1.35448l0.950547 1.56632l-2.57169e-06 -2.26242e-06l-0.297154 0.334438l-0.21974 1.59051l-1.5872 0.323824"/>
<path d="M59.623 -36.1253l0.217898 1.6891l1.36751 0.892089l-1.65302 0.134001l-1.49794 -0.423808l-0.552785 -1.57474l0.645565 -1.81101l2.38792e-06 -2.68363e-06l1.34466 -0.545989l0.128101 1.64036"/>
<path d="M56.781 -40.5906l-0.328906 2.46749l-0.255944 -0.672177l-0.549798 -1.50396l-0.0451333 -2.03164l2.15613e-06 -2.87926e-06l1.27296 0.156346l-0.0931779 1.58394"/>
<path d="M75.506 -11.9341l-0.369959 1.52846l0.687534 1.38037l-2.33972 1.04187l0.218009 -1.0449l-0.374435 -1.53589l-0.0784987 -1.60419l-0.555311 -1.67696l0.566582 -1.46205l1.58427 -1.05344l3.39395e-06 -7.41909e-07l0.917748 0.66571l-0.25074 1.794l-0.00548887 1.96702"/>
<path d="M75.0172 29.6237l-1.86662 -0.563547l-1.48124 -0.843454l-1.35883 -0.922849l-0.00885363 -1.64978l-0.310131 -1.64768l0.611371 -1.58372l1.40694 1.12588l-0.0965271 -1.65343l-0.1546 -1.56596l1.48474 -0.630437l1.73056 0.382813l1.22425 1.89919l3.34401e-06 9.642e-07l0.216951 1.05627l-0.640632 1.48447l1.96122 1.0754l1.50081 0.584124l3.3109 1.06222l1.65633 1.47507l0.168245 1.579l-1.79845 0.217602l-1.63725 -0.226961l-2.05189 -0.0893898l-1.91344 -0.218279l-1.95387 -0.346571"/>
<path d="M2.71856e-15 -22.1987l0.0222441 0.0339176l0.382107 -2.44471l0.710504 1.34219l0.0544314 -0.144686l0.133285 -0.347365l0.166171 -0.420183l0.148411 -0.364109l0.0750022 -0.180258l0.0642725 0.0143184l0.0399489 0.0717288l0.450296 1.79639l0.714016 -1.68373l0.126969 -0.225587l1.39399 -0.539951l0.231967 1.04135l0.0987222 0.532051l0.307887 1.50015l0.802536 1.3115l0.408197 1.50199l0.922179 1.387l1.37966 -0.659707l0.96033 1.41116l0.0294239 1.54235l1.40786 -0.562121l1.46949 -0.367916l1.25545 -1.52977l-1.19056 -1.03955l-0.610033 -1.53474l0.495437 -1.61425l-0.657441 -1.37072l0.922195 -1.66015l0.950506 -1.46158l0.894539 -1.30429l0.694843 -1.59325l-0.37355 -1.4749l0.204315 -1.54749l-0.37023 -1.61196l1.33708 0.878359l1.64829 0.0896529l0.150523 1.68417l1.62013 -0.491417l1.76872 -0.749601l1.23864 -0.871565l0.744528 -1.59277l-0.191782 -1.49961l-0.324195 -1.65011l-1.28131 -1.00893l-0.995955 -1.17324l-1.21841 -1.04492l0.169087 -1.65455l-0.472318 -1.65174l-0.0597511 -1.64184l1.52332 -4.58871l0.281253 0.562023l0.275087 1.55713l1.57899 0.242695l1.60588 0.119274l-0.134405 1.98178l1.48875 0.31694l1.53373 -0.188659l1.62149 -0.394794l1.68827 -0.619515l1.47959 0.468255l0.850651 -1.33784l0.57541 -1.52235l1.09341 -1.07877l1.58012 0.171428l-0.306765 1.52502l1.81393 0.300684l1.66044 -0.088109l1.27262 0.92568l1.40595 0.64968l1.7933 0.257258l1.52038 0.159598l1.64251 0.3114l0.459442 0.818653l0.307598 0.799183l1.59793 0.853862l0.453235 1.64606l1.07744 1.14361l1.40407 0.806569l0.616926 1.48905l0.666649 1.62255l1.04214 1.21028l0.839164 1.43065l0.824498 1.48802l0.936761 1.26608l1.6706 0.413581l1.26107 0.939579l-0.160783 1.72401l1.28347 0.931891l1.90391 0.538665l-0.921572 1.24183l-1.22606 0.969763l-1.03105 1.22693l1.60426 0.63005l-1.01006 1.82913l0.0271616 1.58917l-0.716619 1.57391l0.686944 1.40281l1.10058 1.15052l0.245227 1.66002l-0.244464 1.57966l-0.444281 1.61154l1.91438 0.239833l1.26738 -0.974127l1.37254 -0.841877l0.0164391 -1.5471l1.40419 -1.01028l1.49291 -0.619223l3.00242 -1.17611l-0.348522 1.0852l0.107602 1.68255l0.55977 1.56432l-0.411507 1.58078l-1.05544 1.44766l-1.4245 0.730891l-0.0503179 1.65408l0.740068 1.5022l0.965 1.61171l0.584678 1.49773l-0.965011 1.28892l0.357448 1.6297l3.27211 1.10424l-1.95483 0.980249l-0.809986 1.41147l0.328063 1.58124l-1.75276 0.882456l-0.319087 1.57354l-0.672344 1.40143l-1.11159 1.29088l1.42863 1.17941l1.41155 0.725472l-1.87086 0.911688l0.0814815 1.7213l-1.17068 1.00623l-1.57718 0.46484l0.012055 1.63331l0.554128 1.44531l0.690742 1.49796l0.104075 1.60093l-0.094701 1.81578l-0.00350655 1.69465l0.406295 1.48881l0.95905 1.20804l1.58976 1.00027l1.6934 0.541147l1.72391 0.25189l1.75137 0.183297l1.73698 0.216076l1.55426 0.217259l1.61021 0.539946l1.52532 0.760541l1.23031 1.27382l1.42147 1.24693l1.47856 0.884391l1.85751 0.421665l1.65579 0.467857l1.50017 1.52231l0.812649 1.37494l1.03957 1.69165l0.751482 1.67751l0.556295 1.85772l1.39832 1.46622l0.636292 1.44618l0.474321 1.5559l-0.60722 1.72894l0.652878 1.70651l0.100956 1.60607l-0.337885 1.64093l0.254155 1.78976l0.609291 1.67673l-0.378331 1.59905l-1.57818 0.377146l-0.848834 -1.40893l-0.0605965 -2.36122l-0.386586 -1.19953l1.32106 -0.874954l0.408448 -1.58364l-0.273088 -1.64503l-0.339658 -1.73584l-0.720689 -1.41043l-1.41373 -1.01735l-1.50041 -0.657446l-1.68263 0.0642241l-0.355662 -1.54622l0.432767 -1.62224l-0.894007 -1.49262l-0.806623 -1.49424l-1.26633 -1.74483l-1.37058 -0.905783l-1.86615 -0.223553l-1.59093 0.188106l-1.47938 0.723471l-1.7453 0.454826l-1.79777 -0.213025l-1.57982 -0.453776l-1.70145 -0.402856l-1.58782 -0.0773642l-1.61063 -0.397535l-3.57346 -1.73197l-1.58874 -0.431749l-1.52144 -0.726774l-1.66018 -0.475183l-1.89633 -1.25361l-1.22733 -1.42097l-0.930601 -1.27538l0.178442 -1.6195l-1.12297 -1.1247l-0.986651 -1.22135l-0.759808 -2.13388l-0.0549584 -1.55093l-0.35913 -1.5513l-0.365373 -1.61736l-1.37593 -1.34762l0.344947 -1.54762l0.66284 -1.60736l0.0870687 -1.58821l0.387184 -1.60021l-1.69144 -0.0782916l-1.07125 1.21796l-1.39467 0.69222l-1.59488 0.129907l-1.01329 -1.3042l0.77421 -1.34825l-0.780169 -1.44301l-1.69524 -0.412158l-1.61696 -0.37593l-1.57603 0.590651l-1.57017 -0.202613l-1.75174 0.519391l-1.04366 1.26503l-1.48305 0.839084l-1.56667 0.469626l-1.65761 0.631707l-1.22345 1.18577l-1.69311 0.86119l-1.56768 0.323623l-1.74523 0.237563l-1.97366 -0.558672l-1.46738 -0.606867l0.922647 1.31884l0.539914 1.41895l0.512271 1.55671l0.12462 1.6041l0.220404 1.55583l-0.938971 1.18666l-1.44115 0.661665l-1.54449 0.107819l0.94346 1.60114l0.171628 1.50324l-1.18499 1.08421l-0.462449 1.49482l-0.485454 1.4593l-0.847786 1.25115l-0.90885 1.42133l-0.41713 1.46858l1.16651 1.0592l1.0146 1.14003l0.780218 1.36866l1.2288 -0.921031l0.992906 -1.42403l1.24745 -0.862509l1.09663 1.15216l1.75537 2.62398l0.214595 0.970359l-0.47084 1.53685l-0.725023 1.66206l-0.295943 1.64754l-0.353257 1.65489l0.0576686 1.87888l-0.8381 1.30036l-0.940557 1.13013l-0.475921 0.600672l-1.35126 0.805311l-1.14386 1.12533l-0.869017 1.24744l-0.835896 1.38492l-0.765717 1.33373l-1.0134 1.74152l-0.515615 1.64636l-0.671664 1.50225l0.121891 1.70529l1.47649 0.624688l0.0867252 1.81059l-0.423677 1.51645l-1.03783 1.14651l-1.10718 1.31249l-0.980065 1.6035l-0.659682 1.86058l-0.250962 2.11395l-0.759933 1.34579l-1.67043 0.028368l-0.882461 -1.31465l-1.62473 0.0584543l0.153379 1.59703l-0.495187 1.76492l-1.5517 -0.253112l-0.510092 -1.56234l-1.65465 -0.111074l-1.7264 0.872782l-1.71599 0.580021l-1.58357 -0.219641l-0.60479 -1.76817l-1.50943 1.42646l-1.43159 0.72608l-1.61403 0.522823l-1.60824 0.492448l-1.52802 0.894098l-1.66584 0.51362l-1.35241 0.778944l-1.08523 1.39705l-0.933511 -1.24641l-1.60378 0.346651l-0.694048 -2.18485l-0.520178 -1.64571l-1.75304 0.509846l-0.994064 1.51755l-1.72596 0.8216l-1.82142 -0.718859l-0.13916 -1.70317l-1.59097 1.22849l-1.67503 0.0346929l-1.71762 -0.367471l-1.46373 -0.585819l-1.3854 -1.03997l-1.39511 -0.805475l-0.106309 -1.59213l-0.37979 -1.52703l-1.74531 0.0830537l-1.61444 -0.541793l-1.48101 -0.703533l-1.48021 -0.64458l-1.55826 -0.145442l-1.59861 -0.293414l-1.716 0.39022l-1.59553 -0.0541276l-1.52596 -0.436911l-1.61448 0.383987l-2.00873 1.53329l-1.54831 0.7089l-0.974995 -1.49249l0.378452 -1.60633l-0.485566 -1.60589l-1.48479 -0.682007l0.0771072 -1.86938l-0.196567 -1.56071l-1.83202 -0.178667l-1.61197 1.08945l-1.56152 -0.326446l-2.18165 0.00384458l-1.55203 -0.611414l-1.95304 -0.679996l-1.5622 -0.220135l-1.67468 -0.236673l-1.57506 -0.282178l-0.6883 -1.48855l-2.14768 -0.0822888l-1.6208 -0.0290562l-0.973578 -1.26996l-1.68758 -0.425843l-1.41043 0.711229l-1.86093 -0.404138l-1.57213 -0.625545l-1.62066 -1.01395l-1.2477 -1.13609l-0.697145 -1.44388l-0.587671 -1.63383l0.224348 -1.8516l1.4939 -1.16605l0.421232 -2.05895l0.482071 -1.50449l-0.58277 -1.98932l0.488923 -1.55676l0.389739 -1.76295l-0.511828 -1.50272l-1.36043 -0.779258l-2.24341 -0.48518l0.17387 -1.82015l-0.206318 -1.68786l-0.149167 -1.62384l-0.301583 -1.61321l-0.601929 -1.51957l3.75953 -2.82468l1.05771 -0.326759l1.89311 -0.512796l1.54212 0.945815l1.92302 0.472106l1.49399 -0.820684l-0.662921 -1.45222l1.64832 -0.425094l1.75145 0.0733394l1.88167 -0.0667362l0.878523 -1.44095l-0.142539 -1.56809l-1.22343 -1.17919l-1.83234 -0.153968l-1.66526 0.0704573l-1.52041 -0.312886l-1.47413 -0.471107l-1.56453 0.0894019l-2.25193 -0.148052l-0.66315 -0.784522l-0.602626 -1.60061l-0.854729 -1.33645l-1.00541 -1.35244l-1.81939 -0.378407l-1.67623 -0.121679l-1.79967 -0.755556l-1.37579 -1.35663l-1.0684 -1.21612l-1.57372 -0.674212l-0.897349 -0.830163l-0.839656 -1.12034l0.2274 -1.72433l-0.578533 -1.46965l-0.651567 -1.61166l0.132753 -1.87548l-1.25926 -1.17464l-2.949 -0.77118l1.18019 -0.691904l2.03661 -0.862789l0.837011 -1.44571l0.346583 -1.62385l-0.481792 -1.63583l0.405402 -1.71347l0.170832 -1.58392l-0.355357 -1.08891l0.370521 -1.40369l1.05795 -1.1938l-0.430466 -1.57247l0.228625 -1.80443l-0.370065 -1.62877l0.872464 -1.63958l-1.2353 -1.36959l-1.26954 -1.13296l-0.944459 -1.41059l-2.7183 -2.88204l0.85324 -1.00316l1.49733 -1.04379l1.79334 -0.753062l3.15248 -1.41645l0.563081 -1.58112l0.476742 -1.50096l0.102999 -1.91519l0.0614137 -1.95171l-0.618413 -1.76334l-0.758103 -1.59475l0.593028 -1.89887l-0.344608 -1.59371l1.3541 -0.928525l1.62371 -0.244667l1.76513 -0.525711l0.683307 -1.78047l1.52927 -0.545989l1.93819 -1.27575l1.40746 -1.64103l0.591096 -1.68678l-0.477775 -1.85257l-0.553257 -1.70295l0.561827 -1.50669l1.36968 -0.972891l1.37469 -1.236l0.392742 -1.72511l0.934086 -1.26l1.27112 -0.954844l1.3238 -0.982797l0.390238 -1.69697l0.690818 -1.87823l1.04893 -1.45464l1.34287 -1.47228l0.800028 -1.47076l0.864905 -1.3775l-1.17647 -1.86362l-1.22681 -1.32997l1.6614 0.0541914l1.60671 1.19665l1.67469 0.889939l1.52251 0.563141l1.5841 -0.421576l1.27489 -1.49249l1.6501 -1.5347l1.02867 -1.18611l1.76691 -1.4072l1.23398 -1.05155l1.92226 -1.19837l1.76544 -0.820869l1.76204 0.459593l0.633766 1.53147l1.5981 0.474525l2.03072 -0.0912798l2.11321 -0.00309269l2.16571 -0.386909l2.19952 -0.44826l1.73208 -0.150519l1.62279 -0.728472l0.279883 -1.74771l1.76661 0.483925l1.64538 0.746883l1.64816 0.391588l1.8703 -0.317935l1.8151 -0.16416l1.28172 1.33117l1.91691 0.391859l1.5394 1.08586l1.72723 0.15412l1.55247 -0.555094l1.54508 -0.168593l1.62379 -0.506736l1.72848 -0.0605741l1.6653 0.24726l1.61826 0.717152l1.55905 0.582177l1.15005 1.09681l0.104144 1.69036l-0.441756 1.60715l-0.243202 2.00424l-0.16924 1.56639l-0.243499 1.83812l-1.41048 0.968314l-0.355579 1.62238l-1.24693 1.24068l-0.0875215 1.74892l-0.331337 1.73021l-0.40092 1.4977l0.065207 1.80574l0.194374 1.59503l0.450544 1.86676l0.468225 1.51203l0.976045 1.44976l0.619618 1.46723l0.799079 1.33139l1.70042 0.165681l0.738496 1.70367l-1.27589 0.999795l-0.942476 1.21009l-1.39735 0.608687l0.150654 2.4871l0.530077 1.92087l0.237646 1.58475l0.199375 1.60051l1.28899 1.03445l0.856045 1.54368l0.97213 1.33543l1.07054 1.14243l1.08681 1.06812l1.08788 1.08761l1.39992 1.04676l0.623456 1.98011l1.40814 0.691433l0.12573 0.307824l0.46639 1.19551l1.05057 -1.17513l1.01945 1.2691l0.697831 1.00243l-5.37122e-14 0"/>
<path d="M145.244 59.4207l-3.93493 2.16872l-2.59508 2.94645l-1.59692 -2.04823l0.806001 -2.37401l2.02829 -0.59242l-1.37852 -1.52963l-0.474099 -2.61253l1.50743 -2.43729l1.95999 -1.29875l1.55083 -2.3799l3.50514 -2.36835l3.19819 -1.90446l6.06631 -2.23507l-1.57247 1.9658l-4.10676 2.82882l-2.71731 2.92491l1.54741 2.0335l2.7023 1.91947l0.910452 3.11487l-1.24014 1.69023l-0.000627677 5.84557e-05l-2.41116 0.211227l-3.75433 -0.0234212"/>
<path d="M144.856 88.5938l-3.04468 0.88219l-0.929652 -1.61449l0.819274 -4.06007l2.07409 -0.290516l-0.618027 -3.17521l2.54562 -0.235265l0.736044 4.4457l-2.28153 1.55908l0.698862 2.48858"/>
<path d="M-166.044 59.5176l1.94226 4.3144l-2.33743 0.992838l-2.00606 0.282403l-0.99314 0.154536l0.689946 -2.4379l-0.449563 -2.99095l0.819485 -0.405486l2.33451 0.0901635"/>
<path d="M-125.035 -181.234l4.04276 -0.6259l1.35434 -1.72347l1.99118 -2.43719l2.13296 -0.931404l3.37492 4.95961l-0.170128 2.14055l1.81136 3.60846l-1.80535 -0.475191l-0.236626 4.27925l-0.768995 0.184739l-1.92855 1.09782l-4.25572 -2.26382l-2.29833 -2.43518l-4.30241 -2.35093l-1.26223 -1.95512l2.32081 -1.07222"/>
<path d="M-26.6775 -217.912l1.10883 1.97211l2.46626 -2.34108l1.31633 2.01387l0.216293 2.11223l-1.14181 2.46005l-1.97859 3.93478l-1.59942 2.21687l1.61165 2.20673l-2.72756 0.411407l-2.75009 2.2765l-0.442781 3.33303l-1.14743 5.20669l-2.24521 2.59794l-1.39245 1.66776l-3.03549 0.491646l-2.45515 -1.12172l-3.64653 0.476007l-0.968233 -1.61132l0.965404 -3.95966l3.27183 -5.69482l2.06944 -1.36647l2.18002 -2.33271l2.61106 -3.10207l1.76021 -2.91154l1.07385 -3.94983l1.23045 -1.46716l0.167556 -2.87507l2.36752 -2.68144l1.11402 2.03728"/>
<path d="M-22.9275 -243.092l3.52573 5.24179l-0.202815 -3.57731l2.00693 1.28243l0.905982 3.90205l3.41532 1.4829l2.78767 0.275149l2.27062 -2.07685l2.10809 0.538416l-0.859709 4.63003l-1.12216 3.04713l-3.04707 0.022421l-0.98055 1.61391l0.481935 2.1814l-0.52486 0.979783l-1.30659 2.82509l-1.66718 3.58815l-2.76049 2.22953l-0.757644 -1.26446l-1.64038 -0.58342l1.83536 -4.35161l-1.51294 -2.68678l-4.41982 -1.62221l-0.0882677 -1.86207l2.69803 -2.08018l0.310208 -4.03135l-0.500464 -3.33561l-2.02169 -3.3304l0.0213031 -0.933261l-2.24308 -1.95477l-3.90087 -4.27294l-2.28794 -3.52245l1.57323 -0.621775l2.72261 2.66971l3.51624 1.01571l1.66528 4.58184"/>
<path d="M-72.0779 -315.215l-1.7539 1.90633l-3.39839 -0.873777l-4.60654 -1.67438l-4.40033 -2.20281l-4.85935 -3.18371l-1.35714 -1.81088l2.45315 -0.598887l3.71557 1.18224l3.00852 1.38948l2.21965 1.21791l5.46953 2.58165l3.50923 2.06683"/>
<path d="M-290.325 243.124l5.5523 -6.00711l1.33609 -3.27481l2.85351 -1.53473l2.20817 -0.376404l-1.57881 4.14112l2.26902 -0.35l2.93895 -4.06412l2.47067 -1.36042l2.25304 0.334371l4.40384 -3.25587l7.17507 -3.04563l8.41537 -3.5019l11.0392 -5.11863l7.63217 -4.06504l6.72365 -2.87224l3.99503 2.20251l5.00918 1.59293l1.09117 3.21928l1.54595 4.46597l-1.09641 3.27821l-3.3956 4.06958l-1.8925 4.82366l-2.62396 3.53353l-3.77341 2.51253l-2.6484 -1.05316l-1.43698 1.47115l-5.28195 1.44425l-3.17581 2.48114l-1.10075 3.10532l-1.97334 3.67276l-3.75941 4.59545l-4.07899 1.09547l-3.49822 2.37446l-2.40258 -2.03709l-3.43743 -1.55157l-2.49211 -0.846264l-1.9977 -1.94757l-5.24124 -0.049614l-6.62166 -1.11272l-3.82093 0.820561l-1.54812 2.60224l-1.26327 -2.62739l-5.96382 0.39384l-3.19268 2.62548l-3.80634 0.338954l0.718469 -3.72625l1.07881 -3.25325l2.39276 -4.16301"/>
<path d="M-224.08 -303.511l5.02876 2.87323l1.90992 -4.50034l3.4038 1.07778l4.03727 0.369173l1.1345 2.79829l4.32384 3.88272l2.62839 2.15232l1.74332 -0.226168l4.47756 3.64683l1.36372 3.08669l4.02091 2.50091l7.21352 -0.76106l5.1204 0.301536l4.76925 0.263968l0.128458 1.68256l4.8269 1.62223l5.26587 4.58207l1.27387 -2.28576l3.28741 1.15769l0.736028 -1.48588l3.95782 5.12055l5.17198 1.35188l3.291 0.812947l5.92677 2.30429l3.458 3.51962l1.6165 2.89574l1.29869 3.34917l4.34624 3.2658l1.98294 4.62637l0.406824 2.71649l1.0827 5.04975l1.53006 2.79813l0.96529 3.95223l0.46715 5.36951l-1.74324 3.95075l0.548957 4.47102l-0.0197517 3.04601l1.10924 4.66403l-0.151416 3.12739l1.02685 3.96798l1.33739 3.4036l1.01137 1.32448l-1.13134 2.75785l-3.84154 2.54179l-2.06325 3.81323l-0.478612 2.69532l-0.809517 3.18483l-4.03506 -0.0217637l-2.55647 0.667128l-1.03428 -2.57731l-1.2605 2.09348l-0.67296 5.11688l-3.62998 0.968078l-2.32072 0.750731l-2.05598 1.14179l-4.01471 1.31013l-4.09875 -0.769617l-3.15564 -2.54253l-2.47311 -1.39174l-2.99368 -0.255763l-3.52991 2.26064l-0.652017 -2.87254l-3.43225 -2.25838l0.883838 4.18507l-2.18149 3.34646l-0.334997 -3.71721l-1.59963 -2.73188l-0.498476 -3.11457l-2.9609 -2.73245l0.415958 5.8919l-0.767984 3.25578l1.73014 4.2459l-3.99326 0.830581l-1.91022 -2.12074l-4.76344 -0.772646l-3.13426 0.294939l-0.301395 -1.49402l-6.49061 2.00553l-2.32968 2.2986l-4.99398 1.56803l-5.05571 6.73768l-2.26731 5.94643l-1.78021 5.29803l-2.92556 3.32744l-0.567995 5.60049l-1.22093 3.97397l1.86309 2.31841l0.897959 2.5992l-1.97024 3.24552l-1.10287 2.62266l-2.91409 2.84349l-1.14922 3.06105l-1.3308 2.77383l1.18615 3.71048l-0.838877 1.00653l0.263212 2.6652l0.498021 2.6571l-1.6634 2.72266l-1.32881 2.60816l-5.11816 2.68569l-1.94026 1.71973l-2.75581 -1.39487l0.290213 -2.3363l-0.779808 -1.22435l-1.82685 -0.700909l-3.17312 -2.15414l-3.15746 -0.942987l-6.12707 -0.13915l-3.218 -0.634947l-2.80679 -1.541l-4.1581 0.237618l-1.56774 -0.579259l-2.98153 1.08485l-4.35323 -1.2557l-5.36998 0.850232l-2.56269 -0.322789l3.21965 -1.09368l-5.66271 -0.547342l2.60278 -1.71096l2.69219 -0.493081l-2.75972 -1.14578l-5.29244 0.520956l-1.91119 -0.276288l-2.12581 0.438996l-2.92737 -1.91317l-0.900392 -1.61979l-2.44881 -1.902l-3.47665 -0.881066l-3.06254 -3.91354l4.4095 1.51293l-2.83005 -3.90402l0.10329 -5.06032l-1.15376 -3.65763l-0.0756705 -4.96617l0.763847 -2.57223l1.41193 -1.06815l0.0928678 -5.13306l1.08548 -3.44265l-0.767334 -1.43939l0.258366 -1.63652l1.73012 -2.75527l1.545 -6.27385l-0.724214 -4.20666l-2.08558 -3.0731l-0.869212 -4.72185l-2.01699 -1.59751l-2.87785 -2.00954l-2.30298 -6.65444l6.13727 0.88351l0.38348 -2.90944l-3.78896 0.140427l-1.55152 -3.40232l2.73312 -1.50754l-3.70374 -3.45907l-0.697201 -4.73466l-1.26418 -2.78752l0.959842 -3.31966l-1.46635 -1.17878l2.31676 -1.86061l-1.29958 -1.09176l0.929852 -2.89442l1.17269 -3.08859l5.40274 -1.95905l5.34745 -0.385849l2.55969 -3.12525l3.08188 -2.7767l-3.70861 -1.2805l-2.168 -5.87455l0.562138 -3.42724l-1.97209 -0.311554l-1.10212 -4.75706l0.836474 -4.68748l2.90909 -2.04862l2.85035 -5.09311l-2.70349 -2.31573l-5.08516 2.17688l1.70309 -3.40827l4.37218 -2.17273l4.58047 -0.682811l5.26075 -2.88978l0.860128 -1.87661l4.48155 -1.46625l1.44071 -4.19199l2.25821 -1.33543l0.230973 -2.06541l4.62038 0.363728l1.21671 3.91391l0.0674779 3.74727l-1.48744 1.74461l2.43945 1.42453l0.964805 3.76741l0.658462 3.97327l1.65167 1.02029l6.21211 -0.909766l5.01424 -1.81931l3.92764 -0.542048l5.95591 -0.158619l1.31055 -1.1703l3.5452 -0.888355l2.0192 0.8993l5.89297 -2.12453l1.73413 -4.28128l-1.25088 -3.46916l-0.824467 -3.04922l-1.63868 -3.30191l-1.75811 -5.33692l-2.70968 -1.97763l-0.84638 -1.82365l-2.99816 -2.55917l-2.51133 -4.56673l0.144567 -1.89009l-2.24694 -1.15951l-0.985453 -3.90179l-1.33785 -3.82556l-1.09371 -1.68978l0.423317 -3.66856l3.64744 1.55872l3.03283 3.21159l1.86281 -0.34979l1.97937 2.15731l4.05423 1.35248l2.7019 2.81788l1.27772 2.12506"/>
<path d="M-331.938 -227.589l-2.05717 5.85105l-1.17632 0.228966l-1.6755 -1.86849l-1.95259 -4.97403l1.63151 -7.46183l-0.920997 -1.67868l2.27649 -6.01673l2.79096 -4.21859l0.624719 -2.36328l2.38264 -1.64034l-0.0277751 3.31513l-1.88662 7.91068l-1.78046 6.07007l1.77111 6.84608"/>
<path d="M-306.45 -303.519l0.962838 6.33991l-4.57782 -3.42953l-1.02279 -2.86745l-0.732374 -2.94538l2.80784 0.339265l2.5623 2.56318"/>
<path d="M-338.178 -328.214l10.9773 7.54212l9.19009 -2.45947l-1.11394 -10.7354"/>
<path d="M-246.658 -338.217l-2.13869 4.59568l3.952 3.76981l-2.98819 5.36544l-3.90385 1.48479l-5.97998 4.36239l-8.75439 -0.548644l-6.58257 3.65643l0.0214062 2.75206l-6.6975 6.27996l-1.7291 -6.52241l2.09412 -4.62217l-6.86088 -4.83018l-6.97845 -2.33913l-15.3641 5.40078l-5.02386 4.01277l-13.4022 3.32158l1.17791 4.31594l-1.5486 2.66011l-3.3209 -0.655738l-2.53901 -2.3136"/>
<path d="M-336.507 -314.532l4.05396 -4.05602l-2.01216 -0.990929"/>
<path d="M330.37 331.459l-6.17018 -0.600707l-2.18348 -4.10456l-4.99563 8.26689"/>
<path d="M236.318 335.895l0.225678 -5.94375l2.08097 -13.8202l-1.32802 -8.92364l0.238011 -7.77015l1.22046 -1.14401l-1.69902 -5.06414l-8.23244 -9.4661l-4.98981 -8.93432l-2.18179 -3.70732l-0.117409 -3.17521l-4.59012 -7.19907l-0.734839 -10.0425l-3.4179 -5.43826l1.685 -5.00021l-1.44903 -3.57779l4.45927 -4.07118l4.67743 -7.70496l0.85069 -4.62171l2.99869 -5.60243l0.87069 -7.86973l-1.33261 -7.23541l-2.75501 -3.44439l-2.95893 -1.46925l-3.71264 -4.54133l-1.33894 -2.68169l-0.0995944 -4.65153l-4.11167 -10.4222l-0.809551 -5.97254l-0.0681181 -4.07084l-2.83773 -4.81352l-0.676785 -4.24343l-1.57595 -3.55783l0.47783 -5.76988l2.71913 -2.05231l0.855343 -2.28738l4.15487 -2.13849l1.46662 -2.61972l3.95328 -0.730045l-2.23183 -1.72668l-6.83216 2.27772l-2.75816 -2.47045l-3.37598 0.982249l-2.02944 -1.58554l-3.47712 -6.95788l0.774393 -6.57257l3.06904 -7.52919l2.54187 -3.63963l-3.10583 -0.687679l-3.01398 -2.49677l-2.60479 -0.563038l-0.517666 -2.8663l1.13489 -3.80662l3.2607 -2.51183l-0.575235 -1.90096l-4.76751 -1.6378l-2.4406 1.62131l0.531435 2.5235l-2.8251 -0.168151l0.09334 -3.7203l-1.55974 -3.95941l-4.30525 -2.56079l-2.05519 -1.84747l1.31984 -3.00362l-1.25018 -3.47415l-3.00784 -2.3043l-4.5529 1.6355l-2.17034 2.48329l-3.49077 -2.79311l-0.988446 -4.52988l-4.39549 -4.01223l-0.710759 -3.27847l-1.62606 -1.94958l-4.91311 -0.867045l-3.23069 0.789743l0.665277 -1.03419l0.945904 -2.36805l-0.603485 -1.68892l-0.733254 -2.97302l-3.96363 -1.84439l0.271582 -1.13306l2.39586 -2.48515l4.03338 -2.11807l3.53422 -2.68398l3.10706 -0.11152l2.45405 1.51542l3.42663 -0.654937l7.96674 1.64391l4.13131 2.48519l2.68751 4.32761l2.68168 -4.50038l3.34075 4.20771l7.55673 3.32243l-2.76706 3.29078l9.29964 4.82144l2.00262 -1.9961l-5.66005 -2.86766l1.30304 -2.00355l6.57492 3.06866l8.66355 3.87024l2.84134 2.73765l5.15609 0.331854l5.72193 1.33545l-0.339647 1.73275l7.36609 4.99884l7.21612 5.50795l7.06802 4.36926l8.16279 1.58602l3.90075 2.81413l6.76775 1.6548l5.63815 5.01899l10.2767 4.56282l11.0228 5.72113l12.177 6.23611l9.70471 3.05493l8.80857 1.83739l5.47546 -4.56471l2.67764 0.337429"/>
<path d="M338.405 127.152l-0.968891 0.683809l-1.21738 0.00159889l-0.575614 0.393062l-0.655193 0.350932l-0.034256 0.630578l0.558515 1.28628l3.19735 -0.207002l0.230431 -0.096618"/>
<path d="M340.332 125.696l-1.92783 1.45616"/>
<path d="M-271.367 338.232l2.34057 -3.62622l-1.9822 -5.14458l1.06439 -1.64359l4.41623 -2.18604l1.0937 -2.00347l2.58554 -2.41497l0.950613 -5.12138l2.2778 -7.32943l-0.963754 -2.8516l1.20174 -3.15346l4.75498 -5.13847l3.31122 -5.16581l6.72977 -8.25198l1.27749 -3.24019l4.55618 -2.36407l4.84354 -1.90269l5.66728 -0.562826l5.97513 1.6582l7.41385 1.80724l9.61986 -1.37622l2.55347 0.425652l5.99593 -1.23058l2.82802 0.207655l2.94416 -3.37493l0.436102 -5.41093l1.15911 -3.58991l1.00024 -1.53028l-0.989927 -0.331204l3.58891 -4.74507l2.34881 -1.75629l-0.457518 -1.58602l2.10522 -1.55012l3.06993 -0.419661l4.79085 0.875764l7.11091 0.897352l3.12516 -0.566053l0.94714 -2.3135l-0.911223 -1.0537l2.03333 -2.32314l3.34604 -2.8387l3.05734 -3.68543l2.46226 -1.4754l4.37127 -0.643567l1.24363 -0.194648l3.24466 -1.37246l2.62447 -1.77747l4.34366 -2.06626l7.40442 -2.33611l4.42197 -1.32185l4.19672 -0.579489l5.15971 0.267594l2.18101 0.758259l1.17279 -1.09504l2.11262 1.8883l2.43968 0.00314761l3.99892 2.92939l2.75033 0.468784l1.59804 0.976807l5.0571 -0.241671l3.83494 0.570035l3.2557 -0.948361l1.91996 0.556652l1.12347 2.41816l1.38031 0.579747l1.04568 2.88363l0.434941 -0.641415l0.108846 1.55993l-1.01605 3.00101l0.277519 3.92294l-1.72004 0.483967l-1.20086 4.03479l1.35707 5.87552l0.903392 5.23094l0.00305464 0.0163163l1.27775 8.03258l2.40372 5.16655l0.8089 4.57425l-0.365127 5.74655l0.167493 4.42923l-0.54852 9.28301l-1.66979 7.00289l-0.123143 3.39011l1.52743 2.98l1.68148 5.64084l1.29959 7.97901l0.394574 4.14554"/>
<path d="M-215.789 305.22l-0.985128 3.72365l0.854988 0.94384l-4.04196 7.85015l-5.16495 4.53003l0.328191 3.50035l-3.74656 6.4661l0.929901 5.27545l1.75251 -1.47397l0.527219 -5.20908l4.4242 -7.25805l3.80386 -2.08734l1.1946 -5.32025l1.7257 -2.42062l-0.129583 -2.50257l1.46556 -2.0782l-0.0383552 -1.78304l-1.90038 0.73289l-0.391569 -3.4793l-0.608248 0.589955"/>
</g>
</g>
</g>
</g>
<g inkscape:groupmode="layer" inkscape:label="Coastline" id="Coastline"><title>Coastline</title>
<g>
<g id="drawing" transform="translate(339.407,-340.593)">
<g stroke-width="1px" stroke="rgb(51,51,51)" fill="none">
<path d="M-339.407 340.593l0 -680l680 0l0 680l-680 0"/>
</g>
</g>
</g>
</g>
<g id="Clone of page">
</g>
</g>
</g><!--ePage-->
</svg>
