<?xml version="1.0" ?>
<svg version="1.1" encoding="iso-8859-1" baseProfile="full"
xmlns:dc="http://purl.org/dc/elements/1.1/"
xmlns:cc="http://creativecommons.org/ns#"
xmlns:rdf="http://www.w3.org/1999/02/22-rdf-syntax-ns#"
xmlns="http://www.w3.org/2000/svg"
xmlns:xlink="http://www.w3.org/1999/xlink"
xmlns:ev="http://www.w3.org/2001/xml-events"
xmlns:sodipodi="http://sodipodi.sourceforge.net/DTD/sodipodi-0.dtd"
xmlns:inkscape="http://www.inkscape.org/namespaces/inkscape"
inkscape:version="0.46"
inkscape:output_extension="org.inkscape.output.svg.inkscape"
viewBox="0 0 681 265" xml:space="preserve">
<title>Magics plot</title>
<metadata id="MAGICSmetadata">
<rdf:RDF><cc:Work rdf:about="">
	<dc:format>image/svg+xml</dc:format>
	<dc:title>Magics plot</dc:title>
	<dc:author>baudouin on Baudouins-iMac-3.local</dc:author>
	<dc:date>Sun Sep 13 07:59:11 2020</dc:date>
	<dc:language>en-GB</dc:language>
	<dc:publisher><cc:Agent>
	 <dc:title>Magics 4.4.5 (64 bit)</dc:title>
	</cc:Agent></dc:publisher>
	<dc:coverage>Plot of meteorological data</dc:coverage>
</cc:Work></rdf:RDF>
</metadata>
<g id="page" transform="translate(0,264.444)" vector-effect="non-scaling-stroke">
<g id="Page26">
<g inkscape:groupmode="layer" inkscape:label="Coastline" id="Coastline"><title>Coastline</title>
<g>
<g id="drawing" transform="translate(680,-132.222)">
</g>
</g>
</g>
<g inkscape:groupmode="layer" inkscape:label="Coastline" id="Coastline"><title>Coastline</title>
<g>
<g id="drawing" transform="translate(680,-132.222)">
<g fill-rule="evenodd" stroke="none">
<path fill="rgb(255,225,170)" d="M-679.688 62.3401l0.46863 -1.81674l-0.780791 0.174724v1.84387l0.31216 -0.20186"/>
<path fill="rgb(255,225,170)" d="M-230.199 -38.1933l0.151111 -2.81444l-0.793333 -0.132222l-2.17222 0.491111l0.0755556 1.49222l-1.09556 1.03889l0.68 0.34l3.15444 -0.415556"/>
<path fill="rgb(255,225,170)" d="M-251.6 -67.9313l2.8438 0.0223531l0.967716 -0.952488l-0.68113 -0.750434l-1.93094 -0.332756l-3.09115 -0.0220603l-0.535494 0.552088l0.220113 1.61654l2.20708 -0.133239"/>
<path fill="rgb(255,225,170)" d="M-290.521 -67.5022l2.65541 -0.0703774l-0.62598 -1.03448l-2.00698 -0.907295l-2.54238 -0.33871l-0.860441 -0.127285l-1.58803 0.263257l-0.453305 0.863467l2.15974 1.37651l2.11435 0.606262l1.14761 -0.631348"/>
<path fill="rgb(255,225,170)" d="M-268.222 -69.0704l1.24913 -0.542327l0.574831 0.91647l1.45031 -0.232803l0.68113 -0.689036l1.24269 0.1798l1.73416 -0.158423l1.79682 0.82169l1.40296 -1.53776l-1.85666 -1.38598l-1.68086 -0.13646l0.121721 -1.12585l-2.06691 0.0753557l-0.685913 -1.3401l-0.995633 0.0948778l-2.23773 -0.972401l-2.94893 -0.0174722l-0.472438 0.64394l-3.27651 -0.59328l-2.30489 -0.166915l-0.850875 1.04317l2.38347 0.58918l-0.0285026 1.44298l1.72557 1.63655l-1.36021 0.841017l-2.85073 -0.30318l-3.477 -0.524562l-0.332854 1.2178l2.02338 1.17699l1.76754 -0.706118l2.30499 0.273116l1.78287 -0.261988l2.50909 0.642085l0.191318 1.08583l0.972596 0.600698l1.51209 -2.58689"/>
<path fill="rgb(255,225,170)" d="M-587.604 -72.0931l1.20866 -0.59024l1.47598 -0.806782l0.090893 -0.209402l-0.962767 -1.3237l-0.612982 -0.50592l-0.671009 -0.327647l-1.44655 -0.638255l-0.287225 -0.069927l-0.219073 0.352316l0.260629 0.742937l-0.655822 0.616043l-0.188096 0.420391l0.624883 1.37534l-0.108007 1.05585l0.938703 0.540977l0.551782 -0.631984"/>
<path fill="rgb(255,225,170)" d="M-589.633 -77.9883l0.315822 -0.453598l-0.9877 -0.579549l-1.34289 -0.35904l-0.370109 0.323869l0.033547 0.23596l0.434217 0.307133l0.650836 0.795563l1.26627 -0.270338"/>
<path fill="rgb(255,225,170)" d="M-592.198 -80.0014l-1.85878 -0.161462l-0.283107 0.460171l2.02444 0.109707l0.117451 -0.408416"/>
<path fill="rgb(255,225,170)" d="M-595.577 -80.5504l-1.09095 -1.24874l-0.315784 -0.242684l-1.01037 0.520729l0.146767 0.150846l0.480269 0.856611l1.31493 0.132789l0.270376 0.04862l0.204756 -0.218167"/>
<path fill="rgb(255,225,170)" d="M-601.97 -83.0431l-0.0777089 -0.879996l-0.870816 -0.0802404l-0.576376 0.370147l-0.195462 0.275287l1.27232 0.68884l0.448044 -0.374037"/>
<path fill="rgb(255,225,170)" d="M-288.334 -75.3776l2.6028 0.298885l2.54277 -0.187608l2.51202 -0.479563l0.448132 -0.884941l-2.85551 -1.54616l-2.78484 -0.155592l0.275165 -1.06357l-2.25306 -0.770444l-1.24366 0.051929l-2.35204 -1.7039l-3.1993 -2.33974l-1.33786 -0.887675l-3.52864 0.426756l-1.5037 -1.38305l-3.54826 -1.287l-2.96816 -0.042656l-3.26284 -0.269504l-0.915299 0.415042l-2.8602 0.361551l-1.92928 0.736378l-1.708 0.84004l-0.818664 1.36304l-1.9941 1.16704l1.61644 0.358135l1.86954 -0.41309l0.541546 -0.921741l1.56529 -0.0527098l2.71456 -1.96306l3.70561 0.193367l-1.41663 0.943899l1.31863 0.736866l4.92399 0.585471l1.13356 0.792406l3.52268 1.01301l2.13495 -0.1471l0.895484 2.15145l1.30535 1.09051l2.4353 0.25252l1.53962 0.981284l-2.53252 2.10752l5.40912 -0.367994"/>
<path fill="rgb(255,225,170)" d="M-292.909 -89.7591l-0.0201733 -2.19206l-1.32222 -3.13556l-1.13662 -0.152244l-0.822083 2.3976l1.41451 1.09363l0.959745 2.17657l0.92684 -0.187944"/>
<path fill="rgb(255,225,170)" d="M-293.987 -100.413l-0.113334 -0.982222l-2.49333 -0.113334l-1.77556 0.302223l0.264444 1.39778l4.11778 -0.604444"/>
<path fill="rgb(255,225,170)" d="M-290.889 -100.451l-2.98444 -1.7l0.00748 0.43384l1.69252 1.49283l-0.0619933 1.97446l0.694582 0.484198l0.651856 -2.68532"/>
<path fill="rgb(255,225,170)" d="M-220.983 130.075l0.258477 -1.97213l2.30139 2.08926l2.56171 -0.121053l3.49255 1.62188l2.04453 -0.404663l2.78883 0.75514l4.2666 -2.09964l1.63502 -2.37425l2.499 -2.15982l1.72264 -3.59378l2.56863 -1.76645l3.3217 -2.99704l4.19189 -6.64846l2.64011 -2.07935l0.857286 -1.84347l0.705797 -3.81628l-0.628323 -2.08603l0.549697 -2.82088l3.19788 -3.74688l4.44599 -3.00788l4.23109 -1.10377l2.66063 -1.68045l5.9429 -1.45171l4.10428 0.00899224l0.884725 -2.26473l3.05768 -1.63687l0.642158 -3.90183l3.83035 -4.93136l0.669827 -5.05056l1.19462 -1.49045l0.401435 -2.4907l1.05282 -5.823l-0.2677 -7.07803l1.05512 -2.77938l0.944444 -0.0740154l2.79667 -3.27489l2.40677 -4.27075l5.32518 -5.25647l1.92186 -2.46648l1.50429 -6.24542l-0.62717 -2.28548l-1.28224 -4.8103l-1.36894 -1.19162l-3.23039 -0.151489l-2.91012 -1.08971l-4.8246 -4.23225l-5.58458 -3.12663l-5.64407 0.147339l-7.35196 -1.99795l-4.39319 1.16418l0.619561 -2.09134l-1.84393 -2.21377l-6.27447 -2.30716l-4.75358 -1.35764l-2.8693 2.47894l-0.136271 -3.78677l-6.67798 -0.593275l-1.17525 -1.13882l2.84163 -3.11003l-0.101685 -2.60737l-2.02032 -0.62325l-2.11901 -6.60742l-0.93453 -2.08903l-1.28708 0.178236l-0.625326 -1.5474l-3.99982 -3.18842l-2.78168 -0.893717l-1.28293 -0.415731l-4.06185 -1.01546l-3.05469 0.272773l-0.406047 0.680895l-4.52623 -0.756293l-1.49137 -1.31544l-2.0247 -1.84277l-1.42335 -0.0899251l-0.105835 -1.94492l-2.33759 -2.46164l-2.48055 -1.38946l-1.48008 -0.89072l-1.96867 0.0853136l-0.601806 -3.02587l-2.86423 -1.85799l-3.02148 -0.284071l-1.29054 -1.78305l3.20802 -1.11599l-4.52715 0.0528024l-4.67957 0.22758l-0.043118 0.951131l-2.11924 1.18032l-2.88936 -0.467149l-2.16305 -1.69151l-4.03625 0.388292l-3.39202 -0.0332033l-0.148031 -1.25042l-2.4545 -2.10725l-2.64933 -0.0613334l-1.35579 -2.65417l-1.32467 1.19139l0.523641 1.78098l-4.7047 1.53518l0.190687 2.86054l1.17156 1.32905l-0.848524 2.7305l-1.62834 0.245565l-1.42981 -2.99727l1.66638 -2.19394l0.0461157 -1.97582l-1.23244 -1.71434l2.21769 -0.441325l0.107218 -0.892334l0.733697 -1.27233l-0.991251 -0.993557l-1.3385 -0.231269l-1.82894 1.81949l-1.47177 0.844605l-2.9726 1.9078l-2.95623 -0.314968l-0.300212 0.787191l-2.38094 0.0717098l-2.1665 1.75308l-0.696113 3.19211l-0.037584 1.24973l-1.55524 0.401896l-2.83449 2.6378l-1.95184 -0.120131l-1.42128 -1.04428l-1.23313 -1.13628l-1.68114 -0.652764l-2.10609 -0.129354l0.140652 -0.370999l-2.0858 -0.222046l-1.28939 1.1296l-2.29424 0.761597l-1.60712 0.954128l-1.85822 0.272773l-1.03852 -0.928534l-0.356934 0.30759l-1.50728 -0.170166l0.0774739 -0.800103l-1.35672 -1.35533l-1.7736 -1.61243l-1.46048 -1.5202l-0.956896 -2.05283l-0.57921 -0.620253l-0.1757 -1.02077l0.772664 -0.966349l-0.25963 -0.997477l0.353244 -1.61612l0.577135 -0.370999l-0.0949979 -1.70074l-0.202908 -0.973728l0.122437 -1.66454l0.405355 -1.5202l0.870198 -1.28685l-0.385525 -1.38254l0.192532 -0.843221l0.324884 -0.362698l-0.994249 -1.03875l-1.37355 -0.578749l-1.09178 -0.847141l-1.15312 -0.705566l-0.599732 -0.0839301l-1.72541 -0.523641l-0.750529 0.327189l-0.988254 0.0892334l-0.904093 -0.256863l-1.20361 -0.19576l-0.44317 0.423109l-1.21537 0.417806l-1.74639 0.0989177l-1.75469 -0.340793l-0.586358 0.187459l-0.350247 -0.308282l-1.08118 0.0544162l-0.828464 0.664062l-0.392442 -0.147339l-1.10815 -0.482829l-0.326036 0.563069l-1.23151 -0.683201l0.748685 -1.30853l0.682278 -0.120131l0.741997 -1.00255l0.437866 -1.90849l-0.238417 -0.361315l0.395671 -1.35164l-0.330187 -0.584744l0.611491 -1.63364l0.0627168 -1.02745l-0.715942 -0.0172932l-0.0138346 -0.554769l0.79111 -0.0627172l0.957126 0.970269l0.947211 -2.94747l0.565837 -1.63341l-0.696113 -0.657376l0.897868 -2.3007l2.03023 -2.24559l0.12797 -1.81925l-0.906168 -0.801025l-2.29125 0.31958l-3.34521 -0.131429l-3.99475 0.876424l-2.55872 0.989176l-0.652995 1.10447l-0.309896 3.17343l-0.900173 2.20386l-2.40308 1.54141l-2.37771 0.647461l-2.82872 0.679281l-2.8806 0.381605l-3.31363 1.05627l-1.56124 -1.58061l-4.01158 -1.00278l-1.478 -1.86007l-0.881727 -2.15497l-2.50753 -2.81281l-0.754449 -2.92995l-1.1711 -1.84208l-0.65507 -2.06113l0.364081 -1.84508l0.276231 -5.06071l0.660373 -2.71943l1.45932 -3.30094l0.0119899 -0.0076092l-0.00599496 -0.00599496l-0.717095 -1.28662l-0.188843 -1.81349l0.0378144 -2.60668l0.868815 -1.69982l2.06274 -1.80358l3.75403 -1.62903l3.43883 -2.80082l3.17943 -0.882419l2.34981 -0.265164l2.74756 0.87481l3.29564 -0.471531l2.82019 1.99634l2.7411 0.117825l1.41782 -0.716404l1.40191 0.556844l0.720093 -0.496202l-0.802409 -0.746609l0.0615642 -1.53219l-0.722399 -1.0655l1.60343 -0.528022l2.88129 -0.25986l3.35282 0.417114l4.26983 -0.474528l2.36872 0.93453l1.83309 1.76276l0.676053 0.188151l3.81121 -1.71434l1.47477 0.57944l2.94516 3.16052l1.05766 2.07773l-0.775431 2.50776l0.567451 1.47777l1.757 2.89006l2.0021 3.24883l1.43557 0.869046l0.596503 1.65762l1.85914 0.457926l1.1296 -0.476834l0.9426 -2.30669l0.164171 -1.46878l0.118978 -2.54788l-1.78882 -4.38212l-0.0209825 -1.63203l-1.67883 -2.6747l-1.2608 -3.23154l-0.667521 -2.62397l0.582207 -2.68369l1.78052 -2.2396l2.12961 -1.79804l4.14716 -2.45265l0.539781 -1.26771l1.91264 -1.38738l1.88681 -0.242337l2.48309 -2.21608l3.90805 -1.11968l0.619609 -0.723552h-168.151l0.327717 1.47892l0.963352 0.609877l3.50962 0.372382l1.35164 1.02146l2.1197 0.189765l0.412964 1.08417l1.76299 0.451931l2.44804 2.17204l0.635471 1.93062l1.53449 3.39848l1.74985 3.01918l1.40122 2.47663l1.39292 2.35973l2.217 1.04567l2.90827 2.69499l-0.140882 1.70374l-1.40168 1.41136l-1.55594 -0.214437l-0.27554 0.285455l2.22668 2.19348l2.33021 0.914239l0.952745 0.984334l0.498969 -0.486518l2.59653 1.68575l1.80035 1.1711l0.573215 2.04683l-0.124742 2.76439l1.93201 0.959662l2.72404 1.82617l2.47271 2.15336l0.996094 2.29678l0.669135 0.0182157l1.5896 -1.38807l0.0917698 -0.676053l-1.37009 -1.68713l-1.51489 -1.71665l-1.82179 -0.124742l-0.20775 -1.99242l-1.04936 -1.77014l-1.1213 -1.65485l-1.25388 -3.514l-2.37379 -1.92278l-0.804715 -1.33735l-1.14735 -0.961046l-0.758138 -2.43674l-0.671441 0.052802l-0.498278 -1.29792l-0.574598 -0.269775l-0.622559 -0.889336l-2.80382 -2.60206l-1.29538 -1.55732l-0.36754 -2.83702l-0.625326 -1.81257l0.605496 -1.53449l2.15613 1.04106l1.26103 -0.164632l2.73211 1.49829l-0.0571831 1.45125l1.3385 2.89305l2.03139 2.84924l0.164632 1.18009l1.77037 1.8377l2.19371 1.99011l2.03208 0.307359l0.941678 2.63619l2.23014 1.83609l1.92578 0.881036l-0.575982 2.33459l0.694729 0.92254l3.24238 1.54279l1.83793 2.35512l3.79853 2.95047l3.32907 3.75587l1.26656 1.90618l0.341255 1.5029l1.27417 1.69682l-0.0184461 1.30645l-0.868584 0.979953l0.388753 1.07749l-1.26057 0.368693l0.900635 1.84047l1.89258 2.38232l4.05931 2.14414l1.57346 1.72426l3.86424 1.19531l2.11393 0.225966l0.953668 1.00855l3.16029 1.80588l4.27698 1.75585l2.83218 0.529636l3.53106 1.73325l2.83103 0.718479l2.66801 0.995863l1.90388 -0.372382l3.0344 -1.42128l2.11024 -0.275079l3.0842 0.985257l1.94861 1.22713l4.27513 4.06715l2.03254 1.5587l1.72748 0.749376l2.35673 0.06802l1.938 0.65899l1.06988 0.811401l2.09918 0.234267l1.56216 0.751682l1.35971 0.362006l2.18795 0.0557997l0.41942 -0.889336l1.14735 0.328803l0.652764 1.18171l-0.286377 0.266547l-0.623711 -0.568834l-0.41942 0.584744l1.89281 1.70604l1.5926 1.18701l0.831231 1.27394l1.76599 1.52388l1.30668 1.19001l-0.865818 0.729777l1.06688 0.532864l-0.500122 1.19001l-0.0216742 1.14989l0.516493 0.761597l1.21353 0.373305l0.863512 1.04774l0.753757 -0.90271l-0.242567 -1.09801l0.99056 0.6749l0.248562 1.10539l1.30023 0.483521l1.48653 0.742689l1.04751 0.904324l0.137193 0.83492l-0.4351 0.655762l0.767131 0.793416l2.05029 0.837918l0.433716 0.57114l0.116672 -0.819702l1.62119 -0.00599496l0.980184 0.442017l1.54925 0.25156l0.762519 1.51927l1.24581 0.222277l0.491821 -0.642158l0.653917 2.25666l1.75792 -0.192532l0.545776 -0.559842l1.03137 -0.482829l-1.80242 -2.05052l0.370538 -0.78673l0.824083 -0.131429l1.52619 -0.948826l0.765747 -1.31475l1.65278 -0.240261l1.8822 1.05028l0.704875 1.24811l0.957587 0.258477l-0.933377 1.00924l0.809096 2.03923l1.25918 1.08971l1.52965 2.01271l0.596503 3.19534l-0.810018 0.991251l0.852214 3.45589l-0.712714 2.19256l1.39246 0.899251l-1.44572 1.98181l-1.59098 2.37379l-1.87413 0.253174l-0.885878 1.36917l0.167399 1.89189l-1.40952 0.284071l0.512343 1.17249l-2.59722 1.50359l-2.06943 0.810018l0.26355 1.54141l-1.42981 2.43351l-0.69519 2.3535l-1.32328 0.569295l0.637777 3.42891l-0.766669 1.06481l2.26289 1.65578l1.44387 -1.75469l0.817166 1.65001l-2.01086 2.82319l-3.01134 2.38601l-1.17594 2.64564l1.83078 3.60323l-1.22298 1.68598l2.69176 1.52965l2.93525 2.46533l1.1884 2.78238l1.5451 1.72195l3.56934 7.52189l3.72451 6.97012l3.19972 4.95741l-0.620253 1.08879l1.5647 3.12086l2.91427 2.3286l6.77459 4.13171l7.48961 3.793l0.327881 1.5504l3.78792 2.16881l0.786038 5.32103l0.276693 6.18385l-1.18171 8.44558l-1.21261 7.84631l-0.680434 7.30815l-2.20893 4.6127l0.452623 4.66296l-1.12844 3.11625l0.869737 5.66021l-1.59882 5.62977l-1.78122 4.12111h55.4595l-3.18352 -2.1476z
M-305.745 -101.332L-305.697 -102.26L-304.843 -102.131L-304.891 -101.203L-305.745 -101.332z
M-322.207 -42.2211L-324.101 -43.4812L-324.455 -44.9559L-323.247 -45.1079L-321.25 -43.5262L-320.565 -42.1143L-322.207 -42.2211z
M-261.01 62.1897L-261.354 61.96L-261.615 61.304L-262.203 60.9212L-263.421 60.1754L-264.383 59.4516L-263.98 59.1972L-263.946 58.7296L-264.012 58.005L-262.921 58.2174L-260.617 60.0134L-260.514 60.1169L-259.708 61.7893L-260.309 62.3584L-260.671 62.4709L-261.01 62.1897"/>
<path fill="rgb(255,225,170)" d="M-24.6639 -17.7747l2.62282 -1.0904l4.47481 -0.659451l2.42198 -0.0438098l2.63573 0.73877l1.71895 -0.0385065l3.36735 1.07288l3.40424 -1.09547l2.10033 -1.29584l1.91771 -0.716062v-111.32h-23.9453l-2.16851 3.36043l-2.80198 1.5617l-3.79 1.72564l-2.43028 2.55226l-0.506578 1.98942l-1.43511 3.25045l0.943983 4.69939l-3.15361 3.15453l-1.89373 1.00647l-2.97698 2.58247l-3.51284 0.416884l-1.96867 1.50452l-2.39478 3.85779l-2.51629 1.37655l-1.36386 2.33552l-0.0894638 2.01271l-1.00001 2.20317l-1.27209 0.608955l-2.10263 2.40123l-1.29884 2.6657l0.24372 1.27901l-1.23612 1.96821l-1.45102 1.02999l-0.178236 1.75054l-0.162557 1.59583l1.99127 1.63203l0.976726 1.79574l-0.377225 1.88382l0.456082 1.87828l0.417806 3.73305l-0.469225 3.55642l-1.05466 1.86329l0.32742 2.03554l-0.897868 1.94008l-1.83032 2.6521l-1.66154 0.717096l1.88474 1.34565l1.55801 2.94055l-0.482829 1.67584l0.619792 2.89605l0.240492 0.808404l1.15173 0.801717l-0.0219047 0.574829l0.866971 1.06458l1.59052 0.250177l2.01686 1.57899l1.0987 0.61887l0.552694 0.832614l0.428643 1.66915l0.943061 0.75099l0.967502 0.488824l1.46878 1.47869l1.65716 2.23568l0.462768 2.79252l0.661295 1.37954l1.96775 2.02424l2.71966 1.52158l1.01777 0.280382l2.54396 2.43743l3.21863 2.06643l3.43237 2.87553l3.89376 1.80058l0.989868 -0.0332033l0.729777 0.0996094l3.74089 -1.38554"/>
<path fill="rgb(114,163,255)" d="M-271.478 128.101l1.59882 -5.62977l-0.869737 -5.66021l1.12844 -3.11625l-0.452623 -4.66296l2.20893 -4.6127l0.680434 -7.30815l1.21261 -7.84631l1.18171 -8.44558l-0.276693 -6.18385l-0.786038 -5.32103l-3.78792 -2.16881l-0.327881 -1.5504l-7.48961 -3.793l-6.77459 -4.13171l-2.91427 -2.3286l-1.5647 -3.12086l0.620253 -1.08879l-3.19972 -4.95741l-3.72451 -6.97012l-3.56934 -7.52189l-1.5451 -1.72195l-1.1884 -2.78238l-2.93525 -2.46533l-2.69176 -1.52965l1.22298 -1.68598l-1.83078 -3.60323l1.17594 -2.64564l3.01134 -2.38601l2.01086 -2.82319l-0.817166 -1.65001l-1.44387 1.75469l-2.26289 -1.65578l0.766669 -1.06481l-0.637777 -3.42891l1.32328 -0.569295l0.69519 -2.3535l1.42981 -2.43351l-0.26355 -1.54141l2.06943 -0.810018l2.59722 -1.50359l-0.512343 -1.17249l1.40952 -0.284071l-0.167399 -1.89189l0.885878 -1.36917l1.87413 -0.253174l1.59098 -2.37379l1.44572 -1.98181l-1.39246 -0.899251l0.712714 -2.19256l-0.852214 -3.45589l0.810018 -0.991251l-0.596503 -3.19534l-1.52965 -2.01271l-1.25918 -1.08971l-0.809096 -2.03923l0.933377 -1.00924l-0.957587 -0.258477l-0.704875 -1.24811l-1.8822 -1.05028l-1.65278 0.240261l-0.765747 1.31475l-1.52619 0.948826l-0.824083 0.131429l-0.370538 0.78673l1.80242 2.05052l-1.03137 0.482829l-0.545776 0.559842l-1.75792 0.192532l-0.653917 -2.25666l-0.491821 0.642158l-1.24581 -0.222277l-0.762519 -1.51927l-1.54925 -0.25156l-0.980184 -0.442017l-1.62119 0.00599496l-0.116672 0.819702l-0.433716 -0.57114l-2.05029 -0.837918l-0.767131 -0.793416l0.4351 -0.655762l-0.137193 -0.83492l-1.04751 -0.904324l-1.48653 -0.742689l-1.30023 -0.483521l-0.248562 -1.10539l-0.99056 -0.6749l0.242567 1.09801l-0.753757 0.90271l-0.863512 -1.04774l-1.21353 -0.373305l-0.516493 -0.761597l0.0216742 -1.14989l0.500122 -1.19001l-1.06688 -0.532864l0.865818 -0.729777l-1.30668 -1.19001l-1.76599 -1.52388l-0.831231 -1.27394l-1.5926 -1.18701l-1.89281 -1.70604l0.41942 -0.584744l0.623711 0.568834l0.286377 -0.266547l-0.652764 -1.18171l-1.14735 -0.328803l-0.41942 0.889336l-2.18795 -0.0557997l-1.35971 -0.362006l-1.56216 -0.751682l-2.09918 -0.234267l-1.06988 -0.811401l-1.938 -0.65899l-2.35673 -0.06802l-1.72748 -0.749376l-2.03254 -1.5587l-4.27513 -4.06715l-1.94861 -1.22713l-3.0842 -0.985257l-2.11024 0.275079l-3.0344 1.42128l-1.90388 0.372382l-2.66801 -0.995863l-2.83103 -0.718479l-3.53106 -1.73325l-2.83218 -0.529636l-4.27698 -1.75585l-3.16029 -1.80588l-0.953668 -1.00855l-2.11393 -0.225966l-3.86424 -1.19531l-1.57346 -1.72426l-4.05931 -2.14414l-1.89258 -2.38232l-0.900635 -1.84047l1.26057 -0.368693l-0.388753 -1.07749l0.868584 -0.979953l0.0184461 -1.30645l-1.27417 -1.69682l-0.341255 -1.5029l-1.26656 -1.90618l-3.32907 -3.75587l-3.79853 -2.95047l-1.83793 -2.35512l-3.24238 -1.54279l-0.694729 -0.92254l0.575982 -2.33459l-1.92578 -0.881036l-2.23014 -1.83609l-0.941678 -2.63619l-2.03208 -0.307359l-2.19371 -1.99011l-1.77037 -1.8377l-0.164632 -1.18009l-2.03139 -2.84924l-1.3385 -2.89305l0.0571831 -1.45125l-2.73211 -1.49829l-1.26103 0.164632l-2.15613 -1.04106l-0.605496 1.53449l0.625326 1.81257l0.36754 2.83702l1.29538 1.55732l2.80382 2.60206l0.622559 0.889336l0.574598 0.269775l0.498278 1.29792l0.671441 -0.052802l0.758138 2.43674l1.14735 0.961046l0.804715 1.33735l2.37379 1.92278l1.25388 3.514l1.1213 1.65485l1.04936 1.77014l0.20775 1.99242l1.82179 0.124742l1.51489 1.71665l1.37009 1.68713l-0.0917698 0.676053l-1.5896 1.38807l-0.669135 -0.0182157l-0.996094 -2.29678l-2.47271 -2.15336l-2.72404 -1.82617l-1.93201 -0.959662l0.124742 -2.76439l-0.573215 -2.04683l-1.80035 -1.1711l-2.59653 -1.68575l-0.498969 0.486518l-0.952745 -0.984334l-2.33021 -0.914239l-2.22668 -2.19348l0.27554 -0.285455l1.55594 0.214437l1.40168 -1.41136l0.140882 -1.70374l-2.90827 -2.69499l-2.217 -1.04567l-1.39292 -2.35973l-1.40122 -2.47663l-1.74985 -3.01918l-1.53449 -3.39848l-0.635471 -1.93062l-2.44804 -2.17204l-1.76299 -0.451931l-0.412964 -1.08417l-2.1197 -0.189765l-1.35164 -1.02146l-3.50962 -0.372382l-0.963352 -0.609877l-0.327717 -1.47892h-223.986v192.92l0.780791 -0.174724l-0.46863 1.81674l-0.31216 0.20186v69.6803h406.741l1.78122 -4.12111z
M-603.691 -83.3579L-603.495 -83.6332L-602.919 -84.0033L-602.048 -83.9231L-601.97 -83.0431L-602.418 -82.6691L-603.691 -83.3579z
M-596.052 -80.3809L-597.367 -80.5137L-597.848 -81.3703L-597.994 -81.5211L-596.984 -82.0418L-596.668 -81.7992L-595.577 -80.5504L-595.782 -80.3323L-596.052 -80.3809z
M-594.34 -79.7027L-594.057 -80.1629L-592.198 -80.0014L-592.315 -79.593L-594.34 -79.7027z
M-591.55 -78.5136L-591.984 -78.8207L-592.018 -79.0566L-591.648 -79.3805L-590.305 -79.0215L-589.317 -78.4419L-589.633 -77.9883L-590.899 -77.718L-591.55 -78.5136z
M-589.094 -72.0021L-588.986 -73.058L-589.611 -74.4333L-589.423 -74.8537L-588.767 -75.4698L-589.028 -76.2127L-588.809 -76.565L-588.521 -76.4951L-587.075 -75.8568L-586.404 -75.5292L-585.791 -75.0233L-584.828 -73.6996L-584.919 -73.4902L-586.395 -72.6834L-587.604 -72.0931L-588.155 -71.4612L-589.094 -72.0021"/>
<path fill="rgb(114,163,255)" d="M0 -20.9026l-1.91771 0.716062l-2.10033 1.29584l-3.40424 1.09547l-3.36735 -1.07288l-1.71895 0.0385065l-2.63573 -0.73877l-2.42198 0.0438098l-4.47481 0.659451l-2.62282 1.0904l-3.74089 1.38554l-0.729777 -0.0996094l-0.989868 0.0332033l-3.89376 -1.80058l-3.43237 -2.87553l-3.21863 -2.06643l-2.54396 -2.43743l-1.01777 -0.280382l-2.71966 -1.52158l-1.96775 -2.02424l-0.661295 -1.37954l-0.462768 -2.79252l-1.65716 -2.23568l-1.46878 -1.47869l-0.967502 -0.488824l-0.943061 -0.75099l-0.428643 -1.66915l-0.552694 -0.832614l-1.0987 -0.61887l-2.01686 -1.57899l-1.59052 -0.250177l-0.866971 -1.06458l0.0219047 -0.574829l-1.15173 -0.801717l-0.240492 -0.808404l-0.619792 -2.89605l0.482829 -1.67584l-1.55801 -2.94055l-1.88474 -1.34565l1.66154 -0.717096l1.83032 -2.6521l0.897868 -1.94008l-0.32742 -2.03554l1.05466 -1.86329l0.469225 -3.55642l-0.417806 -3.73305l-0.456082 -1.87828l0.377225 -1.88382l-0.976726 -1.79574l-1.99127 -1.63203l0.162557 -1.59583l0.178236 -1.75054l1.45102 -1.02999l1.23612 -1.96821l-0.24372 -1.27901l1.29884 -2.6657l2.10263 -2.40123l1.27209 -0.608955l1.00001 -2.20317l0.0894638 -2.01271l1.36386 -2.33552l2.51629 -1.37655l2.39478 -3.85779l1.96867 -1.50452l3.51284 -0.416884l2.97698 -2.58247l1.89373 -1.00647l3.15361 -3.15453l-0.943983 -4.69939l1.43511 -3.25045l0.506578 -1.98942l2.43028 -2.55226l3.79 -1.72564l2.80198 -1.5617l2.16851 -3.36043h-263.918l-0.619609 0.723552l-3.90805 1.11968l-2.48309 2.21608l-1.88681 0.242337l-1.91264 1.38738l-0.539781 1.26771l-4.14716 2.45265l-2.12961 1.79804l-1.78052 2.2396l-0.582207 2.68369l0.667521 2.62397l1.2608 3.23154l1.67883 2.6747l0.0209825 1.63203l1.78882 4.38212l-0.118978 2.54788l-0.164171 1.46878l-0.9426 2.30669l-1.1296 0.476834l-1.85914 -0.457926l-0.596503 -1.65762l-1.43557 -0.869046l-2.0021 -3.24883l-1.757 -2.89006l-0.567451 -1.47777l0.775431 -2.50776l-1.05766 -2.07773l-2.94516 -3.16052l-1.47477 -0.57944l-3.81121 1.71434l-0.676053 -0.188151l-1.83309 -1.76276l-2.36872 -0.93453l-4.26983 0.474528l-3.35282 -0.417114l-2.88129 0.25986l-1.60343 0.528022l0.722399 1.0655l-0.0615642 1.53219l0.802409 0.746609l-0.720093 0.496202l-1.40191 -0.556844l-1.41782 0.716404l-2.7411 -0.117825l-2.82019 -1.99634l-3.29564 0.471531l-2.74756 -0.87481l-2.34981 0.265164l-3.17943 0.882419l-3.43883 2.80082l-3.75403 1.62903l-2.06274 1.80358l-0.868815 1.69982l-0.0378144 2.60668l0.188843 1.81349l0.717095 1.28662l0.00599496 0.00599496l-0.0119899 0.0076092l-1.45932 3.30094l-0.660373 2.71943l-0.276231 5.06071l-0.364081 1.84508l0.65507 2.06113l1.1711 1.84208l0.754449 2.92995l2.50753 2.81281l0.881727 2.15497l1.478 1.86007l4.01158 1.00278l1.56124 1.58061l3.31363 -1.05627l2.8806 -0.381605l2.82872 -0.679281l2.37771 -0.647461l2.40308 -1.54141l0.900173 -2.20386l0.309896 -3.17343l0.652995 -1.10447l2.55872 -0.989176l3.99475 -0.876424l3.34521 0.131429l2.29125 -0.31958l0.906168 0.801025l-0.12797 1.81925l-2.03023 2.24559l-0.897868 2.3007l0.696113 0.657376l-0.565837 1.63341l-0.947211 2.94747l-0.957126 -0.970269l-0.79111 0.0627172l0.0138346 0.554769l0.715942 0.0172932l-0.0627168 1.02745l-0.611491 1.63364l0.330187 0.584744l-0.395671 1.35164l0.238417 0.361315l-0.437866 1.90849l-0.741997 1.00255l-0.682278 0.120131l-0.748685 1.30853l1.23151 0.683201l0.326036 -0.563069l1.10815 0.482829l0.392442 0.147339l0.828464 -0.664062l1.08118 -0.0544162l0.350247 0.308282l0.586358 -0.187459l1.75469 0.340793l1.74639 -0.0989177l1.21537 -0.417806l0.44317 -0.423109l1.20361 0.19576l0.904093 0.256863l0.988254 -0.0892334l0.750529 -0.327189l1.72541 0.523641l0.599732 0.0839301l1.15312 0.705566l1.09178 0.847141l1.37355 0.578749l0.994249 1.03875l-0.324884 0.362698l-0.192532 0.843221l0.385525 1.38254l-0.870198 1.28685l-0.405355 1.5202l-0.122437 1.66454l0.202908 0.973728l0.0949979 1.70074l-0.577135 0.370999l-0.353244 1.61612l0.25963 0.997477l-0.772664 0.966349l0.1757 1.02077l0.57921 0.620253l0.956896 2.05283l1.46048 1.5202l1.7736 1.61243l1.35672 1.35533l-0.0774739 0.800103l1.50728 0.170166l0.356934 -0.30759l1.03852 0.928534l1.85822 -0.272773l1.60712 -0.954128l2.29424 -0.761597l1.28939 -1.1296l2.0858 0.222046l-0.140652 0.370999l2.10609 0.129354l1.68114 0.652764l1.23313 1.13628l1.42128 1.04428l1.95184 0.120131l2.83449 -2.6378l1.55524 -0.401896l0.037584 -1.24973l0.696113 -3.19211l2.1665 -1.75308l2.38094 -0.0717098l0.300212 -0.787191l2.95623 0.314968l2.9726 -1.9078l1.47177 -0.844605l1.82894 -1.81949l1.3385 0.231269l0.991251 0.993557l-0.733697 1.27233l-0.107218 0.892334l-2.21769 0.441325l1.23244 1.71434l-0.0461157 1.97582l-1.66638 2.19394l1.42981 2.99727l1.62834 -0.245565l0.848524 -2.7305l-1.17156 -1.32905l-0.190687 -2.86054l4.7047 -1.53518l-0.523641 -1.78098l1.32467 -1.19139l1.35579 2.65417l2.64933 0.0613334l2.4545 2.10725l0.148031 1.25042l3.39202 0.0332033l4.03625 -0.388292l2.16305 1.69151l2.88936 0.467149l2.11924 -1.18032l0.043118 -0.951131l4.67957 -0.22758l4.52715 -0.0528024l-3.20802 1.11599l1.29054 1.78305l3.02148 0.284071l2.86423 1.85799l0.601806 3.02587l1.96867 -0.0853136l1.48008 0.89072l2.48055 1.38946l2.33759 2.46164l0.105835 1.94492l1.42335 0.0899251l2.0247 1.84277l1.49137 1.31544l4.52623 0.756293l0.406047 -0.680895l3.05469 -0.272773l4.06185 1.01546l1.28293 0.415731l2.78168 0.893717l3.99982 3.18842l0.625326 1.5474l1.28708 -0.178236l0.93453 2.08903l2.11901 6.60742l2.02032 0.62325l0.101685 2.60737l-2.84163 3.11003l1.17525 1.13882l6.67798 0.593275l0.136271 3.78677l2.8693 -2.47894l4.75358 1.35764l6.27447 2.30716l1.84393 2.21377l-0.619561 2.09134l4.39319 -1.16418l7.35196 1.99795l5.64407 -0.147339l5.58458 3.12663l4.8246 4.23225l2.91012 1.08971l3.23039 0.151489l1.36894 1.19162l1.28224 4.8103l0.62717 2.28548l-1.50429 6.24542l-1.92186 2.46648l-5.32518 5.25647l-2.40677 4.27075l-2.79667 3.27489l-0.944444 0.0740154l-1.05512 2.77938l0.2677 7.07803l-1.05282 5.823l-0.401435 2.4907l-1.19462 1.49045l-0.669827 5.05056l-3.83035 4.93136l-0.642158 3.90183l-3.05768 1.63687l-0.884725 2.26473l-4.10428 -0.00899224l-5.9429 1.45171l-2.66063 1.68045l-4.23109 1.10377l-4.44599 3.00788l-3.19788 3.74688l-0.549697 2.82088l0.628323 2.08603l-0.705797 3.81628l-0.857286 1.84347l-2.64011 2.07935l-4.19189 6.64846l-3.3217 2.99704l-2.56863 1.76645l-1.72264 3.59378l-2.499 2.15982l-1.63502 2.37425l-4.2666 2.09964l-2.78883 -0.75514l-2.04453 0.404663l-3.49255 -1.62188l-2.56171 0.121053l-2.30139 -2.08926l-0.258477 1.97213l3.18352 2.1476h217.799v-153.125z
M-292.235 -98.25L-292.173 -100.224L-293.866 -101.717L-293.873 -102.151L-290.889 -100.451L-291.541 -97.7658L-292.235 -98.25z
M-298.369 -101.207L-296.593 -101.509L-294.1 -101.396L-293.987 -100.413L-298.104 -99.8089L-298.369 -101.207z
M-294.795 -91.7477L-296.21 -92.8413L-295.388 -95.2389L-294.251 -95.0867L-292.929 -91.9511L-292.909 -89.7591L-293.836 -89.5711L-294.795 -91.7477z
M-291.21 -77.1171L-292.75 -78.0984L-295.185 -78.3509L-296.491 -79.4414L-297.386 -81.5929L-299.521 -81.4458L-303.044 -82.4588L-304.177 -83.2512L-309.101 -83.8367L-310.42 -84.5735L-309.003 -85.5174L-312.709 -85.7108L-315.424 -83.7477L-316.989 -83.695L-317.53 -82.7733L-319.4 -82.3602L-321.016 -82.7183L-319.022 -83.8854L-318.204 -85.2484L-316.496 -86.0884L-314.566 -86.8248L-311.706 -87.1864L-310.791 -87.6014L-307.528 -87.3319L-304.56 -87.2893L-301.012 -86.0023L-299.508 -84.6192L-295.979 -85.046L-294.641 -84.1583L-291.442 -81.8185L-289.09 -80.1147L-287.846 -80.1666L-285.593 -79.3961L-285.868 -78.3326L-283.084 -78.177L-280.228 -76.6308L-280.676 -75.7459L-283.188 -75.2663L-285.731 -75.0787L-288.334 -75.3776L-293.743 -75.0096L-291.21 -77.1171z
M-270.707 -67.0842L-270.898 -68.17L-273.407 -68.8121L-275.19 -68.5501L-277.495 -68.8232L-279.263 -68.1171L-281.286 -69.2941L-280.953 -70.5119L-277.476 -69.9873L-274.625 -69.6841L-273.265 -70.5251L-274.991 -72.1617L-274.962 -73.6047L-277.346 -74.1939L-276.495 -75.237L-274.19 -75.0701L-270.913 -74.4768L-270.441 -75.1208L-267.492 -75.1033L-265.254 -74.1309L-264.259 -74.2258L-263.573 -72.8857L-261.506 -72.961L-261.628 -71.8352L-259.947 -71.6987L-258.09 -70.3127L-259.493 -68.775L-261.29 -69.5967L-263.024 -69.4382L-264.267 -69.618L-264.948 -68.929L-266.398 -68.6962L-266.973 -69.6127L-268.222 -69.0704L-269.734 -66.4835L-270.707 -67.0842z
M-293.783 -67.4771L-295.942 -68.8537L-295.489 -69.7171L-293.901 -69.9804L-293.041 -69.8531L-290.498 -69.5144L-288.491 -68.6071L-287.865 -67.5726L-290.521 -67.5022L-291.668 -66.8709L-293.783 -67.4771z
M-254.027 -69.4146L-253.491 -69.9667L-250.4 -69.9447L-248.469 -69.6119L-247.788 -68.8615L-248.756 -67.909L-251.6 -67.9313L-253.807 -67.7981L-254.027 -69.4146z
M-234.033 -38.1178L-232.938 -39.1567L-233.013 -40.6489L-230.841 -41.14L-230.048 -41.0078L-230.199 -38.1933L-233.353 -37.7778L-234.033 -38.1178"/>
<path fill="rgb(114,163,255)" d="M-304.843 -102.131l-0.853803 -0.12953l-0.0481225 0.927988l0.853804 0.129628l0.0481221 -0.928086"/>
<path fill="rgb(114,163,255)" d="M-321.25 -43.5262l-1.99654 -1.58169l-1.20823 0.15198l0.354523 1.47471l1.89336 1.26016l1.64201 0.106786l-0.685132 -1.41194"/>
<path fill="rgb(114,163,255)" d="M-260.309 62.3584l0.600698 -0.569072l-0.806365 -1.67247l-0.103077 -0.103468l-2.30362 -1.79604l-1.09119 -0.212402l0.0665709 0.724664l-0.034164 0.467557l-0.402841 0.254374l0.961664 0.723883l1.2178 0.745748l0.588399 0.382831l0.260426 0.655946l0.344567 0.229776l0.338808 0.28112l0.362332 -0.112448"/>
</g>
<g stroke-width="0.5px" stroke="rgb(209,179,139)" fill="none">
<path d="M-680 62.5419l0 -1.84387l0.780791 -0.174724l-0.468631 1.81674l-0.31216 0.20186"/>
<path d="M-230.199 -38.1933l-3.15444 0.415556l-0.68 -0.34l1.09556 -1.03889l-0.0755556 -1.49222l2.17222 -0.491111l0.793333 0.132222l-0.151111 2.81444"/>
<path d="M-247.788 -68.8615l-0.967716 0.952489l-2.8438 -0.0223529l-2.20708 0.133239l-0.220113 -1.61654l0.535494 -0.552088l3.09115 0.0220601l1.93094 0.332756l0.68113 0.750434"/>
<path d="M-290.521 -67.5022l-1.14761 0.631348l-2.11435 -0.606262l-2.15974 -1.37651l0.453306 -0.863467l1.58803 -0.263257l0.860441 0.127285l2.54238 0.33871l2.00698 0.907295l0.62598 1.03448l-2.65541 0.0703776"/>
<path d="M-274.19 -75.0701l3.27651 0.59328l0.472437 -0.64394l2.94893 0.0174724l2.23773 0.972401l0.995633 -0.0948779l0.685913 1.3401l2.06691 -0.0753557l-0.121721 1.12585l1.68086 0.13646l1.85666 1.38598l-1.40296 1.53776l-1.79682 -0.82169l-1.73416 0.158423l-1.24269 -0.1798l-0.68113 0.689036l-1.4503 0.232802l-0.574831 -0.91647l-1.24913 0.542327l-1.51209 2.58689l-0.972596 -0.600698l-0.191318 -1.08583l-2.50909 -0.642085l-1.78287 0.261988l-2.30499 -0.273116l-1.76754 0.706118l-2.02338 -1.17699l0.332854 -1.2178l3.477 0.524562l2.85073 0.30318l1.36021 -0.841017l-1.72557 -1.63655l0.0285024 -1.44298l-2.38347 -0.58918l0.850875 -1.04317l2.30489 0.166915"/>
<path d="M-587.604 -72.0931l-0.551782 0.631984l-0.938702 -0.540978l0.108007 -1.05585l-0.624882 -1.37534l0.188096 -0.420391l0.655822 -0.616042l-0.260629 -0.742938l0.219073 -0.352316l0.287224 0.0699267l1.44655 0.638256l0.671009 0.327647l0.612982 0.50592l0.962767 1.3237l-0.0908933 0.209402l-1.47598 0.806782l-1.20866 0.59024"/>
<path d="M-589.633 -77.9883l-1.26627 0.270338l-0.650836 -0.795562l-0.434218 -0.307133l-0.0335467 -0.23596l0.370109 -0.323869l1.34289 0.35904l0.9877 0.579549l-0.315822 0.453598"/>
<path d="M-592.198 -80.0014l-0.117451 0.408416l-2.02444 -0.109707l0.283107 -0.460171l1.85878 0.161462"/>
<path d="M-595.577 -80.5504l-0.204756 0.218167l-0.270376 -0.04862l-1.31493 -0.132789l-0.480269 -0.856611l-0.146767 -0.150847l1.01037 -0.520729l0.315784 0.242684l1.09095 1.24874"/>
<path d="M-601.97 -83.0431l-0.448044 0.374038l-1.27232 -0.68884l0.195462 -0.275287l0.576376 -0.370147l0.870816 0.08024l0.0777089 0.879996"/>
<path d="M-301.012 -86.0023l1.5037 1.38305l3.52864 -0.426755l1.33786 0.887675l3.1993 2.33974l2.35204 1.7039l1.24366 -0.0519291l2.25306 0.770444l-0.275166 1.06357l2.78484 0.155592l2.85551 1.54616l-0.448132 0.884942l-2.51202 0.479563l-2.54277 0.187608l-2.6028 -0.298885l-5.40912 0.367994l2.53252 -2.10752l-1.53962 -0.981284l-2.4353 -0.25252l-1.30535 -1.09051l-0.895484 -2.15144l-2.13495 0.1471l-3.52268 -1.01301l-1.13356 -0.792406l-4.92399 -0.585471l-1.31863 -0.736866l1.41663 -0.943899l-3.70561 -0.193367l-2.71456 1.96306l-1.56529 0.05271l-0.541546 0.921741l-1.86954 0.41309l-1.61644 -0.358135l1.9941 -1.16704l0.818664 -1.36304l1.708 -0.840041l1.92928 -0.736378l2.8602 -0.361551l0.915299 -0.415042l3.26284 0.269504l2.96816 0.042656l3.54826 1.287"/>
<path d="M-292.909 -89.7591l-0.92684 0.187944l-0.959744 -2.17657l-1.41451 -1.09363l0.822082 -2.3976l1.13662 0.152244l1.32222 3.13556l0.0201733 2.19206"/>
<path d="M-293.987 -100.413l-4.11778 0.604444l-0.264444 -1.39778l1.77556 -0.302222l2.49333 0.113333l0.113333 0.982222"/>
<path d="M-290.889 -100.451l-0.651856 2.68532l-0.694582 -0.484198l0.0619933 -1.97446l-1.69252 -1.49283l-0.00748 -0.43384l2.98444 1.7"/>
<path d="M-288.483 -131.499l-3.90805 1.11968l-2.48309 2.21608l-1.88681 0.242337l-1.91264 1.38738l-0.539781 1.26771l-4.14716 2.45265l-2.12961 1.79804l-1.78052 2.2396l-0.582208 2.68369l0.667521 2.62397l1.2608 3.23154l1.67883 2.6747l0.0209825 1.63203l1.78882 4.38212l-0.118978 2.54788l-0.164171 1.46878l-0.9426 2.30669l-1.1296 0.476834l-1.85914 -0.457926l-0.596503 -1.65762l-1.43557 -0.869046l-2.0021 -3.24883l-1.757 -2.89006l-0.567451 -1.47777l0.775431 -2.50776l-1.05766 -2.07773l-2.94516 -3.16052l-1.47477 -0.579441l-3.81121 1.71434l-0.676053 -0.188151l-1.83309 -1.76276l-2.36872 -0.93453l-4.26983 0.474528l-3.35282 -0.417114l-2.88129 0.259861l-1.60343 0.528022l0.722399 1.0655l-0.0615641 1.53219l0.802409 0.746609l-0.720093 0.496202l-1.40191 -0.556844l-1.41782 0.716404l-2.7411 -0.117825l-2.82019 -1.99634l-3.29564 0.47153l-2.74756 -0.87481l-2.34981 0.265164l-3.17943 0.882419l-3.43883 2.80082l-3.75403 1.62903l-2.06274 1.80358l-0.868815 1.69982l-0.0378147 2.60668l0.188843 1.81349l0.717095 1.28662l0.00599501 0.00599501l-0.01199 0.00760905l-1.45932 3.30094l-0.660373 2.71943l-0.276232 5.06071l-0.364081 1.84508l0.65507 2.06113l1.1711 1.84208l0.754449 2.92995l2.50753 2.81281l0.881727 2.15498l1.478 1.86007l4.01158 1.00278l1.56124 1.58061l3.31363 -1.05627l2.8806 -0.381605l2.82872 -0.679281l2.37771 -0.647461l2.40308 -1.54141l0.900174 -2.20386l0.309896 -3.17343l0.652995 -1.10447l2.55872 -0.989176l3.99475 -0.876424l3.34521 0.131429l2.29125 -0.31958l0.906169 0.801025l-0.12797 1.81925l-2.03023 2.24559l-0.897868 2.3007l0.696113 0.657376l-0.565837 1.63341l-0.947211 2.94747l-0.957126 -0.970269l-0.791111 0.062717l0.0138346 0.554769l0.715942 0.0172933l-0.062717 1.02745l-0.611491 1.63364l0.330187 0.584744l-0.395671 1.35164l0.238417 0.361315l-0.437866 1.90849l-0.741998 1.00255l-0.682278 0.120131l-0.748684 1.30853l1.23151 0.6832l0.326036 -0.56307l1.10815 0.482829l0.392442 0.147339l0.828464 -0.664062l1.08118 -0.0544162l0.350247 0.308282l0.586358 -0.187459l1.75469 0.340793l1.74639 -0.0989176l1.21537 -0.417806l0.443169 -0.423109l1.20361 0.19576l0.904093 0.256863l0.988254 -0.0892334l0.750529 -0.327189l1.72541 0.523641l0.599731 0.0839301l1.15312 0.705566l1.09178 0.847141l1.37355 0.578749l0.994249 1.03875l-0.324883 0.362698l-0.192532 0.843221l0.385525 1.38254l-0.870199 1.28685l-0.405355 1.5202l-0.122437 1.66454l0.202908 0.973728l0.0949978 1.70074l-0.577135 0.370999l-0.353244 1.61612l0.25963 0.997477l-0.772664 0.966349l0.1757 1.02077l0.57921 0.620253l0.956896 2.05283l1.46048 1.5202l1.7736 1.61243l1.35672 1.35533l-0.077474 0.800103l1.50728 0.170166l0.356934 -0.30759l1.03852 0.928535l1.85822 -0.272773l1.60712 -0.954129l2.29424 -0.761597l1.28939 -1.1296l2.0858 0.222046l-0.140652 0.370999l2.10609 0.129354l1.68114 0.652764l1.23313 1.13628l1.42128 1.04428l1.95184 0.120131l2.83449 -2.6378l1.55524 -0.401896l0.0375841 -1.24973l0.696113 -3.19211l2.1665 -1.75308l2.38094 -0.0717095l0.300212 -0.787191l2.95623 0.314969l2.9726 -1.9078l1.47177 -0.844604l1.82894 -1.81949l1.3385 0.231269l0.991252 0.993557l-0.733697 1.27233l-0.107218 0.892334l-2.21769 0.441325l1.23244 1.71434l-0.0461155 1.97582l-1.66638 2.19394l1.42981 2.99727l1.62834 -0.245565l0.848524 -2.7305l-1.17156 -1.32905l-0.190687 -2.86054l4.7047 -1.53518l-0.523641 -1.78098l1.32467 -1.19139l1.35579 2.65417l2.64933 0.0613336l2.45449 2.10725l0.148031 1.25042l3.39202 0.0332031l4.03625 -0.388292l2.16305 1.69151l2.88936 0.46715l2.11924 -1.18032l0.0431179 -0.951131l4.67957 -0.22758l4.52715 -0.0528022l-3.20802 1.11599l1.29054 1.78305l3.02148 0.284071l2.86423 1.85799l0.601807 3.02587l1.96867 -0.0853136l1.48008 0.89072l2.48055 1.38946l2.33759 2.46164l0.105835 1.94492l1.42335 0.0899251l2.0247 1.84277l1.49137 1.31544l4.52623 0.756293l0.406047 -0.680895l3.05469 -0.272773l4.06185 1.01546l1.28293 0.415731l2.78168 0.893717l3.99982 3.18842l0.625326 1.5474l1.28708 -0.178236l0.93453 2.08903l2.119 6.60742l2.02032 0.62325l0.101685 2.60737l-2.84163 3.11003l1.17525 1.13882l6.67798 0.593275l0.136271 3.78677l2.8693 -2.47894l4.75358 1.35764l6.27447 2.30716l1.84393 2.21377l-0.619561 2.09134l4.39319 -1.16418l7.35196 1.99795l5.64407 -0.147339l5.58458 3.12663l4.8246 4.23225l2.91012 1.08971l3.23039 0.151489l1.36894 1.19162l1.28224 4.8103l0.62717 2.28548l-1.50429 6.24542l-1.92186 2.46648l-5.32518 5.25647l-2.40677 4.27075l-2.79667 3.27489l-0.944444 0.0740153l-1.05512 2.77938l0.2677 7.07803l-1.05282 5.823l-0.401435 2.4907l-1.19462 1.49045l-0.669827 5.05056l-3.83035 4.93136l-0.642158 3.90183l-3.05769 1.63687l-0.884725 2.26473l-4.10428 -0.00899251l-5.9429 1.45171l-2.66063 1.68045l-4.23109 1.10377l-4.44599 3.00788l-3.19788 3.74688l-0.549696 2.82088l0.628323 2.08603l-0.705797 3.81628l-0.857286 1.84347l-2.64011 2.07935l-4.19189 6.64846l-3.3217 2.99704l-2.56863 1.76645l-1.72264 3.59378l-2.499 2.15982l-1.63502 2.37425l-4.2666 2.09964l-2.78883 -0.755141l-2.04453 0.404663l-3.49255 -1.62188l-2.56171 0.121053l-2.30139 -2.08926l-0.258477 1.97213"/>
<path d="M-271.478 128.101l1.59882 -5.62977l-0.869737 -5.66021l1.12845 -3.11625l-0.452623 -4.66296l2.20893 -4.6127l0.680433 -7.30815l1.21261 -7.84631l1.18171 -8.44558l-0.276693 -6.18385l-0.786038 -5.32103l-3.78792 -2.16881l-0.327881 -1.5504l-7.48961 -3.793l-6.77459 -4.13171l-2.91427 -2.3286l-1.5647 -3.12086l0.620253 -1.08879l-3.19972 -4.95741l-3.72451 -6.97012l-3.56934 -7.52189l-1.5451 -1.72195l-1.1884 -2.78238l-2.93525 -2.46533l-2.69176 -1.52965l1.22298 -1.68598l-1.83078 -3.60323l1.17594 -2.64564l3.01134 -2.38601l2.01086 -2.82319l-0.817166 -1.65001l-1.44387 1.75469l-2.26289 -1.65578l0.766669 -1.06481l-0.637777 -3.42891l1.32328 -0.569295l0.69519 -2.3535l1.42981 -2.43351l-0.26355 -1.54141l2.06943 -0.810018l2.59722 -1.50359l-0.512343 -1.17249l1.40952 -0.284071l-0.167399 -1.89189l0.885878 -1.36917l1.87413 -0.253174l1.59098 -2.37379l1.44572 -1.98181l-1.39246 -0.899251l0.712714 -2.19256l-0.852214 -3.45589l0.810018 -0.991252l-0.596503 -3.19534l-1.52965 -2.01271l-1.25918 -1.08971l-0.809096 -2.03923l0.933377 -1.00924l-0.957587 -0.258477l-0.704875 -1.24811l-1.8822 -1.05028l-1.65278 0.240262l-0.765747 1.31475l-1.52619 0.948825l-0.824083 0.131429l-0.370538 0.78673l1.80242 2.05052l-1.03137 0.482829l-0.545776 0.559842l-1.75792 0.192532l-0.653917 -2.25666l-0.491821 0.642158l-1.24581 -0.222276l-0.762519 -1.51927l-1.54925 -0.25156l-0.980184 -0.442017l-1.62119 0.00599501l-0.116672 0.819702l-0.433716 -0.57114l-2.05029 -0.837918l-0.767131 -0.793416l0.435099 -0.655762l-0.137193 -0.83492l-1.04751 -0.904324l-1.48653 -0.742689l-1.30023 -0.483521l-0.248562 -1.10539l-0.99056 -0.6749l0.242567 1.09801l-0.753757 0.90271l-0.863512 -1.04774l-1.21353 -0.373305l-0.516493 -0.761597l0.0216743 -1.14989l0.500122 -1.19001l-1.06688 -0.532864l0.865818 -0.729777l-1.30668 -1.19001l-1.76599 -1.52389l-0.831231 -1.27394l-1.5926 -1.18701l-1.89281 -1.70604l0.41942 -0.584744l0.623711 0.568834l0.286377 -0.266547l-0.652764 -1.18171l-1.14735 -0.328803l-0.41942 0.889336l-2.18795 -0.0557997l-1.35971 -0.362006l-1.56216 -0.751682l-2.09918 -0.234266l-1.06988 -0.811401l-1.938 -0.65899l-2.35673 -0.0680203l-1.72748 -0.749376l-2.03254 -1.5587l-4.27513 -4.06715l-1.94861 -1.22713l-3.0842 -0.985257l-2.11024 0.275079l-3.0344 1.42128l-1.90388 0.372382l-2.66801 -0.995863l-2.83103 -0.718479l-3.53106 -1.73325l-2.83218 -0.529636l-4.27698 -1.75585l-3.16029 -1.80588l-0.953668 -1.00854l-2.11393 -0.225966l-3.86424 -1.19531l-1.57346 -1.72426l-4.05931 -2.14414l-1.89258 -2.38232l-0.900635 -1.84047l1.26057 -0.368693l-0.388753 -1.07749l0.868585 -0.979953l0.0184462 -1.30645l-1.27417 -1.69682l-0.341254 -1.5029l-1.26656 -1.90618l-3.32907 -3.75587l-3.79853 -2.95047l-1.83793 -2.35512l-3.24238 -1.54279l-0.694729 -0.92254l0.575982 -2.33459l-1.92578 -0.881036l-2.23014 -1.83609l-0.941678 -2.63619l-2.03208 -0.307359l-2.19371 -1.99011l-1.77037 -1.8377l-0.164632 -1.18009l-2.03139 -2.84924l-1.3385 -2.89305l0.0571832 -1.45125l-2.73211 -1.49829l-1.26103 0.164632l-2.15613 -1.04106l-0.605496 1.53449l0.625326 1.81257l0.36754 2.83702l1.29538 1.55732l2.80382 2.60206l0.622559 0.889336l0.574599 0.269775l0.498277 1.29792l0.671441 -0.0528022l0.758138 2.43674l1.14735 0.961046l0.804715 1.33735l2.37379 1.92278l1.25388 3.514l1.1213 1.65485l1.04936 1.77014l0.20775 1.99242l1.82179 0.124742l1.51489 1.71665l1.37009 1.68713l-0.0917697 0.676053l-1.5896 1.38808l-0.669135 -0.0182156l-0.996094 -2.29678l-2.47271 -2.15336l-2.72404 -1.82617l-1.93201 -0.959663l0.124742 -2.76439l-0.573215 -2.04683l-1.80035 -1.1711l-2.59653 -1.68575l-0.498969 0.486518l-0.952745 -0.984334l-2.33021 -0.914239l-2.22668 -2.19348l0.27554 -0.285455l1.55594 0.214437l1.40168 -1.41136l0.140883 -1.70374l-2.90827 -2.69499l-2.217 -1.04567l-1.39292 -2.35973l-1.40122 -2.47663l-1.74985 -3.01918l-1.53449 -3.39848l-0.635471 -1.93062l-2.44804 -2.17204l-1.76299 -0.451931l-0.412964 -1.08417l-2.1197 -0.189765l-1.35164 -1.02146l-3.50962 -0.372382l-0.963352 -0.609877"/>
<path d="M-320.565 -42.1143l-0.685132 -1.41194l-1.99654 -1.58169l-1.20823 0.15198l0.354523 1.47471l1.89336 1.26016l1.64201 0.106786"/>
<path d="M-304.891 -101.203l0.0481222 -0.928086l-0.853804 -0.12953l-0.0481222 0.927988l0.853804 0.129627"/>
<path d="M-262.203 60.9212l0.588399 0.38283l0.260426 0.655946l0.344567 0.229776l0.338808 0.28112l0.362332 -0.112448l0.600698 -0.569072l-0.806365 -1.67247l-0.103077 -0.103468l-2.30362 -1.79604l-1.09119 -0.212402l0.0665707 0.724664l-0.0341639 0.467557l-0.402841 0.254374l0.961664 0.723883l1.2178 0.745748"/>
<path d="M-1.91771 -20.1866l-2.10033 1.29584l-3.40424 1.09547l-3.36735 -1.07288l-1.71895 0.0385064l-2.63573 -0.73877l-2.42198 0.0438097l-4.47481 0.659451l-2.62282 1.0904l-3.74089 1.38554l-0.729777 -0.0996094l-0.989868 0.0332031l-3.89376 -1.80058l-3.43237 -2.87553l-3.21863 -2.06643l-2.54396 -2.43743l-1.01777 -0.280382l-2.71966 -1.52158l-1.96775 -2.02424l-0.661296 -1.37954l-0.462769 -2.79252l-1.65716 -2.23568l-1.46878 -1.47869l-0.967502 -0.488824l-0.943061 -0.75099l-0.428643 -1.66915l-0.552694 -0.832614l-1.0987 -0.618869l-2.01686 -1.57899l-1.59052 -0.250176l-0.86697 -1.06458l0.0219048 -0.574829l-1.15173 -0.801717l-0.240492 -0.808404l-0.619792 -2.89605l0.482829 -1.67584l-1.55801 -2.94055l-1.88474 -1.34565l1.66154 -0.717095l1.83032 -2.6521l0.897868 -1.94008l-0.32742 -2.03554l1.05466 -1.86329l0.469225 -3.55642l-0.417806 -3.73305l-0.456082 -1.87828l0.377224 -1.88382l-0.976725 -1.79574l-1.99127 -1.63203l0.162557 -1.59583l0.178236 -1.75054l1.45102 -1.02999l1.23612 -1.96821l-0.24372 -1.27901l1.29884 -2.6657l2.10263 -2.40123l1.27209 -0.608955l1.00001 -2.20317l0.089464 -2.01271l1.36386 -2.33552l2.51629 -1.37655l2.39478 -3.85779l1.96867 -1.50452l3.51284 -0.416884l2.97698 -2.58247l1.89373 -1.00647l3.15361 -3.15453l-0.943983 -4.6994l1.43511 -3.25045l0.506578 -1.98942l2.43028 -2.55226l3.79 -1.72564l2.80197 -1.5617"/>
</g>
</g>
</g>
</g>
<g inkscape:groupmode="layer" inkscape:label="Coastline" id="Coastline"><title>Coastline</title>
<g>
<g id="drawing" transform="translate(680,-132.222)">
<g stroke-width="0.5px" stroke="rgb(0,0,0)" fill="none">
<path d="M-680 62.5419l0 -1.84387l0.780791 -0.174724l-0.468631 1.81674l-0.31216 0.20186"/>
<path d="M-230.199 -38.1933l-3.15444 0.415556l-0.68 -0.34l1.09556 -1.03889l-0.0755556 -1.49222l2.17222 -0.491111l0.793333 0.132222l-0.151111 2.81444"/>
<path d="M-247.788 -68.8615l-0.967716 0.952489l-2.8438 -0.0223529l-2.20708 0.133239l-0.220113 -1.61654l0.535494 -0.552088l3.09115 0.0220601l1.93094 0.332756l0.68113 0.750434"/>
<path d="M-290.521 -67.5022l-1.14761 0.631348l-2.11435 -0.606262l-2.15974 -1.37651l0.453306 -0.863467l1.58803 -0.263257l0.860441 0.127285l2.54238 0.33871l2.00698 0.907295l0.62598 1.03448l-2.65541 0.0703776"/>
<path d="M-274.19 -75.0701l3.27651 0.59328l0.472437 -0.64394l2.94893 0.0174724l2.23773 0.972401l0.995633 -0.0948779l0.685913 1.3401l2.06691 -0.0753557l-0.121721 1.12585l1.68086 0.13646l1.85666 1.38598l-1.40296 1.53776l-1.79682 -0.82169l-1.73416 0.158423l-1.24269 -0.1798l-0.68113 0.689036l-1.4503 0.232802l-0.574831 -0.91647l-1.24913 0.542327l-1.51209 2.58689l-0.972596 -0.600698l-0.191318 -1.08583l-2.50909 -0.642085l-1.78287 0.261988l-2.30499 -0.273116l-1.76754 0.706118l-2.02338 -1.17699l0.332854 -1.2178l3.477 0.524562l2.85073 0.30318l1.36021 -0.841017l-1.72557 -1.63655l0.0285024 -1.44298l-2.38347 -0.58918l0.850875 -1.04317l2.30489 0.166915"/>
<path d="M-587.604 -72.0931l-0.551782 0.631984l-0.938702 -0.540978l0.108007 -1.05585l-0.624882 -1.37534l0.188096 -0.420391l0.655822 -0.616042l-0.260629 -0.742938l0.219073 -0.352316l0.287224 0.0699267l1.44655 0.638256l0.671009 0.327647l0.612982 0.50592l0.962767 1.3237l-0.0908933 0.209402l-1.47598 0.806782l-1.20866 0.59024"/>
<path d="M-589.633 -77.9883l-1.26627 0.270338l-0.650836 -0.795562l-0.434218 -0.307133l-0.0335467 -0.23596l0.370109 -0.323869l1.34289 0.35904l0.9877 0.579549l-0.315822 0.453598"/>
<path d="M-592.198 -80.0014l-0.117451 0.408416l-2.02444 -0.109707l0.283107 -0.460171l1.85878 0.161462"/>
<path d="M-595.577 -80.5504l-0.204756 0.218167l-0.270376 -0.04862l-1.31493 -0.132789l-0.480269 -0.856611l-0.146767 -0.150847l1.01037 -0.520729l0.315784 0.242684l1.09095 1.24874"/>
<path d="M-601.97 -83.0431l-0.448044 0.374038l-1.27232 -0.68884l0.195462 -0.275287l0.576376 -0.370147l0.870816 0.08024l0.0777089 0.879996"/>
<path d="M-301.012 -86.0023l1.5037 1.38305l3.52864 -0.426755l1.33786 0.887675l3.1993 2.33974l2.35204 1.7039l1.24366 -0.0519291l2.25306 0.770444l-0.275166 1.06357l2.78484 0.155592l2.85551 1.54616l-0.448132 0.884942l-2.51202 0.479563l-2.54277 0.187608l-2.6028 -0.298885l-5.40912 0.367994l2.53252 -2.10752l-1.53962 -0.981284l-2.4353 -0.25252l-1.30535 -1.09051l-0.895484 -2.15144l-2.13495 0.1471l-3.52268 -1.01301l-1.13356 -0.792406l-4.92399 -0.585471l-1.31863 -0.736866l1.41663 -0.943899l-3.70561 -0.193367l-2.71456 1.96306l-1.56529 0.05271l-0.541546 0.921741l-1.86954 0.41309l-1.61644 -0.358135l1.9941 -1.16704l0.818664 -1.36304l1.708 -0.840041l1.92928 -0.736378l2.8602 -0.361551l0.915299 -0.415042l3.26284 0.269504l2.96816 0.042656l3.54826 1.287"/>
<path d="M-292.909 -89.7591l-0.92684 0.187944l-0.959744 -2.17657l-1.41451 -1.09363l0.822082 -2.3976l1.13662 0.152244l1.32222 3.13556l0.0201733 2.19206"/>
<path d="M-293.987 -100.413l-4.11778 0.604444l-0.264444 -1.39778l1.77556 -0.302222l2.49333 0.113333l0.113333 0.982222"/>
<path d="M-290.889 -100.451l-0.651856 2.68532l-0.694582 -0.484198l0.0619933 -1.97446l-1.69252 -1.49283l-0.00748 -0.43384l2.98444 1.7"/>
<path d="M-288.483 -131.499l-3.90805 1.11968l-2.48309 2.21608l-1.88681 0.242337l-1.91264 1.38738l-0.539781 1.26771l-4.14716 2.45265l-2.12961 1.79804l-1.78052 2.2396l-0.582208 2.68369l0.667521 2.62397l1.2608 3.23154l1.67883 2.6747l0.0209825 1.63203l1.78882 4.38212l-0.118978 2.54788l-0.164171 1.46878l-0.9426 2.30669l-1.1296 0.476834l-1.85914 -0.457926l-0.596503 -1.65762l-1.43557 -0.869046l-2.0021 -3.24883l-1.757 -2.89006l-0.567451 -1.47777l0.775431 -2.50776l-1.05766 -2.07773l-2.94516 -3.16052l-1.47477 -0.579441l-3.81121 1.71434l-0.676053 -0.188151l-1.83309 -1.76276l-2.36872 -0.93453l-4.26983 0.474528l-3.35282 -0.417114l-2.88129 0.259861l-1.60343 0.528022l0.722399 1.0655l-0.0615641 1.53219l0.802409 0.746609l-0.720093 0.496202l-1.40191 -0.556844l-1.41782 0.716404l-2.7411 -0.117825l-2.82019 -1.99634l-3.29564 0.47153l-2.74756 -0.87481l-2.34981 0.265164l-3.17943 0.882419l-3.43883 2.80082l-3.75403 1.62903l-2.06274 1.80358l-0.868815 1.69982l-0.0378147 2.60668l0.188843 1.81349l0.717095 1.28662l0.00599501 0.00599501l-0.01199 0.00760905l-1.45932 3.30094l-0.660373 2.71943l-0.276232 5.06071l-0.364081 1.84508l0.65507 2.06113l1.1711 1.84208l0.754449 2.92995l2.50753 2.81281l0.881727 2.15498l1.478 1.86007l4.01158 1.00278l1.56124 1.58061l3.31363 -1.05627l2.8806 -0.381605l2.82872 -0.679281l2.37771 -0.647461l2.40308 -1.54141l0.900174 -2.20386l0.309896 -3.17343l0.652995 -1.10447l2.55872 -0.989176l3.99475 -0.876424l3.34521 0.131429l2.29125 -0.31958l0.906169 0.801025l-0.12797 1.81925l-2.03023 2.24559l-0.897868 2.3007l0.696113 0.657376l-0.565837 1.63341l-0.947211 2.94747l-0.957126 -0.970269l-0.791111 0.062717l0.0138346 0.554769l0.715942 0.0172933l-0.062717 1.02745l-0.611491 1.63364l0.330187 0.584744l-0.395671 1.35164l0.238417 0.361315l-0.437866 1.90849l-0.741998 1.00255l-0.682278 0.120131l-0.748684 1.30853l1.23151 0.6832l0.326036 -0.56307l1.10815 0.482829l0.392442 0.147339l0.828464 -0.664062l1.08118 -0.0544162l0.350247 0.308282l0.586358 -0.187459l1.75469 0.340793l1.74639 -0.0989176l1.21537 -0.417806l0.443169 -0.423109l1.20361 0.19576l0.904093 0.256863l0.988254 -0.0892334l0.750529 -0.327189l1.72541 0.523641l0.599731 0.0839301l1.15312 0.705566l1.09178 0.847141l1.37355 0.578749l0.994249 1.03875l-0.324883 0.362698l-0.192532 0.843221l0.385525 1.38254l-0.870199 1.28685l-0.405355 1.5202l-0.122437 1.66454l0.202908 0.973728l0.0949978 1.70074l-0.577135 0.370999l-0.353244 1.61612l0.25963 0.997477l-0.772664 0.966349l0.1757 1.02077l0.57921 0.620253l0.956896 2.05283l1.46048 1.5202l1.7736 1.61243l1.35672 1.35533l-0.077474 0.800103l1.50728 0.170166l0.356934 -0.30759l1.03852 0.928535l1.85822 -0.272773l1.60712 -0.954129l2.29424 -0.761597l1.28939 -1.1296l2.0858 0.222046l-0.140652 0.370999l2.10609 0.129354l1.68114 0.652764l1.23313 1.13628l1.42128 1.04428l1.95184 0.120131l2.83449 -2.6378l1.55524 -0.401896l0.0375841 -1.24973l0.696113 -3.19211l2.1665 -1.75308l2.38094 -0.0717095l0.300212 -0.787191l2.95623 0.314969l2.9726 -1.9078l1.47177 -0.844604l1.82894 -1.81949l1.3385 0.231269l0.991252 0.993557l-0.733697 1.27233l-0.107218 0.892334l-2.21769 0.441325l1.23244 1.71434l-0.0461155 1.97582l-1.66638 2.19394l1.42981 2.99727l1.62834 -0.245565l0.848524 -2.7305l-1.17156 -1.32905l-0.190687 -2.86054l4.7047 -1.53518l-0.523641 -1.78098l1.32467 -1.19139l1.35579 2.65417l2.64933 0.0613336l2.45449 2.10725l0.148031 1.25042l3.39202 0.0332031l4.03625 -0.388292l2.16305 1.69151l2.88936 0.46715l2.11924 -1.18032l0.0431179 -0.951131l4.67957 -0.22758l4.52715 -0.0528022l-3.20802 1.11599l1.29054 1.78305l3.02148 0.284071l2.86423 1.85799l0.601807 3.02587l1.96867 -0.0853136l1.48008 0.89072l2.48055 1.38946l2.33759 2.46164l0.105835 1.94492l1.42335 0.0899251l2.0247 1.84277l1.49137 1.31544l4.52623 0.756293l0.406047 -0.680895l3.05469 -0.272773l4.06185 1.01546l1.28293 0.415731l2.78168 0.893717l3.99982 3.18842l0.625326 1.5474l1.28708 -0.178236l0.93453 2.08903l2.119 6.60742l2.02032 0.62325l0.101685 2.60737l-2.84163 3.11003l1.17525 1.13882l6.67798 0.593275l0.136271 3.78677l2.8693 -2.47894l4.75358 1.35764l6.27447 2.30716l1.84393 2.21377l-0.619561 2.09134l4.39319 -1.16418l7.35196 1.99795l5.64407 -0.147339l5.58458 3.12663l4.8246 4.23225l2.91012 1.08971l3.23039 0.151489l1.36894 1.19162l1.28224 4.8103l0.62717 2.28548l-1.50429 6.24542l-1.92186 2.46648l-5.32518 5.25647l-2.40677 4.27075l-2.79667 3.27489l-0.944444 0.0740153l-1.05512 2.77938l0.2677 7.07803l-1.05282 5.823l-0.401435 2.4907l-1.19462 1.49045l-0.669827 5.05056l-3.83035 4.93136l-0.642158 3.90183l-3.05769 1.63687l-0.884725 2.26473l-4.10428 -0.00899251l-5.9429 1.45171l-2.66063 1.68045l-4.23109 1.10377l-4.44599 3.00788l-3.19788 3.74688l-0.549696 2.82088l0.628323 2.08603l-0.705797 3.81628l-0.857286 1.84347l-2.64011 2.07935l-4.19189 6.64846l-3.3217 2.99704l-2.56863 1.76645l-1.72264 3.59378l-2.499 2.15982l-1.63502 2.37425l-4.2666 2.09964l-2.78883 -0.755141l-2.04453 0.404663l-3.49255 -1.62188l-2.56171 0.121053l-2.30139 -2.08926l-0.258477 1.97213"/>
<path d="M-271.478 128.101l1.59882 -5.62977l-0.869737 -5.66021l1.12845 -3.11625l-0.452623 -4.66296l2.20893 -4.6127l0.680433 -7.30815l1.21261 -7.84631l1.18171 -8.44558l-0.276693 -6.18385l-0.786038 -5.32103l-3.78792 -2.16881l-0.327881 -1.5504l-7.48961 -3.793l-6.77459 -4.13171l-2.91427 -2.3286l-1.5647 -3.12086l0.620253 -1.08879l-3.19972 -4.95741l-3.72451 -6.97012l-3.56934 -7.52189l-1.5451 -1.72195l-1.1884 -2.78238l-2.93525 -2.46533l-2.69176 -1.52965l1.22298 -1.68598l-1.83078 -3.60323l1.17594 -2.64564l3.01134 -2.38601l2.01086 -2.82319l-0.817166 -1.65001l-1.44387 1.75469l-2.26289 -1.65578l0.766669 -1.06481l-0.637777 -3.42891l1.32328 -0.569295l0.69519 -2.3535l1.42981 -2.43351l-0.26355 -1.54141l2.06943 -0.810018l2.59722 -1.50359l-0.512343 -1.17249l1.40952 -0.284071l-0.167399 -1.89189l0.885878 -1.36917l1.87413 -0.253174l1.59098 -2.37379l1.44572 -1.98181l-1.39246 -0.899251l0.712714 -2.19256l-0.852214 -3.45589l0.810018 -0.991252l-0.596503 -3.19534l-1.52965 -2.01271l-1.25918 -1.08971l-0.809096 -2.03923l0.933377 -1.00924l-0.957587 -0.258477l-0.704875 -1.24811l-1.8822 -1.05028l-1.65278 0.240262l-0.765747 1.31475l-1.52619 0.948825l-0.824083 0.131429l-0.370538 0.78673l1.80242 2.05052l-1.03137 0.482829l-0.545776 0.559842l-1.75792 0.192532l-0.653917 -2.25666l-0.491821 0.642158l-1.24581 -0.222276l-0.762519 -1.51927l-1.54925 -0.25156l-0.980184 -0.442017l-1.62119 0.00599501l-0.116672 0.819702l-0.433716 -0.57114l-2.05029 -0.837918l-0.767131 -0.793416l0.435099 -0.655762l-0.137193 -0.83492l-1.04751 -0.904324l-1.48653 -0.742689l-1.30023 -0.483521l-0.248562 -1.10539l-0.99056 -0.6749l0.242567 1.09801l-0.753757 0.90271l-0.863512 -1.04774l-1.21353 -0.373305l-0.516493 -0.761597l0.0216743 -1.14989l0.500122 -1.19001l-1.06688 -0.532864l0.865818 -0.729777l-1.30668 -1.19001l-1.76599 -1.52389l-0.831231 -1.27394l-1.5926 -1.18701l-1.89281 -1.70604l0.41942 -0.584744l0.623711 0.568834l0.286377 -0.266547l-0.652764 -1.18171l-1.14735 -0.328803l-0.41942 0.889336l-2.18795 -0.0557997l-1.35971 -0.362006l-1.56216 -0.751682l-2.09918 -0.234266l-1.06988 -0.811401l-1.938 -0.65899l-2.35673 -0.0680203l-1.72748 -0.749376l-2.03254 -1.5587l-4.27513 -4.06715l-1.94861 -1.22713l-3.0842 -0.985257l-2.11024 0.275079l-3.0344 1.42128l-1.90388 0.372382l-2.66801 -0.995863l-2.83103 -0.718479l-3.53106 -1.73325l-2.83218 -0.529636l-4.27698 -1.75585l-3.16029 -1.80588l-0.953668 -1.00854l-2.11393 -0.225966l-3.86424 -1.19531l-1.57346 -1.72426l-4.05931 -2.14414l-1.89258 -2.38232l-0.900635 -1.84047l1.26057 -0.368693l-0.388753 -1.07749l0.868585 -0.979953l0.0184462 -1.30645l-1.27417 -1.69682l-0.341254 -1.5029l-1.26656 -1.90618l-3.32907 -3.75587l-3.79853 -2.95047l-1.83793 -2.35512l-3.24238 -1.54279l-0.694729 -0.92254l0.575982 -2.33459l-1.92578 -0.881036l-2.23014 -1.83609l-0.941678 -2.63619l-2.03208 -0.307359l-2.19371 -1.99011l-1.77037 -1.8377l-0.164632 -1.18009l-2.03139 -2.84924l-1.3385 -2.89305l0.0571832 -1.45125l-2.73211 -1.49829l-1.26103 0.164632l-2.15613 -1.04106l-0.605496 1.53449l0.625326 1.81257l0.36754 2.83702l1.29538 1.55732l2.80382 2.60206l0.622559 0.889336l0.574599 0.269775l0.498277 1.29792l0.671441 -0.0528022l0.758138 2.43674l1.14735 0.961046l0.804715 1.33735l2.37379 1.92278l1.25388 3.514l1.1213 1.65485l1.04936 1.77014l0.20775 1.99242l1.82179 0.124742l1.51489 1.71665l1.37009 1.68713l-0.0917697 0.676053l-1.5896 1.38808l-0.669135 -0.0182156l-0.996094 -2.29678l-2.47271 -2.15336l-2.72404 -1.82617l-1.93201 -0.959663l0.124742 -2.76439l-0.573215 -2.04683l-1.80035 -1.1711l-2.59653 -1.68575l-0.498969 0.486518l-0.952745 -0.984334l-2.33021 -0.914239l-2.22668 -2.19348l0.27554 -0.285455l1.55594 0.214437l1.40168 -1.41136l0.140883 -1.70374l-2.90827 -2.69499l-2.217 -1.04567l-1.39292 -2.35973l-1.40122 -2.47663l-1.74985 -3.01918l-1.53449 -3.39848l-0.635471 -1.93062l-2.44804 -2.17204l-1.76299 -0.451931l-0.412964 -1.08417l-2.1197 -0.189765l-1.35164 -1.02146l-3.50962 -0.372382l-0.963352 -0.609877"/>
<path d="M-320.565 -42.1143l-0.685132 -1.41194l-1.99654 -1.58169l-1.20823 0.15198l0.354523 1.47471l1.89336 1.26016l1.64201 0.106786"/>
<path d="M-304.891 -101.203l0.0481222 -0.928086l-0.853804 -0.12953l-0.0481222 0.927988l0.853804 0.129627"/>
<path d="M-262.203 60.9212l0.588399 0.38283l0.260426 0.655946l0.344567 0.229776l0.338808 0.28112l0.362332 -0.112448l0.600698 -0.569072l-0.806365 -1.67247l-0.103077 -0.103468l-2.30362 -1.79604l-1.09119 -0.212402l0.0665707 0.724664l-0.0341639 0.467557l-0.402841 0.254374l0.961664 0.723883l1.2178 0.745748"/>
<path d="M-1.91771 -20.1866l-2.10033 1.29584l-3.40424 1.09547l-3.36735 -1.07288l-1.71895 0.0385064l-2.63573 -0.73877l-2.42198 0.0438097l-4.47481 0.659451l-2.62282 1.0904l-3.74089 1.38554l-0.729777 -0.0996094l-0.989868 0.0332031l-3.89376 -1.80058l-3.43237 -2.87553l-3.21863 -2.06643l-2.54396 -2.43743l-1.01777 -0.280382l-2.71966 -1.52158l-1.96775 -2.02424l-0.661296 -1.37954l-0.462769 -2.79252l-1.65716 -2.23568l-1.46878 -1.47869l-0.967502 -0.488824l-0.943061 -0.75099l-0.428643 -1.66915l-0.552694 -0.832614l-1.0987 -0.618869l-2.01686 -1.57899l-1.59052 -0.250176l-0.86697 -1.06458l0.0219048 -0.574829l-1.15173 -0.801717l-0.240492 -0.808404l-0.619792 -2.89605l0.482829 -1.67584l-1.55801 -2.94055l-1.88474 -1.34565l1.66154 -0.717095l1.83032 -2.6521l0.897868 -1.94008l-0.32742 -2.03554l1.05466 -1.86329l0.469225 -3.55642l-0.417806 -3.73305l-0.456082 -1.87828l0.377224 -1.88382l-0.976725 -1.79574l-1.99127 -1.63203l0.162557 -1.59583l0.178236 -1.75054l1.45102 -1.02999l1.23612 -1.96821l-0.24372 -1.27901l1.29884 -2.6657l2.10263 -2.40123l1.27209 -0.608955l1.00001 -2.20317l0.089464 -2.01271l1.36386 -2.33552l2.51629 -1.37655l2.39478 -3.85779l1.96867 -1.50452l3.51284 -0.416884l2.97698 -2.58247l1.89373 -1.00647l3.15361 -3.15453l-0.943983 -4.6994l1.43511 -3.25045l0.506578 -1.98942l2.43028 -2.55226l3.79 -1.72564l2.80197 -1.5617"/>
</g>
</g>
</g>
</g>
<g inkscape:groupmode="layer" inkscape:label="Coastline" id="Coastline"><title>Coastline</title>
<g>
<g id="drawing" transform="translate(680,-132.222)">
<g stroke-width="1px" stroke="rgb(51,51,51)" fill="none">
<path d="M-680 132.222l0 -264.444l680 0l0 264.444l-680 0"/>
</g>
</g>
</g>
</g>
<g id="Clone of page">
</g>
</g>
</g><!--ePage-->
</svg>
