<?xml version="1.0" ?>
<svg version="1.1" encoding="iso-8859-1" baseProfile="full"
xmlns:dc="http://purl.org/dc/elements/1.1/"
xmlns:cc="http://creativecommons.org/ns#"
xmlns:rdf="http://www.w3.org/1999/02/22-rdf-syntax-ns#"
xmlns="http://www.w3.org/2000/svg"
xmlns:xlink="http://www.w3.org/1999/xlink"
xmlns:ev="http://www.w3.org/2001/xml-events"
xmlns:sodipodi="http://sodipodi.sourceforge.net/DTD/sodipodi-0.dtd"
xmlns:inkscape="http://www.inkscape.org/namespaces/inkscape"
inkscape:version="0.46"
inkscape:output_extension="org.inkscape.output.svg.inkscape"
viewBox="0 0 681 217" xml:space="preserve">
<title>Magics plot</title>
<metadata id="MAGICSmetadata">
<rdf:RDF><cc:Work rdf:about="">
	<dc:format>image/svg+xml</dc:format>
	<dc:title>Magics plot</dc:title>
	<dc:author>baudouin on Baudouins-iMac-3.local</dc:author>
	<dc:date>Sat Sep 12 16:16:45 2020</dc:date>
	<dc:language>en-GB</dc:language>
	<dc:publisher><cc:Agent>
	 <dc:title>Magics 4.4.5 (64 bit)</dc:title>
	</cc:Agent></dc:publisher>
	<dc:coverage>Plot of meteorological data</dc:coverage>
</cc:Work></rdf:RDF>
</metadata>
<g id="page" transform="translate(0,216.364)" vector-effect="non-scaling-stroke">
<g id="Page12">
<g inkscape:groupmode="layer" inkscape:label="Coastline" id="Coastline"><title>Coastline</title>
<g>
<g id="drawing" transform="translate(230.33,-274.496)">
</g>
</g>
</g>
<g inkscape:groupmode="layer" inkscape:label="Coastline" id="Coastline"><title>Coastline</title>
<g>
<g id="drawing" transform="translate(230.33,-274.496)">
<g fill-rule="evenodd" stroke="none">
<path fill="rgb(255,225,170)" d="M133.537 205.788l2.48095 -4.16971l-0.342731 -0.271137l-0.796188 -0.631629l1.11099 -3.41306l-2.29533 3.41334l-2.57157 1.60636l0.164546 1.37759l-0.23611 0.185668l-1.59357 1.24068l1.95362 1.22641l2.12538 -0.564514"/>
<path fill="rgb(255,225,170)" d="M101.533 220.393l0.318892 0.794036l5.33213 -3.02474l-0.20009 -1.60237l-1.79529 1.56638l-0.298849 -0.854168l-2.9858 1.01206l-2.85391 1.63226l-2.80098 -0.655429l0.165953 2.31923l5.11793 -1.18726"/>
<path fill="rgb(255,225,170)" d="M61.296 223.909l-0.996296 -1.35845l0.333684 -4.21462l-2.78601 1.20925l-3.78733 1.52833l-4.62647 0.608148l0.0165859 2.65224l6.06589 1.23315l2.13555 0.0301156l3.50602 1.0638l0.138374 -2.75197"/>
<path fill="rgb(255,225,170)" d="M35.4763 218.679l1.78723 0.0221838l-0.583516 -6.5667l-2.78322 -3.08073l-1.59474 1.79532l-2.0604 0.056511l1.25152 2.66888l1.02823 5.90992l1.65279 1.09099l1.3021 -1.89637"/>
<path fill="rgb(255,225,170)" d="M34.407 204.293l-1.28645 -4.0114l-1.97142 2.191l-0.44463 1.89675l1.32715 3.12365l1.80333 0.724981l0.572029 -3.92497"/>
<path fill="rgb(255,225,170)" d="M-166.266 84.9386l-0.493773 -2.39233l1.55787 -2.02509l-1.83815 -0.462644l-1.07206 1.41704l0.0562558 4.61783l0.83431 0.941963l2.46562 0.5222l-1.51009 -2.61896"/>
<path fill="rgb(255,225,170)" d="M-152.745 81.7789l0.28631 -3.62189l-0.710549 -4.0239l-0.795484 -0.758895l-0.745916 3.46082l0.490266 4.15574l0.766976 1.26832l0.708396 -0.480198"/>
<path fill="rgb(255,225,170)" d="M-144.226 110.077l1.72785 -2.53599l1.73924 -1.80333l-1.92367 -1.25669l3.30217 -1.25697l-0.61582 -3.26933l-1.72415 -0.482101l-0.473057 -2.91963l1.92176 -0.0444676l-0.30051 -2.20169l-2.36992 -0.753784l4.43684 -0.601078l3.25627 -0.346138l1.33415 -0.248554l-0.577803 -1.19985l-2.68299 -1.1826l-3.16366 -0.0817867l-7.8612 1.30942l-3.72781 -0.748944l-0.39248 1.80732l-2.41053 -0.824349l-0.94655 1.12289l3.10345 5.29649l2.09462 2.68816l0.767889 3.15503l-3.09852 -0.617673l0.947157 1.67871l5.45836 0.672944l0.0329686 1.06096l-3.52073 1.69545l0.535365 2.24226l1.01677 1.07008l4.11454 -1.42477"/>
<path fill="rgb(255,225,170)" d="M-18.8677 158.492l2.51853 -3.79622l-0.0966783 -3.25654l1.72226 -2.92944l-2.45055 -3.05439l-2.15063 -0.0838483l-2.21922 1.80431l-4.0813 2.91977l0.636783 4.76596l-3.01186 4.30909l3.83765 1.32548l5.29502 -2.00418"/>
<path fill="rgb(255,225,170)" d="M31.7456 140.981l-1.26471 -2.00951l-3.28833 2.18554l0.699052 1.75293l3.13512 1.94025l0.718873 -3.86921"/>
<path fill="rgb(255,225,170)" d="M-13.3365 167.863l2.67885 0.715173l2.0572 -2.04134l1.31624 0.968729l4.99711 -1.12133l3.88574 0.0505235l2.55193 -2.4462l-1.18631 -2.33931l1.40072 -1.36931l0.254668 -2.91625l-3.33543 -0.801453l-0.784547 -1.7842l-1.62402 -5.13986l-1.77355 -0.74538l-2.31107 -5.81552l-2.5656 -0.40124l2.39392 -3.87737l0.754925 -3.58146l-2.58366 -0.136204l-2.44374 0.454261l2.77992 -4.60658l-2.78245 0.195314l-1.79602 -0.494099l-2.13031 3.388l-1.33937 4.46059l0.998144 2.38138l-0.274505 4.29365l1.55049 -1.97696l0.72082 1.29612l-1.09321 1.9126l0.50666 1.26157l3.0814 1.02006l1.63243 2.93208l-0.530448 2.5959l-3.96837 -0.676282l-0.755633 2.9133l1.31568 2.55801l-3.02711 1.16519l0.633231 1.88029l4.39783 1.09052l-2.62156 0.813953l-4.67759 4.43207l1.47852 1.06809l2.21809 -1.57701"/>
<path fill="rgb(255,225,170)" d="M-33.3693 103.968l6.03125 -1.2949l3.10456 -2.5782l-1.22844 -3.31254l1.08052 -2.56535l-2.63371 -1.03494l-3.33412 1.35267l-1.67548 -1.82695l-3.26205 1.2894l-1.45528 -3.67027l-2.62868 -0.426866l-2.20045 2.05799l3.0201 2.37956l-0.402756 1.19034l-3.26958 -0.491826l2.86304 3.47926l-2.42029 1.05714l4.43215 3.19384l2.16841 1.43087l1.81081 -0.229241"/>
<path fill="rgb(255,225,170)" d="M-229.928 58.1326h-0.401969v0.151725l0.401969 -0.151725"/>
<path fill="rgb(255,225,170)" d="M-217.867 58.1326h-0.454003l0.226542 0.0743798l0.227461 -0.0743798"/>
<path fill="rgb(255,225,170)" d="M-162.965 92.3943l2.86699 -1.88198l-6.22794 -0.282377l-3.14648 -4.52396l0.237501 -4.88384l2.76495 -2.48201l4.15534 -3.04941l4.0818 1.30085l0.901244 -3.41442l-2.28182 -3.94881l-6.03733 -4.47726l-7.54554 -2.58492l-1.63499 -2.32331l5.31185 2.01269l7.35396 1.98687l3.35426 2.79727l4.02729 0.987066l1.53831 2.65346l1.86348 4.00414l2.02312 6.05803l3.08382 3.99716l5.11552 1.23484l3.8862 3.14055l2.45814 0.825138l2.56129 0.734168l4.10193 -3.03903l0.806608 -1.84972l-0.646756 -2.06565l2.63274 -2.94286l0.320433 -2.16819l-1.12915 -4.09615l1.07438 -3.24704l0.602857 -4.11005l2.9202 -0.463217l3.44632 -4.80676l2.37247 -3.35302h-99.459l4.31348 1.63135l3.65034 -0.189462l-0.0851946 -1.12683l1.62847 0.72259l-0.61187 0.0601305l0.680861 2.28752l2.97046 4.54702l0.548688 -1.33285l-2.48275 -4.94201l2.25287 2.55094l0.874079 1.97634l0.727637 1.45122l1.6752 2.30923l0.487876 1.69784l1.58147 2.06261l1.41349 -0.205345l0.647829 -1.39309l-1.54709 0.964464l-0.395187 -1.46581l2.04453 -1.98469l2.44594 -0.812433l0.900275 0.154995l3.65376 0.839759l2.61539 2.94106l2.83883 2.68974l3.53763 2.47846l1.21394 -1.14791l2.01658 3.19538l2.39084 4.80702l-6.04706 -3.68909l-3.66817 1.76687l0.767233 2.56495l4.78595 2.03083l3.24046 2.18475l6.00802 5.28882l4.7399 2.04143l0.431348 -2.69406"/>
<path fill="rgb(255,225,170)" d="M159.718 238.723l-4.54985 -2.94082l-5.54461 -3.03194l-4.77682 -3.80694l0.146073 -0.676458l7.12688 4.75588l3.19662 0.852506l2.3596 0.580899l0.406746 -1.44678l-0.526437 -3.13434l-1.50217 -4.01406l-0.152873 -2.57089l0.582839 0.556774l0.765309 2.13334l0.923651 1.70326l1.10572 2.9255l0.43933 -0.313763v-91.9016l-3.09578 -0.237205l-6.88812 -0.914395l-2.16861 -2.45324l-5.47388 -0.804821l-1.33781 -5.7997l1.56143 -2.91735l-1.13196 -2.9759l1.21312 -2.95076l0.768224 -4.20043l2.59857 -1.42966l1.78121 -2.69996l2.68355 1.2892l3.34856 3.25696l-2.34138 1.8911l-1.15628 2.71565l2.64552 2.28621l-2.45111 2.2845l1.27499 0.909222l2.14686 -0.699724l4.3624 1.49203l1.66048 -0.959856v-67.3429h-89.9567l-0.652148 3.7913l1.7426 2.10836l-1.08614 2.52282l-1.95876 -0.0657672l-1.69212 -1.64391l1.03565 -1.83399l-2.34319 -0.97235l-4.03664 2.10523l2.64516 1.09494l1.18978 2.37005l2.75111 0.856001l1.32894 2.7852l-2.18523 0.0220942l-1.32102 0.880214l-0.319338 5.7976l2.94103 1.61483l-0.511997 1.79188l-5.10062 0.643998l-0.0225751 1.95679l2.06344 0.838729l1.06088 1.80567l-1.84597 -0.01634l-2.71047 0.331581l-3.82008 -5.07509l-4.05739 -1.02215l0.729718 -1.13236l8.04766 -1.87805l1.46212 -2.6579l-0.0247809 -2.91897l-1.9381 -2.0561l-2.24644 -0.722108l-7.54622 -0.108381l-3.92943 1.54025l-3.4041 -0.823092l-0.513088 2.03326l-2.70697 -1.46825l0.993741 -1.89471l-5.26023 -0.525906l-1.78444 1.85804l-2.32395 0.901396l-0.53873 4.03412l-2.24792 0.676057l-2.31499 2.81611l-2.29994 6.28679l-1.67784 3.77042l-1.97834 8.91022l-2.03628 6.48644l-2.93344 4.98476l-4.66331 4.23817l-1.57812 2.94453l1.56965 9.94169l1.25214 4.61748l3.42521 1.87388l2.92896 -1.43883l3.59309 -5.73944l1.9806 2.36532l2.96712 5.75918l3.04735 4.49054l1.70903 3.93528l2.81095 -0.887588l0.495703 -3.77911l3.01568 -0.377565l0.176168 -4.38405l-1.26346 -7.35486l1.94976 -1.68586l0.383229 -5.32878l-2.71773 -1.64887l-2.35163 -2.47137l-0.42181 -6.25654l2.35732 -4.7163l1.58836 -4.28199l-1.21783 -2.33871l0.501603 -3.40562l2.28606 -2.28293l3.05027 0.818285l0.940671 1.55298l-0.713334 1.32112l-2.02913 5.95673l-0.601787 3.15588l0.039569 2.67989l2.33172 3.27935l1.13012 4.15292l2.45719 0.557624l2.07649 1.71503l2.88942 -2.27296l2.75547 -3.0769l3.31077 -2.08862l2.98258 0.736132l-1.04456 3.3189l-1.97725 1.17385l-2.47868 0.423608l-2.25828 1.76692l-2.08661 2.26354l1.18206 2.23779l1.96743 0.842053l0.547707 -0.855032l0.826645 2.48071l0.975546 3.28539l-1.73769 0.857466l-3.03154 -2.30709l-1.50301 2.2375l-0.0891656 3.02216l1.12404 3.15387l1.85518 3.30711l-2.80639 2.60579l0.111476 2.05892l-2.39994 0.774618l-0.536521 -0.975285l-2.69049 0.0828064l-2.68116 2.40732l-3.38857 3.10508l-1.42645 1.73486l-1.56129 -1.09258l-3.29091 -1.05947l-1.17938 1.51682l-2.46326 1.36133l-0.276034 -1.57388l-2.78364 -0.551252l-0.34432 -1.69935l-1.05394 -2.0296l1.21805 -3.47605l0.814799 0.340748l0.27894 -1.76179l-1.42991 -0.415979l-0.50971 -1.17032l0.441006 -1.54886l-0.337383 -2.25019l-1.655 1.56431l-0.624178 1.34332l-2.04842 0.601938l-0.491568 1.41706l-0.231887 1.24457l0.716719 4.49916l1.38419 2.30637l0.495916 2.49982l0.849581 1.5765l-1.46331 2.46606l-0.630446 -0.91596l-2.1803 0.535281l-0.402987 1.01232l-2.23368 0.125863l-3.50426 2.23237l-1.92825 6.85552l-1.38597 1.34461l-2.2489 1.01952l-2.48515 1.01583l-0.78 3.79034l-6.94409 3.62553l-2.78225 -2.05705l0.797195 5.27816l-5.09197 -1.41584l-4.03277 0.736348l0.0421301 3.41541l4.68395 2.11072l2.23856 2.47972l3.20276 5.05454l-0.856432 9.49369l-1.88313 2.8378l-5.65368 -0.426893l-2.9227 0.0526041l-3.64319 -1.13848l-4.67047 -0.466646l-4.12175 -1.41087l-5.43672 2.69706l1.0995 2.31019l-0.723311 3.40011l-0.0997025 1.65487l0.455396 1.85537l-0.237158 2.07356l-1.2337 2.81596l-0.580952 1.93887l-1.80032 1.53811l-0.844153 3.17711l0.614984 2.03073l1.67126 0.736476l-0.104922 3.12324l-1.2191 3.83141l2.16058 -0.238094l2.0241 1.0118l1.7958 -1.0917l3.66747 1.24402l0.827465 3.04634l1.34021 1.88255l1.98104 0.623196l1.74993 -1.78615l2.71153 -1.58902l3.88588 0.361786l5.19312 0.174624l2.99485 -3.81922l3.04941 -0.952299l0.893401 -3.27217l2.28014 -2.23324l-1.5112 -2.86093l1.4802 -4.04547l2.29476 -2.75726l0.310206 -1.66207l4.71852 -1.15906l3.32464 -3.41555l-0.341602 -2.81894l0.251985 -2.94078l5.01561 -1.90817l7.03966 0.632422l2.82395 -3.09549l1.38731 -0.542886l1.66294 -2.49239l1.4651 -0.878177l3.02017 1.11126l1.79297 0.252959l1.93509 4.50047l2.91315 2.29111l3.89064 2.44274l3.28135 1.53964l2.7347 -0.317177l2.03389 1.53557l2.55106 0.271895l1.62182 1.77819l1.68128 0.184159l1.79484 2.10082l2.24475 2.36877l-0.519521 1.26166l-0.0389046 2.81051l0.40153 1.48897l1.48968 -0.828328l0.802911 -4.72999l1.47322 -0.755786l-0.327981 -2.62639l-3.1867 -0.965086l0.609477 -3.52898l3.36899 -0.196697l2.71988 1.54985l0.11349 -1.90944l-0.663632 -0.753816l-3.8498 -1.45837l-3.04315 -0.619035l-3.66528 -0.773714l0.717685 -1.22118l-1.15116 -0.793118l-2.73428 0.791619l-4.86354 -2.78991l-2.67677 -3.46224l-3.72031 -1.62726l-1.62372 -2.14275l0.115476 -1.42048l-0.688231 -2.27311l2.26852 -2.24236l2.73169 0.0536355l-0.616679 0.596576l-0.0970771 0.102862l0.317742 1.62415l1.35011 1.31543l0.50065 -2.25102l2.28206 0.18388l0.475885 1.54233l2.02991 1.53826l-0.57454 0.527992l3.76338 2.62779l3.48895 0.466195l2.47743 1.05795l3.74937 0.672884l1.78141 0.418836l1.4783 1.17475l0.843539 0.105731l0.834993 0.522446l0.0358234 1.60153l0.816499 3.26987l1.08912 2.11254l2.53938 0.859885l0.445149 1.00126l0.731025 0.103789l0.733775 1.24235l2.86102 1.97498l2.25545 1.60944l1.86302 2.87737l2.89797 3.22461l3.94769 0.79488l2.49493 -1.11866l-3.17742 -3.53698l2.1463 -1.49403l-2.10433 -1.90386l3.92161 -0.250212l-1.21598 -2.5802l-2.37412 -0.547562l-2.9131 -1.26269l0.914019 -1.58307l-2.68998 -1.39521l-1.92945 -2.40523l0.233453 -1.27511l2.84008 1.56202l1.93933 -0.853432l1.42905 -1.52697l-3.51632 -1.47316l3.58843 -3.02803l1.95621 -0.405046l2.1064 -0.860831l0.401427 0.937089l2.08084 1.54243l1.60449 -3.7923l0.710347 -2.08455l3.75614 -2.32216l0.00743386 -1.37975l-3.57506 0.142197l-1.26654 -1.45604l-2.32631 -1.91409l-0.474437 -3.67209l0.652111 -2.62225l-1.93702 -5.53898l1.11688 -0.107633l0.924257 -1.70026l-0.675381 -1.02994l0.471723 -4.32765l-0.280024 -2.85962l2.26564 -2.05237l1.1157 1.38046l4.93731 -1.72892l1.39421 0.380461l-1.79836 3.05805l-0.00642412 1.08693l3.83947 -0.829944l0.614347 2.28744l2.12368 -0.240867l2.23592 -4.90306l2.51232 -2.83l-0.482719 -1.75663l-2.58706 2.23403l-1.9932 0.00436012l-1.84956 -2.30549l1.26626 -3.05908l2.29523 -1.9949l0.790199 -2.50873l1.79105 -1.86717l1.76574 -2.38393l0.714983 0.744799l-2.52878 4.45846l2.58691 0.354514l0.26604 4.81896l-1.48723 2.07581l4.02062 0.476156l4.18636 -0.986117l6.00179 0.342652l1.94104 0.301205l1.85083 -0.85243l2.7255 -0.00745898l2.87821 1.88801l0.981847 1.92476l-1.60972 4.79233l-2.72976 1.71339l-2.88739 3.3075l-5.36706 1.73704l-7.18826 0.964414l-4.89518 3.46955l-2.80781 3.46519l-2.08706 5.03283l-6.42354 2.98475l0.448393 4.03449l-5.02076 2.89914l-1.63536 6.13839l3.2581 1.04176l0.0389731 4.34496l3.85608 1.19514l4.45263 3.38722l3.89483 -2.1915l4.80405 0.434223l2.16837 -1.95762l-0.259684 -2.30805l3.86513 -2.13663l4.2844 0.554012l4.93425 -3.92755l0.671137 -4.02124l3.47503 -1.01043l1.77082 -1.81653l-0.132495 2.46879l2.60189 0.987659l0.417258 2.3166l2.6469 2.97513l0.0412 0.193541l0.40548 4.23463l1.19942 4.39311l-0.0687804 0.114056l0.248366 1.45799l1.54259 3.8036l0.429735 2.73345l0.428611 0.072922l-0.100796 2.20893l-1.11926 2.3893l-3.16953 1.72409l-3.78796 0.915783l0.0274724 2.05434l-2.46779 -1.60308l-3.12452 1.11106l-3.2417 2.42429l-0.868702 2.27201l-2.26083 3.22214l-2.27745 0.290311l-4.77325 0.737098l-4.5609 0.732619l-5.41871 2.72059l-1.75005 -1.12897l-4.34902 1.28876l-1.67947 -0.25243l-1.54608 0.645382l-2.33454 -1.58354l-5.98143 1.27303l-2.59352 1.77957l-2.14897 3.45631l-0.447156 2.91974l2.40239 3.49623l-1.24832 3.0866l-1.68321 2.07819l-5.55828 -0.968244l-6.87874 -0.215911l-4.24327 0.146379l-3.31203 -4.00444l-6.34059 -0.799501l-3.81586 0.00924646l-1.71677 0.858552l-5.46592 -0.688289l-1.80439 -0.478208l-1.55669 -2.24044l-2.22983 0.32551l-1.31551 -2.65467l2.29512 -3.08307l-0.298542 -4.49707l-1.65634 -0.985084l-0.408426 -2.3355l1.53984 -2.84134l-0.471357 -0.903391l-3.04987 2.47742l-0.338327 -2.55554l-2.88911 -0.115992l-4.03736 2.71334l-2.71331 0.697794l-1.79334 -0.957904l-4.29635 0.552012l-3.61212 2.38399l-2.11817 -0.572717l-6.70166 0.882247l-6.89031 1.18806l-3.9328 1.62402l-2.60929 2.12503l-4.51947 0.840884l-4.12166 2.69833l-1.83234 -0.131037l-4.29885 -1.37692l-4.01855 0.0690755l-2.33213 -2.39618l-3.05648 -0.322244l-1.64934 3.01033l-3.45507 5.01831l-3.46897 1.73705l-4.69233 1.75159l-3.37457 3.07916l-1.04936 2.662l-2.4751 4.24718l0.0148 6.82157l-4.69688 3.80278l-2.63717 0.992645l-4.48664 2.95052l-4.57221 -0.359227l-1.67514 0.889033h222.646v-35.7732z
M68.7517 98.6749L69.3416 98.2715L70.0476 97.9197L68.5607 97.3351L67.655 97.1352L66.2521 96.4446L65.02 95.4409L64.8698 95.1319L65.6595 94.9461L65.0478 94.2002L65.7756 94.5131L66.5651 94.782L66.6605 94.4393L66.9098 93.9299L65.8012 93.4878L64.2676 93.1113L64.9201 92.7312L65.4876 92.7179L67.2595 93.551L69.2493 95.1242L70.9411 96.2524L71.1348 97.5164L70.0046 98.6857L68.7517 98.6749z
M64.3191 106.585L62.1748 105.409L61.6454 104.645L59.598 103.91L60.2086 100.793L64.6629 101.395L66.5235 102.655L66.6724 103.393L66.1612 103.454L66.8944 104.665L65.2096 105.586L65.5792 106.975L64.8076 107.406L64.3191 106.585z
M28.3272 127.378L28.1931 126.938L28.5095 126.537L29.1985 126.201L29.4333 125.536L30.0868 124.445L31.0678 124.798L31.2048 125.301L31.2555 126.119L30.1497 127.715L29.2373 128.376L28.4104 128.574L28.3272 127.378"/>
<path fill="rgb(255,225,170)" d="M-81.9397 88.282l3.11486 -2.00821l1.69159 -3.03398l4.67028 -0.433107l2.57248 -1.50222l1.97657 -2.26081l2.88172 -1.02348l2.59606 0.825075l2.47916 0.593924l1.06639 0.575816l4.72048 -0.312025l4.37667 -2.47146l2.2607 -0.499309l1.49497 0.885276l4.70203 0.957506l5.17921 -1.14046l5.05299 -1.78081l-1.71868 -0.979833l-3.31957 -1.74783l2.42492 -1.27852l0.798517 -2.7672l0.503733 2.88657l0.323095 1.91173l2.60686 0.211839l0.782344 -3.32122l-0.589643 -3.0186l-1.14558 -1.65658l1.05226 -0.747307l1.61181 2.57341l0.689266 -1.72517l-0.308104 -3.19481l1.54016 0.636416l1.79706 0.0143843l0.8757 -1.23839l-0.632393 -2.05325l2.44864 0.596495l-0.0741206 -2.62328h-57.2696l-0.909076 0.43322l-1.67449 4.31567l-2.88545 2.55302l-1.61089 2.47826l-2.00694 6.01541l-2.33597 3.77894l-0.449467 3.10114l2.85813 3.12636l-0.315956 4.75784l2.39047 1.94463l3.70684 -2.35507"/>
<path fill="rgb(114,163,255)" d="M159.718 125.476l-1.66048 0.959856l-4.3624 -1.49203l-2.14686 0.699724l-1.27499 -0.909222l2.45111 -2.2845l-2.64552 -2.28621l1.15628 -2.71565l2.34138 -1.8911l-3.34856 -3.25696l-2.68355 -1.2892l-1.78121 2.69996l-2.59857 1.42966l-0.768224 4.20043l-1.21312 2.95076l1.13196 2.9759l-1.56143 2.91735l1.33781 5.7997l5.47388 0.804821l2.16861 2.45324l6.88812 0.914395l3.09578 0.237205v-12.9181"/>
<path fill="rgb(114,163,255)" d="M-61.2526 273.607l4.57221 0.359227l4.48664 -2.95052l2.63717 -0.992645l4.69688 -3.80278l-0.0148 -6.82157l2.4751 -4.24718l1.04936 -2.662l3.37457 -3.07916l4.69233 -1.75159l3.46897 -1.73705l3.45507 -5.01831l1.64934 -3.01033l3.05648 0.322244l2.33213 2.39618l4.01855 -0.0690755l4.29885 1.37692l1.83234 0.131037l4.12166 -2.69833l4.51947 -0.840884l2.60929 -2.12503l3.9328 -1.62402l6.89031 -1.18806l6.70166 -0.882247l2.11817 0.572717l3.61212 -2.38399l4.29635 -0.552012l1.79334 0.957904l2.71331 -0.697794l4.03736 -2.71334l2.88911 0.115992l0.338327 2.55554l3.04987 -2.47742l0.471357 0.903391l-1.53984 2.84134l0.408426 2.3355l1.65634 0.985084l0.298542 4.49707l-2.29512 3.08307l1.31551 2.65467l2.22983 -0.32551l1.55669 2.24044l1.80439 0.478208l5.46592 0.688289l1.71677 -0.858552l3.81586 -0.00924646l6.34059 0.799501l3.31203 4.00444l4.24327 -0.146379l6.87874 0.215911l5.55828 0.968244l1.68321 -2.07819l1.24832 -3.0866l-2.40239 -3.49623l0.447156 -2.91974l2.14897 -3.45631l2.59352 -1.77957l5.98143 -1.27303l2.33454 1.58354l1.54608 -0.645382l1.67947 0.25243l4.34902 -1.28876l1.75005 1.12897l5.41871 -2.72059l4.5609 -0.732619l4.77325 -0.737098l2.27745 -0.290311l2.26083 -3.22214l0.868702 -2.27201l3.2417 -2.42429l3.12452 -1.11106l2.46779 1.60308l-0.0274724 -2.05434l3.78796 -0.915783l3.16953 -1.72409l1.11926 -2.3893l0.100796 -2.20893l-0.428611 -0.072922l-0.429735 -2.73345l-1.54259 -3.8036l-0.248366 -1.45799l0.0687804 -0.114056l-1.19942 -4.39311l-0.40548 -4.23463l-0.0412 -0.193541l-2.6469 -2.97513l-0.417258 -2.3166l-2.60189 -0.987659l0.132495 -2.46879l-1.77082 1.81653l-3.47503 1.01043l-0.671137 4.02124l-4.93425 3.92755l-4.2844 -0.554012l-3.86513 2.13663l0.259684 2.30805l-2.16837 1.95762l-4.80405 -0.434223l-3.89483 2.1915l-4.45263 -3.38722l-3.85608 -1.19514l-0.0389731 -4.34496l-3.2581 -1.04176l1.63536 -6.13839l5.02076 -2.89914l-0.448393 -4.03449l6.42354 -2.98475l2.08706 -5.03283l2.80781 -3.46519l4.89518 -3.46955l7.18826 -0.964414l5.36706 -1.73704l2.88739 -3.3075l2.72976 -1.71339l1.60972 -4.79233l-0.981847 -1.92476l-2.87821 -1.88801l-2.7255 0.00745898l-1.85083 0.85243l-1.94104 -0.301205l-6.00179 -0.342652l-4.18636 0.986117l-4.02062 -0.476156l1.48723 -2.07581l-0.26604 -4.81896l-2.58691 -0.354514l2.52878 -4.45846l-0.714983 -0.744799l-1.76574 2.38393l-1.79105 1.86717l-0.790199 2.50873l-2.29523 1.9949l-1.26626 3.05908l1.84956 2.30549l1.9932 -0.00436012l2.58706 -2.23403l0.482719 1.75663l-2.51232 2.83l-2.23592 4.90306l-2.12368 0.240867l-0.614347 -2.28744l-3.83947 0.829944l0.00642412 -1.08693l1.79836 -3.05805l-1.39421 -0.380461l-4.93731 1.72892l-1.1157 -1.38046l-2.26564 2.05237l0.280024 2.85962l-0.471723 4.32765l0.675381 1.02994l-0.924257 1.70026l-1.11688 0.107633l1.93702 5.53898l-0.652111 2.62225l0.474437 3.67209l2.32631 1.91409l1.26654 1.45604l3.57506 -0.142197l-0.00743386 1.37975l-3.75614 2.32216l-0.710347 2.08455l-1.60449 3.7923l-2.08084 -1.54243l-0.401427 -0.937089l-2.1064 0.860831l-1.95621 0.405046l-3.58843 3.02803l3.51632 1.47316l-1.42905 1.52697l-1.93933 0.853432l-2.84008 -1.56202l-0.233453 1.27511l1.92945 2.40523l2.68998 1.39521l-0.914019 1.58307l2.9131 1.26269l2.37412 0.547562l1.21598 2.5802l-3.92161 0.250212l2.10433 1.90386l-2.1463 1.49403l3.17742 3.53698l-2.49493 1.11866l-3.94769 -0.79488l-2.89797 -3.22461l-1.86302 -2.87737l-2.25545 -1.60944l-2.86102 -1.97498l-0.733775 -1.24235l-0.731025 -0.103789l-0.445149 -1.00126l-2.53938 -0.859885l-1.08912 -2.11254l-0.816499 -3.26987l-0.0358234 -1.60153l-0.834993 -0.522446l-0.843539 -0.105731l-1.4783 -1.17475l-1.78141 -0.418836l-3.74937 -0.672884l-2.47743 -1.05795l-3.48895 -0.466195l-3.76338 -2.62779l0.57454 -0.527992l-2.02991 -1.53826l-0.475885 -1.54233l-2.28206 -0.18388l-0.50065 2.25102l-1.35011 -1.31543l-0.317742 -1.62415l0.0970771 -0.102862l0.616679 -0.596576l-2.73169 -0.0536355l-2.26852 2.24236l0.688231 2.27311l-0.115476 1.42048l1.62372 2.14275l3.72031 1.62726l2.67677 3.46224l4.86354 2.78991l2.73428 -0.791619l1.15116 0.793118l-0.717685 1.22118l3.66528 0.773714l3.04315 0.619035l3.8498 1.45837l0.663632 0.753816l-0.11349 1.90944l-2.71988 -1.54985l-3.36899 0.196697l-0.609477 3.52898l3.1867 0.965086l0.327981 2.62639l-1.47322 0.755786l-0.802911 4.72999l-1.48968 0.828328l-0.40153 -1.48897l0.0389046 -2.81051l0.519521 -1.26166l-2.24475 -2.36877l-1.79484 -2.10082l-1.68128 -0.184159l-1.62182 -1.77819l-2.55106 -0.271895l-2.03389 -1.53557l-2.7347 0.317177l-3.28135 -1.53964l-3.89064 -2.44274l-2.91315 -2.29111l-1.93509 -4.50047l-1.79297 -0.252959l-3.02017 -1.11126l-1.4651 0.878177l-1.66294 2.49239l-1.38731 0.542886l-2.82395 3.09549l-7.03966 -0.632422l-5.01561 1.90817l-0.251985 2.94078l0.341602 2.81894l-3.32464 3.41555l-4.71852 1.15906l-0.310206 1.66207l-2.29476 2.75726l-1.4802 4.04547l1.5112 2.86093l-2.28014 2.23324l-0.893401 3.27217l-3.04941 0.952299l-2.99485 3.81922l-5.19312 -0.174624l-3.88588 -0.361786l-2.71153 1.58902l-1.74993 1.78615l-1.98104 -0.623196l-1.34021 -1.88255l-0.827465 -3.04634l-3.66747 -1.24402l-1.7958 1.0917l-2.0241 -1.0118l-2.16058 0.238094l1.2191 -3.83141l0.104922 -3.12324l-1.67126 -0.736476l-0.614984 -2.03073l0.844153 -3.17711l1.80032 -1.53811l0.580952 -1.93887l1.2337 -2.81596l0.237158 -2.07356l-0.455396 -1.85537l0.0997025 -1.65487l0.723311 -3.40011l-1.0995 -2.31019l5.43672 -2.69706l4.12175 1.41087l4.67047 0.466646l3.64319 1.13848l2.9227 -0.0526041l5.65368 0.426893l1.88313 -2.8378l0.856432 -9.49369l-3.20276 -5.05454l-2.23856 -2.47972l-4.68395 -2.11072l-0.0421301 -3.41541l4.03277 -0.736348l5.09197 1.41584l-0.797195 -5.27816l2.78225 2.05705l6.94409 -3.62553l0.78 -3.79034l2.48515 -1.01583l2.2489 -1.01952l1.38597 -1.34461l1.92825 -6.85552l3.50426 -2.23237l2.23368 -0.125863l0.402987 -1.01232l2.1803 -0.535281l0.630446 0.91596l1.46331 -2.46606l-0.849581 -1.5765l-0.495916 -2.49982l-1.38419 -2.30637l-0.716719 -4.49916l0.231887 -1.24457l0.491568 -1.41706l2.04842 -0.601938l0.624178 -1.34332l1.655 -1.56431l0.337383 2.25019l-0.441006 1.54886l0.50971 1.17032l1.42991 0.415979l-0.27894 1.76179l-0.814799 -0.340748l-1.21805 3.47605l1.05394 2.0296l0.34432 1.69935l2.78364 0.551252l0.276034 1.57388l2.46326 -1.36133l1.17938 -1.51682l3.29091 1.05947l1.56129 1.09258l1.42645 -1.73486l3.38857 -3.10508l2.68116 -2.40732l2.69049 -0.0828064l0.536521 0.975285l2.39994 -0.774618l-0.111476 -2.05892l2.80639 -2.60579l-1.85518 -3.30711l-1.12404 -3.15387l0.0891656 -3.02216l1.50301 -2.2375l3.03154 2.30709l1.73769 -0.857466l-0.975546 -3.28539l-0.826645 -2.48071l-0.547707 0.855032l-1.96743 -0.842053l-1.18206 -2.23779l2.08661 -2.26354l2.25828 -1.76692l2.47868 -0.423608l1.97725 -1.17385l1.04456 -3.3189l-2.98258 -0.736132l-3.31077 2.08862l-2.75547 3.0769l-2.88942 2.27296l-2.07649 -1.71503l-2.45719 -0.557624l-1.13012 -4.15292l-2.33172 -3.27935l-0.039569 -2.67989l0.601787 -3.15588l2.02913 -5.95673l0.713334 -1.32112l-0.940671 -1.55298l-3.05027 -0.818285l-2.28606 2.28293l-0.501603 3.40562l1.21783 2.33871l-1.58836 4.28199l-2.35732 4.7163l0.42181 6.25654l2.35163 2.47137l2.71773 1.64887l-0.383229 5.32878l-1.94976 1.68586l1.26346 7.35486l-0.176168 4.38405l-3.01568 0.377565l-0.495703 3.77911l-2.81095 0.887588l-1.70903 -3.93528l-3.04735 -4.49054l-2.96712 -5.75918l-1.9806 -2.36532l-3.59309 5.73944l-2.92896 1.43883l-3.42521 -1.87388l-1.25214 -4.61748l-1.56965 -9.94169l1.57812 -2.94453l4.66331 -4.23817l2.93344 -4.98476l2.03628 -6.48644l1.97834 -8.91022l1.67784 -3.77042l2.29994 -6.28679l2.31499 -2.81611l2.24792 -0.676057l0.53873 -4.03412l2.32395 -0.901396l1.78444 -1.85804l5.26023 0.525906l-0.993741 1.89471l2.70697 1.46825l0.513088 -2.03326l3.4041 0.823092l3.92943 -1.54025l7.54622 0.108381l2.24644 0.722108l1.9381 2.0561l0.0247809 2.91897l-1.46212 2.6579l-8.04766 1.87805l-0.729718 1.13236l4.05739 1.02215l3.82008 5.07509l2.71047 -0.331581l1.84597 0.01634l-1.06088 -1.80567l-2.06344 -0.838729l0.0225751 -1.95679l5.10062 -0.643998l0.511997 -1.79188l-2.94103 -1.61483l0.319338 -5.7976l1.32102 -0.880214l2.18523 -0.0220942l-1.32894 -2.7852l-2.75111 -0.856001l-1.18978 -2.37005l-2.64516 -1.09494l4.03664 -2.10523l2.34319 0.97235l-1.03565 1.83399l1.69212 1.64391l1.95876 0.0657672l1.08614 -2.52282l-1.7426 -2.10836l0.652148 -3.7913h-91.1984l0.0741206 2.62328l-2.44864 -0.596495l0.632393 2.05325l-0.8757 1.23839l-1.79706 -0.0143843l-1.54016 -0.636416l0.308104 3.19481l-0.689266 1.72517l-1.61181 -2.57341l-1.05226 0.747307l1.14558 1.65658l0.589643 3.0186l-0.782344 3.32122l-2.60686 -0.211839l-0.323095 -1.91173l-0.503733 -2.88657l-0.798517 2.7672l-2.42492 1.27852l3.31957 1.74783l1.71868 0.979833l-5.05299 1.78081l-5.17921 1.14046l-4.70203 -0.957506l-1.49497 -0.885276l-2.2607 0.499309l-4.37667 2.47146l-4.72048 0.312025l-1.06639 -0.575816l-2.47916 -0.593924l-2.59606 -0.825075l-2.88172 1.02348l-1.97657 2.26081l-2.57248 1.50222l-4.67028 0.433107l-1.69159 3.03398l-3.11486 2.00821l-3.70684 2.35507l-2.39047 -1.94463l0.315956 -4.75784l-2.85813 -3.12636l0.449467 -3.10114l2.33597 -3.77894l2.00694 -6.01541l1.61089 -2.47826l2.88545 -2.55302l1.67449 -4.31567l0.909076 -0.43322h-37.0454l-2.37247 3.35302l-3.44632 4.80676l-2.9202 0.463217l-0.602857 4.11005l-1.07438 3.24704l1.12915 4.09615l-0.320433 2.16819l-2.63274 2.94286l0.646756 2.06565l-0.806608 1.84972l-4.10193 3.03903l-2.56129 -0.734168l-2.45814 -0.825138l-3.8862 -3.14055l-5.11552 -1.23484l-3.08382 -3.99716l-2.02312 -6.05803l-1.86348 -4.00414l-1.53831 -2.65346l-4.02729 -0.987066l-3.35426 -2.79727l-7.35396 -1.98687l-5.31185 -2.01269l1.63499 2.32331l7.54554 2.58492l6.03733 4.47726l2.28182 3.94881l-0.901244 3.41442l-4.0818 -1.30085l-4.15534 3.04941l-2.76495 2.48201l-0.237501 4.88384l3.14648 4.52396l6.22794 0.282377l-2.86699 1.88198l-0.431348 2.69406l-4.7399 -2.04143l-6.00802 -5.28882l-3.24046 -2.18475l-4.78595 -2.03083l-0.767233 -2.56495l3.66817 -1.76687l6.04706 3.68909l-2.39084 -4.80702l-2.01658 -3.19538l-1.21394 1.14791l-3.53763 -2.47846l-2.83883 -2.68974l-2.61539 -2.94106l-3.65376 -0.839759l-0.900275 -0.154995l-2.44594 0.812433l-2.04453 1.98469l0.395187 1.46581l1.54709 -0.964464l-0.647829 1.39309l-1.41349 0.205345l-1.58147 -2.06261l-0.487876 -1.69784l-1.6752 -2.30923l-0.727637 -1.45122l-0.874079 -1.97634l-2.25287 -2.55094l2.48275 4.94201l-0.548688 1.33285l-2.97046 -4.54702l-0.680861 -2.28752l0.61187 -0.0601305l-1.62847 -0.72259l0.0851946 1.12683l-3.65034 0.189462l-4.31348 -1.63135h-2.65564l-0.227461 0.0743798l-0.226542 -0.0743798h-11.6068l-0.401969 0.151725v216.212h167.402l1.67514 -0.889033z
M-154.22 80.9907L-154.71 76.835L-153.964 73.3742L-153.169 74.1331L-152.458 78.157L-152.745 81.7789L-153.453 82.2591L-154.22 80.9907z
M-167.221 87.0353L-168.056 86.0934L-168.112 81.4756L-167.04 80.0585L-165.202 80.5212L-166.759 82.5463L-166.266 84.9386L-164.756 87.5575L-167.221 87.0353z
M-149.357 110.432L-149.892 108.19L-146.372 106.494L-146.405 105.433L-151.863 104.76L-152.81 103.082L-149.712 103.699L-150.48 100.544L-152.574 97.856L-155.678 92.5595L-154.731 91.4367L-152.321 92.261L-151.928 90.4537L-148.2 91.2026L-140.339 89.8932L-137.175 89.975L-134.492 91.1576L-133.915 92.3574L-135.249 92.606L-138.505 92.9521L-142.942 93.5532L-140.572 94.307L-140.271 96.5087L-142.193 96.5532L-141.72 99.4728L-139.996 99.9549L-139.38 103.224L-142.682 104.481L-140.759 105.738L-142.498 107.541L-144.226 110.077L-148.34 111.502L-149.357 110.432z
M-37.3485 102.766L-41.7806 99.5723L-39.3603 98.5151L-42.2234 95.0359L-38.9538 95.5277L-38.551 94.3373L-41.5711 91.9578L-39.3707 89.8998L-36.742 90.3267L-35.2867 93.9969L-32.0247 92.7075L-30.3492 94.5345L-27.0151 93.1818L-24.3814 94.2167L-25.4619 96.7821L-24.2334 100.095L-27.338 102.673L-33.3693 103.968L-35.1801 104.197L-37.3485 102.766z
M-17.0331 168.372L-12.3555 163.94L-9.73392 163.126L-14.1317 162.036L-14.765 160.155L-11.7379 158.99L-13.0535 156.432L-12.2979 153.519L-8.32954 154.195L-7.79909 151.599L-9.43152 148.667L-12.5129 147.647L-13.0196 146.386L-11.9264 144.473L-12.6472 143.177L-14.1977 145.154L-13.9232 140.86L-14.9213 138.479L-13.5819 134.018L-11.4516 130.63L-9.65562 131.124L-6.87317 130.929L-9.65309 135.536L-7.20935 135.081L-4.62569 135.218L-5.38062 138.799L-7.77454 142.676L-5.20894 143.078L-2.89787 148.893L-1.12431 149.639L0.499709 154.778L1.28426 156.563L4.61969 157.364L4.36502 160.28L2.9643 161.65L4.15061 163.989L1.59868 166.435L-2.28706 166.385L-7.28417 167.506L-8.60041 166.537L-10.6576 168.579L-13.3365 167.863L-15.5545 169.44L-17.0331 168.372z
M27.8916 142.91L27.1926 141.157L30.4809 138.972L31.7456 140.981L31.0267 144.85L27.8916 142.91z
M-28.0004 159.17L-24.9885 154.861L-25.6253 150.095L-21.544 147.175L-19.3248 145.371L-17.1741 145.455L-14.7236 148.509L-16.4459 151.439L-16.3492 154.695L-18.8677 158.492L-24.1627 160.496L-28.0004 159.17z
M129.458 205.126L131.052 203.886L131.288 203.7L131.124 202.322L133.695 200.716L135.99 197.303L134.879 200.716L135.676 201.347L136.018 201.619L133.537 205.788L131.412 206.353L129.458 205.126z
M32.0316 207.493L30.7045 204.37L31.1491 202.473L33.1205 200.282L34.407 204.293L33.835 208.218L32.0316 207.493z
M32.5215 219.485L31.4932 213.575L30.2417 210.906L32.3021 210.849L33.8968 209.054L36.6801 212.135L37.2636 218.701L35.4763 218.679L34.1742 220.576L32.5215 219.485z
M96.2489 219.261L99.0499 219.917L101.904 218.285L104.89 217.272L105.188 218.127L106.984 216.56L107.184 218.163L101.852 221.187L101.533 220.393L96.4149 221.581L96.2489 219.261z
M57.6516 225.597L55.5161 225.567L49.4502 224.333L49.4336 221.681L54.0601 221.073L57.8474 219.545L60.6334 218.335L60.2997 222.55L61.296 223.909L61.1577 226.661L57.6516 225.597"/>
<path fill="rgb(114,163,255)" d="M159.718 230.295l-0.43933 0.313763l-1.10572 -2.9255l-0.923651 -1.70326l-0.765309 -2.13334l-0.582839 -0.556774l0.152873 2.57089l1.50217 4.01406l0.526437 3.13434l-0.406746 1.44678l-2.3596 -0.580899l-3.19662 -0.852506l-7.12688 -4.75588l-0.146073 0.676458l4.77682 3.80694l5.54461 3.03194l4.54985 2.94082v-8.42782"/>
<path fill="rgb(114,163,255)" d="M65.5792 106.975l-0.369566 -1.38902l1.68481 -0.920918l-0.733234 -1.21099l0.511187 -0.0609279l-0.148908 -0.737428l-1.86051 -1.2599l-4.45435 -0.60271l-0.610594 3.11677l2.04736 0.734984l0.529433 0.764768l2.14426 1.17606l0.488579 0.821028l0.771524 -0.431714"/>
<path fill="rgb(114,163,255)" d="M29.2373 128.376l0.91245 -0.661416l1.10576 -1.59581l-0.0506244 -0.818186l-0.137055 -0.502335l-0.980969 -0.353067l-0.653525 1.09057l-0.23481 0.664948l-0.688955 0.33599l-0.316427 0.401731l0.134057 0.439656l0.0832881 1.19623l0.826814 -0.198313"/>
<path fill="rgb(114,163,255)" d="M71.1348 97.5164l-0.193722 -1.26398l-1.69183 -1.12819l-1.9898 -1.57323l-1.77188 -0.833102l-0.567546 0.0133445l-0.652426 0.38008l1.53353 0.376514l1.10868 0.4421l-0.249298 0.509343l-0.095395 0.342718l-0.789594 -0.268848l-0.727782 -0.312992l0.611741 0.745914l-0.789664 0.185858l0.150147 0.308934l1.23212 1.00373l1.40283 0.690562l0.905702 0.199939l1.48694 0.584584l-0.705944 0.35183l-0.589952 0.403373l1.25294 0.0107705l1.1302 -1.16926"/>
</g>
<g stroke-width="0.5px" stroke="rgb(209,179,139)" fill="none">
<path d="M135.99 197.303l-1.11099 3.41306l0.796188 0.631629l0.342731 0.271137l-2.48095 4.16971l-2.12538 0.564514l-1.95362 -1.22641l1.59357 -1.24068l0.23611 -0.185668l-0.164546 -1.37759l2.57157 -1.60636l2.29533 -3.41334"/>
<path d="M96.2489 219.261l2.80098 0.655429l2.85391 -1.63226l2.9858 -1.01206l0.298849 0.854168l1.79529 -1.56638l0.20009 1.60237l-5.33213 3.02474l-0.318892 -0.794036l-5.11793 1.18726l-0.165953 -2.31923"/>
<path d="M60.6334 218.335l-0.333684 4.21462l0.996296 1.35845l-0.138374 2.75197l-3.50602 -1.0638l-2.13555 -0.0301156l-6.06589 -1.23315l-0.0165859 -2.65224l4.62647 -0.608148l3.78733 -1.52833l2.78601 -1.20925"/>
<path d="M33.8968 209.054l2.78322 3.08073l0.583516 6.5667l-1.78723 -0.0221838l-1.3021 1.89637l-1.65279 -1.09099l-1.02823 -5.90992l-1.25152 -2.66888l2.0604 -0.056511l1.59474 -1.79532"/>
<path d="M34.407 204.293l-0.572029 3.92497l-1.80333 -0.724981l-1.32715 -3.12365l0.44463 -1.89675l1.97142 -2.191l1.28645 4.0114"/>
<path d="M-166.759 82.5463l0.493773 2.39233l1.51009 2.61896l-2.46562 -0.5222l-0.83431 -0.941963l-0.0562558 -4.61783l1.07206 -1.41704l1.83815 0.462644l-1.55787 2.02509"/>
<path d="M-153.453 82.2591l-0.766976 -1.26832l-0.490266 -4.15574l0.745916 -3.46082l0.795484 0.758895l0.710549 4.0239l-0.28631 3.62189l-0.708396 0.480198"/>
<path d="M-138.505 92.9521l-4.43684 0.601078l2.36992 0.753784l0.30051 2.20169l-1.92176 0.0444676l0.473057 2.91963l1.72415 0.482101l0.61582 3.26933l-3.30217 1.25697l1.92367 1.25669l-1.73924 1.80333l-1.72785 2.53599l-4.11454 1.42477l-1.01677 -1.07008l-0.535365 -2.24226l3.52073 -1.69545l-0.0329686 -1.06096l-5.45836 -0.672944l-0.947157 -1.67871l3.09852 0.617673l-0.767889 -3.15503l-2.09462 -2.68816l-3.10345 -5.29649l0.94655 -1.12289l2.41053 0.824349l0.39248 -1.80732l3.72781 0.748944l7.8612 -1.30942l3.16366 0.0817867l2.68299 1.1826l0.577803 1.19985l-1.33415 0.248554l-3.25627 0.346138"/>
<path d="M-18.8677 158.492l-5.29502 2.00418l-3.83765 -1.32548l3.01186 -4.30909l-0.636783 -4.76596l4.0813 -2.91977l2.21922 -1.80431l2.15063 0.0838483l2.45055 3.05439l-1.72226 2.92944l0.0966783 3.25654l-2.51853 3.79622"/>
<path d="M31.7456 140.981l-0.718873 3.86921l-3.13512 -1.94025l-0.699052 -1.75293l3.28833 -2.18554l1.26471 2.00951"/>
<path d="M-6.87317 130.929l-2.77992 4.60658l2.44374 -0.454261l2.58366 0.136204l-0.754925 3.58146l-2.39392 3.87737l2.5656 0.40124l2.31107 5.81552l1.77355 0.74538l1.62402 5.13986l0.784547 1.7842l3.33543 0.801453l-0.254668 2.91625l-1.40072 1.36931l1.18631 2.33931l-2.55193 2.4462l-3.88574 -0.0505235l-4.99711 1.12133l-1.31624 -0.968729l-2.0572 2.04134l-2.67885 -0.715173l-2.21809 1.57701l-1.47852 -1.06809l4.67759 -4.43207l2.62156 -0.813953l-4.39783 -1.09052l-0.633231 -1.88029l3.02711 -1.16519l-1.31568 -2.55801l0.755633 -2.9133l3.96837 0.676282l0.530448 -2.5959l-1.63243 -2.93208l-3.0814 -1.02006l-0.50666 -1.26157l1.09321 -1.9126l-0.72082 -1.29612l-1.55049 1.97696l0.274505 -4.29365l-0.998144 -2.38138l1.33937 -4.46059l2.13031 -3.388l1.79602 0.494099l2.78245 -0.195314"/>
<path d="M-24.3814 94.2167l-1.08052 2.56535l1.22844 3.31254l-3.10456 2.5782l-6.03125 1.2949l-1.81081 0.229241l-2.16841 -1.43087l-4.43215 -3.19384l2.42029 -1.05714l-2.86304 -3.47926l3.26958 0.491826l0.402756 -1.19034l-3.0201 -2.37956l2.20045 -2.05799l2.62868 0.426866l1.45528 3.67027l3.26205 -1.2894l1.67548 1.82695l3.33412 -1.35267l2.63371 1.03494"/>
<path d="M-118.125 61.4856l-3.44632 4.80676l-2.9202 0.463217l-0.602857 4.11005l-1.07438 3.24704l1.12915 4.09615l-0.320433 2.16819l-2.63274 2.94286l0.646756 2.06565l-0.806608 1.84972l-4.10193 3.03903l-2.56129 -0.734168l-2.45814 -0.825138l-3.8862 -3.14055l-5.11552 -1.23484l-3.08382 -3.99716l-2.02312 -6.05803l-1.86348 -4.00414l-1.53831 -2.65346l-4.02729 -0.987066l-3.35426 -2.79727l-7.35396 -1.98687l-5.31185 -2.01269l1.63499 2.32331l7.54554 2.58492l6.03733 4.47726l2.28182 3.94881l-0.901244 3.41442l-4.0818 -1.30085l-4.15534 3.04941l-2.76495 2.48201l-0.237501 4.88384l3.14648 4.52396l6.22794 0.282377l-2.86699 1.88198l-0.431348 2.69406l-4.7399 -2.04143l-6.00802 -5.28882l-3.24046 -2.18475l-4.78595 -2.03083l-0.767233 -2.56495l3.66817 -1.76687l6.04706 3.68909l-2.39084 -4.80702l-2.01658 -3.19538l-1.21394 1.14791l-3.53763 -2.47846l-2.83883 -2.68974l-2.61539 -2.94106l-3.65376 -0.839759l-0.900275 -0.154995l-2.44594 0.812433l-2.04453 1.98469l0.395187 1.46581l1.54709 -0.964464l-0.647829 1.39309l-1.41349 0.205345l-1.58147 -2.06261l-0.487876 -1.69784l-1.6752 -2.30923l-0.727637 -1.45122l-0.874079 -1.97634l-2.25287 -2.55094l2.48275 4.94201l-0.548688 1.33285l-2.97046 -4.54702l-0.680861 -2.28752l0.61187 -0.0601305l-1.62847 -0.72259l0.0851946 1.12683l-3.65034 0.189462"/>
<path d="M159.279 230.609l-1.10572 -2.9255l-0.923651 -1.70326l-0.765309 -2.13334l-0.582839 -0.556774l0.152873 2.57089l1.50217 4.01406l0.526437 3.13434l-0.406746 1.44678l-2.3596 -0.580899l-3.19662 -0.852506l-7.12688 -4.75588l-0.146073 0.676458l4.77682 3.80694l5.54461 3.03194"/>
<path d="M-61.2526 273.607l4.57221 0.359227l4.48664 -2.95052l2.63717 -0.992645l4.69688 -3.80278l-0.0148 -6.82157l2.4751 -4.24718l1.04936 -2.662l3.37457 -3.07916l4.69233 -1.75159l3.46897 -1.73705l3.45507 -5.01831l1.64934 -3.01033l3.05648 0.322244l2.33213 2.39618l4.01855 -0.0690755l4.29885 1.37692l1.83234 0.131037l4.12166 -2.69833l4.51947 -0.840884l2.60929 -2.12503l3.9328 -1.62402l6.89031 -1.18806l6.70166 -0.882247l2.11817 0.572717l3.61212 -2.38399l4.29635 -0.552012l1.79334 0.957904l2.71331 -0.697794l4.03736 -2.71334l2.88911 0.115992l0.338327 2.55554l3.04987 -2.47742l0.471357 0.903391l-1.53984 2.84134l0.408426 2.3355l1.65634 0.985084l0.298542 4.49707l-2.29512 3.08307l1.31551 2.65467l2.22983 -0.32551l1.55669 2.24044l1.80439 0.478208l5.46592 0.688289l1.71677 -0.858552l3.81586 -0.00924646l6.34059 0.799501l3.31203 4.00444l4.24327 -0.146379l6.87874 0.215911l5.55828 0.968244l1.68321 -2.07819l1.24832 -3.0866l-2.40239 -3.49623l0.447156 -2.91974l2.14897 -3.45631l2.59352 -1.77957l5.98143 -1.27303l2.33454 1.58354l1.54608 -0.645382l1.67947 0.25243l4.34902 -1.28876l1.75005 1.12897l5.41871 -2.72059l4.5609 -0.732619l4.77325 -0.737098l2.27745 -0.290311l2.26083 -3.22214l0.868702 -2.27201l3.2417 -2.42429l3.12452 -1.11106l2.46779 1.60308l-0.0274724 -2.05434l3.78796 -0.915783l3.16953 -1.72409l1.11926 -2.3893l0.100796 -2.20893l-0.428611 -0.072922l-0.429735 -2.73345l-1.54259 -3.8036l-0.248366 -1.45799l0.0687804 -0.114056l-1.19942 -4.39311l-0.40548 -4.23463l-0.0412 -0.193541l-2.6469 -2.97513l-0.417258 -2.3166l-2.60189 -0.987659l0.132495 -2.46879l-1.77082 1.81653l-3.47503 1.01043l-0.671137 4.02124l-4.93425 3.92755l-4.2844 -0.554012l-3.86513 2.13663l0.259684 2.30805l-2.16837 1.95762l-4.80405 -0.434223l-3.89483 2.1915l-4.45263 -3.38722l-3.85608 -1.19514l-0.0389731 -4.34496l-3.2581 -1.04176l1.63536 -6.13839l5.02076 -2.89914l-0.448393 -4.03449l6.42354 -2.98475l2.08706 -5.03283l2.80781 -3.46519l4.89518 -3.46955l7.18826 -0.964414l5.36706 -1.73704l2.88739 -3.3075l2.72976 -1.71339l1.60972 -4.79233l-0.981847 -1.92476l-2.87821 -1.88801l-2.7255 0.00745898l-1.85083 0.85243l-1.94104 -0.301205l-6.00179 -0.342652l-4.18636 0.986117l-4.02062 -0.476156l1.48723 -2.07581l-0.26604 -4.81896l-2.58691 -0.354514l2.52878 -4.45846l-0.714983 -0.744799l-1.76574 2.38393l-1.79105 1.86717l-0.790199 2.50873l-2.29523 1.9949l-1.26626 3.05908l1.84956 2.30549l1.9932 -0.00436012l2.58706 -2.23403l0.482719 1.75663l-2.51232 2.83l-2.23592 4.90306l-2.12368 0.240867l-0.614347 -2.28744l-3.83947 0.829944l0.00642412 -1.08693l1.79836 -3.05805l-1.39421 -0.380461l-4.93731 1.72892l-1.1157 -1.38046l-2.26564 2.05237l0.280024 2.85962l-0.471723 4.32765l0.675381 1.02994l-0.924257 1.70026l-1.11688 0.107633l1.93702 5.53898l-0.652111 2.62225l0.474437 3.67209l2.32631 1.91409l1.26654 1.45604l3.57506 -0.142197l-0.00743386 1.37975l-3.75614 2.32216l-0.710347 2.08455l-1.60449 3.7923l-2.08084 -1.54243l-0.401427 -0.937089l-2.1064 0.860831l-1.95621 0.405046l-3.58843 3.02803l3.51632 1.47316l-1.42905 1.52697l-1.93933 0.853432l-2.84008 -1.56202l-0.233453 1.27511l1.92945 2.40523l2.68998 1.39521l-0.914019 1.58307l2.9131 1.26269l2.37412 0.547562l1.21598 2.5802l-3.92161 0.250212l2.10433 1.90386l-2.1463 1.49403l3.17742 3.53698l-2.49493 1.11866l-3.94769 -0.79488l-2.89797 -3.22461l-1.86302 -2.87737l-2.25545 -1.60944l-2.86102 -1.97498l-0.733775 -1.24235l-0.731025 -0.103789l-0.445149 -1.00126l-2.53938 -0.859885l-1.08912 -2.11254l-0.816499 -3.26987l-0.0358234 -1.60153l-0.834993 -0.522446l-0.843539 -0.105731l-1.4783 -1.17475l-1.78141 -0.418836l-3.74937 -0.672884l-2.47743 -1.05795l-3.48895 -0.466195l-3.76338 -2.62779l0.57454 -0.527992l-2.02991 -1.53826l-0.475885 -1.54233l-2.28206 -0.18388l-0.50065 2.25102l-1.35011 -1.31543l-0.317742 -1.62415l0.0970771 -0.102862l0.616679 -0.596576l-2.73169 -0.0536355l-2.26852 2.24236l0.688231 2.27311l-0.115476 1.42048l1.62372 2.14275l3.72031 1.62726l2.67677 3.46224l4.86354 2.78991l2.73428 -0.791619l1.15116 0.793118l-0.717685 1.22118l3.66528 0.773714l3.04315 0.619035l3.8498 1.45837l0.663632 0.753816l-0.11349 1.90944l-2.71988 -1.54985l-3.36899 0.196697l-0.609477 3.52898l3.1867 0.965086l0.327981 2.62639l-1.47322 0.755786l-0.802911 4.72999l-1.48968 0.828328l-0.40153 -1.48897l0.0389046 -2.81051l0.519521 -1.26166l-2.24475 -2.36877l-1.79484 -2.10082l-1.68128 -0.184159l-1.62182 -1.77819l-2.55106 -0.271895l-2.03389 -1.53557l-2.7347 0.317177l-3.28135 -1.53964l-3.89064 -2.44274l-2.91315 -2.29111l-1.93509 -4.50047l-1.79297 -0.252959l-3.02017 -1.11126l-1.4651 0.878177l-1.66294 2.49239l-1.38731 0.542886l-2.82395 3.09549l-7.03966 -0.632422l-5.01561 1.90817l-0.251985 2.94078l0.341602 2.81894l-3.32464 3.41555l-4.71852 1.15906l-0.310206 1.66207l-2.29476 2.75726l-1.4802 4.04547l1.5112 2.86093l-2.28014 2.23324l-0.893401 3.27217l-3.04941 0.952299l-2.99485 3.81922l-5.19312 -0.174624l-3.88588 -0.361786l-2.71153 1.58902l-1.74993 1.78615l-1.98104 -0.623196l-1.34021 -1.88255l-0.827465 -3.04634l-3.66747 -1.24402l-1.7958 1.0917l-2.0241 -1.0118l-2.16058 0.238094l1.2191 -3.83141l0.104922 -3.12324l-1.67126 -0.736476l-0.614984 -2.03073l0.844153 -3.17711l1.80032 -1.53811l0.580952 -1.93887l1.2337 -2.81596l0.237158 -2.07356l-0.455396 -1.85537l0.0997025 -1.65487l0.723311 -3.40011l-1.0995 -2.31019l5.43672 -2.69706l4.12175 1.41087l4.67047 0.466646l3.64319 1.13848l2.9227 -0.0526041l5.65368 0.426893l1.88313 -2.8378l0.856432 -9.49369l-3.20276 -5.05454l-2.23856 -2.47972l-4.68395 -2.11072l-0.0421301 -3.41541l4.03277 -0.736348l5.09197 1.41584l-0.797195 -5.27816l2.78225 2.05705l6.94409 -3.62553l0.78 -3.79034l2.48515 -1.01583l2.2489 -1.01952l1.38597 -1.34461l1.92825 -6.85552l3.50426 -2.23237l2.23368 -0.125863l0.402987 -1.01232l2.1803 -0.535281l0.630446 0.91596l1.46331 -2.46606l-0.849581 -1.5765l-0.495916 -2.49982l-1.38419 -2.30637l-0.716719 -4.49916l0.231887 -1.24457l0.491568 -1.41706l2.04842 -0.601938l0.624178 -1.34332l1.655 -1.56431l0.337383 2.25019l-0.441006 1.54886l0.50971 1.17032l1.42991 0.415979l-0.27894 1.76179l-0.814799 -0.340748l-1.21805 3.47605l1.05394 2.0296l0.34432 1.69935l2.78364 0.551252l0.276034 1.57388l2.46326 -1.36133l1.17938 -1.51682l3.29091 1.05947l1.56129 1.09258l1.42645 -1.73486l3.38857 -3.10508l2.68116 -2.40732l2.69049 -0.0828064l0.536521 0.975285l2.39994 -0.774618l-0.111476 -2.05892l2.80639 -2.60579l-1.85518 -3.30711l-1.12404 -3.15387l0.0891656 -3.02216l1.50301 -2.2375l3.03154 2.30709l1.73769 -0.857466l-0.975546 -3.28539l-0.826645 -2.48071l-0.547707 0.855032l-1.96743 -0.842053l-1.18206 -2.23779l2.08661 -2.26354l2.25828 -1.76692l2.47868 -0.423608l1.97725 -1.17385l1.04456 -3.3189l-2.98258 -0.736132l-3.31077 2.08862l-2.75547 3.0769l-2.88942 2.27296l-2.07649 -1.71503l-2.45719 -0.557624l-1.13012 -4.15292l-2.33172 -3.27935l-0.039569 -2.67989l0.601787 -3.15588l2.02913 -5.95673l0.713334 -1.32112l-0.940671 -1.55298l-3.05027 -0.818285l-2.28606 2.28293l-0.501603 3.40562l1.21783 2.33871l-1.58836 4.28199l-2.35732 4.7163l0.42181 6.25654l2.35163 2.47137l2.71773 1.64887l-0.383229 5.32878l-1.94976 1.68586l1.26346 7.35486l-0.176168 4.38405l-3.01568 0.377565l-0.495703 3.77911l-2.81095 0.887588l-1.70903 -3.93528l-3.04735 -4.49054l-2.96712 -5.75918l-1.9806 -2.36532l-3.59309 5.73944l-2.92896 1.43883l-3.42521 -1.87388l-1.25214 -4.61748l-1.56965 -9.94169l1.57812 -2.94453l4.66331 -4.23817l2.93344 -4.98476l2.03628 -6.48644l1.97834 -8.91022l1.67784 -3.77042l2.29994 -6.28679l2.31499 -2.81611l2.24792 -0.676057l0.53873 -4.03412l2.32395 -0.901396l1.78444 -1.85804l5.26023 0.525906l-0.993741 1.89471l2.70697 1.46825l0.513088 -2.03326l3.4041 0.823092l3.92943 -1.54025l7.54622 0.108381l2.24644 0.722108l1.9381 2.0561l0.0247809 2.91897l-1.46212 2.6579l-8.04766 1.87805l-0.729718 1.13236l4.05739 1.02215l3.82008 5.07509l2.71047 -0.331581l1.84597 0.01634l-1.06088 -1.80567l-2.06344 -0.838729l0.0225751 -1.95679l5.10062 -0.643998l0.511997 -1.79188l-2.94103 -1.61483l0.319338 -5.7976l1.32102 -0.880214l2.18523 -0.0220942l-1.32894 -2.7852l-2.75111 -0.856001l-1.18978 -2.37005l-2.64516 -1.09494l4.03664 -2.10523l2.34319 0.97235l-1.03565 1.83399l1.69212 1.64391l1.95876 0.0657672l1.08614 -2.52282l-1.7426 -2.10836"/>
<path d="M158.057 126.435l-4.3624 -1.49203l-2.14686 0.699724l-1.27499 -0.909222l2.45111 -2.2845l-2.64552 -2.28621l1.15628 -2.71565l2.34138 -1.8911l-3.34856 -3.25696l-2.68355 -1.2892l-1.78121 2.69996l-2.59857 1.42966l-0.768224 4.20043l-1.21312 2.95076l1.13196 2.9759l-1.56143 2.91735l1.33781 5.7997l5.47388 0.804821l2.16861 2.45324l6.88812 0.914395"/>
<path d="M59.598 103.91l2.04736 0.734984l0.529433 0.764768l2.14426 1.17606l0.488579 0.821028l0.771524 -0.431714l-0.369566 -1.38902l1.68481 -0.920918l-0.733234 -1.21099l0.511187 -0.0609279l-0.148908 -0.737428l-1.86051 -1.2599l-4.45435 -0.60271l-0.610594 3.11677"/>
<path d="M31.0678 124.798l-0.980969 -0.353067l-0.653525 1.09057l-0.23481 0.664948l-0.688955 0.33599l-0.316427 0.401731l0.134057 0.439656l0.0832881 1.19623l0.826814 -0.198313l0.91245 -0.661416l1.10576 -1.59581l-0.0506244 -0.818186l-0.137055 -0.502335"/>
<path d="M67.2595 93.551l-1.77188 -0.833102l-0.567546 0.0133445l-0.652426 0.38008l1.53353 0.376514l1.10868 0.4421l-0.249298 0.509343l-0.095395 0.342718l-0.789594 -0.268848l-0.727782 -0.312992l0.611741 0.745914l-0.789664 0.185858l0.150147 0.308934l1.23212 1.00373l1.40283 0.690562l0.905702 0.199939l1.48694 0.584584l-0.705944 0.35183l-0.589952 0.403373l1.25294 0.0107705l1.1302 -1.16926l-0.193722 -1.26398l-1.69183 -1.12819l-1.9898 -1.57323"/>
<path d="M-21.3631 60.7558l-2.44864 -0.596495l0.632393 2.05325l-0.8757 1.23839l-1.79706 -0.0143843l-1.54016 -0.636416l0.308104 3.19481l-0.689266 1.72517l-1.61181 -2.57341l-1.05226 0.747307l1.14558 1.65658l0.589643 3.0186l-0.782344 3.32122l-2.60686 -0.211839l-0.323095 -1.91173l-0.503733 -2.88657l-0.798517 2.7672l-2.42492 1.27852l3.31957 1.74783l1.71868 0.979833l-5.05299 1.78081l-5.17921 1.14046l-4.70203 -0.957506l-1.49497 -0.885276l-2.2607 0.499309l-4.37667 2.47146l-4.72048 0.312025l-1.06639 -0.575816l-2.47916 -0.593924l-2.59606 -0.825075l-2.88172 1.02348l-1.97657 2.26081l-2.57248 1.50222l-4.67028 0.433107l-1.69159 3.03398l-3.11486 2.00821l-3.70684 2.35507l-2.39047 -1.94463l0.315956 -4.75784l-2.85813 -3.12636l0.449467 -3.10114l2.33597 -3.77894l2.00694 -6.01541l1.61089 -2.47826l2.88545 -2.55302l1.67449 -4.31567"/>
</g>
</g>
</g>
</g>
<g inkscape:groupmode="layer" inkscape:label="Coastline" id="Coastline"><title>Coastline</title>
<g>
<g id="drawing" transform="translate(230.33,-274.496)">
<g stroke-width="0.5px" stroke="rgb(0,0,0)" fill="none">
<path d="M135.99 197.303l-1.11099 3.41306l0.796188 0.631629l0.342731 0.271137l-2.48095 4.16971l-2.12538 0.564514l-1.95362 -1.22641l1.59357 -1.24068l0.23611 -0.185668l-0.164546 -1.37759l2.57157 -1.60636l2.29533 -3.41334"/>
<path d="M96.2489 219.261l2.80098 0.655429l2.85391 -1.63226l2.9858 -1.01206l0.298849 0.854168l1.79529 -1.56638l0.20009 1.60237l-5.33213 3.02474l-0.318892 -0.794036l-5.11793 1.18726l-0.165953 -2.31923"/>
<path d="M60.6334 218.335l-0.333684 4.21462l0.996296 1.35845l-0.138374 2.75197l-3.50602 -1.0638l-2.13555 -0.0301156l-6.06589 -1.23315l-0.0165859 -2.65224l4.62647 -0.608148l3.78733 -1.52833l2.78601 -1.20925"/>
<path d="M33.8968 209.054l2.78322 3.08073l0.583516 6.5667l-1.78723 -0.0221838l-1.3021 1.89637l-1.65279 -1.09099l-1.02823 -5.90992l-1.25152 -2.66888l2.0604 -0.056511l1.59474 -1.79532"/>
<path d="M34.407 204.293l-0.572029 3.92497l-1.80333 -0.724981l-1.32715 -3.12365l0.44463 -1.89675l1.97142 -2.191l1.28645 4.0114"/>
<path d="M-166.759 82.5463l0.493773 2.39233l1.51009 2.61896l-2.46562 -0.5222l-0.83431 -0.941963l-0.0562558 -4.61783l1.07206 -1.41704l1.83815 0.462644l-1.55787 2.02509"/>
<path d="M-153.453 82.2591l-0.766976 -1.26832l-0.490266 -4.15574l0.745916 -3.46082l0.795484 0.758895l0.710549 4.0239l-0.28631 3.62189l-0.708396 0.480198"/>
<path d="M-138.505 92.9521l-4.43684 0.601078l2.36992 0.753784l0.30051 2.20169l-1.92176 0.0444676l0.473057 2.91963l1.72415 0.482101l0.61582 3.26933l-3.30217 1.25697l1.92367 1.25669l-1.73924 1.80333l-1.72785 2.53599l-4.11454 1.42477l-1.01677 -1.07008l-0.535365 -2.24226l3.52073 -1.69545l-0.0329686 -1.06096l-5.45836 -0.672944l-0.947157 -1.67871l3.09852 0.617673l-0.767889 -3.15503l-2.09462 -2.68816l-3.10345 -5.29649l0.94655 -1.12289l2.41053 0.824349l0.39248 -1.80732l3.72781 0.748944l7.8612 -1.30942l3.16366 0.0817867l2.68299 1.1826l0.577803 1.19985l-1.33415 0.248554l-3.25627 0.346138"/>
<path d="M-18.8677 158.492l-5.29502 2.00418l-3.83765 -1.32548l3.01186 -4.30909l-0.636783 -4.76596l4.0813 -2.91977l2.21922 -1.80431l2.15063 0.0838483l2.45055 3.05439l-1.72226 2.92944l0.0966783 3.25654l-2.51853 3.79622"/>
<path d="M31.7456 140.981l-0.718873 3.86921l-3.13512 -1.94025l-0.699052 -1.75293l3.28833 -2.18554l1.26471 2.00951"/>
<path d="M-6.87317 130.929l-2.77992 4.60658l2.44374 -0.454261l2.58366 0.136204l-0.754925 3.58146l-2.39392 3.87737l2.5656 0.40124l2.31107 5.81552l1.77355 0.74538l1.62402 5.13986l0.784547 1.7842l3.33543 0.801453l-0.254668 2.91625l-1.40072 1.36931l1.18631 2.33931l-2.55193 2.4462l-3.88574 -0.0505235l-4.99711 1.12133l-1.31624 -0.968729l-2.0572 2.04134l-2.67885 -0.715173l-2.21809 1.57701l-1.47852 -1.06809l4.67759 -4.43207l2.62156 -0.813953l-4.39783 -1.09052l-0.633231 -1.88029l3.02711 -1.16519l-1.31568 -2.55801l0.755633 -2.9133l3.96837 0.676282l0.530448 -2.5959l-1.63243 -2.93208l-3.0814 -1.02006l-0.50666 -1.26157l1.09321 -1.9126l-0.72082 -1.29612l-1.55049 1.97696l0.274505 -4.29365l-0.998144 -2.38138l1.33937 -4.46059l2.13031 -3.388l1.79602 0.494099l2.78245 -0.195314"/>
<path d="M-24.3814 94.2167l-1.08052 2.56535l1.22844 3.31254l-3.10456 2.5782l-6.03125 1.2949l-1.81081 0.229241l-2.16841 -1.43087l-4.43215 -3.19384l2.42029 -1.05714l-2.86304 -3.47926l3.26958 0.491826l0.402756 -1.19034l-3.0201 -2.37956l2.20045 -2.05799l2.62868 0.426866l1.45528 3.67027l3.26205 -1.2894l1.67548 1.82695l3.33412 -1.35267l2.63371 1.03494"/>
<path d="M-118.125 61.4856l-3.44632 4.80676l-2.9202 0.463217l-0.602857 4.11005l-1.07438 3.24704l1.12915 4.09615l-0.320433 2.16819l-2.63274 2.94286l0.646756 2.06565l-0.806608 1.84972l-4.10193 3.03903l-2.56129 -0.734168l-2.45814 -0.825138l-3.8862 -3.14055l-5.11552 -1.23484l-3.08382 -3.99716l-2.02312 -6.05803l-1.86348 -4.00414l-1.53831 -2.65346l-4.02729 -0.987066l-3.35426 -2.79727l-7.35396 -1.98687l-5.31185 -2.01269l1.63499 2.32331l7.54554 2.58492l6.03733 4.47726l2.28182 3.94881l-0.901244 3.41442l-4.0818 -1.30085l-4.15534 3.04941l-2.76495 2.48201l-0.237501 4.88384l3.14648 4.52396l6.22794 0.282377l-2.86699 1.88198l-0.431348 2.69406l-4.7399 -2.04143l-6.00802 -5.28882l-3.24046 -2.18475l-4.78595 -2.03083l-0.767233 -2.56495l3.66817 -1.76687l6.04706 3.68909l-2.39084 -4.80702l-2.01658 -3.19538l-1.21394 1.14791l-3.53763 -2.47846l-2.83883 -2.68974l-2.61539 -2.94106l-3.65376 -0.839759l-0.900275 -0.154995l-2.44594 0.812433l-2.04453 1.98469l0.395187 1.46581l1.54709 -0.964464l-0.647829 1.39309l-1.41349 0.205345l-1.58147 -2.06261l-0.487876 -1.69784l-1.6752 -2.30923l-0.727637 -1.45122l-0.874079 -1.97634l-2.25287 -2.55094l2.48275 4.94201l-0.548688 1.33285l-2.97046 -4.54702l-0.680861 -2.28752l0.61187 -0.0601305l-1.62847 -0.72259l0.0851946 1.12683l-3.65034 0.189462"/>
<path d="M159.279 230.609l-1.10572 -2.9255l-0.923651 -1.70326l-0.765309 -2.13334l-0.582839 -0.556774l0.152873 2.57089l1.50217 4.01406l0.526437 3.13434l-0.406746 1.44678l-2.3596 -0.580899l-3.19662 -0.852506l-7.12688 -4.75588l-0.146073 0.676458l4.77682 3.80694l5.54461 3.03194"/>
<path d="M-61.2526 273.607l4.57221 0.359227l4.48664 -2.95052l2.63717 -0.992645l4.69688 -3.80278l-0.0148 -6.82157l2.4751 -4.24718l1.04936 -2.662l3.37457 -3.07916l4.69233 -1.75159l3.46897 -1.73705l3.45507 -5.01831l1.64934 -3.01033l3.05648 0.322244l2.33213 2.39618l4.01855 -0.0690755l4.29885 1.37692l1.83234 0.131037l4.12166 -2.69833l4.51947 -0.840884l2.60929 -2.12503l3.9328 -1.62402l6.89031 -1.18806l6.70166 -0.882247l2.11817 0.572717l3.61212 -2.38399l4.29635 -0.552012l1.79334 0.957904l2.71331 -0.697794l4.03736 -2.71334l2.88911 0.115992l0.338327 2.55554l3.04987 -2.47742l0.471357 0.903391l-1.53984 2.84134l0.408426 2.3355l1.65634 0.985084l0.298542 4.49707l-2.29512 3.08307l1.31551 2.65467l2.22983 -0.32551l1.55669 2.24044l1.80439 0.478208l5.46592 0.688289l1.71677 -0.858552l3.81586 -0.00924646l6.34059 0.799501l3.31203 4.00444l4.24327 -0.146379l6.87874 0.215911l5.55828 0.968244l1.68321 -2.07819l1.24832 -3.0866l-2.40239 -3.49623l0.447156 -2.91974l2.14897 -3.45631l2.59352 -1.77957l5.98143 -1.27303l2.33454 1.58354l1.54608 -0.645382l1.67947 0.25243l4.34902 -1.28876l1.75005 1.12897l5.41871 -2.72059l4.5609 -0.732619l4.77325 -0.737098l2.27745 -0.290311l2.26083 -3.22214l0.868702 -2.27201l3.2417 -2.42429l3.12452 -1.11106l2.46779 1.60308l-0.0274724 -2.05434l3.78796 -0.915783l3.16953 -1.72409l1.11926 -2.3893l0.100796 -2.20893l-0.428611 -0.072922l-0.429735 -2.73345l-1.54259 -3.8036l-0.248366 -1.45799l0.0687804 -0.114056l-1.19942 -4.39311l-0.40548 -4.23463l-0.0412 -0.193541l-2.6469 -2.97513l-0.417258 -2.3166l-2.60189 -0.987659l0.132495 -2.46879l-1.77082 1.81653l-3.47503 1.01043l-0.671137 4.02124l-4.93425 3.92755l-4.2844 -0.554012l-3.86513 2.13663l0.259684 2.30805l-2.16837 1.95762l-4.80405 -0.434223l-3.89483 2.1915l-4.45263 -3.38722l-3.85608 -1.19514l-0.0389731 -4.34496l-3.2581 -1.04176l1.63536 -6.13839l5.02076 -2.89914l-0.448393 -4.03449l6.42354 -2.98475l2.08706 -5.03283l2.80781 -3.46519l4.89518 -3.46955l7.18826 -0.964414l5.36706 -1.73704l2.88739 -3.3075l2.72976 -1.71339l1.60972 -4.79233l-0.981847 -1.92476l-2.87821 -1.88801l-2.7255 0.00745898l-1.85083 0.85243l-1.94104 -0.301205l-6.00179 -0.342652l-4.18636 0.986117l-4.02062 -0.476156l1.48723 -2.07581l-0.26604 -4.81896l-2.58691 -0.354514l2.52878 -4.45846l-0.714983 -0.744799l-1.76574 2.38393l-1.79105 1.86717l-0.790199 2.50873l-2.29523 1.9949l-1.26626 3.05908l1.84956 2.30549l1.9932 -0.00436012l2.58706 -2.23403l0.482719 1.75663l-2.51232 2.83l-2.23592 4.90306l-2.12368 0.240867l-0.614347 -2.28744l-3.83947 0.829944l0.00642412 -1.08693l1.79836 -3.05805l-1.39421 -0.380461l-4.93731 1.72892l-1.1157 -1.38046l-2.26564 2.05237l0.280024 2.85962l-0.471723 4.32765l0.675381 1.02994l-0.924257 1.70026l-1.11688 0.107633l1.93702 5.53898l-0.652111 2.62225l0.474437 3.67209l2.32631 1.91409l1.26654 1.45604l3.57506 -0.142197l-0.00743386 1.37975l-3.75614 2.32216l-0.710347 2.08455l-1.60449 3.7923l-2.08084 -1.54243l-0.401427 -0.937089l-2.1064 0.860831l-1.95621 0.405046l-3.58843 3.02803l3.51632 1.47316l-1.42905 1.52697l-1.93933 0.853432l-2.84008 -1.56202l-0.233453 1.27511l1.92945 2.40523l2.68998 1.39521l-0.914019 1.58307l2.9131 1.26269l2.37412 0.547562l1.21598 2.5802l-3.92161 0.250212l2.10433 1.90386l-2.1463 1.49403l3.17742 3.53698l-2.49493 1.11866l-3.94769 -0.79488l-2.89797 -3.22461l-1.86302 -2.87737l-2.25545 -1.60944l-2.86102 -1.97498l-0.733775 -1.24235l-0.731025 -0.103789l-0.445149 -1.00126l-2.53938 -0.859885l-1.08912 -2.11254l-0.816499 -3.26987l-0.0358234 -1.60153l-0.834993 -0.522446l-0.843539 -0.105731l-1.4783 -1.17475l-1.78141 -0.418836l-3.74937 -0.672884l-2.47743 -1.05795l-3.48895 -0.466195l-3.76338 -2.62779l0.57454 -0.527992l-2.02991 -1.53826l-0.475885 -1.54233l-2.28206 -0.18388l-0.50065 2.25102l-1.35011 -1.31543l-0.317742 -1.62415l0.0970771 -0.102862l0.616679 -0.596576l-2.73169 -0.0536355l-2.26852 2.24236l0.688231 2.27311l-0.115476 1.42048l1.62372 2.14275l3.72031 1.62726l2.67677 3.46224l4.86354 2.78991l2.73428 -0.791619l1.15116 0.793118l-0.717685 1.22118l3.66528 0.773714l3.04315 0.619035l3.8498 1.45837l0.663632 0.753816l-0.11349 1.90944l-2.71988 -1.54985l-3.36899 0.196697l-0.609477 3.52898l3.1867 0.965086l0.327981 2.62639l-1.47322 0.755786l-0.802911 4.72999l-1.48968 0.828328l-0.40153 -1.48897l0.0389046 -2.81051l0.519521 -1.26166l-2.24475 -2.36877l-1.79484 -2.10082l-1.68128 -0.184159l-1.62182 -1.77819l-2.55106 -0.271895l-2.03389 -1.53557l-2.7347 0.317177l-3.28135 -1.53964l-3.89064 -2.44274l-2.91315 -2.29111l-1.93509 -4.50047l-1.79297 -0.252959l-3.02017 -1.11126l-1.4651 0.878177l-1.66294 2.49239l-1.38731 0.542886l-2.82395 3.09549l-7.03966 -0.632422l-5.01561 1.90817l-0.251985 2.94078l0.341602 2.81894l-3.32464 3.41555l-4.71852 1.15906l-0.310206 1.66207l-2.29476 2.75726l-1.4802 4.04547l1.5112 2.86093l-2.28014 2.23324l-0.893401 3.27217l-3.04941 0.952299l-2.99485 3.81922l-5.19312 -0.174624l-3.88588 -0.361786l-2.71153 1.58902l-1.74993 1.78615l-1.98104 -0.623196l-1.34021 -1.88255l-0.827465 -3.04634l-3.66747 -1.24402l-1.7958 1.0917l-2.0241 -1.0118l-2.16058 0.238094l1.2191 -3.83141l0.104922 -3.12324l-1.67126 -0.736476l-0.614984 -2.03073l0.844153 -3.17711l1.80032 -1.53811l0.580952 -1.93887l1.2337 -2.81596l0.237158 -2.07356l-0.455396 -1.85537l0.0997025 -1.65487l0.723311 -3.40011l-1.0995 -2.31019l5.43672 -2.69706l4.12175 1.41087l4.67047 0.466646l3.64319 1.13848l2.9227 -0.0526041l5.65368 0.426893l1.88313 -2.8378l0.856432 -9.49369l-3.20276 -5.05454l-2.23856 -2.47972l-4.68395 -2.11072l-0.0421301 -3.41541l4.03277 -0.736348l5.09197 1.41584l-0.797195 -5.27816l2.78225 2.05705l6.94409 -3.62553l0.78 -3.79034l2.48515 -1.01583l2.2489 -1.01952l1.38597 -1.34461l1.92825 -6.85552l3.50426 -2.23237l2.23368 -0.125863l0.402987 -1.01232l2.1803 -0.535281l0.630446 0.91596l1.46331 -2.46606l-0.849581 -1.5765l-0.495916 -2.49982l-1.38419 -2.30637l-0.716719 -4.49916l0.231887 -1.24457l0.491568 -1.41706l2.04842 -0.601938l0.624178 -1.34332l1.655 -1.56431l0.337383 2.25019l-0.441006 1.54886l0.50971 1.17032l1.42991 0.415979l-0.27894 1.76179l-0.814799 -0.340748l-1.21805 3.47605l1.05394 2.0296l0.34432 1.69935l2.78364 0.551252l0.276034 1.57388l2.46326 -1.36133l1.17938 -1.51682l3.29091 1.05947l1.56129 1.09258l1.42645 -1.73486l3.38857 -3.10508l2.68116 -2.40732l2.69049 -0.0828064l0.536521 0.975285l2.39994 -0.774618l-0.111476 -2.05892l2.80639 -2.60579l-1.85518 -3.30711l-1.12404 -3.15387l0.0891656 -3.02216l1.50301 -2.2375l3.03154 2.30709l1.73769 -0.857466l-0.975546 -3.28539l-0.826645 -2.48071l-0.547707 0.855032l-1.96743 -0.842053l-1.18206 -2.23779l2.08661 -2.26354l2.25828 -1.76692l2.47868 -0.423608l1.97725 -1.17385l1.04456 -3.3189l-2.98258 -0.736132l-3.31077 2.08862l-2.75547 3.0769l-2.88942 2.27296l-2.07649 -1.71503l-2.45719 -0.557624l-1.13012 -4.15292l-2.33172 -3.27935l-0.039569 -2.67989l0.601787 -3.15588l2.02913 -5.95673l0.713334 -1.32112l-0.940671 -1.55298l-3.05027 -0.818285l-2.28606 2.28293l-0.501603 3.40562l1.21783 2.33871l-1.58836 4.28199l-2.35732 4.7163l0.42181 6.25654l2.35163 2.47137l2.71773 1.64887l-0.383229 5.32878l-1.94976 1.68586l1.26346 7.35486l-0.176168 4.38405l-3.01568 0.377565l-0.495703 3.77911l-2.81095 0.887588l-1.70903 -3.93528l-3.04735 -4.49054l-2.96712 -5.75918l-1.9806 -2.36532l-3.59309 5.73944l-2.92896 1.43883l-3.42521 -1.87388l-1.25214 -4.61748l-1.56965 -9.94169l1.57812 -2.94453l4.66331 -4.23817l2.93344 -4.98476l2.03628 -6.48644l1.97834 -8.91022l1.67784 -3.77042l2.29994 -6.28679l2.31499 -2.81611l2.24792 -0.676057l0.53873 -4.03412l2.32395 -0.901396l1.78444 -1.85804l5.26023 0.525906l-0.993741 1.89471l2.70697 1.46825l0.513088 -2.03326l3.4041 0.823092l3.92943 -1.54025l7.54622 0.108381l2.24644 0.722108l1.9381 2.0561l0.0247809 2.91897l-1.46212 2.6579l-8.04766 1.87805l-0.729718 1.13236l4.05739 1.02215l3.82008 5.07509l2.71047 -0.331581l1.84597 0.01634l-1.06088 -1.80567l-2.06344 -0.838729l0.0225751 -1.95679l5.10062 -0.643998l0.511997 -1.79188l-2.94103 -1.61483l0.319338 -5.7976l1.32102 -0.880214l2.18523 -0.0220942l-1.32894 -2.7852l-2.75111 -0.856001l-1.18978 -2.37005l-2.64516 -1.09494l4.03664 -2.10523l2.34319 0.97235l-1.03565 1.83399l1.69212 1.64391l1.95876 0.0657672l1.08614 -2.52282l-1.7426 -2.10836"/>
<path d="M158.057 126.435l-4.3624 -1.49203l-2.14686 0.699724l-1.27499 -0.909222l2.45111 -2.2845l-2.64552 -2.28621l1.15628 -2.71565l2.34138 -1.8911l-3.34856 -3.25696l-2.68355 -1.2892l-1.78121 2.69996l-2.59857 1.42966l-0.768224 4.20043l-1.21312 2.95076l1.13196 2.9759l-1.56143 2.91735l1.33781 5.7997l5.47388 0.804821l2.16861 2.45324l6.88812 0.914395"/>
<path d="M59.598 103.91l2.04736 0.734984l0.529433 0.764768l2.14426 1.17606l0.488579 0.821028l0.771524 -0.431714l-0.369566 -1.38902l1.68481 -0.920918l-0.733234 -1.21099l0.511187 -0.0609279l-0.148908 -0.737428l-1.86051 -1.2599l-4.45435 -0.60271l-0.610594 3.11677"/>
<path d="M31.0678 124.798l-0.980969 -0.353067l-0.653525 1.09057l-0.23481 0.664948l-0.688955 0.33599l-0.316427 0.401731l0.134057 0.439656l0.0832881 1.19623l0.826814 -0.198313l0.91245 -0.661416l1.10576 -1.59581l-0.0506244 -0.818186l-0.137055 -0.502335"/>
<path d="M67.2595 93.551l-1.77188 -0.833102l-0.567546 0.0133445l-0.652426 0.38008l1.53353 0.376514l1.10868 0.4421l-0.249298 0.509343l-0.095395 0.342718l-0.789594 -0.268848l-0.727782 -0.312992l0.611741 0.745914l-0.789664 0.185858l0.150147 0.308934l1.23212 1.00373l1.40283 0.690562l0.905702 0.199939l1.48694 0.584584l-0.705944 0.35183l-0.589952 0.403373l1.25294 0.0107705l1.1302 -1.16926l-0.193722 -1.26398l-1.69183 -1.12819l-1.9898 -1.57323"/>
<path d="M-21.3631 60.7558l-2.44864 -0.596495l0.632393 2.05325l-0.8757 1.23839l-1.79706 -0.0143843l-1.54016 -0.636416l0.308104 3.19481l-0.689266 1.72517l-1.61181 -2.57341l-1.05226 0.747307l1.14558 1.65658l0.589643 3.0186l-0.782344 3.32122l-2.60686 -0.211839l-0.323095 -1.91173l-0.503733 -2.88657l-0.798517 2.7672l-2.42492 1.27852l3.31957 1.74783l1.71868 0.979833l-5.05299 1.78081l-5.17921 1.14046l-4.70203 -0.957506l-1.49497 -0.885276l-2.2607 0.499309l-4.37667 2.47146l-4.72048 0.312025l-1.06639 -0.575816l-2.47916 -0.593924l-2.59606 -0.825075l-2.88172 1.02348l-1.97657 2.26081l-2.57248 1.50222l-4.67028 0.433107l-1.69159 3.03398l-3.11486 2.00821l-3.70684 2.35507l-2.39047 -1.94463l0.315956 -4.75784l-2.85813 -3.12636l0.449467 -3.10114l2.33597 -3.77894l2.00694 -6.01541l1.61089 -2.47826l2.88545 -2.55302l1.67449 -4.31567"/>
</g>
</g>
</g>
</g>
<g inkscape:groupmode="layer" inkscape:label="Coastline" id="Coastline"><title>Coastline</title>
<g>
<g id="drawing" transform="translate(230.33,-274.496)">
<g stroke-width="1px" stroke="rgb(51,51,51)" fill="none">
<path d="M-230.33 274.496l0 -216.364l390.048 0l0 216.364l-390.048 0"/>
</g>
</g>
</g>
</g>
<g id="Clone of page">
</g>
</g>
</g><!--ePage-->
</svg>
