<?xml version="1.0" ?>
<svg version="1.1" encoding="iso-8859-1" baseProfile="full"
xmlns:dc="http://purl.org/dc/elements/1.1/"
xmlns:cc="http://creativecommons.org/ns#"
xmlns:rdf="http://www.w3.org/1999/02/22-rdf-syntax-ns#"
xmlns="http://www.w3.org/2000/svg"
xmlns:xlink="http://www.w3.org/1999/xlink"
xmlns:ev="http://www.w3.org/2001/xml-events"
xmlns:sodipodi="http://sodipodi.sourceforge.net/DTD/sodipodi-0.dtd"
xmlns:inkscape="http://www.inkscape.org/namespaces/inkscape"
inkscape:version="0.46"
inkscape:output_extension="org.inkscape.output.svg.inkscape"
viewBox="0 0 681 237" xml:space="preserve">
<title>Magics plot</title>
<metadata id="MAGICSmetadata">
<rdf:RDF><cc:Work rdf:about="">
	<dc:format>image/svg+xml</dc:format>
	<dc:title>Magics plot</dc:title>
	<dc:author>baudouin on Baudouins-iMac-3.local</dc:author>
	<dc:date>Sun Sep 13 07:58:58 2020</dc:date>
	<dc:language>en-GB</dc:language>
	<dc:publisher><cc:Agent>
	 <dc:title>Magics 4.4.5 (64 bit)</dc:title>
	</cc:Agent></dc:publisher>
	<dc:coverage>Plot of meteorological data</dc:coverage>
</cc:Work></rdf:RDF>
</metadata>
<g id="page" transform="translate(0,236.748)" vector-effect="non-scaling-stroke">
<g id="Page0">
<g inkscape:groupmode="layer" inkscape:label="Coastline" id="Coastline"><title>Coastline</title>
<g>
<g id="drawing" transform="translate(950.123,157.485)">
</g>
</g>
</g>
<g inkscape:groupmode="layer" inkscape:label="Coastline" id="Coastline"><title>Coastline</title>
<g>
<g id="drawing" transform="translate(950.123,157.485)">
<g fill-rule="evenodd" stroke="none">
<path fill="rgb(255,225,170)" d="M-694.601 -187.54l7.85098 0.061711l2.67161 -2.62957l-1.88042 -2.07175l-5.33082 -0.918652l-8.53384 -0.0609028l-1.47836 1.52417l0.607674 4.46283l6.09317 -0.367838"/>
<path fill="rgb(255,225,170)" d="M-802.051 -186.356l7.33089 -0.194293l-1.72816 -2.85593l-5.54074 -2.5048l-7.01883 -0.93509l-2.37545 -0.351399l-4.38414 0.726783l-1.25146 2.3838l5.96248 3.80018l5.83717 1.67373l3.16826 -1.74299"/>
<path fill="rgb(255,225,170)" d="M-740.49 -190.685l3.44851 -1.49722l1.58696 2.53013l4.00391 -0.642706l1.88042 -1.90225l3.43073 0.496379l4.78755 -0.437364l4.96056 2.26847l3.87321 -4.24536l-5.12575 -3.82632l-4.64042 -0.37673l0.336039 -3.10816l-5.7062 0.208037l-1.89362 -3.69967l-2.74868 0.261932l-6.17779 -2.68454l-8.14121 -0.0482362l-1.30428 1.77775l-9.04558 -1.63789l-6.36319 -0.460808l-2.34904 2.87992l6.58012 1.62657l-0.0786881 3.9837l4.76384 4.51807l-3.75518 2.32183l-7.87012 -0.837l-9.59909 -1.44818l-0.918922 3.36201l5.58602 3.24937l4.87971 -1.94941l6.36346 0.754l4.92202 -0.72328l6.92694 1.77263l0.528177 2.99768l2.68508 1.65837l4.17449 -7.14171"/>
<path fill="rgb(255,225,170)" d="M-796.014 -208.098l7.18564 0.825142l7.01991 -0.517937l6.93502 -1.32395l1.23718 -2.44309l-7.88332 -4.26854l-7.68822 -0.429548l0.759659 -2.93624l-6.2201 -2.12699l-3.43342 0.143362l-6.49335 -4.70401l-8.83242 -6.4594l-3.69347 -2.45064l-9.74164 1.17816l-4.15131 -3.81824l-9.79581 -3.55307l-8.1943 -0.117762l-9.00785 -0.74403l-2.5269 1.14582l-7.89625 0.998148l-5.32624 2.03294l-4.71533 2.31913l-2.26011 3.763l-5.50517 3.22188l4.46256 0.988716l5.16132 -1.14043l1.49507 -2.54468l4.32136 -0.145518l7.49419 -5.41948l10.2302 0.533837l-3.91094 2.60586l3.64038 2.03429l13.5938 1.61633l3.12945 2.18762l9.7252 2.79665l5.89403 -0.406104l2.47219 5.93957l3.60373 3.01061l6.72322 0.697141l4.25048 2.70907l-6.99162 5.81831l14.9331 -1.01593"/>
<path fill="rgb(255,225,170)" d="M-808.644 -247.801l-0.0556933 -6.05169l-3.65031 -8.65644l-3.13791 -0.420307l-2.26955 6.61915l3.9051 3.01922l2.6496 6.00893l2.55876 -0.518865"/>
<path fill="rgb(255,225,170)" d="M-811.62 -277.215l-0.312884 -2.71166l-6.88343 -0.312884l-4.90184 0.834357l0.730061 3.8589l11.3681 -1.66871"/>
<path fill="rgb(255,225,170)" d="M-803.067 -277.319l-8.23926 -4.69325l0.0206503 1.19772l4.6726 4.1213l-0.171147 5.45095l1.91756 1.33674l1.7996 -7.41346"/>
<path fill="rgb(255,225,170)" d="M-838.329 -262.888l2.60227 -6.36818l0.453234 -4.05491l0.328466 -7.03402l-4.93846 -12.0979l-0.0579272 -4.50559l-4.63482 -7.38413l-3.48073 -8.92143l-1.84285 -7.24409l1.60732 -7.40896l4.91554 -6.18294l5.8793 -4.96392l11.4492 -6.77112l1.49019 -3.49982l5.28029 -3.8302l5.20899 -0.669027l6.85515 -6.11801l10.7891 -3.09115l6.62917 -7.74124l-1.46537 -10.4358l-1.08279 -3.60804l-2.99248 -0.721862l-0.391412 -8.69303h-154.395v88.6057l2.29252 1.62281l7.56746 0.325284l3.91423 -1.9778l3.8703 1.5373l1.98799 -1.36988l-2.21524 -2.06119l0.169962 -4.22996l-1.99435 -2.94156l4.42666 -1.45773l7.95449 -0.717406l9.25626 1.15154l11.7879 -1.31005l6.53941 2.57999l5.06068 4.86652l1.8664 0.519434l10.5217 -4.73284l4.07146 1.59968l8.13082 8.72537l2.91991 5.73607l-2.14076 6.92326l1.56658 4.07973l4.85061 7.97868l5.52728 8.96917l3.96324 2.39921l1.64679 4.57625l5.13261 1.26421l3.11852 -1.31641z
M-844.081 -279.752L-843.948 -282.314L-841.591 -281.956L-841.724 -279.394L-844.081 -279.752"/>
<path fill="rgb(255,225,170)" d="M-787.728 -394.233h-2.65976l-2.57512 5.66618l0.949115 0.415039l4.28576 -6.08121"/>
<path fill="rgb(255,225,170)" d="M-869.924 -159.267l-3.79201 -1.59777l-3.01413 -2.33873l-3.18345 -1.94788l-1.6557 -0.231709l-4.7634 -1.44563l-2.07201 0.903283l-2.72831 0.24635l-2.49596 -0.709132l-3.32286 -0.540441l-1.22347 1.16809l-3.35532 1.15345l-4.82133 0.273086l-4.84424 -0.94084l-1.61878 0.517526l-0.966939 -0.851085l-2.98484 0.150229l-2.28717 1.8333l-1.08343 -0.406763l-3.05932 -1.33296l-0.9001 1.55449l-3.39988 -1.88614l2.06692 -3.61249l1.88359 -0.331649l2.04846 -2.76778l1.20883 -5.26883l-0.658207 -0.997494l1.09234 -3.73153l-0.911559 -1.61432l1.68817 -4.51005l0.173144 -2.83653l-1.97653 -0.0477418l-0.0381937 -1.53157l2.18405 -0.173146l2.64237 2.67866l2.615 -8.13718l1.56213 -4.50941l-1.92178 -1.81484l2.47878 -6.35163l5.60494 -6.19949l0.353292 -5.02248l-2.50169 -2.21142l-6.32553 0.882276l-9.23526 -0.36284l-11.0285 2.41958l-7.06394 2.73085l-1.80275 3.04914l-0.855541 8.76102l-2.48514 6.08427l-3.42305 2.19566v41.4424h81.9041l-1.70577 -1.78212"/>
</g>
<g stroke-width="0.5px" stroke="rgb(209,179,139)" fill="none">
<path d="M-684.078 -190.108l-2.67161 2.62957l-7.85098 -0.0617105l-6.09317 0.367838l-0.607674 -4.46283l1.47836 -1.52417l8.53384 0.0609021l5.33082 0.918652l1.88042 2.07175"/>
<path d="M-802.051 -186.356l-3.16826 1.74299l-5.83717 -1.67373l-5.96248 -3.80018l1.25146 -2.38381l4.38414 -0.726783l2.37545 0.3514l7.01883 0.93509l5.54074 2.5048l1.72816 2.85593l-7.33089 0.194294"/>
<path d="M-756.966 -207.249l9.04558 1.63789l1.30428 -1.77775l8.14121 0.0482366l6.17779 2.68454l2.74868 -0.261933l1.89362 3.69967l5.7062 -0.208037l-0.336039 3.10816l4.64042 0.376731l5.12575 3.82632l-3.87321 4.24536l-4.96056 -2.26847l-4.78755 0.437363l-3.43073 -0.496379l-1.88042 1.90225l-4.00391 0.642706l-1.58696 -2.53013l-3.44851 1.49722l-4.17449 7.14171l-2.68508 -1.65837l-0.528178 -2.99768l-6.92694 -1.77263l-4.92202 0.72328l-6.36346 -0.754l-4.87971 1.94941l-5.58602 -3.24937l0.918921 -3.36201l9.59909 1.44818l7.87011 0.837l3.75518 -2.32183l-4.76384 -4.51807l0.0786877 -3.9837l-6.58012 -1.62657l2.34904 -2.87991l6.36319 0.460808"/>
<path d="M-831.013 -237.43l4.15131 3.81824l9.74164 -1.17816l3.69347 2.45064l8.83242 6.4594l6.49335 4.70401l3.43342 -0.143362l6.2201 2.12699l-0.759659 2.93624l7.68822 0.429548l7.88332 4.26854l-1.23718 2.44309l-6.93502 1.32395l-7.01991 0.517937l-7.18564 -0.825143l-14.9331 1.01593l6.99162 -5.81831l-4.25048 -2.70907l-6.72321 -0.69714l-3.60373 -3.01061l-2.47219 -5.93957l-5.89403 0.406104l-9.7252 -2.79665l-3.12945 -2.18763l-13.5938 -1.61633l-3.64038 -2.03429l3.91094 -2.60586l-10.2302 -0.533837l-7.49419 5.41948l-4.32135 0.145518l-1.49507 2.54468l-5.16132 1.14043l-4.46256 -0.988716l5.50517 -3.22188l2.26011 -3.763l4.71533 -2.31913l5.32624 -2.03294l7.89625 -0.998148l2.5269 -1.14582l9.00785 0.74403l8.1943 0.117762l9.79581 3.55307"/>
<path d="M-808.644 -247.801l-2.55876 0.518865l-2.6496 -6.00893l-3.9051 -3.01922l2.26955 -6.61915l3.13791 0.420307l3.65031 8.65644l0.0556933 6.05169"/>
<path d="M-811.62 -277.215l-11.3681 1.66871l-0.730061 -3.8589l4.90184 -0.834356l6.88344 0.312883l0.312883 2.71166"/>
<path d="M-803.067 -277.319l-1.7996 7.41346l-1.91756 -1.33674l0.171147 -5.45095l-4.6726 -4.1213l-0.0206503 -1.19772l8.23926 4.69325"/>
<path d="M-792.014 -388.152l-0.949115 -0.415039"/>
<path d="M-795.336 -385.54l2.99248 0.721862l1.08279 3.60804l1.46537 10.4358l-6.62917 7.74124l-10.7891 3.09115l-6.85515 6.11801l-5.20899 0.669028l-5.28029 3.8302l-1.49019 3.49982l-11.4492 6.77112l-5.8793 4.96392l-4.91554 6.18294l-1.60732 7.40896l1.84285 7.24409l3.48073 8.92143l4.63482 7.38413l0.0579272 4.50559l4.93846 12.0979l-0.328466 7.03402l-0.453233 4.05491l-2.60227 6.36818l-3.11852 1.31641l-5.13261 -1.26421l-1.64679 -4.57625l-3.96324 -2.39921l-5.52728 -8.96917l-4.85061 -7.97868l-1.56658 -4.07973l2.14076 -6.92326l-2.91991 -5.73607l-8.13082 -8.72537l-4.07146 -1.59968l-10.5217 4.73285l-1.8664 -0.519435l-5.06068 -4.86652l-6.53941 -2.57999l-11.7879 1.31005l-9.25626 -1.15154l-7.95449 0.717406l-4.42666 1.45773l1.99435 2.94156l-0.169962 4.22996l2.21524 2.06119l-1.98799 1.36988l-3.8703 -1.5373l-3.91423 1.9778l-7.56746 -0.325284"/>
<path d="M-946.7 -201.123l2.48514 -6.08427l0.855541 -8.76102l1.80275 -3.04914l7.06394 -2.73086l11.0285 -2.41958l9.23526 0.362841l6.32553 -0.882276l2.50169 2.21142l-0.353292 5.02248l-5.60494 6.19949l-2.47878 6.35163l1.92178 1.81484l-1.56213 4.50941l-2.615 8.13718l-2.64237 -2.67866l-2.18405 0.173145l0.0381938 1.53157l1.97653 0.0477422l-0.173145 2.83652l-1.68817 4.51005l0.911558 1.61432l-1.09234 3.73153l0.658206 0.997494l-1.20883 5.26883l-2.04846 2.76778l-1.88359 0.331649l-2.06692 3.61249l3.39988 1.88614l0.9001 -1.55449l3.05932 1.33296l1.08343 0.406764l2.28717 -1.8333l2.98484 -0.150229l0.966939 0.851085l1.61878 -0.517526l4.84424 0.94084l4.82133 -0.273086l3.35532 -1.15345l1.22347 -1.16809l3.32286 0.540442l2.49596 0.709131l2.72831 -0.24635l2.07201 -0.903283l4.7634 1.44563l1.6557 0.231709l3.18345 1.94788l3.01413 2.33873l3.79201 1.59777"/>
<path d="M-841.724 -279.394l0.132853 -2.5622l-2.35713 -0.357598l-0.132853 2.56193l2.35713 0.357867"/>
</g>
<g stroke-width="0.5px" stroke="rgb(178,178,178)" fill="none">
<path d="M-920.138 -164.031l-4.75249 3.97863l-4.35156 2.56815"/>
<path d="M-929.713 -185.731l-9.64588 -0.114828l-9.73662 0.0179387l-0.00782104 5.87126l-1.01938 0.00552969"/>
<path d="M-950.123 -176.622l0.191172 0.171389l3.85733 2.4091l1.15746 2.26017l1.68926 0.632546l-0.267098 3.55185l-6.62812 0.0153897"/>
<path d="M-920.92 -192.945l-1.98264 0.137252l-3.73604 6.29553l-1.89305 -1.23401l-1.26259 0.48038l0.0817669 1.53469l-0.0806196 8.26784l-0.816939 11.7709l3.11329 -0.00344172"/>
<path d="M-747.878 -188.199l0.214638 -2.83316l-2.68433 -3.13144l2.5427 -1.75778l0.797123 -4.00918l-0.912471 -5.67977"/>
</g>
</g>
</g>
</g>
<g inkscape:groupmode="layer" inkscape:label="no_name" id="no_name"><title>no_name</title>
<g>
<g id="drawing" transform="translate(950.123,157.485)">
<g stroke-width="0.5px" stroke="rgb(254,0,0)" fill="none">
</g>
<g stroke="rgb(254,0,0)" fill="rgb(254,0,0)">
<circle cx="-280" cy="-167" r="1.5"/>
<circle cx="-295" cy="-168" r="1.5"/>
<circle cx="-309" cy="-170" r="1.5"/>
<circle cx="-321" cy="-170" r="1.5"/>
<circle cx="-330" cy="-170" r="1.5"/>
<circle cx="-338" cy="-171" r="1.5"/>
<circle cx="-348" cy="-174" r="1.5"/>
<circle cx="-356" cy="-178" r="1.5"/>
<circle cx="-366" cy="-182" r="1.5"/>
<circle cx="-376" cy="-186" r="1.5"/>
<circle cx="-389" cy="-191" r="1.5"/>
<circle cx="-401" cy="-196" r="1.5"/>
<circle cx="-414" cy="-199" r="1.5"/>
<circle cx="-428" cy="-199" r="1.5"/>
<circle cx="-444" cy="-197" r="1.5"/>
<circle cx="-459" cy="-195" r="1.5"/>
<circle cx="-474" cy="-192" r="1.5"/>
<circle cx="-487" cy="-189" r="1.5"/>
<circle cx="-499" cy="-186" r="1.5"/>
<circle cx="-513" cy="-183" r="1.5"/>
<circle cx="-525" cy="-180" r="1.5"/>
<circle cx="-537" cy="-177" r="1.5"/>
<circle cx="-548" cy="-175" r="1.5"/>
<circle cx="-562" cy="-174" r="1.5"/>
<circle cx="-574" cy="-173" r="1.5"/>
<circle cx="-588" cy="-173" r="1.5"/>
<circle cx="-602" cy="-174" r="1.5"/>
<circle cx="-617" cy="-176" r="1.5"/>
<circle cx="-632" cy="-180" r="1.5"/>
<circle cx="-644" cy="-184" r="1.5"/>
<circle cx="-645" cy="-184" r="1.5"/>
<circle cx="-658" cy="-188" r="1.5"/>
<circle cx="-660" cy="-188" r="1.5"/>
<circle cx="-671" cy="-192" r="1.5"/>
<circle cx="-674" cy="-193" r="1.5"/>
<circle cx="-690" cy="-200" r="1.5"/>
<circle cx="-705" cy="-205" r="1.5"/>
<circle cx="-719" cy="-210" r="1.5"/>
<circle cx="-734" cy="-215" r="1.5"/>
<circle cx="-748" cy="-220" r="1.5"/>
<circle cx="-761" cy="-224" r="1.5"/>
<circle cx="-763" cy="-224" r="1.5"/>
<circle cx="-779" cy="-227" r="1.5"/>
<circle cx="-792" cy="-229" r="1.5"/>
<circle cx="-805" cy="-230" r="1.5"/>
<circle cx="-812" cy="-232" r="1.5"/>
<circle cx="-816" cy="-233" r="1.5"/>
<circle cx="-827" cy="-236" r="1.5"/>
<circle cx="-836" cy="-240" r="1.5"/>
<circle cx="-843" cy="-244" r="1.5"/>
<circle cx="-847" cy="-247" r="1.5"/>
<circle cx="-850" cy="-255" r="1.5"/>
<circle cx="-850" cy="-257" r="1.5"/>
<circle cx="-852" cy="-266" r="1.5"/>
<circle cx="-852" cy="-270" r="1.5"/>
<circle cx="-852" cy="-279" r="1.5"/>
<circle cx="-857" cy="-294" r="1.5"/>
<circle cx="-862" cy="-308" r="1.5"/>
<circle cx="-870" cy="-322" r="1.5"/>
<circle cx="-880" cy="-332" r="1.5"/>
<circle cx="-892" cy="-343" r="1.5"/>
<circle cx="-906" cy="-352" r="1.5"/>
<circle cx="-918" cy="-362" r="1.5"/>
<circle cx="-927" cy="-371" r="1.5"/>
<circle cx="-933" cy="-377" r="1.5"/>
<circle cx="-939" cy="-383" r="1.5"/>
</g>
<g stroke-width="0.5px" stroke="rgb(254,0,0)" fill="none">
<path d="M-280.552 -167.914l-14.6012 -1.04294l-14.6012 -1.04294l-20.8589 0l-8.34356 -1.04294l-9.3865 -3.12883l-8.34356 -4.17178l-9.3865 -4.17178l-10.4294 -4.17178l-12.5153 -5.21472l-12.5153 -4.17178l-12.5153 -3.12883l-14.6012 0l-15.6442 2.08589l-15.6442 2.08589l-14.6012 2.08589l-12.5153 3.12883l-12.5153 3.12883l-13.5583 3.12883l-12.5153 3.12883l-11.4724 3.12883l-11.4724 2.08589l-13.5583 1.04294l-12.5153 1.04294l-13.5583 0l-14.6012 -1.04294l-14.6012 -2.08589l-14.6012 -4.17178l-12.5153 -4.17178l-1.04294 0l-12.5153 -4.17178l-2.08589 0l-11.4724 -4.17178l-3.12883 -1.04294l-15.6442 -6.25767l-14.6012 -5.21472l-14.6012 -5.21472l-14.6012 -5.21472l-14.6012 -4.17178l-12.5153 -4.17178l-2.08589 0l-15.6442 -3.12883l-13.5583 -2.08589l-12.5153 -1.04294l-7.30061 -2.08589l-4.17178 -1.04294l-10.4294 -3.12883l-9.3865 -4.17178l-7.30061 -3.12883l-4.17178 -3.12883l-2.08589 -8.34356l0 -2.08589l-2.08589 -9.3865l0 -12.5153l-5.21472 -14.6012l-5.21472 -14.6012l-8.34356 -13.5583l-9.3865 -10.4294l-12.5153 -10.4294l-13.5583 -9.3865l-12.5153 -10.4294l-8.34356 -8.34356l-6.25767 -6.25767l-6.25767 -6.25767"/>
</g>
</g>
</g>
</g>
<g inkscape:groupmode="layer" inkscape:label="Coastline" id="Coastline"><title>Coastline</title>
<g>
<g id="drawing" transform="translate(950.123,157.485)">
<g stroke-width="0.5px" stroke="rgb(0,0,0)" fill="none">
<path d="M-684.078 -190.108l-2.67161 2.62957l-7.85098 -0.0617105l-6.09317 0.367838l-0.607674 -4.46283l1.47836 -1.52417l8.53384 0.0609021l5.33082 0.918652l1.88042 2.07175"/>
<path d="M-802.051 -186.356l-3.16826 1.74299l-5.83717 -1.67373l-5.96248 -3.80018l1.25146 -2.38381l4.38414 -0.726783l2.37545 0.3514l7.01883 0.93509l5.54074 2.5048l1.72816 2.85593l-7.33089 0.194294"/>
<path d="M-756.966 -207.249l9.04558 1.63789l1.30428 -1.77775l8.14121 0.0482366l6.17779 2.68454l2.74868 -0.261933l1.89362 3.69967l5.7062 -0.208037l-0.336039 3.10816l4.64042 0.376731l5.12575 3.82632l-3.87321 4.24536l-4.96056 -2.26847l-4.78755 0.437363l-3.43073 -0.496379l-1.88042 1.90225l-4.00391 0.642706l-1.58696 -2.53013l-3.44851 1.49722l-4.17449 7.14171l-2.68508 -1.65837l-0.528178 -2.99768l-6.92694 -1.77263l-4.92202 0.72328l-6.36346 -0.754l-4.87971 1.94941l-5.58602 -3.24937l0.918921 -3.36201l9.59909 1.44818l7.87011 0.837l3.75518 -2.32183l-4.76384 -4.51807l0.0786877 -3.9837l-6.58012 -1.62657l2.34904 -2.87991l6.36319 0.460808"/>
<path d="M-831.013 -237.43l4.15131 3.81824l9.74164 -1.17816l3.69347 2.45064l8.83242 6.4594l6.49335 4.70401l3.43342 -0.143362l6.2201 2.12699l-0.759659 2.93624l7.68822 0.429548l7.88332 4.26854l-1.23718 2.44309l-6.93502 1.32395l-7.01991 0.517937l-7.18564 -0.825143l-14.9331 1.01593l6.99162 -5.81831l-4.25048 -2.70907l-6.72321 -0.69714l-3.60373 -3.01061l-2.47219 -5.93957l-5.89403 0.406104l-9.7252 -2.79665l-3.12945 -2.18763l-13.5938 -1.61633l-3.64038 -2.03429l3.91094 -2.60586l-10.2302 -0.533837l-7.49419 5.41948l-4.32135 0.145518l-1.49507 2.54468l-5.16132 1.14043l-4.46256 -0.988716l5.50517 -3.22188l2.26011 -3.763l4.71533 -2.31913l5.32624 -2.03294l7.89625 -0.998148l2.5269 -1.14582l9.00785 0.74403l8.1943 0.117762l9.79581 3.55307"/>
<path d="M-808.644 -247.801l-2.55876 0.518865l-2.6496 -6.00893l-3.9051 -3.01922l2.26955 -6.61915l3.13791 0.420307l3.65031 8.65644l0.0556933 6.05169"/>
<path d="M-811.62 -277.215l-11.3681 1.66871l-0.730061 -3.8589l4.90184 -0.834356l6.88344 0.312883l0.312883 2.71166"/>
<path d="M-803.067 -277.319l-1.7996 7.41346l-1.91756 -1.33674l0.171147 -5.45095l-4.6726 -4.1213l-0.0206503 -1.19772l8.23926 4.69325"/>
<path d="M-792.014 -388.152l-0.949115 -0.415039"/>
<path d="M-795.336 -385.54l2.99248 0.721862l1.08279 3.60804l1.46537 10.4358l-6.62917 7.74124l-10.7891 3.09115l-6.85515 6.11801l-5.20899 0.669028l-5.28029 3.8302l-1.49019 3.49982l-11.4492 6.77112l-5.8793 4.96392l-4.91554 6.18294l-1.60732 7.40896l1.84285 7.24409l3.48073 8.92143l4.63482 7.38413l0.0579272 4.50559l4.93846 12.0979l-0.328466 7.03402l-0.453233 4.05491l-2.60227 6.36818l-3.11852 1.31641l-5.13261 -1.26421l-1.64679 -4.57625l-3.96324 -2.39921l-5.52728 -8.96917l-4.85061 -7.97868l-1.56658 -4.07973l2.14076 -6.92326l-2.91991 -5.73607l-8.13082 -8.72537l-4.07146 -1.59968l-10.5217 4.73285l-1.8664 -0.519435l-5.06068 -4.86652l-6.53941 -2.57999l-11.7879 1.31005l-9.25626 -1.15154l-7.95449 0.717406l-4.42666 1.45773l1.99435 2.94156l-0.169962 4.22996l2.21524 2.06119l-1.98799 1.36988l-3.8703 -1.5373l-3.91423 1.9778l-7.56746 -0.325284"/>
<path d="M-946.7 -201.123l2.48514 -6.08427l0.855541 -8.76102l1.80275 -3.04914l7.06394 -2.73086l11.0285 -2.41958l9.23526 0.362841l6.32553 -0.882276l2.50169 2.21142l-0.353292 5.02248l-5.60494 6.19949l-2.47878 6.35163l1.92178 1.81484l-1.56213 4.50941l-2.615 8.13718l-2.64237 -2.67866l-2.18405 0.173145l0.0381938 1.53157l1.97653 0.0477422l-0.173145 2.83652l-1.68817 4.51005l0.911558 1.61432l-1.09234 3.73153l0.658206 0.997494l-1.20883 5.26883l-2.04846 2.76778l-1.88359 0.331649l-2.06692 3.61249l3.39988 1.88614l0.9001 -1.55449l3.05932 1.33296l1.08343 0.406764l2.28717 -1.8333l2.98484 -0.150229l0.966939 0.851085l1.61878 -0.517526l4.84424 0.94084l4.82133 -0.273086l3.35532 -1.15345l1.22347 -1.16809l3.32286 0.540442l2.49596 0.709131l2.72831 -0.24635l2.07201 -0.903283l4.7634 1.44563l1.6557 0.231709l3.18345 1.94788l3.01413 2.33873l3.79201 1.59777"/>
<path d="M-841.724 -279.394l0.132853 -2.5622l-2.35713 -0.357598l-0.132853 2.56193l2.35713 0.357867"/>
</g>
</g>
</g>
</g>
<g inkscape:groupmode="layer" inkscape:label="Coastline" id="Coastline"><title>Coastline</title>
<g>
<g id="drawing" transform="translate(950.123,157.485)">
<g stroke-width="1px" stroke="rgb(51,51,51)" fill="none">
<path d="M-950.123 -157.485l0 -236.748l680 0l0 236.748l-680 0"/>
</g>
</g>
</g>
</g>
<g id="Clone of page">
</g>
</g>
</g><!--ePage-->
</svg>
