<?xml version="1.0" ?>
<svg version="1.1" encoding="iso-8859-1" baseProfile="full"
xmlns:dc="http://purl.org/dc/elements/1.1/"
xmlns:cc="http://creativecommons.org/ns#"
xmlns:rdf="http://www.w3.org/1999/02/22-rdf-syntax-ns#"
xmlns="http://www.w3.org/2000/svg"
xmlns:xlink="http://www.w3.org/1999/xlink"
xmlns:ev="http://www.w3.org/2001/xml-events"
xmlns:sodipodi="http://sodipodi.sourceforge.net/DTD/sodipodi-0.dtd"
xmlns:inkscape="http://www.inkscape.org/namespaces/inkscape"
inkscape:version="0.46"
inkscape:output_extension="org.inkscape.output.svg.inkscape"
viewBox="0 0 681 378" xml:space="preserve">
<title>Magics plot</title>
<metadata id="MAGICSmetadata">
<rdf:RDF><cc:Work rdf:about="">
	<dc:format>image/svg+xml</dc:format>
	<dc:title>Magics plot</dc:title>
	<dc:author>baudouin on Baudouins-iMac-3.local</dc:author>
	<dc:date>Sat May  8 10:57:36 2021</dc:date>
	<dc:language>en-GB</dc:language>
	<dc:publisher><cc:Agent>
	 <dc:title>Magics 4.7.0</dc:title>
	</cc:Agent></dc:publisher>
	<dc:coverage>Plot of meteorological data</dc:coverage>
</cc:Work></rdf:RDF>
</metadata>
<g id="page" transform="translate(0,377.778)" vector-effect="non-scaling-stroke">
<g id="Page0" inkscape:label="Page0">
<g inkscape:groupmode="layer" inkscape:label="Coastline" id="Coastline"><title>Coastline</title>
<g>
<g id="drawing" inkscape:label="drawing" transform="translate(255,311.667)">
</g>
</g>
</g>
<g inkscape:groupmode="layer" inkscape:label="Coastline" id="Coastline"><title>Coastline</title>
<g>
<g id="drawing" inkscape:label="drawing" transform="translate(255,311.667)">
<g fill-rule="evenodd" stroke="none">
<path fill="rgb(255,225,170)" d="M321.157 -330.349l-0.295274 -0.759414l-0.68767 -1.76847l6.38132 -4.02182l-8.58733 2.81803l-6.80251 -0.127382l-1.3646 2.278l-0.667659 0.0517338l-4.48718 0.347495l2.2065 3.79268l4.62335 1.22575l9.68106 -3.8366"/>
<path fill="rgb(255,225,170)" d="M247.114 -330.603l1.18061 -2.78606l-5.14703 1.13326l0.228409 -1.64353l-7.02848 -0.670344l-7.35109 0.538081l-5.16314 -3.18261l-1.74724 4.01401l11.5225 1.84168l-0.0946824 1.55836l13.6001 -0.802851"/>
<path fill="rgb(255,225,170)" d="M144.593 -350.712l-1.41341 -2.92614l3.40126 -7.43381l-7.16953 0.824324l-9.63421 1.02858l-11.052 -0.86337l-1.32165 4.84907l13.1819 4.80173l4.80246 1.01906l7.22273 3.55719l1.98248 -4.85664"/>
<path fill="rgb(255,225,170)" d="M87.0288 -370.604l4.2944 0.595915l1.32653 -12.4915l-5.66632 -6.70539l-4.72242 2.92784l-5.19437 -0.472438l2.15574 5.39935l0.378242 11.3944l3.57598 2.50494l3.85222 -3.15308"/>
<path fill="rgb(255,225,170)" d="M90.289 -398.107l-1.6057 -8.09854l-6.08214 3.60648l-1.90586 3.5096l2.18649 6.35521l4.28805 1.92294l3.11916 -7.29569"/>
<path fill="rgb(255,225,170)" d="M-64.117 -493.568l7.13878 -8.43433l-1.55738 -6.74712l5.06162 -6.48869l-10.1235 -5.83909l-7.91748 0.389468l-7.1383 4.41153l-12.8495 7.39648l4.93229 9.60249l-7.65759 9.86164l13.3683 1.42756l16.7427 -5.57994"/>
<path fill="rgb(255,225,170)" d="M119.85 -525.205l-3.01374 -4.7356l-13.8549 3.13039l1.31872 3.9203l9.88312 5.33469l5.66681 -7.64978"/>
<path fill="rgb(255,225,170)" d="M-42.9015 -475.451l8.73668 1.07177l6.24442 -4.42495l4.40372 1.85925l16.079 -2.59694l12.6353 0.0873621l8.49558 -4.94595l-3.7712 -4.88592l4.81125 -2.76947l1.14791 -6.03993l-11.4425 -1.79897l-2.69162 -3.73069l-5.81274 -10.7606l-6.46478 -1.51688l-9.16128 -12.1362l-9.7655 -0.602505l8.4907 -8.46434l2.46224 -7.69517l-10.3485 -0.0492934l-9.62225 1.29383l10.0944 -10.2187l-11.3946 0.794798l-7.54143 -0.747701l-7.33669 7.661l-3.42981 9.76403l4.76928 4.81662l0.553455 9.10321l5.08505 -4.46571l3.10598 2.60207l-3.43225 4.22046l2.25116 2.55595l11.4671 1.66183l6.46942 5.95012l-1.389 5.48306l-14.0526 -0.855316l-1.79458 6.1861l5.17241 5.08724l-9.86896 2.92735l2.6721 3.75827l14.8232 1.58154l-8.45409 2.04007l-13.851 9.91972l5.02014 1.88584l6.63487 -3.60624"/>
<path fill="rgb(255,225,170)" d="M-168.059 -601.41l27.2435 -6.47259l12.2787 -7.20223l-10.6713 -6.44184l2.18112 -6.11192l-15.6695 -0.669612l-15.402 5.03331l-11.8832 -2.67039l-14.3503 5.14239l-14.7205 -6.4067l-14.3139 1.3973l-6.38132 6.15145l19.8216 2.19674l0.406306 2.77313l-16.7227 1.8307l20.5564 4.61847l-9.29794 4.17385l26.3521 2.98958l12.4337 1.39071l8.1393 -1.72235"/>
<path fill="rgb(255,225,170)" d="M425 -645.939l-14.6117 -1.67574l6.9421 5.85954l-4.6225 5.64799l7.87479 5.6307l-5.50042 6.49017l-8.819 -3.30187l-8.71755 -0.544162l-22.0092 9.25018l6.35644 6.91674l-7.95434 2.30116l-22.8312 -5.87857l-6.21809 3.42868l5.89701 4.20804l-1.22033 4.57869l-7.38135 -2.45161l-12.1589 -2.88049l-1.2186 -14.0306l-15.3979 -6.91732l6.93403 -1.20131l42.1616 7.1796l15.4233 -2.51963l10.4849 -4.96202l-0.625441 -6.28611l-7.24762 -4.48819l-35.6847 -10.6815l-25.8644 -2.24813l-15.5155 -5.70794l-9.74304 3.28457l-10.3472 -5.93275l12.1647 -2.5277l-29.5421 -6.90925l-16.9567 1.88093l-17.2212 -0.417344l-14.384 7.82406l-15.538 -0.502658l-20.7249 4.13483l-25.9549 11.8453l-15.8159 7.10754l-22.6951 18.2375l-17.2887 13.1619l-18.6451 9.7465l-24.9392 7.92955l-8.69622 6.07629l2.98598 21.7959l3.37738 10.1552l13.0616 4.80869l12.5912 -2.21354l18.6491 -10.9236l6.33338 5.79729l7.18536 13.3562l7.90534 10.7172l3.00096 8.92738l10.9351 -0.434638l5.34536 -7.48973l11.458 0.91251l5.36265 -8.84725l3.60392 -15.8556l9.82259 -2.21008l8.67374 -10.6532l-9.03113 -5.23987l-6.72248 -6.65446l6.87754 -13.2997l18.2375 -8.12381l15.0238 -7.59349l-1.47512 -5.78403l9.15911 -6.5899l16.2465 -2.67297l13.1337 4.46167l0.981682 3.99475l-6.30456 1.97605l-21.6074 10.2417l-8.56249 5.93102l-4.5026 5.50042l4.58618 8.52041l-2.10229 9.30322l9.14758 3.10126l5.46641 5.1511l15.3662 -1.99104l16.6091 -3.46212l17.14 -0.751682l9.89349 4.48992l-10.7345 5.21854l-9.74477 0.279575l-10.2469 -1.55985l-11.9001 1.37136l-11.9416 2.63089l0.819702 5.42721l5.99328 3.35432l3.47365 -1.18978l-1.09697 5.5719l-1.81522 7.25165l-7.57677 0.183309l-7.49895 -7.05682l-8.90201 3.22578l-4.64094 5.9316l-0.326843 7.10927l2.00775 7.93935l-13.0334 3.0638l-2.15129 4.15558l-9.10838 -0.119324l-0.711907 -2.30404l-9.42542 -1.59617l-11.8943 3.1958l-14.7391 4.36886l-6.4527 2.77327l-4.45936 -3.0073l-10.663 -3.73074l-5.30962 2.58823l-9.60297 1.77314l0.0997248 -3.35259l-9.54244 -2.20028l-0.168321 -3.64946l-2.5669 -4.59944l6.8003 -6.8003l2.81247 1.02607l2.30808 -3.56242l-5.12054 -1.43016l-1.13329 -2.64414l2.79517 -3.07705l0.321079 -4.85653l-7.59694 2.66547l-3.31685 2.60437l-8.32038 0.585666l-2.70871 2.83322l-1.57369 2.55019l0.285339 9.656l3.8345 5.23987l0.432333 5.35689l2.15936 3.53994l-6.41293 4.65593l-1.75124 -2.08154l-7.89324 0.513612l-1.84404 1.99853l-7.84827 -0.266316l-12.9215 3.95325l-8.27138 13.8969l-4.86576 2.59342l-7.571 1.86422l-8.25812 1.90572l-2.83725 7.73875l-21.9873 7.36521l-8.91585 -4.05182l2.99289 10.6913l-15.8597 -2.42913l-12.2448 2.05502l0.951131 6.88504l14.4347 3.6339l6.96516 4.77698l9.74592 9.91309l-1.7985 18.8151l-4.88363 5.66471l-15.2642 -0.311279l-7.84136 0.494588l-10.0491 -1.61289l-12.6812 0.0605266l-11.5571 -1.7057l-13.3608 6.81702l3.85813 4.09678l-0.476142 6.72652l0.415616 3.18427l1.889 3.39237l0.208672 4.00109l-1.97028 5.67969l-0.670403 3.81721l-3.76475 3.42868l-0.751681 6.18235l2.25735 3.57913l4.2259 0.871006l0.887146 5.80651l-1.44226 7.39115l4.87325 -1.03875l4.97932 1.32755l3.79588 -2.45161l8.81612 1.46417l2.67758 5.4324l3.49728 3.19004l4.62135 0.783963l3.6068 -3.56818l5.91488 -3.33588l9.00231 0.17985l11.9877 -0.143534l6.68789 -7.26318l7.12945 -1.88093l2.04291 -6.14085l5.46295 -4.21265l-3.68347 -5.39839l3.63966 -7.68745l5.80478 -5.2341l0.842184 -3.17735l12.1024 -1.99622l8.94928 -6.29015l-0.504388 -5.48716l1.08083 -5.68776l13.7545 -3.0638l18.6283 2.55768l8.55672 -5.33613l3.925 -0.692885l5.45719 -4.3827l4.34638 -1.27452l7.68399 3.11625l4.69916 1.09755l2.94678 9.33665l6.42042 5.43989l8.63973 6.14834l7.3802 4.26337l6.9888 0.612182l4.08583 3.79472l6.06879 1.71722l2.78768 4.07603l3.92154 1.17883l2.88222 4.76142l3.68751 5.47448l-2.05156 2.01697l-1.92647 5.06405l-0.0380451 2.88856l3.93826 -0.727471l5.0433 -8.10133l3.94633 -0.55915l1.12003 -4.92801l-6.82624 -3.50189l3.97573 -6.10914l8.20567 1.55467l5.2416 4.40864l1.76392 -3.38084l-0.978224 -1.76449l-8.09787 -4.92398l-6.93403 -2.85801l-8.46046 -3.41312l2.65049 -1.88151l-2.30058 -2.0873l-7.40095 0.0587973l-10.5097 -7.61251l-4.75047 -7.80677l-8.85532 -4.75796l-3.09608 -4.80754l1.15634 -2.69141l-0.521681 -4.68821l7.6788 -3.35086l7.5174 1.37482l-2.10229 0.857747l-0.336066 0.152757l-0.211555 3.27766l2.78768 3.16352l2.89432 -4.07776l6.07225 1.49011l0.175815 3.18831l4.30661 3.97285l-1.90572 0.704413l7.94281 6.95075l8.638 2.80728l5.47563 3.39986l8.87953 3.4944l4.08006 1.87575l2.64818 3.08282l1.97778 0.73093l1.58868 1.48838l-1.28835 2.93352l-0.798951 6.4429l0.822009 4.49914l5.2318 3.17159l0.189073 2.0775l1.60539 0.66118l0.638699 2.69026l4.83924 5.38513l3.68347 4.34235l1.65266 6.28265l3.54167 7.55544l7.74451 4.10831l6.27285 -0.117018l-3.58144 -8.33594l5.99731 -0.991483l-2.78595 -4.81676l8.73599 2.50292l-0.141805 -5.33613l-4.67495 -2.73868l-5.26062 -4.35215l3.56069 -2.07058l-4.72626 -4.43112l-2.10978 -5.6405l1.77372 -2.07347l4.99603 4.86345l5.26062 -0.0092225l4.79774 -1.53968l-6.54667 -5.30731l11.4372 -2.45565l4.92801 0.893487l5.75348 0.268047l-0.128546 1.94953l2.97329 4.39711l7.88055 -5.08653l4.02876 -2.92026l11.2147 -0.519376l1.71895 -2.31442l-8.24544 -3.05054l-1.12176 -3.63217l-3.04881 -5.38686l3.44944 -6.75649l4.9015 -3.91232l2.64242 -11.3934l2.86953 0.883686l4.57869 -2.03254l-0.219625 -2.43432l7.31391 -6.9813l3.50593 -5.20067l8.74925 -1.16326l0.649651 3.52092l14.6826 2.38763l2.73292 2.16281l-9.03978 3.13931l-1.66823 1.81118l10.3189 2.76347l-2.08154 4.43919l5.2514 1.92071l12.8218 -5.46468l10.3379 -1.63537l1.8452 -3.36989l-9.63352 0.566643l-4.62019 -2.2781l-0.553386 -5.87453l8.13592 -3.51861l8.84148 -0.499199l6.28265 -3.05573l7.54218 -0.755717l8.47717 -1.52239l0.2496 2.06655l-13.9211 3.85295l5.2831 3.73823l-7.83674 7.89958l-6.87409 1.50913l8.15667 5.54769l10.776 3.56242l12.0413 7.98028l3.46039 2.89374l5.23237 1.0866l5.45892 3.48114l2.35938 6.44118l-1.4094 4.03626l-11.1501 4.93032l-8.12958 -0.84276l-11.0026 1.4561l-13.5493 -3.65292l-16.484 -6.65619l-15.6251 0.200026l-11.0049 2.67066l-11.3542 6.12586l-17.9989 -1.2503l-3.96651 7.17787l-14.5448 0.377571l-10.4757 9.03286l5.98579 4.5124l-4.59368 7.34562l6.90002 5.23814l5.59496 9.39372l10.3097 -0.17005l9.13432 5.03004l6.52649 -1.12233l2.1778 -3.91751l10.1811 0.317619l7.64594 5.06982l14.3333 -1.06354l6.49363 -5.43413l7.90131 2.17204l5.75924 -0.804715l-3.57741 3.54743l3.47365 4.28413l-2.31211 3.88523l0.881958 7.22687l-0.177545 0.328572l-4.69743 6.65446l-3.36412 7.69379l-0.260552 0.0962663l-0.430449 0.762057h93.9445v-334.272z
M329.298 -577.21L332.513 -577.192L336.018 -576.927L332.067 -579.835L329.208 -581.323L325.71 -584.299L323.614 -587.625L323.848 -588.368L327.397 -587.726L327.025 -589.827L329.003 -588.358L331.314 -586.889L332.601 -587.381L334.935 -587.974L331.875 -590.162L326.913 -592.756L330.512 -592.624L332.765 -591.934L337.305 -588.202L340.512 -582.876L343.697 -578.718L341.034 -576.254L333.868 -575.625L329.298 -577.21z
M293.781 -565.984L293.807 -568.05L288.376 -572.618L288.075 -574.63L281.791 -578.246L291.38 -583.431L307.198 -577.221L311.141 -572.736L309.927 -571.218L307.888 -571.705L307.737 -568.64L299.384 -568.892L297.592 -565.914L293.781 -565.984z
M118.412 -555.106L118.265 -556.092L119.917 -556.786L123.033 -557.161L124.622 -558.441L128.364 -560.4L132.027 -559.158L132.075 -558.036L131.456 -556.301L125.448 -553.526L121.173 -552.585L117.679 -552.559L118.412 -555.106"/>
<path fill="rgb(255,225,170)" d="M108.506 -312.961l-3.59239 -1.47512l-2.37668 -4.48992l-4.8842 -0.162557l-1.79447 -5.14533l6.21636 -4.74874l1.24281 -8.17512l-3.26959 -2.34612l0.0639852 -4.36886l4.72222 -4.62769l-0.672133 -1.81349l-8.01083 3.47538l0.27727 -4.77871l-6.61123 -1.13329l-10.2849 3.81202l-6.45962 0.574137l-3.84026 -2.19913l-10.0924 0.0737847l-8.89452 3.72325l-4.7643 -1.40364l-15.621 0.767246l-16.0061 1.68264l-9.09512 2.87472l-5.96215 3.89733l-10.2117 1.64113l-9.07898 5.16032l-4.10255 -0.0997248l-9.78224 -2.08557l-8.98098 0.653687l-5.69295 -4.01032l-6.95306 -0.0449631l-2.96868 5.80075l-6.31032 9.77878l-7.00494 3.90425l-9.475 4.3141l-2.161 2.26946h196.85l-4.41788 -1.29469"/>
<path fill="rgb(255,225,170)" d="M-236.388 -654.111l25.3135 -8.2229l-13.0182 -0.515195l-24.8893 -0.400916l10.9689 -4.96589l-3.23057 -6.40976l11.677 5.42536l7.28157 3.64074l16.8344 -1.81985l-3.58181 -7.60552l-12.3736 -5.77226l-12.75 -2.36149l4.8603 -2.52809l18.6887 3.90802l-0.128161 -4.20457l-6.47587 -3.50124h-37.7892v40.7318l18.6125 -5.39823"/>
</g>
<g stroke-width="0.5px" stroke="rgb(209,179,139)" fill="none">
<path d="M326.556 -336.898l-6.38132 4.02182l0.68767 1.76847l0.295273 0.759414l-9.68106 3.8366l-4.62335 -1.22575l-2.2065 -3.79268l4.48718 -0.347495l0.66766 -0.0517339l1.3646 -2.278l6.80251 0.127382l8.58733 -2.81803"/>
<path d="M223.833 -337.214l5.16314 3.18261l7.35109 -0.538081l7.02848 0.670344l-0.22841 1.64353l5.14703 -1.13326l-1.18061 2.78606l-13.6001 0.802851l0.0946827 -1.55836l-11.5225 -1.84168l1.74724 -4.01401"/>
<path d="M146.581 -361.072l-3.40126 7.43381l1.41341 2.92613l-1.98248 4.85664l-7.22273 -3.55719l-4.80246 -1.01906l-13.1819 -4.80173l1.32165 -4.84907l11.052 0.86337l9.63421 -1.02858l7.16953 -0.824325"/>
<path d="M86.9834 -389.205l5.66632 6.70539l-1.32653 12.4915l-4.2944 -0.595915l-3.85222 3.15308l-3.57598 -2.50494l-0.378243 -11.3944l-2.15574 -5.39935l5.19437 0.472437l4.72242 -2.92784"/>
<path d="M90.289 -398.107l-3.11916 7.29569l-4.28805 -1.92294l-2.18649 -6.35521l1.90586 -3.5096l6.08214 -3.60648l1.6057 8.09854"/>
<path d="M-64.117 -493.568l-16.7427 5.57994l-13.3683 -1.42756l7.65759 -9.86164l-4.93229 -9.60249l12.8495 -7.39648l7.1383 -4.41153l7.91748 -0.389468l10.1235 5.83909l-5.06162 6.48869l1.55738 6.74712l-7.13878 8.43433"/>
<path d="M119.85 -525.205l-5.66681 7.64978l-9.88312 -5.33469l-1.31873 -3.9203l13.8549 -3.13039l3.01374 4.7356"/>
<path d="M-28.3806 -553.775l-10.0944 10.2187l9.62225 -1.29383l10.3485 0.0492936l-2.46224 7.69517l-8.4907 8.46434l9.7655 0.602504l9.16128 12.1362l6.46478 1.51688l5.81274 10.7606l2.69162 3.73069l11.4425 1.79897l-1.14791 6.03993l-4.81125 2.76947l3.7712 4.88592l-8.49558 4.94595l-12.6353 -0.0873619l-16.079 2.59694l-4.40372 -1.85925l-6.24442 4.42495l-8.73668 -1.07177l-6.63487 3.60624l-5.02014 -1.88585l13.851 -9.91972l8.45409 -2.04007l-14.8232 -1.58154l-2.6721 -3.75827l9.86896 -2.92736l-5.17241 -5.08724l1.79458 -6.1861l14.0526 0.855317l1.38901 -5.48306l-6.46942 -5.95012l-11.4671 -1.66183l-2.25115 -2.55595l3.43225 -4.22046l-3.10598 -2.60207l-5.08505 4.46571l-0.553455 -9.10321l-4.76928 -4.81662l3.42981 -9.76403l7.33669 -7.661l7.54143 0.747701l11.3946 -0.794798"/>
<path d="M-137.027 -627.639l-2.18112 6.11192l10.6713 6.44184l-12.2787 7.20223l-27.2435 6.47259l-8.1393 1.72235l-12.4337 -1.39071l-26.3521 -2.98958l9.29794 -4.17385l-20.5564 -4.61847l16.7227 -1.8307l-0.406306 -2.77313l-19.8216 -2.19674l6.38132 -6.15145l14.3139 -1.3973l14.7205 6.4067l14.3503 -5.14239l11.8832 2.67039l15.402 -5.03331l15.6695 0.669612"/>
<path d="M-81.7644 -313.936l9.475 -4.3141l7.00494 -3.90425l6.31032 -9.77878l2.96868 -5.80075l6.95306 0.0449626l5.69295 4.01031l8.98098 -0.653687l9.78224 2.08557l4.10255 0.0997247l9.07898 -5.16032l10.2117 -1.64113l5.96215 -3.89733l9.09512 -2.87472l16.0061 -1.68264l15.621 -0.767246l4.7643 1.40364l8.89452 -3.72325l10.0924 -0.0737847l3.84026 2.19913l6.45962 -0.574137l10.2849 -3.81202l6.61123 1.13329l-0.277269 4.77871l8.01083 -3.47538l0.672133 1.81349l-4.72222 4.62769l-0.0639852 4.36886l3.26959 2.34612l-1.24281 8.17512l-6.21636 4.74874l1.79447 5.14533l4.8842 0.162557l2.37668 4.48992l3.59239 1.47512"/>
<path d="M331.486 -312.429l0.260552 -0.096266l3.36412 -7.69379l4.69744 -6.65446l0.177544 -0.328573l-0.881958 -7.22687l2.31211 -3.88523l-3.47365 -4.28413l3.57741 -3.54743l-5.75924 0.804715l-7.90131 -2.17204l-6.49363 5.43413l-14.3333 1.06354l-7.64594 -5.06982l-10.1811 -0.31762l-2.1778 3.91751l-6.52649 1.12233l-9.13432 -5.03004l-10.3097 0.170051l-5.59496 -9.39372l-6.90002 -5.23814l4.59368 -7.34561l-5.98579 -4.5124l10.4757 -9.03286l14.5448 -0.37757l3.96651 -7.17787l17.9989 1.25031l11.3542 -6.12586l11.0049 -2.67066l15.6251 -0.200026l16.484 6.65619l13.5493 3.65292l11.0026 -1.4561l8.12958 0.84276l11.1501 -4.93032l1.4094 -4.03625l-2.35938 -6.44118l-5.45892 -3.48114l-5.23237 -1.0866l-3.46039 -2.89374l-12.0413 -7.98028l-10.776 -3.56242l-8.15667 -5.54769l6.87408 -1.50913l7.83674 -7.89958l-5.2831 -3.73823l13.9211 -3.85295l-0.2496 -2.06655l-8.47717 1.52239l-7.54218 0.755717l-6.28265 3.05573l-8.84148 0.4992l-8.13592 3.51861l0.553385 5.87453l4.62019 2.2781l9.63352 -0.566644l-1.84519 3.36989l-10.3379 1.63537l-12.8218 5.46468l-5.2514 -1.92071l2.08154 -4.43919l-10.3189 -2.76347l1.66823 -1.81118l9.03978 -3.13931l-2.73292 -2.16281l-14.6826 -2.38763l-0.649651 -3.52091l-8.74925 1.16326l-3.50593 5.20067l-7.31391 6.9813l0.219625 2.43432l-4.57869 2.03254l-2.86953 -0.883687l-2.64242 11.3934l-4.9015 3.91232l-3.44944 6.75649l3.04881 5.38686l1.12176 3.63217l8.24544 3.05054l-1.71895 2.31442l-11.2147 0.519375l-4.02876 2.92026l-7.88055 5.08653l-2.97329 -4.39711l0.128547 -1.94953l-5.75348 -0.268046l-4.92801 -0.893487l-11.4372 2.45565l6.54666 5.30731l-4.79774 1.53968l-5.26062 0.00922309l-4.99603 -4.86345l-1.77372 2.07347l2.10978 5.6405l4.72626 4.43112l-3.56069 2.07058l5.26062 4.35215l4.67495 2.73868l0.141805 5.33613l-8.736 -2.50292l2.78595 4.81676l-5.99731 0.991482l3.58144 8.33594l-6.27285 0.117018l-7.74451 -4.10831l-3.54167 -7.55544l-1.65266 -6.28265l-3.68347 -4.34235l-4.83924 -5.38513l-0.638699 -2.69026l-1.60539 -0.66118l-0.189073 -2.0775l-5.2318 -3.17159l-0.822008 -4.49914l0.79895 -6.44291l1.28835 -2.93352l-1.58868 -1.48838l-1.97778 -0.73093l-2.64818 -3.08282l-4.08006 -1.87575l-8.87953 -3.4944l-5.47563 -3.39986l-8.638 -2.80728l-7.94281 -6.95075l1.90572 -0.704414l-4.30661 -3.97285l-0.175815 -3.18831l-6.07225 -1.49011l-2.89432 4.07776l-2.78768 -3.16352l0.211555 -3.27766l0.336066 -0.152757l2.10229 -0.857747l-7.5174 -1.37482l-7.6788 3.35086l0.521681 4.68821l-1.15634 2.69141l3.09608 4.80754l8.85532 4.75796l4.75047 7.80677l10.5097 7.61251l7.40095 -0.0587972l2.30058 2.0873l-2.65049 1.88151l8.46046 3.41312l6.93403 2.85801l8.09787 4.92398l0.978224 1.76449l-1.76392 3.38084l-5.2416 -4.40864l-8.20567 -1.55467l-3.97573 6.10914l6.82624 3.50189l-1.12003 4.92801l-3.94633 0.55915l-5.0433 8.10133l-3.93826 0.727471l0.0380452 -2.88856l1.92647 -5.06405l2.05156 -2.01697l-3.68751 -5.47448l-2.88222 -4.76142l-3.92154 -1.17883l-2.78768 -4.07603l-6.06879 -1.71722l-4.08583 -3.79473l-6.9888 -0.612183l-7.3802 -4.26337l-8.63973 -6.14834l-6.42042 -5.43989l-2.94678 -9.33665l-4.69916 -1.09755l-7.68399 -3.11625l-4.34638 1.27452l-5.45719 4.3827l-3.925 0.692885l-8.55672 5.33613l-18.6283 -2.55768l-13.7545 3.0638l-1.08083 5.68776l0.504388 5.48716l-8.94928 6.29015l-12.1024 1.99622l-0.842183 3.17735l-5.80478 5.2341l-3.63966 7.68745l3.68347 5.39839l-5.46295 4.21265l-2.04291 6.14085l-7.12945 1.88093l-6.68789 7.26318l-11.9877 0.143534l-9.00231 -0.17985l-5.91488 3.33588l-3.6068 3.56818l-4.62134 -0.783963l-3.49728 -3.19004l-2.67758 -5.4324l-8.81612 -1.46417l-3.79588 2.45161l-4.97932 -1.32755l-4.87325 1.03875l1.44226 -7.39115l-0.887146 -5.80651l-4.2259 -0.871006l-2.25735 -3.57914l0.751682 -6.18235l3.76475 -3.42868l0.670403 -3.81721l1.97028 -5.67969l-0.208672 -4.00109l-1.889 -3.39237l-0.415616 -3.18427l0.476142 -6.72652l-3.85813 -4.09678l13.3608 -6.81702l11.5571 1.7057l12.6812 -0.0605265l10.0491 1.61289l7.84136 -0.494588l15.2642 0.311279l4.88363 -5.66471l1.7985 -18.8151l-9.74592 -9.91309l-6.96516 -4.77698l-14.4347 -3.6339l-0.951131 -6.88504l12.2448 -2.05502l15.8597 2.42913l-2.99289 -10.6913l8.91585 4.05182l21.9873 -7.36521l2.83725 -7.73875l8.25812 -1.90572l7.571 -1.86422l4.86576 -2.59342l8.27138 -13.8969l12.9215 -3.95325l7.84827 0.266317l1.84404 -1.99853l7.89324 -0.513611l1.75123 2.08154l6.41293 -4.65593l-2.15936 -3.53994l-0.432332 -5.35689l-3.8345 -5.23987l-0.285339 -9.656l1.57369 -2.55018l2.70871 -2.83322l8.32038 -0.585666l3.31685 -2.60437l7.59694 -2.66547l-0.321079 4.85653l-2.79517 3.07705l1.13329 2.64414l5.12054 1.43016l-2.30808 3.56242l-2.81247 -1.02607l-6.8003 6.8003l2.5669 4.59944l0.168321 3.64946l9.54244 2.20028l-0.0997247 3.35259l9.60297 -1.77314l5.30962 -2.58823l10.663 3.73074l4.45936 3.0073l6.4527 -2.77327l14.7391 -4.36886l11.8943 -3.1958l9.42542 1.59617l0.711907 2.30404l9.10838 0.119324l2.15129 -4.15558l13.0334 -3.0638l-2.00775 -7.93935l0.326843 -7.10927l4.64094 -5.9316l8.90201 -3.22578l7.49895 7.05682l7.57677 -0.183309l1.81522 -7.25165l1.09697 -5.5719l-3.47365 1.18978l-5.99328 -3.35432l-0.819702 -5.42721l11.9416 -2.63089l11.9001 -1.37136l10.2469 1.55986l9.74477 -0.279575l10.7345 -5.21854l-9.89349 -4.48992l-17.14 0.751682l-16.6091 3.46212l-15.3662 1.99103l-5.46641 -5.1511l-9.14758 -3.10126l2.10229 -9.30322l-4.58618 -8.52041l4.5026 -5.50042l8.56249 -5.93102l21.6074 -10.2417l6.30456 -1.97605l-0.981683 -3.99475l-13.1337 -4.46167l-16.2465 2.67297l-9.15911 6.5899l1.47512 5.78403l-15.0238 7.59349l-18.2375 8.12381l-6.87754 13.2997l6.72248 6.65446l9.03113 5.23987l-8.67374 10.6532l-9.82259 2.21008l-3.60392 15.8556l-5.36265 8.84725l-11.458 -0.912509l-5.34536 7.48973l-10.9351 0.434638l-3.00096 -8.92737l-7.90534 -10.7172l-7.18536 -13.3562l-6.33338 -5.79729l-18.6491 10.9236l-12.5912 2.21354l-13.0616 -4.80869l-3.37738 -10.1552l-2.98598 -21.7959l8.69622 -6.07629l24.9392 -7.92955l18.6451 -9.7465l17.2887 -13.1619l22.6951 -18.2375l15.8159 -7.10754l25.9549 -11.8453l20.7249 -4.13483l15.538 0.502658l14.384 -7.82406l17.2212 0.417345l16.9567 -1.88093l29.5421 6.90925l-12.1647 2.5277l10.3472 5.93275l9.74304 -3.28457l15.5155 5.70794l25.8644 2.24813l35.6847 10.6815l7.24762 4.48819l0.625441 6.28611l-10.4849 4.96202l-15.4233 2.51963l-42.1616 -7.1796l-6.93403 1.20131l15.3979 6.91732l1.2186 14.0306l12.1589 2.88049l7.38135 2.45161l1.22033 -4.57869l-5.89701 -4.20803l6.21809 -3.42868l22.8312 5.87857l7.95434 -2.30116l-6.35644 -6.91674l22.0092 -9.25018l8.71755 0.544162l8.819 3.30187l5.50042 -6.49017l-7.87479 -5.6307l4.6225 -5.64799l-6.9421 -5.85954"/>
<path d="M281.791 -578.246l6.28371 3.616l0.300642 2.01274l5.43108 4.56771l-0.0253789 2.06618l3.81073 0.0693038l1.79165 -2.97787l8.35306 0.252325l0.151297 -3.06547l2.03861 0.487567l1.21428 -1.51785l-3.94251 -4.48523l-15.8184 -6.21001l-9.58882 5.18461"/>
<path d="M132.027 -559.158l-3.66285 -1.24259l-3.74143 1.95954l-1.58911 1.27944l-3.11623 0.374826l-1.65207 0.694747l0.147393 0.985383l-0.733059 2.54765l3.49399 -0.026843l4.27439 -0.94097l6.00894 -2.77508l0.618854 -1.73504l-0.0488055 -1.12106"/>
<path d="M337.305 -588.202l-4.53989 -3.73167l-2.25286 -0.690598l-3.59892 -0.132019l4.96157 2.59426l3.06011 2.18868l-2.33388 0.592499l-1.28749 0.49196l-2.31045 -1.46929l-1.97858 -1.46831l0.372874 2.10083l-3.54914 -0.641793l-0.234266 0.742332l2.09571 3.3261l3.49838 2.97665l2.85854 1.48759l3.95081 2.90832l-3.50424 -0.265258l-3.21531 -0.0183021l4.57015 1.58472l7.16563 -0.628127l2.66283 -2.46468l-3.18505 -4.15799l-3.20652 -5.3259"/>
<path d="M-210.735 -685.943l0.128161 4.20457l-18.6887 -3.90802l-4.8603 2.52809l12.75 2.36149l12.3736 5.77226l3.58181 7.60552l-16.8344 1.81985l-7.28157 -3.64074l-11.677 -5.42536l3.23057 6.40976l-10.9689 4.96589l24.8893 0.400917l13.0182 0.515194l-25.3135 8.2229"/>
</g>
<g stroke-width="0.5px" stroke="rgb(178,178,178)" fill="none">
<path d="M425 -375.32l-1.94565 0.252524l1.49893 3.56275l0.446722 0.408326l0 -4.2236"/>
<path d="M-71.5147 -520.688l1.94688 5.06043l-1.94688 5.06081l5.84063 -0.129861l7.13839 1.94688"/>
<path d="M76.3583 -311.667l-4.46125 -3.25002l-0.832528 -7.11403l5.82241 -5.26773l2.22294 -7.78931l-1.49723 -9.00339l1.91864 -4.84727"/>
<path d="M108.41 -311.667l0.0952264 -1.29389"/>
<path d="M-70.3963 -350.368l-0.787478 -3.12724l3.50002 -3.54148l1.29616 -2.56747l-3.25644 -2.80783l2.60733 -6.20519l-3.78382 -5.66185l4.08057 -0.777656l0.379289 -4.46382l1.53387 -1.38191l0.121928 -7.36884l4.36362 -2.55671l-2.63982 -4.73714l-5.50347 -0.330272l-1.61679 1.19264l-5.57855 0.0113333l-2.36772 -4.62391l-3.8539 1.37681l-3.42739 2.39993"/>
<path d="M-17.9572 -410.104l3.76427 3.67191l17.3856 4.29212l3.43343 -2.04161l10.6267 4.2721l10.948 -1.22419"/>
<path d="M80.5253 -519.093l7.13839 1.24544l6.04312 -1.43763"/>
<path d="M70.2212 -412.664l1.08035 -4.09946l-5.11898 -1.19803l-2.43289 -7.30802l3.27429 -2.87621l-2.77969 -3.54658l0.389678 -2.66834l-3.24436 -4.14167l-4.50972 1.47985l0.139872 -4.27626l6.9071 -5.30721l-0.303639 -2.40002l4.30327 0.86955l2.59297 -1.61339l1.19869 -6.72851l4.77502 -6.46727l-13.6099 -1.73938l-4.45721 -2.47331"/>
<path d="M70.5195 -449.75l8.03278 0.0660157l1.93876 -2.05162l10.1211 2.88764l2.85071 -0.520861l4.77889 2.62319l1.34508 -2.49258l8.32953 0.402428l6.75202 -1.69329l4.52767 0.289756l2.94553 1.93384l0.880411 -1.60508l-1.33875 -6.15391l3.39263 -1.19878l3.33021 -4.35455l-5.33262 -4.05998l-4.81912 -2.26997l-0.999789 -3.98291l-1.65363 -2.80689l6.86366 -2.05662l3.50634 -2.35308l6.78234 -1.8292l2.36838 -1.79784l2.49097 1.08545l4.2143 -0.985434l-3.87128 -6.03037l0.736006 -3.25616l-2.33627 -5.05174l-3.42975 -3.36628l2.6333 -2.52082l-2.2066 -4.80562"/>
<path d="M64.634 -434.361l4.06347 2.02309l4.55354 -0.449461l5.29503 -3.20318l1.63682 1.49704l4.49886 -0.300239l2.04557 -3.80847l6.98842 1.18339l4.16075 -1.59299l0.749134 -3.87194l-4.81884 -0.2567l-4.27361 -1.71974l1.44453 -2.31172l-0.3655 -1.6762"/>
<path d="M131.633 -430.582l-2.26242 -4.02107l1.02368 -4.65139l-13.5054 -2.43922l-2.11008 -3.28506l-9.33338 1.64144l-1.0982 1.79671l-5.72192 -1.343"/>
<path d="M141.827 -482.674l4.47648 3.04054l7.06142 0.821667l-0.589239 2.59826l5.13069 1.95396l1.40958 -2.43903l6.47728 1.05646l0.8959 2.95696l7.02157 0.57035l4.34681 4.65063l0.53295 0.570161l3.88289 -1.28171l4.76321 3.34749l5.57968 -2.02423l4.45901 0.969661l6.79849 -1.33459l8.97562 3.63007l2.06116 0.550989l-2.43648 -4.24414l8.57631 -7.85513l4.68681 -1.09914l1.01273 -2.64945l-4.74971 -8.24557l-0.1802 -4.20448l-2.91352 -4.3758l5.66383 -1.92789l0.0541167 -3.76503l-2.61989 -3.59229l-0.409984 -4.17813l-2.2678 -2.90964l-4.84415 -1.01027l-17.3669 0.141856l-11.6318 -1.07261"/>
<path d="M250.224 -525.254l5.74354 -1.58856l10.1453 -3.64404l-3.03544 -5.57383l-0.805139 -4.57989l-4.5509 -2.17487l-7.78808 -0.0175667l-8.12949 -3.5054l-4.13856 -1.15798l-8.04431 1.66893"/>
<path d="M257.722 -542.815l4.04713 -2.99757l-2.80075 -8.80846l6.72019 -5.44246l-1.42214 -1.64843"/>
<path d="M222.2 -487.13l4.51463 -0.36805l5.17584 -2.55982l7.31661 -0.209571l9.54031 0.740443l10.5411 2.26648l7.43788 0.189456l3.55092 1.36501l3.54374 -1.64664l2.47548 2.2083l8.52295 -0.452483l3.75643 0.912806l0.607939 -4.75367l2.90983 -2.07324l8.10702 -0.560433l-2.32305 -6.04822l-2.21746 -3.1348l1.81739 -0.882394l7.62082 0.327722l3.67493 -2.06569l-2.72076 -2.51798l-6.36839 -1.66203l0.567989 -1.70557l-3.84323 -1.72276l-5.9211 -6.18356l2.02394 -2.54792l-0.924706 -4.43379l-9.23317 -2.25193l-4.95626 1.12719l-1.34111 -2.34477l-9.94349 -2.36838"/>
<path d="M31.3079 -484.932l6.91466 0.741483l8.75387 -1.96218l5.97814 4.13393l5.19171 2.20594l-1.58667 -9.89655l5.67356 -0.00396667l2.39388 -3.55489l2.35365 -8.64752l-1.76536 -3.19336"/>
<path d="M23.7396 -483.069l1.36756 3.32142l4.39034 0.15555l4.39091 3.79081l6.59081 4.45268l4.84661 -0.735533l8.26238 4.30591l1.02331 -5.29692l2.46179 -0.356244l1.07298 -6.38161"/>
<path d="M53.5882 -467.778l2.11272 0.819779l2.72519 -0.199751l0.53295 -4.14054l-1.88577 -2.13265"/>
<path d="M214.683 -513.094l-0.756217 -2.41013l1.008 -2.58617l-4.17482 -1.49921l-9.89088 -1.65438"/>
<path d="M221.794 -509.174l9.12853 0.0643167l10.2538 -3.5581l2.19168 -5.33167l7.74322 -3.02421l-0.8874 -4.23045l-9.07876 -4.58235l-5.02548 -0.6069l-1.32458 -1.96416l-9.27879 0.933678l-15.8393 -0.605861l-10.8172 2.8968"/>
<path d="M178.057 -467.464l-2.81577 0.0116167l-1.46389 1.7l-2.1675 0.410833l-0.618611 2.14861l-1.80861 0.448611l-0.255 0.878333l-3.22528 0.9775l-4.18389 -0.160556l-1.33828 2.07806l-4.35389 -1.78349l-4.43558 0.490261l-7.33116 -2.88226l-3.32416 0.705406l-5.31307 3.86363l-7.01666 -3.03988"/>
<path d="M130.395 -439.254l7.80121 0.731661l4.76548 -2.14275l8.26011 -0.235168l1.80021 -1.59403l3.13546 -6.08014l-1.82929 -2.04699l5.31892 -0.0186056l0.716739 -3.85928l-0.941139 -3.2725l0.758389 -1.19916"/>
<path d="M153.022 -442.495l1.58856 0.10455l1.83553 3.18797l3.0005 1.16289l7.05991 4.05034l7.80121 1.81617l3.52996 -1.41109l7.23633 -2.48247l5.89503 0.418105l7.57218 -1.78132l5.70945 -6.40485l4.46977 -6.40532l5.76838 -1.98088l-0.658656 -2.53158l-5.24337 -2.56917"/>
<path d="M174.25 -401.2l1.03889 -1.60556l-8.35928 -3.57538l-3.56528 -3.94579l-3.60051 -2.09053l-4.34189 -3.52778l-2.04737 -2.92674l-4.62428 -4.41622l1.97682 -3.91973l3.38876 2.16892l2.04737 -1.95991l4.41244 -0.209006l8.11892 1.56787l6.53046 -0.130618l4.27116 2.09053l3.63592 -3.55394l-3.0005 -2.69157l-2.29443 -3.6584"/>
<path d="M160.363 -454.5l4.80571 2.41797l3.48179 1.02992l7.92729 -1.15732l0.760561 -1.89626l3.75247 -0.279933l4.59944 -1.46625l1.02085 0.604067l4.43502 -1.17952l2.21501 -2.22209l3.09523 -0.576111l10.1143 2.86998l2.01526 -0.966072l1.84365 -3.80762l2.61932 -2.45858"/>
<path d="M156.446 -439.202l-7.51882 2.50863l-0.917811 3.81527l-3.28279 0.966828l0.0353222 2.63925l-3.70647 -0.182845l-3.21224 -1.54181l-1.72975 1.59403l-6.58193 -0.322433"/>
<path d="M266.65 -429.611l-1.69159 -4.30959l0.997144 -4.03259l-0.301656 -4.14517l-5.44859 -5.61614l-2.99663 -3.98244l-2.92494 -2.80028l-2.87904 -0.920456"/>
<path d="M190.969 -435.648l5.11851 3.71063l1.05891 3.00513l5.75384 2.22124l0.741294 3.89357l5.50677 2.7438l2.96518 -2.11659l2.32976 1.17593l-2.18856 1.59403l1.72966 1.64626l2.71745 3.88308l3.65916 -0.691711l7.2573 1.47305l13.8699 0.496872l4.68303 -2.40899l11.1183 -2.19574l6.87329 3.43324l5.55286 0.991573"/>
<path d="M182.956 -395.51l-0.635422 -3.00513l4.09473 -4.65139l0.6001 1.77688l2.54159 -0.836117l2.01204 2.5347l2.2592 0.966922l0.635423 3.42323l1.20011 0.0783889l0.423678 -1.93375l5.57732 -1.46332l2.11495 -0.362896l3.21521 -0.551798l4.37722 -0.156778l1.55314 -1.33271l-1.02368 -1.1236l1.58846 -3.00513l3.6006 -2.9529l-4.58896 -4.07651l-0.847167 -3.44939l2.32976 -2.14275"/>
<path d="M279.586 -427.77l-4.28353 -1.62067l-4.43823 1.51952l-4.21458 -1.74004l2.37754 -1.02604l1.65023 -3.24029l2.58523 -3.01136l-0.668006 -1.69084l1.97464 -0.753667l0.930844 1.3073l5.56618 0.276344l2.49938 -0.698417l-1.76044 -0.957572l0.666778 -1.4076l-3.29762 -2.40087l-1.3651 -3.94825l-3.44033 -1.54483l0.678111 -3.20063l-4.26681 -2.54112l-3.88507 -0.353222l-6.96074 -2.94261l-6.27772 0.934244l-2.25241 1.39277l-3.98452 -0.00122778l-2.37528 2.20717l-6.9717 0.907706l-3.22481 1.45001l-4.38477 -2.30775l-6.05436 -0.0350379l-5.84375 -1.04588l-4.07717 2.02253"/>
<path d="M361 -444.854l0.297972 -4.19541l4.86814 -2.63698l9.13958 -0.692372l1.48599 -3.14953l-2.08694 -5.20776l3.83577 -4.9453l-0.110972 -2.77298l-13.9214 -3.07332l-5.51905 0.102001l-5.82892 -4.42293l-7.24682 1.49581l-11.9946 -3.32076l0.2057 -1.8581l-3.35948 -4.09558l-7.53091 -0.457301l-0.782283 -2.93174l2.35894 -1.91193l-6.03566 -5.34754l-9.79313 0.912617l-2.86818 -0.474678l-2.38595 2.14823l-3.52722 -0.381839"/>
<path d="M211.372 -399.691l4.73016 3.03129l0.670649 6.24542l6.98596 0.273228l7.56084 -2.59552l6.65418 3.30008l8.58434 -0.89165l0.103228 -4.70333l9.62058 -2.97122l8.13186 1.26669"/>
<path d="M194.463 -395.301l-1.2002 3.21413l1.34139 4.05044l3.91822 2.29953l6.17742 -0.836211l3.6006 -2.06437l5.11842 0.182938l1.55314 -1.64626l1.8003 -0.31365"/>
<path d="M246.093 -385.561l2.24504 -1.05891l2.92372 -5.91109l-4.60058 -2.50051"/>
<path d="M190.306 -374.236l4.39167 -4.58056l0.566667 -3.06944l3.06944 -1.36944l0.189361 -2.48143"/>
<path d="M341.414 -338.315l2.52941 -2.06899l2.52941 -2.06899l0.510756 -5.26839l3.09088 1.83676l10.3982 -2.62716l5.02548 1.7782l7.76994 -0.0294667l10.8678 -3.54374l5.08923 0.159706l10.7426 -1.4688l4.05667 -1.46757l10.9853 1.21871l3.31698 2.40578l4.52587 -1.59564l-5.16545 -7.56642l1.84809 -2.92466l-2.94837 -10.8316l6.46708 -2.69027l-3.72101 -2.75775l-7.0227 -2.3476l0.908838 -4.59595l-1.6047 -3.32388l-9.09651 -4.6376l-10.0632 0.448894"/>
<path d="M425 -402.411l-4.36683 -0.979672l-5.7273 1.48316l-1.65495 -1.75553l-12.8594 -4.52823l-13.9042 -1.52858l-7.98292 -1.61443l-1.15166 1.11529"/>
<path d="M425 -389.739l-0.259911 0.17329l-13.1253 1.47322"/>
<path d="M270.035 -652.279l-1.3787 6.61253l14.464 6.29331l-8.71562 7.12121l10.9844 10.7506l-6.35809 8.09682l8.50246 7.02874l-3.86117 6.15428l13.98 6.47077l-3.55196 4.81657l-8.77294 5.45568l-20.2216 12.0559"/>
<path d="M367.556 -311.667l-1.18408 -3.57642"/>
<path d="M425 -347.102l-2.14701 -3.95274"/>
<path d="M225.754 -623.399l-3.1875 -3.67531l-0.249144 -14.5439l-14.7426 -6.43016l-12.5887 -4.62211"/>
<path d="M175.289 -402.806l1.38342 -5.19548l3.07105 -2.19508l1.76488 -0.862372l2.22398 -0.418106l1.37662 -4.44229l-4.55364 -3.63233l2.36508 -4.15489l-3.42408 0.0261611"/>
<path d="M359.801 -311.667l6.57159 -3.57642l20.9083 -9.82883l3.5683 -11.4179l-0.890328 -6.89888l5.16951 -2.33334l4.84018 -5.89352"/>
<path d="M338.31 -314.287l-2.53385 0.124289l-0.869739 1.65495l-3.16049 -0.0176611"/>
<path d="M189.557 -402.226l1.76498 -2.11669l0.776523 -0.81005l-3.60051 -1.95991l-3.10316 -1.01754l-1.37993 -1.30815l-2.50627 -1.62019"/>
<path d="M425 -389.236l-0.259911 -0.329938"/>
<path d="M293.732 -656.938l-16.07 3.78902l-7.62752 0.870117l4.00086 -6.62717l-12.1197 -3.75606l-14.6643 3.20082l-4.63137 6.92419l-9.00566 4.17973l-10.1397 -2.28244l-12.3328 0.4675l-10.4955 -4.99347l-5.66053 2.49532l-5.85896 0.388261l-1.38512 6.21378l-17.8 -1.513l-2.49994 5.25923l-9.06922 -0.0319222l-6.23532 6.71972l-9.4469 10.4697l-14.6647 13.2868l3.43986 3.22622l-3.28648 3.74293l-9.36889 -0.161783l-6.13294 8.85823l0.580833 12.5417l6.03594 4.78626l-3.12394 11.1034l-7.85919 6.47454l-4.16377 5.44217"/>
<path d="M338.338 -314.349l2.28956 -5.10806l5.15024 -3.55952l-1.54511 -3.70364l-4.24783 -0.481478"/>
<path d="M-13.5295 -311.667l-2.84209 -8.68615l-0.562228 -5.74411l-3.55971 -6.04917"/>
</g>
<g stroke-width="0.5px" stroke="rgb(178,178,178)" fill="none" stroke-dasharray="1,1">
<path d="M320.862 -331.108l-1.01223 -0.33139l-1.80434 0.715245l-1.4139 -0.196686l-0.470974 0.362137l-0.187901 -0.954636l-0.680837 -0.578834l-1.82142 -0.0983431l-2.56327 0.805536l-1.77359 -0.492936"/>
<path d="M203.779 -398.983l-0.31465 -0.708576l1.12956 -1.12361l1.05901 -2.29953l-1.34139 0.0522287l-1.83562 -1.75081l-1.55314 -0.444267l-1.23548 -1.50256l-1.76502 -0.587964l-1.34139 -1.33271l-1.69433 0.522656l-1.30607 3.13574l-2.25921 0.679433"/>
<path d="M338.338 -314.349l-0.0280075 0.0624854l0.0981958 2.62017"/>
</g>
</g>
</g>
</g>
<g inkscape:groupmode="layer" inkscape:label="StaticLayer" id="StaticLayer"><title>StaticLayer</title>
<g>
<g id="drawing" inkscape:label="drawing" transform="translate(255,311.667)">
<g stroke-width="0.5px" stroke="rgb(0,0,255)" fill="none">
<path d="M207.4 -577.036l-4.10167 0.215981l-2.69833 -0.194208l-4.10504 0.190809l-2.69496 -0.173606l-2.33391 1.96262l-1.89063 2.35748l-0.734419 1.85964l-1.57338 5.00905l-0.00924964 0.261017l-0.258407 5.8528l-0.0316479 0.722901l-0.00168034 0.0319675l0.0333282 0.0960903l2.56953 6.7726l4.23047 5.56631l3.55383 -1.97659l3.24617 -1.38232l1.45224 -0.740494l3.73152 -1.46691l0.990256 -0.632306l0.625983 -0.268503l2.20642 -3.73917l1.39249 -2.22871l0.433705 -2.79534l1.2232 -4.07335l-0.438064 -2.00227l-0.203688 -4.86642l-4.61406 -4.35908"/>
<path d="M-255 -624.414l1.44136 -1.75602l1.39015 -1.45591l2.25451 -1.7313l1.71398 -0.919905l2.51315 -1.67895l4.28685 -2.036l0.489118 -0.00847765l6.31088 -0.189012l0.29684 -0.00520817l6.50316 -0.197193l0.229741 0.129416l6.57026 3.23331l5.21118 3.40332l1.58882 1.78922l2.86992 5.07947l1.72071 4.637l0.796093 2.23169l1.41328 3.87544l1.26741 2.99325l2.69781 4.00528l1.59948 2.86341l1.2353 1.44909l2.99061 1.57173l3.80939 2.39101l3.51215 1.45686l3.28785 1.17732l1.19183 0.0265492l5.60817 -0.150448l1.0676 0.024964l5.7324 -0.161825l0.869714 -0.0380643l3.44692 -0.878499l2.06833 -0.419223l0.41503 -0.180493l5.00879 -1.20959l1.79121 -0.963446l3.48877 -0.571928l3.31123 -1.32193l1.82459 -0.359058l3.69127 -1.84302l0.944259 -0.343316l0.339883 -0.231739l2.22257 0.575055l4.57743 1.24851l1.5756 0.343003l5.2244 1.35132l3.60246 0.696019l3.19754 0.948957l5.45265 0.91992l1.34735 0.35487l6.11028 0.309397l0.689723 0.0773756l6.49141 0.307611l0.308587 0.0325315l2.99321 0.279172l3.80679 0.385172l0.44336 0.0626657l6.35664 0.669799l1.7394 0.639331l5.0606 1.5488l5.44288 2.19209l1.35712 0.459317l3.23662 0.911514l3.56338 1.37433l2.50738 1.15838l4.29262 1.79087l5.23348 0.962768l1.56652 0.176136l6.74205 1.34767l0.0579504 0.00713341l0.333191 0.0514023l6.46681 1.35635l1.86278 0.525251l4.93722 1.11528l5.96505 3.02843l0.834945 0.395426l0.826248 0.447953l-0.466424 0.363458l-0.359824 0.269671l-3.51028 2.68982l-3.28972 2.42511l-0.767049 0.345827l-0.488341 0.774797l-4.10623 1.45291l-1.43838 1.16936l-2.86332 1.35418l-2.36002 2.89224l-0.804952 0.779507l-0.771712 1.75528l-1.49415 2.82465l-0.299651 1.50924l-1.28341 3.76039l-0.398527 3.10829l3.47574 5.53384l0.773689 1.33484l6.02631 5.81106l1.12239 1.05763l5.67761 3.19346l3.8682 0.71381l2.9318 0.440836l5.31599 1.02158l1.48401 0.232775l4.4509 -1.1066l2.3491 -1.15393l2.55764 -0.75845l4.24236 -2.58148l0.00133375 -0.000649449l0.00147579 -0.00134723l3.51857 -3.31173l3.27862 -3.55374l0.00159189 -0.00160788l0.001375 -0.00160797l2.91608 -3.92016l2.73075 -2.94853l0.353172 -0.805082l0.797031 -0.487989l4.20963 -1.32347l2.59037 -0.357813l3.03615 -0.827513l3.76385 -0.458845l2.26181 -0.323319l4.53819 -0.81908l1.26594 -0.186853l5.53406 -1.03243l0.194703 -0.0496197l0.703096 -0.19667l4.60647 -1.30882l1.29573 -0.404862l3.96402 -1.15094l2.83598 -0.905955l2.27145 -0.803714l4.52855 -0.864651l1.08177 -0.33705l5.71823 -0.975316l0.0867224 -0.0297796l0.759501 -0.0875984l5.1892 -0.772298l0.764575 0.0442073l5.42268 -0.663142l1.37732 0.0675849l4.71886 -0.778517l2.08114 -0.0292314l4.1055 -0.590325l2.6945 -0.0335387l3.3674 -0.71201l3.4326 -0.527919l2.37173 -0.477816l4.42827 -0.650359l1.36587 -0.36566l4.68033 -1.37966l0.558705 -0.197072l0.195102 -0.0551755l4.92026 -1.64648l1.87974 -0.505652l3.01917 -1.41464l3.78083 -1.85341l0.805278 -0.382843l1.635 -0.813412l2.94561 -1.4284l1.41411 -0.512049l3.00531 -1.89258l3.79469 -2.65317l0.229515 -0.150656l0.31754 -0.231834l3.72269 -2.55581l2.53026 -1.81241l1.48573 -0.999726l1.52115 -1.50073l2.13912 -1.67071l1.65401 -1.7446l1.80758 -1.62754l1.46647 -1.82584l1.68464 -1.8599l1.84131 -2.58729l1.21815 -1.19104l0.662751 -1.23045l2.14071 -2.80645l2.01895 -4.06223l0.272041 -0.492325l0.487402 -1.07391l1.7258 -3.55921l0.680745 -1.74323l1.35059 -3.0736l1.86559 -3.79509l0.343419 -0.84228l0.833857 -1.35988l2.01776 -2.62838l2.31403 -2.03814l1.25008 -1.23044l1.21813 -0.469905l3.042 -2.09562l3.758 -1.11505l1.71297 -0.227404l5.08703 0.0987522l1.62554 -0.187065l5.17446 0.0886465l2.08993 0.380437l4.71007 0.816735l3.54379 0.651811l3.25621 0.57058l5.16206 1.06403l1.63794 0.181161l6.38869 1.47333l0.411307 0.16062l0.270365 0.112476l6.52963 2.06745l4.46254 2.16708l2.33746 0.888793l6.29001 1.47228l0.509993 0.17088l0.280552 0.112505l6.51945 2.33702l2.32282 -0.274119l4.47718 -1.25519l0.952845 -0.128628l2.93904 -0.96247l2.14175 -0.774104l0.766363 -0.941518l1.80334 -3.3315l0.40424 -1.82156l0.114596 -4.52305l-0.516344 -2.34564l-0.726667 -5.77862l-0.311461 -1.09007l-0.767707 -3.33138l-0.657023 -3.53731l0.0563398 -0.606751l-0.472484 -6.26194l0.0852341 -0.997912l0.032416 -5.87078l0.114959 -0.849048l0.840557 -4.08131l0.386543 -1.54788l0.159794 -0.390447l2.19291 -4.10177l2.75634 -2.76692"/>
<path d="M316.703 -675.707l1.12679 1.64601l3.88625 5.22268l1.2842 4.31181l0.670069 2.55687l-0.027923 0.648632l0.120662 6.22005l-0.0584105 0.711513l-0.404874 6.15717l-0.0328265 0.269391l-0.266697 1.71926l-0.637956 4.23564l-0.11905 0.6444l-0.448147 5.65136l-0.132258 1.21733l-0.0522605 5.46498l-0.0485185 1.40371l0.731292 6.15465l0.0987047 0.714038l0.608193 2.7237l0.87144 4.14498l0.295004 1.17823l1.72546 5.69046l1.28161 4.21567l0.948991 2.65302l1.6775 4.69045l0.599589 2.17824l0.290575 0.899155l1.90996 5.96953l2.27049 5.12183l0.695984 1.74686l1.03341 1.82831l3.28724 5.04038l3.51276 3.53507l4.79695 3.33362l2.00305 1.08022l1.78377 0.721566l5.01623 2.38675l6.21553 2.08977l0.584475 0.19686l1.17147 0.393519l5.62853 1.8904l2.35946 0.492893l4.44054 0.709229l3.92265 0.869748l2.87735 0.489618l4.3129 -0.0954297l2.4871 -0.625281l3.59756 -0.0972831l3.20244 -1.03503l1.74303 -0.838237l1.16289 -1.76063l1.84232 -2.07248l1.57662 -4.7962l0.121426 -0.357289l0.353716 -3.78687l0.279954 -2.44175l-0.0254674 -0.282782l-0.254487 -1.33143l-0.969772 -5.53725l-0.142097 -1.1231l-1.13561 -5.74559l-0.443835 -2.7185l-0.962907 -4.15019l-0.538252 -4.23482l-0.511465 -2.63386l-0.461524 -5.21764l-0.255277 -1.65105l-0.0908656 -5.56728l-0.0556244 -1.30141l0.344979 -5.275l0.154809 -1.59368l0.690501 -4.42116l0.763574 -2.44753l0.831355 -2.81012l2.78201 -3.77547l0.0999402 -0.182147l0.108664 -0.10095l2.87913 -3.74976l3.71227 -2.07874l0.481674 -0.553643l1.0224 -0.48654l3.20828 -2.10874l2.08765 -0.272779l3.07385 -1.38227l3.72615 -0.370009"/>
<path d="M7.00585 -311.667l1.82428 -1.3837l1.36986 -0.644278l2.94267 -1.86832l3.85733 -1.56001l0.920405 -0.482685l2.33516 -0.929702l2.47121 -1.08406l1.07322 -0.34138l3.85427 -1.55005l2.94573 -0.865005l2.2194 -0.78637l4.5806 -1.19269l0.782918 -0.258302l3.24631 -0.790826l1.91472 -0.864703l0.856056 -0.254765l4.66056 -1.04158l2.13944 -0.316775l3.59929 -0.755216l3.20071 -0.446606l2.98681 -0.172059l3.81319 -0.0370397l2.79775 -0.153938l4.00225 -0.0372073l2.46486 -0.29904l4.33514 -0.249093l1.99246 -0.228083l4.80754 -0.261478l1.90624 0.174388l4.89376 0.0802331l2.20134 0.217846l4.59866 0.0821064l4.29293 2.03062l2.50707 0.729521l2.84667 1.80287l3.95333 2.3025l5.98568 4.56618l0.814323 0.876195l3.98969 5.99249"/>
<path d="M325.396 -311.667l-2.39598 -4.01797l-2.38496 -2.85071l-4.41504 -3.61091l-2.90512 0.67644l-3.89488 0.276608l-2.19181 0.443905l-4.60819 0.289566l-1.74763 0.159107l-5.05237 0.354799l-1.28293 0.114592l-5.51707 0.380243l-1.03016 -0.124922l-5.76984 -0.198459l-1.41283 -0.18807l-5.38717 -0.205368l-2.84191 -1.23815l-3.95809 -1.00706l-5.21864 -2.99101l-1.58136 -2.75208l-1.66815 -4.11661l-0.547427 -2.23796l-1.55272 -4.63073l-0.0185943 -3.82514l0.581363 -3.04354l0.0120061 -3.22578l0.96021 -3.64291l0.365029 -1.88716l1.86828 -1.7271l1.55206 -1.68669l3.80073 -1.56774l0.913413 -0.539183l0.533792 -0.0495252l4.43222 -1.80299l2.36778 -0.167585l3.57804 -0.695229l3.22196 -0.525153l2.57558 -0.487435l4.22442 -0.671099l1.60812 -0.306125l5.19188 -1.561l0.05203 -0.0108146l0.158739 -0.0525556l5.26472 -1.33789l1.32451 -0.365222l4.05948 -1.06509l2.74052 -0.842246l2.54204 -0.690522l4.25796 -1.35653l1.13893 -0.0607501l5.66107 -0.476397l0.63291 -0.0347373l6.16709 -0.534467l0.122745 0.0191478l6.67726 0.939092l1.24877 0.198307l5.55123 0.795022l2.65976 0.630217l4.14024 1.01208l4.76971 1.11919l2.03029 0.49153l6.36611 1.12099l0.43389 0.105214l2.05506 0.333059l4.74494 0.572911l0.57876 0.0116948l6.22124 1.12767l1.72403 0.0291691l5.07597 0.79133l3.26882 0.769061l3.53118 1.1476l5.54743 1.15403l1.25257 0.364829l1.64636 0.900394l5.15364 2.85911l6.60974 4.00958l0.190262 0.121262l5.96103 6.74742l0.838966 1.023l4.50493 5.84568l2.29507 3.4292"/>
<path d="M197.943 -421.566l-0.0995611 4.08381l-0.380192 2.78488l-0.728952 2.96346l-1.93901 3.90523l-0.411447 0.589258l-0.583365 0.360141l-2.99537 2.89366l-2.40372 3.02562l-0.700542 0.707444l-0.70037 0.849709l-2.50352 2.78273l-1.8745 2.5288l-1.10069 1.33465l-1.3213 1.36541l-1.98615 2.16242l-1.63103 2.00622l-1.50521 1.69456l-1.67761 1.98113l-1.47486 1.70324l-1.22896 1.48976l-1.92128 2.19687l-2.17491 1.75071l-2.65553 0.238742l-4.14447 0.490031l-1.98883 0.183408l-4.81117 0.583901l-4.23942 -5.44367l-1.95972 -6.26176l-0.230446 -0.606927l-0.370412 -1.66524l-1.06709 -5.20345l0.16631 -0.90988l0.900781 -4.46769l0.246482 -1.24214l0.0541573 -0.248972l1.41662 -5.13408l0.538983 -1.7346l1.96221 -2.60762l2.58154 -2.76002l0.969674 -0.521573l1.24008 -0.979469l2.85382 -1.75396l1.73642 -1.39242l2.19533 -1.50479l2.44656 -2.21751l1.46943 -0.695639l0.688683 -0.313463l4.84959 -0.961012l1.95041 -0.628739l3.47527 -0.759461l3.32473 -1.19456l2.70817 0.419712l4.09183 0.0129342l3.32098 0.606061l3.47902 0.013371l4.14253 3.50079"/>
<path d="M425 -420.464l-3.39984 2.33322l-3.40016 2.91758l-0.292544 0.221097l-0.309499 0.295499l-3.66921 2.55429l-2.52875 1.87327l-2.97738 -0.566335l-3.82262 -0.338301l-4.20168 -0.898357l-2.59832 -0.262519l-2.2015 -2.36205l-2.10456 -4.34955l-1.39812 -2.51914l2.21006 -3.5294l2.76879 -3.33928l0.342023 -0.387173l0.383301 -0.316573l4.33313 -1.78804l2.46687 -1.35581l2.06574 -0.934477l3.43105 -2.08661l1.01758 -0.288513l0.285628 -0.10847l5.78004 -0.633284l1.01996 -0.547598l4.55524 -0.689567l2.24476 -1.94899"/>
<path d="M425 -561.378l-2.26462 -4.4304l-1.07316 -3.37149l-1.57933 -3.49719l-1.88289 -5.35376l-0.455399 -1.51493l-0.104594 -0.565649l-1.73536 -6.30304l-0.586819 -2.91129l-1.0483 -3.9574l-0.834543 -4.81315l-0.443757 -2.05554l-0.920445 -6.19113l-0.111226 -0.677556l-0.303688 -6.61024l-0.00510767 -0.258451l0.509851 -6.10039l0.142909 -0.768293l1.31292 -4.62986l1.1647 -2.23883l1.29492 -2.14539l2.12394 -1.77532l1.36677 -1.5674l2.16009 -1.38057l1.83574 -1.45192l1.4374 -0.521411"/>
<path d="M132.6 -477.287l-1.10511 -0.344435l-5.69489 -2.47152l-3.57244 -0.0207205l-3.22756 0.48926l-3.10872 -0.0208566l-3.69128 0.663541l-2.01129 0.444968l-1.20592 2.03161l-0.822398 2.78827l0.377392 4.08042l0.0497856 3.21976l0.743654 3.64892l2.86878 2.99283l4.42638 1.47826l2.37362 0.790784l4.80554 1.60681l1.99446 0.502165l0.406794 -0.0912624l1.41166 -0.410903l3.6535 -1.34146l1.32804 -0.608347l3.50971 -1.37372l3.29029 -1.61373l1.15903 -0.7607l1.89901 -1.17074l-3.05804 -6.82411l-0.0235293 -0.0445768l-0.0870838 -0.11173l-5.22238 -6.75696l-1.46701 -0.771842"/>
<path d="M-255 -513.217l4.03217 -0.437436l2.76783 -0.175643l3.49774 -0.364183l3.30226 -0.201448l3.36803 0.0704237l3.43197 0.23549l3.67354 0.0731073l3.12646 0.204656l4.79706 0.930214l2.00294 0.509482l6.44753 1.15766l0.352473 0.0834746l1.18676 0.272559l5.61324 1.25028l1.46953 0.234086l5.33047 1.11713l3.03756 0.466739l3.76244 0.607138l4.28451 0.652412l2.51549 0.402297l5.32316 0.646839l1.47684 0.0854392l6.20807 0.808415l0.591926 0.0368872l4.14588 0.561018l2.65412 0.410501l0.5064 0.101014l6.2936 1.01859l2.08342 0.574362l4.71658 1.19365l4.54328 1.29105l2.25672 0.589259l3.5742 1.69025l3.2258 1.36891l2.32026 0.974787l4.47974 1.89308l4.98034 2.6319l1.81966 0.883995l1.50798 0.639216l5.29202 2.4224l5.64617 1.7576l1.15383 0.397635l2.59021 0.767845l4.20979 1.17229l1.16527 0.00475154l5.63473 -0.283506l0.888375 0.00381833l5.91162 -0.314438l0.45391 -0.124415l0.851749 -0.458495l3.83572 -1.67537l1.65862 -1.09096l2.71035 -1.36463l3.52658 -2.73772l0.363286 -0.201809l0.199791 -0.121838l4.07704 -2.42681l2.72296 -1.67061l1.51826 -0.914023l2.47116 -1.5336l1.84916 -0.97112l0.961409 -0.455636l5.08615 -0.304401l1.71385 -0.016493l4.79884 -0.273724l2.00116 -0.0183945l5.67502 2.03977l1.12498 0.586588l1.26349 0.689669l5.53651 2.95837l3.12994 2.63406l3.67006 3.99596l3.54934 2.87273l3.25066 2.2147l1.64057 -0.557557l5.15943 0.832255l2.03418 -0.434675l4.76582 0.560632l1.98728 -0.608005l4.81272 -0.0375769l1.57994 -0.373875l5.22006 -0.0332294l1.34737 -0.201694l5.45263 -0.214022l1.00124 -0.135607l5.79876 -0.207819l0.684902 -0.11171l4.68332 -0.69182l1.22609 -0.207763l0.205686 -0.030354l5.63627 -0.937363l1.16373 -0.168609l4.71946 -0.757464l2.08054 -0.401666l3.71509 -0.61285l3.08491 -0.612608l2.87381 -0.237174l3.92619 -0.529787l2.16403 -0.187162l4.63597 -0.657078l1.40228 -0.112364l5.39772 -0.741677l0.616541 -0.0519985l4.29423 -0.622769l1.59581 -0.296388l0.293424 -0.0642172l5.30409 -1.15042l1.49591 -0.624996l3.74863 -0.946178l3.05137 -1.5245l1.61262 -0.633083l0.983873 -1.62891l2.03033 -2.19513l1.69528 -4.67356l0.0958536 -0.385904l0.382045 -2.02392l0.736682 -3.71474l0.104997 -0.744123l1.04189 -4.96609l0.41012 -1.9026l0.937672 -3.60469l1.45269 -3.264l0.711817 -1.41831l1.40413 -1.80098l1.62341 -2.00959l2.28495 -1.63981l1.86767 -1.03431l1.02397 -0.365807l3.65963 -1.77197l3.14037 -0.996624l2.31305 -0.363563l4.48695 -0.781112l1.32982 -0.212047l5.47018 -0.966272l0.41339 0.040586l4.92729 -0.417566l1.366 -0.0942652l0.0933225 -0.0278902l6.16793 -0.516299l0.63207 -0.240024l2.8996 0.878479l3.9004 1.53022l4.85004 3.3688l1.94996 1.09171l0.471495 0.877951l1.4754 1.96656l3.54769 4.90213l1.30542 1.4269l5.73971 5.44179l1.06029 0.878456l1.50232 0.639035l5.29768 2.87511l6.55517 2.22879l0.244829 0.110664l1.9272 0.136639l4.8728 0.336448l0.330243 -0.0028701l6.46976 0.41479l0.658693 -0.0830221l3.65808 -0.665346l2.14443 -0.342223l0.3388 -0.076284l5.47259 -0.922314l1.32741 -0.316629l4.08873 -1.0812l2.71127 -1.18311l2.24921 -0.675001l4.50411 -2.27193l0.0337082 -0.0131019l0.0129709 -0.00870601l5.57542 -1.21514l1.22458 -0.480353l4.0917 -1.01835l2.7083 -1.23809l3.83813 0.981965l2.96187 0.856267l6.18282 1.5121l0.617182 0.170891l1.4194 0.452524l5.3806 1.30226l1.50919 0.222176l5.29081 1.17064l2.88095 0.214967l3.91905 0.414539l3.54445 0.255666l3.25555 0.333257l3.64242 -0.234297l3.15758 -0.365369l3.07549 -0.207291l3.72451 -0.452618l2.20549 -0.426167l4.59451 -1.56986l0.536114 -0.116374l1.38937 -0.541529l3.54542 -1.34252l1.3291 -0.705307l3.09747 -1.6921l3.70253 -3.06888l0.0361658 -0.0233438l0.0360718 -0.0365311l3.3912 -3.37026l2.75724 -3.49842l0.198802 -0.384363l0.38052 -0.59114l2.49401 -3.37398l2.79208 -2.5192l0.634337 -0.888459l0.879575 -0.391001l3.01268 -2.54612l3.78732 -1.2055l1.47436 -0.348354l5.32564 0.406269l1.59674 -0.282658l5.20326 0.31735l2.16957 0.261271l4.63043 1.20181l3.73503 0.379456l3.06497 0.68793l6.41243 2.01652l0.387572 0.14702l0.857337 0.244466l5.94266 2.07167l3.89909 1.8668l2.90091 1.40984l3.21927 1.52037l3.58073 3.33709l2.69934 3.5316l1.63785 4.381l0.97619 2.48769l-0.303243 5.06074l-0.137288 1.80795l-0.965648 3.94666l-0.845386 2.92202l-0.733492 2.35184l-1.40613 4.51685l-0.232861 0.696295l-0.689332 2.18638l-0.914049 3.06273l-0.0956765 0.923282l1.00973 5.4781l0.3256 1.39059l0.285161 0.616931l2.77684 6.25176l3.4124 2.12442l3.80378 1.71778l2.99622 1.59532l3.08814 -2.31819l3.71186 -1.48173l1.01656 -0.610773l3.08577 -1.02683l1.43422 -1.27622l1.26346 -0.309618l2.00306 -3.25956l3.13899 -2.02329l0.743991 -0.923191l0.91396 -0.279263l3.26515 -2.3681l3.53485 -0.763032"/>
</g>
<g text-anchor="middle" font-size="0.18cm" font-family="Helvetica" transform="rotate(-9.30286,30.6,-484.728)" fill="rgb(0,0,255)">
<text x="30.6" y="-484.728" dominant-baseline="middle">10</text>
</g>
<g text-anchor="middle" font-size="0.18cm" font-family="Helvetica" transform="rotate(1.52491,336.6,-543.306)" fill="rgb(0,0,255)">
<text x="336.6" y="-543.306" dominant-baseline="middle">10</text>
</g>
<g stroke-width="0.5px" stroke="rgb(0,0,255)" fill="none">
<path d="M25.2863 -311.667l3.59898 -1.73206l1.71474 -0.630778l3.13956 -1.33458l3.66044 -1.19732l1.40379 -0.555986l4.631 -1.41797l0.576815 -0.190304l0.188401 -0.0458959l5.30197 -1.27696l1.49803 -0.182675l4.21223 -0.918071l2.58777 -0.288171l3.46893 -0.46264l3.33107 -0.098251l3.01031 -0.365005l3.78969 -0.10247l2.67759 -0.233608l4.12241 -0.250612l2.24062 -0.190772l4.55938 -0.270652l2.36942 0.400749l4.43058 0.251707l3.23208 0.619668l3.56792 0.233944l6.20308 3.37002l0.596921 0.430652l6.05393 6.43803"/>
<path d="M335.567 -311.667l-0.316916 -1.36385l-0.0368297 -5.50484l-0.595636 -2.0027l-0.0275288 -4.86598l-0.310199 -2.34384l1.21562 -4.52484l-0.240589 -1.35896l1.34537 -2.61946l0.626793 -2.25714l0.857664 -0.633124l2.5529 -2.79055l2.76264 -1.02203l1.78269 -1.25541l5.01731 -1.51302l0.185731 -0.100074l0.768247 -0.187607l4.50441 -1.35517l1.34162 -0.0746142l4.15362 -1.24332l2.64638 -0.388777l2.98669 -0.78995l3.81331 -0.5018l1.90611 -0.589688l4.89389 -0.818693l0.86045 -0.237531l5.75489 -0.869141l0.160534 -0.0243666l0.024123 0.000342356l0.266049 0.0240243l6.53395 0.609805l0.593462 -0.0103481l6.20654 0.522006l3.09147 2.00124l3.70853 2.44965l2.0782 1.29633l4.7218 2.8413l3.34413 4.02739l3.11179 6.52113l0.122941 0.347554l0.221138 0.383326l5.01445 6.48536l1.78555 1.2989"/>
<path d="M-255 -658.903l2.76567 -0.273101l4.03433 -0.0179476l2.52229 -0.227887l4.27771 -0.0175388l2.27039 -0.236906l4.52961 -0.64251l1.47664 -0.159265l5.32336 -0.781396l0.618413 -0.0854956l1.71013 -0.62466l3.05438 -1.43139l1.41708 -0.999383l2.85631 -1.55275l3.43644 -2.88516l0.223351 -0.286764l0.283896 -0.410331l2.4365 -3.71048l1.59128 -2.46111"/>
<path d="M425 -588.359l-1.69582 -4.92378l-0.506645 -2.22472l-1.24181 -4.64397l-0.700088 -4.18622l-0.489229 -2.68246l-0.0917838 -4.77311l0.0161168 -2.09558l0.68948 -4.06038l0.787633 -2.80831l0.992484 -2.26228l2.23966 -3.1805"/>
<path d="M425 -386.764l-4.07531 2.29361l-2.72469 1.69448l-1.5194 0.887253l-2.37512 1.53475l3.89452 6.84144l0.00971319 0.0272452l0.00110501 0.0109275l2.46906 6.85776l4.32013 5.10135"/>
<path d="M-255 -363.255l2.52902 -0.806102l4.27098 -1.94784l0.445534 -0.156685l0.884805 -0.450034l3.68652 -1.80115l1.78314 -1.10981l4.12328 0.207207l2.67672 -0.171094l4.18698 0.235436l2.61302 -0.189571l3.94638 2.82899l2.85362 1.9707l6.5264 4.89799l0.273602 0.214427l6.41296 6.65426l0.387044 0.345262l3.40522 3.09436l3.39478 3.07909l0.484882 0.349975l6.31512 4.75353l2.59569 2.11516l4.20431 2.14032l2.73791 0.625241l4.06209 0.846389l4.65522 1.09029l2.14478 0.458627l5.18526 0.0767658l1.61474 -0.0564756l5.20952 0.0809824l1.59048 -0.0585557l4.44272 -0.715993l2.35728 -0.50443l3.37977 -0.569254l3.42023 -0.766458l2.12228 -0.50373l4.67772 -1.45967l0.542179 -0.136393l1.64995 -0.547656l1.48672 -3.15268l1.44943 -3.71601l0.455983 -1.22801l1.21573 -4.17297l0.43006 -1.0333l0.251851 -0.434404l-0.681911 -0.477135l-4.95187 -6.39155l-1.84813 -3.0968l-1.98704 -3.77189l0.0153878 -1.99157l-0.365846 -4.87711l0.237844 -2.12087l0.208241 -4.74782l0.946734 -0.954226l0.944684 -0.810333l2.62689 -2.4507l3.32349 -2.65342l0.464102 -0.389416l0.385522 -0.269531l5.50098 -0.653192l1.29902 -0.290376l4.62 -0.599509l2.18 -0.537174l4.42616 0.341376l2.37384 -0.0906832l4.74333 0.411061l2.05667 -0.0896486l1.47825 -3.20841l0.92598 -1.49318l1.84227 -2.57929l2.5535 -2.54161l0.803555 -0.936111l0.952404 -0.811671l2.57603 -2.49294l2.46801 -1.68668l0.968175 -1.71112l1.10028 -0.977954l2.25327 -2.50331l2.47828 -1.25737l1.72197 -1.36864l4.4039 -1.73937l0.44743 -0.228987l0.226698 -0.0425402l5.00103 -1.54561l1.79897 -0.191772l3.8214 -0.999777l2.9786 -0.275274l4.53677 0.997874l2.26323 0.219354l6.35262 1.61484l0.447376 0.0513566l0.623141 0.400539l6.17686 6.39772l0.284554 0.470967l0.0158645 0.303453l2.03289 6.56523l0.0395492 2.39682l1.01258 4.47186l0.0448045 3.46489l0.389594 3.40379l0.0452328 3.90411l0.27806 2.96458l0.199885 4.38689l-0.0174932 2.4818l0.24078 4.61243l-0.0457791 2.25626l0.382619 4.95267l-0.192103 1.91602l0.496932 5.26058l-0.215737 1.60811l1.00772 6.06056l-0.0645133 0.808127l0.864559 3.93147l3.70481 -0.189238l3.09519 0.92663l4.47076 -0.152945l2.32924 0.524203l2.28176 -2.73532l0.64338 -2.3048l1.4058 -2.494l0.824729 -4.37469l0.309082 -1.34874l-0.686905 -5.51995l0.271275 -1.76857l-0.493467 -5.10012l0.0791305 -2.18709l-0.379287 -4.6816l0.0741549 -2.4953l-0.241795 -4.37339l0.0217712 -2.71755l0.53779 -4.15114l0.0332602 -2.14073l0.839536 -4.72796l0.0887983 -1.20302l1.19099 -2.19529l0.946776 -2.51404l0.935972 -0.956339l1.72446 -3.22504l3.19279 -1.91868l0.829486 -0.8871l1.82423 -0.837864l2.36444 -1.79983l1.78184 -0.488257l2.93263 -1.61835l3.86737 -0.831134l2.14112 0.0316323l4.65888 -0.0283686l2.14507 0.0323548l4.65493 -0.0289514l2.43057 0.317339l4.36943 -0.0404314l2.81175 0.425464l3.98825 -0.0438794l2.51206 -0.258841l4.28794 -1.13066l1.24713 -0.147049l4.08798 -1.25973l1.12711 -0.341186l0.337774 -0.169305l3.57609 -2.74598l3.22391 -2.10323l0.873204 -0.626957l1.43981 -0.882024l1.60959 -2.90646l2.8774 -3.90079l0.0235932 -0.0375997l0.0203262 -0.0238315l2.6356 -4.1621l2.49428 -2.70659l0.385328 -1.2534l1.24087 -1.7351l1.36251 -2.50392l1.41244 -1.37627l1.87836 -2.16838l2.1467 -1.24672l3.57462 0.157144l3.22538 1.06697l4.7771 0.147656l2.0229 0.515989l2.2016 1.52734l4.5984 2.17365l2.49631 0.347878l4.30369 1.52957l4.77253 0.769646l2.02747 0.677932l6.23628 0.8006l0.563721 0.156564l6.68029 0.412851l0.119706 0.00840211l0.00819642 -0.0001229l6.7918 0.439638l0.310179 -0.134604l1.22516 -0.313313l4.22577 -1.04939l1.03889 -0.186456l4.52494 -1.0622l2.27506 -0.387135l2.8522 -1.3025l3.9478 -1.27545l1.12657 -0.467612l3.84302 -1.13795l1.3505 -0.48476l0.479913 -0.121632l4.53499 -1.68149l2.26501 -0.512834l3.031 -1.00635l3.769 -0.772591l1.84781 -0.422555l4.95219 -0.579826l1.0562 -0.219774l5.7438 -0.616935l0.420834 -0.0248526l6.37917 -0.251018l0.162974 -0.00944711l4.26064 -0.16462l2.24799 -0.129692l0.128395 -0.00150268l6.71531 0.045654l0.0846851 -0.00849612l6.75724 0.0508441l0.0427606 -0.00480281l6.52727 -0.227493l0.272733 -0.0865267l6.17113 -0.273207l0.62887 -0.273403l4.99873 -0.910843l1.80127 -1.295l2.94601 -0.778451l2.27589 -2.97577l0.874688 -0.710516l0.703411 -1.27592l3.05667 -1.79471l2.65668 -3.08754l0.621946 -0.469406l0.464712 -0.342409l3.44693 -2.57512l3.35307 -2.44577l1.65464 0.635371l5.14536 1.4539l5.5422 2.47294l1.2578 0.424116l0.538681 0.846386l0.0845625 0.629539l0.993671 6.23915l0.0775949 1.71163l0.156666 5.15706l-0.095207 1.77371l-0.924284 5.09498l-0.0680554 0.771342l-0.763629 2.76341l-0.891479 2.43345l-0.24899 0.900484l0.814627 6.53955l0.0533866 0.329133l0.272455 1.25479l1.21457 5.6139l5.58543 3.74082l4.26586 3.12786l2.53414 1.73941l3.40088 1.69582l3.39912 1.91049l3.48649 1.52296l3.31351 0.782345l0.7503 -0.0244668l6.0497 0.679118l1.38415 -0.0388654l5.41585 0.533802l1.80469 -0.109017l4.99531 0.273417l1.97022 -0.106215l4.82978 0.238685l1.97239 -0.236492l4.82761 -0.505174l1.31794 -0.155889l5.48206 -0.566014l0.654683 -0.103937l2.79794 -0.661296l2.62085 -0.733866l0.726527 -0.197938l4.6077 -1.28264l2.1923 -0.593795l2.96267 -1.06785l3.83733 -2.16043l0.584464 -0.241798l0.893617 -0.590367l3.32306 -2.01905l1.99885 -1.72558l1.37038 -1.73985l0.546802 -1.38422l1.41538 -3.50246l1.27881 -3.36622l0.5157 -1.68982l1.67293 -4.69834l0.122305 -0.356983l0.048794 -0.12354l1.01753 -5.66805l0.818802 -1.20064l0.968274 -3.86292l3.52637 -3.00576l0.0850105 -0.215063l0.212913 -0.0534134l3.89461 -2.66626l2.90539 0.113658l2.88632 -1.13214l3.91368 0.107286l2.38959 -0.609031l4.41041 -0.234118l1.78027 -0.381356l5.01973 -0.229805l1.10916 -0.448081l2.73086 -1.12037l2.03301 -0.936328l0.926965 -0.401042l3.7836 -1.7095l3.0164 -1.2807l1.43745 -1.08915l1.61959 -1.45197l1.76032 -2.00267l1.98264 -1.71985l1.56945 -1.56087l2.05747 -1.5853l1.64671 -1.54179l1.52637 -0.997098"/>
<path d="M44.6218 -311.667l4.75258 -1.642l1.62558 -0.351298l3.68616 -1.152l3.11384 -0.614288l2.49964 -0.58422l4.30036 -0.516536l1.64285 -0.3489l5.15715 -0.567605l0.973929 -0.108078l5.82607 -0.491343l0.440279 -0.0476974l5.3986 -0.444726l0.886403 -0.0754704l0.0747157 -0.00443524l0.47244 0.0799057l6.32756 1.20269l1.75702 0.572073l5.04298 1.10706l5.0183 3.98686"/>
<path d="M345.571 -311.667l1.32533 -3.33686l2.56633 -3.53183l0.245268 -0.496857l0.491888 -0.516674l2.45497 -3.37539l3.1193 -2.47977l0.614717 -0.617183l0.611011 -0.396587l3.99487 -1.81969l2.80513 -1.30491l1.85911 -0.852429l4.01017 -1.87789l0.639044 -0.294629l0.291683 -0.134787l4.54164 -1.85176l2.25836 -1.56774l2.0129 -0.98654l2.33714 -2.03323l1.77715 -0.679608l0.672812 -0.169417l5.22 -0.746935l1.58 -0.0278631l4.61036 -0.587932l2.18964 -0.0348253l3.68092 2.24658l2.96259 6.71062l0.0516721 0.158067l0.104815 0.223133l3.97104 6.64555l-0.664802 3.33963l-3.30623 1.85202l-0.723647 0.946081l-2.27021 0.730956l-2.4794 1.34015l-1.32674 -0.145055l-4.01794 1.61507l-2.78206 2.89411l-0.730607 0.426433l-0.388732 0.737987"/>
<path d="M417.174 -311.667l-0.29866 -1.33828l1.3249 0.532755l3.37775 -2.6513l3.42225 0.632651"/>
</g>
<g stroke-width="1.5px" stroke="rgb(0,0,255)" fill="none">
<path d="M-255 -642.481l4.14813 -1.56122l2.65187 -0.466263l2.79556 -0.899971l4.00444 -0.615107l2.10715 -0.0802515l4.69285 -0.265144l1.7765 -0.0688472l5.0235 -0.288901l1.88986 0.403404l4.91014 0.266618l2.88537 0.738951l3.91463 0.265631l5.95749 2.83752l0.842507 0.174855l0.944239 0.676162l3.87964 4.87261l1.73548 1.99608l0.240633 0.43407l4.0089 6.43462l2.7911 5.2027l0.814813 1.66599l1.49831 2.33649l2.8591 4.5322l1.62777 1.59183l1.37927 -0.198631l5.42073 -0.98553l0.351795 -0.0523217l1.89052 -0.355348l3.59049 -0.976961l0.967191 -0.261002l2.72834 -2.87483l2.56425 -2.7559l0.583732 -0.933013l0.923682 -1.18359l1.96836 -2.76384l1.74018 -1.98824l1.03688 -2.07533l2.05457 -2.2304l1.31776 -1.23189l2.19005 -1.33107l1.77266 -1.53487l1.51952 -0.648879l2.79963 -1.85703l4.00037 -1.38442l1.7771 0.351565l5.0229 0.807351l3.2399 0.670226l3.5601 0.599614l6.54262 2.99645l0.25738 0.126181l0.294871 0.171669l6.50513 3.50846l5.69942 1.95069l1.10058 0.338264l2.14751 0.77343l4.65249 1.40729l1.27638 -0.118022l5.52362 -0.636597l0.590933 -0.0557706l5.07217 -0.596902l0.997474 -0.140826l0.139418 -0.0189212l5.52025 -1.13293l1.27975 -0.272045l4.35976 -0.900167l2.44024 -0.521893l3.32657 -0.521735l3.47343 -0.601066l2.35999 -0.375279l4.44001 -0.779152l1.4539 -0.136091l5.3461 -0.575495l0.8083 -0.0766232l5.9917 -0.653305l0.14837 -0.0132919l1.54605 -0.149868l4.65317 -0.456979l0.452409 -0.0494011l5.73551 -0.568858l1.06449 -0.117401l4.99013 -0.635516l1.80987 -0.230359l4.22892 -0.538537l2.57108 -0.327223l3.29266 -0.618492l3.50734 -0.594759l2.28534 -0.422733l4.51466 -0.754079l1.2999 -0.241314l5.5001 -0.913414l0.335054 -0.0611816l2.07125 -0.338438l3.79132 -0.608466l0.602381 -0.0710211l5.48889 -0.64487l1.31111 -0.131132l4.80845 -0.556175l1.99155 -0.196148l4.18436 -0.43425l2.61564 -0.243753l3.57884 -0.367879l3.22116 -0.297354l2.99721 -0.290157l3.80279 -0.343787l2.42572 -0.233473l4.37428 -0.393176l1.85437 -0.183949l4.94563 -0.648954l1.10069 -0.112338l5.69931 -0.770078l0.30092 -0.0377665l1.13809 -0.30396l4.1677 -1.20534l1.19329 -0.522336l3.85854 -1.24349l2.94146 -1.45372l1.67972 -0.747112l2.24373 -1.69668l1.63101 -1.25813l1.24554 -1.35475l2.21837 -2.01503l1.69437 -2.24078l1.08199 -1.8235l1.80527 -3.17131l0.616212 -1.25143l0.275855 -0.622437l1.51249 -4.43984l1.38238 -2.42885"/>
</g>
<g text-anchor="middle" font-size="0.18cm" font-family="Helvetica" transform="rotate(-10.2413,-179.848,-613.534)" fill="rgb(0,0,255)">
<text x="-179.848" y="-613.534" dominant-baseline="middle">0</text>
</g>
<g stroke-width="1.5px" stroke="rgb(0,0,255)" fill="none">
<path d="M125.8 -636.158l-1.48805 0.160325l-3.57773 1.50308l-1.25521 0.483845l-0.479006 0.371665l-3.99969 1.97309l-2.80031 3.01679l-0.521121 0.496908l-0.152558 0.526385l-0.944276 5.23439l0.0228956 1.6343l1.22876 6.49869l0.0822234 0.369999l0.284075 0.516195l1.58556 1.08538l5.21444 3.98626l2.47994 1.28086l4.32006 1.1841l0.636481 -0.541194l0.891348 -0.64291l2.43989 -2.86089l2.83228 -2.59026l0.693494 -0.717037l0.856487 -0.700499l1.73858 -3.54691l2.54374 -3.32178l-0.151343 -1.13035l0.423123 -5.73834l-6.10408 -5.04575l-2.96262 -1.82294l-3.83738 -1.66341"/>
<path d="M370.6 -649.654l-0.844466 0.568965l-1.36466 0.852996l-2.88132 1.72682l-1.70956 0.951065l-2.63008 1.53415l-4.16992 2.25946l-0.123236 0.272712l-0.0428007 0.124481l-1.89754 4.78427l-0.582937 2.08442l-1.07354 3.11105l-0.845324 3.75763l-0.467392 1.78508l-0.812948 5.08361l-0.160164 0.802137l-0.674436 6.06655l-0.00684787 0.113971l0.0246772 6.75472l0.00513213 0.144082l0.565372 6.72461l0.258611 0.976387l1.65293 5.8923l1.95304 4.61878l0.952973 2.24991l1.27443 1.64757l2.76738 1.14777l4.03262 1.27526l5.78863 2.79809l1.01137 0.437353l0.371008 -0.0625968l0.488712 -0.374756l3.54733 -2.41712l2.39295 -3.94089l0.245467 -0.262729l0.0646202 -0.247947l1.29472 -5.24767l0.0334823 -1.62101l0.564341 -4.64381l0.0222625 -2.22488l0.0449372 -4.57593l-0.00416443 -2.29275l-0.0913327 -4.67239l0.0323765 -2.19629l-0.289962 -4.93258l0.0768494 -1.9361l-0.545942 -5.40641l0.0499231 -1.46227l-1.06036 -6.42706l0.0111636 -0.441629l-0.448376 -1.89901l-1.52177 -4.96968l-2.83575 -4.40153l-1.23339 -2.46716l-1.20909 -1.42196"/>
<path d="M169.433 -675.707l-0.359189 2.49859l0.257059 4.3701l1.30054 4.07192l0.860184 2.79677l1.90862 2.3642l4.74568 4.50449l2.05432 1.13995l1.92909 0.808628l4.87091 2.39301l6.76178 2.48849l0.0382213 0.0167354l0.127677 0.021872l6.67232 0.883023l1.01155 0.138742l5.78845 0.769721l1.7466 -0.0272433l5.0534 -0.690438l1.04502 -0.0182236l5.75498 -0.891487l0.136678 -0.0260337l0.27291 -0.138059l4.17321 -2.2396l2.2172 -2.09282l1.50248 -1.01861l1.18452 -1.51766l1.70226 -2.43509l1.92095 -4.4336l0.00984853 -0.48478l0.120267 -6.38391l-0.372891 -0.739956l-2.59455 -6.12873"/>
<path d="M408.202 -675.707l-0.663573 2.96778l-0.824206 3.9009l4.00911 6.18485l0.35903 0.683835l0.317966 0.146977l0.221479 0.0767386l6.57852 3.7966l5.12771 1.15919l1.67229 0.7162"/>
<path d="M-64.5332 -380.354l-0.00876648 0.058601l-0.058015 0.279693l-0.0861405 -0.338294l0.032814 -0.0538652l0.0533265 -0.076135l0.0667815 0.13"/>
<path d="M-11.0171 -311.667l0.361418 -0.460304l0.455701 -0.316548l2.5633 -3.50264l3.6975 -2.58919l0.273287 -0.2686l0.265914 -0.113194l3.77545 -2.6733l3.02455 -1.00619l1.77843 -1.011l5.02157 -1.56076l0.158593 -0.0754408l0.599537 -0.160195l3.55858 -2.50837l2.48329 -1.05295l1.86276 -1.42578l4.13615 -1.88157l0.507977 -0.296075l0.293115 -0.0867659l4.35877 -2.08305l2.44123 -0.61237l2.69882 -1.06434l4.10118 -0.916732l1.33384 -0.462041l5.46616 -1.08934l0.219785 -0.0359696l2.44419 -0.222005l2.05198 -2.1051l2.08405 -1.06711l2.0801 -1.59537l4.7199 -1.92974l0.224571 0.0554664l1.02632 -0.226839l4.81048 -0.746082l0.738621 -0.810094l4.11651 -1.15442l0.727296 -4.15809l-4.8438 -1.65416l-6.20544 -4.61396l-0.594559 -0.337287l-0.752671 -0.263278l-6.04733 -2.66974l-6.58198 -3.97872l-0.218025 -0.114775l-2.94389 3.78961l-3.85611 1.19692l-1.01526 0.751195l-4.70877 1.02551l-0.843607 0.234718l-0.232371 -0.0205262l-6.33111 0.25943l-0.468886 -0.0953914l-6.23154 0.19597l-0.568459 -0.0938295l-1.15218 -0.480371l-5.64782 -2.48604l-4.35285 -1.91078l-2.44715 -1.07589l-0.942749 -1.39597l-0.370561 -1.32658l-1.85646 -5.54211l-0.781163 -3.99084l-0.686358 -2.87784l1.18663 -3.48551l1.81446 -3.38317l0.504472 -1.14316l1.13173 -1.591l3.59428 -0.503942l3.20572 -0.063834l3.14072 -0.394301l3.65928 -0.0659668l6.47742 3.43636l0.322583 0.164931l0.291616 0.160911l6.50838 3.85306l6.23989 3.01563l0.560111 1.24974l2.96193 5.61895l3.83807 6.75699l3.80975 -2.90875l1.50865 -3.84824l0.734041 -0.755104l0.747553 -1.73155l1.62994 -2.73563l0.261896 -1.6464l3.14165 -1.78436l1.76652 -1.26338l1.54334 -2.26202l1.33249 -1.55893l1.74108 -2.20515l2.18309 -2.18285l1.16558 -1.30334l1.3154 -1.17735l2.4716 -1.86608l1.84742 -1.08542l2.63388 -1.2567l4.16612 -1.85307l0.546712 -0.255181l1.26854 -0.552235l3.42929 -1.57117l1.55546 -0.657675l4.53108 -0.0629967l2.26892 -0.363137l4.10697 -0.0652496l2.69303 -0.502769l5.11674 1.52274l1.68326 0.133062l4.03001 1.5672l2.76999 1.68509l1.91906 0.253362l4.88094 -1.05382l1.07129 0.197478l3.02604 -1.08211l2.28691 -0.419961l0.415762 -0.277008l0.960139 -5.20188l0.256083 -0.969837l1.95801 -3.66239l2.64202 -3.2063l0.422001 -0.567423l0.561749 -0.483935l2.79837 -2.99069l3.95435 -2.82664l0.0310197 -0.0164283l0.016264 -0.0055348l3.97766 -2.82889l2.82234 -1.4816l1.5424 -0.978259l3.28897 -1.55798l1.29609 -0.679337l0.672544 -0.254381l4.01736 -1.87703l2.78264 -1.18206l1.96452 -0.891518l4.80549 -1.98436l0.0215252 -0.00855042l0.00846492 -0.00230932l5.24336 -1.56151l1.55664 -0.296569l3.89547 -1.06493l2.90453 -0.511415l3.17228 -0.219074l3.62772 -0.194804l2.79131 -0.19002l4.00869 -0.212241l3.25983 0.685495l3.54017 0.407856l4.7761 1.12374l2.0239 0.264626l4.03145 1.77971l2.76855 3.16124l2.70836 3.70745l2.49594 5.25687l0.842009 1.61182l0.75369 1.89788l2.81401 4.97081l3.98599 5.47388l1.22813 1.39481l5.57187 4.26056l4.3486 2.60813l2.4514 1.39419l2.98305 1.61899l3.81695 2.11635l3.09937 1.73916l3.70063 2.22197l4.73109 2.5569l2.06891 1.17261l2.56028 0.917206l4.23972 1.42524l1.97997 0.574721l4.82003 1.5499l3.28824 -0.228408l3.51176 -0.0406756l3.04951 -0.200469l3.75049 -0.0412302l2.35358 -0.661733l4.44642 -0.913284l1.1485 -0.303966l5.6515 -1.09647l0.049248 -0.0138863l0.233943 -0.0497455l5.32118 -1.20771l1.19563 -0.183116l4.47712 -0.955513l2.32288 -0.335726l3.76115 -0.387477l3.03885 -0.37705l3.06895 -0.322146l3.73105 -0.471863l2.5901 -0.0118212l4.2099 -0.40138l2.18199 -0.0108496l4.61801 -0.483551l1.8637 0.16204l4.9363 -0.183764l1.86378 0.183843l4.93622 -0.21232l2.09033 0.441165l4.70967 0.166137l3.02619 0.779172l3.77381 0.170667l6.4029 3.24015l0.397101 0.020951l0.395541 0.380161l0.335721 0.738649l4.3014 6.13004l1.76734 0.734508l1.74799 1.03114l5.05201 2.95958l3.59867 2.14346l3.20133 1.65871l6.16335 5.20998l0.636649 0.331062l0.767325 0.444013l6.03268 3.33039l3.15747 2.76322l3.64253 3.88337l2.2135 2.98531l4.5865 5.74473"/>
</g>
<g text-anchor="middle" font-size="0.18cm" font-family="Helvetica" transform="rotate(-9.25271,59.0509,-346.01)" fill="rgb(0,0,255)">
<text x="59.0509" y="-346.01" dominant-baseline="middle">20</text>
</g>
<g text-anchor="middle" font-size="0.18cm" font-family="Helvetica" transform="rotate(-6.52968,326.069,-390.991)" fill="rgb(0,0,255)">
<text x="326.069" y="-390.991" dominant-baseline="middle">20</text>
</g>
<g stroke-width="1.5px" stroke="rgb(0,0,255)" fill="none">
<path d="M193.8 -360.456l-0.22767 0.478232l-0.323287 0.22997l-2.65609 3.62925l-3.59296 0.933112l-1.32533 0.967609l-5.47467 0.970065l-0.218331 0.148116l-1.19968 0.220537l-4.03563 1.35996l-1.34636 -0.0749867l-4.47107 1.06748l-2.32893 -0.100435l-4.18896 0.385395l-2.61104 0.205572l-3.65642 0.332349l-3.14358 0.244555l-3.73307 -0.321982l-3.06693 0.846272l-3.28583 -0.394513l-3.51417 1.59497l-2.29546 -0.594606l-1.64392 2.31865l-1.98102 0.88848l-0.879595 3.46425l-0.99378 1.51214l0.354962 1.00382l0.638817 1.05456l2.44889 5.81413l0.435562 2.91359l1.35763 3.9551l2.55792 2.73814l6.24839 4.13055l0.551607 0.312756l0.547407 0.24018l6.25259 3.14581l3.88172 0.222184l2.91828 0.133409l4.25799 0.246669l2.54201 0.11763l4.14994 -0.226773l2.65006 -0.641608l3.30451 -0.212367l3.49549 -1.02714l1.95776 -0.333206l4.70485 -1.97754l0.101778 -0.0359726l0.0356129 -0.0227602l4.73706 -2.02504l2.06294 -1.66783l2.47247 -0.619642l4.32753 -0.620181l1.51467 -0.347292l5.28533 -0.698031l0.787467 -0.0365178l6.01253 0.880201l1.59886 -0.0606162l5.20114 0.643925l1.92326 -0.316241l4.87674 -0.931209l0.858466 -0.144344l4.43866 -0.867137l0.782157 -0.728001l0.720721 -1.00152l0.710965 -4.42102l-0.00813573 -0.718147l0.593218 -5.55955l-0.0334718 -1.30914l-1.26258 -2.3358l-4.61252 -2.32331l-2.18748 -0.926554l-2.19925 -1.28302l-4.60075 -3.07879l-5.80428 -2.78413l-0.995716 -0.193322l-1.1011 -0.812452l-5.6989 -3.40747l-4.74347 -1.38391l-2.05653 -0.311171l-5.0636 -1.76613l-1.7364 -0.708202"/>
</g>
<g text-anchor="middle" font-size="0.18cm" font-family="Helvetica" transform="rotate(3.00858,159.8,-314.481)" fill="rgb(0,0,255)">
<text x="159.8" y="-314.481" dominant-baseline="middle">20</text>
</g>
<g stroke-width="1.5px" stroke="rgb(0,0,255)" fill="none">
<path d="M425 -403.122l-1.35744 0.791349l-3.05255 1.37115l-1.62338 0.774381l-0.766638 0.255532l-4.05182 1.74602l-2.74818 0.835293l-3.08651 0.139768l-3.71349 0.593751l-2.38039 0.119498l-4.41961 0.792738l-2.13213 -0.541962l-4.66787 0.141343l-3.04779 -1.06626l-3.75221 0.182173l-6.37082 -3.97228l-0.429183 -0.781384l-1.67033 -6.0873l0.288686 -1.3956l-0.72548 -5.47309l0.335002 -1.79002l-0.16578 -5.07867l0.471744 -1.48096l1.46616 -3.873l0.401478 -1.10919l0.171933 -0.405534l1.92594 -4.34409l1.50014 -2.5246l1.26554 -1.55048l1.53497 -0.850358l2.79384 -1.64579l4.00616 -1.40924l0.934557 -0.468831l3.08181 -0.943997l2.05826 -0.732701l0.725374 -0.128585l4.46972 -1.49253l2.33028 -0.954027l2.61293 -0.921515l4.18707 -1.81621l0.591134 -0.226014l0.722609 -0.597105l3.46608 -2.04058l2.02018 -1.60621l1.92373 -1.27873l2.12853 -1.94316l1.51891 -1.24124l1.22883 -1.19552"/>
<path d="M67.324 -311.667l3.36793 -0.715263l0.70811 -0.0779359l5.41936 -0.601391l1.38064 -0.116437l4.79032 -0.518956l2.00968 -0.165554l6.46334 1.85548l0.336659 0.0639894l0.847898 0.27607"/>
</g>
</g>
</g>
</g>
<g inkscape:groupmode="layer" inkscape:label="Coastline" id="Coastline"><title>Coastline</title>
<g>
<g id="drawing" inkscape:label="drawing" transform="translate(255,311.667)">
<g stroke-width="0.5px" stroke="rgb(0,0,0)" fill="none">
<path d="M326.556 -336.898l-6.38132 4.02182l0.68767 1.76847l0.295273 0.759414l-9.68106 3.8366l-4.62335 -1.22575l-2.2065 -3.79268l4.48718 -0.347495l0.66766 -0.0517339l1.3646 -2.278l6.80251 0.127382l8.58733 -2.81803"/>
<path d="M223.833 -337.214l5.16314 3.18261l7.35109 -0.538081l7.02848 0.670344l-0.22841 1.64353l5.14703 -1.13326l-1.18061 2.78606l-13.6001 0.802851l0.0946827 -1.55836l-11.5225 -1.84168l1.74724 -4.01401"/>
<path d="M146.581 -361.072l-3.40126 7.43381l1.41341 2.92613l-1.98248 4.85664l-7.22273 -3.55719l-4.80246 -1.01906l-13.1819 -4.80173l1.32165 -4.84907l11.052 0.86337l9.63421 -1.02858l7.16953 -0.824325"/>
<path d="M86.9834 -389.205l5.66632 6.70539l-1.32653 12.4915l-4.2944 -0.595915l-3.85222 3.15308l-3.57598 -2.50494l-0.378243 -11.3944l-2.15574 -5.39935l5.19437 0.472437l4.72242 -2.92784"/>
<path d="M90.289 -398.107l-3.11916 7.29569l-4.28805 -1.92294l-2.18649 -6.35521l1.90586 -3.5096l6.08214 -3.60648l1.6057 8.09854"/>
<path d="M-64.117 -493.568l-16.7427 5.57994l-13.3683 -1.42756l7.65759 -9.86164l-4.93229 -9.60249l12.8495 -7.39648l7.1383 -4.41153l7.91748 -0.389468l10.1235 5.83909l-5.06162 6.48869l1.55738 6.74712l-7.13878 8.43433"/>
<path d="M119.85 -525.205l-5.66681 7.64978l-9.88312 -5.33469l-1.31873 -3.9203l13.8549 -3.13039l3.01374 4.7356"/>
<path d="M-28.3806 -553.775l-10.0944 10.2187l9.62225 -1.29383l10.3485 0.0492936l-2.46224 7.69517l-8.4907 8.46434l9.7655 0.602504l9.16128 12.1362l6.46478 1.51688l5.81274 10.7606l2.69162 3.73069l11.4425 1.79897l-1.14791 6.03993l-4.81125 2.76947l3.7712 4.88592l-8.49558 4.94595l-12.6353 -0.0873619l-16.079 2.59694l-4.40372 -1.85925l-6.24442 4.42495l-8.73668 -1.07177l-6.63487 3.60624l-5.02014 -1.88585l13.851 -9.91972l8.45409 -2.04007l-14.8232 -1.58154l-2.6721 -3.75827l9.86896 -2.92736l-5.17241 -5.08724l1.79458 -6.1861l14.0526 0.855317l1.38901 -5.48306l-6.46942 -5.95012l-11.4671 -1.66183l-2.25115 -2.55595l3.43225 -4.22046l-3.10598 -2.60207l-5.08505 4.46571l-0.553455 -9.10321l-4.76928 -4.81662l3.42981 -9.76403l7.33669 -7.661l7.54143 0.747701l11.3946 -0.794798"/>
<path d="M-137.027 -627.639l-2.18112 6.11192l10.6713 6.44184l-12.2787 7.20223l-27.2435 6.47259l-8.1393 1.72235l-12.4337 -1.39071l-26.3521 -2.98958l9.29794 -4.17385l-20.5564 -4.61847l16.7227 -1.8307l-0.406306 -2.77313l-19.8216 -2.19674l6.38132 -6.15145l14.3139 -1.3973l14.7205 6.4067l14.3503 -5.14239l11.8832 2.67039l15.402 -5.03331l15.6695 0.669612"/>
<path d="M-81.7644 -313.936l9.475 -4.3141l7.00494 -3.90425l6.31032 -9.77878l2.96868 -5.80075l6.95306 0.0449626l5.69295 4.01031l8.98098 -0.653687l9.78224 2.08557l4.10255 0.0997247l9.07898 -5.16032l10.2117 -1.64113l5.96215 -3.89733l9.09512 -2.87472l16.0061 -1.68264l15.621 -0.767246l4.7643 1.40364l8.89452 -3.72325l10.0924 -0.0737847l3.84026 2.19913l6.45962 -0.574137l10.2849 -3.81202l6.61123 1.13329l-0.277269 4.77871l8.01083 -3.47538l0.672133 1.81349l-4.72222 4.62769l-0.0639852 4.36886l3.26959 2.34612l-1.24281 8.17512l-6.21636 4.74874l1.79447 5.14533l4.8842 0.162557l2.37668 4.48992l3.59239 1.47512"/>
<path d="M331.486 -312.429l0.260552 -0.096266l3.36412 -7.69379l4.69744 -6.65446l0.177544 -0.328573l-0.881958 -7.22687l2.31211 -3.88523l-3.47365 -4.28413l3.57741 -3.54743l-5.75924 0.804715l-7.90131 -2.17204l-6.49363 5.43413l-14.3333 1.06354l-7.64594 -5.06982l-10.1811 -0.31762l-2.1778 3.91751l-6.52649 1.12233l-9.13432 -5.03004l-10.3097 0.170051l-5.59496 -9.39372l-6.90002 -5.23814l4.59368 -7.34561l-5.98579 -4.5124l10.4757 -9.03286l14.5448 -0.37757l3.96651 -7.17787l17.9989 1.25031l11.3542 -6.12586l11.0049 -2.67066l15.6251 -0.200026l16.484 6.65619l13.5493 3.65292l11.0026 -1.4561l8.12958 0.84276l11.1501 -4.93032l1.4094 -4.03625l-2.35938 -6.44118l-5.45892 -3.48114l-5.23237 -1.0866l-3.46039 -2.89374l-12.0413 -7.98028l-10.776 -3.56242l-8.15667 -5.54769l6.87408 -1.50913l7.83674 -7.89958l-5.2831 -3.73823l13.9211 -3.85295l-0.2496 -2.06655l-8.47717 1.52239l-7.54218 0.755717l-6.28265 3.05573l-8.84148 0.4992l-8.13592 3.51861l0.553385 5.87453l4.62019 2.2781l9.63352 -0.566644l-1.84519 3.36989l-10.3379 1.63537l-12.8218 5.46468l-5.2514 -1.92071l2.08154 -4.43919l-10.3189 -2.76347l1.66823 -1.81118l9.03978 -3.13931l-2.73292 -2.16281l-14.6826 -2.38763l-0.649651 -3.52091l-8.74925 1.16326l-3.50593 5.20067l-7.31391 6.9813l0.219625 2.43432l-4.57869 2.03254l-2.86953 -0.883687l-2.64242 11.3934l-4.9015 3.91232l-3.44944 6.75649l3.04881 5.38686l1.12176 3.63217l8.24544 3.05054l-1.71895 2.31442l-11.2147 0.519375l-4.02876 2.92026l-7.88055 5.08653l-2.97329 -4.39711l0.128547 -1.94953l-5.75348 -0.268046l-4.92801 -0.893487l-11.4372 2.45565l6.54666 5.30731l-4.79774 1.53968l-5.26062 0.00922309l-4.99603 -4.86345l-1.77372 2.07347l2.10978 5.6405l4.72626 4.43112l-3.56069 2.07058l5.26062 4.35215l4.67495 2.73868l0.141805 5.33613l-8.736 -2.50292l2.78595 4.81676l-5.99731 0.991482l3.58144 8.33594l-6.27285 0.117018l-7.74451 -4.10831l-3.54167 -7.55544l-1.65266 -6.28265l-3.68347 -4.34235l-4.83924 -5.38513l-0.638699 -2.69026l-1.60539 -0.66118l-0.189073 -2.0775l-5.2318 -3.17159l-0.822008 -4.49914l0.79895 -6.44291l1.28835 -2.93352l-1.58868 -1.48838l-1.97778 -0.73093l-2.64818 -3.08282l-4.08006 -1.87575l-8.87953 -3.4944l-5.47563 -3.39986l-8.638 -2.80728l-7.94281 -6.95075l1.90572 -0.704414l-4.30661 -3.97285l-0.175815 -3.18831l-6.07225 -1.49011l-2.89432 4.07776l-2.78768 -3.16352l0.211555 -3.27766l0.336066 -0.152757l2.10229 -0.857747l-7.5174 -1.37482l-7.6788 3.35086l0.521681 4.68821l-1.15634 2.69141l3.09608 4.80754l8.85532 4.75796l4.75047 7.80677l10.5097 7.61251l7.40095 -0.0587972l2.30058 2.0873l-2.65049 1.88151l8.46046 3.41312l6.93403 2.85801l8.09787 4.92398l0.978224 1.76449l-1.76392 3.38084l-5.2416 -4.40864l-8.20567 -1.55467l-3.97573 6.10914l6.82624 3.50189l-1.12003 4.92801l-3.94633 0.55915l-5.0433 8.10133l-3.93826 0.727471l0.0380452 -2.88856l1.92647 -5.06405l2.05156 -2.01697l-3.68751 -5.47448l-2.88222 -4.76142l-3.92154 -1.17883l-2.78768 -4.07603l-6.06879 -1.71722l-4.08583 -3.79473l-6.9888 -0.612183l-7.3802 -4.26337l-8.63973 -6.14834l-6.42042 -5.43989l-2.94678 -9.33665l-4.69916 -1.09755l-7.68399 -3.11625l-4.34638 1.27452l-5.45719 4.3827l-3.925 0.692885l-8.55672 5.33613l-18.6283 -2.55768l-13.7545 3.0638l-1.08083 5.68776l0.504388 5.48716l-8.94928 6.29015l-12.1024 1.99622l-0.842183 3.17735l-5.80478 5.2341l-3.63966 7.68745l3.68347 5.39839l-5.46295 4.21265l-2.04291 6.14085l-7.12945 1.88093l-6.68789 7.26318l-11.9877 0.143534l-9.00231 -0.17985l-5.91488 3.33588l-3.6068 3.56818l-4.62134 -0.783963l-3.49728 -3.19004l-2.67758 -5.4324l-8.81612 -1.46417l-3.79588 2.45161l-4.97932 -1.32755l-4.87325 1.03875l1.44226 -7.39115l-0.887146 -5.80651l-4.2259 -0.871006l-2.25735 -3.57914l0.751682 -6.18235l3.76475 -3.42868l0.670403 -3.81721l1.97028 -5.67969l-0.208672 -4.00109l-1.889 -3.39237l-0.415616 -3.18427l0.476142 -6.72652l-3.85813 -4.09678l13.3608 -6.81702l11.5571 1.7057l12.6812 -0.0605265l10.0491 1.61289l7.84136 -0.494588l15.2642 0.311279l4.88363 -5.66471l1.7985 -18.8151l-9.74592 -9.91309l-6.96516 -4.77698l-14.4347 -3.6339l-0.951131 -6.88504l12.2448 -2.05502l15.8597 2.42913l-2.99289 -10.6913l8.91585 4.05182l21.9873 -7.36521l2.83725 -7.73875l8.25812 -1.90572l7.571 -1.86422l4.86576 -2.59342l8.27138 -13.8969l12.9215 -3.95325l7.84827 0.266317l1.84404 -1.99853l7.89324 -0.513611l1.75123 2.08154l6.41293 -4.65593l-2.15936 -3.53994l-0.432332 -5.35689l-3.8345 -5.23987l-0.285339 -9.656l1.57369 -2.55018l2.70871 -2.83322l8.32038 -0.585666l3.31685 -2.60437l7.59694 -2.66547l-0.321079 4.85653l-2.79517 3.07705l1.13329 2.64414l5.12054 1.43016l-2.30808 3.56242l-2.81247 -1.02607l-6.8003 6.8003l2.5669 4.59944l0.168321 3.64946l9.54244 2.20028l-0.0997247 3.35259l9.60297 -1.77314l5.30962 -2.58823l10.663 3.73074l4.45936 3.0073l6.4527 -2.77327l14.7391 -4.36886l11.8943 -3.1958l9.42542 1.59617l0.711907 2.30404l9.10838 0.119324l2.15129 -4.15558l13.0334 -3.0638l-2.00775 -7.93935l0.326843 -7.10927l4.64094 -5.9316l8.90201 -3.22578l7.49895 7.05682l7.57677 -0.183309l1.81522 -7.25165l1.09697 -5.5719l-3.47365 1.18978l-5.99328 -3.35432l-0.819702 -5.42721l11.9416 -2.63089l11.9001 -1.37136l10.2469 1.55986l9.74477 -0.279575l10.7345 -5.21854l-9.89349 -4.48992l-17.14 0.751682l-16.6091 3.46212l-15.3662 1.99103l-5.46641 -5.1511l-9.14758 -3.10126l2.10229 -9.30322l-4.58618 -8.52041l4.5026 -5.50042l8.56249 -5.93102l21.6074 -10.2417l6.30456 -1.97605l-0.981683 -3.99475l-13.1337 -4.46167l-16.2465 2.67297l-9.15911 6.5899l1.47512 5.78403l-15.0238 7.59349l-18.2375 8.12381l-6.87754 13.2997l6.72248 6.65446l9.03113 5.23987l-8.67374 10.6532l-9.82259 2.21008l-3.60392 15.8556l-5.36265 8.84725l-11.458 -0.912509l-5.34536 7.48973l-10.9351 0.434638l-3.00096 -8.92737l-7.90534 -10.7172l-7.18536 -13.3562l-6.33338 -5.79729l-18.6491 10.9236l-12.5912 2.21354l-13.0616 -4.80869l-3.37738 -10.1552l-2.98598 -21.7959l8.69622 -6.07629l24.9392 -7.92955l18.6451 -9.7465l17.2887 -13.1619l22.6951 -18.2375l15.8159 -7.10754l25.9549 -11.8453l20.7249 -4.13483l15.538 0.502658l14.384 -7.82406l17.2212 0.417345l16.9567 -1.88093l29.5421 6.90925l-12.1647 2.5277l10.3472 5.93275l9.74304 -3.28457l15.5155 5.70794l25.8644 2.24813l35.6847 10.6815l7.24762 4.48819l0.625441 6.28611l-10.4849 4.96202l-15.4233 2.51963l-42.1616 -7.1796l-6.93403 1.20131l15.3979 6.91732l1.2186 14.0306l12.1589 2.88049l7.38135 2.45161l1.22033 -4.57869l-5.89701 -4.20803l6.21809 -3.42868l22.8312 5.87857l7.95434 -2.30116l-6.35644 -6.91674l22.0092 -9.25018l8.71755 0.544162l8.819 3.30187l5.50042 -6.49017l-7.87479 -5.6307l4.6225 -5.64799l-6.9421 -5.85954"/>
<path d="M281.791 -578.246l6.28371 3.616l0.300642 2.01274l5.43108 4.56771l-0.0253789 2.06618l3.81073 0.0693038l1.79165 -2.97787l8.35306 0.252325l0.151297 -3.06547l2.03861 0.487567l1.21428 -1.51785l-3.94251 -4.48523l-15.8184 -6.21001l-9.58882 5.18461"/>
<path d="M132.027 -559.158l-3.66285 -1.24259l-3.74143 1.95954l-1.58911 1.27944l-3.11623 0.374826l-1.65207 0.694747l0.147393 0.985383l-0.733059 2.54765l3.49399 -0.026843l4.27439 -0.94097l6.00894 -2.77508l0.618854 -1.73504l-0.0488055 -1.12106"/>
<path d="M337.305 -588.202l-4.53989 -3.73167l-2.25286 -0.690598l-3.59892 -0.132019l4.96157 2.59426l3.06011 2.18868l-2.33388 0.592499l-1.28749 0.49196l-2.31045 -1.46929l-1.97858 -1.46831l0.372874 2.10083l-3.54914 -0.641793l-0.234266 0.742332l2.09571 3.3261l3.49838 2.97665l2.85854 1.48759l3.95081 2.90832l-3.50424 -0.265258l-3.21531 -0.0183021l4.57015 1.58472l7.16563 -0.628127l2.66283 -2.46468l-3.18505 -4.15799l-3.20652 -5.3259"/>
<path d="M-210.735 -685.943l0.128161 4.20457l-18.6887 -3.90802l-4.8603 2.52809l12.75 2.36149l12.3736 5.77226l3.58181 7.60552l-16.8344 1.81985l-7.28157 -3.64074l-11.677 -5.42536l3.23057 6.40976l-10.9689 4.96589l24.8893 0.400917l13.0182 0.515194l-25.3135 8.2229"/>
</g>
</g>
</g>
</g>
<g inkscape:groupmode="layer" inkscape:label="Coastline" id="Coastline"><title>Coastline</title>
<g>
<g id="drawing" inkscape:label="drawing" transform="translate(255,311.667)">
</g>
</g>
</g>
<g id="Clone of page" inkscape:label="Clone of page">
</g>
</g>
</g><!--ePage-->
</svg>
