<?xml version="1.0" ?>
<svg version="1.1" encoding="iso-8859-1" baseProfile="full"
xmlns:dc="http://purl.org/dc/elements/1.1/"
xmlns:cc="http://creativecommons.org/ns#"
xmlns:rdf="http://www.w3.org/1999/02/22-rdf-syntax-ns#"
xmlns="http://www.w3.org/2000/svg"
xmlns:xlink="http://www.w3.org/1999/xlink"
xmlns:ev="http://www.w3.org/2001/xml-events"
xmlns:sodipodi="http://sodipodi.sourceforge.net/DTD/sodipodi-0.dtd"
xmlns:inkscape="http://www.inkscape.org/namespaces/inkscape"
inkscape:version="0.46"
inkscape:output_extension="org.inkscape.output.svg.inkscape"
viewBox="0 0 681 378" xml:space="preserve">
<title>Magics plot</title>
<metadata id="MAGICSmetadata">
<rdf:RDF><cc:Work rdf:about="">
	<dc:format>image/svg+xml</dc:format>
	<dc:title>Magics plot</dc:title>
	<dc:author>baudouin on Baudouins-iMac-3.local</dc:author>
	<dc:date>Tue Sep  8 13:14:15 2020</dc:date>
	<dc:language>en-GB</dc:language>
	<dc:publisher><cc:Agent>
	 <dc:title>Magics 4.4.5 (64 bit)</dc:title>
	</cc:Agent></dc:publisher>
	<dc:coverage>Plot of meteorological data</dc:coverage>
</cc:Work></rdf:RDF>
</metadata>
<g id="page" transform="translate(0,377.778)" vector-effect="non-scaling-stroke">
<g id="Page3">
<g inkscape:groupmode="layer" inkscape:label="Coastline" id="Coastline"><title>Coastline</title>
<g>
<g id="drawing" transform="translate(255,311.667)">
</g>
</g>
</g>
<g inkscape:groupmode="layer" inkscape:label="Coastline" id="Coastline"><title>Coastline</title>
<g>
<g id="drawing" transform="translate(255,311.667)">
<g fill-rule="evenodd" stroke="none">
<path fill="rgb(255,225,170)" d="M321.157 -330.349l-0.295274 -0.759414l-0.68767 -1.76847l6.38132 -4.02182l-8.58733 2.81803l-6.80251 -0.127382l-1.3646 2.278l-0.667659 0.0517338l-4.48718 0.347495l2.2065 3.79268l4.62335 1.22575l9.68106 -3.8366"/>
<path fill="rgb(255,225,170)" d="M247.114 -330.603l1.18061 -2.78606l-5.14703 1.13326l0.228409 -1.64353l-7.02848 -0.670344l-7.35109 0.538081l-5.16314 -3.18261l-1.74724 4.01401l11.5225 1.84168l-0.0946824 1.55836l13.6001 -0.802851"/>
<path fill="rgb(255,225,170)" d="M144.593 -350.712l-1.41341 -2.92614l3.40126 -7.43381l-7.16953 0.824324l-9.63421 1.02858l-11.052 -0.86337l-1.32165 4.84907l13.1819 4.80173l4.80246 1.01906l7.22273 3.55719l1.98248 -4.85664"/>
<path fill="rgb(255,225,170)" d="M87.0288 -370.604l4.2944 0.595915l1.32653 -12.4915l-5.66632 -6.70539l-4.72242 2.92784l-5.19437 -0.472438l2.15574 5.39935l0.378242 11.3944l3.57598 2.50494l3.85222 -3.15308"/>
<path fill="rgb(255,225,170)" d="M90.289 -398.107l-1.6057 -8.09854l-6.08214 3.60648l-1.90586 3.5096l2.18649 6.35521l4.28805 1.92294l3.11916 -7.29569"/>
<path fill="rgb(255,225,170)" d="M-64.117 -493.568l7.13878 -8.43433l-1.55738 -6.74712l5.06162 -6.48869l-10.1235 -5.83909l-7.91748 0.389468l-7.1383 4.41153l-12.8495 7.39648l4.93229 9.60249l-7.65759 9.86164l13.3683 1.42756l16.7427 -5.57994"/>
<path fill="rgb(255,225,170)" d="M119.85 -525.205l-3.01374 -4.7356l-13.8549 3.13039l1.31872 3.9203l9.88312 5.33469l5.66681 -7.64978"/>
<path fill="rgb(255,225,170)" d="M-42.9015 -475.451l8.73668 1.07177l6.24442 -4.42495l4.40372 1.85925l16.079 -2.59694l12.6353 0.0873621l8.49558 -4.94595l-3.7712 -4.88592l4.81125 -2.76947l1.14791 -6.03993l-11.4425 -1.79897l-2.69162 -3.73069l-5.81274 -10.7606l-6.46478 -1.51688l-9.16128 -12.1362l-9.7655 -0.602505l8.4907 -8.46434l2.46224 -7.69517l-10.3485 -0.0492934l-9.62225 1.29383l10.0944 -10.2187l-11.3946 0.794798l-7.54143 -0.747701l-7.33669 7.661l-3.42981 9.76403l4.76928 4.81662l0.553455 9.10321l5.08505 -4.46571l3.10598 2.60207l-3.43225 4.22046l2.25116 2.55595l11.4671 1.66183l6.46942 5.95012l-1.389 5.48306l-14.0526 -0.855316l-1.79458 6.1861l5.17241 5.08724l-9.86896 2.92735l2.6721 3.75827l14.8232 1.58154l-8.45409 2.04007l-13.851 9.91972l5.02014 1.88584l6.63487 -3.60624"/>
<path fill="rgb(255,225,170)" d="M-168.059 -601.41l27.2435 -6.47259l12.2787 -7.20223l-10.6713 -6.44184l2.18112 -6.11192l-15.6695 -0.669612l-15.402 5.03331l-11.8832 -2.67039l-14.3503 5.14239l-14.7205 -6.4067l-14.3139 1.3973l-6.38132 6.15145l19.8216 2.19674l0.406306 2.77313l-16.7227 1.8307l20.5564 4.61847l-9.29794 4.17385l26.3521 2.98958l12.4337 1.39071l8.1393 -1.72235"/>
<path fill="rgb(255,225,170)" d="M425 -645.939l-14.6117 -1.67574l6.9421 5.85954l-4.6225 5.64799l7.87479 5.6307l-5.50042 6.49017l-8.819 -3.30187l-8.71755 -0.544162l-22.0092 9.25018l6.35644 6.91674l-7.95434 2.30116l-22.8312 -5.87857l-6.21809 3.42868l5.89701 4.20804l-1.22033 4.57869l-7.38135 -2.45161l-12.1589 -2.88049l-1.2186 -14.0306l-15.3979 -6.91732l6.93403 -1.20131l42.1616 7.1796l15.4233 -2.51963l10.4849 -4.96202l-0.625441 -6.28611l-7.24762 -4.48819l-35.6847 -10.6815l-25.8644 -2.24813l-15.5155 -5.70794l-9.74304 3.28457l-10.3472 -5.93275l12.1647 -2.5277l-29.5421 -6.90925l-16.9567 1.88093l-17.2212 -0.417344l-14.384 7.82406l-15.538 -0.502658l-20.7249 4.13483l-25.9549 11.8453l-15.8159 7.10754l-22.6951 18.2375l-17.2887 13.1619l-18.6451 9.7465l-24.9392 7.92955l-8.69622 6.07629l2.98598 21.7959l3.37738 10.1552l13.0616 4.80869l12.5912 -2.21354l18.6491 -10.9236l6.33338 5.79729l7.18536 13.3562l7.90534 10.7172l3.00096 8.92738l10.9351 -0.434638l5.34536 -7.48973l11.458 0.91251l5.36265 -8.84725l3.60392 -15.8556l9.82259 -2.21008l8.67374 -10.6532l-9.03113 -5.23987l-6.72248 -6.65446l6.87754 -13.2997l18.2375 -8.12381l15.0238 -7.59349l-1.47512 -5.78403l9.15911 -6.5899l16.2465 -2.67297l13.1337 4.46167l0.981682 3.99475l-6.30456 1.97605l-21.6074 10.2417l-8.56249 5.93102l-4.5026 5.50042l4.58618 8.52041l-2.10229 9.30322l9.14758 3.10126l5.46641 5.1511l15.3662 -1.99104l16.6091 -3.46212l17.14 -0.751682l9.89349 4.48992l-10.7345 5.21854l-9.74477 0.279575l-10.2469 -1.55985l-11.9001 1.37136l-11.9416 2.63089l0.819702 5.42721l5.99328 3.35432l3.47365 -1.18978l-1.09697 5.5719l-1.81522 7.25165l-7.57677 0.183309l-7.49895 -7.05682l-8.90201 3.22578l-4.64094 5.9316l-0.326843 7.10927l2.00775 7.93935l-13.0334 3.0638l-2.15129 4.15558l-9.10838 -0.119324l-0.711907 -2.30404l-9.42542 -1.59617l-11.8943 3.1958l-14.7391 4.36886l-6.4527 2.77327l-4.45936 -3.0073l-10.663 -3.73074l-5.30962 2.58823l-9.60297 1.77314l0.0997248 -3.35259l-9.54244 -2.20028l-0.168321 -3.64946l-2.5669 -4.59944l6.8003 -6.8003l2.81247 1.02607l2.30808 -3.56242l-5.12054 -1.43016l-1.13329 -2.64414l2.79517 -3.07705l0.321079 -4.85653l-7.59694 2.66547l-3.31685 2.60437l-8.32038 0.585666l-2.70871 2.83322l-1.57369 2.55019l0.285339 9.656l3.8345 5.23987l0.432333 5.35689l2.15936 3.53994l-6.41293 4.65593l-1.75124 -2.08154l-7.89324 0.513612l-1.84404 1.99853l-7.84827 -0.266316l-12.9215 3.95325l-8.27138 13.8969l-4.86576 2.59342l-7.571 1.86422l-8.25812 1.90572l-2.83725 7.73875l-21.9873 7.36521l-8.91585 -4.05182l2.99289 10.6913l-15.8597 -2.42913l-12.2448 2.05502l0.951131 6.88504l14.4347 3.6339l6.96516 4.77698l9.74592 9.91309l-1.7985 18.8151l-4.88363 5.66471l-15.2642 -0.311279l-7.84136 0.494588l-10.0491 -1.61289l-12.6812 0.0605266l-11.5571 -1.7057l-13.3608 6.81702l3.85813 4.09678l-0.476142 6.72652l0.415616 3.18427l1.889 3.39237l0.208672 4.00109l-1.97028 5.67969l-0.670403 3.81721l-3.76475 3.42868l-0.751681 6.18235l2.25735 3.57913l4.2259 0.871006l0.887146 5.80651l-1.44226 7.39115l4.87325 -1.03875l4.97932 1.32755l3.79588 -2.45161l8.81612 1.46417l2.67758 5.4324l3.49728 3.19004l4.62135 0.783963l3.6068 -3.56818l5.91488 -3.33588l9.00231 0.17985l11.9877 -0.143534l6.68789 -7.26318l7.12945 -1.88093l2.04291 -6.14085l5.46295 -4.21265l-3.68347 -5.39839l3.63966 -7.68745l5.80478 -5.2341l0.842184 -3.17735l12.1024 -1.99622l8.94928 -6.29015l-0.504388 -5.48716l1.08083 -5.68776l13.7545 -3.0638l18.6283 2.55768l8.55672 -5.33613l3.925 -0.692885l5.45719 -4.3827l4.34638 -1.27452l7.68399 3.11625l4.69916 1.09755l2.94678 9.33665l6.42042 5.43989l8.63973 6.14834l7.3802 4.26337l6.9888 0.612182l4.08583 3.79472l6.06879 1.71722l2.78768 4.07603l3.92154 1.17883l2.88222 4.76142l3.68751 5.47448l-2.05156 2.01697l-1.92647 5.06405l-0.0380451 2.88856l3.93826 -0.727471l5.0433 -8.10133l3.94633 -0.55915l1.12003 -4.92801l-6.82624 -3.50189l3.97573 -6.10914l8.20567 1.55467l5.2416 4.40864l1.76392 -3.38084l-0.978224 -1.76449l-8.09787 -4.92398l-6.93403 -2.85801l-8.46046 -3.41312l2.65049 -1.88151l-2.30058 -2.0873l-7.40095 0.0587973l-10.5097 -7.61251l-4.75047 -7.80677l-8.85532 -4.75796l-3.09608 -4.80754l1.15634 -2.69141l-0.521681 -4.68821l7.6788 -3.35086l7.5174 1.37482l-2.10229 0.857747l-0.336066 0.152757l-0.211555 3.27766l2.78768 3.16352l2.89432 -4.07776l6.07225 1.49011l0.175815 3.18831l4.30661 3.97285l-1.90572 0.704413l7.94281 6.95075l8.638 2.80728l5.47563 3.39986l8.87953 3.4944l4.08006 1.87575l2.64818 3.08282l1.97778 0.73093l1.58868 1.48838l-1.28835 2.93352l-0.798951 6.4429l0.822009 4.49914l5.2318 3.17159l0.189073 2.0775l1.60539 0.66118l0.638699 2.69026l4.83924 5.38513l3.68347 4.34235l1.65266 6.28265l3.54167 7.55544l7.74451 4.10831l6.27285 -0.117018l-3.58144 -8.33594l5.99731 -0.991483l-2.78595 -4.81676l8.73599 2.50292l-0.141805 -5.33613l-4.67495 -2.73868l-5.26062 -4.35215l3.56069 -2.07058l-4.72626 -4.43112l-2.10978 -5.6405l1.77372 -2.07347l4.99603 4.86345l5.26062 -0.0092225l4.79774 -1.53968l-6.54667 -5.30731l11.4372 -2.45565l4.92801 0.893487l5.75348 0.268047l-0.128546 1.94953l2.97329 4.39711l7.88055 -5.08653l4.02876 -2.92026l11.2147 -0.519376l1.71895 -2.31442l-8.24544 -3.05054l-1.12176 -3.63217l-3.04881 -5.38686l3.44944 -6.75649l4.9015 -3.91232l2.64242 -11.3934l2.86953 0.883686l4.57869 -2.03254l-0.219625 -2.43432l7.31391 -6.9813l3.50593 -5.20067l8.74925 -1.16326l0.649651 3.52092l14.6826 2.38763l2.73292 2.16281l-9.03978 3.13931l-1.66823 1.81118l10.3189 2.76347l-2.08154 4.43919l5.2514 1.92071l12.8218 -5.46468l10.3379 -1.63537l1.8452 -3.36989l-9.63352 0.566643l-4.62019 -2.2781l-0.553386 -5.87453l8.13592 -3.51861l8.84148 -0.499199l6.28265 -3.05573l7.54218 -0.755717l8.47717 -1.52239l0.2496 2.06655l-13.9211 3.85295l5.2831 3.73823l-7.83674 7.89958l-6.87409 1.50913l8.15667 5.54769l10.776 3.56242l12.0413 7.98028l3.46039 2.89374l5.23237 1.0866l5.45892 3.48114l2.35938 6.44118l-1.4094 4.03626l-11.1501 4.93032l-8.12958 -0.84276l-11.0026 1.4561l-13.5493 -3.65292l-16.484 -6.65619l-15.6251 0.200026l-11.0049 2.67066l-11.3542 6.12586l-17.9989 -1.2503l-3.96651 7.17787l-14.5448 0.377571l-10.4757 9.03286l5.98579 4.5124l-4.59368 7.34562l6.90002 5.23814l5.59496 9.39372l10.3097 -0.17005l9.13432 5.03004l6.52649 -1.12233l2.1778 -3.91751l10.1811 0.317619l7.64594 5.06982l14.3333 -1.06354l6.49363 -5.43413l7.90131 2.17204l5.75924 -0.804715l-3.57741 3.54743l3.47365 4.28413l-2.31211 3.88523l0.881958 7.22687l-0.177545 0.328572l-4.69743 6.65446l-3.36412 7.69379l-0.260552 0.0962663l-0.430449 0.762057h93.9445v-334.272z
M329.298 -577.21L332.513 -577.192L336.018 -576.927L332.067 -579.835L329.208 -581.323L325.71 -584.299L323.614 -587.625L323.848 -588.368L327.397 -587.726L327.025 -589.827L329.003 -588.358L331.314 -586.889L332.601 -587.381L334.935 -587.974L331.875 -590.162L326.913 -592.756L330.512 -592.624L332.765 -591.934L337.305 -588.202L340.512 -582.876L343.697 -578.718L341.034 -576.254L333.868 -575.625L329.298 -577.21z
M293.781 -565.984L293.807 -568.05L288.376 -572.618L288.075 -574.63L281.791 -578.246L291.38 -583.431L307.198 -577.221L311.141 -572.736L309.927 -571.218L307.888 -571.705L307.737 -568.64L299.384 -568.892L297.592 -565.914L293.781 -565.984z
M118.412 -555.106L118.265 -556.092L119.917 -556.786L123.033 -557.161L124.622 -558.441L128.364 -560.4L132.027 -559.158L132.075 -558.036L131.456 -556.301L125.448 -553.526L121.173 -552.585L117.679 -552.559L118.412 -555.106"/>
<path fill="rgb(255,225,170)" d="M108.506 -312.961l-3.59239 -1.47512l-2.37668 -4.48992l-4.8842 -0.162557l-1.79447 -5.14533l6.21636 -4.74874l1.24281 -8.17512l-3.26959 -2.34612l0.0639852 -4.36886l4.72222 -4.62769l-0.672133 -1.81349l-8.01083 3.47538l0.27727 -4.77871l-6.61123 -1.13329l-10.2849 3.81202l-6.45962 0.574137l-3.84026 -2.19913l-10.0924 0.0737847l-8.89452 3.72325l-4.7643 -1.40364l-15.621 0.767246l-16.0061 1.68264l-9.09512 2.87472l-5.96215 3.89733l-10.2117 1.64113l-9.07898 5.16032l-4.10255 -0.0997248l-9.78224 -2.08557l-8.98098 0.653687l-5.69295 -4.01032l-6.95306 -0.0449631l-2.96868 5.80075l-6.31032 9.77878l-7.00494 3.90425l-9.475 4.3141l-2.161 2.26946h196.85l-4.41788 -1.29469"/>
<path fill="rgb(255,225,170)" d="M-236.388 -654.111l25.3135 -8.2229l-13.0182 -0.515195l-24.8893 -0.400916l10.9689 -4.96589l-3.23057 -6.40976l11.677 5.42536l7.28157 3.64074l16.8344 -1.81985l-3.58181 -7.60552l-12.3736 -5.77226l-12.75 -2.36149l4.8603 -2.52809l18.6887 3.90802l-0.128161 -4.20457l-6.47587 -3.50124h-37.7892v40.7318l18.6125 -5.39823"/>
</g>
<g stroke-width="0.5px" stroke="rgb(102,84,51)" fill="none">
<path d="M326.556 -336.898l-6.38132 4.02182l0.68767 1.76847l0.295273 0.759414l-9.68106 3.8366l-4.62335 -1.22575l-2.2065 -3.79268l4.48718 -0.347495l0.66766 -0.0517339l1.3646 -2.278l6.80251 0.127382l8.58733 -2.81803"/>
<path d="M223.833 -337.214l5.16314 3.18261l7.35109 -0.538081l7.02848 0.670344l-0.22841 1.64353l5.14703 -1.13326l-1.18061 2.78606l-13.6001 0.802851l0.0946827 -1.55836l-11.5225 -1.84168l1.74724 -4.01401"/>
<path d="M146.581 -361.072l-3.40126 7.43381l1.41341 2.92613l-1.98248 4.85664l-7.22273 -3.55719l-4.80246 -1.01906l-13.1819 -4.80173l1.32165 -4.84907l11.052 0.86337l9.63421 -1.02858l7.16953 -0.824325"/>
<path d="M86.9834 -389.205l5.66632 6.70539l-1.32653 12.4915l-4.2944 -0.595915l-3.85222 3.15308l-3.57598 -2.50494l-0.378243 -11.3944l-2.15574 -5.39935l5.19437 0.472437l4.72242 -2.92784"/>
<path d="M90.289 -398.107l-3.11916 7.29569l-4.28805 -1.92294l-2.18649 -6.35521l1.90586 -3.5096l6.08214 -3.60648l1.6057 8.09854"/>
<path d="M-64.117 -493.568l-16.7427 5.57994l-13.3683 -1.42756l7.65759 -9.86164l-4.93229 -9.60249l12.8495 -7.39648l7.1383 -4.41153l7.91748 -0.389468l10.1235 5.83909l-5.06162 6.48869l1.55738 6.74712l-7.13878 8.43433"/>
<path d="M119.85 -525.205l-5.66681 7.64978l-9.88312 -5.33469l-1.31873 -3.9203l13.8549 -3.13039l3.01374 4.7356"/>
<path d="M-28.3806 -553.775l-10.0944 10.2187l9.62225 -1.29383l10.3485 0.0492936l-2.46224 7.69517l-8.4907 8.46434l9.7655 0.602504l9.16128 12.1362l6.46478 1.51688l5.81274 10.7606l2.69162 3.73069l11.4425 1.79897l-1.14791 6.03993l-4.81125 2.76947l3.7712 4.88592l-8.49558 4.94595l-12.6353 -0.0873619l-16.079 2.59694l-4.40372 -1.85925l-6.24442 4.42495l-8.73668 -1.07177l-6.63487 3.60624l-5.02014 -1.88585l13.851 -9.91972l8.45409 -2.04007l-14.8232 -1.58154l-2.6721 -3.75827l9.86896 -2.92736l-5.17241 -5.08724l1.79458 -6.1861l14.0526 0.855317l1.38901 -5.48306l-6.46942 -5.95012l-11.4671 -1.66183l-2.25115 -2.55595l3.43225 -4.22046l-3.10598 -2.60207l-5.08505 4.46571l-0.553455 -9.10321l-4.76928 -4.81662l3.42981 -9.76403l7.33669 -7.661l7.54143 0.747701l11.3946 -0.794798"/>
<path d="M-137.027 -627.639l-2.18112 6.11192l10.6713 6.44184l-12.2787 7.20223l-27.2435 6.47259l-8.1393 1.72235l-12.4337 -1.39071l-26.3521 -2.98958l9.29794 -4.17385l-20.5564 -4.61847l16.7227 -1.8307l-0.406306 -2.77313l-19.8216 -2.19674l6.38132 -6.15145l14.3139 -1.3973l14.7205 6.4067l14.3503 -5.14239l11.8832 2.67039l15.402 -5.03331l15.6695 0.669612"/>
<path d="M-81.7644 -313.936l9.475 -4.3141l7.00494 -3.90425l6.31032 -9.77878l2.96868 -5.80075l6.95306 0.0449626l5.69295 4.01031l8.98098 -0.653687l9.78224 2.08557l4.10255 0.0997247l9.07898 -5.16032l10.2117 -1.64113l5.96215 -3.89733l9.09512 -2.87472l16.0061 -1.68264l15.621 -0.767246l4.7643 1.40364l8.89452 -3.72325l10.0924 -0.0737847l3.84026 2.19913l6.45962 -0.574137l10.2849 -3.81202l6.61123 1.13329l-0.277269 4.77871l8.01083 -3.47538l0.672133 1.81349l-4.72222 4.62769l-0.0639852 4.36886l3.26959 2.34612l-1.24281 8.17512l-6.21636 4.74874l1.79447 5.14533l4.8842 0.162557l2.37668 4.48992l3.59239 1.47512"/>
<path d="M331.486 -312.429l0.260552 -0.096266l3.36412 -7.69379l4.69744 -6.65446l0.177544 -0.328573l-0.881958 -7.22687l2.31211 -3.88523l-3.47365 -4.28413l3.57741 -3.54743l-5.75924 0.804715l-7.90131 -2.17204l-6.49363 5.43413l-14.3333 1.06354l-7.64594 -5.06982l-10.1811 -0.31762l-2.1778 3.91751l-6.52649 1.12233l-9.13432 -5.03004l-10.3097 0.170051l-5.59496 -9.39372l-6.90002 -5.23814l4.59368 -7.34561l-5.98579 -4.5124l10.4757 -9.03286l14.5448 -0.37757l3.96651 -7.17787l17.9989 1.25031l11.3542 -6.12586l11.0049 -2.67066l15.6251 -0.200026l16.484 6.65619l13.5493 3.65292l11.0026 -1.4561l8.12958 0.84276l11.1501 -4.93032l1.4094 -4.03625l-2.35938 -6.44118l-5.45892 -3.48114l-5.23237 -1.0866l-3.46039 -2.89374l-12.0413 -7.98028l-10.776 -3.56242l-8.15667 -5.54769l6.87408 -1.50913l7.83674 -7.89958l-5.2831 -3.73823l13.9211 -3.85295l-0.2496 -2.06655l-8.47717 1.52239l-7.54218 0.755717l-6.28265 3.05573l-8.84148 0.4992l-8.13592 3.51861l0.553385 5.87453l4.62019 2.2781l9.63352 -0.566644l-1.84519 3.36989l-10.3379 1.63537l-12.8218 5.46468l-5.2514 -1.92071l2.08154 -4.43919l-10.3189 -2.76347l1.66823 -1.81118l9.03978 -3.13931l-2.73292 -2.16281l-14.6826 -2.38763l-0.649651 -3.52091l-8.74925 1.16326l-3.50593 5.20067l-7.31391 6.9813l0.219625 2.43432l-4.57869 2.03254l-2.86953 -0.883687l-2.64242 11.3934l-4.9015 3.91232l-3.44944 6.75649l3.04881 5.38686l1.12176 3.63217l8.24544 3.05054l-1.71895 2.31442l-11.2147 0.519375l-4.02876 2.92026l-7.88055 5.08653l-2.97329 -4.39711l0.128547 -1.94953l-5.75348 -0.268046l-4.92801 -0.893487l-11.4372 2.45565l6.54666 5.30731l-4.79774 1.53968l-5.26062 0.00922309l-4.99603 -4.86345l-1.77372 2.07347l2.10978 5.6405l4.72626 4.43112l-3.56069 2.07058l5.26062 4.35215l4.67495 2.73868l0.141805 5.33613l-8.736 -2.50292l2.78595 4.81676l-5.99731 0.991482l3.58144 8.33594l-6.27285 0.117018l-7.74451 -4.10831l-3.54167 -7.55544l-1.65266 -6.28265l-3.68347 -4.34235l-4.83924 -5.38513l-0.638699 -2.69026l-1.60539 -0.66118l-0.189073 -2.0775l-5.2318 -3.17159l-0.822008 -4.49914l0.79895 -6.44291l1.28835 -2.93352l-1.58868 -1.48838l-1.97778 -0.73093l-2.64818 -3.08282l-4.08006 -1.87575l-8.87953 -3.4944l-5.47563 -3.39986l-8.638 -2.80728l-7.94281 -6.95075l1.90572 -0.704414l-4.30661 -3.97285l-0.175815 -3.18831l-6.07225 -1.49011l-2.89432 4.07776l-2.78768 -3.16352l0.211555 -3.27766l0.336066 -0.152757l2.10229 -0.857747l-7.5174 -1.37482l-7.6788 3.35086l0.521681 4.68821l-1.15634 2.69141l3.09608 4.80754l8.85532 4.75796l4.75047 7.80677l10.5097 7.61251l7.40095 -0.0587972l2.30058 2.0873l-2.65049 1.88151l8.46046 3.41312l6.93403 2.85801l8.09787 4.92398l0.978224 1.76449l-1.76392 3.38084l-5.2416 -4.40864l-8.20567 -1.55467l-3.97573 6.10914l6.82624 3.50189l-1.12003 4.92801l-3.94633 0.55915l-5.0433 8.10133l-3.93826 0.727471l0.0380452 -2.88856l1.92647 -5.06405l2.05156 -2.01697l-3.68751 -5.47448l-2.88222 -4.76142l-3.92154 -1.17883l-2.78768 -4.07603l-6.06879 -1.71722l-4.08583 -3.79473l-6.9888 -0.612183l-7.3802 -4.26337l-8.63973 -6.14834l-6.42042 -5.43989l-2.94678 -9.33665l-4.69916 -1.09755l-7.68399 -3.11625l-4.34638 1.27452l-5.45719 4.3827l-3.925 0.692885l-8.55672 5.33613l-18.6283 -2.55768l-13.7545 3.0638l-1.08083 5.68776l0.504388 5.48716l-8.94928 6.29015l-12.1024 1.99622l-0.842183 3.17735l-5.80478 5.2341l-3.63966 7.68745l3.68347 5.39839l-5.46295 4.21265l-2.04291 6.14085l-7.12945 1.88093l-6.68789 7.26318l-11.9877 0.143534l-9.00231 -0.17985l-5.91488 3.33588l-3.6068 3.56818l-4.62134 -0.783963l-3.49728 -3.19004l-2.67758 -5.4324l-8.81612 -1.46417l-3.79588 2.45161l-4.97932 -1.32755l-4.87325 1.03875l1.44226 -7.39115l-0.887146 -5.80651l-4.2259 -0.871006l-2.25735 -3.57914l0.751682 -6.18235l3.76475 -3.42868l0.670403 -3.81721l1.97028 -5.67969l-0.208672 -4.00109l-1.889 -3.39237l-0.415616 -3.18427l0.476142 -6.72652l-3.85813 -4.09678l13.3608 -6.81702l11.5571 1.7057l12.6812 -0.0605265l10.0491 1.61289l7.84136 -0.494588l15.2642 0.311279l4.88363 -5.66471l1.7985 -18.8151l-9.74592 -9.91309l-6.96516 -4.77698l-14.4347 -3.6339l-0.951131 -6.88504l12.2448 -2.05502l15.8597 2.42913l-2.99289 -10.6913l8.91585 4.05182l21.9873 -7.36521l2.83725 -7.73875l8.25812 -1.90572l7.571 -1.86422l4.86576 -2.59342l8.27138 -13.8969l12.9215 -3.95325l7.84827 0.266317l1.84404 -1.99853l7.89324 -0.513611l1.75123 2.08154l6.41293 -4.65593l-2.15936 -3.53994l-0.432332 -5.35689l-3.8345 -5.23987l-0.285339 -9.656l1.57369 -2.55018l2.70871 -2.83322l8.32038 -0.585666l3.31685 -2.60437l7.59694 -2.66547l-0.321079 4.85653l-2.79517 3.07705l1.13329 2.64414l5.12054 1.43016l-2.30808 3.56242l-2.81247 -1.02607l-6.8003 6.8003l2.5669 4.59944l0.168321 3.64946l9.54244 2.20028l-0.0997247 3.35259l9.60297 -1.77314l5.30962 -2.58823l10.663 3.73074l4.45936 3.0073l6.4527 -2.77327l14.7391 -4.36886l11.8943 -3.1958l9.42542 1.59617l0.711907 2.30404l9.10838 0.119324l2.15129 -4.15558l13.0334 -3.0638l-2.00775 -7.93935l0.326843 -7.10927l4.64094 -5.9316l8.90201 -3.22578l7.49895 7.05682l7.57677 -0.183309l1.81522 -7.25165l1.09697 -5.5719l-3.47365 1.18978l-5.99328 -3.35432l-0.819702 -5.42721l11.9416 -2.63089l11.9001 -1.37136l10.2469 1.55986l9.74477 -0.279575l10.7345 -5.21854l-9.89349 -4.48992l-17.14 0.751682l-16.6091 3.46212l-15.3662 1.99103l-5.46641 -5.1511l-9.14758 -3.10126l2.10229 -9.30322l-4.58618 -8.52041l4.5026 -5.50042l8.56249 -5.93102l21.6074 -10.2417l6.30456 -1.97605l-0.981683 -3.99475l-13.1337 -4.46167l-16.2465 2.67297l-9.15911 6.5899l1.47512 5.78403l-15.0238 7.59349l-18.2375 8.12381l-6.87754 13.2997l6.72248 6.65446l9.03113 5.23987l-8.67374 10.6532l-9.82259 2.21008l-3.60392 15.8556l-5.36265 8.84725l-11.458 -0.912509l-5.34536 7.48973l-10.9351 0.434638l-3.00096 -8.92737l-7.90534 -10.7172l-7.18536 -13.3562l-6.33338 -5.79729l-18.6491 10.9236l-12.5912 2.21354l-13.0616 -4.80869l-3.37738 -10.1552l-2.98598 -21.7959l8.69622 -6.07629l24.9392 -7.92955l18.6451 -9.7465l17.2887 -13.1619l22.6951 -18.2375l15.8159 -7.10754l25.9549 -11.8453l20.7249 -4.13483l15.538 0.502658l14.384 -7.82406l17.2212 0.417345l16.9567 -1.88093l29.5421 6.90925l-12.1647 2.5277l10.3472 5.93275l9.74304 -3.28457l15.5155 5.70794l25.8644 2.24813l35.6847 10.6815l7.24762 4.48819l0.625441 6.28611l-10.4849 4.96202l-15.4233 2.51963l-42.1616 -7.1796l-6.93403 1.20131l15.3979 6.91732l1.2186 14.0306l12.1589 2.88049l7.38135 2.45161l1.22033 -4.57869l-5.89701 -4.20803l6.21809 -3.42868l22.8312 5.87857l7.95434 -2.30116l-6.35644 -6.91674l22.0092 -9.25018l8.71755 0.544162l8.819 3.30187l5.50042 -6.49017l-7.87479 -5.6307l4.6225 -5.64799l-6.9421 -5.85954"/>
<path d="M281.791 -578.246l6.28371 3.616l0.300642 2.01274l5.43108 4.56771l-0.0253789 2.06618l3.81073 0.0693038l1.79165 -2.97787l8.35306 0.252325l0.151297 -3.06547l2.03861 0.487567l1.21428 -1.51785l-3.94251 -4.48523l-15.8184 -6.21001l-9.58882 5.18461"/>
<path d="M132.027 -559.158l-3.66285 -1.24259l-3.74143 1.95954l-1.58911 1.27944l-3.11623 0.374826l-1.65207 0.694747l0.147393 0.985383l-0.733059 2.54765l3.49399 -0.026843l4.27439 -0.94097l6.00894 -2.77508l0.618854 -1.73504l-0.0488055 -1.12106"/>
<path d="M337.305 -588.202l-4.53989 -3.73167l-2.25286 -0.690598l-3.59892 -0.132019l4.96157 2.59426l3.06011 2.18868l-2.33388 0.592499l-1.28749 0.49196l-2.31045 -1.46929l-1.97858 -1.46831l0.372874 2.10083l-3.54914 -0.641793l-0.234266 0.742332l2.09571 3.3261l3.49838 2.97665l2.85854 1.48759l3.95081 2.90832l-3.50424 -0.265258l-3.21531 -0.0183021l4.57015 1.58472l7.16563 -0.628127l2.66283 -2.46468l-3.18505 -4.15799l-3.20652 -5.3259"/>
<path d="M-210.735 -685.943l0.128161 4.20457l-18.6887 -3.90802l-4.8603 2.52809l12.75 2.36149l12.3736 5.77226l3.58181 7.60552l-16.8344 1.81985l-7.28157 -3.64074l-11.677 -5.42536l3.23057 6.40976l-10.9689 4.96589l24.8893 0.400917l13.0182 0.515194l-25.3135 8.2229"/>
</g>
<g stroke-width="0.5px" stroke="rgb(178,178,178)" fill="none">
<path d="M425 -375.32l-1.94565 0.252524l1.49893 3.56275l0.446722 0.408326l0 -4.2236"/>
<path d="M-71.5147 -520.688l1.94688 5.06043l-1.94688 5.06081l5.84063 -0.129861l7.13839 1.94688"/>
<path d="M76.3583 -311.667l-4.46125 -3.25002l-0.832528 -7.11403l5.82241 -5.26773l2.22294 -7.78931l-1.49723 -9.00339l1.91864 -4.84727"/>
<path d="M108.41 -311.667l0.0952264 -1.29389"/>
<path d="M-70.3963 -350.368l-0.787478 -3.12724l3.50002 -3.54148l1.29616 -2.56747l-3.25644 -2.80783l2.60733 -6.20519l-3.78382 -5.66185l4.08057 -0.777656l0.379289 -4.46382l1.53387 -1.38191l0.121928 -7.36884l4.36362 -2.55671l-2.63982 -4.73714l-5.50347 -0.330272l-1.61679 1.19264l-5.57855 0.0113333l-2.36772 -4.62391l-3.8539 1.37681l-3.42739 2.39993"/>
<path d="M-17.9572 -410.104l3.76427 3.67191l17.3856 4.29212l3.43343 -2.04161l10.6267 4.2721l10.948 -1.22419"/>
<path d="M80.5253 -519.093l7.13839 1.24544l6.04312 -1.43763"/>
<path d="M70.2212 -412.664l1.08035 -4.09946l-5.11898 -1.19803l-2.43289 -7.30802l3.27429 -2.87621l-2.77969 -3.54658l0.389678 -2.66834l-3.24436 -4.14167l-4.50972 1.47985l0.139872 -4.27626l6.9071 -5.30721l-0.303639 -2.40002l4.30327 0.86955l2.59297 -1.61339l1.19869 -6.72851l4.77502 -6.46727l-13.6099 -1.73938l-4.45721 -2.47331"/>
<path d="M70.5195 -449.75l8.03278 0.0660157l1.93876 -2.05162l10.1211 2.88764l2.85071 -0.520861l4.77889 2.62319l1.34508 -2.49258l8.32953 0.402428l6.75202 -1.69329l4.52767 0.289756l2.94553 1.93384l0.880411 -1.60508l-1.33875 -6.15391l3.39263 -1.19878l3.33021 -4.35455l-5.33262 -4.05998l-4.81912 -2.26997l-0.999789 -3.98291l-1.65363 -2.80689l6.86366 -2.05662l3.50634 -2.35308l6.78234 -1.8292l2.36838 -1.79784l2.49097 1.08545l4.2143 -0.985434l-3.87128 -6.03037l0.736006 -3.25616l-2.33627 -5.05174l-3.42975 -3.36628l2.6333 -2.52082l-2.2066 -4.80562"/>
<path d="M64.634 -434.361l4.06347 2.02309l4.55354 -0.449461l5.29503 -3.20318l1.63682 1.49704l4.49886 -0.300239l2.04557 -3.80847l6.98842 1.18339l4.16075 -1.59299l0.749134 -3.87194l-4.81884 -0.2567l-4.27361 -1.71974l1.44453 -2.31172l-0.3655 -1.6762"/>
<path d="M131.633 -430.582l-2.26242 -4.02107l1.02368 -4.65139l-13.5054 -2.43922l-2.11008 -3.28506l-9.33338 1.64144l-1.0982 1.79671l-5.72192 -1.343"/>
<path d="M141.827 -482.674l4.47648 3.04054l7.06142 0.821667l-0.589239 2.59826l5.13069 1.95396l1.40958 -2.43903l6.47728 1.05646l0.8959 2.95696l7.02157 0.57035l4.34681 4.65063l0.53295 0.570161l3.88289 -1.28171l4.76321 3.34749l5.57968 -2.02423l4.45901 0.969661l6.79849 -1.33459l8.97562 3.63007l2.06116 0.550989l-2.43648 -4.24414l8.57631 -7.85513l4.68681 -1.09914l1.01273 -2.64945l-4.74971 -8.24557l-0.1802 -4.20448l-2.91352 -4.3758l5.66383 -1.92789l0.0541167 -3.76503l-2.61989 -3.59229l-0.409984 -4.17813l-2.2678 -2.90964l-4.84415 -1.01027l-17.3669 0.141856l-11.6318 -1.07261"/>
<path d="M250.224 -525.254l5.74354 -1.58856l10.1453 -3.64404l-3.03544 -5.57383l-0.805139 -4.57989l-4.5509 -2.17487l-7.78808 -0.0175667l-8.12949 -3.5054l-4.13856 -1.15798l-8.04431 1.66893"/>
<path d="M257.722 -542.815l4.04713 -2.99757l-2.80075 -8.80846l6.72019 -5.44246l-1.42214 -1.64843"/>
<path d="M222.2 -487.13l4.51463 -0.36805l5.17584 -2.55982l7.31661 -0.209571l9.54031 0.740443l10.5411 2.26648l7.43788 0.189456l3.55092 1.36501l3.54374 -1.64664l2.47548 2.2083l8.52295 -0.452483l3.75643 0.912806l0.607939 -4.75367l2.90983 -2.07324l8.10702 -0.560433l-2.32305 -6.04822l-2.21746 -3.1348l1.81739 -0.882394l7.62082 0.327722l3.67493 -2.06569l-2.72076 -2.51798l-6.36839 -1.66203l0.567989 -1.70557l-3.84323 -1.72276l-5.9211 -6.18356l2.02394 -2.54792l-0.924706 -4.43379l-9.23317 -2.25193l-4.95626 1.12719l-1.34111 -2.34477l-9.94349 -2.36838"/>
<path d="M31.3079 -484.932l6.91466 0.741483l8.75387 -1.96218l5.97814 4.13393l5.19171 2.20594l-1.58667 -9.89655l5.67356 -0.00396667l2.39388 -3.55489l2.35365 -8.64752l-1.76536 -3.19336"/>
<path d="M23.7396 -483.069l1.36756 3.32142l4.39034 0.15555l4.39091 3.79081l6.59081 4.45268l4.84661 -0.735533l8.26238 4.30591l1.02331 -5.29692l2.46179 -0.356244l1.07298 -6.38161"/>
<path d="M53.5882 -467.778l2.11272 0.819779l2.72519 -0.199751l0.53295 -4.14054l-1.88577 -2.13265"/>
<path d="M214.683 -513.094l-0.756217 -2.41013l1.008 -2.58617l-4.17482 -1.49921l-9.89088 -1.65438"/>
<path d="M221.794 -509.174l9.12853 0.0643167l10.2538 -3.5581l2.19168 -5.33167l7.74322 -3.02421l-0.8874 -4.23045l-9.07876 -4.58235l-5.02548 -0.6069l-1.32458 -1.96416l-9.27879 0.933678l-15.8393 -0.605861l-10.8172 2.8968"/>
<path d="M178.057 -467.464l-2.81577 0.0116167l-1.46389 1.7l-2.1675 0.410833l-0.618611 2.14861l-1.80861 0.448611l-0.255 0.878333l-3.22528 0.9775l-4.18389 -0.160556l-1.33828 2.07806l-4.35389 -1.78349l-4.43558 0.490261l-7.33116 -2.88226l-3.32416 0.705406l-5.31307 3.86363l-7.01666 -3.03988"/>
<path d="M130.395 -439.254l7.80121 0.731661l4.76548 -2.14275l8.26011 -0.235168l1.80021 -1.59403l3.13546 -6.08014l-1.82929 -2.04699l5.31892 -0.0186056l0.716739 -3.85928l-0.941139 -3.2725l0.758389 -1.19916"/>
<path d="M153.022 -442.495l1.58856 0.10455l1.83553 3.18797l3.0005 1.16289l7.05991 4.05034l7.80121 1.81617l3.52996 -1.41109l7.23633 -2.48247l5.89503 0.418105l7.57218 -1.78132l5.70945 -6.40485l4.46977 -6.40532l5.76838 -1.98088l-0.658656 -2.53158l-5.24337 -2.56917"/>
<path d="M174.25 -401.2l1.03889 -1.60556l-8.35928 -3.57538l-3.56528 -3.94579l-3.60051 -2.09053l-4.34189 -3.52778l-2.04737 -2.92674l-4.62428 -4.41622l1.97682 -3.91973l3.38876 2.16892l2.04737 -1.95991l4.41244 -0.209006l8.11892 1.56787l6.53046 -0.130618l4.27116 2.09053l3.63592 -3.55394l-3.0005 -2.69157l-2.29443 -3.6584"/>
<path d="M160.363 -454.5l4.80571 2.41797l3.48179 1.02992l7.92729 -1.15732l0.760561 -1.89626l3.75247 -0.279933l4.59944 -1.46625l1.02085 0.604067l4.43502 -1.17952l2.21501 -2.22209l3.09523 -0.576111l10.1143 2.86998l2.01526 -0.966072l1.84365 -3.80762l2.61932 -2.45858"/>
<path d="M156.446 -439.202l-7.51882 2.50863l-0.917811 3.81527l-3.28279 0.966828l0.0353222 2.63925l-3.70647 -0.182845l-3.21224 -1.54181l-1.72975 1.59403l-6.58193 -0.322433"/>
<path d="M266.65 -429.611l-1.69159 -4.30959l0.997144 -4.03259l-0.301656 -4.14517l-5.44859 -5.61614l-2.99663 -3.98244l-2.92494 -2.80028l-2.87904 -0.920456"/>
<path d="M190.969 -435.648l5.11851 3.71063l1.05891 3.00513l5.75384 2.22124l0.741294 3.89357l5.50677 2.7438l2.96518 -2.11659l2.32976 1.17593l-2.18856 1.59403l1.72966 1.64626l2.71745 3.88308l3.65916 -0.691711l7.2573 1.47305l13.8699 0.496872l4.68303 -2.40899l11.1183 -2.19574l6.87329 3.43324l5.55286 0.991573"/>
<path d="M182.956 -395.51l-0.635422 -3.00513l4.09473 -4.65139l0.6001 1.77688l2.54159 -0.836117l2.01204 2.5347l2.2592 0.966922l0.635423 3.42323l1.20011 0.0783889l0.423678 -1.93375l5.57732 -1.46332l2.11495 -0.362896l3.21521 -0.551798l4.37722 -0.156778l1.55314 -1.33271l-1.02368 -1.1236l1.58846 -3.00513l3.6006 -2.9529l-4.58896 -4.07651l-0.847167 -3.44939l2.32976 -2.14275"/>
<path d="M279.586 -427.77l-4.28353 -1.62067l-4.43823 1.51952l-4.21458 -1.74004l2.37754 -1.02604l1.65023 -3.24029l2.58523 -3.01136l-0.668006 -1.69084l1.97464 -0.753667l0.930844 1.3073l5.56618 0.276344l2.49938 -0.698417l-1.76044 -0.957572l0.666778 -1.4076l-3.29762 -2.40087l-1.3651 -3.94825l-3.44033 -1.54483l0.678111 -3.20063l-4.26681 -2.54112l-3.88507 -0.353222l-6.96074 -2.94261l-6.27772 0.934244l-2.25241 1.39277l-3.98452 -0.00122778l-2.37528 2.20717l-6.9717 0.907706l-3.22481 1.45001l-4.38477 -2.30775l-6.05436 -0.0350379l-5.84375 -1.04588l-4.07717 2.02253"/>
<path d="M361 -444.854l0.297972 -4.19541l4.86814 -2.63698l9.13958 -0.692372l1.48599 -3.14953l-2.08694 -5.20776l3.83577 -4.9453l-0.110972 -2.77298l-13.9214 -3.07332l-5.51905 0.102001l-5.82892 -4.42293l-7.24682 1.49581l-11.9946 -3.32076l0.2057 -1.8581l-3.35948 -4.09558l-7.53091 -0.457301l-0.782283 -2.93174l2.35894 -1.91193l-6.03566 -5.34754l-9.79313 0.912617l-2.86818 -0.474678l-2.38595 2.14823l-3.52722 -0.381839"/>
<path d="M211.372 -399.691l4.73016 3.03129l0.670649 6.24542l6.98596 0.273228l7.56084 -2.59552l6.65418 3.30008l8.58434 -0.89165l0.103228 -4.70333l9.62058 -2.97122l8.13186 1.26669"/>
<path d="M194.463 -395.301l-1.2002 3.21413l1.34139 4.05044l3.91822 2.29953l6.17742 -0.836211l3.6006 -2.06437l5.11842 0.182938l1.55314 -1.64626l1.8003 -0.31365"/>
<path d="M246.093 -385.561l2.24504 -1.05891l2.92372 -5.91109l-4.60058 -2.50051"/>
<path d="M190.306 -374.236l4.39167 -4.58056l0.566667 -3.06944l3.06944 -1.36944l0.189361 -2.48143"/>
<path d="M341.414 -338.315l2.52941 -2.06899l2.52941 -2.06899l0.510756 -5.26839l3.09088 1.83676l10.3982 -2.62716l5.02548 1.7782l7.76994 -0.0294667l10.8678 -3.54374l5.08923 0.159706l10.7426 -1.4688l4.05667 -1.46757l10.9853 1.21871l3.31698 2.40578l4.52587 -1.59564l-5.16545 -7.56642l1.84809 -2.92466l-2.94837 -10.8316l6.46708 -2.69027l-3.72101 -2.75775l-7.0227 -2.3476l0.908838 -4.59595l-1.6047 -3.32388l-9.09651 -4.6376l-10.0632 0.448894"/>
<path d="M425 -402.411l-4.36683 -0.979672l-5.7273 1.48316l-1.65495 -1.75553l-12.8594 -4.52823l-13.9042 -1.52858l-7.98292 -1.61443l-1.15166 1.11529"/>
<path d="M425 -389.739l-0.259911 0.17329l-13.1253 1.47322"/>
<path d="M270.035 -652.279l-1.3787 6.61253l14.464 6.29331l-8.71562 7.12121l10.9844 10.7506l-6.35809 8.09682l8.50246 7.02874l-3.86117 6.15428l13.98 6.47077l-3.55196 4.81657l-8.77294 5.45568l-20.2216 12.0559"/>
<path d="M367.556 -311.667l-1.18408 -3.57642"/>
<path d="M425 -347.102l-2.14701 -3.95274"/>
<path d="M225.754 -623.399l-3.1875 -3.67531l-0.249144 -14.5439l-14.7426 -6.43016l-12.5887 -4.62211"/>
<path d="M175.289 -402.806l1.38342 -5.19548l3.07105 -2.19508l1.76488 -0.862372l2.22398 -0.418106l1.37662 -4.44229l-4.55364 -3.63233l2.36508 -4.15489l-3.42408 0.0261611"/>
<path d="M359.801 -311.667l6.57159 -3.57642l20.9083 -9.82883l3.5683 -11.4179l-0.890328 -6.89888l5.16951 -2.33334l4.84018 -5.89352"/>
<path d="M338.31 -314.287l-2.53385 0.124289l-0.869739 1.65495l-3.16049 -0.0176611"/>
<path d="M189.557 -402.226l1.76498 -2.11669l0.776523 -0.81005l-3.60051 -1.95991l-3.10316 -1.01754l-1.37993 -1.30815l-2.50627 -1.62019"/>
<path d="M425 -389.236l-0.259911 -0.329938"/>
<path d="M293.732 -656.938l-16.07 3.78902l-7.62752 0.870117l4.00086 -6.62717l-12.1197 -3.75606l-14.6643 3.20082l-4.63137 6.92419l-9.00566 4.17973l-10.1397 -2.28244l-12.3328 0.4675l-10.4955 -4.99347l-5.66053 2.49532l-5.85896 0.388261l-1.38512 6.21378l-17.8 -1.513l-2.49994 5.25923l-9.06922 -0.0319222l-6.23532 6.71972l-9.4469 10.4697l-14.6647 13.2868l3.43986 3.22622l-3.28648 3.74293l-9.36889 -0.161783l-6.13294 8.85823l0.580833 12.5417l6.03594 4.78626l-3.12394 11.1034l-7.85919 6.47454l-4.16377 5.44217"/>
<path d="M338.338 -314.349l2.28956 -5.10806l5.15024 -3.55952l-1.54511 -3.70364l-4.24783 -0.481478"/>
<path d="M-13.5295 -311.667l-2.84209 -8.68615l-0.562228 -5.74411l-3.55971 -6.04917"/>
</g>
<g stroke-width="0.5px" stroke="rgb(178,178,178)" fill="none" stroke-dasharray="1,1">
<path d="M320.862 -331.108l-1.01223 -0.33139l-1.80434 0.715245l-1.4139 -0.196686l-0.470974 0.362137l-0.187901 -0.954636l-0.680837 -0.578834l-1.82142 -0.0983431l-2.56327 0.805536l-1.77359 -0.492936"/>
<path d="M203.779 -398.983l-0.31465 -0.708576l1.12956 -1.12361l1.05901 -2.29953l-1.34139 0.0522287l-1.83562 -1.75081l-1.55314 -0.444267l-1.23548 -1.50256l-1.76502 -0.587964l-1.34139 -1.33271l-1.69433 0.522656l-1.30607 3.13574l-2.25921 0.679433"/>
<path d="M338.338 -314.349l-0.0280075 0.0624854l0.0981958 2.62017"/>
</g>
</g>
</g>
</g>
<g inkscape:groupmode="layer" inkscape:label="StaticLayer" id="StaticLayer"><title>StaticLayer</title>
<g>
<g id="drawing" transform="translate(255,311.667)">
<g fill-rule="evenodd" stroke="rgb(40,102,0)">
<path fill="rgb(40,102,0)" d="M-15.614 -311.667l1.80692 -3.64356l2.17435 -3.22513l0.514934 -0.927109l0.917838 -1.19806l1.90246 -2.82184l1.73157 -1.92168l1.38116 -1.80284l1.78481 -1.71073l1.58268 -1.75645l1.91772 -1.59867l1.69305 -1.62278l1.60655 -1.12787l2.2457 -1.84965l3.79405 -2.26838l0.453882 -0.309467l0.306372 -0.145074l4.37487 -1.99509l2.42513 -0.527801l2.79548 -1.06754l4.00452 -0.749643l1.54947 -0.508956l5.25053 -0.862296l0.541352 -0.156001l3.73814 -0.546821l1.85132 -0.67595l0.66919 -0.0926339l4.63874 -1.4145l2.16126 -0.256838l3.66788 -0.723829l3.13212 -0.345811l2.93272 -0.396783l3.86728 -0.417136l2.22842 -0.294274l4.57158 -0.48157l1.55334 -0.200328l5.24666 -0.540051l0.905695 -0.114135l5.8943 -0.593158l0.283848 -0.0349709l2.9128 -0.286715l-3.19665 -1.15098l-2.93392 -1.81258l-3.86608 -1.86889l-2.45494 -2.03624l-4.34506 -5.48206l-0.7755 -1.38663l-0.287615 -1.07385l-2.50381 -5.79483l-0.942523 -4.555l-0.814458 -2.31369l-1.09263 -6.48135l-0.115035 -0.387338l3.50406 -3.05809l3.02751 -2.24954l0.856446 -0.695958l1.24447 -0.865097l2.70746 -2.01174l1.99162 -1.25484l2.11236 -1.46841l3.60475 -2.1337l0.666903 -0.420187l0.415986 -0.220789l3.88742 -2.30102l2.91258 -1.45763v-98.6307h-340v192.323h239.386z
M3.10093 -387.222L3.2247 -387.399L3.4 -387.56L6.71255 -390.745L10.2 -393.065L11.6711 -392.605L17 -391.287L21.194 -389.855L23.8 -389.144L28.9001 -387.222L27.1983 -383.79L23.8 -380.57L23.7066 -380.448L23.5718 -380.354L20.1807 -377.141L17 -375.753L15.6739 -374.824L11.8027 -373.485L10.6835 -372.996L10.2 -372.93L9.85947 -373.485L9.50981 -374.182L6.10694 -380.354L3.4 -386.364L3.10093 -387.222"/>
</g>
<g stroke-width="0.5px" stroke="rgb(40,102,0)" fill="none">
<path d="M-15.614 -311.667l1.80692 -3.64356l2.17435 -3.22513l0.514934 -0.927109l0.917838 -1.19806l1.90246 -2.82184l1.73157 -1.92168l1.38116 -1.80284l1.78481 -1.71073l1.58268 -1.75645l1.91772 -1.59867l1.69305 -1.62278l1.60655 -1.12787l2.2457 -1.84965l3.79405 -2.26838l0.453882 -0.309467l0.306372 -0.145074l4.37487 -1.99509l2.42513 -0.527801l2.79548 -1.06754l4.00452 -0.749643l1.54947 -0.508956l5.25053 -0.862296l0.541352 -0.156001l3.73814 -0.546821l1.85132 -0.67595l0.66919 -0.0926339l4.63874 -1.4145l2.16126 -0.256838l3.66788 -0.723829l3.13212 -0.345811l2.93272 -0.396783l3.86728 -0.417136l2.22842 -0.294274l4.57158 -0.48157l1.55334 -0.200328l5.24666 -0.540051l0.905695 -0.114135l5.8943 -0.593158l0.283848 -0.0349709l2.9128 -0.286715l-3.19665 -1.15098l-2.93392 -1.81258l-3.86608 -1.86889l-2.45494 -2.03624l-4.34506 -5.48206l-0.7755 -1.38663l-0.287615 -1.07385l-2.50381 -5.79483l-0.942523 -4.555l-0.814458 -2.31369l-1.09263 -6.48135l-0.115035 -0.387338l3.50406 -3.05809l3.02751 -2.24954l0.856446 -0.695958l1.24447 -0.865097l2.70746 -2.01174l1.99162 -1.25484l2.11236 -1.46841l3.60475 -2.1337l0.666903 -0.420187l0.415986 -0.220789l3.88742 -2.30102l2.91258 -1.45763l0 -98.6307l-340 0l0 192.323l239.386 0"/>
<path d="M3.10093 -387.222l0.123775 -0.177066l0.175295 -0.160219l3.31255 -3.18539l3.48745 -2.31969l1.47106 0.459593l5.32894 1.31781l4.19398 1.43262l2.60602 0.710806l5.10014 1.92153l-1.7018 3.43267l-3.39834 3.21978l-0.0934285 0.121865l-0.134801 0.0943723l-3.39104 3.21286l-3.18073 1.38795l-1.3261 0.928385l-3.87116 1.3395l-1.11923 0.48839l-0.483506 0.0661892l-0.340529 -0.554579l-0.349656 -0.697157l-3.40287 -6.17153l-2.70694 -6.01043l-0.29907 -0.858255"/>
</g>
<g fill-rule="evenodd" stroke="rgb(45,114,0)">
<path fill="rgb(45,114,0)" d="M85 -311.667v-93.6926l-2.91258 1.45763l-3.88742 2.30102l-0.415986 0.220789l-0.666903 0.420187l-3.60475 2.1337l-2.11236 1.46841l-1.99162 1.25484l-2.70746 2.01174l-1.24447 0.865097l-0.856446 0.695958l-3.02751 2.24954l-3.50406 3.05809l0.115035 0.387338l1.09263 6.48135l0.814458 2.31369l0.942523 4.555l2.50381 5.79483l0.287615 1.07385l0.7755 1.38663l4.34506 5.48206l2.45494 2.03624l3.86608 1.86889l2.93392 1.81258l3.19665 1.15098l-2.9128 0.286715l-0.283848 0.0349709l-5.8943 0.593158l-0.905695 0.114135l-5.24666 0.540051l-1.55334 0.200328l-4.57158 0.48157l-2.22842 0.294274l-3.86728 0.417136l-2.93272 0.396783l-3.13212 0.345811l-3.66788 0.723829l-2.16126 0.256838l-4.63874 1.4145l-0.66919 0.0926339l-1.85132 0.67595l-3.73814 0.546821l-0.541352 0.156001l-5.25053 0.862296l-1.54947 0.508956l-4.00452 0.749643l-2.79548 1.06754l-2.42513 0.527801l-4.37487 1.99509l-0.306372 0.145074l-0.453882 0.309467l-3.79405 2.26838l-2.2457 1.84965l-1.60655 1.12787l-1.69305 1.62278l-1.91772 1.59867l-1.58268 1.75645l-1.78481 1.71073l-1.38116 1.80284l-1.73157 1.92168l-1.90246 2.82184l-0.917838 1.19806l-0.514934 0.927109l-2.17435 3.22513l-1.80692 3.64356h100.614"/>
</g>
<g stroke-width="0.5px" stroke="rgb(45,114,0)" fill="none">
<path d="M85 -311.667l0 -93.6926l-2.91258 1.45763l-3.88742 2.30102l-0.415986 0.220789l-0.666903 0.420187l-3.60475 2.1337l-2.11236 1.46841l-1.99162 1.25484l-2.70746 2.01174l-1.24447 0.865097l-0.856446 0.695958l-3.02751 2.24954l-3.50406 3.05809l0.115035 0.387338l1.09263 6.48135l0.814458 2.31369l0.942523 4.555l2.50381 5.79483l0.287615 1.07385l0.7755 1.38663l4.34506 5.48206l2.45494 2.03624l3.86608 1.86889l2.93392 1.81258l3.19665 1.15098l-2.9128 0.286715l-0.283848 0.0349709l-5.8943 0.593158l-0.905695 0.114135l-5.24666 0.540051l-1.55334 0.200328l-4.57158 0.48157l-2.22842 0.294274l-3.86728 0.417136l-2.93272 0.396783l-3.13212 0.345811l-3.66788 0.723829l-2.16126 0.256838l-4.63874 1.4145l-0.66919 0.0926339l-1.85132 0.67595l-3.73814 0.546821l-0.541352 0.156001l-5.25053 0.862296l-1.54947 0.508956l-4.00452 0.749643l-2.79548 1.06754l-2.42513 0.527801l-4.37487 1.99509l-0.306372 0.145074l-0.453882 0.309467l-3.79405 2.26838l-2.2457 1.84965l-1.60655 1.12787l-1.69305 1.62278l-1.91772 1.59867l-1.58268 1.75645l-1.78481 1.71073l-1.38116 1.80284l-1.73157 1.92168l-1.90246 2.82184l-0.917838 1.19806l-0.514934 0.927109l-2.17435 3.22513l-1.80692 3.64356l100.614 0"/>
</g>
<g fill-rule="evenodd" stroke="rgb(45,114,0)">
<path fill="rgb(45,114,0)" d="M3.4 -386.364l2.70694 6.01043l3.40287 6.17153l0.349656 0.697157l0.340529 0.554579l0.483506 -0.0661892l1.11923 -0.48839l3.87116 -1.3395l1.3261 -0.928385l3.18073 -1.38795l3.39104 -3.21286l0.134801 -0.0943723l0.0934285 -0.121865l3.39834 -3.21978l1.7018 -3.43267l-5.10014 -1.92153l-2.60602 -0.710806l-4.19398 -1.43262l-5.32894 -1.31781l-1.47106 -0.459593l-3.48745 2.31969l-3.31255 3.18539l-0.175295 0.160219l-0.123775 0.177066l0.29907 0.858255"/>
</g>
<g stroke-width="0.5px" stroke="rgb(45,114,0)" fill="none">
<path d="M3.4 -386.364l2.70694 6.01043l3.40287 6.17153l0.349656 0.697157l0.340529 0.554579l0.483506 -0.0661892l1.11923 -0.48839l3.87116 -1.3395l1.3261 -0.928385l3.18073 -1.38795l3.39104 -3.21286l0.134801 -0.0943723l0.0934285 -0.121865l3.39834 -3.21978l1.7018 -3.43267l-5.10014 -1.92153l-2.60602 -0.710806l-4.19398 -1.43262l-5.32894 -1.31781l-1.47106 -0.459593l-3.48745 2.31969l-3.31255 3.18539l-0.175295 0.160219l-0.123775 0.177066l0.29907 0.858255"/>
</g>
<g fill-rule="evenodd" stroke="rgb(38,127,102)">
<path fill="rgb(38,127,102)" d="M-254.381 -640.738l5.47547 -0.625714l0.633427 -0.0723736l0.0716499 -0.00819963l6.03722 -0.689909l0.762777 -0.0873066l5.34589 -0.611006l1.45411 -0.166463l4.65436 -0.532054l2.14564 -0.245667l3.96263 -0.453054l2.83737 -0.324921l3.75699 0.117202l3.04301 -0.136746l4.6876 1.07676l2.1124 0.136094l6.65673 1.85292l0.143273 0.0117108l0.376644 0.13301l6.42336 3.10181l4.41075 3.76688l2.38925 3.22562l1.88104 3.64307l0.526303 2.43166l1.75834 4.43703l0.839914 5.05616l0.582788 1.81253l1.21162 1.25306l0.987767 -0.255319l2.83969 -0.997744l0.893943 -2.0996l2.0786 -2.87206l0.534055 -1.35758l0.373488 -0.539449l1.91975 -4.01283l2.52236 -2.85585l0.553108 -0.906299l0.897236 -0.735801l2.43969 -2.76225l3.93361 -2.46433l0.235501 -0.193129l0.191198 -0.0741902l4.03363 -2.52699l2.76637 -0.868424l2.11344 -1.07116l4.68656 -1.23529l0.745204 -0.146762l6.0548 -0.604686l0.192082 0.0459765l6.60792 1.2929l1.96379 0.496702l4.83621 1.00313l4.02545 1.07935l2.77455 0.612301l6.45456 1.84135l0.345438 0.0814409l0.877671 0.267487l5.92233 1.93729l1.95583 0.0382906l4.84417 -0.0135153l1.78115 -0.162927l5.01885 -0.501483l1.17725 -0.108512l5.62275 -0.566166l0.56481 -0.0524632l5.62216 -0.570515l0.557464 -0.0561322l0.0555709 -0.00607627l6.12326 -0.621366l0.676738 -0.0745771l5.50131 -0.553653l1.29869 -0.142947l4.8958 -0.468684l1.9042 -0.20464l4.28298 -0.414369l2.51702 -0.2734l3.65817 -0.357717l3.14183 -0.344967l3.02103 -0.298616l3.77897 -0.419473l2.37117 -0.23695l4.42883 -0.497057l1.72073 -0.15995l5.07927 -0.529409l1.0989 -0.0987057l5.7011 -0.573724l0.487165 -0.0441884l4.8418 -0.492086l1.33776 -0.134624l0.133278 -0.0148818l6.04388 -0.614256l0.756125 -0.0852753l5.40969 -0.555315l1.39031 -0.158386l4.75751 -0.500378l2.04249 -0.233917l4.05239 -0.478332l2.74761 -0.305044l3.36018 -0.394159l3.43982 -0.379534l2.67564 -0.311921l4.12436 -0.452268l1.99864 -0.231566l4.80136 -0.523292l1.32906 -0.153048l5.47094 -0.59265l0.63897 -0.104415l3.00252 -0.645424l2.36496 -0.801571l0.793555 -0.326509l3.82028 -1.88174l2.97972 -1.76673l1.36246 -0.715919l2.1661 -1.37622l1.27876 -2.01281l1.99268 -2.93217l0.762874 -1.15313l0.544468 -0.77058l2.23574 -3.28982l2.59955 -3.57887l0.27197 -0.389291l0.385398 -0.515725l2.49858 -3.43986l1.95803 -2.52381l1.00801 -1.34888l1.33539 -1.67165l1.6738 -2.15745l1.40028 -1.69071l1.66388 -2.08287l2.06204 -2.41585v-2.36997h-340v48.7772l0.619457 -0.0706756"/>
</g>
<g stroke-width="0.5px" stroke="rgb(38,127,102)" fill="none">
<path d="M-254.381 -640.738l5.47547 -0.625714l0.633427 -0.0723736l0.0716499 -0.00819963l6.03722 -0.689909l0.762777 -0.0873066l5.34589 -0.611006l1.45411 -0.166463l4.65436 -0.532054l2.14564 -0.245667l3.96263 -0.453054l2.83737 -0.324921l3.75699 0.117202l3.04301 -0.136746l4.6876 1.07676l2.1124 0.136094l6.65673 1.85292l0.143273 0.0117108l0.376644 0.13301l6.42336 3.10181l4.41075 3.76688l2.38925 3.22562l1.88104 3.64307l0.526303 2.43166l1.75834 4.43703l0.839914 5.05616l0.582788 1.81253l1.21162 1.25306l0.987767 -0.255319l2.83969 -0.997744l0.893943 -2.0996l2.0786 -2.87206l0.534055 -1.35758l0.373488 -0.539449l1.91975 -4.01283l2.52236 -2.85585l0.553108 -0.906299l0.897236 -0.735801l2.43969 -2.76225l3.93361 -2.46433l0.235501 -0.193129l0.191198 -0.0741902l4.03363 -2.52699l2.76637 -0.868424l2.11344 -1.07116l4.68656 -1.23529l0.745204 -0.146762l6.0548 -0.604686l0.192082 0.0459765l6.60792 1.2929l1.96379 0.496702l4.83621 1.00313l4.02545 1.07935l2.77455 0.612301l6.45456 1.84135l0.345438 0.0814409l0.877671 0.267487l5.92233 1.93729l1.95583 0.0382906l4.84417 -0.0135153l1.78115 -0.162927l5.01885 -0.501483l1.17725 -0.108512l5.62275 -0.566166l0.56481 -0.0524632l5.62216 -0.570515l0.557464 -0.0561322l0.0555709 -0.00607627l6.12326 -0.621366l0.676738 -0.0745771l5.50131 -0.553653l1.29869 -0.142947l4.8958 -0.468684l1.9042 -0.20464l4.28298 -0.414369l2.51702 -0.2734l3.65817 -0.357717l3.14183 -0.344967l3.02103 -0.298616l3.77897 -0.419473l2.37117 -0.23695l4.42883 -0.497057l1.72073 -0.15995l5.07927 -0.529409l1.0989 -0.0987057l5.7011 -0.573724l0.487165 -0.0441884l4.8418 -0.492086l1.33776 -0.134624l0.133278 -0.0148818l6.04388 -0.614256l0.756125 -0.0852753l5.40969 -0.555315l1.39031 -0.158386l4.75751 -0.500378l2.04249 -0.233917l4.05239 -0.478332l2.74761 -0.305044l3.36018 -0.394159l3.43982 -0.379534l2.67564 -0.311921l4.12436 -0.452268l1.99864 -0.231566l4.80136 -0.523292l1.32906 -0.153048l5.47094 -0.59265l0.63897 -0.104415l3.00252 -0.645424l2.36496 -0.801571l0.793555 -0.326509l3.82028 -1.88174l2.97972 -1.76673l1.36246 -0.715919l2.1661 -1.37622l1.27876 -2.01281l1.99268 -2.93217l0.762874 -1.15313l0.544468 -0.77058l2.23574 -3.28982l2.59955 -3.57887l0.27197 -0.389291l0.385398 -0.515725l2.49858 -3.43986l1.95803 -2.52381l1.00801 -1.34888l1.33539 -1.67165l1.6738 -2.15745l1.40028 -1.69071l1.66388 -2.08287l2.06204 -2.41585l0 -2.36997l-340 0l0 48.7772l0.619457 -0.0706756"/>
</g>
<g fill-rule="evenodd" stroke="rgb(40,102,0)">
<path fill="rgb(40,102,0)" d="M85 -503.99v-136.211l-4.14962 1.51479l-2.65038 0.505292l-2.77401 0.884212l-4.02599 0.681165l-1.6403 0.463999l-5.1597 0.784669l-0.689834 0.175396l-5.04543 0.696802l-0.925411 0.140733l-0.139326 0.00631288l-5.85403 0.808475l-0.945965 0.0392556l-5.16925 0.652449l-1.63075 0.127854l-4.50488 0.543221l-2.29512 0.292599l-3.76322 0.456558l-3.03678 0.38953l-3.01342 0.367838l-3.78658 0.488708l-2.25537 0.277006l-4.54463 0.590193l-1.48891 0.184006l-5.31109 0.694045l-0.731165 0.0713549l-6.06883 0.536378l-0.1832 0.0171221l-2.24585 0.185051l-4.03821 0.336104l-0.332743 0.024047l-5.95748 0.490876l-0.842518 0.0602835l-5.45707 0.445181l-1.34293 0.0951441l-4.96577 0.401119l-1.83423 0.128687l-4.46862 0.373489l-2.33138 0.16906l-3.94993 0.354869l-2.85007 0.221692l-3.42882 0.304675l-3.37118 0.259383l-2.91812 0.256484l-3.88188 0.295474l-2.4175 0.210203l-4.3825 0.330039l-1.92667 0.165748l-4.87333 0.363148l-1.43513 0.133351l-5.36487 0.448679l-0.906293 0.0855039l-5.89371 0.505347l-0.371565 0.0347822l-4.41131 0.375318l-1.8593 0.159423l-0.157828 0.0121962l-6.11503 0.520272l-0.684972 0.0525256l-5.59535 0.472407l-1.20465 0.0916733l-5.74833 -0.246199l-1.05167 -0.067507l-2.09318 -0.994791l-4.70682 -2.0841l-3.27522 -1.2242l-3.52478 -1.46091l-6.00065 -2.09947l-0.799348 -0.262861l-0.354275 -0.0949927l-6.44572 -1.99946l-3.11332 -0.787453l-3.68668 -1.08225l-3.54852 0.64265l-3.25148 0.927586l-1.85056 0.787525l-2.67133 1.86926l-1.44032 0.846242l-0.83778 0.747851l-3.08483 2.1586l-2.82402 3.11599l-0.473073 0.422293l-0.41807 0.560982l-2.78469 3.07259l-1.60139 2.81282l-1.44314 0.980587l-0.970781 0.463013l-3.37353 2.01748l-3.42647 1.45932l-1.43103 0.502804l-5.36897 1.38777l-6.5857 -6.81097l-0.214299 -0.666491l-2.45785 -6.2022l-4.23539 -6.76085l-0.0556776 -0.107833l-0.0510769 -0.0625769l-0.400932 -0.342405l-6.39907 -5.73331l-1.16948 -0.730398l-5.63052 -2.77179l-3.78791 -1.05438l-3.01209 -1.22364l-5.17145 -0.173875l-1.62855 -0.169511l-4.79629 0.548457l-2.00371 0.228758l-4.10516 0.46935l-2.69484 0.307612l-3.41424 0.390292l-3.38576 0.386417l-2.72352 0.311283l-4.07648 0.465174l-2.03299 0.232322l-4.76701 0.543882v132.015h340"/>
</g>
<g stroke-width="0.5px" stroke="rgb(40,102,0)" fill="none">
<path d="M85 -503.99l1.42109e-14 -136.211l-4.14962 1.51479l-2.65038 0.505292l-2.77401 0.884212l-4.02599 0.681165l-1.6403 0.463999l-5.1597 0.784669l-0.689834 0.175396l-5.04543 0.696802l-0.925411 0.140733l-0.139326 0.00631288l-5.85403 0.808475l-0.945965 0.0392556l-5.16925 0.652449l-1.63075 0.127854l-4.50488 0.543221l-2.29512 0.292599l-3.76322 0.456558l-3.03678 0.38953l-3.01342 0.367838l-3.78658 0.488708l-2.25537 0.277006l-4.54463 0.590193l-1.48891 0.184006l-5.31109 0.694045l-0.731165 0.0713549l-6.06883 0.536378l-0.1832 0.0171221l-2.24585 0.185051l-4.03821 0.336104l-0.332743 0.024047l-5.95748 0.490876l-0.842518 0.0602835l-5.45707 0.445181l-1.34293 0.0951441l-4.96577 0.401119l-1.83423 0.128687l-4.46862 0.373489l-2.33138 0.16906l-3.94993 0.354869l-2.85007 0.221692l-3.42882 0.304675l-3.37118 0.259383l-2.91812 0.256484l-3.88188 0.295474l-2.4175 0.210203l-4.3825 0.330039l-1.92667 0.165748l-4.87333 0.363148l-1.43513 0.133351l-5.36487 0.448679l-0.906293 0.0855039l-5.89371 0.505347l-0.371565 0.0347822l-4.41131 0.375318l-1.8593 0.159423l-0.157828 0.0121962l-6.11503 0.520272l-0.684972 0.0525256l-5.59535 0.472407l-1.20465 0.0916733l-5.74833 -0.246199l-1.05167 -0.067507l-2.09318 -0.994791l-4.70682 -2.0841l-3.27522 -1.2242l-3.52478 -1.46091l-6.00065 -2.09947l-0.799348 -0.262861l-0.354275 -0.0949927l-6.44572 -1.99946l-3.11332 -0.787453l-3.68668 -1.08225l-3.54852 0.64265l-3.25148 0.927586l-1.85056 0.787525l-2.67133 1.86926l-1.44032 0.846242l-0.83778 0.747851l-3.08483 2.1586l-2.82402 3.11599l-0.473073 0.422293l-0.41807 0.560982l-2.78469 3.07259l-1.60139 2.81282l-1.44314 0.980587l-0.970781 0.463013l-3.37353 2.01748l-3.42647 1.45932l-1.43103 0.502804l-5.36897 1.38777l-6.5857 -6.81097l-0.214299 -0.666491l-2.45785 -6.2022l-4.23539 -6.76085l-0.0556776 -0.107833l-0.0510769 -0.0625769l-0.400932 -0.342405l-6.39907 -5.73331l-1.16948 -0.730398l-5.63052 -2.77179l-3.78791 -1.05438l-3.01209 -1.22364l-5.17145 -0.173875l-1.62855 -0.169511l-4.79629 0.548457l-2.00371 0.228758l-4.10516 0.46935l-2.69484 0.307612l-3.41424 0.390292l-3.38576 0.386417l-2.72352 0.311283l-4.07648 0.465174l-2.03299 0.232322l-4.76701 0.543882l0 132.015l340 0"/>
</g>
<g fill-rule="evenodd" stroke="rgb(40,102,0)">
<path fill="rgb(40,102,0)" d="M159.8 -337.924l1.38396 0.180686l5.41604 0.923774l1.92635 -0.375908l4.87365 -0.144969l1.52813 -0.257277l5.27187 -0.137891l1.21372 -0.179686l5.58628 -0.130382l0.9592 -0.126714l5.8408 -0.12307l0.620526 -0.219024l2.18264 -0.626794l3.07752 -0.928601l0.919315 -0.21918l3.1236 -2.56576l3.51282 -3.15515l-0.105132 -0.271429l-2.60682 -6.59726l-3.92447 -2.05511l-1.54314 0.49639l-5.25686 0.0878191l-0.931049 0.530451l-5.55061 0.940453l-0.176625 0.143144l-0.141713 0.0102074l-4.50141 2.16845l-2.29859 0.117788l-3.27397 1.12205l-3.52603 0.140224l-2.48169 0.660057l-4.31831 0.140311l-1.98573 0.360664l-4.81427 0.238648l-1.92541 -0.177719l-4.87459 1.50635l-0.499756 -0.0662988l-0.919257 0.504804l1.41901 0.733127l6.15838 6.13556l0.641617 1.21726"/>
</g>
<g stroke-width="0.5px" stroke="rgb(40,102,0)" fill="none">
<path d="M159.8 -337.924l1.38396 0.180686l5.41604 0.923774l1.92635 -0.375908l4.87365 -0.144969l1.52813 -0.257277l5.27187 -0.137891l1.21372 -0.179686l5.58628 -0.130382l0.9592 -0.126714l5.8408 -0.12307l0.620526 -0.219024l2.18264 -0.626794l3.07752 -0.928601l0.919315 -0.21918l3.1236 -2.56576l3.51282 -3.15515l-0.105132 -0.271429l-2.60682 -6.59726l-3.92447 -2.05511l-1.54314 0.49639l-5.25686 0.0878191l-0.931049 0.530451l-5.55061 0.940453l-0.176625 0.143144l-0.141713 0.0102074l-4.50141 2.16845l-2.29859 0.117788l-3.27397 1.12205l-3.52603 0.140224l-2.48169 0.660057l-4.31831 0.140311l-1.98573 0.360664l-4.81427 0.238648l-1.92541 -0.177719l-4.87459 1.50635l-0.499756 -0.0662988l-0.919257 0.504804l1.41901 0.733127l6.15838 6.13556l0.641617 1.21726"/>
</g>
<g fill-rule="evenodd" stroke="rgb(40,102,0)">
<path fill="rgb(40,102,0)" d="M105.4 -399.822l2.34108 1.22708l4.45892 1.94724l4.13394 2.55672l2.66606 2.0107l1.30722 -0.690279l1.97448 -1.32042l2.18994 -1.34178l1.32836 -1.01107l1.27432 -3.22865l0.577109 -1.28719l1.44919 -3.53474l1.55503 -3.33395l0.585447 -1.37264l1.35891 -2.79601l0.856047 -1.83534l0.456217 -0.864694l1.80698 -3.71794l1.73524 -3.15075l0.999322 -0.955747l0.94619 -0.779998l2.69831 -2.40738l3.52829 -2.72557l0.372103 -0.203326l0.201293 -0.0913275l4.31374 -2.21672l2.48626 -1.06461l2.20235 -1.06811l4.59765 -1.86392l0.305217 -0.0523756l2.3267 -0.3083l3.67016 -0.502955l0.497925 -0.0493375l5.68957 -0.56935l1.11043 -0.0742995l5.12359 -0.497399l1.67641 -0.108917l4.58764 -0.432452l2.21236 -0.139687l4.07938 -0.373704l2.72062 -0.167069l4.16302 0.251555l2.63698 0.0680662l6.70268 2.49725l0.097318 0.0238943l0.166525 0.0744067l6.63348 3.70163l3.91279 3.16706l2.88721 4.59784l1.37467 2.27085l1.65822 3.06352l1.55698 3.80517l2.21014 3.1545l3.68803 3.71418l3.11197 2.21332l4.5086 2.34081l2.2914 1.22625l2.04856 1.0883l4.75144 2.62775l6.32245 3.75856l0.477555 0.275406l0.333877 0.206973l6.46612 4.18751l3.87036 2.68117l2.92964 1.55013l1.81013 0.278287l4.98987 1.50438l2.84102 -0.463078l3.95898 -0.704492l1.84247 -0.304145l4.95753 -0.89357l0.821804 -0.13741l4.54596 -0.830105l1.17166 -0.2632l0.260568 -0.0252783l5.43137 -1.09398l1.36863 -0.120336l4.49913 -0.821316l2.30087 -0.184974l3.92855 -0.39137l2.87145 -0.204632l3.50301 -0.22521l3.29699 -0.224059l3.08422 -0.198962l3.71578 -0.253384l2.66273 -0.172361l4.13727 -0.283096l2.23852 -0.145399l4.56148 -0.313199l1.87804 -0.0509233l4.92196 -0.315126l2.1884 0.628627l4.6116 -0.0480462l3.57695 1.45062l3.22305 -0.0570891l4.80465 3.3127l1.99535 0.45954l0.52983 0.0756418l6.27017 1.32889l2.12134 0.278703l4.67866 0.918345l4.31326 1.29572l2.48674 0.679043l3.98037 1.83281l2.81963 1.49353l4.54598 3.09836l2.25402 1.40521l1.08653 0.871579l5.71347 5.56853l1.09091 1.30015l2.16863 3.29247l2.53817 3.57622l1.00229 1.79899l2.44732 5.0697l4.35268 4.85931v-57.0507l-3.81607 0.255945l-2.98393 0.546415l-3.05072 0.226657l-3.74928 0.769462l-2.11464 0.176079l-4.68536 1.09362l-0.943496 0.0893505l-3.52232 0.953027l-1.89605 0.442561l-0.438135 0.188994l-4.87022 1.31772l-1.92978 0.990026l-3.99072 -0.101644l-2.80928 1.12773l-6.0192 -3.96539l-0.7808 -1.41418l-1.52441 -5.45451l0.266143 -1.27097l-1.04727 -5.59771l0.285961 -2.03997l-0.678954 -4.82872l0.707289 -2.01135l1.67958 -4.85734l0.117035 -0.196589l0.194623 -0.1782l2.93488 -3.52938l3.86512 -2.75604l0.134691 -0.0724259l0.297963 -0.136051l4.31089 -2.07723l2.05646 -0.830127l3.06737 -0.862972l3.73263 -1.43186l1.26854 -0.38515l3.07577 -1.28135l1.77978 -0.682734l0.675907 -0.340293l4.09734 -1.70693l2.70266 -1.48871l1.80778 -0.823974l3.00316 -1.82605l1.28715 -0.709001l0.701911 -0.50043l3.49738 -2.12655l3.30262 -2.62751v-48.986h-340v98.6307l3.26521 0.829134l3.53479 0.585231l5.34541 1.51598l1.45459 0.272694l3.72616 1.19659l3.07384 1.13765"/>
</g>
<g stroke-width="0.5px" stroke="rgb(40,102,0)" fill="none">
<path d="M105.4 -399.822l2.34108 1.22708l4.45892 1.94724l4.13394 2.55672l2.66606 2.0107l1.30722 -0.690279l1.97448 -1.32042l2.18994 -1.34178l1.32836 -1.01107l1.27432 -3.22865l0.577109 -1.28719l1.44919 -3.53474l1.55503 -3.33395l0.585447 -1.37264l1.35891 -2.79601l0.856047 -1.83534l0.456217 -0.864694l1.80698 -3.71794l1.73524 -3.15075l0.999322 -0.955747l0.94619 -0.779998l2.69831 -2.40738l3.52829 -2.72557l0.372103 -0.203326l0.201293 -0.0913275l4.31374 -2.21672l2.48626 -1.06461l2.20235 -1.06811l4.59765 -1.86392l0.305217 -0.0523756l2.3267 -0.3083l3.67016 -0.502955l0.497925 -0.0493375l5.68957 -0.56935l1.11043 -0.0742995l5.12359 -0.497399l1.67641 -0.108917l4.58764 -0.432452l2.21236 -0.139687l4.07938 -0.373704l2.72062 -0.167069l4.16302 0.251555l2.63698 0.0680662l6.70268 2.49725l0.097318 0.0238943l0.166525 0.0744067l6.63348 3.70163l3.91279 3.16706l2.88721 4.59784l1.37467 2.27085l1.65822 3.06352l1.55698 3.80517l2.21014 3.1545l3.68803 3.71418l3.11197 2.21332l4.5086 2.34081l2.2914 1.22625l2.04856 1.0883l4.75144 2.62775l6.32245 3.75856l0.477555 0.275406l0.333877 0.206973l6.46612 4.18751l3.87036 2.68117l2.92964 1.55013l1.81013 0.278287l4.98987 1.50438l2.84102 -0.463078l3.95898 -0.704492l1.84247 -0.304145l4.95753 -0.89357l0.821804 -0.13741l4.54596 -0.830105l1.17166 -0.2632l0.260568 -0.0252783l5.43137 -1.09398l1.36863 -0.120336l4.49913 -0.821316l2.30087 -0.184974l3.92855 -0.39137l2.87145 -0.204632l3.50301 -0.22521l3.29699 -0.224059l3.08422 -0.198962l3.71578 -0.253384l2.66273 -0.172361l4.13727 -0.283096l2.23852 -0.145399l4.56148 -0.313199l1.87804 -0.0509233l4.92196 -0.315126l2.1884 0.628627l4.6116 -0.0480462l3.57695 1.45062l3.22305 -0.0570891l4.80465 3.3127l1.99535 0.45954l0.52983 0.0756418l6.27017 1.32889l2.12134 0.278703l4.67866 0.918345l4.31326 1.29572l2.48674 0.679043l3.98037 1.83281l2.81963 1.49353l4.54598 3.09836l2.25402 1.40521l1.08653 0.871579l5.71347 5.56853l1.09091 1.30015l2.16863 3.29247l2.53817 3.57622l1.00229 1.79899l2.44732 5.0697l4.35268 4.85931l0 -57.0507l-3.81607 0.255945l-2.98393 0.546415l-3.05072 0.226657l-3.74928 0.769462l-2.11464 0.176079l-4.68536 1.09362l-0.943496 0.0893505l-3.52232 0.953027l-1.89605 0.442561l-0.438135 0.188994l-4.87022 1.31772l-1.92978 0.990026l-3.99072 -0.101644l-2.80928 1.12773l-6.0192 -3.96539l-0.7808 -1.41418l-1.52441 -5.45451l0.266143 -1.27097l-1.04727 -5.59771l0.285961 -2.03997l-0.678954 -4.82872l0.707289 -2.01135l1.67958 -4.85734l0.117035 -0.196589l0.194623 -0.1782l2.93488 -3.52938l3.86512 -2.75604l0.134691 -0.0724259l0.297963 -0.136051l4.31089 -2.07723l2.05646 -0.830127l3.06737 -0.862972l3.73263 -1.43186l1.26854 -0.38515l3.07577 -1.28135l1.77978 -0.682734l0.675907 -0.340293l4.09734 -1.70693l2.70266 -1.48871l1.80778 -0.823974l3.00316 -1.82605l1.28715 -0.709001l0.701911 -0.50043l3.49738 -2.12655l3.30262 -2.62751l0 -48.986l-340 0l0 98.6307l3.26521 0.829134l3.53479 0.585231l5.34541 1.51598l1.45459 0.272694l3.72616 1.19659l3.07384 1.13765"/>
</g>
<g fill-rule="evenodd" stroke="rgb(45,114,0)">
<path fill="rgb(45,114,0)" d="M425 -311.667v-36.3528l-4.35268 -4.85931l-2.44732 -5.0697l-1.00229 -1.79899l-2.53817 -3.57622l-2.16863 -3.29247l-1.09091 -1.30015l-5.71347 -5.56853l-1.08653 -0.871579l-2.25402 -1.40521l-4.54598 -3.09836l-2.81963 -1.49353l-3.98037 -1.83281l-2.48674 -0.679043l-4.31326 -1.29572l-4.67866 -0.918345l-2.12134 -0.278703l-6.27017 -1.32889l-0.52983 -0.0756418l-1.99535 -0.45954l-4.80465 -3.3127l-3.22305 0.0570891l-3.57695 -1.45062l-4.6116 0.0480462l-2.1884 -0.628627l-4.92196 0.315126l-1.87804 0.0509233l-4.56148 0.313199l-2.23852 0.145399l-4.13727 0.283096l-2.66273 0.172361l-3.71578 0.253384l-3.08422 0.198962l-3.29699 0.224059l-3.50301 0.22521l-2.87145 0.204632l-3.92855 0.39137l-2.30087 0.184974l-4.49913 0.821316l-1.36863 0.120336l-5.43137 1.09398l-0.260568 0.0252783l-1.17166 0.2632l-4.54596 0.830105l-0.821804 0.13741l-4.95753 0.89357l-1.84247 0.304145l-3.95898 0.704492l-2.84102 0.463078l-4.98987 -1.50438l-1.81013 -0.278287l-2.92964 -1.55013l-3.87036 -2.68117l-6.46612 -4.18751l-0.333877 -0.206973l-0.477555 -0.275406l-6.32245 -3.75856l-4.75144 -2.62775l-2.04856 -1.0883l-2.2914 -1.22625l-4.5086 -2.34081l-3.11197 -2.21332l-3.68803 -3.71418l-2.21014 -3.1545l-1.55698 -3.80517l-1.65822 -3.06352l-1.37467 -2.27085l-2.88721 -4.59784l-3.91279 -3.16706l-6.63348 -3.70163l-0.166525 -0.0744067l-0.097318 -0.0238943l-6.70268 -2.49725l-2.63698 -0.0680662l-4.16302 -0.251555l-2.72062 0.167069l-4.07938 0.373704l-2.21236 0.139687l-4.58764 0.432452l-1.67641 0.108917l-5.12359 0.497399l-1.11043 0.0742995l-5.68957 0.56935l-0.497925 0.0493375l-3.67016 0.502955l-2.3267 0.3083l-0.305217 0.0523756l-4.59765 1.86392l-2.20235 1.06811l-2.48626 1.06461l-4.31374 2.21672l-0.201293 0.0913275l-0.372103 0.203326l-3.52829 2.72557l-2.69831 2.40738l-0.94619 0.779998l-0.999322 0.955747l-1.73524 3.15075l-1.80698 3.71794l-0.456217 0.864694l-0.856047 1.83534l-1.35891 2.79601l-0.585447 1.37264l-1.55503 3.33395l-1.44919 3.53474l-0.577109 1.28719l-1.27432 3.22865l-1.32836 1.01107l-2.18994 1.34178l-1.97448 1.32042l-1.30722 0.690279l-2.66606 -2.0107l-4.13394 -2.55672l-4.45892 -1.94724l-2.34108 -1.22708l-3.07384 -1.13765l-3.72616 -1.19659l-1.45459 -0.272694l-5.34541 -1.51598l-3.53479 -0.585231l-3.26521 -0.829134v93.6926h340z
M159.158 -339.141L153 -345.277L151.581 -346.01L152.5 -346.515L153 -346.449L157.875 -347.955L159.8 -347.777L164.614 -348.016L166.6 -348.377L170.918 -348.517L173.4 -349.177L176.926 -349.317L180.2 -350.439L182.499 -350.557L187 -352.725L187.142 -352.736L187.318 -352.879L192.869 -353.819L193.8 -354.35L199.057 -354.438L200.6 -354.934L204.524 -352.879L207.131 -346.282L207.236 -346.01L203.724 -342.855L200.6 -340.289L199.681 -340.07L196.603 -339.141L194.421 -338.515L193.8 -338.296L187.959 -338.173L187 -338.046L181.414 -337.915L180.2 -337.736L174.928 -337.598L173.4 -337.341L168.526 -337.196L166.6 -336.82L161.184 -337.743L159.8 -337.924L159.158 -339.141"/>
</g>
<g stroke-width="0.5px" stroke="rgb(45,114,0)" fill="none">
<path d="M425 -311.667l0 -36.3528l-4.35268 -4.85931l-2.44732 -5.0697l-1.00229 -1.79899l-2.53817 -3.57622l-2.16863 -3.29247l-1.09091 -1.30015l-5.71347 -5.56853l-1.08653 -0.871579l-2.25402 -1.40521l-4.54598 -3.09836l-2.81963 -1.49353l-3.98037 -1.83281l-2.48674 -0.679043l-4.31326 -1.29572l-4.67866 -0.918345l-2.12134 -0.278703l-6.27017 -1.32889l-0.52983 -0.0756418l-1.99535 -0.45954l-4.80465 -3.3127l-3.22305 0.0570891l-3.57695 -1.45062l-4.6116 0.0480462l-2.1884 -0.628627l-4.92196 0.315126l-1.87804 0.0509233l-4.56148 0.313199l-2.23852 0.145399l-4.13727 0.283096l-2.66273 0.172361l-3.71578 0.253384l-3.08422 0.198962l-3.29699 0.224059l-3.50301 0.22521l-2.87145 0.204632l-3.92855 0.39137l-2.30087 0.184974l-4.49913 0.821316l-1.36863 0.120336l-5.43137 1.09398l-0.260568 0.0252783l-1.17166 0.2632l-4.54596 0.830105l-0.821804 0.13741l-4.95753 0.89357l-1.84247 0.304145l-3.95898 0.704492l-2.84102 0.463078l-4.98987 -1.50438l-1.81013 -0.278287l-2.92964 -1.55013l-3.87036 -2.68117l-6.46612 -4.18751l-0.333877 -0.206973l-0.477555 -0.275406l-6.32245 -3.75856l-4.75144 -2.62775l-2.04856 -1.0883l-2.2914 -1.22625l-4.5086 -2.34081l-3.11197 -2.21332l-3.68803 -3.71418l-2.21014 -3.1545l-1.55698 -3.80517l-1.65822 -3.06352l-1.37467 -2.27085l-2.88721 -4.59784l-3.91279 -3.16706l-6.63348 -3.70163l-0.166525 -0.0744067l-0.097318 -0.0238943l-6.70268 -2.49725l-2.63698 -0.0680662l-4.16302 -0.251555l-2.72062 0.167069l-4.07938 0.373704l-2.21236 0.139687l-4.58764 0.432452l-1.67641 0.108917l-5.12359 0.497399l-1.11043 0.0742995l-5.68957 0.56935l-0.497925 0.0493375l-3.67016 0.502955l-2.3267 0.3083l-0.305217 0.0523756l-4.59765 1.86392l-2.20235 1.06811l-2.48626 1.06461l-4.31374 2.21672l-0.201293 0.0913275l-0.372103 0.203326l-3.52829 2.72557l-2.69831 2.40738l-0.94619 0.779998l-0.999322 0.955747l-1.73524 3.15075l-1.80698 3.71794l-0.456217 0.864694l-0.856047 1.83534l-1.35891 2.79601l-0.585447 1.37264l-1.55503 3.33395l-1.44919 3.53474l-0.577109 1.28719l-1.27432 3.22865l-1.32836 1.01107l-2.18994 1.34178l-1.97448 1.32042l-1.30722 0.690279l-2.66606 -2.0107l-4.13394 -2.55672l-4.45892 -1.94724l-2.34108 -1.22708l-3.07384 -1.13765l-3.72616 -1.19659l-1.45459 -0.272694l-5.34541 -1.51598l-3.53479 -0.585231l-3.26521 -0.829134l0 93.6926l340 0"/>
<path d="M159.158 -339.141l-6.15838 -6.13556l-1.41901 -0.733127l0.919257 -0.504804l0.499756 0.0662988l4.87459 -1.50635l1.92541 0.177719l4.81427 -0.238648l1.98573 -0.360664l4.31831 -0.140311l2.48169 -0.660057l3.52603 -0.140224l3.27397 -1.12205l2.29859 -0.117788l4.50141 -2.16845l0.141713 -0.0102074l0.176625 -0.143144l5.55061 -0.940453l0.931049 -0.530451l5.25686 -0.0878191l1.54314 -0.49639l3.92447 2.05511l2.60682 6.59726l0.105132 0.271429l-3.51282 3.15515l-3.1236 2.56576l-0.919315 0.21918l-3.07752 0.928601l-2.18264 0.626794l-0.620526 0.219024l-5.8408 0.12307l-0.9592 0.126714l-5.58628 0.130382l-1.21372 0.179686l-5.27187 0.137891l-1.52813 0.257277l-4.87365 0.144969l-1.92635 0.375908l-5.41604 -0.923774l-1.38396 -0.180686l-0.641617 -1.21726"/>
</g>
<g fill-rule="evenodd" stroke="rgb(45,114,0)">
<path fill="rgb(45,114,0)" d="M384.2 -396.994l2.80928 -1.12773l3.99072 0.101644l1.92978 -0.990026l4.87022 -1.31772l0.438135 -0.188994l1.89605 -0.442561l3.52232 -0.953027l0.943496 -0.0893505l4.68536 -1.09362l2.11464 -0.176079l3.74928 -0.769462l3.05072 -0.226657l2.98393 -0.546415l3.81607 -0.255945v-49.9337l-3.30262 2.62751l-3.49738 2.12655l-0.701911 0.50043l-1.28715 0.709001l-3.00316 1.82605l-1.80778 0.823974l-2.70266 1.48871l-4.09734 1.70693l-0.675907 0.340293l-1.77978 0.682734l-3.07577 1.28135l-1.26854 0.38515l-3.73263 1.43186l-3.06737 0.862972l-2.05646 0.830127l-4.31089 2.07723l-0.297963 0.136051l-0.134691 0.0724259l-3.86512 2.75604l-2.93488 3.52938l-0.194623 0.1782l-0.117035 0.196589l-1.67958 4.85734l-0.707289 2.01135l0.678954 4.82872l-0.285961 2.03997l1.04727 5.59771l-0.266143 1.27097l1.52441 5.45451l0.7808 1.41418l6.0192 3.96539"/>
</g>
<g stroke-width="0.5px" stroke="rgb(45,114,0)" fill="none">
<path d="M384.2 -396.994l2.80928 -1.12773l3.99072 0.101644l1.92978 -0.990026l4.87022 -1.31772l0.438135 -0.188994l1.89605 -0.442561l3.52232 -0.953027l0.943496 -0.0893505l4.68536 -1.09362l2.11464 -0.176079l3.74928 -0.769462l3.05072 -0.226657l2.98393 -0.546415l3.81607 -0.255945l0 -49.9337l-3.30262 2.62751l-3.49738 2.12655l-0.701911 0.50043l-1.28715 0.709001l-3.00316 1.82605l-1.80778 0.823974l-2.70266 1.48871l-4.09734 1.70693l-0.675907 0.340293l-1.77978 0.682734l-3.07577 1.28135l-1.26854 0.38515l-3.73263 1.43186l-3.06737 0.862972l-2.05646 0.830127l-4.31089 2.07723l-0.297963 0.136051l-0.134691 0.0724259l-3.86512 2.75604l-2.93488 3.52938l-0.194623 0.1782l-0.117035 0.196589l-1.67958 4.85734l-0.707289 2.01135l0.678954 4.82872l-0.285961 2.03997l1.04727 5.59771l-0.266143 1.27097l1.52441 5.45451l0.7808 1.41418l6.0192 3.96539"/>
</g>
<g fill-rule="evenodd" stroke="rgb(38,127,102)">
<path fill="rgb(38,127,102)" d="M119 -611.148l2.24273 -0.47522l4.55727 -0.682666l0.787929 -0.786831l0.688404 -0.795888l-1.47633 -3.85826l-5.97425 -2.17633l-0.825755 -0.301275l-3.04823 3.25685l-1.37572 3.07902l4.42394 2.74061"/>
</g>
<g stroke-width="0.5px" stroke="rgb(38,127,102)" fill="none">
<path d="M119 -611.148l2.24273 -0.47522l4.55727 -0.682666l0.787929 -0.786831l0.688404 -0.795888l-1.47633 -3.85826l-5.97425 -2.17633l-0.825755 -0.301275l-3.04823 3.25685l-1.37572 3.07902l4.42394 2.74061"/>
</g>
<g fill-rule="evenodd" stroke="rgb(38,127,102)">
<path fill="rgb(38,127,102)" d="M86.592 -687.836l5.20798 -0.891966l0.515256 -0.195679l3.66611 -0.52046h-10.9814v2.36997l1.59202 -0.761867"/>
</g>
<g stroke-width="0.5px" stroke="rgb(38,127,102)" fill="none">
<path d="M86.592 -687.836l5.20798 -0.891966l0.515256 -0.195679l3.66611 -0.52046l-10.9814 0l0 2.36997l1.59202 -0.761867"/>
</g>
<g fill-rule="evenodd" stroke="rgb(38,127,102)">
<path fill="rgb(38,127,102)" d="M193.8 -647.902l0.348579 0.0219937l6.45142 0.74778l0.974717 -0.115317l4.00003 -0.984563l1.11745 -0.714952l0.707802 -0.589371l3.22628 -2.3055l3.45621 -3.25887l-6.68249 -6.16048l-0.868394 -0.70821l-5.93161 -4.37668l-3.79838 0.539934l-3.00162 0.93629l-1.78728 1.09513l-1.46734 1.80533l-1.88357 1.6786l-1.66181 2.68343l-1.11882 1.37653l-0.433519 1.13012l1.55234 1.59035l5.70406 5.27833l1.09594 0.330107"/>
</g>
<g stroke-width="0.5px" stroke="rgb(38,127,102)" fill="none">
<path d="M193.8 -647.902l0.348579 0.0219937l6.45142 0.74778l0.974717 -0.115317l4.00003 -0.984563l1.11745 -0.714952l0.707802 -0.589371l3.22628 -2.3055l3.45621 -3.25887l-6.68249 -6.16048l-0.868394 -0.70821l-5.93161 -4.37668l-3.79838 0.539934l-3.00162 0.93629l-1.78728 1.09513l-1.46734 1.80533l-1.88357 1.6786l-1.66181 2.68343l-1.11882 1.37653l-0.433519 1.13012l1.55234 1.59035l5.70406 5.27833l1.09594 0.330107"/>
</g>
<g fill-rule="evenodd" stroke="rgb(40,102,0)">
<path fill="rgb(40,102,0)" d="M425 -503.99v-185.455h-263.484l-0.512387 1.21622l-1.20406 -0.0358171l-2.61752 3.04433l-3.11059 2.64395l-0.540508 0.53675l-0.531382 0.37434l-3.20286 2.72238l-3.59714 2.21496l-0.581991 0.432391l-1.07493 0.58787l-3.19525 1.96749l-1.94782 0.845196l-2.60502 1.42466l-4.19498 1.63718l-0.661901 0.325574l-1.88546 0.668587l-3.06747 1.19714l-1.18517 0.310849l-3.81517 1.50699l-2.98483 1.26844l-1.78722 0.779994l-2.90784 1.80527l-1.36231 0.750135l-0.742634 0.556673l-3.41025 2.11718l-3.38975 2.91216l-0.309319 0.22009l-0.310548 0.312443l-1.49073 4.73677l-1.65625 2.13192l3.76685 5.20337l5.60272 0.455945l1.19728 0.723166l6.54938 0.233051l0.25062 0.0968664l0.432532 0.156286l6.36747 2.30274l3.67552 4.56594l2.94941 6.69185l0.104065 0.176838l0.071005 0.220374l1.68807 6.64831l0.078655 1.78457l1.06514 5.08411l-1.26312 1.5846l-1.56876 1.68943l-1.6594 1.91849l-1.6785 1.67616l-1.67562 1.80451l-1.78647 1.65275l-2.8165 0.566471l-3.9835 1.05949l-3.24714 -1.49448l-3.55286 -1.26956l-4.2446 -2.31919l-2.5554 -1.71773l-5.69305 -5.15096l-0.341769 -6.09577l0.20241 -0.772914l-0.479127 -6.37528l0.195905 -0.493402l-0.684373 -6.00618l-0.20312 -0.86251l-6.59688 -5.10748l-4.81019 0.248703l-1.98981 -0.84755v136.211h340z
M170.673 -655.101L170.408 -658.123L171.155 -661.97L170.859 -664.536L172.074 -668.838L171.804 -670.451L173.4 -673.535L173.877 -675.225L174.524 -675.707L176.473 -679.472L180.2 -679.936L181.704 -681.057L187 -681.465L187.755 -681.813L193.8 -682.151L194.215 -682.157L200.6 -681.408L203.114 -680.037L207.4 -677.909L211.052 -675.707L214.2 -673.586L220.189 -668.838L221 -668.11L226.944 -661.97L227.8 -660.949L232.14 -655.101L230.437 -652.437L227.8 -649.535L227.232 -648.806L226.616 -648.232L222.514 -646.703L221 -646.445L217.175 -645.228L214.2 -644.786L211.542 -644.048L207.4 -643.502L205.697 -643.083L200.6 -642.48L199.351 -642.625L193.8 -642.975L191.526 -643.66L187 -644.49L182.254 -646.157L180.2 -646.609L176.347 -648.232L173.4 -651.625L170.673 -655.101z
M349.19 -600.152L348.426 -601.944L346.322 -607.02L343.4 -613.721L343.335 -613.889L343.344 -613.946L343.4 -614.28L344.437 -619.71L344.659 -620.758L345.568 -625.437L346.039 -627.626L346.732 -631.129L347.47 -634.495L347.931 -636.787L348.953 -641.364L349.167 -642.407L350.2 -646.946L351.752 -646.664L357 -647.317L358.203 -647.018L363.8 -648.121L363.98 -648.05L364.363 -648.232L369.657 -649.184L370.6 -649.618L375.049 -650.607L377.4 -652.022L379.767 -652.71L382.512 -655.101L383.847 -655.458L384.2 -655.508L386.201 -655.101L384.649 -654.648L386.146 -648.232L384.848 -647.578L384.2 -643.072L381.922 -643.664L380.92 -641.364L378.597 -640.154L377.61 -634.495L377.519 -634.375L377.4 -633.288L376.561 -628.474L376.783 -627.626L376.17 -622L376.407 -620.758L375.976 -615.327L376.192 -613.889L374.793 -609.654L372.278 -607.02L371.725 -605.884L370.6 -605.263L368.116 -602.661L363.8 -601.062L363.268 -600.689L361.341 -600.152L358.165 -598.975L357 -598.941L352.609 -597.718L350.2 -597.662L349.19 -600.152"/>
</g>
<g stroke-width="0.5px" stroke="rgb(40,102,0)" fill="none">
<path d="M425 -503.99l0 -185.455l-263.484 -1.13687e-13l-0.512387 1.21622l-1.20406 -0.0358171l-2.61752 3.04433l-3.11059 2.64395l-0.540508 0.53675l-0.531382 0.37434l-3.20286 2.72238l-3.59714 2.21496l-0.581991 0.432391l-1.07493 0.58787l-3.19525 1.96749l-1.94782 0.845196l-2.60502 1.42466l-4.19498 1.63718l-0.661901 0.325574l-1.88546 0.668587l-3.06747 1.19714l-1.18517 0.310849l-3.81517 1.50699l-2.98483 1.26844l-1.78722 0.779994l-2.90784 1.80527l-1.36231 0.750135l-0.742634 0.556673l-3.41025 2.11718l-3.38975 2.91216l-0.309319 0.22009l-0.310548 0.312443l-1.49073 4.73677l-1.65625 2.13192l3.76685 5.20337l5.60272 0.455945l1.19728 0.723166l6.54938 0.233051l0.25062 0.0968664l0.432532 0.156286l6.36747 2.30274l3.67552 4.56594l2.94941 6.69185l0.104065 0.176838l0.071005 0.220374l1.68807 6.64831l0.078655 1.78457l1.06514 5.08411l-1.26312 1.5846l-1.56876 1.68943l-1.6594 1.91849l-1.6785 1.67616l-1.67562 1.80451l-1.78647 1.65275l-2.8165 0.566471l-3.9835 1.05949l-3.24714 -1.49448l-3.55286 -1.26956l-4.2446 -2.31919l-2.5554 -1.71773l-5.69305 -5.15096l-0.341769 -6.09577l0.20241 -0.772914l-0.479127 -6.37528l0.195905 -0.493402l-0.684373 -6.00618l-0.20312 -0.86251l-6.59688 -5.10748l-4.81019 0.248703l-1.98981 -0.84755l-1.42109e-14 136.211l340 0"/>
<path d="M170.673 -655.101l-0.265252 -3.02227l0.746726 -3.84642l-0.295645 -2.56663l1.21472 -4.30206l-0.270152 -1.61253l1.5964 -3.08453l0.477101 -1.68971l0.646825 -0.48192l1.94863 -3.7651l3.72745 -0.46389l1.50397 -1.12054l5.29603 -0.408266l0.754884 -0.348384l6.04512 -0.33755l0.414853 -0.00591521l6.38515 0.748937l2.51356 1.37097l4.28644 2.12826l3.65177 2.20148l3.14823 2.12124l5.98936 4.74744l0.81064 0.728242l5.94393 6.14045l0.856071 1.02046l4.34016 5.84822l-1.70313 2.66367l-2.63703 2.90221l-0.568288 0.728781l-0.615482 0.574029l-4.10206 1.52947l-1.51417 0.257854l-3.82534 1.21738l-2.97466 0.441849l-2.65758 0.737704l-4.14242 0.545601l-1.70256 0.419067l-5.09744 0.60307l-1.24883 -0.144751l-5.55117 -0.350252l-2.27354 -0.684809l-4.52646 -0.830266l-4.74582 -1.66699l-2.05418 -0.451865l-3.853 -1.62306l-2.947 -3.39296l-2.72679 -3.47572"/>
<path d="M349.19 -600.152l-0.764807 -1.79231l-2.10381 -5.07637l-2.9218 -6.70107l-0.0645163 -0.167618l0.00810881 -0.0569773l0.0564075 -0.334285l1.0369 -5.43005l0.221621 -1.04738l0.909127 -4.67914l0.471542 -2.18955l0.692738 -3.5031l0.737941 -3.36559l0.461383 -2.29166l1.02207 -4.57702l0.213903 -1.0432l1.03277 -4.53963l1.55228 0.282103l5.24772 -0.652498l1.20263 0.299315l5.59737 -1.10383l0.180302 0.0711712l0.38232 -0.182123l5.29488 -0.952024l0.942503 -0.433827l4.44932 -0.988572l2.35068 -1.41572l2.36663 -0.688011l2.74501 -2.39053l1.33513 -0.356802l0.353234 -0.0498264l2.00084 0.406628l-1.55187 0.453501l1.49712 6.41519l-1.29813 0.654499l-0.647954 4.50608l-2.2776 -0.592506l-1.00269 2.30061l-2.32246 1.20934l-0.986779 5.65934l-0.0919664 0.119701l-0.118504 1.08738l-0.839344 4.81378l0.222336 0.847822l-0.613141 5.62611l0.236991 1.24258l-0.430441 5.43071l0.215492 1.43798l-1.39925 4.235l-2.51467 2.63369l-0.552997 1.13635l-1.12498 0.621056l-2.4843 2.60189l-4.3157 1.59866l-0.531706 0.373659l-1.92689 0.537076l-3.1765 1.17667l-1.1649 0.0333972l-4.39052 1.22376l-2.40948 0.0553713l-1.00958 -2.48919"/>
</g>
</g>
</g>
</g>
<g inkscape:groupmode="layer" inkscape:label="Coastline" id="Coastline"><title>Coastline</title>
<g>
<g id="drawing" transform="translate(255,311.667)">
<g stroke-width="0.5px" stroke="rgb(0,0,0)" fill="none">
<path d="M326.556 -336.898l-6.38132 4.02182l0.68767 1.76847l0.295273 0.759414l-9.68106 3.8366l-4.62335 -1.22575l-2.2065 -3.79268l4.48718 -0.347495l0.66766 -0.0517339l1.3646 -2.278l6.80251 0.127382l8.58733 -2.81803"/>
<path d="M223.833 -337.214l5.16314 3.18261l7.35109 -0.538081l7.02848 0.670344l-0.22841 1.64353l5.14703 -1.13326l-1.18061 2.78606l-13.6001 0.802851l0.0946827 -1.55836l-11.5225 -1.84168l1.74724 -4.01401"/>
<path d="M146.581 -361.072l-3.40126 7.43381l1.41341 2.92613l-1.98248 4.85664l-7.22273 -3.55719l-4.80246 -1.01906l-13.1819 -4.80173l1.32165 -4.84907l11.052 0.86337l9.63421 -1.02858l7.16953 -0.824325"/>
<path d="M86.9834 -389.205l5.66632 6.70539l-1.32653 12.4915l-4.2944 -0.595915l-3.85222 3.15308l-3.57598 -2.50494l-0.378243 -11.3944l-2.15574 -5.39935l5.19437 0.472437l4.72242 -2.92784"/>
<path d="M90.289 -398.107l-3.11916 7.29569l-4.28805 -1.92294l-2.18649 -6.35521l1.90586 -3.5096l6.08214 -3.60648l1.6057 8.09854"/>
<path d="M-64.117 -493.568l-16.7427 5.57994l-13.3683 -1.42756l7.65759 -9.86164l-4.93229 -9.60249l12.8495 -7.39648l7.1383 -4.41153l7.91748 -0.389468l10.1235 5.83909l-5.06162 6.48869l1.55738 6.74712l-7.13878 8.43433"/>
<path d="M119.85 -525.205l-5.66681 7.64978l-9.88312 -5.33469l-1.31873 -3.9203l13.8549 -3.13039l3.01374 4.7356"/>
<path d="M-28.3806 -553.775l-10.0944 10.2187l9.62225 -1.29383l10.3485 0.0492936l-2.46224 7.69517l-8.4907 8.46434l9.7655 0.602504l9.16128 12.1362l6.46478 1.51688l5.81274 10.7606l2.69162 3.73069l11.4425 1.79897l-1.14791 6.03993l-4.81125 2.76947l3.7712 4.88592l-8.49558 4.94595l-12.6353 -0.0873619l-16.079 2.59694l-4.40372 -1.85925l-6.24442 4.42495l-8.73668 -1.07177l-6.63487 3.60624l-5.02014 -1.88585l13.851 -9.91972l8.45409 -2.04007l-14.8232 -1.58154l-2.6721 -3.75827l9.86896 -2.92736l-5.17241 -5.08724l1.79458 -6.1861l14.0526 0.855317l1.38901 -5.48306l-6.46942 -5.95012l-11.4671 -1.66183l-2.25115 -2.55595l3.43225 -4.22046l-3.10598 -2.60207l-5.08505 4.46571l-0.553455 -9.10321l-4.76928 -4.81662l3.42981 -9.76403l7.33669 -7.661l7.54143 0.747701l11.3946 -0.794798"/>
<path d="M-137.027 -627.639l-2.18112 6.11192l10.6713 6.44184l-12.2787 7.20223l-27.2435 6.47259l-8.1393 1.72235l-12.4337 -1.39071l-26.3521 -2.98958l9.29794 -4.17385l-20.5564 -4.61847l16.7227 -1.8307l-0.406306 -2.77313l-19.8216 -2.19674l6.38132 -6.15145l14.3139 -1.3973l14.7205 6.4067l14.3503 -5.14239l11.8832 2.67039l15.402 -5.03331l15.6695 0.669612"/>
<path d="M-81.7644 -313.936l9.475 -4.3141l7.00494 -3.90425l6.31032 -9.77878l2.96868 -5.80075l6.95306 0.0449626l5.69295 4.01031l8.98098 -0.653687l9.78224 2.08557l4.10255 0.0997247l9.07898 -5.16032l10.2117 -1.64113l5.96215 -3.89733l9.09512 -2.87472l16.0061 -1.68264l15.621 -0.767246l4.7643 1.40364l8.89452 -3.72325l10.0924 -0.0737847l3.84026 2.19913l6.45962 -0.574137l10.2849 -3.81202l6.61123 1.13329l-0.277269 4.77871l8.01083 -3.47538l0.672133 1.81349l-4.72222 4.62769l-0.0639852 4.36886l3.26959 2.34612l-1.24281 8.17512l-6.21636 4.74874l1.79447 5.14533l4.8842 0.162557l2.37668 4.48992l3.59239 1.47512"/>
<path d="M331.486 -312.429l0.260552 -0.096266l3.36412 -7.69379l4.69744 -6.65446l0.177544 -0.328573l-0.881958 -7.22687l2.31211 -3.88523l-3.47365 -4.28413l3.57741 -3.54743l-5.75924 0.804715l-7.90131 -2.17204l-6.49363 5.43413l-14.3333 1.06354l-7.64594 -5.06982l-10.1811 -0.31762l-2.1778 3.91751l-6.52649 1.12233l-9.13432 -5.03004l-10.3097 0.170051l-5.59496 -9.39372l-6.90002 -5.23814l4.59368 -7.34561l-5.98579 -4.5124l10.4757 -9.03286l14.5448 -0.37757l3.96651 -7.17787l17.9989 1.25031l11.3542 -6.12586l11.0049 -2.67066l15.6251 -0.200026l16.484 6.65619l13.5493 3.65292l11.0026 -1.4561l8.12958 0.84276l11.1501 -4.93032l1.4094 -4.03625l-2.35938 -6.44118l-5.45892 -3.48114l-5.23237 -1.0866l-3.46039 -2.89374l-12.0413 -7.98028l-10.776 -3.56242l-8.15667 -5.54769l6.87408 -1.50913l7.83674 -7.89958l-5.2831 -3.73823l13.9211 -3.85295l-0.2496 -2.06655l-8.47717 1.52239l-7.54218 0.755717l-6.28265 3.05573l-8.84148 0.4992l-8.13592 3.51861l0.553385 5.87453l4.62019 2.2781l9.63352 -0.566644l-1.84519 3.36989l-10.3379 1.63537l-12.8218 5.46468l-5.2514 -1.92071l2.08154 -4.43919l-10.3189 -2.76347l1.66823 -1.81118l9.03978 -3.13931l-2.73292 -2.16281l-14.6826 -2.38763l-0.649651 -3.52091l-8.74925 1.16326l-3.50593 5.20067l-7.31391 6.9813l0.219625 2.43432l-4.57869 2.03254l-2.86953 -0.883687l-2.64242 11.3934l-4.9015 3.91232l-3.44944 6.75649l3.04881 5.38686l1.12176 3.63217l8.24544 3.05054l-1.71895 2.31442l-11.2147 0.519375l-4.02876 2.92026l-7.88055 5.08653l-2.97329 -4.39711l0.128547 -1.94953l-5.75348 -0.268046l-4.92801 -0.893487l-11.4372 2.45565l6.54666 5.30731l-4.79774 1.53968l-5.26062 0.00922309l-4.99603 -4.86345l-1.77372 2.07347l2.10978 5.6405l4.72626 4.43112l-3.56069 2.07058l5.26062 4.35215l4.67495 2.73868l0.141805 5.33613l-8.736 -2.50292l2.78595 4.81676l-5.99731 0.991482l3.58144 8.33594l-6.27285 0.117018l-7.74451 -4.10831l-3.54167 -7.55544l-1.65266 -6.28265l-3.68347 -4.34235l-4.83924 -5.38513l-0.638699 -2.69026l-1.60539 -0.66118l-0.189073 -2.0775l-5.2318 -3.17159l-0.822008 -4.49914l0.79895 -6.44291l1.28835 -2.93352l-1.58868 -1.48838l-1.97778 -0.73093l-2.64818 -3.08282l-4.08006 -1.87575l-8.87953 -3.4944l-5.47563 -3.39986l-8.638 -2.80728l-7.94281 -6.95075l1.90572 -0.704414l-4.30661 -3.97285l-0.175815 -3.18831l-6.07225 -1.49011l-2.89432 4.07776l-2.78768 -3.16352l0.211555 -3.27766l0.336066 -0.152757l2.10229 -0.857747l-7.5174 -1.37482l-7.6788 3.35086l0.521681 4.68821l-1.15634 2.69141l3.09608 4.80754l8.85532 4.75796l4.75047 7.80677l10.5097 7.61251l7.40095 -0.0587972l2.30058 2.0873l-2.65049 1.88151l8.46046 3.41312l6.93403 2.85801l8.09787 4.92398l0.978224 1.76449l-1.76392 3.38084l-5.2416 -4.40864l-8.20567 -1.55467l-3.97573 6.10914l6.82624 3.50189l-1.12003 4.92801l-3.94633 0.55915l-5.0433 8.10133l-3.93826 0.727471l0.0380452 -2.88856l1.92647 -5.06405l2.05156 -2.01697l-3.68751 -5.47448l-2.88222 -4.76142l-3.92154 -1.17883l-2.78768 -4.07603l-6.06879 -1.71722l-4.08583 -3.79473l-6.9888 -0.612183l-7.3802 -4.26337l-8.63973 -6.14834l-6.42042 -5.43989l-2.94678 -9.33665l-4.69916 -1.09755l-7.68399 -3.11625l-4.34638 1.27452l-5.45719 4.3827l-3.925 0.692885l-8.55672 5.33613l-18.6283 -2.55768l-13.7545 3.0638l-1.08083 5.68776l0.504388 5.48716l-8.94928 6.29015l-12.1024 1.99622l-0.842183 3.17735l-5.80478 5.2341l-3.63966 7.68745l3.68347 5.39839l-5.46295 4.21265l-2.04291 6.14085l-7.12945 1.88093l-6.68789 7.26318l-11.9877 0.143534l-9.00231 -0.17985l-5.91488 3.33588l-3.6068 3.56818l-4.62134 -0.783963l-3.49728 -3.19004l-2.67758 -5.4324l-8.81612 -1.46417l-3.79588 2.45161l-4.97932 -1.32755l-4.87325 1.03875l1.44226 -7.39115l-0.887146 -5.80651l-4.2259 -0.871006l-2.25735 -3.57914l0.751682 -6.18235l3.76475 -3.42868l0.670403 -3.81721l1.97028 -5.67969l-0.208672 -4.00109l-1.889 -3.39237l-0.415616 -3.18427l0.476142 -6.72652l-3.85813 -4.09678l13.3608 -6.81702l11.5571 1.7057l12.6812 -0.0605265l10.0491 1.61289l7.84136 -0.494588l15.2642 0.311279l4.88363 -5.66471l1.7985 -18.8151l-9.74592 -9.91309l-6.96516 -4.77698l-14.4347 -3.6339l-0.951131 -6.88504l12.2448 -2.05502l15.8597 2.42913l-2.99289 -10.6913l8.91585 4.05182l21.9873 -7.36521l2.83725 -7.73875l8.25812 -1.90572l7.571 -1.86422l4.86576 -2.59342l8.27138 -13.8969l12.9215 -3.95325l7.84827 0.266317l1.84404 -1.99853l7.89324 -0.513611l1.75123 2.08154l6.41293 -4.65593l-2.15936 -3.53994l-0.432332 -5.35689l-3.8345 -5.23987l-0.285339 -9.656l1.57369 -2.55018l2.70871 -2.83322l8.32038 -0.585666l3.31685 -2.60437l7.59694 -2.66547l-0.321079 4.85653l-2.79517 3.07705l1.13329 2.64414l5.12054 1.43016l-2.30808 3.56242l-2.81247 -1.02607l-6.8003 6.8003l2.5669 4.59944l0.168321 3.64946l9.54244 2.20028l-0.0997247 3.35259l9.60297 -1.77314l5.30962 -2.58823l10.663 3.73074l4.45936 3.0073l6.4527 -2.77327l14.7391 -4.36886l11.8943 -3.1958l9.42542 1.59617l0.711907 2.30404l9.10838 0.119324l2.15129 -4.15558l13.0334 -3.0638l-2.00775 -7.93935l0.326843 -7.10927l4.64094 -5.9316l8.90201 -3.22578l7.49895 7.05682l7.57677 -0.183309l1.81522 -7.25165l1.09697 -5.5719l-3.47365 1.18978l-5.99328 -3.35432l-0.819702 -5.42721l11.9416 -2.63089l11.9001 -1.37136l10.2469 1.55986l9.74477 -0.279575l10.7345 -5.21854l-9.89349 -4.48992l-17.14 0.751682l-16.6091 3.46212l-15.3662 1.99103l-5.46641 -5.1511l-9.14758 -3.10126l2.10229 -9.30322l-4.58618 -8.52041l4.5026 -5.50042l8.56249 -5.93102l21.6074 -10.2417l6.30456 -1.97605l-0.981683 -3.99475l-13.1337 -4.46167l-16.2465 2.67297l-9.15911 6.5899l1.47512 5.78403l-15.0238 7.59349l-18.2375 8.12381l-6.87754 13.2997l6.72248 6.65446l9.03113 5.23987l-8.67374 10.6532l-9.82259 2.21008l-3.60392 15.8556l-5.36265 8.84725l-11.458 -0.912509l-5.34536 7.48973l-10.9351 0.434638l-3.00096 -8.92737l-7.90534 -10.7172l-7.18536 -13.3562l-6.33338 -5.79729l-18.6491 10.9236l-12.5912 2.21354l-13.0616 -4.80869l-3.37738 -10.1552l-2.98598 -21.7959l8.69622 -6.07629l24.9392 -7.92955l18.6451 -9.7465l17.2887 -13.1619l22.6951 -18.2375l15.8159 -7.10754l25.9549 -11.8453l20.7249 -4.13483l15.538 0.502658l14.384 -7.82406l17.2212 0.417345l16.9567 -1.88093l29.5421 6.90925l-12.1647 2.5277l10.3472 5.93275l9.74304 -3.28457l15.5155 5.70794l25.8644 2.24813l35.6847 10.6815l7.24762 4.48819l0.625441 6.28611l-10.4849 4.96202l-15.4233 2.51963l-42.1616 -7.1796l-6.93403 1.20131l15.3979 6.91732l1.2186 14.0306l12.1589 2.88049l7.38135 2.45161l1.22033 -4.57869l-5.89701 -4.20803l6.21809 -3.42868l22.8312 5.87857l7.95434 -2.30116l-6.35644 -6.91674l22.0092 -9.25018l8.71755 0.544162l8.819 3.30187l5.50042 -6.49017l-7.87479 -5.6307l4.6225 -5.64799l-6.9421 -5.85954"/>
<path d="M281.791 -578.246l6.28371 3.616l0.300642 2.01274l5.43108 4.56771l-0.0253789 2.06618l3.81073 0.0693038l1.79165 -2.97787l8.35306 0.252325l0.151297 -3.06547l2.03861 0.487567l1.21428 -1.51785l-3.94251 -4.48523l-15.8184 -6.21001l-9.58882 5.18461"/>
<path d="M132.027 -559.158l-3.66285 -1.24259l-3.74143 1.95954l-1.58911 1.27944l-3.11623 0.374826l-1.65207 0.694747l0.147393 0.985383l-0.733059 2.54765l3.49399 -0.026843l4.27439 -0.94097l6.00894 -2.77508l0.618854 -1.73504l-0.0488055 -1.12106"/>
<path d="M337.305 -588.202l-4.53989 -3.73167l-2.25286 -0.690598l-3.59892 -0.132019l4.96157 2.59426l3.06011 2.18868l-2.33388 0.592499l-1.28749 0.49196l-2.31045 -1.46929l-1.97858 -1.46831l0.372874 2.10083l-3.54914 -0.641793l-0.234266 0.742332l2.09571 3.3261l3.49838 2.97665l2.85854 1.48759l3.95081 2.90832l-3.50424 -0.265258l-3.21531 -0.0183021l4.57015 1.58472l7.16563 -0.628127l2.66283 -2.46468l-3.18505 -4.15799l-3.20652 -5.3259"/>
<path d="M-210.735 -685.943l0.128161 4.20457l-18.6887 -3.90802l-4.8603 2.52809l12.75 2.36149l12.3736 5.77226l3.58181 7.60552l-16.8344 1.81985l-7.28157 -3.64074l-11.677 -5.42536l3.23057 6.40976l-10.9689 4.96589l24.8893 0.400917l13.0182 0.515194l-25.3135 8.2229"/>
</g>
</g>
</g>
</g>
<g inkscape:groupmode="layer" inkscape:label="Coastline" id="Coastline"><title>Coastline</title>
<g>
<g id="drawing" transform="translate(255,311.667)">
<g stroke-width="1px" stroke="rgb(51,51,51)" fill="none">
<path d="M-255 -311.667l0 -377.778l680 0l0 377.778l-680 0"/>
</g>
</g>
</g>
</g>
<g id="Clone of page">
</g>
</g>
</g><!--ePage-->
</svg>
