<?xml version="1.0" ?>
<svg version="1.1" encoding="iso-8859-1" baseProfile="full"
xmlns:dc="http://purl.org/dc/elements/1.1/"
xmlns:cc="http://creativecommons.org/ns#"
xmlns:rdf="http://www.w3.org/1999/02/22-rdf-syntax-ns#"
xmlns="http://www.w3.org/2000/svg"
xmlns:xlink="http://www.w3.org/1999/xlink"
xmlns:ev="http://www.w3.org/2001/xml-events"
xmlns:sodipodi="http://sodipodi.sourceforge.net/DTD/sodipodi-0.dtd"
xmlns:inkscape="http://www.inkscape.org/namespaces/inkscape"
inkscape:version="0.46"
inkscape:output_extension="org.inkscape.output.svg.inkscape"
viewBox="0 0 681 454" xml:space="preserve">
<title>Magics plot</title>
<metadata id="MAGICSmetadata">
<rdf:RDF><cc:Work rdf:about="">
	<dc:format>image/svg+xml</dc:format>
	<dc:title>Magics plot</dc:title>
	<dc:author>baudouin on Baudouins-iMac-3.local</dc:author>
	<dc:date>Sat Sep 12 16:16:44 2020</dc:date>
	<dc:language>en-GB</dc:language>
	<dc:publisher><cc:Agent>
	 <dc:title>Magics 4.4.5 (64 bit)</dc:title>
	</cc:Agent></dc:publisher>
	<dc:coverage>Plot of meteorological data</dc:coverage>
</cc:Work></rdf:RDF>
</metadata>
<g id="page" transform="translate(0,453.333)" vector-effect="non-scaling-stroke">
<g id="Page8">
<g inkscape:groupmode="layer" inkscape:label="Coastline" id="Coastline"><title>Coastline</title>
<g>
<g id="drawing" transform="translate(255,-226.667)">
</g>
</g>
</g>
<g inkscape:groupmode="layer" inkscape:label="Coastline" id="Coastline"><title>Coastline</title>
<g>
<g id="drawing" transform="translate(255,-226.667)">
<g fill-rule="evenodd" stroke="none">
<path fill="rgb(255,225,170)" d="M262.267 142.678l4.60861 -1.34205l2.56112 -6.57147l2.17048 -7.87926l3.50082 -10.7361l2.79509 -7.80927l2.23168 -6.60573l0.356963 -4.79983l1.56373 -1.30896l0.503087 -2.4027l-1.08085 -4.19806l1.06533 -1.67706l1.92479 3.32073l1.00208 -1.6671l0.563411 -2.71749l-1.46827 -2.65043l-0.911882 -6.81715l-1.40267 -3.7427l-1.50428 -2.4109l-1.97692 -2.43256l-1.87647 2.53476l-0.104541 3.40741l-3.12365 3.93773l-2.40709 -0.681129l0.771615 2.42173l-1.70048 2.85073l-4.66337 3.48998l-3.22966 3.22907l-2.48908 0.0761362l-2.09815 1.02521l-3.16084 1.16167l-2.82438 0.20879l-0.759609 3.59423l-1.97984 3.17021l0.45272 5.22151l1.07353 3.57344l1.31453 2.68294l-0.510409 3.60917l-2.70841 4.29586l-0.0152275 1.88614l-2.60885 0.981284l-1.01496 4.08531l0.518315 4.07712l1.99536 4.51754l0.373948 5.02384l1.56373 2.99012l4.4985 2.02728l3.26362 1.44689l4.94683 -2.39684"/>
<path fill="rgb(255,225,170)" d="M192.694 -198.209l-0.177164 -0.455648l-0.412602 -1.06108l3.82879 -2.41309l-5.1524 1.69082l-4.08151 -0.0764292l-0.818761 1.3668l-0.400595 0.0310403l-2.69231 0.208497l1.3239 2.27561l2.77401 0.73545l5.80864 -2.30196"/>
<path fill="rgb(255,225,170)" d="M148.268 -198.362l0.708363 -1.67164l-3.08822 0.679959l0.137045 -0.986116l-4.21709 -0.402206l-4.41065 0.322849l-3.09788 -1.90956l-1.04834 2.40841l6.9135 1.10501l-0.0568095 0.935016l8.16009 -0.481711"/>
<path fill="rgb(255,225,170)" d="M86.7561 -210.427l-0.848045 -1.75568l2.04075 -4.46029l-4.30172 0.494595l-5.78053 0.617146l-6.63121 -0.518022l-0.792992 2.90944l7.90913 2.88104l2.88148 0.611436l4.33364 2.13431l1.18949 -2.91398"/>
<path fill="rgb(255,225,170)" d="M52.2173 -222.363l2.57664 0.357549l0.49503 -4.66153h-7.68437l0.155782 4.69287l2.14559 1.50297l2.31133 -1.89185"/>
<path fill="rgb(255,225,170)" d="M-253.004 132.328l8.91435 -2.17757l6.15641 0.0134884l1.32709 -3.39709l4.58653 -2.4553l0.963236 -5.85274l5.74552 -7.39703l1.00474 -7.57585l1.79193 -2.23568l0.602152 -3.73604l1.57922 -8.7345l-0.40155 -10.617l1.58268 -4.16907l1.41667 -0.111023l4.19501 -4.91233l3.61015 -6.40613l7.98777 -7.8847l2.88279 -3.69973l2.25643 -9.36812l-0.940755 -3.42822l-1.92336 -7.21545l-2.05341 -1.78743l-4.84558 -0.227234l-4.36517 -1.63456l-7.2369 -6.34837l-8.37687 -4.68994l-8.46611 0.221008l-11.0279 -2.99693l-6.58978 1.74628l0.929342 -3.137l-2.76589 -3.32066l-0.534363 -0.196488v124.992l1.99565 -1.26044"/>
<path fill="rgb(255,225,170)" d="M-28.306 -205.84l3.54893 -2.00153l5.40139 0.10791l7.19263 -0.0861203l4.01274 -4.35791l4.27767 -1.12856l1.22575 -3.68451l3.27777 -2.52759l-2.21008 -3.23903l1.85089 -3.90932h-51.3015l-0.243702 1.38761l-2.25885 2.05721l-0.451009 3.70941l1.35441 2.14748l2.53554 0.522604l0.532288 3.48391l-0.865357 4.43469l2.92395 -0.623251l2.98759 0.796529l2.27753 -1.47097l5.28967 0.878499l1.60655 3.25944l2.09837 1.91402l2.77281 0.470378l2.16408 -2.14091"/>
<path fill="rgb(255,225,170)" d="M91.2394 -215.253l3.02598 -4.8608l2.3678 -0.33549l0.672017 -2.95681l-4.09574 -2.10113l0.754256 -1.159h-6.45384l1.56372 2.58327l2.2125 3.28469l-1.23094 1.21018l-1.15588 3.03843l-0.022827 1.73313l2.36296 -0.436482"/>
<path fill="rgb(255,225,170)" d="M104.222 -226.667h-1.83298l1.27394 1.07149l0.55904 -1.07149"/>
<path fill="rgb(255,225,170)" d="M131.208 -206.394l-2.14886 -5.00157l3.59839 -0.59489l-1.67157 -2.89005l5.2416 1.50175l-0.0850827 -3.20168l-2.80497 -1.64321l-3.15637 -2.61129l2.13641 -1.24235l-2.83575 -2.65867l-0.722135 -1.93062h-16.4458l0.793614 0.4811l0.113444 1.2465l0.963236 0.396708l0.38322 1.61416l2.90354 3.23108l2.21008 2.60541l0.991598 3.76959l2.125 4.53326l4.64671 2.46499l3.76371 -0.0702106"/>
<path fill="rgb(255,225,170)" d="M135.434 -226.452l0.669278 -0.214783h-4.05197l0.226323 0.220317l3.15637 -0.0055335"/>
<path fill="rgb(255,225,170)" d="M113.737 197.172l3.50085 -2.1416l4.83832 -0.897522l5.84444 -2.23671l2.34601 0.296407l3.43306 -0.690694l6.14154 1.0919l2.80497 -1.07841l3.44413 0.836995l0.731161 -1.573l2.88867 -0.295024l5.92295 -2.19832l4.27836 -2.57878l3.99925 -3.39952l6.40474 -5.84686l3.21413 -4.06012l1.57957 -2.9115l2.40273 -2.8783l1.10746 -0.819356l3.86678 -2.86169l1.46647 -2.55768l0.668905 -4.70862l1.41528 -4.1248l0.487325 -2.9824l-1.44952 -0.381836l-0.484904 -2.38682l2.48539 -2.0956l6.8146 -3.06679l4.67403 -1.91541l2.36849 -2.01536l0.843222 -2.35811l-1.33504 -0.970154l0.917928 -2.63204l0.163249 -5.55772l-1.00163 0.283264l-0.0705562 -1.69543l-1.11853 -3.32377l-2.68703 -4.29116l0.479371 -4.04041l2.33459 -1.31014l3.95532 -4.02623l2.18068 -1.03518l6.40198 -6.08205l6.3878 -2.74998l5.18142 -2.15405l3.60738 -3.51434l2.19867 -3.93492l1.6899 -4.0494l-0.996439 -2.77557l-0.219625 -8.8559l-0.700378 -4.97182l0.23346 -5.64591l-0.91689 -2.54038l-2.07969 -1.23924l-2.34497 -5.58781l-1.97974 -3.55204l0.37146 -2.70675l-0.325114 -1.72207l1.56055 -3.42234l-0.16982 -1.47304l-3.62917 -2.06517l-0.33549 -3.21136l2.61682 -6.98234l2.28168 -1.87113l1.10608 -3.77063l1.81995 -2.28583l0.803792 -3.99268l2.12362 -0.415385l1.39972 -2.36468l3.96777 -2.26265l1.28074 -1.34196l1.30668 -2.98759l6.20172 -6.86509l5.28241 -4.31018l8.47614 -5.62689l5.67116 -4.58653l6.66414 -7.73045l4.83693 -6.34456l4.86322 -8.30493l3.50328 -7.23655l2.72888 -6.32969l1.59686 -6.12563l1.19566 -2.04683l-0.0214432 -2.97825l0.523641 -3.29679l-0.12797 -1.56643l-2.14887 0.0159097l-2.6815 1.93927l-3.00454 0.571025l-2.61129 0.841146l-1.81095 0.112061l-3.22658 0.199565l-2.02401 1.03345l-2.81085 0.372843l-4.98773 1.76115l-6.16886 0.67098l-5.34121 1.44952l-2.81293 -0.019023l-2.55699 -2.37229l-1.11058 -2.34255l-1.84381 -1.04486l-2.43351 -1.55052l3.2335 -1.35545l0.177775 -2.35258l-1.34058 -1.75458l-2.7856 -1.70443l-1.77256 -1.94723l-3.07129 -3.26947l-3.14842 -3.23004l-7.73529 -5.35297l-3.10622 -2.75966l-1.56055 -5.20182l-3.29022 -6.55969l-3.10207 -2.09456l-2.15786 -1.39488l-2.08073 -6.76617l-0.822815 -5.83337l1.24235 -1.02791l-1.82721 -5.56014l-0.995056 -1.16038l-6.59912 -5.0863l-0.183655 -3.68347l1.12649 -0.987101l-5.08527 -6.27401l-1.82029 -3.20064l-2.09214 -3.08028l-4.28286 -8.8265l-3.47906 -5.69745l-2.34843 -5.97933l0.582438 -0.513265l4.04386 8.12231l2.55664 2.52863l1.88946 1.82928l1.32017 -0.989522l1.54256 -2.95127l1.21849 -4.28044l1.59237 -2.27683l0.189189 0.819356l-0.701762 2.26196l-0.251444 1.98354l-0.881612 3.11106l2.82192 -0.0283611l2.89006 3.89272l3.44967 4.56958l2.21354 4.21507l1.65462 1.26483l1.57404 2.93882l-0.309204 1.2804l1.86318 3.24699l3.06126 1.17214l2.65763 2.21112l3.24906 6.283l-0.241414 3.3594l0.656453 3.93837l3.7523 5.4l2.52724 0.930725l3.91901 3.89964l1.59928 4.61731l3.02045 4.75185l2.92603 2.03127l0.43752 2.25954l1.70927 1.70685l0.735311 2.41864l0.250753 2.4719l-0.68689 1.09259l0.581401 2.58846l-1.13444 0.276347l1.62834 2.32906l1.10954 4.1912l0.926229 1.67157l-0.162211 3.09861l1.47443 3.30924l3.92143 0.289144l1.81095 -0.769551l2.80497 0.124511l0.876079 -1.44053l1.48584 -0.413656l1.23889 -1.49691l1.43119 -0.322001l4.75669 -0.29364l3.61188 -1.09121l3.31167 -2.35189l1.70097 0.33549l2.49473 -0.312662l5.07385 -3.99717l9.05408 -2.64414l5.6428 -2.39235l0.132812 -1.93235l1.09709 -2.51617l4.0992 -1.52216l2.61682 -0.320618l3.79 -1.91195l3.12663 0.535055l2.74168 -1.573l-0.0273235 -2.28963l2.21804 -1.42773l3.52472 0.046346l1.29665 -1.19566l0.551656 -2.7607l3.53959 -2.11843l2.60783 0.0193687l0.533671 -0.69692l-0.695882 -3.78758l0.909973 -2.87311l1.17767 -1.35095l2.57151 0.297099l2.11359 -3.88165l2.38786 -1.81234l0.905822 -1.58995l2.0624 -3.37738l0.0103757 -1.26483l-2.02885 -0.717326l-1.52769 -1.88255l-2.55664 -3.24803l-3.35594 -1.03276l-4.15696 -0.74119l-3.16329 -2.05686l-2.54073 -3.87024l-0.769552 -4.47689l0.73877 -1.02791l0.534017 -2.34013l-0.700378 -0.491821l-1.65013 1.92889l-3.5804 3.4929l-4.22717 3.63332l-3.88165 3.83081l-3.42269 -0.166707l-4.68648 -0.148377l-4.43469 0.893026l-0.209595 -1.55398l-1.00854 0.275656l-1.07564 -2.16477l1.22955 -3.33311l-0.0996092 -3.3172l-1.7148 -1.77706l-1.54706 0.609762l-1.52769 2.97272l0.375265 4.12307l-0.84668 -1.38831l-0.754679 -1.85868l-1.62972 -1.58787l-0.717671 -1.90399l0.565491 -1.88704l-0.343099 -2.33805l-3.86263 -2.38232l-0.970154 -1.99011l-2.78802 -1.29423l-2.21908 -4.88709l-1.82583 -4.27352l0.506694 -1.29319l-1.18321 -2.5013l3.36389 0.277731l2.11462 -2.21112l3.60185 1.87771l3.04985 -0.918966l4.18186 7.55579l3.78412 5.37649l5.45603 1.61416l5.71993 4.35411l6.92458 1.88013l5.71543 -2.74272l4.35445 -1.012l2.71297 1.00405l2.41622 6.94845l6.39541 0.735656l6.17786 1.30322l10.6613 1.71031l7.97982 -0.794454l9.2073 -0.105489l10.4403 -1.0663l4.37797 4.31571l1.6899 4.07326l4.1535 1.43258l6.64685 4.80961l1.67295 2.22496l-2.72439 2.04787l7.40291 6.86786l3.99371 0.678935l8.24717 -3.39191l1.09847 5.30731l-0.0204062 6.86336l1.69405 7.25108l2.34843 10.9819l5.15444 7.78267l0.979147 3.53959l1.40664 7.08783l0.765402 1.38411v-155.847h-124.23l1.59192 0.140076l-1.4554 3.87923l4.41913 1.91886l-0.824199 5.9271l1.05524 4.00755l-0.542663 1.32501l-8.85036 1.49933l-8.05695 -0.977072l-3.93492 -2.84336l-5.37303 -1.17975l-1.79297 -4.17875l-0.151835 -2.80601l2.07865 -1.32501l0.97465 -1.98423l0.762219 -3.40297h-128.843l-3.52457 3.03912l3.59147 2.70744l-2.75621 4.40737l4.14001 3.14288l3.35697 5.63623l6.18581 -0.10203l5.48059 3.01803l3.91589 -0.673401l1.30668 -2.3505l6.10868 0.190572l4.58757 3.04189l8.59996 -0.638122l3.89618 -3.26048l4.74078 1.30322l3.45555 -0.482829l-2.14644 2.12846l2.08419 2.57048l-1.38727 2.33114l0.529175 4.33612l-0.106527 0.197143l-2.81846 3.99268l-2.01847 4.61627l-0.156331 0.0577598l-0.810364 1.43465l-1.14931 4.27629l-1.49933 2.6483l0.387716 0.320963l-1.64909 1.86664l-2.78802 1.42773l-4.41775 -0.320618l-4.54122 -1.3385l-1.31464 1.85073l-1.5436 -2.81051l-4.03003 -0.715251l-4.99707 0.466919l-2.33252 1.62419l-4.3631 1.79504l-2.62374 -0.88265l-5.62585 -1.67399l-5.45361 -1.49829l-7.53884 0.0930376l-1.38173 -1.87113l-5.63035 -0.664409l-1.80404 -0.966695l-2.10944 -0.0238652l-1.93235 -2.53278l-7.66577 -1.16073l-3.90206 0.77301l-4.08225 2.65556l-1.7781 2.75621l1.32017 4.34062l-2.71539 2.60679l-2.76312 1.46993l-6.03709 -2.81639l-7.98673 -2.37333l-5.08734 -1.09916l-2.65314 -5.0365l-7.51982 -2.53312l-4.73387 -0.945252l-2.3799 0.487325l-6.65515 -1.95034l-2.15544 -0.885071l-1.42601 -2.69395l-2.93052 -0.0975341l-1.07668 -3.0872l3.72982 -2.84924l0.745687 -4.90507l-1.96175 -1.40767l0.0383911 -2.62132l2.83333 -2.77661l-0.40328 -1.08809l-4.8065 2.08523l0.166362 -2.86723l-3.96674 -0.679972l-6.17094 2.28721l-3.87577 0.344482l-2.30416 -1.31948l-6.05542 0.0442708l-5.33671 2.23395l-2.85858 -0.842184l-9.37262 0.460348l-9.60366 1.00958l-5.45707 1.72483l-3.57729 2.3384l-6.12701 0.98468l-5.44739 3.09619l-2.46153 -0.0598349l-5.86934 -1.25134l-5.38859 0.392212l-3.41577 -2.40619l-4.17183 -0.0269779l-1.78121 3.48045l-3.78619 5.86727l-4.20296 2.34255l-5.685 2.58846l-3.64543 3.82839l-0.759867 2.98413l-2.15267 4.87567l1.41597 7.04909l-4.73041 4.73179l-2.8406 1.5097l-4.46547 3.8737l-5.26927 0.625326l-2.953 2.25677l-3.59216 5.78668l-3.77443 2.06482l-2.0458 3.50328l-0.134196 3.01906l-1.50002 3.30475l-1.90814 0.913432l-3.15395 3.60185l-1.94826 3.99856l0.36558 1.91852l-1.85419 2.95231l-2.17653 1.54498l-0.267354 2.62581l-0.243836 2.39374l2.9869 2.44804l1.46509 2.6936l-0.565837 2.82572l0.684123 2.81742l0.626709 5.59957l-0.703837 5.33464l-1.58199 2.79494l0.49113 3.0533l-1.3468 2.91012l-2.74548 3.97815l-2.49231 1.07564l2.82711 2.01847l2.33702 4.41083l-0.724243 2.51375l0.929688 4.34408l0.360738 1.21261l1.7276 1.20258l-0.032857 0.862243l1.30046 1.59686l2.38578 0.375265l3.02529 2.36849l1.64805 0.928304l0.829041 1.24892l0.642964 2.50372l1.41459 1.12649l1.45125 0.733235l2.20317 2.21804l2.48574 3.35352l0.694152 4.18878l0.991943 2.06932l2.95162 3.03636l4.07949 2.28237l1.52665 0.420573l3.81594 3.65615l4.82794 3.09965l5.14856 4.31329l5.84064 2.70087l1.4848 -0.0498049l1.09467 0.149414l5.61133 -2.07831l3.93422 -1.6356l6.71222 -0.989177l3.63298 -0.0657146l3.95359 1.10815l2.57843 -0.0577598l5.05103 1.60931l5.10636 -1.64321l3.15049 -1.94377l8.88391 -3.3172l4.56266 -1.20915l4.68302 -0.66095l5.00122 0.00345893l4.25795 -0.0702111l4.01204 3.73328l1.8656 4.10128l3.03394 3.54513l4.53223 0.123474l2.1793 -1.26933l2.1499 0.298136l5.88318 -2.03992l-0.0646765 1.56608l1.45056 0.812785l1.15173 2.53969l2.58604 0.961161l2.21458 3.74573l-0.827311 4.47447l-1.94688 6.36359l1.06077 0.854634l-1.14239 4.20123l-1.37585 4.12514l-1.23785 1.81165l-0.181234 1.88324l3.44067 5.85343l3.74573 4.67611l5.82196 5.71958l4.65466 6.00146l1.5142 4.26141l0.794454 1.75769l-0.538513 1.10089l2.83783 3.58559l1.16073 3.79311l1.7193 5.47471l-1.74213 2.24674l-0.30367 1.17733l1.39176 3.40021l1.50867 3.43791l1.69543 2.02574l0.295715 3.21136l-0.594889 4.19777l-1.81787 2.52171l-3.25494 3.70768l-1.35095 2.32249l-1.83828 5.10775l-0.294678 2.43213l-1.95518 5.18799l-0.785462 4.98254l0.534017 3.56311l0.343445 4.34753l4.61143 5.53178l1.23647 3.55758l2.97825 6.79834l2.92533 4.68164l2.2042 2.33598l0.725281 3.091l0.126933 6.77932l1.8995 8.72585l1.39626 4.10508l1.25134 5.51691l2.21804 4.13863l4.21126 4.28113l4.06773 7.36245l0.00899243 0.0148722l2.84682 4.80027l3.71045 5.30351l0.148723 4.34892l-1.82825 1.03206l1.8407 3.79761l-0.0318195 3.32239l0.753642 1.52319l0.267354 -0.785807l2.44008 2.53001l1.91541 0.103759l2.39823 2.0202l2.57705 -0.135925z
M210.481 -67.1534L209.751 -68.2017L211.049 -69.3253L212.604 -68.9101L212.397 -67.0089L211.573 -66.3759L210.481 -67.1534z
M179.339 13.1989L180.404 9.23273L180.575 5.82181L180.286 3.62908L182.879 0.318014L186.468 -0.491668L188.88 -1.84163L191.819 -0.726228L193.439 1.80941L193.078 6.00571L190.283 8.53403L188.427 11.0952L190.667 13.0384L187.435 14.4337L186.727 13.7725L183.448 14.1096L180.917 15.3822L179.339 13.1989z
M174.567 48.6106L172.632 48.1564L173.212 45.985L171.572 44.474L170.833 41.3624L167.374 38.2736L165.428 34.2155L166.441 31.8266L164.91 28.6394L165.926 19.5812L168.031 25.0475L167.734 27.7462L168.821 28.565L168.631 30.9791L169.724 33.2123L168.425 35.3833L172.992 39.2288L173.424 42.7375L176.738 49.4695L175.792 49.7904L174.567 48.6106z
M197.66 79.4014L196.67 80.8181L195.765 79.6035L195.79 77.4751L194.485 75.8165L194.537 73.3526L192.851 69.1818L194.495 66.0336L194.139 59.2029L192.137 55.5431L192.642 53.8075L195.637 56.8374L196.111 62.7896L197.976 64.9595L196.599 70.3936L197.583 77.6397L198.651 77.8766L199.808 80.9057L199.672 81.6073L197.66 79.4014"/>
<path fill="rgb(114,163,255)" d="M305.014 -209.469l0.542663 -1.32501l-1.05524 -4.00755l0.824199 -5.9271l-4.41913 -1.91886l1.4554 -3.87923l-1.59192 -0.140076h-20.1005l-0.762219 3.40297l-0.97465 1.98423l-2.07865 1.32501l0.151835 2.80601l1.79297 4.17875l5.37303 1.17975l3.93492 2.84336l8.05695 0.977072l8.85036 -1.49933"/>
<path fill="rgb(114,163,255)" d="M425 -70.8199l-0.765402 -1.38411l-1.40664 -7.08783l-0.979147 -3.53959l-5.15444 -7.78267l-2.34843 -10.9819l-1.69405 -7.25108l0.0204062 -6.86336l-1.09847 -5.30731l-8.24717 3.39191l-3.99371 -0.678935l-7.40291 -6.86786l2.72439 -2.04787l-1.67295 -2.22496l-6.64685 -4.80961l-4.1535 -1.43258l-1.6899 -4.07326l-4.37797 -4.31571l-10.4403 1.0663l-9.2073 0.105489l-7.97982 0.794454l-10.6613 -1.71031l-6.17786 -1.30322l-6.39541 -0.735656l-2.41622 -6.94845l-2.71297 -1.00405l-4.35445 1.012l-5.71543 2.74272l-6.92458 -1.88013l-5.71993 -4.35411l-5.45603 -1.61416l-3.78412 -5.37649l-4.18186 -7.55579l-3.04985 0.918966l-3.60185 -1.87771l-2.11462 2.21112l-3.36389 -0.277731l1.18321 2.5013l-0.506694 1.29319l1.82583 4.27352l2.21908 4.88709l2.78802 1.29423l0.970154 1.99011l3.86263 2.38232l0.343099 2.33805l-0.565491 1.88704l0.717671 1.90399l1.62972 1.58787l0.754679 1.85868l0.84668 1.38831l-0.375265 -4.12307l1.52769 -2.97272l1.54706 -0.609762l1.7148 1.77706l0.0996092 3.3172l-1.22955 3.33311l1.07564 2.16477l1.00854 -0.275656l0.209595 1.55398l4.43469 -0.893026l4.68648 0.148377l3.42269 0.166707l3.88165 -3.83081l4.22717 -3.63332l3.5804 -3.4929l1.65013 -1.92889l0.700378 0.491821l-0.534017 2.34013l-0.73877 1.02791l0.769552 4.47689l2.54073 3.87024l3.16329 2.05686l4.15696 0.74119l3.35594 1.03276l2.55664 3.24803l1.52769 1.88255l2.02885 0.717326l-0.0103757 1.26483l-2.0624 3.37738l-0.905822 1.58995l-2.38786 1.81234l-2.11359 3.88165l-2.57151 -0.297099l-1.17767 1.35095l-0.909973 2.87311l0.695882 3.78758l-0.533671 0.69692l-2.60783 -0.0193687l-3.53959 2.11843l-0.551656 2.7607l-1.29665 1.19566l-3.52472 -0.046346l-2.21804 1.42773l0.0273235 2.28963l-2.74168 1.573l-3.12663 -0.535055l-3.79 1.91195l-2.61682 0.320618l-4.0992 1.52216l-1.09709 2.51617l-0.132812 1.93235l-5.6428 2.39235l-9.05408 2.64414l-5.07385 3.99717l-2.49473 0.312662l-1.70097 -0.33549l-3.31167 2.35189l-3.61188 1.09121l-4.75669 0.29364l-1.43119 0.322001l-1.23889 1.49691l-1.48584 0.413656l-0.876079 1.44053l-2.80497 -0.124511l-1.81095 0.769551l-3.92143 -0.289144l-1.47443 -3.30924l0.162211 -3.09861l-0.926229 -1.67157l-1.10954 -4.1912l-1.62834 -2.32906l1.13444 -0.276347l-0.581401 -2.58846l0.68689 -1.09259l-0.250753 -2.4719l-0.735311 -2.41864l-1.70927 -1.70685l-0.43752 -2.25954l-2.92603 -2.03127l-3.02045 -4.75185l-1.59928 -4.61731l-3.91901 -3.89964l-2.52724 -0.930725l-3.7523 -5.4l-0.656453 -3.93837l0.241414 -3.3594l-3.24906 -6.283l-2.65763 -2.21112l-3.06126 -1.17214l-1.86318 -3.24699l0.309204 -1.2804l-1.57404 -2.93882l-1.65462 -1.26483l-2.21354 -4.21507l-3.44967 -4.56958l-2.89006 -3.89272l-2.82192 0.0283611l0.881612 -3.11106l0.251444 -1.98354l0.701762 -2.26196l-0.189189 -0.819356l-1.59237 2.27683l-1.21849 4.28044l-1.54256 2.95127l-1.32017 0.989522l-1.88946 -1.82928l-2.55664 -2.52863l-4.04386 -8.12231l-0.582438 0.513265l2.34843 5.97933l3.47906 5.69745l4.28286 8.8265l2.09214 3.08028l1.82029 3.20064l5.08527 6.27401l-1.12649 0.987101l0.183655 3.68347l6.59912 5.0863l0.995056 1.16038l1.82721 5.56014l-1.24235 1.02791l0.822815 5.83337l2.08073 6.76617l2.15786 1.39488l3.10207 2.09456l3.29022 6.55969l1.56055 5.20182l3.10622 2.75966l7.73529 5.35297l3.14842 3.23004l3.07129 3.26947l1.77256 1.94723l2.7856 1.70443l1.34058 1.75458l-0.177775 2.35258l-3.2335 1.35545l2.43351 1.55052l1.84381 1.04486l1.11058 2.34255l2.55699 2.37229l2.81293 0.019023l5.34121 -1.44952l6.16886 -0.67098l4.98773 -1.76115l2.81085 -0.372843l2.02401 -1.03345l3.22658 -0.199565l1.81095 -0.112061l2.61129 -0.841146l3.00454 -0.571025l2.6815 -1.93927l2.14887 -0.0159097l0.12797 1.56643l-0.523641 3.29679l0.0214432 2.97825l-1.19566 2.04683l-1.59686 6.12563l-2.72888 6.32969l-3.50328 7.23655l-4.86322 8.30493l-4.83693 6.34456l-6.66414 7.73045l-5.67116 4.58653l-8.47614 5.62689l-5.28241 4.31018l-6.20172 6.86509l-1.30668 2.98759l-1.28074 1.34196l-3.96777 2.26265l-1.39972 2.36468l-2.12362 0.415385l-0.803792 3.99268l-1.81995 2.28583l-1.10608 3.77063l-2.28168 1.87113l-2.61682 6.98234l0.33549 3.21136l3.62917 2.06517l0.16982 1.47304l-1.56055 3.42234l0.325114 1.72207l-0.37146 2.70675l1.97974 3.55204l2.34497 5.58781l2.07969 1.23924l0.91689 2.54038l-0.23346 5.64591l0.700378 4.97182l0.219625 8.8559l0.996439 2.77557l-1.6899 4.0494l-2.19867 3.93492l-3.60738 3.51434l-5.18142 2.15405l-6.3878 2.74998l-6.40198 6.08205l-2.18068 1.03518l-3.95532 4.02623l-2.33459 1.31014l-0.479371 4.04041l2.68703 4.29116l1.11853 3.32377l0.0705562 1.69543l1.00163 -0.283264l-0.163249 5.55772l-0.917928 2.63204l1.33504 0.970154l-0.843222 2.35811l-2.36849 2.01536l-4.67403 1.91541l-6.8146 3.06679l-2.48539 2.0956l0.484904 2.38682l1.44952 0.381836l-0.487325 2.9824l-1.41528 4.1248l-0.668905 4.70862l-1.46647 2.55768l-3.86678 2.86169l-1.10746 0.819356l-2.40273 2.8783l-1.57957 2.9115l-3.21413 4.06012l-6.40474 5.84686l-3.99925 3.39952l-4.27836 2.57878l-5.92295 2.19832l-2.88867 0.295024l-0.731161 1.573l-3.44413 -0.836995l-2.80497 1.07841l-6.14154 -1.0919l-3.43306 0.690694l-2.34601 -0.296407l-5.84444 2.23671l-4.83832 0.897522l-3.50085 2.1416l-2.57705 0.135925l-2.39823 -2.0202l-1.91541 -0.103759l-2.44008 -2.53001l-0.267354 0.785807l-0.753642 -1.52319l0.0318195 -3.32239l-1.8407 -3.79761l1.82825 -1.03206l-0.148723 -4.34892l-3.71045 -5.30351l-2.84682 -4.80027l-0.00899243 -0.0148722l-4.06773 -7.36245l-4.21126 -4.28113l-2.21804 -4.13863l-1.25134 -5.51691l-1.39626 -4.10508l-1.8995 -8.72585l-0.126933 -6.77932l-0.725281 -3.091l-2.2042 -2.33598l-2.92533 -4.68164l-2.97825 -6.79834l-1.23647 -3.55758l-4.61143 -5.53178l-0.343445 -4.34753l-0.534017 -3.56311l0.785462 -4.98254l1.95518 -5.18799l0.294678 -2.43213l1.83828 -5.10775l1.35095 -2.32249l3.25494 -3.70768l1.81787 -2.52171l0.594889 -4.19777l-0.295715 -3.21136l-1.69543 -2.02574l-1.50867 -3.43791l-1.39176 -3.40021l0.30367 -1.17733l1.74213 -2.24674l-1.7193 -5.47471l-1.16073 -3.79311l-2.83783 -3.58559l0.538513 -1.10089l-0.794454 -1.75769l-1.5142 -4.26141l-4.65466 -6.00146l-5.82196 -5.71958l-3.74573 -4.67611l-3.44067 -5.85343l0.181234 -1.88324l1.23785 -1.81165l1.37585 -4.12514l1.14239 -4.20123l-1.06077 -0.854634l1.94688 -6.36359l0.827311 -4.47447l-2.21458 -3.74573l-2.58604 -0.961161l-1.15173 -2.53969l-1.45056 -0.812785l0.0646765 -1.56608l-5.88318 2.03992l-2.1499 -0.298136l-2.1793 1.26933l-4.53223 -0.123474l-3.03394 -3.54513l-1.8656 -4.10128l-4.01204 -3.73328l-4.25795 0.0702111l-5.00122 -0.00345893l-4.68302 0.66095l-4.56266 1.20915l-8.88391 3.3172l-3.15049 1.94377l-5.10636 1.64321l-5.05103 -1.60931l-2.57843 0.0577598l-3.95359 -1.10815l-3.63298 0.0657146l-6.71222 0.989177l-3.93422 1.6356l-5.61133 2.07831l-1.09467 -0.149414l-1.4848 0.0498049l-5.84064 -2.70087l-5.14856 -4.31329l-4.82794 -3.09965l-3.81594 -3.65615l-1.52665 -0.420573l-4.07949 -2.28237l-2.95162 -3.03636l-0.991943 -2.06932l-0.694152 -4.18878l-2.48574 -3.35352l-2.20317 -2.21804l-1.45125 -0.733235l-1.41459 -1.12649l-0.642964 -2.50372l-0.829041 -1.24892l-1.64805 -0.928304l-3.02529 -2.36849l-2.38578 -0.375265l-1.30046 -1.59686l0.032857 -0.862243l-1.7276 -1.20258l-0.360738 -1.21261l-0.929688 -4.34408l0.724243 -2.51375l-2.33702 -4.41083l-2.82711 -2.01847l2.49231 -1.07564l2.74548 -3.97815l1.3468 -2.91012l-0.49113 -3.0533l1.58199 -2.79494l0.703837 -5.33464l-0.626709 -5.59957l-0.684123 -2.81742l0.565837 -2.82572l-1.46509 -2.6936l-2.9869 -2.44804l0.243836 -2.39374l0.267354 -2.62581l2.17653 -1.54498l1.85419 -2.95231l-0.36558 -1.91852l1.94826 -3.99856l3.15395 -3.60185l1.90814 -0.913432l1.50002 -3.30475l0.134196 -3.01906l2.0458 -3.50328l3.77443 -2.06482l3.59216 -5.78668l2.953 -2.25677l5.26927 -0.625326l4.46547 -3.8737l2.8406 -1.5097l4.73041 -4.73179l-1.41597 -7.04909l2.15267 -4.87567l0.759867 -2.98413l3.64543 -3.82839l5.685 -2.58846l4.20296 -2.34255l3.78619 -5.86727l1.78121 -3.48045l4.17183 0.0269779l3.41577 2.40619l5.38859 -0.392212l5.86934 1.25134l2.46153 0.0598349l5.44739 -3.09619l6.12701 -0.98468l3.57729 -2.3384l5.45707 -1.72483l9.60366 -1.00958l9.37262 -0.460348l2.85858 0.842184l5.33671 -2.23395l6.05542 -0.0442708l2.30416 1.31948l3.87577 -0.344482l6.17094 -2.28721l3.96674 0.679972l-0.166362 2.86723l4.8065 -2.08523l0.40328 1.08809l-2.83333 2.77661l-0.0383911 2.62132l1.96175 1.40767l-0.745687 4.90507l-3.72982 2.84924l1.07668 3.0872l2.93052 0.0975341l1.42601 2.69395l2.15544 0.885071l6.65515 1.95034l2.3799 -0.487325l4.73387 0.945252l7.51982 2.53312l2.65314 5.0365l5.08734 1.09916l7.98673 2.37333l6.03709 2.81639l2.76312 -1.46993l2.71539 -2.60679l-1.32017 -4.34062l1.7781 -2.75621l4.08225 -2.65556l3.90206 -0.77301l7.66577 1.16073l1.93235 2.53278l2.10944 0.0238652l1.80404 0.966695l5.63035 0.664409l1.38173 1.87113l7.53884 -0.0930376l5.45361 1.49829l5.62585 1.67399l2.62374 0.88265l4.3631 -1.79504l2.33252 -1.62419l4.99707 -0.466919l4.03003 0.715251l1.5436 2.81051l1.31464 -1.85073l4.54122 1.3385l4.41775 0.320618l2.78802 -1.42773l1.64909 -1.86664l-0.387716 -0.320963l1.49933 -2.6483l1.14931 -4.27629l0.810364 -1.43465l0.156331 -0.0577598l2.01847 -4.61627l2.81846 -3.99268l0.106527 -0.197143l-0.529175 -4.33612l1.38727 -2.33114l-2.08419 -2.57048l2.14644 -2.12846l-3.45555 0.482829l-4.74078 -1.30322l-3.89618 3.26048l-8.59996 0.638122l-4.58757 -3.04189l-6.10868 -0.190572l-1.30668 2.3505l-3.91589 0.673401l-5.48059 -3.01803l-6.18581 0.10203l-3.35697 -5.63623l-4.14001 -3.14288l2.75621 -4.40737l-3.59147 -2.70744l3.52457 -3.03912h-15.7232l-0.669278 0.214783l-3.15637 0.0055335l-0.226323 -0.220317h-3.29179l0.722135 1.93062l2.83575 2.65867l-2.13641 1.24235l3.15637 2.61129l2.80497 1.64321l0.0850827 3.20168l-5.2416 -1.50175l1.67157 2.89005l-3.59839 0.59489l2.14886 5.00157l-3.76371 0.0702106l-4.64671 -2.46499l-2.125 -4.53326l-0.991598 -3.76959l-2.21008 -2.60541l-2.90354 -3.23108l-0.38322 -1.61416l-0.963236 -0.396708l-0.113444 -1.2465l-0.793614 -0.4811h-8.09121l-0.55904 1.07149l-1.27394 -1.07149h-8.4256l-0.754256 1.159l4.09574 2.10113l-0.672017 2.95681l-2.3678 0.33549l-3.02598 4.8608l-2.36296 0.436482l0.022827 -1.73313l1.15588 -3.03843l1.23094 -1.21018l-2.2125 -3.28469l-1.56372 -2.58327h-32.2209l-0.49503 4.66153l-2.57664 -0.357549l-2.31133 1.89185l-2.14559 -1.50297l-0.155782 -4.69287h-47.3329l-1.85089 3.90932l2.21008 3.23903l-3.27777 2.52759l-1.22575 3.68451l-4.27767 1.12856l-4.01274 4.35791l-7.19263 0.0861203l-5.40139 -0.10791l-3.54893 2.00153l-2.16408 2.14091l-2.77281 -0.470378l-2.09837 -1.91402l-1.60655 -3.25944l-5.28967 -0.878499l-2.27753 1.47097l-2.98759 -0.796529l-2.92395 0.623251l0.865357 -4.43469l-0.532288 -3.48391l-2.53554 -0.522604l-1.35441 -2.14748l0.451009 -3.70941l2.25885 -2.05721l0.243702 -1.38761h-203.97v235.263l0.534363 0.196488l2.76589 3.32066l-0.929342 3.137l6.58978 -1.74628l11.0279 2.99693l8.46611 -0.221008l8.37687 4.68994l7.2369 6.34837l4.36517 1.63456l4.84558 0.227234l2.05341 1.78743l1.92336 7.21545l0.940755 3.42822l-2.25643 9.36812l-2.88279 3.69973l-7.98777 7.8847l-3.61015 6.40613l-4.19501 4.91233l-1.41667 0.111023l-1.58268 4.16907l0.40155 10.617l-1.57922 8.7345l-0.602152 3.73604l-1.79193 2.23568l-1.00474 7.57585l-5.74552 7.39703l-0.963236 5.85274l-4.58653 2.4553l-1.32709 3.39709l-6.15641 -0.0134884l-8.91435 2.17757l-1.99565 1.26044v93.0783h680v-297.487z
M81.233 -209.648L78.3515 -210.259L70.4424 -213.14L71.2353 -216.049L77.8666 -215.531L83.6471 -216.149L87.9488 -216.643L85.908 -212.183L86.7561 -210.427L85.5666 -207.513L81.233 -209.648z
M140.165 -198.815L133.252 -199.92L134.3 -202.328L137.398 -200.419L141.808 -200.742L146.026 -200.339L145.888 -199.353L148.977 -200.033L148.268 -198.362L140.108 -197.88L140.165 -198.815z
M184.112 -196.643L182.788 -198.918L185.48 -199.127L185.881 -199.158L186.699 -200.525L190.781 -200.448L195.933 -202.139L192.105 -199.726L192.517 -198.665L192.694 -198.209L186.886 -195.907L184.112 -196.643z
M254.057 143.628L249.558 141.601L247.995 138.611L247.621 133.587L245.625 129.069L245.107 124.992L246.122 120.907L248.731 119.925L248.746 118.039L251.455 113.743L251.965 110.134L250.65 107.451L249.577 103.878L249.124 98.6564L251.104 95.4861L251.864 91.8919L254.688 91.6831L257.849 90.5214L259.947 89.4962L262.436 89.4201L265.666 86.191L270.329 82.701L272.03 79.8503L271.258 77.4286L273.665 78.1097L276.789 74.172L276.893 70.7646L278.77 68.2298L280.747 70.6624L282.251 73.0733L283.654 76.816L284.565 83.6331L286.034 86.2836L285.47 89.0011L284.468 90.6682L282.543 87.3474L281.478 89.0245L282.559 93.2225L282.056 95.6252L280.492 96.9342L280.135 101.734L277.903 108.34L275.108 116.149L271.608 126.885L269.437 134.764L266.876 141.336L262.267 142.678L257.321 145.075L254.057 143.628"/>
<path fill="rgb(114,163,255)" d="M183.448 14.1096l3.27914 -0.337051l0.708071 0.661217l3.23258 -1.39535l-2.24076 -1.94324l1.85686 -2.56112l2.7948 -2.52832l0.360478 -4.1963l-1.61995 -2.53564l-2.93829 -1.1154l-2.41236 1.34996l-3.58867 0.809683l-2.59362 3.31106l0.289319 2.19273l-0.171014 3.41092l-1.06533 3.96613l1.57837 2.18336l2.53037 -1.27265"/>
<path fill="rgb(114,163,255)" d="M176.738 49.4695l-3.31429 -6.73194l-0.431343 -3.50873l-4.56732 -3.84548l1.29872 -2.17106l-1.09256 -2.23315l0.190049 -2.41412l-1.08729 -0.818761l0.297519 -2.69875l-2.10547 -5.46632l-1.01613 9.05821l1.53152 3.1872l-1.0132 2.38893l1.94558 4.05808l3.45953 3.0888l0.738525 3.11164l1.64045 1.51102l-0.580395 2.17136l1.93563 0.454184l1.22463 1.17982l0.945851 -0.320945"/>
<path fill="rgb(114,163,255)" d="M199.808 80.9057l-1.15728 -3.02907l-1.06767 -0.236902l-0.984212 -7.24616l1.37778 -5.4341l-1.86505 -2.16989l-0.474097 -5.95213l-2.99568 -3.02994l-0.504259 1.73562l2.0021 3.65983l0.355792 6.83062l-1.64426 3.14825l1.68555 4.17082l-0.0512459 2.4639l1.30428 1.65861l-0.0245984 2.12831l0.90544 1.21467l0.989776 -1.41673l2.01176 2.20591l0.135875 -0.701628"/>
<path fill="rgb(114,163,255)" d="M212.397 -67.0089l0.20674 -1.90122l-1.55465 -0.415237l-1.29872 1.1236l0.730326 1.04834l1.09168 0.777472l0.824618 -0.632959"/>
</g>
<g stroke-width="0.5px" stroke="rgb(209,179,139)" fill="none">
<path d="M283.654 76.816l0.911882 6.81715l1.46827 2.65043l-0.563411 2.71749l-1.00207 1.6671l-1.92479 -3.32073l-1.06533 1.67706l1.08085 4.19806l-0.503087 2.4027l-1.56373 1.30896l-0.356964 4.79983l-2.23168 6.60573l-2.79509 7.80927l-3.50082 10.7361l-2.17048 7.87926l-2.56112 6.57147l-4.60861 1.34205l-4.94683 2.39684l-3.26363 -1.44689l-4.4985 -2.02728l-1.56373 -2.99012l-0.373948 -5.02384l-1.99536 -4.51754l-0.518315 -4.07712l1.01496 -4.08531l2.60885 -0.981284l0.0152273 -1.88614l2.70841 -4.29586l0.510408 -3.60917l-1.31453 -2.68294l-1.07353 -3.57344l-0.45272 -5.22151l1.97984 -3.17021l0.759609 -3.59423l2.82438 -0.20879l3.16084 -1.16167l2.09815 -1.02521l2.48908 -0.0761366l3.22966 -3.22907l4.66337 -3.48999l1.70048 -2.85073l-0.771615 -2.42173l2.40709 0.68113l3.12365 -3.93773l0.104541 -3.40741l1.87647 -2.53476l1.97692 2.43256l1.50428 2.4109l1.40267 3.7427"/>
<path d="M195.933 -202.139l-3.82879 2.41309l0.412602 1.06108l0.177164 0.455648l-5.80864 2.30196l-2.77401 -0.73545l-1.3239 -2.27561l2.69231 -0.208497l0.400596 -0.0310403l0.818761 -1.3668l4.08151 0.0764294l5.1524 -1.69082"/>
<path d="M134.3 -202.328l3.09788 1.90956l4.41065 -0.322849l4.21709 0.402206l-0.137046 0.986116l3.08822 -0.679958l-0.708363 1.67164l-8.16009 0.48171l0.0568096 -0.935016l-6.9135 -1.10501l1.04834 -2.40841"/>
<path d="M87.9488 -216.643l-2.04075 4.46029l0.848045 1.75568l-1.18949 2.91398l-4.33364 -2.13431l-2.88148 -0.611436l-7.90913 -2.88104l0.792992 -2.90944l6.63121 0.518022l5.78053 -0.617146l4.30172 -0.494595"/>
<path d="M54.7939 -222.005l-2.57664 -0.357549l-2.31133 1.89185l-2.14559 -1.50297"/>
<path d="M-254.466 8.79295l2.76589 3.32066l-0.929342 3.137l6.58978 -1.74628l11.0279 2.99693l8.46611 -0.221008l8.37687 4.68994l7.2369 6.34837l4.36517 1.63456l4.84558 0.227234l2.05341 1.78743l1.92336 7.21545l0.940755 3.42822l-2.25643 9.36812l-2.88279 3.69973l-7.98777 7.8847l-3.61015 6.40613l-4.19501 4.91233l-1.41667 0.111023l-1.58268 4.16907l0.40155 10.617l-1.57922 8.7345l-0.602153 3.73604l-1.79193 2.23568l-1.00474 7.57585l-5.74552 7.39703l-0.963236 5.85274l-4.58653 2.4553l-1.32709 3.39709l-6.15641 -0.0134888l-8.91435 2.17757"/>
<path d="M424.235 -72.204l-1.40664 -7.08783l-0.979146 -3.53959l-5.15444 -7.78267l-2.34843 -10.9819l-1.69405 -7.25108l0.0204061 -6.86336l-1.09847 -5.30731l-8.24717 3.39191l-3.99371 -0.678935l-7.40291 -6.86786l2.72439 -2.04787l-1.67295 -2.22496l-6.64685 -4.80961l-4.1535 -1.43258l-1.6899 -4.07326l-4.37797 -4.31571l-10.4403 1.0663l-9.2073 0.105489l-7.97982 0.794454l-10.6613 -1.71031l-6.17786 -1.30322l-6.39541 -0.735657l-2.41622 -6.94845l-2.71297 -1.00405l-4.35445 1.012l-5.71543 2.74272l-6.92458 -1.88013l-5.71993 -4.35411l-5.45603 -1.61416l-3.78412 -5.37649l-4.18186 -7.55579l-3.04985 0.918966l-3.60185 -1.87771l-2.11462 2.21112l-3.36389 -0.27773l1.18321 2.5013l-0.506694 1.29319l1.82583 4.27352l2.21908 4.88708l2.78802 1.29423l0.970154 1.99011l3.86263 2.38232l0.343099 2.33805l-0.565491 1.88704l0.717672 1.90399l1.62972 1.58787l0.754679 1.85868l0.84668 1.38831l-0.375264 -4.12307l1.52769 -2.97272l1.54706 -0.609762l1.7148 1.77706l0.0996094 3.3172l-1.22955 3.33311l1.07564 2.16477l1.00854 -0.275655l0.209595 1.55398l4.43469 -0.893026l4.68648 0.148376l3.42269 0.166707l3.88165 -3.83081l4.22717 -3.63332l3.5804 -3.4929l1.65013 -1.92889l0.700378 0.491821l-0.534017 2.34013l-0.73877 1.02791l0.769552 4.47689l2.54073 3.87024l3.16329 2.05686l4.15696 0.741191l3.35594 1.03276l2.55664 3.24803l1.52769 1.88255l2.02885 0.717326l-0.010376 1.26483l-2.0624 3.37738l-0.905823 1.58995l-2.38786 1.81234l-2.11359 3.88165l-2.57151 -0.297099l-1.17767 1.35095l-0.909973 2.87311l0.695882 3.78758l-0.533671 0.69692l-2.60783 -0.0193685l-3.53959 2.11843l-0.551656 2.7607l-1.29665 1.19566l-3.52472 -0.046346l-2.21804 1.42773l0.0273234 2.28963l-2.74168 1.573l-3.12663 -0.535055l-3.79 1.91195l-2.61682 0.320618l-4.0992 1.52216l-1.09709 2.51617l-0.132812 1.93235l-5.6428 2.39235l-9.05408 2.64414l-5.07385 3.99717l-2.49473 0.312663l-1.70097 -0.33549l-3.31167 2.35189l-3.61188 1.09121l-4.75669 0.29364l-1.43119 0.322001l-1.23889 1.49691l-1.48584 0.413656l-0.876078 1.44053l-2.80497 -0.124512l-1.81095 0.769552l-3.92143 -0.289144l-1.47443 -3.30924l0.162211 -3.09861l-0.926229 -1.67157l-1.10954 -4.1912l-1.62834 -2.32906l1.13444 -0.276347l-0.581401 -2.58846l0.68689 -1.09259l-0.250753 -2.4719l-0.735311 -2.41864l-1.70927 -1.70685l-0.43752 -2.25954l-2.92603 -2.03127l-3.02045 -4.75185l-1.59928 -4.61731l-3.91901 -3.89964l-2.52724 -0.930725l-3.7523 -5.4l-0.656453 -3.93837l0.241414 -3.3594l-3.24906 -6.283l-2.65763 -2.21112l-3.06126 -1.17214l-1.86318 -3.24699l0.309204 -1.2804l-1.57404 -2.93882l-1.65462 -1.26483l-2.21354 -4.21507l-3.44967 -4.56958l-2.89006 -3.89272l-2.82192 0.028361l0.881612 -3.11106l0.251444 -1.98354l0.701762 -2.26196l-0.189189 -0.819356l-1.59237 2.27684l-1.21849 4.28044l-1.54256 2.95127l-1.32017 0.989522l-1.88947 -1.82928l-2.55664 -2.52863l-4.04386 -8.12231l-0.582438 0.513265l2.34843 5.97933l3.47906 5.69745l4.28286 8.8265l2.09214 3.08028l1.82029 3.20064l5.08527 6.27401l-1.12649 0.987101l0.183655 3.68347l6.59912 5.0863l0.995056 1.16038l1.82721 5.56014l-1.24235 1.02791l0.822815 5.83337l2.08073 6.76617l2.15786 1.39488l3.10207 2.09456l3.29022 6.55969l1.56055 5.20182l3.10622 2.75966l7.73529 5.35297l3.14842 3.23004l3.07129 3.26947l1.77256 1.94722l2.7856 1.70443l1.34058 1.75458l-0.177775 2.35258l-3.2335 1.35545l2.43351 1.55052l1.84381 1.04486l1.11058 2.34255l2.55699 2.37229l2.81293 0.0190226l5.34121 -1.44952l6.16886 -0.67098l4.98773 -1.76115l2.81085 -0.372843l2.02401 -1.03345l3.22658 -0.199565l1.81095 -0.112061l2.61129 -0.841146l3.00454 -0.571025l2.6815 -1.93927l2.14886 -0.0159098l0.12797 1.56643l-0.523641 3.29679l0.0214437 2.97825l-1.19566 2.04683l-1.59686 6.12563l-2.72888 6.32969l-3.50328 7.23655l-4.86322 8.30493l-4.83693 6.34456l-6.66414 7.73045l-5.67116 4.58653l-8.47614 5.62689l-5.28241 4.31018l-6.20172 6.86509l-1.30668 2.98759l-1.28074 1.34196l-3.96777 2.26265l-1.39972 2.36469l-2.12362 0.415385l-0.803792 3.99268l-1.81995 2.28583l-1.10608 3.77063l-2.28168 1.87113l-2.61682 6.98234l0.33549 3.21136l3.62917 2.06517l0.16982 1.47304l-1.56055 3.42234l0.325114 1.72207l-0.37146 2.70675l1.97974 3.55204l2.34497 5.58781l2.07969 1.23924l0.91689 2.54038l-0.233459 5.64591l0.700378 4.97182l0.219625 8.8559l0.99644 2.77557l-1.6899 4.0494l-2.19867 3.93492l-3.60738 3.51434l-5.18142 2.15405l-6.3878 2.74998l-6.40198 6.08205l-2.18068 1.03518l-3.95532 4.02622l-2.33459 1.31014l-0.47937 4.04041l2.68703 4.29116l1.11853 3.32377l0.0705566 1.69543l1.00163 -0.283264l-0.163249 5.55772l-0.917928 2.63204l1.33504 0.970154l-0.843221 2.35811l-2.36849 2.01536l-4.67403 1.91541l-6.8146 3.06679l-2.48539 2.0956l0.484904 2.38682l1.44952 0.381836l-0.487325 2.9824l-1.41528 4.1248l-0.668905 4.70862l-1.46647 2.55768l-3.86678 2.86169l-1.10746 0.819356l-2.40273 2.8783l-1.57957 2.9115l-3.21413 4.06012l-6.40474 5.84686l-3.99925 3.39952l-4.27836 2.57878l-5.92295 2.19832l-2.88867 0.295024l-0.73116 1.573l-3.44413 -0.836995l-2.80497 1.07841l-6.14154 -1.0919l-3.43306 0.690694l-2.34601 -0.296407l-5.84444 2.23671l-4.83832 0.897522l-3.50085 2.1416l-2.57705 0.135925l-2.39823 -2.0202l-1.91541 -0.10376l-2.44008 -2.53001l-0.267354 0.785807l-0.753642 -1.52319l0.0318197 -3.32239l-1.8407 -3.79761l1.82825 -1.03206l-0.148722 -4.34892l-3.71045 -5.30351l-2.84682 -4.80027l-0.00899251 -0.0148722l-4.06773 -7.36245l-4.21126 -4.28113l-2.21804 -4.13863l-1.25134 -5.51691l-1.39626 -4.10508l-1.8995 -8.72585l-0.126933 -6.77932l-0.725281 -3.091l-2.2042 -2.33598l-2.92533 -4.68164l-2.97825 -6.79834l-1.23647 -3.55758l-4.61143 -5.53178l-0.343445 -4.34753l-0.534017 -3.56311l0.785461 -4.98254l1.95518 -5.18799l0.294678 -2.43213l1.83828 -5.10775l1.35095 -2.32249l3.25494 -3.70768l1.81787 -2.52171l0.594889 -4.19777l-0.295715 -3.21136l-1.69543 -2.02574l-1.50867 -3.43791l-1.39176 -3.40021l0.30367 -1.17733l1.74213 -2.24674l-1.7193 -5.47471l-1.16073 -3.79311l-2.83783 -3.58559l0.538513 -1.10089l-0.794454 -1.75769l-1.5142 -4.26141l-4.65466 -6.00146l-5.82196 -5.71958l-3.74573 -4.67611l-3.44067 -5.85343l0.181234 -1.88324l1.23785 -1.81165l1.37585 -4.12514l1.1424 -4.20123l-1.06077 -0.854635l1.94688 -6.36359l0.827311 -4.47447l-2.21458 -3.74573l-2.58604 -0.961161l-1.15173 -2.53969l-1.45056 -0.812785l0.0646769 -1.56608l-5.88318 2.03992l-2.1499 -0.298136l-2.1793 1.26933l-4.53223 -0.123474l-3.03394 -3.54513l-1.8656 -4.10128l-4.01204 -3.73328l-4.25795 0.0702108l-5.00122 -0.00345866l-4.68302 0.66095l-4.56266 1.20915l-8.88391 3.3172l-3.15049 1.94377l-5.10636 1.64321l-5.05103 -1.60931l-2.57843 0.0577596l-3.95359 -1.10815l-3.63298 0.0657145l-6.71222 0.989176l-3.93422 1.6356l-5.61133 2.07831l-1.09467 -0.149414l-1.4848 0.0498047l-5.84064 -2.70087l-5.14856 -4.31329l-4.82794 -3.09965l-3.81594 -3.65615l-1.52665 -0.420573l-4.07949 -2.28237l-2.95162 -3.03636l-0.991943 -2.06932l-0.694153 -4.18878l-2.48574 -3.35352l-2.20317 -2.21804l-1.45125 -0.733236l-1.41459 -1.12649l-0.642965 -2.50372l-0.829041 -1.24892l-1.64805 -0.928304l-3.02529 -2.36849l-2.38578 -0.375264l-1.30046 -1.59686l0.0328573 -0.862244l-1.7276 -1.20258l-0.360738 -1.21261l-0.929688 -4.34408l0.724243 -2.51375l-2.33702 -4.41083l-2.82711 -2.01847l2.49231 -1.07564l2.74548 -3.97815l1.3468 -2.91012l-0.49113 -3.0533l1.58199 -2.79494l0.703837 -5.33464l-0.626709 -5.59957l-0.684123 -2.81742l0.565837 -2.82572l-1.46509 -2.6936l-2.9869 -2.44804l0.243835 -2.39374l0.267354 -2.62581l2.17653 -1.54498l1.85419 -2.95231l-0.36558 -1.91852l1.94826 -3.99856l3.15395 -3.60185l1.90814 -0.913432l1.50002 -3.30475l0.134196 -3.01906l2.0458 -3.50328l3.77443 -2.06482l3.59216 -5.78668l2.953 -2.25677l5.26927 -0.625326l4.46547 -3.8737l2.8406 -1.5097l4.73041 -4.73179l-1.41597 -7.04909l2.15267 -4.87567l0.759867 -2.98413l3.64543 -3.82839l5.685 -2.58846l4.20296 -2.34255l3.78619 -5.86727l1.78121 -3.48045l4.17183 0.0269775l3.41577 2.40619l5.38859 -0.392212l5.86934 1.25134l2.46153 0.0598348l5.44739 -3.09619l6.12701 -0.98468l3.57729 -2.3384l5.45707 -1.72483l9.60366 -1.00958l9.37262 -0.460347l2.85858 0.842183l5.33671 -2.23395l6.05542 -0.0442708l2.30416 1.31948l3.87577 -0.344482l6.17094 -2.28721l3.96674 0.679972l-0.166361 2.86723l4.8065 -2.08523l0.40328 1.08809l-2.83333 2.77661l-0.0383911 2.62132l1.96175 1.40767l-0.745687 4.90507l-3.72982 2.84924l1.07668 3.0872l2.93052 0.0975342l1.42601 2.69395l2.15544 0.885071l6.65515 1.95034l2.3799 -0.487325l4.73387 0.945251l7.51982 2.53312l2.65314 5.0365l5.08734 1.09916l7.98674 2.37333l6.03709 2.81639l2.76312 -1.46993l2.71539 -2.60679l-1.32017 -4.34062l1.7781 -2.75621l4.08226 -2.65556l3.90206 -0.77301l7.66577 1.16073l1.93235 2.53278l2.10944 0.0238647l1.80404 0.966695l5.63035 0.664408l1.38173 1.87113l7.53884 -0.0930379l5.45361 1.49829l5.62585 1.67399l2.62374 0.88265l4.3631 -1.79504l2.33252 -1.62419l4.99707 -0.466919l4.03003 0.715251l1.5436 2.81051l1.31464 -1.85073l4.54122 1.3385l4.41774 0.320618l2.78802 -1.42773l1.64909 -1.86664l-0.387716 -0.320964l1.49933 -2.6483l1.14931 -4.27629l0.810364 -1.43465l0.156331 -0.0577596l2.01847 -4.61627l2.81846 -3.99268l0.106527 -0.197144l-0.529175 -4.33612l1.38727 -2.33114l-2.08419 -2.57048l2.14644 -2.12846l-3.45555 0.482829l-4.74078 -1.30322l-3.89618 3.26048l-8.59996 0.638123l-4.58757 -3.04189l-6.10868 -0.190572l-1.30668 2.3505l-3.91589 0.673401l-5.48059 -3.01803l-6.18581 0.10203l-3.35697 -5.63623l-4.14001 -3.14288l2.75621 -4.40737l-3.59147 -2.70744"/>
<path d="M135.434 -226.452l-3.15637 0.00553385"/>
<path d="M129.481 -224.736l2.83575 2.65867l-2.13641 1.24235l3.15637 2.61129l2.80497 1.64321l0.085083 3.20168l-5.2416 -1.50175l1.67157 2.89006l-3.59839 0.594889l2.14886 5.00157l-3.76371 0.0702108l-4.64671 -2.46499l-2.125 -4.53326l-0.991597 -3.76959l-2.21008 -2.60541l-2.90354 -3.23108l-0.383219 -1.61416l-0.963236 -0.396708l-0.113444 -1.2465"/>
<path d="M93.2095 -225.508l4.09574 2.10114l-0.672017 2.95681l-2.3678 0.33549l-3.02598 4.8608l-2.36296 0.436483l0.0228271 -1.73313l1.15588 -3.03843l1.23094 -1.21018l-2.2125 -3.28469"/>
<path d="M-1.57922 -222.757l2.21008 3.23903l-3.27777 2.52759l-1.22575 3.68451l-4.27767 1.12856l-4.01274 4.35791l-7.19263 0.0861206l-5.40139 -0.10791l-3.54893 2.00153l-2.16408 2.14091l-2.77281 -0.470378l-2.09837 -1.91402l-1.60655 -3.25944l-5.28967 -0.878499l-2.27753 1.47097l-2.98759 -0.796529l-2.92395 0.62325l0.865356 -4.43469l-0.532288 -3.48391l-2.53554 -0.522603l-1.35441 -2.14748l0.451009 -3.70941l2.25885 -2.05721"/>
<path d="M279.907 -223.264l-0.97465 1.98423l-2.07865 1.32501l0.151835 2.80601l1.79297 4.17875l5.37303 1.17975l3.93492 2.84336l8.05695 0.977071l8.85036 -1.49933l0.542664 -1.32501l-1.05524 -4.00755l0.824198 -5.9271l-4.41913 -1.91886l1.4554 -3.87923"/>
<path d="M174.567 48.6106l1.22463 1.17982l0.945851 -0.320945l-3.31429 -6.73194l-0.431343 -3.50873l-4.56732 -3.84548l1.29871 -2.17106l-1.09256 -2.23315l0.190049 -2.41412l-1.08729 -0.818761l0.297518 -2.69875l-2.10547 -5.46632l-1.01613 9.05821l1.53152 3.1872l-1.0132 2.38893l1.94558 4.05808l3.45953 3.0888l0.738525 3.11164l1.64045 1.51102l-0.580395 2.17136l1.93563 0.454184"/>
<path d="M191.819 -0.726228l-2.93829 -1.1154l-2.41236 1.34996l-3.58867 0.809684l-2.59362 3.31106l0.289319 2.19273l-0.171015 3.41092l-1.06533 3.96613l1.57837 2.18336l2.53037 -1.27265l3.27915 -0.337051l0.70807 0.661217l3.23258 -1.39535l-2.24076 -1.94324l1.85685 -2.56112l2.7948 -2.52832l0.360478 -4.1963l-1.61995 -2.53564"/>
<path d="M199.808 80.9057l-1.15728 -3.02907l-1.06767 -0.236902l-0.984212 -7.24616l1.37778 -5.4341l-1.86505 -2.16989l-0.474097 -5.95213l-2.99568 -3.02994l-0.504259 1.73562l2.0021 3.65983l0.355792 6.83063l-1.64426 3.14825l1.68555 4.17082l-0.0512458 2.4639l1.30428 1.65861l-0.024598 2.12831l0.90544 1.21467l0.989776 -1.41673l2.01176 2.20591l0.135875 -0.701628"/>
<path d="M210.481 -67.1534l1.09168 0.777472l0.824618 -0.632959l0.20674 -1.90122l-1.55465 -0.415237l-1.29871 1.1236l0.730326 1.04834"/>
</g>
</g>
</g>
</g>
<g inkscape:groupmode="layer" inkscape:label="Coastline" id="Coastline"><title>Coastline</title>
<g>
<g id="drawing" transform="translate(255,-226.667)">
<g stroke-width="0.5px" stroke="rgb(0,0,0)" fill="none">
<path d="M283.654 76.816l0.911882 6.81715l1.46827 2.65043l-0.563411 2.71749l-1.00207 1.6671l-1.92479 -3.32073l-1.06533 1.67706l1.08085 4.19806l-0.503087 2.4027l-1.56373 1.30896l-0.356964 4.79983l-2.23168 6.60573l-2.79509 7.80927l-3.50082 10.7361l-2.17048 7.87926l-2.56112 6.57147l-4.60861 1.34205l-4.94683 2.39684l-3.26363 -1.44689l-4.4985 -2.02728l-1.56373 -2.99012l-0.373948 -5.02384l-1.99536 -4.51754l-0.518315 -4.07712l1.01496 -4.08531l2.60885 -0.981284l0.0152273 -1.88614l2.70841 -4.29586l0.510408 -3.60917l-1.31453 -2.68294l-1.07353 -3.57344l-0.45272 -5.22151l1.97984 -3.17021l0.759609 -3.59423l2.82438 -0.20879l3.16084 -1.16167l2.09815 -1.02521l2.48908 -0.0761366l3.22966 -3.22907l4.66337 -3.48999l1.70048 -2.85073l-0.771615 -2.42173l2.40709 0.68113l3.12365 -3.93773l0.104541 -3.40741l1.87647 -2.53476l1.97692 2.43256l1.50428 2.4109l1.40267 3.7427"/>
<path d="M195.933 -202.139l-3.82879 2.41309l0.412602 1.06108l0.177164 0.455648l-5.80864 2.30196l-2.77401 -0.73545l-1.3239 -2.27561l2.69231 -0.208497l0.400596 -0.0310403l0.818761 -1.3668l4.08151 0.0764294l5.1524 -1.69082"/>
<path d="M134.3 -202.328l3.09788 1.90956l4.41065 -0.322849l4.21709 0.402206l-0.137046 0.986116l3.08822 -0.679958l-0.708363 1.67164l-8.16009 0.48171l0.0568096 -0.935016l-6.9135 -1.10501l1.04834 -2.40841"/>
<path d="M87.9488 -216.643l-2.04075 4.46029l0.848045 1.75568l-1.18949 2.91398l-4.33364 -2.13431l-2.88148 -0.611436l-7.90913 -2.88104l0.792992 -2.90944l6.63121 0.518022l5.78053 -0.617146l4.30172 -0.494595"/>
<path d="M54.7939 -222.005l-2.57664 -0.357549l-2.31133 1.89185l-2.14559 -1.50297"/>
<path d="M-254.466 8.79295l2.76589 3.32066l-0.929342 3.137l6.58978 -1.74628l11.0279 2.99693l8.46611 -0.221008l8.37687 4.68994l7.2369 6.34837l4.36517 1.63456l4.84558 0.227234l2.05341 1.78743l1.92336 7.21545l0.940755 3.42822l-2.25643 9.36812l-2.88279 3.69973l-7.98777 7.8847l-3.61015 6.40613l-4.19501 4.91233l-1.41667 0.111023l-1.58268 4.16907l0.40155 10.617l-1.57922 8.7345l-0.602153 3.73604l-1.79193 2.23568l-1.00474 7.57585l-5.74552 7.39703l-0.963236 5.85274l-4.58653 2.4553l-1.32709 3.39709l-6.15641 -0.0134888l-8.91435 2.17757"/>
<path d="M424.235 -72.204l-1.40664 -7.08783l-0.979146 -3.53959l-5.15444 -7.78267l-2.34843 -10.9819l-1.69405 -7.25108l0.0204061 -6.86336l-1.09847 -5.30731l-8.24717 3.39191l-3.99371 -0.678935l-7.40291 -6.86786l2.72439 -2.04787l-1.67295 -2.22496l-6.64685 -4.80961l-4.1535 -1.43258l-1.6899 -4.07326l-4.37797 -4.31571l-10.4403 1.0663l-9.2073 0.105489l-7.97982 0.794454l-10.6613 -1.71031l-6.17786 -1.30322l-6.39541 -0.735657l-2.41622 -6.94845l-2.71297 -1.00405l-4.35445 1.012l-5.71543 2.74272l-6.92458 -1.88013l-5.71993 -4.35411l-5.45603 -1.61416l-3.78412 -5.37649l-4.18186 -7.55579l-3.04985 0.918966l-3.60185 -1.87771l-2.11462 2.21112l-3.36389 -0.27773l1.18321 2.5013l-0.506694 1.29319l1.82583 4.27352l2.21908 4.88708l2.78802 1.29423l0.970154 1.99011l3.86263 2.38232l0.343099 2.33805l-0.565491 1.88704l0.717672 1.90399l1.62972 1.58787l0.754679 1.85868l0.84668 1.38831l-0.375264 -4.12307l1.52769 -2.97272l1.54706 -0.609762l1.7148 1.77706l0.0996094 3.3172l-1.22955 3.33311l1.07564 2.16477l1.00854 -0.275655l0.209595 1.55398l4.43469 -0.893026l4.68648 0.148376l3.42269 0.166707l3.88165 -3.83081l4.22717 -3.63332l3.5804 -3.4929l1.65013 -1.92889l0.700378 0.491821l-0.534017 2.34013l-0.73877 1.02791l0.769552 4.47689l2.54073 3.87024l3.16329 2.05686l4.15696 0.741191l3.35594 1.03276l2.55664 3.24803l1.52769 1.88255l2.02885 0.717326l-0.010376 1.26483l-2.0624 3.37738l-0.905823 1.58995l-2.38786 1.81234l-2.11359 3.88165l-2.57151 -0.297099l-1.17767 1.35095l-0.909973 2.87311l0.695882 3.78758l-0.533671 0.69692l-2.60783 -0.0193685l-3.53959 2.11843l-0.551656 2.7607l-1.29665 1.19566l-3.52472 -0.046346l-2.21804 1.42773l0.0273234 2.28963l-2.74168 1.573l-3.12663 -0.535055l-3.79 1.91195l-2.61682 0.320618l-4.0992 1.52216l-1.09709 2.51617l-0.132812 1.93235l-5.6428 2.39235l-9.05408 2.64414l-5.07385 3.99717l-2.49473 0.312663l-1.70097 -0.33549l-3.31167 2.35189l-3.61188 1.09121l-4.75669 0.29364l-1.43119 0.322001l-1.23889 1.49691l-1.48584 0.413656l-0.876078 1.44053l-2.80497 -0.124512l-1.81095 0.769552l-3.92143 -0.289144l-1.47443 -3.30924l0.162211 -3.09861l-0.926229 -1.67157l-1.10954 -4.1912l-1.62834 -2.32906l1.13444 -0.276347l-0.581401 -2.58846l0.68689 -1.09259l-0.250753 -2.4719l-0.735311 -2.41864l-1.70927 -1.70685l-0.43752 -2.25954l-2.92603 -2.03127l-3.02045 -4.75185l-1.59928 -4.61731l-3.91901 -3.89964l-2.52724 -0.930725l-3.7523 -5.4l-0.656453 -3.93837l0.241414 -3.3594l-3.24906 -6.283l-2.65763 -2.21112l-3.06126 -1.17214l-1.86318 -3.24699l0.309204 -1.2804l-1.57404 -2.93882l-1.65462 -1.26483l-2.21354 -4.21507l-3.44967 -4.56958l-2.89006 -3.89272l-2.82192 0.028361l0.881612 -3.11106l0.251444 -1.98354l0.701762 -2.26196l-0.189189 -0.819356l-1.59237 2.27684l-1.21849 4.28044l-1.54256 2.95127l-1.32017 0.989522l-1.88947 -1.82928l-2.55664 -2.52863l-4.04386 -8.12231l-0.582438 0.513265l2.34843 5.97933l3.47906 5.69745l4.28286 8.8265l2.09214 3.08028l1.82029 3.20064l5.08527 6.27401l-1.12649 0.987101l0.183655 3.68347l6.59912 5.0863l0.995056 1.16038l1.82721 5.56014l-1.24235 1.02791l0.822815 5.83337l2.08073 6.76617l2.15786 1.39488l3.10207 2.09456l3.29022 6.55969l1.56055 5.20182l3.10622 2.75966l7.73529 5.35297l3.14842 3.23004l3.07129 3.26947l1.77256 1.94722l2.7856 1.70443l1.34058 1.75458l-0.177775 2.35258l-3.2335 1.35545l2.43351 1.55052l1.84381 1.04486l1.11058 2.34255l2.55699 2.37229l2.81293 0.0190226l5.34121 -1.44952l6.16886 -0.67098l4.98773 -1.76115l2.81085 -0.372843l2.02401 -1.03345l3.22658 -0.199565l1.81095 -0.112061l2.61129 -0.841146l3.00454 -0.571025l2.6815 -1.93927l2.14886 -0.0159098l0.12797 1.56643l-0.523641 3.29679l0.0214437 2.97825l-1.19566 2.04683l-1.59686 6.12563l-2.72888 6.32969l-3.50328 7.23655l-4.86322 8.30493l-4.83693 6.34456l-6.66414 7.73045l-5.67116 4.58653l-8.47614 5.62689l-5.28241 4.31018l-6.20172 6.86509l-1.30668 2.98759l-1.28074 1.34196l-3.96777 2.26265l-1.39972 2.36469l-2.12362 0.415385l-0.803792 3.99268l-1.81995 2.28583l-1.10608 3.77063l-2.28168 1.87113l-2.61682 6.98234l0.33549 3.21136l3.62917 2.06517l0.16982 1.47304l-1.56055 3.42234l0.325114 1.72207l-0.37146 2.70675l1.97974 3.55204l2.34497 5.58781l2.07969 1.23924l0.91689 2.54038l-0.233459 5.64591l0.700378 4.97182l0.219625 8.8559l0.99644 2.77557l-1.6899 4.0494l-2.19867 3.93492l-3.60738 3.51434l-5.18142 2.15405l-6.3878 2.74998l-6.40198 6.08205l-2.18068 1.03518l-3.95532 4.02622l-2.33459 1.31014l-0.47937 4.04041l2.68703 4.29116l1.11853 3.32377l0.0705566 1.69543l1.00163 -0.283264l-0.163249 5.55772l-0.917928 2.63204l1.33504 0.970154l-0.843221 2.35811l-2.36849 2.01536l-4.67403 1.91541l-6.8146 3.06679l-2.48539 2.0956l0.484904 2.38682l1.44952 0.381836l-0.487325 2.9824l-1.41528 4.1248l-0.668905 4.70862l-1.46647 2.55768l-3.86678 2.86169l-1.10746 0.819356l-2.40273 2.8783l-1.57957 2.9115l-3.21413 4.06012l-6.40474 5.84686l-3.99925 3.39952l-4.27836 2.57878l-5.92295 2.19832l-2.88867 0.295024l-0.73116 1.573l-3.44413 -0.836995l-2.80497 1.07841l-6.14154 -1.0919l-3.43306 0.690694l-2.34601 -0.296407l-5.84444 2.23671l-4.83832 0.897522l-3.50085 2.1416l-2.57705 0.135925l-2.39823 -2.0202l-1.91541 -0.10376l-2.44008 -2.53001l-0.267354 0.785807l-0.753642 -1.52319l0.0318197 -3.32239l-1.8407 -3.79761l1.82825 -1.03206l-0.148722 -4.34892l-3.71045 -5.30351l-2.84682 -4.80027l-0.00899251 -0.0148722l-4.06773 -7.36245l-4.21126 -4.28113l-2.21804 -4.13863l-1.25134 -5.51691l-1.39626 -4.10508l-1.8995 -8.72585l-0.126933 -6.77932l-0.725281 -3.091l-2.2042 -2.33598l-2.92533 -4.68164l-2.97825 -6.79834l-1.23647 -3.55758l-4.61143 -5.53178l-0.343445 -4.34753l-0.534017 -3.56311l0.785461 -4.98254l1.95518 -5.18799l0.294678 -2.43213l1.83828 -5.10775l1.35095 -2.32249l3.25494 -3.70768l1.81787 -2.52171l0.594889 -4.19777l-0.295715 -3.21136l-1.69543 -2.02574l-1.50867 -3.43791l-1.39176 -3.40021l0.30367 -1.17733l1.74213 -2.24674l-1.7193 -5.47471l-1.16073 -3.79311l-2.83783 -3.58559l0.538513 -1.10089l-0.794454 -1.75769l-1.5142 -4.26141l-4.65466 -6.00146l-5.82196 -5.71958l-3.74573 -4.67611l-3.44067 -5.85343l0.181234 -1.88324l1.23785 -1.81165l1.37585 -4.12514l1.1424 -4.20123l-1.06077 -0.854635l1.94688 -6.36359l0.827311 -4.47447l-2.21458 -3.74573l-2.58604 -0.961161l-1.15173 -2.53969l-1.45056 -0.812785l0.0646769 -1.56608l-5.88318 2.03992l-2.1499 -0.298136l-2.1793 1.26933l-4.53223 -0.123474l-3.03394 -3.54513l-1.8656 -4.10128l-4.01204 -3.73328l-4.25795 0.0702108l-5.00122 -0.00345866l-4.68302 0.66095l-4.56266 1.20915l-8.88391 3.3172l-3.15049 1.94377l-5.10636 1.64321l-5.05103 -1.60931l-2.57843 0.0577596l-3.95359 -1.10815l-3.63298 0.0657145l-6.71222 0.989176l-3.93422 1.6356l-5.61133 2.07831l-1.09467 -0.149414l-1.4848 0.0498047l-5.84064 -2.70087l-5.14856 -4.31329l-4.82794 -3.09965l-3.81594 -3.65615l-1.52665 -0.420573l-4.07949 -2.28237l-2.95162 -3.03636l-0.991943 -2.06932l-0.694153 -4.18878l-2.48574 -3.35352l-2.20317 -2.21804l-1.45125 -0.733236l-1.41459 -1.12649l-0.642965 -2.50372l-0.829041 -1.24892l-1.64805 -0.928304l-3.02529 -2.36849l-2.38578 -0.375264l-1.30046 -1.59686l0.0328573 -0.862244l-1.7276 -1.20258l-0.360738 -1.21261l-0.929688 -4.34408l0.724243 -2.51375l-2.33702 -4.41083l-2.82711 -2.01847l2.49231 -1.07564l2.74548 -3.97815l1.3468 -2.91012l-0.49113 -3.0533l1.58199 -2.79494l0.703837 -5.33464l-0.626709 -5.59957l-0.684123 -2.81742l0.565837 -2.82572l-1.46509 -2.6936l-2.9869 -2.44804l0.243835 -2.39374l0.267354 -2.62581l2.17653 -1.54498l1.85419 -2.95231l-0.36558 -1.91852l1.94826 -3.99856l3.15395 -3.60185l1.90814 -0.913432l1.50002 -3.30475l0.134196 -3.01906l2.0458 -3.50328l3.77443 -2.06482l3.59216 -5.78668l2.953 -2.25677l5.26927 -0.625326l4.46547 -3.8737l2.8406 -1.5097l4.73041 -4.73179l-1.41597 -7.04909l2.15267 -4.87567l0.759867 -2.98413l3.64543 -3.82839l5.685 -2.58846l4.20296 -2.34255l3.78619 -5.86727l1.78121 -3.48045l4.17183 0.0269775l3.41577 2.40619l5.38859 -0.392212l5.86934 1.25134l2.46153 0.0598348l5.44739 -3.09619l6.12701 -0.98468l3.57729 -2.3384l5.45707 -1.72483l9.60366 -1.00958l9.37262 -0.460347l2.85858 0.842183l5.33671 -2.23395l6.05542 -0.0442708l2.30416 1.31948l3.87577 -0.344482l6.17094 -2.28721l3.96674 0.679972l-0.166361 2.86723l4.8065 -2.08523l0.40328 1.08809l-2.83333 2.77661l-0.0383911 2.62132l1.96175 1.40767l-0.745687 4.90507l-3.72982 2.84924l1.07668 3.0872l2.93052 0.0975342l1.42601 2.69395l2.15544 0.885071l6.65515 1.95034l2.3799 -0.487325l4.73387 0.945251l7.51982 2.53312l2.65314 5.0365l5.08734 1.09916l7.98674 2.37333l6.03709 2.81639l2.76312 -1.46993l2.71539 -2.60679l-1.32017 -4.34062l1.7781 -2.75621l4.08226 -2.65556l3.90206 -0.77301l7.66577 1.16073l1.93235 2.53278l2.10944 0.0238647l1.80404 0.966695l5.63035 0.664408l1.38173 1.87113l7.53884 -0.0930379l5.45361 1.49829l5.62585 1.67399l2.62374 0.88265l4.3631 -1.79504l2.33252 -1.62419l4.99707 -0.466919l4.03003 0.715251l1.5436 2.81051l1.31464 -1.85073l4.54122 1.3385l4.41774 0.320618l2.78802 -1.42773l1.64909 -1.86664l-0.387716 -0.320964l1.49933 -2.6483l1.14931 -4.27629l0.810364 -1.43465l0.156331 -0.0577596l2.01847 -4.61627l2.81846 -3.99268l0.106527 -0.197144l-0.529175 -4.33612l1.38727 -2.33114l-2.08419 -2.57048l2.14644 -2.12846l-3.45555 0.482829l-4.74078 -1.30322l-3.89618 3.26048l-8.59996 0.638123l-4.58757 -3.04189l-6.10868 -0.190572l-1.30668 2.3505l-3.91589 0.673401l-5.48059 -3.01803l-6.18581 0.10203l-3.35697 -5.63623l-4.14001 -3.14288l2.75621 -4.40737l-3.59147 -2.70744"/>
<path d="M135.434 -226.452l-3.15637 0.00553385"/>
<path d="M129.481 -224.736l2.83575 2.65867l-2.13641 1.24235l3.15637 2.61129l2.80497 1.64321l0.085083 3.20168l-5.2416 -1.50175l1.67157 2.89006l-3.59839 0.594889l2.14886 5.00157l-3.76371 0.0702108l-4.64671 -2.46499l-2.125 -4.53326l-0.991597 -3.76959l-2.21008 -2.60541l-2.90354 -3.23108l-0.383219 -1.61416l-0.963236 -0.396708l-0.113444 -1.2465"/>
<path d="M93.2095 -225.508l4.09574 2.10114l-0.672017 2.95681l-2.3678 0.33549l-3.02598 4.8608l-2.36296 0.436483l0.0228271 -1.73313l1.15588 -3.03843l1.23094 -1.21018l-2.2125 -3.28469"/>
<path d="M-1.57922 -222.757l2.21008 3.23903l-3.27777 2.52759l-1.22575 3.68451l-4.27767 1.12856l-4.01274 4.35791l-7.19263 0.0861206l-5.40139 -0.10791l-3.54893 2.00153l-2.16408 2.14091l-2.77281 -0.470378l-2.09837 -1.91402l-1.60655 -3.25944l-5.28967 -0.878499l-2.27753 1.47097l-2.98759 -0.796529l-2.92395 0.62325l0.865356 -4.43469l-0.532288 -3.48391l-2.53554 -0.522603l-1.35441 -2.14748l0.451009 -3.70941l2.25885 -2.05721"/>
<path d="M279.907 -223.264l-0.97465 1.98423l-2.07865 1.32501l0.151835 2.80601l1.79297 4.17875l5.37303 1.17975l3.93492 2.84336l8.05695 0.977071l8.85036 -1.49933l0.542664 -1.32501l-1.05524 -4.00755l0.824198 -5.9271l-4.41913 -1.91886l1.4554 -3.87923"/>
<path d="M174.567 48.6106l1.22463 1.17982l0.945851 -0.320945l-3.31429 -6.73194l-0.431343 -3.50873l-4.56732 -3.84548l1.29871 -2.17106l-1.09256 -2.23315l0.190049 -2.41412l-1.08729 -0.818761l0.297518 -2.69875l-2.10547 -5.46632l-1.01613 9.05821l1.53152 3.1872l-1.0132 2.38893l1.94558 4.05808l3.45953 3.0888l0.738525 3.11164l1.64045 1.51102l-0.580395 2.17136l1.93563 0.454184"/>
<path d="M191.819 -0.726228l-2.93829 -1.1154l-2.41236 1.34996l-3.58867 0.809684l-2.59362 3.31106l0.289319 2.19273l-0.171015 3.41092l-1.06533 3.96613l1.57837 2.18336l2.53037 -1.27265l3.27915 -0.337051l0.70807 0.661217l3.23258 -1.39535l-2.24076 -1.94324l1.85685 -2.56112l2.7948 -2.52832l0.360478 -4.1963l-1.61995 -2.53564"/>
<path d="M199.808 80.9057l-1.15728 -3.02907l-1.06767 -0.236902l-0.984212 -7.24616l1.37778 -5.4341l-1.86505 -2.16989l-0.474097 -5.95213l-2.99568 -3.02994l-0.504259 1.73562l2.0021 3.65983l0.355792 6.83063l-1.64426 3.14825l1.68555 4.17082l-0.0512458 2.4639l1.30428 1.65861l-0.024598 2.12831l0.90544 1.21467l0.989776 -1.41673l2.01176 2.20591l0.135875 -0.701628"/>
<path d="M210.481 -67.1534l1.09168 0.777472l0.824618 -0.632959l0.20674 -1.90122l-1.55465 -0.415237l-1.29871 1.1236l0.730326 1.04834"/>
</g>
</g>
</g>
</g>
<g inkscape:groupmode="layer" inkscape:label="Coastline" id="Coastline"><title>Coastline</title>
<g>
<g id="drawing" transform="translate(255,-226.667)">
<g stroke-width="1px" stroke="rgb(51,51,51)" fill="none">
<path d="M-255 226.667l0 -453.333l680 0l0 453.333l-680 0"/>
</g>
</g>
</g>
</g>
<g id="Clone of page">
</g>
</g>
</g><!--ePage-->
</svg>
