<?xml version="1.0" ?>
<svg version="1.1" encoding="iso-8859-1" baseProfile="full"
xmlns:dc="http://purl.org/dc/elements/1.1/"
xmlns:cc="http://creativecommons.org/ns#"
xmlns:rdf="http://www.w3.org/1999/02/22-rdf-syntax-ns#"
xmlns="http://www.w3.org/2000/svg"
xmlns:xlink="http://www.w3.org/1999/xlink"
xmlns:ev="http://www.w3.org/2001/xml-events"
xmlns:sodipodi="http://sodipodi.sourceforge.net/DTD/sodipodi-0.dtd"
xmlns:inkscape="http://www.inkscape.org/namespaces/inkscape"
inkscape:version="0.46"
inkscape:output_extension="org.inkscape.output.svg.inkscape"
viewBox="0 0 681 454" xml:space="preserve">
<title>Magics plot</title>
<metadata id="MAGICSmetadata">
<rdf:RDF><cc:Work rdf:about="">
	<dc:format>image/svg+xml</dc:format>
	<dc:title>Magics plot</dc:title>
	<dc:author>baudouin on Baudouins-iMac-3.local</dc:author>
	<dc:date>Sat Sep 12 16:16:44 2020</dc:date>
	<dc:language>en-GB</dc:language>
	<dc:publisher><cc:Agent>
	 <dc:title>Magics 4.4.5 (64 bit)</dc:title>
	</cc:Agent></dc:publisher>
	<dc:coverage>Plot of meteorological data</dc:coverage>
</cc:Work></rdf:RDF>
</metadata>
<g id="page" transform="translate(0,453.333)" vector-effect="non-scaling-stroke">
<g id="Page9">
<g inkscape:groupmode="layer" inkscape:label="Coastline" id="Coastline"><title>Coastline</title>
<g>
<g id="drawing" transform="translate(-311.667,-0)">
</g>
</g>
</g>
<g inkscape:groupmode="layer" inkscape:label="Coastline" id="Coastline"><title>Coastline</title>
<g>
<g id="drawing" transform="translate(-311.667,-0)">
<g fill-rule="evenodd" stroke="none">
<path fill="rgb(255,225,170)" d="M681.037 -1.3444l4.95064 -0.815833l9.4427 -0.282877l5.45372 1.10808l4.25867 -1.08963l4.55297 -5.62108l-0.988897 -1.26606l-5.60131 4.11489l-6.51642 0.237488l-7.14425 -0.786257l-4.42588 -1.67325l-4.8171 4.20889l-1.18832 2.33593l-0.291449 0.874108h2.06233l0.252597 -1.3444"/>
<path fill="rgb(255,225,170)" d="M726.014 -2.01967l2.92277 0.554919l0.296347 -4.9521l-0.530907 -2.31441l-3.34562 -0.497084l-0.406745 -3.09437l-1.88057 2.06213l-1.13912 4.52749l1.33193 5.73309h2.24696l0.504961 -2.01967"/>
<path fill="rgb(255,225,170)" d="M588.418 -0.592403l-4.31548 -2.58864l-3.27856 -4.74492l-4.76147 -3.88165l-5.76061 -0.0888749l-5.3688 -6.09137l-3.12482 -2.35745l-4.38254 -3.84212l-5.01096 -5.54172l-8.77211 -1.09476l-3.64841 -0.22841l0.497816 2.88455l5.91113 6.24423l4.26658 3.17373l2.96171 4.84844l5.10994 3.56817l2.08907 4.42354l1.66446 4.87186l1.09352 1.0378h24.5388l0.290765 -0.592403"/>
<path fill="rgb(255,225,170)" d="M665.711 -0.580689l1.88994 -3.86335l6.71437 -0.668538l-6.35301 -5.24406l0.978649 -2.60695l-4.16555 -5.36485l3.22321 -5.1177l4.17229 -1.93036l-1.01203 -2.76713l3.80215 -0.28112l0.403524 -2.21967l-4.72721 -1.70487l-3.73216 -1.57983l-0.258865 -2.46317l-2.91135 -2.86669l-2.2923 0.0185946l-2.85805 4.42895l-4.36351 3.94095l-4.82091 3.10374l-2.24369 2.12011l-2.78279 3.5834l-4.06482 4.48298l-6.79256 1.22682l-2.4188 1.06869l-1.14029 4.79778l-4.37873 1.05888l-4.15296 -1.94192l-3.3667 3.76569l-0.660045 5.2505l0.37455 2.35379h47.9654l-0.0277497 -0.580689"/>
<path fill="rgb(255,225,170)" d="M712.205 -34.2814l-1.80942 -4.17536l2.64955 -2.8743l2.07033 5.77672l1.93036 -5.18549l-0.33383 -3.17885l-0.576296 -3.76466l-0.397667 -2.08409l-0.475561 -2.85366l-4.59338 -2.68748l0.33588 4.38225l-4.00508 0.150663l-0.924474 2.52876l-4.30845 1.55172l-2.00298 -2.56522l-3.08997 2.13505l-3.57022 1.59389l-2.22377 4.77611l0.938237 1.65861l4.19337 -3.16172l2.66654 0.21816l1.78013 -2.34969l3.58955 2.67986l-1.72801 2.69436l1.59272 4.10142l6.6681 3.28866l1.62435 -2.6557"/>
<path fill="rgb(255,225,170)" d="M460.235 -35.1171l2.37605 -1.61292l0.853609 -5.90059l-2.74063 -5.89986l-2.63784 -3.99058l-3.91576 -3.14869l-2.56493 9.19833l1.00471 8.14515l2.6967 4.50553l4.92809 -1.29637"/>
<path fill="rgb(255,225,170)" d="M698.756 -52.8035l1.77515 -3.58032l2.03578 -1.86256l0.541156 -5.4057l-4.19425 5.47027l0.912761 -3.81503l-3.12482 0.332951l-0.625199 3.51736l-1.42229 1.5873l-1.16753 1.51688l3.48969 3.91664l1.77955 -1.67779"/>
<path fill="rgb(255,225,170)" d="M671.526 -52.7928l2.97431 -3.89453l3.74124 -3.12028l-1.00969 -4.62047l-2.97021 5.62913l-3.40243 3.92016l-4.09381 3.4998l-2.77781 3.9632l7.5384 -5.377"/>
<path fill="rgb(255,225,170)" d="M694.947 -60.8674l2.62437 -2.40621l0.109813 -2.36712l-3.60624 0.0083453l-3.40155 -1.75422l0.877327 2.69685l-0.402353 2.89085l0.199713 2.63316l3.59892 -1.70165"/>
<path fill="rgb(255,225,170)" d="M709.906 -58.6994l-1.38656 -3.49687l-0.118305 -1.90195l4.37229 1.50355l-1.59184 -6.32725l-1.5608 -2.11382l-5.44201 -0.124893l3.46363 4.3269l0.0737942 2.14544l-3.33478 -0.452134l0.887284 3.43083l1.70605 0.294297l0.236023 3.98546l2.69524 -1.26958"/>
<path fill="rgb(255,225,170)" d="M688.655 -74.061l-1.96784 -2.04061l-4.85459 -0.208058l2.89261 4.31753l2.427 2.8273l1.50282 -4.89617"/>
<path fill="rgb(255,225,170)" d="M703.694 -73.6527l-1.84836 -1.36138l0.539399 -3.0847l-7.07778 -3.14166l-2.50665 0.670588l-3.00388 -0.62432l-1.26797 -4.51314l0.893726 -4.56849l3.34064 -1.87809l1.49228 -4.70934l-1.93446 -4.06174l0.921839 -2.3494l-0.515386 -1.43971l-1.74763 1.47559l-3.49233 -1.6179l-3.43083 -0.00658863l-1.84631 5.13483l-0.586838 8.86523l-2.28205 -1.86476l0.210547 5.42503l0.847167 2.4677l2.79773 3.25601l0.732083 -2.04222l1.6914 1.31057l-1.77047 1.44147l-0.287562 2.34237l2.82057 1.25215l5.14683 -0.837503l3.608 3.39233l1.45802 -2.08014l2.09317 2.97723l4.41651 2.78148l0.588594 -2.61149"/>
<path fill="rgb(255,225,170)" d="M625.255 -105.844l1.3116 -3.27241l2.48996 -2.49362l-1.2665 -2.16243l-3.25806 -0.13441l-6.19108 1.58789l-2.79275 2.56785l0.164279 4.8745l4.64668 1.75656l4.89588 -2.72393"/>
<path fill="rgb(255,225,170)" d="M686.662 -129.148l3.41238 -9.08603l0.982748 -3.41883l-2.58513 -1.68789l-4.5354 4.28971l-3.33478 5.56573l0.645404 4.20128l2.98631 4.78431l2.42846 -4.64829"/>
<path fill="rgb(255,225,170)" d="M755.255 -188.641l2.9052 -1.31702l2.32597 1.81791l3.19012 -3.42922l-0.725055 -1.94309l-4.16116 -1.22229l-2.32978 2.38176l-3.22204 -0.655507l-3.13478 3.38105l-0.0456818 2.68748l3.69321 1.61395l1.50399 -3.31502"/>
<path fill="rgb(255,225,170)" d="M744.219 -178.219l3.78106 -9.63128l-5.74539 -4.16936l6.63355 -0.108641l6.70676 -2.66903l9.85501 -1.2501l0.235438 4.23568l3.808 2.17751l8.07282 -6.46839l9.9616 -0.347447l7.24059 -2.66625l2.95117 -3.99366l-0.987726 -2.8396l2.13417 -4.52251l-0.0957565 -5.84758l5.2423 -5.70556l0.168086 -4.59426l-3.08997 -7.85935l-6.02475 1.04014l-2.39362 3.57959l0.971327 6.3722l-3.56085 6.92946l-3.22321 2.20137l-8.31295 5.6672l-3.77843 -2.70636l-5.92899 10.0745l-6.05901 -1.15874l-11.2802 1.68994l-4.15618 3.87418l-5.69941 2.9295l-2.97226 3.56202l-5.35767 1.74587l2.30196 3.8859l3.58691 1.64807l-1.38979 5.10701l2.74209 2.2024l3.66334 -2.38439"/>
<path fill="rgb(255,225,170)" d="M799.381 -235.646l3.08383 -6.20045l8.91003 3.8736l4.96294 -5.62781l8.40636 -1.55114l-1.25977 -6.36165l-4.00859 2.40182l-3.98517 -1.20823l-4.34799 -1.90546l-6.65961 -5.89971l-1.67559 4.41636l-1.65129 7.8387l-6.05462 0.314795l-2.80241 4.36058l0.779522 5.63382l6.30235 -0.0852148"/>
<path fill="rgb(255,225,170)" d="M808.904 -264.864l4.29293 3.41619l0.159887 -3.95998l-5.524 -5.80747l3.48647 -8.1882l8.38791 1.87091l-5.70146 -10.0369l-2.33886 -5.71801l0.144953 -5.57657l-1.96198 -5.46163l-1.47236 -3.74739l-2.52188 0.795628l2.25072 2.62554l-5.2382 2.60768l-0.501331 7.74368l3.32014 5.57086l-0.250372 7.57735l-1.31101 4.28386l0.64599 6.11465l-0.631934 5.52049l1.04893 4.75532l3.71547 -4.38605"/>
<path fill="rgb(255,225,170)" d="M813.755 -414.87l-0.68578 -1.48926l-8.05097 -2.16654l-7.08537 0.524279l-5.37534 2.23964l0.991865 0.299824l11.6137 0.631719l8.59191 -0.0396667"/>
<path fill="rgb(255,225,170)" d="M854.146 -425.476l-14.2202 -1.48345l-10.5612 -0.855525l-1.356 1.83509l10.5302 2.23621l9.05794 0.506798l6.54922 -2.23913"/>
<path fill="rgb(255,225,170)" d="M796.812 -424.137l20.8884 0.156853l4.45561 -4.20821l-20.4831 -3.00484l-14.9631 -0.248596l-7.47612 1.06301l-3.0451 3.89583l11.226 3.68441l9.39743 -1.33847"/>
<path fill="rgb(255,225,170)" d="M326.036 -400.749l-10.8395 -4.64741l-1.15318 -4.70715l8.88221 -5.45006l8.44501 -5.53074l17.6031 -5.39369l17.305 -2.70226l20.0784 -2.81003l3.80595 -1.76329l-3.93919 -2.23768l-11.0278 0.736182l-9.70478 2.10079l-18.8605 1.06064l-18.7079 3.64079l-12.6747 2.99188l1.53298 2.57225l-5.11393 1.8747v20.324l11.0215 0.438198l3.34738 -0.497084"/>
<path fill="rgb(255,225,170)" d="M590.63 -7.32751l0.10791 -1.91644l-2.22841 -5.01056l-1.99565 -1.56158l-0.413656 -3.35352l-0.552002 -1.94826l0.604228 -2.57843l-0.32546 -3.81594l-2.37748 -3.79311l-3.34591 -3.42165l-1.30322 -0.529175l-2.9364 -2.94124l-3.43306 -0.658183l-3.16191 -3.24595l-1.01754 -4.90507l-2.29966 -5.17139l-3.69143 -0.178121l-0.389791 -4.10128l1.84277 -5.00606l3.05884 -8.27692l0.448934 -6.23216l4.99015 -0.0328576l-0.83077 4.45199l4.84593 -0.106527l5.08873 2.60195l2.86515 5.85378l2.30416 2.95231l4.7439 0.827311l4.20365 3.21967l-1.59237 3.83877l2.05721 3.6347l7.065 -5.27688l4.62284 -4.72384l6.48948 -3.64819l4.72591 -3.73189l0.766439 -9.96889l-2.59676 -10.4867l-3.44309 -4.55056l-5.14303 -3.50085l-5.29832 -7.40395l-4.3337 -5.9738l1.24443 -3.93146l4.72245 -5.354l7.56616 -4.84835l2.67804 -0.922424l7.60248 1.81441l-1.34196 2.19175l1.48584 4.11304l3.14046 -0.332377l1.93477 -5.98486l5.99628 -0.868123l7.9186 -2.83921l3.20618 -2.815l1.95864 1.83828l3.46454 -2.51721l6.38503 -0.650574l7.88228 -4.76914l7.79305 -5.23018l5.262 -6.76272l4.58999 -7.43681l4.13759 -6.13359l3.16675 -0.509115l1.43915 -4.49141l0.870544 -4.61489l-3.33553 -1.75873l-1.35545 -3.02287l3.55654 -1.54671l0.0916544 -4.21057l-3.84741 -4.35203l-3.44897 -5.19283l-2.22703 -5.57467l-6.09831 -3.11348l2.90908 -3.96674l5.51034 -2.84233l2.6476 -3.05884l8.02271 -1.58337l-0.918966 -2.96822l-3.6641 -0.150452l-5.03097 -2.20662l-6.3501 4.04594l-4.48346 -1.65462l-0.189189 -2.54315l-4.63875 -0.930725l-2.98621 -3.8315l2.89006 -2.64414l5.55772 -0.272197l3.49186 -3.65926l6.39748 -3.9408l4.94035 -2.00014l2.99312 2.96926l-4.48692 3.80902l1.18563 2.20662l-3.01145 2.62581l6.10211 -1.54671l4.17149 -2.64864l7.92206 -1.64701l2.67354 1.52008l3.30717 0.616333l0.371806 0.927266l-1.43846 3.05538l0.504618 1.03587l-1.33643 0.6651l-1.55155 2.49473l1.52319 0.903056l1.46785 0.519144l0.199564 1.0663l1.66119 -0.470031l0.683431 -1.06561l2.75171 1.0791l3.88511 4.84939l-4.20919 0.954243l2.50372 5.89805l-1.05074 4.25l0.633626 3.08616l5.10429 -0.48525l4.53015 -2.3505l5.13161 -1.08809l2.13538 -3.11418l-0.0442708 -6.52926l-1.40318 -3.6731l-4.89158 -6.68559l-3.20929 -2.48539l-2.25435 -0.921386l0.660604 -0.625671l0.178121 -2.45357l2.45945 -1.52216l3.77374 -0.931417l2.13641 -1.67503l1.00647 -0.999898l2.93087 -1.25203l-0.214437 -4.0698l1.69094 -1.92786l2.46049 -1.9199l2.15336 0.339986l0.882995 -1.88462l7.60559 -4.14693l3.56 2.75378l3.57349 -0.0736695l7.55129 -3.32515l3.65961 -3.34764l7.63291 -6.54171l7.69206 -6.59843l1.89811 -3.92004l8.54185 -8.19979l2.55595 -9.05961l0.477987 -6.76721l4.4302 -5.66217l-0.192647 -4.82137l-8.18146 -6.2332l-6.21521 -0.368348l-3.62675 2.83091l-5.50342 -1.25895l-2.78664 -3.54962l-8.92749 -0.713867l21.7159 -13.3643l18.3565 -11.0615l18.6401 -1.67953l17.3265 0.97465l7.01969 -2.78353l8.80817 0.859131l-0.410197 4.09817l8.76182 -0.583822l12.648 -1.47996l-4.67957 -3.47491l14.1815 -9.49851l14.6291 -1.9244l4.64221 6.96885l14.3728 -6.22316l3.40332 -4.66815l6.88619 -0.478333l-4.55609 7.98881l-10.1864 4.52116l-9.75446 5.82646l-10.1228 7.13521l-8.80505 1.26725l-0.295716 2.64864l-4.7816 3.38188l-2.72439 7.85842l3.16294 12.5926l2.42659 8.26654l2.0956 3.90413l8.16797 -5.27895l1.69751 -5.75728l8.44812 -1.38277l1.96728 -6.47011l9.90871 -2.89455l-2.35742 -2.43905l2.4266 -4.74078l5.25993 -0.209595l0.759176 -8.24959l-6.45317 -1.26933l-0.203023 -2.29032l6.79903 -5.4844l1.82583 -3.72636l7.57965 0.776469l5.45811 -2.42763l2.57843 2.10459l14.764 -4.44714l8.10537 3.91901l2.08315 -2.57497l8.22573 -3.47803l8.67017 -3.98161l5.03857 -0.660604l2.44078 -0.65723v-45.1703l-7.68445 0.22096l-18.0791 -1.58441l-2.52275 2.51721l4.58203 3.62225l-7.02212 1.81199l-9.87136 -5.0365l-10.7395 0.626709l-10.6987 -1.11161l-10.0491 0.148377l-7.58449 1.16038l-6.9813 -1.61381l0.689311 -4.14347l-4.71692 -2.34255l-11.2825 -0.933838l-22.8821 1.07218l-14.8328 -4.33059l-4.82345 -3.36355l-51.1816 -3.68001l-7.48108 2.45461l4.09125 5.26097l-9.26921 -0.794454l-4.17322 1.58891l-10.9684 -1.74282l-9.65796 1.52319l-9.09074 -2.54903l-5.4671 5.94543l-8.91123 -2.3007l-7.11757 -4.45959l3.35248 -2.37195l-2.60887 -3.62675l-9.15057 -2.98517l-9.04612 0.0304362l-12.0261 -0.991598l-0.324077 4.32817l-23.6901 -0.843221l-1.38139 -2.64968l-18.1811 -0.936259l-9.06099 0.895447l-2.4885 1.47235l-2.89144 -3.63713l-5.10083 1.07218l-8.38241 -1.43016l-7.02661 -0.793417l4.25692 -1.68056l14.8919 -3.14634l6.26847 -1.6771l1.40975 -2.94574l-4.54917 -2.12258l-12.7739 -2.76416l-16.5656 -0.0750527l-5.1783 1.37828l-1.52907 -2.80048l-12.8361 -0.868124l7.71592 -1.39626l-9.71849 -1.83586l-13.3777 2.3256l-5.41522 2.41172l-1.56158 2.44562l-10.4109 -0.0940757l-12.7171 3.01111l-4.63633 -1.27244l-14.8795 0.525716l-1.8905 1.55259l-14.9635 0.755026l-11.0182 2.81154l-6.50989 0.155293l-6.55727 3.72186l4.60486 2.96269l-12.28 0.742228l-13.6292 -0.250407l-9.85441 1.14343l0.564453 6.03743l5.03996 4.71899l-10.4721 -3.23004l-11.7605 0.29952l-9.48399 2.22807l2.58431 4.08675l-6.06337 -1.03587l2.23464 -5.4671l-2.97721 -3.14288l-2.82642 0.129354l1.31256 4.02899l-10.1425 3.82043l7.36003 4.61939l-4.52185 5.69053l1.36202 3.15188l6.19722 0.465535l-2.64414 3.74123l3.30267 3.22209l-4.90507 2.69845l-1.50417 2.80393l-6.23562 1.45506l-2.25297 2.03992l-6.47703 -0.835266l11.0988 -8.04865l2.43213 -3.78204l-6.25153 -3.47353l1.28731 -7.76469l-1.82341 -3.96189l-3.52472 -1.8068l5.37199 -4.59552l-1.18182 -3.15188l-15.0019 -1.49483l-4.21507 1.11403l-3.7184 5.15098l-10.4573 5.13057l0.171204 1.81441l3.03151 4.4212l-1.86871 2.68599l6.82947 0.556498l0.165324 1.20258l5.75867 2.9952l-3.78896 2.96615l-20.5358 -6.47496l-7.84285 -1.77118l-16.7392 -1.7148l-2.94678 1.8701l5.93748 3.2833l-6.43933 3.7523l-6.45662 -3.4137l-8.41526 2.34947l-10.6215 0.156331l-2.50856 1.19625v235.791l4.10093 -1.96795l4.35445 -1.012l2.71297 1.00405l2.41622 6.94845l6.39541 0.735656l6.17786 1.30322l10.6613 1.71031l7.97982 -0.794454l9.2073 -0.105489l10.4403 -1.0663l4.37797 4.31571l1.6899 4.07326l4.1535 1.43258l6.64685 4.80961l1.67295 2.22496l-2.72439 2.04787l7.40291 6.86786l3.99371 0.678935l8.24717 -3.39191l1.09847 5.30731l-0.0204062 6.86336l1.69405 7.25108l2.34843 10.9819l5.15444 7.78267l0.979147 3.53959l1.40664 7.08783l3.01007 5.44324l1.98562 2.68046l2.17377 5.71543l2.62339 7.93555l5.36542 5.2914l2.27441 -1.62868l1.90849 -3.85433l5.16585 -1.60689l-1.7238 -1.86664l2.57843 -4.32263l2.93294 -0.274272l0.0249022 -9.62752l2.40169 -5.3834l-0.300558 -4.70101l-1.17975 -7.37006l1.69889 -4.32263l2.6476 -0.299175l5.10325 -2.02989l2.82538 -1.39626l0.00899243 -2.60679l5.64626 -3.70941l4.26038 -3.57452l6.34214 -6.66726l8.15448 -3.81352l3.0246 -3.35248l-0.325114 -4.26245l6.9858 -1.17767l3.85571 0.0715944l0.811401 -2.06862l2.19175 0.506693l1.60482 0.618754l0.823852 -1.03137l2.41069 1.14827l1.78052 -3.15291l-0.515686 -2.33598l5.21912 0.226888l2.36745 3.29887l1.0791 2.72681l0.326152 2.8866l1.61865 2.95473l4.02207 4.62181l3.31512 0.726318l-0.692769 2.04338l4.44161 6.53375l1.18217 5.30524l-1.95276 7.02212l3.51088 1.32916l3.17816 0.504618l6.44071 -4.03937l3.73293 -2.84129l2.45046 4.69202l1.02342 7.15942l1.84727 6.78174l2.3007 2.93536l-0.461385 6.17336l1.90538 3.35352l-1.74109 4.34062l0.545431 4.20573l-1.66742 5.43563l-0.618754 3.53475l1.07461 3.14842l0.930379 -3.33103l2.74479 2.68738l3.01145 3.19926l0.968771 2.80601l2.23948 2.17515l1.24892 2.40135l-0.620829 4.12653l2.04441 3.08962l0.782003 4.69305l3.27639 3.78965l0.663025 2.8866l6.70392 4.49833l5.36058 4.19777l4.01862 -0.378378z
M591.033 -291.833L587.973 -292.4L587.18 -293.193L588.54 -293.873L591.6 -293.873L595.34 -294.667L597.72 -296.253L600.553 -297.613L602.14 -298.18L603.953 -299.2L603.727 -299.993L606.787 -301.353L608.033 -302.487L609.733 -303.28L612.226 -305.206L614.153 -307.473L617.965 -311.823L618.763 -314.702L620.54 -315.809L622.936 -315.707L621.633 -311.553L621.407 -310.08L620.386 -307.927L619.48 -304.98L618.914 -303.847L617.667 -304.753L615.4 -302.827L616.533 -302.487L616.307 -301.467L614.607 -301.127L613.02 -299.2L610.866 -297.953L608.147 -297.047L604.294 -296.48L601.233 -294.893L599.194 -293.307L596.36 -291.947L593.98 -291.607L591.033 -291.833z
M416.142 -258.454L416.16 -259.567L417.844 -260.739L417.516 -261.704L419.451 -261.828L419.868 -263.091L424.657 -265.295L431.818 -265.087L437.361 -264.313L441.206 -264.338L443.683 -263.322L444.25 -264.393L447.614 -264.909L449.056 -264.323L447.043 -262.763L444.522 -262.351L437.501 -262.908L428.464 -263.541L427.626 -264.467L427.299 -263.335L424.497 -262.96L423.705 -261.278L420.909 -260.69L419.9 -254.937L416.142 -258.454z
M334.69 -251.426L336.292 -254.984L336.369 -256.077L334.115 -257.125L333.888 -255.577L333.888 -253.502L331.484 -250.537L330.282 -252.019L330.282 -254.391L332.577 -257.833L333.087 -260.025L335.491 -260.321L337.365 -258.995L337.494 -262.397L338.697 -262.1L340.7 -261.211L340.7 -260.025L339.698 -259.58L339.097 -257.949L340.7 -258.246L341.36 -253.776L340.299 -250.833L338.697 -250.24L334.69 -251.426"/>
<path fill="rgb(255,225,170)" d="M313.224 -97.6269l-0.0273235 -2.28963l2.21804 -1.42773l3.52472 0.046346l1.29665 -1.19566l0.551656 -2.7607l3.53959 -2.11843l2.60783 0.0193687l0.533671 -0.69692l-0.695882 -3.78758l0.909973 -2.87311l1.17767 -1.35095l2.57151 0.297099l2.11359 -3.88165l2.38786 -1.81234l0.905822 -1.58995l2.0624 -3.37738l0.0103757 -1.26483l-2.02885 -0.717326l-1.52769 -1.88255l-2.55664 -3.24803l-3.35594 -1.03276l-4.15696 -0.74119l-3.16329 -2.05686l-2.54073 -3.87024l-0.769552 -4.47689l0.73877 -1.02791l0.534017 -2.34013l-0.700378 -0.491821l-1.65013 1.92889l-3.5804 3.4929l-2.48816 2.13861v45.2831l1.55778 -0.893753"/>
<path fill="rgb(255,225,170)" d="M595.428 -443.739l1.68277 -2.30322l-14.3628 -3.21838l-4.2583 -0.369013l-4.65488 0.637047l-10.3516 7.44028l31.9449 -2.18671"/>
<path fill="rgb(255,225,170)" d="M566.325 -446.992l1.39907 -5.09544l-2.96747 -1.2459h-39.4612l3.47723 3.24983l9.40502 2.16328l15.7837 1.63509l12.3636 -0.706859"/>
<path fill="rgb(114,163,255)" d="M412.651 -377.019l6.23562 -1.45506l1.50417 -2.80393l4.90507 -2.69845l-3.30267 -3.22209l2.64414 -3.74123l-6.19722 -0.465535l-1.36202 -3.15188l4.52185 -5.69053l-7.36003 -4.61939l10.1425 -3.82043l-1.31256 -4.02899l2.82642 -0.129354l2.97721 3.14288l-2.23464 5.4671l6.06337 1.03587l-2.58431 -4.08675l9.48399 -2.22807l11.7605 -0.29952l10.4721 3.23004l-5.03996 -4.71899l-0.564453 -6.03743l9.85441 -1.14343l13.6292 0.250407l12.28 -0.742228l-4.60486 -2.96269l6.55727 -3.72186l6.50989 -0.155293l11.0182 -2.81154l14.9635 -0.755026l1.8905 -1.55259l14.8795 -0.525716l4.63633 1.27244l12.7171 -3.01111l10.4109 0.0940757l1.56158 -2.44562l5.41522 -2.41172l13.3777 -2.3256l9.71849 1.83586l-7.71592 1.39626l12.8361 0.868124l1.52907 2.80048l5.1783 -1.37828l16.5656 0.0750527l12.7739 2.76416l4.54917 2.12258l-1.40975 2.94574l-6.26847 1.6771l-14.8919 3.14634l-4.25692 1.68056l7.02661 0.793417l8.38241 1.43016l5.10083 -1.07218l2.89144 3.63713l2.4885 -1.47235l9.06099 -0.895447l18.1811 0.936259l1.38139 2.64968l23.6901 0.843221l0.324077 -4.32817l12.0261 0.991598l9.04612 -0.0304362l9.15057 2.98517l2.60887 3.62675l-3.35248 2.37195l7.11757 4.45959l8.91123 2.3007l5.4671 -5.94543l9.09074 2.54903l9.65796 -1.52319l10.9684 1.74282l4.17322 -1.58891l9.26921 0.794454l-4.09125 -5.26097l7.48108 -2.45461l51.1816 3.68001l4.82345 3.36355l14.8328 4.33059l22.8821 -1.07218l11.2825 0.933838l4.71692 2.34255l-0.689311 4.14347l6.9813 1.61381l7.58449 -1.16038l10.0491 -0.148377l10.6987 1.11161l10.7395 -0.626709l9.87136 5.0365l7.02212 -1.81199l-4.58203 -3.62225l2.52275 -2.51721l18.0791 1.58441l7.68445 -0.22096v-57.4798h-426.91l2.96747 1.2459l-1.39907 5.09544l-12.3636 0.706859l-15.7837 -1.63509l-9.40502 -2.16328l-3.47723 -3.24983h-213.629v32.3189l5.11393 -1.8747l-1.53298 -2.57225l12.6747 -2.99188l18.7079 -3.64079l18.8605 -1.06064l9.70478 -2.10079l11.0278 -0.736182l3.93919 2.23768l-3.80595 1.76329l-20.0784 2.81003l-17.305 2.70226l-17.6031 5.39369l-8.44501 5.53074l-8.88221 5.45006l1.15318 4.70715l10.8395 4.64741l-3.34738 0.497084l-11.0215 -0.438198v14.0672l2.50856 -1.19625l10.6215 -0.156331l8.41526 -2.34947l6.45662 3.4137l6.43933 -3.7523l-5.93748 -3.2833l2.94678 -1.8701l16.7392 1.7148l7.84285 1.77118l20.5358 6.47496l3.78896 -2.96615l-5.75867 -2.9952l-0.165324 -1.20258l-6.82947 -0.556498l1.86871 -2.68599l-3.03151 -4.4212l-0.171204 -1.81441l10.4573 -5.13057l3.7184 -5.15098l4.21507 -1.11403l15.0019 1.49483l1.18182 3.15188l-5.37199 4.59552l3.52472 1.8068l1.82341 3.96189l-1.28731 7.76469l6.25153 3.47353l-2.43213 3.78204l-11.0988 8.04865l6.47703 0.835266l2.25297 -2.03992z
M573.834 -448.993L578.489 -449.63L582.748 -449.261L597.11 -446.042L595.428 -443.739L563.483 -441.552L573.834 -448.993z
M776.188 -426.483L779.233 -430.379L786.709 -431.442L801.672 -431.193L822.156 -428.188L817.7 -423.98L796.812 -424.137L787.414 -422.798L776.188 -426.483z
M838.539 -423.744L828.009 -425.98L829.365 -427.815L839.926 -426.96L854.146 -425.476L847.597 -423.237L838.539 -423.744z
M793.55 -415.463L792.558 -415.762L797.933 -418.002L805.018 -418.526L813.069 -416.36L813.755 -414.87L805.163 -414.831L793.55 -415.463"/>
<path fill="rgb(114,163,255)" d="M991.667 -350.683l-2.44078 0.65723l-5.03857 0.660604l-8.67017 3.98161l-8.22573 3.47803l-2.08315 2.57497l-8.10537 -3.91901l-14.764 4.44714l-2.57843 -2.10459l-5.45811 2.42763l-7.57965 -0.776469l-1.82583 3.72636l-6.79903 5.4844l0.203023 2.29032l6.45317 1.26933l-0.759176 8.24959l-5.25993 0.209595l-2.4266 4.74078l2.35742 2.43905l-9.90871 2.89455l-1.96728 6.47011l-8.44812 1.38277l-1.69751 5.75728l-8.16797 5.27895l-2.0956 -3.90413l-2.42659 -8.26654l-3.16294 -12.5926l2.72439 -7.85842l4.7816 -3.38188l0.295716 -2.64864l8.80505 -1.26725l10.1228 -7.13521l9.75446 -5.82646l10.1864 -4.52116l4.55609 -7.98881l-6.88619 0.478333l-3.40332 4.66815l-14.3728 6.22316l-4.64221 -6.96885l-14.6291 1.9244l-14.1815 9.49851l4.67957 3.47491l-12.648 1.47996l-8.76182 0.583822l0.410197 -4.09817l-8.80817 -0.859131l-7.01969 2.78353l-17.3265 -0.97465l-18.6401 1.67953l-18.3565 11.0615l-21.7159 13.3643l8.92749 0.713867l2.78664 3.54962l5.50342 1.25895l3.62675 -2.83091l6.21521 0.368348l8.18146 6.2332l0.192647 4.82137l-4.4302 5.66217l-0.477987 6.76721l-2.55595 9.05961l-8.54185 8.19979l-1.89811 3.92004l-7.69206 6.59843l-7.63291 6.54171l-3.65961 3.34764l-7.55129 3.32515l-3.57349 0.0736695l-3.56 -2.75378l-7.60559 4.14693l-0.882995 1.88462l-2.15336 -0.339986l-2.46049 1.9199l-1.69094 1.92786l0.214437 4.0698l-2.93087 1.25203l-1.00647 0.999898l-2.13641 1.67503l-3.77374 0.931417l-2.45945 1.52216l-0.178121 2.45357l-0.660604 0.625671l2.25435 0.921386l3.20929 2.48539l4.89158 6.68559l1.40318 3.6731l0.0442708 6.52926l-2.13538 3.11418l-5.13161 1.08809l-4.53015 2.3505l-5.10429 0.48525l-0.633626 -3.08616l1.05074 -4.25l-2.50372 -5.89805l4.20919 -0.954243l-3.88511 -4.84939l-2.75171 -1.0791l-0.683431 1.06561l-1.66119 0.470031l-0.199564 -1.0663l-1.46785 -0.519144l-1.52319 -0.903056l1.55155 -2.49473l1.33643 -0.6651l-0.504618 -1.03587l1.43846 -3.05538l-0.371806 -0.927266l-3.30717 -0.616333l-2.67354 -1.52008l-7.92206 1.64701l-4.17149 2.64864l-6.10211 1.54671l3.01145 -2.62581l-1.18563 -2.20662l4.48692 -3.80902l-2.99312 -2.96926l-4.94035 2.00014l-6.39748 3.9408l-3.49186 3.65926l-5.55772 0.272197l-2.89006 2.64414l2.98621 3.8315l4.63875 0.930725l0.189189 2.54315l4.48346 1.65462l6.3501 -4.04594l5.03097 2.20662l3.6641 0.150452l0.918966 2.96822l-8.02271 1.58337l-2.6476 3.05884l-5.51034 2.84233l-2.90908 3.96674l6.09831 3.11348l2.22703 5.57467l3.44897 5.19283l3.84741 4.35203l-0.0916544 4.21057l-3.55654 1.54671l1.35545 3.02287l3.33553 1.75873l-0.870544 4.61489l-1.43915 4.49141l-3.16675 0.509115l-4.13759 6.13359l-4.58999 7.43681l-5.262 6.76272l-7.79305 5.23018l-7.88228 4.76914l-6.38503 0.650574l-3.46454 2.51721l-1.95864 -1.83828l-3.20618 2.815l-7.9186 2.83921l-5.99628 0.868123l-1.93477 5.98486l-3.14046 0.332377l-1.48584 -4.11304l1.34196 -2.19175l-7.60248 -1.81441l-2.67804 0.922424l-7.56616 4.84835l-4.72245 5.354l-1.24443 3.93146l4.3337 5.9738l5.29832 7.40395l5.14303 3.50085l3.44309 4.55056l2.59676 10.4867l-0.766439 9.96889l-4.72591 3.73189l-6.48948 3.64819l-4.62284 4.72384l-7.065 5.27688l-2.05721 -3.6347l1.59237 -3.83877l-4.20365 -3.21967l-4.7439 -0.827311l-2.30416 -2.95231l-2.86515 -5.85378l-5.08873 -2.60195l-4.84593 0.106527l0.83077 -4.45199l-4.99015 0.0328576l-0.448934 6.23216l-3.05884 8.27692l-1.84277 5.00606l0.389791 4.10128l3.69143 0.178121l2.29966 5.17139l1.01754 4.90507l3.16191 3.24595l3.43306 0.658183l2.9364 2.94124l1.30322 0.529175l3.34591 3.42165l2.37748 3.79311l0.32546 3.81594l-0.604228 2.57843l0.552002 1.94826l0.413656 3.35352l1.99565 1.56158l2.22841 5.01056l-0.10791 1.91644l-4.01862 0.378378l-5.36058 -4.19777l-6.70392 -4.49833l-0.663025 -2.8866l-3.27639 -3.78965l-0.782003 -4.69305l-2.04441 -3.08962l0.620829 -4.12653l-1.24892 -2.40135l-2.23948 -2.17515l-0.968771 -2.80601l-3.01145 -3.19926l-2.74479 -2.68738l-0.930379 3.33103l-1.07461 -3.14842l0.618754 -3.53475l1.66742 -5.43563l-0.545431 -4.20573l1.74109 -4.34062l-1.90538 -3.35352l0.461385 -6.17336l-2.3007 -2.93536l-1.84727 -6.78174l-1.02342 -7.15942l-2.45046 -4.69202l-3.73293 2.84129l-6.44071 4.03937l-3.17816 -0.504618l-3.51088 -1.32916l1.95276 -7.02212l-1.18217 -5.30524l-4.44161 -6.53375l0.692769 -2.04338l-3.31512 -0.726318l-4.02207 -4.62181l-1.61865 -2.95473l-0.326152 -2.8866l-1.0791 -2.72681l-2.36745 -3.29887l-5.21912 -0.226888l0.515686 2.33598l-1.78052 3.15291l-2.41069 -1.14827l-0.823852 1.03137l-1.60482 -0.618754l-2.19175 -0.506693l-0.811401 2.06862l-3.85571 -0.0715944l-6.9858 1.17767l0.325114 4.26245l-3.0246 3.35248l-8.15448 3.81352l-6.34214 6.66726l-4.26038 3.57452l-5.64626 3.70941l-0.00899243 2.60679l-2.82538 1.39626l-5.10325 2.02989l-2.6476 0.299175l-1.69889 4.32263l1.17975 7.37006l0.300558 4.70101l-2.40169 5.3834l-0.0249022 9.62752l-2.93294 0.274272l-2.57843 4.32263l1.7238 1.86664l-5.16585 1.60689l-1.90849 3.85433l-2.27441 1.62868l-5.36542 -5.2914l-2.62339 -7.93555l-2.17377 -5.71543l-1.98562 -2.68046l-3.01007 -5.44324l-1.40664 -7.08783l-0.979147 -3.53959l-5.15444 -7.78267l-2.34843 -10.9819l-1.69405 -7.25108l0.0204062 -6.86336l-1.09847 -5.30731l-8.24717 3.39191l-3.99371 -0.678935l-7.40291 -6.86786l2.72439 -2.04787l-1.67295 -2.22496l-6.64685 -4.80961l-4.1535 -1.43258l-1.6899 -4.07326l-4.37797 -4.31571l-10.4403 1.0663l-9.2073 0.105489l-7.97982 0.794454l-10.6613 -1.71031l-6.17786 -1.30322l-6.39541 -0.735656l-2.41622 -6.94845l-2.71297 -1.00405l-4.35445 1.012l-4.10093 1.96795v8.81592l2.48816 -2.13861l3.5804 -3.4929l1.65013 -1.92889l0.700378 0.491821l-0.534017 2.34013l-0.73877 1.02791l0.769552 4.47689l2.54073 3.87024l3.16329 2.05686l4.15696 0.74119l3.35594 1.03276l2.55664 3.24803l1.52769 1.88255l2.02885 0.717326l-0.0103757 1.26483l-2.0624 3.37738l-0.905822 1.58995l-2.38786 1.81234l-2.11359 3.88165l-2.57151 -0.297099l-1.17767 1.35095l-0.909973 2.87311l0.695882 3.78758l-0.533671 0.69692l-2.60783 -0.0193687l-3.53959 2.11843l-0.551656 2.7607l-1.29665 1.19566l-3.52472 -0.046346l-2.21804 1.42773l0.0273235 2.28963l-1.55778 0.893753v96.7331h251.921l-1.09352 -1.0378l-1.66446 -4.87186l-2.08907 -4.42354l-5.10994 -3.56817l-2.96171 -4.84844l-4.26658 -3.17373l-5.91113 -6.24423l-0.497816 -2.88455l3.64841 0.22841l8.77211 1.09476l5.01096 5.54172l4.38254 3.84212l3.12482 2.35745l5.3688 6.09137l5.76061 0.0888749l4.76147 3.88165l3.27856 4.74492l4.31548 2.58864l-0.290765 0.592403h29.6461l-0.37455 -2.35379l0.660045 -5.2505l3.3667 -3.76569l4.15296 1.94192l4.37873 -1.05888l1.14029 -4.79778l2.4188 -1.06869l6.79256 -1.22682l4.06482 -4.48298l2.78279 -3.5834l2.24369 -2.12011l4.82091 -3.10374l4.36351 -3.94095l2.85805 -4.42895l2.2923 -0.0185946l2.91135 2.86669l0.258865 2.46317l3.73216 1.57983l4.72721 1.70487l-0.403524 2.21967l-3.80215 0.28112l1.01203 2.76713l-4.17229 1.93036l-3.22321 5.1177l4.16555 5.36485l-0.978649 2.60695l6.35301 5.24406l-6.71437 0.668538l-1.88994 3.86335l0.0277497 0.580689h12.9842l0.291449 -0.874108l1.18832 -2.33593l4.8171 -4.20889l4.42588 1.67325l7.14425 0.786257l6.51642 -0.237488l5.60131 -4.11489l0.988897 1.26606l-4.55297 5.62108l-4.25867 1.08963l-5.45372 -1.10808l-9.4427 0.282877l-4.95064 0.815833l-0.252597 1.3444h42.4775l-1.33193 -5.73309l1.13912 -4.52749l1.88057 -2.06213l0.406745 3.09437l3.34562 0.497084l0.530907 2.31441l-0.296347 4.9521l-2.92277 -0.554919l-0.504961 2.01967h266.157v-350.683z
M804.139 -265.234L804.771 -270.754L804.125 -276.869L805.436 -281.153L805.687 -288.73L802.366 -294.301L802.868 -302.044L808.106 -304.652L805.855 -307.278L808.377 -308.073L809.849 -304.326L811.811 -298.864L811.667 -293.288L814.005 -287.57L819.707 -277.533L811.319 -279.404L807.832 -271.216L813.356 -265.408L813.197 -261.448L808.904 -264.864L805.188 -260.478L804.139 -265.234z
M792.299 -241.195L795.102 -245.555L801.156 -245.87L802.808 -253.709L804.483 -258.125L811.143 -252.225L815.491 -250.32L819.476 -249.112L823.485 -251.513L824.744 -245.152L816.338 -243.601L811.375 -237.973L802.465 -241.846L799.381 -235.646L793.079 -235.561L792.299 -241.195z
M737.814 -178.037L739.203 -183.144L735.617 -184.792L733.315 -188.678L738.672 -190.424L741.645 -193.986L747.344 -196.915L751.5 -200.789L762.78 -202.479L768.839 -201.32L774.768 -211.395L778.547 -208.689L786.86 -214.356L790.083 -216.557L793.644 -223.487L792.672 -229.859L795.066 -233.438L801.091 -234.479L804.181 -226.619L804.013 -222.025L798.77 -216.319L798.866 -210.472L796.732 -205.949L797.72 -203.11L794.769 -199.116L787.528 -196.45L777.566 -196.102L769.494 -189.634L765.686 -191.811L765.45 -196.047L755.595 -194.797L748.888 -192.128L742.255 -192.019L748 -187.85L744.219 -178.219L740.556 -175.834L737.814 -178.037z
M750.058 -186.94L750.103 -189.627L753.238 -193.008L756.46 -192.353L758.79 -194.735L762.951 -193.512L763.676 -191.569L760.486 -188.14L758.16 -189.958L755.255 -188.641L753.751 -185.326L750.058 -186.94z
M681.247 -129.284L680.602 -133.485L683.937 -139.051L688.472 -143.341L691.057 -141.653L690.074 -138.234L686.662 -129.148L684.233 -124.5L681.247 -129.284z
M615.713 -104.877L615.549 -109.751L618.341 -112.319L624.532 -113.907L627.79 -113.773L629.057 -111.61L626.567 -109.117L625.255 -105.844L620.36 -103.12L615.713 -104.877z
M698.689 -73.8226L696.596 -76.7999L695.138 -74.7197L691.53 -78.1121L686.383 -77.2746L683.562 -78.5267L683.85 -80.8691L685.62 -82.3106L683.929 -83.6211L683.197 -81.5789L680.399 -84.8349L679.552 -87.3026L679.341 -92.7277L681.623 -90.8629L682.21 -99.7281L684.057 -104.863L687.487 -104.856L690.98 -103.238L692.727 -104.714L693.243 -103.274L692.321 -100.925L694.255 -96.8632L692.763 -92.1539L689.422 -90.2758L688.529 -85.7073L689.797 -81.1941L692.801 -80.5698L695.307 -81.2404L702.385 -78.0987L701.846 -75.014L703.694 -73.6527L703.105 -71.0412L698.689 -73.8226z
M684.725 -71.9921L681.833 -76.3097L686.687 -76.1016L688.655 -74.061L687.152 -69.1648L684.725 -71.9921z
M706.974 -61.4153L705.268 -61.7096L704.381 -65.1404L707.716 -64.6883L707.642 -66.8337L704.178 -71.1606L709.62 -71.0358L711.181 -68.9219L712.773 -62.5947L708.401 -64.0982L708.519 -62.1963L709.906 -58.6994L707.21 -57.4298L706.974 -61.4153z
M691.148 -61.7989L691.551 -64.6898L690.673 -67.3866L694.075 -65.6324L697.681 -65.6407L697.571 -63.2736L694.947 -60.8674L691.348 -59.1658L691.148 -61.7989z
M666.765 -51.379L670.859 -54.8788L674.262 -58.799L677.232 -64.4281L678.242 -59.8077L674.5 -56.6874L671.526 -52.7928L663.988 -47.4158L666.765 -51.379z
M693.487 -55.0424L694.655 -56.5593L696.077 -58.1466L696.702 -61.6639L699.827 -61.9969L698.914 -58.1818L703.108 -63.6521L702.567 -58.2464L700.531 -56.3838L698.756 -52.8035L696.977 -51.1257L693.487 -55.0424z
M452.611 -38.3263L451.606 -46.4714L454.171 -55.6698L458.087 -52.5211L460.724 -48.5305L463.465 -42.6306L462.611 -36.7301L460.235 -35.1171L455.307 -33.8208L452.611 -38.3263z
M703.912 -34.9143L702.319 -39.0158L704.047 -41.7101L700.458 -44.39L698.678 -42.0403L696.011 -42.2585L691.818 -39.0967L690.88 -40.7553L693.103 -45.5315L696.674 -47.1253L699.764 -49.2604L701.767 -46.6952L706.075 -48.2469L706.999 -50.7757L711.005 -50.9263L710.669 -55.3086L715.262 -52.6211L715.738 -49.7674L716.135 -47.6833L716.712 -43.9187L717.045 -40.7398L715.115 -35.5543L713.045 -41.3311L710.395 -38.4567L712.205 -34.2814L710.58 -31.6257L703.912 -34.9143"/>
<path fill="rgb(114,163,255)" d="M596.36 -291.947l2.83345 -1.35992l2.03988 -1.58657l3.06011 -1.58686l3.8531 -0.566632l2.71983 -0.906612l2.15349 -1.24659l1.58657 -1.92684l1.70019 -0.339979l0.226653 -1.01994l-1.13326 -0.33998l2.26653 -1.92684l1.24688 0.906904l0.566339 -1.13341l0.906612 -2.94663l1.02023 -2.15335l0.226652 -1.47339l1.30223 -4.1534l-2.39596 -0.10176l-1.77662 1.10676l-0.797677 2.8787l-3.8121 4.34974l-1.92684 2.26682l-2.49318 1.92655l-1.6999 0.793285l-1.24659 1.13326l-3.06011 1.36006l0.226653 0.793431l-1.81322 1.01994l-1.58657 0.566632l-2.83345 1.35992l-2.38015 1.58672l-3.74006 0.793431h-3.05981l-1.35992 0.679958l0.793285 0.793285l3.06011 0.566632l2.94649 0.226653l2.38015 -0.339979"/>
<path fill="rgb(114,163,255)" d="M420.909 -260.69l2.79568 -0.588009l0.792406 -1.68203l2.80183 -0.374826l0.326802 -1.13224l0.838381 0.926085l9.03712 0.63252l7.02097 0.557555l2.52071 -0.412309l2.01323 -1.55963l-1.44162 -0.586252l-3.36407 0.515386l-0.567217 1.07177l-2.47678 -1.01613l-3.84548 0.0251838l-5.54304 -0.774105l-7.16123 -0.208351l-4.7887 2.20415l-0.417288 1.26314l-1.93475 0.123722l0.327974 0.965178l-1.68379 1.17236l-0.0184484 1.11291l3.75822 3.51634l1.0091 -5.75241"/>
<path fill="rgb(114,163,255)" d="M340.299 -250.833l1.06035 -2.94327l-0.65946 -4.46951l-1.60297 0.296347l0.600893 -1.63049l1.00208 -0.44496v-1.18597l-2.00356 -0.889481l-1.20237 -0.29664l-0.129432 3.40184l-1.87413 -1.32624l-2.40416 0.296494l-0.510115 2.19142l-2.29493 3.44225v2.37209l1.20208 1.48247l2.40445 -2.96494v-2.0756l0.22636 -1.54792l2.25481 1.04834l-0.0770151 1.09256l-1.60268 3.55822l4.00713 1.18597l1.60268 -0.592987"/>
</g>
<g stroke-width="0.5px" stroke="rgb(209,179,139)" fill="none">
<path d="M709.696 -8.04574l-4.55297 5.62108l-4.25867 1.08963l-5.45372 -1.10808l-9.4427 0.282877l-4.95064 0.815833"/>
<path d="M679.014 -0.874109l1.18832 -2.33593l4.8171 -4.20889l4.42588 1.67325l7.14425 0.786257l6.51642 -0.237488l5.60131 -4.11489l0.988897 1.26606"/>
<path d="M729.233 -6.41685l-0.296347 4.9521l-2.92277 -0.554919"/>
<path d="M721.93 -5.73309l1.13912 -4.52749l1.88057 -2.06213l0.406745 3.09437l3.34562 0.497084l0.530906 2.31441"/>
<path d="M562.495 -1.0378l-1.66446 -4.87186l-2.08907 -4.42354l-5.10994 -3.56817l-2.96171 -4.84844l-4.26658 -3.17373l-5.91113 -6.24423l-0.497816 -2.88455l3.64841 0.22841l8.77211 1.09476l5.01096 5.54172l4.38254 3.84212l3.12482 2.35745l5.3688 6.09137l5.76061 0.0888749l4.76147 3.88165l3.27856 4.74492l4.31548 2.58864"/>
<path d="M667.962 -10.3566l6.35301 5.24406l-6.71437 0.668538l-1.88994 3.86335"/>
<path d="M617.398 -2.35379l0.660046 -5.2505l3.3667 -3.76569l4.15296 1.94192l4.37873 -1.05888l1.14029 -4.79778l2.4188 -1.06869l6.79256 -1.22682l4.06482 -4.48298l2.78279 -3.5834l2.24369 -2.12011l4.82091 -3.10374l4.36351 -3.94095l2.85805 -4.42895l2.2923 -0.0185949l2.91135 2.86669l0.258864 2.46317l3.73216 1.57983l4.7272 1.70487l-0.403524 2.21968l-3.80215 0.28112l1.01203 2.76713l-4.17229 1.93036l-3.22321 5.1177l4.16555 5.36485l-0.978648 2.60695"/>
<path d="M716.135 -47.6833l0.576296 3.76466l0.33383 3.17885l-1.93036 5.18549l-2.07033 -5.77672l-2.64955 2.8743l1.80942 4.17536l-1.62435 2.6557l-6.6681 -3.28866l-1.59272 -4.10142l1.72801 -2.69436l-3.58955 -2.67986l-1.78013 2.34969l-2.66654 -0.218161l-4.19337 3.16172l-0.938237 -1.65861l2.22377 -4.77611l3.57022 -1.59389l3.08998 -2.13505l2.00298 2.56522l4.30845 -1.55172l0.924474 -2.52876l4.00508 -0.150663l-0.33588 -4.38225l4.59338 2.68748l0.475561 2.85366l0.397667 2.08409"/>
<path d="M460.235 -35.1171l-4.92809 1.29637l-2.6967 -4.50553l-1.00471 -8.14515l2.56493 -9.19833l3.91576 3.14869l2.63784 3.99058l2.74063 5.89986l-0.853609 5.90059l-2.37605 1.61292"/>
<path d="M702.567 -58.2464l-2.03578 1.86257l-1.77515 3.58032l-1.77955 1.67779l-3.48969 -3.91664l1.16753 -1.51688l1.42229 -1.5873l0.625199 -3.51736l3.12482 -0.332951l-0.912761 3.81503l4.19425 -5.47027l-0.541156 5.4057"/>
<path d="M671.526 -52.7928l-7.5384 5.377l2.77781 -3.9632l4.09381 -3.49979l3.40243 -3.92016l2.97021 -5.62913l1.00969 4.62047l-3.74124 3.12028l-2.97431 3.89453"/>
<path d="M690.673 -67.3866l3.40155 1.75422l3.60624 -0.00834574l-0.109812 2.36712l-2.62437 2.40621l-3.59892 1.70165l-0.199712 -2.63316l0.402353 -2.89085l-0.877328 -2.69685"/>
<path d="M711.181 -68.9219l1.59184 6.32725l-4.37229 -1.50355l0.118305 1.90195l1.38656 3.49687l-2.69524 1.26958l-0.236023 -3.98546l-1.70605 -0.294297l-0.887284 -3.43083l3.33478 0.452134l-0.0737939 -2.14544l-3.46363 -4.3269l5.44201 0.124893l1.5608 2.11382"/>
<path d="M688.655 -74.061l-1.50282 4.89617l-2.427 -2.8273l-2.89261 -4.31753l4.85459 0.208058l1.96784 2.04061"/>
<path d="M687.487 -104.856l3.49233 1.6179l1.74763 -1.47559l0.515386 1.43971l-0.921839 2.3494l1.93446 4.06174l-1.49228 4.70934l-3.34064 1.87809l-0.893727 4.56849l1.26797 4.51314l3.00388 0.62432l2.50665 -0.670588l7.07778 3.14166l-0.539399 3.0847l1.84836 1.36138l-0.588595 2.61149l-4.41651 -2.78148l-2.09317 -2.97723l-1.45802 2.08014l-3.608 -3.39233l-5.14683 0.837503l-2.82057 -1.25215l0.287562 -2.34237l1.77047 -1.44147l-1.6914 -1.31057l-0.732083 2.04222l-2.79773 -3.25601l-0.847166 -2.4677l-0.210547 -5.42503l2.28205 1.86476l0.586838 -8.86523l1.84631 -5.13483l3.43083 0.00658875"/>
<path d="M625.255 -105.844l-4.89588 2.72393l-4.64668 -1.75656l-0.164279 -4.8745l2.79275 -2.56785l6.19108 -1.58789l3.25806 0.13441l1.2665 2.16243l-2.48996 2.49362l-1.3116 3.27241"/>
<path d="M686.662 -129.148l-2.42847 4.64829l-2.98631 -4.78431l-0.645404 -4.20128l3.33478 -5.56573l4.5354 -4.28971l2.58513 1.68789l-0.982748 3.41883l-3.41238 9.08603"/>
<path d="M762.951 -193.512l0.725055 1.94309l-3.19012 3.42922l-2.32597 -1.81791l-2.9052 1.31702l-1.50399 3.31502l-3.69321 -1.61395l0.045682 -2.68748l3.13478 -3.38105l3.22204 0.655507l2.32978 -2.38176l4.16116 1.22229"/>
<path d="M798.866 -210.472l-2.13417 4.52251l0.987726 2.8396l-2.95117 3.99366l-7.24059 2.66625l-9.9616 0.347446l-8.07282 6.46839l-3.808 -2.17751l-0.235438 -4.23568l-9.85501 1.2501l-6.70676 2.66903l-6.63355 0.108641l5.74539 4.16936l-3.78106 9.63128l-3.66334 2.38439l-2.74209 -2.2024l1.38979 -5.10701l-3.58691 -1.64806l-2.30196 -3.8859l5.35767 -1.74587l2.97226 -3.56202l5.69941 -2.9295l4.15618 -3.87418l11.2802 -1.68994l6.05901 1.15874l5.92899 -10.0745l3.77843 2.70636l8.31295 -5.6672l3.22321 -2.20137l3.56085 -6.92946l-0.971327 -6.3722l2.39362 -3.57959l6.02475 -1.04014l3.08998 7.85935l-0.168086 4.59426l-5.2423 5.70556l0.0957564 5.84758"/>
<path d="M815.491 -250.32l3.98517 1.20823l4.00859 -2.40182l1.25977 6.36165l-8.40636 1.55114l-4.96294 5.62781l-8.91003 -3.8736l-3.08383 6.20045l-6.30235 0.0852144l-0.779522 -5.63382l2.80241 -4.36058l6.05462 -0.314796l1.65129 -7.8387l1.67559 -4.41636l6.65961 5.89971l4.34799 1.90547"/>
<path d="M814.005 -287.57l5.70146 10.0369l-8.38791 -1.87091l-3.48647 8.1882l5.524 5.80747l-0.159887 3.95998l-4.29293 -3.41619l-3.71547 4.38605l-1.04893 -4.75532l0.631934 -5.52049l-0.64599 -6.11465l1.31101 -4.28386l0.250372 -7.57735l-3.32014 -5.57086l0.50133 -7.74368l5.2382 -2.60768l-2.25072 -2.62554l2.52188 -0.795628l1.47236 3.74739l1.96198 5.46163l-0.144952 5.57657l2.33886 5.71801"/>
<path d="M813.755 -414.87l-8.59191 0.0396667l-11.6137 -0.63172l-0.991865 -0.299823l5.37534 -2.23964l7.08537 -0.52428l8.05097 2.16654l0.68578 1.48926"/>
<path d="M854.146 -425.476l-6.54922 2.23913l-9.05794 -0.506798l-10.5302 -2.23621l1.356 -1.83509l10.5612 0.855525l14.2202 1.48345"/>
<path d="M822.156 -428.188l-4.45562 4.20821l-20.8884 -0.156853l-9.39743 1.33847l-11.2259 -3.68441l3.0451 -3.89583l7.47612 -1.06301l14.9631 0.248597l20.4831 3.00484"/>
<path d="M326.036 -400.749l-3.34738 0.497084"/>
<path d="M316.781 -422.889l-1.53298 -2.57225l12.6747 -2.99188l18.7079 -3.64079l18.8605 -1.06064l9.70478 -2.10078l11.0278 -0.736182l3.93919 2.23768l-3.80595 1.76329l-20.0784 2.81003l-17.305 2.70226l-17.6031 5.39369l-8.44501 5.53074l-8.88221 5.45006l1.15318 4.70715l10.8395 4.64741"/>
<path d="M989.226 -350.026l-5.03857 0.660604l-8.67017 3.98161l-8.22573 3.47803l-2.08315 2.57497l-8.10537 -3.91901l-14.764 4.44714l-2.57843 -2.10459l-5.45811 2.42763l-7.57965 -0.776469l-1.82583 3.72636l-6.79903 5.4844l0.203023 2.29032l6.45317 1.26933l-0.759176 8.24959l-5.25993 0.209595l-2.4266 4.74078l2.35742 2.43905l-9.90871 2.89455l-1.96729 6.47011l-8.44812 1.38277l-1.69751 5.75728l-8.16797 5.27895l-2.0956 -3.90413l-2.4266 -8.26654l-3.16294 -12.5926l2.72439 -7.85842l4.7816 -3.38188l0.295715 -2.64864l8.80505 -1.26725l10.1228 -7.13521l9.75446 -5.82646l10.1864 -4.52116l4.55609 -7.98881l-6.88619 0.478333l-3.40332 4.66815l-14.3728 6.22316l-4.64221 -6.96885l-14.6291 1.9244l-14.1815 9.49851l4.67957 3.47491l-12.648 1.47996l-8.76182 0.583822l0.410197 -4.09816l-8.80817 -0.859131l-7.01969 2.78353l-17.3265 -0.97465l-18.6401 1.67952l-18.3565 11.0615l-21.7159 13.3643l8.92749 0.713867l2.78664 3.54962l5.50342 1.25895l3.62675 -2.83091l6.21521 0.368347l8.18146 6.23319l0.192647 4.82137l-4.4302 5.66217l-0.477987 6.76721l-2.55595 9.05961l-8.54185 8.19979l-1.89811 3.92004l-7.69206 6.59843l-7.63291 6.54171l-3.65961 3.34764l-7.55129 3.32515l-3.57349 0.0736694l-3.56 -2.75378l-7.60559 4.14693l-0.882996 1.88462l-2.15336 -0.339986l-2.46049 1.9199l-1.69094 1.92786l0.214437 4.0698l-2.93087 1.25203l-1.00647 0.999898l-2.13641 1.67503l-3.77374 0.931417l-2.45945 1.52216l-0.178121 2.45357l-0.660604 0.625671l2.25435 0.921387l3.20929 2.48539l4.89158 6.68559l1.40318 3.6731l0.0442708 6.52926l-2.13538 3.11418l-5.13161 1.08809l-4.53015 2.3505l-5.10429 0.48525l-0.633626 -3.08616l1.05074 -4.25l-2.50372 -5.89805l4.20919 -0.954244l-3.88511 -4.84939l-2.75171 -1.0791l-0.683431 1.06561l-1.66119 0.470032l-0.199565 -1.0663l-1.46785 -0.519145l-1.52319 -0.903056l1.55155 -2.49473l1.33643 -0.6651l-0.504618 -1.03587l1.43846 -3.05538l-0.371806 -0.927266l-3.30717 -0.616333l-2.67354 -1.52008l-7.92206 1.64701l-4.17149 2.64864l-6.10211 1.54671l3.01145 -2.62581l-1.18563 -2.20662l4.48692 -3.80902l-2.99312 -2.96926l-4.94035 2.00014l-6.39748 3.9408l-3.49186 3.65926l-5.55772 0.272196l-2.89006 2.64414l2.98621 3.8315l4.63875 0.930725l0.189189 2.54315l4.48346 1.65462l6.3501 -4.04594l5.03097 2.20662l3.6641 0.150452l0.918966 2.96822l-8.02271 1.58337l-2.6476 3.05884l-5.51034 2.84233l-2.90908 3.96674l6.09831 3.11348l2.22703 5.57467l3.44897 5.19283l3.84741 4.35203l-0.0916545 4.21057l-3.55654 1.54671l1.35545 3.02287l3.33553 1.75873l-0.870544 4.61489l-1.43915 4.49141l-3.16675 0.509115l-4.13759 6.13359l-4.58999 7.43681l-5.262 6.76272l-7.79305 5.23018l-7.88228 4.76914l-6.38503 0.650574l-3.46454 2.51721l-1.95864 -1.83828l-3.20618 2.815l-7.9186 2.83921l-5.99628 0.868123l-1.93477 5.98486l-3.14046 0.332377l-1.48584 -4.11304l1.34196 -2.19175l-7.60248 -1.81441l-2.67804 0.922424l-7.56616 4.84835l-4.72245 5.354l-1.24443 3.93146l4.3337 5.9738l5.29832 7.40395l5.14303 3.50085l3.44309 4.55056l2.59676 10.4867l-0.766439 9.96889l-4.72591 3.73189l-6.48948 3.64819l-4.62284 4.72384l-7.065 5.27688l-2.05721 -3.6347l1.59237 -3.83877l-4.20365 -3.21967l-4.7439 -0.827311l-2.30416 -2.95231l-2.86515 -5.85378l-5.08872 -2.60195l-4.84593 0.106527l0.83077 -4.45199l-4.99015 0.0328573l-0.448934 6.23216l-3.05884 8.27692l-1.84277 5.00606l0.389791 4.10128l3.69143 0.178121l2.29966 5.17139l1.01754 4.90507l3.16191 3.24595l3.43306 0.658183l2.9364 2.94124l1.30322 0.529175l3.34591 3.42165l2.37748 3.79311l0.32546 3.81594l-0.604228 2.57843l0.552002 1.94826l0.413656 3.35352l1.99565 1.56158l2.22841 5.01056l-0.10791 1.91644l-4.01862 0.378377l-5.36058 -4.19777l-6.70392 -4.49833l-0.663025 -2.8866l-3.27639 -3.78965l-0.782003 -4.69305l-2.04441 -3.08962l0.620829 -4.12653l-1.24892 -2.40135l-2.23948 -2.17515l-0.96877 -2.80601l-3.01145 -3.19926l-2.74479 -2.68738l-0.930379 3.33103l-1.07461 -3.14842l0.618754 -3.53475l1.66742 -5.43563l-0.545431 -4.20573l1.74109 -4.34062l-1.90538 -3.35352l0.461385 -6.17336l-2.3007 -2.93536l-1.84727 -6.78174l-1.02342 -7.15942l-2.45046 -4.69202l-3.73293 2.84129l-6.44071 4.03937l-3.17816 -0.504618l-3.51088 -1.32916l1.95276 -7.02212l-1.18217 -5.30524l-4.44161 -6.53375l0.692769 -2.04338l-3.31512 -0.726318l-4.02207 -4.62181l-1.61865 -2.95473l-0.326152 -2.8866l-1.0791 -2.72681l-2.36745 -3.29887l-5.21912 -0.226888l0.515686 2.33598l-1.78052 3.15291l-2.41069 -1.14827l-0.823853 1.03137l-1.60482 -0.618754l-2.19175 -0.506694l-0.811401 2.06862l-3.85571 -0.0715942l-6.9858 1.17767l0.325114 4.26245l-3.0246 3.35248l-8.15448 3.81352l-6.34214 6.66726l-4.26038 3.57452l-5.64626 3.70941l-0.00899251 2.60679l-2.82538 1.39626l-5.10325 2.02989l-2.6476 0.299174l-1.69889 4.32263l1.17975 7.37006l0.300557 4.70101l-2.40169 5.3834l-0.0249023 9.62752l-2.93294 0.274272l-2.57843 4.32263l1.7238 1.86664l-5.16585 1.60689l-1.90849 3.85433l-2.27441 1.62868l-5.36542 -5.2914l-2.62339 -7.93555l-2.17377 -5.71543l-1.98562 -2.68046l-3.01007 -5.44324l-1.40664 -7.08783l-0.979146 -3.53959l-5.15444 -7.78267l-2.34843 -10.9819l-1.69405 -7.25108l0.0204061 -6.86336l-1.09847 -5.30731l-8.24717 3.39191l-3.99371 -0.678935l-7.40291 -6.86786l2.72439 -2.04787l-1.67295 -2.22496l-6.64685 -4.80961l-4.1535 -1.43258l-1.6899 -4.07326l-4.37797 -4.31571l-10.4403 1.0663l-9.2073 0.105489l-7.97982 0.794454l-10.6613 -1.71031l-6.17786 -1.30322l-6.39541 -0.735657l-2.41622 -6.94845l-2.71297 -1.00405l-4.35445 1.012"/>
<path d="M314.155 -144.155l3.5804 -3.4929l1.65013 -1.92889l0.700378 0.491821l-0.534017 2.34013l-0.73877 1.02791l0.769552 4.47689l2.54073 3.87024l3.16329 2.05686l4.15696 0.741191l3.35594 1.03276l2.55664 3.24803l1.52769 1.88255l2.02885 0.717326l-0.010376 1.26483l-2.0624 3.37738l-0.905823 1.58995l-2.38786 1.81234l-2.11359 3.88165l-2.57151 -0.297099l-1.17767 1.35095l-0.909973 2.87311l0.695882 3.78758l-0.533671 0.69692l-2.60783 -0.0193685l-3.53959 2.11843l-0.551656 2.7607l-1.29665 1.19566l-3.52472 -0.046346l-2.21804 1.42773l0.0273234 2.28963"/>
<path d="M314.175 -387.819l10.6215 -0.156331l8.41526 -2.34947l6.45662 3.4137l6.43933 -3.7523l-5.93748 -3.2833l2.94678 -1.8701l16.7392 1.7148l7.84285 1.77118l20.5358 6.47496l3.78896 -2.96615l-5.75867 -2.9952l-0.165324 -1.20258l-6.82947 -0.556498l1.86871 -2.68599l-3.03151 -4.4212l-0.171204 -1.81441l10.4573 -5.13057l3.7184 -5.15098l4.21507 -1.11403l15.0019 1.49483l1.18182 3.15188l-5.37199 4.59552l3.52472 1.8068l1.8234 3.96189l-1.28731 7.76469l6.25153 3.47353l-2.43213 3.78204l-11.0988 8.04865l6.47703 0.835266l2.25297 -2.03992l6.23562 -1.45506l1.50417 -2.80393l4.90507 -2.69845l-3.30267 -3.22209l2.64414 -3.74123l-6.19722 -0.465535l-1.36202 -3.15188l4.52185 -5.69053l-7.36003 -4.61938l10.1425 -3.82043l-1.31256 -4.02899l2.82642 -0.129354l2.97721 3.14288l-2.23464 5.4671l6.06337 1.03587l-2.58431 -4.08675l9.48399 -2.22807l11.7605 -0.29952l10.4721 3.23004l-5.03996 -4.71899l-0.564453 -6.03743l9.85441 -1.14343l13.6292 0.250407l12.28 -0.742228l-4.60486 -2.96269l6.55727 -3.72186l6.50989 -0.155294l11.0182 -2.81154l14.9635 -0.755025l1.8905 -1.55259l14.8795 -0.525716l4.63633 1.27244l12.7171 -3.01111l10.4109 0.0940755l1.56158 -2.44562l5.41522 -2.41172l13.3777 -2.3256l9.71849 1.83586l-7.71592 1.39626l12.8361 0.868123l1.52907 2.80048l5.1783 -1.37828l16.5656 0.0750529l12.7739 2.76416l4.54917 2.12258l-1.40975 2.94574l-6.26847 1.6771l-14.8919 3.14634l-4.25692 1.68056l7.02661 0.793416l8.38241 1.43016l5.10083 -1.07218l2.89144 3.63713l2.48851 -1.47235l9.06099 -0.895447l18.1811 0.936259l1.38139 2.64968l23.6901 0.843221l0.324076 -4.32817l12.0261 0.991597l9.04612 -0.0304362l9.15057 2.98517l2.60887 3.62675l-3.35248 2.37195l7.11757 4.45959l8.91123 2.3007l5.4671 -5.94543l9.09074 2.54903l9.65796 -1.52319l10.9684 1.74282l4.17322 -1.58891l9.26921 0.794454l-4.09125 -5.26097l7.48108 -2.45461l51.1816 3.68001l4.82345 3.36355l14.8328 4.33059l22.8821 -1.07218l11.2825 0.933838l4.71692 2.34255l-0.689311 4.14347l6.9813 1.61381l7.58449 -1.16038l10.0491 -0.148376l10.6987 1.11161l10.7395 -0.626709l9.87136 5.0365l7.02212 -1.81199l-4.58203 -3.62225l2.52275 -2.51721l18.0791 1.58441"/>
<path d="M447.614 -264.909l-3.36407 0.515386l-0.567218 1.07177l-2.47678 -1.01613l-3.84548 0.0251836l-5.54304 -0.774104l-7.16123 -0.208351l-4.7887 2.20415l-0.417287 1.26314l-1.93475 0.123722l0.327973 0.965178l-1.68379 1.17236l-0.0184485 1.11291l3.75822 3.51634l1.0091 -5.75241l2.79568 -0.588009l0.792406 -1.68203l2.80183 -0.374826l0.326802 -1.13224l0.838381 0.926085l9.03712 0.63252l7.02097 0.557554l2.52071 -0.412309l2.01323 -1.55963l-1.44162 -0.586252"/>
<path d="M603.953 -299.2l-1.81322 1.01994l-1.58657 0.566632l-2.83345 1.35992l-2.38015 1.58672l-3.74006 0.793431l-3.05981 0l-1.35992 0.679958l0.793285 0.793285l3.06011 0.566632l2.94649 0.226653l2.38015 -0.339979l2.83345 -1.35992l2.03988 -1.58657l3.06011 -1.58686l3.8531 -0.566632l2.71983 -0.906611l2.15349 -1.24659l1.58657 -1.92684l1.70019 -0.339979l0.226653 -1.01994l-1.13326 -0.339979l2.26653 -1.92684l1.24688 0.906904l0.566339 -1.13341l0.906611 -2.94663l1.02023 -2.15335l0.226653 -1.47339l1.30223 -4.1534l-2.39596 -0.10176l-1.77662 1.10676l-0.797677 2.8787l-3.8121 4.34974l-1.92684 2.26682l-2.49318 1.92655l-1.6999 0.793285l-1.24659 1.13326l-3.06011 1.36006l0.226653 0.793431"/>
<path d="M340.299 -250.833l1.06035 -2.94327l-0.65946 -4.46951l-1.60297 0.296347l0.600894 -1.63049l1.00207 -0.44496l0 -1.18597l-2.00356 -0.889481l-1.20237 -0.29664l-0.129432 3.40184l-1.87413 -1.32624l-2.40416 0.296494l-0.510115 2.19142l-2.29493 3.44225l0 2.37209l1.20208 1.48247l2.40445 -2.96494l0 -2.0756l0.22636 -1.54792l2.25481 1.04834l-0.0770151 1.09256l-1.60268 3.55822l4.00713 1.18597l1.60268 -0.592987"/>
<path d="M595.428 -443.739l-31.9449 2.18671l10.3516 -7.44028l4.65488 -0.637047l4.2583 0.369013l14.3628 3.21838l-1.68277 2.30322"/>
<path d="M566.325 -446.992l-12.3636 0.70686l-15.7836 -1.63509l-9.40502 -2.16328"/>
<path d="M567.724 -452.087l-1.39907 5.09544"/>
</g>
</g>
</g>
</g>
<g inkscape:groupmode="layer" inkscape:label="Coastline" id="Coastline"><title>Coastline</title>
<g>
<g id="drawing" transform="translate(-311.667,-0)">
<g stroke-width="0.5px" stroke="rgb(0,0,0)" fill="none">
<path d="M709.696 -8.04574l-4.55297 5.62108l-4.25867 1.08963l-5.45372 -1.10808l-9.4427 0.282877l-4.95064 0.815833"/>
<path d="M679.014 -0.874109l1.18832 -2.33593l4.8171 -4.20889l4.42588 1.67325l7.14425 0.786257l6.51642 -0.237488l5.60131 -4.11489l0.988897 1.26606"/>
<path d="M729.233 -6.41685l-0.296347 4.9521l-2.92277 -0.554919"/>
<path d="M721.93 -5.73309l1.13912 -4.52749l1.88057 -2.06213l0.406745 3.09437l3.34562 0.497084l0.530906 2.31441"/>
<path d="M562.495 -1.0378l-1.66446 -4.87186l-2.08907 -4.42354l-5.10994 -3.56817l-2.96171 -4.84844l-4.26658 -3.17373l-5.91113 -6.24423l-0.497816 -2.88455l3.64841 0.22841l8.77211 1.09476l5.01096 5.54172l4.38254 3.84212l3.12482 2.35745l5.3688 6.09137l5.76061 0.0888749l4.76147 3.88165l3.27856 4.74492l4.31548 2.58864"/>
<path d="M667.962 -10.3566l6.35301 5.24406l-6.71437 0.668538l-1.88994 3.86335"/>
<path d="M617.398 -2.35379l0.660046 -5.2505l3.3667 -3.76569l4.15296 1.94192l4.37873 -1.05888l1.14029 -4.79778l2.4188 -1.06869l6.79256 -1.22682l4.06482 -4.48298l2.78279 -3.5834l2.24369 -2.12011l4.82091 -3.10374l4.36351 -3.94095l2.85805 -4.42895l2.2923 -0.0185949l2.91135 2.86669l0.258864 2.46317l3.73216 1.57983l4.7272 1.70487l-0.403524 2.21968l-3.80215 0.28112l1.01203 2.76713l-4.17229 1.93036l-3.22321 5.1177l4.16555 5.36485l-0.978648 2.60695"/>
<path d="M716.135 -47.6833l0.576296 3.76466l0.33383 3.17885l-1.93036 5.18549l-2.07033 -5.77672l-2.64955 2.8743l1.80942 4.17536l-1.62435 2.6557l-6.6681 -3.28866l-1.59272 -4.10142l1.72801 -2.69436l-3.58955 -2.67986l-1.78013 2.34969l-2.66654 -0.218161l-4.19337 3.16172l-0.938237 -1.65861l2.22377 -4.77611l3.57022 -1.59389l3.08998 -2.13505l2.00298 2.56522l4.30845 -1.55172l0.924474 -2.52876l4.00508 -0.150663l-0.33588 -4.38225l4.59338 2.68748l0.475561 2.85366l0.397667 2.08409"/>
<path d="M460.235 -35.1171l-4.92809 1.29637l-2.6967 -4.50553l-1.00471 -8.14515l2.56493 -9.19833l3.91576 3.14869l2.63784 3.99058l2.74063 5.89986l-0.853609 5.90059l-2.37605 1.61292"/>
<path d="M702.567 -58.2464l-2.03578 1.86257l-1.77515 3.58032l-1.77955 1.67779l-3.48969 -3.91664l1.16753 -1.51688l1.42229 -1.5873l0.625199 -3.51736l3.12482 -0.332951l-0.912761 3.81503l4.19425 -5.47027l-0.541156 5.4057"/>
<path d="M671.526 -52.7928l-7.5384 5.377l2.77781 -3.9632l4.09381 -3.49979l3.40243 -3.92016l2.97021 -5.62913l1.00969 4.62047l-3.74124 3.12028l-2.97431 3.89453"/>
<path d="M690.673 -67.3866l3.40155 1.75422l3.60624 -0.00834574l-0.109812 2.36712l-2.62437 2.40621l-3.59892 1.70165l-0.199712 -2.63316l0.402353 -2.89085l-0.877328 -2.69685"/>
<path d="M711.181 -68.9219l1.59184 6.32725l-4.37229 -1.50355l0.118305 1.90195l1.38656 3.49687l-2.69524 1.26958l-0.236023 -3.98546l-1.70605 -0.294297l-0.887284 -3.43083l3.33478 0.452134l-0.0737939 -2.14544l-3.46363 -4.3269l5.44201 0.124893l1.5608 2.11382"/>
<path d="M688.655 -74.061l-1.50282 4.89617l-2.427 -2.8273l-2.89261 -4.31753l4.85459 0.208058l1.96784 2.04061"/>
<path d="M687.487 -104.856l3.49233 1.6179l1.74763 -1.47559l0.515386 1.43971l-0.921839 2.3494l1.93446 4.06174l-1.49228 4.70934l-3.34064 1.87809l-0.893727 4.56849l1.26797 4.51314l3.00388 0.62432l2.50665 -0.670588l7.07778 3.14166l-0.539399 3.0847l1.84836 1.36138l-0.588595 2.61149l-4.41651 -2.78148l-2.09317 -2.97723l-1.45802 2.08014l-3.608 -3.39233l-5.14683 0.837503l-2.82057 -1.25215l0.287562 -2.34237l1.77047 -1.44147l-1.6914 -1.31057l-0.732083 2.04222l-2.79773 -3.25601l-0.847166 -2.4677l-0.210547 -5.42503l2.28205 1.86476l0.586838 -8.86523l1.84631 -5.13483l3.43083 0.00658875"/>
<path d="M625.255 -105.844l-4.89588 2.72393l-4.64668 -1.75656l-0.164279 -4.8745l2.79275 -2.56785l6.19108 -1.58789l3.25806 0.13441l1.2665 2.16243l-2.48996 2.49362l-1.3116 3.27241"/>
<path d="M686.662 -129.148l-2.42847 4.64829l-2.98631 -4.78431l-0.645404 -4.20128l3.33478 -5.56573l4.5354 -4.28971l2.58513 1.68789l-0.982748 3.41883l-3.41238 9.08603"/>
<path d="M762.951 -193.512l0.725055 1.94309l-3.19012 3.42922l-2.32597 -1.81791l-2.9052 1.31702l-1.50399 3.31502l-3.69321 -1.61395l0.045682 -2.68748l3.13478 -3.38105l3.22204 0.655507l2.32978 -2.38176l4.16116 1.22229"/>
<path d="M798.866 -210.472l-2.13417 4.52251l0.987726 2.8396l-2.95117 3.99366l-7.24059 2.66625l-9.9616 0.347446l-8.07282 6.46839l-3.808 -2.17751l-0.235438 -4.23568l-9.85501 1.2501l-6.70676 2.66903l-6.63355 0.108641l5.74539 4.16936l-3.78106 9.63128l-3.66334 2.38439l-2.74209 -2.2024l1.38979 -5.10701l-3.58691 -1.64806l-2.30196 -3.8859l5.35767 -1.74587l2.97226 -3.56202l5.69941 -2.9295l4.15618 -3.87418l11.2802 -1.68994l6.05901 1.15874l5.92899 -10.0745l3.77843 2.70636l8.31295 -5.6672l3.22321 -2.20137l3.56085 -6.92946l-0.971327 -6.3722l2.39362 -3.57959l6.02475 -1.04014l3.08998 7.85935l-0.168086 4.59426l-5.2423 5.70556l0.0957564 5.84758"/>
<path d="M815.491 -250.32l3.98517 1.20823l4.00859 -2.40182l1.25977 6.36165l-8.40636 1.55114l-4.96294 5.62781l-8.91003 -3.8736l-3.08383 6.20045l-6.30235 0.0852144l-0.779522 -5.63382l2.80241 -4.36058l6.05462 -0.314796l1.65129 -7.8387l1.67559 -4.41636l6.65961 5.89971l4.34799 1.90547"/>
<path d="M814.005 -287.57l5.70146 10.0369l-8.38791 -1.87091l-3.48647 8.1882l5.524 5.80747l-0.159887 3.95998l-4.29293 -3.41619l-3.71547 4.38605l-1.04893 -4.75532l0.631934 -5.52049l-0.64599 -6.11465l1.31101 -4.28386l0.250372 -7.57735l-3.32014 -5.57086l0.50133 -7.74368l5.2382 -2.60768l-2.25072 -2.62554l2.52188 -0.795628l1.47236 3.74739l1.96198 5.46163l-0.144952 5.57657l2.33886 5.71801"/>
<path d="M813.755 -414.87l-8.59191 0.0396667l-11.6137 -0.63172l-0.991865 -0.299823l5.37534 -2.23964l7.08537 -0.52428l8.05097 2.16654l0.68578 1.48926"/>
<path d="M854.146 -425.476l-6.54922 2.23913l-9.05794 -0.506798l-10.5302 -2.23621l1.356 -1.83509l10.5612 0.855525l14.2202 1.48345"/>
<path d="M822.156 -428.188l-4.45562 4.20821l-20.8884 -0.156853l-9.39743 1.33847l-11.2259 -3.68441l3.0451 -3.89583l7.47612 -1.06301l14.9631 0.248597l20.4831 3.00484"/>
<path d="M326.036 -400.749l-3.34738 0.497084"/>
<path d="M316.781 -422.889l-1.53298 -2.57225l12.6747 -2.99188l18.7079 -3.64079l18.8605 -1.06064l9.70478 -2.10078l11.0278 -0.736182l3.93919 2.23768l-3.80595 1.76329l-20.0784 2.81003l-17.305 2.70226l-17.6031 5.39369l-8.44501 5.53074l-8.88221 5.45006l1.15318 4.70715l10.8395 4.64741"/>
<path d="M989.226 -350.026l-5.03857 0.660604l-8.67017 3.98161l-8.22573 3.47803l-2.08315 2.57497l-8.10537 -3.91901l-14.764 4.44714l-2.57843 -2.10459l-5.45811 2.42763l-7.57965 -0.776469l-1.82583 3.72636l-6.79903 5.4844l0.203023 2.29032l6.45317 1.26933l-0.759176 8.24959l-5.25993 0.209595l-2.4266 4.74078l2.35742 2.43905l-9.90871 2.89455l-1.96729 6.47011l-8.44812 1.38277l-1.69751 5.75728l-8.16797 5.27895l-2.0956 -3.90413l-2.4266 -8.26654l-3.16294 -12.5926l2.72439 -7.85842l4.7816 -3.38188l0.295715 -2.64864l8.80505 -1.26725l10.1228 -7.13521l9.75446 -5.82646l10.1864 -4.52116l4.55609 -7.98881l-6.88619 0.478333l-3.40332 4.66815l-14.3728 6.22316l-4.64221 -6.96885l-14.6291 1.9244l-14.1815 9.49851l4.67957 3.47491l-12.648 1.47996l-8.76182 0.583822l0.410197 -4.09816l-8.80817 -0.859131l-7.01969 2.78353l-17.3265 -0.97465l-18.6401 1.67952l-18.3565 11.0615l-21.7159 13.3643l8.92749 0.713867l2.78664 3.54962l5.50342 1.25895l3.62675 -2.83091l6.21521 0.368347l8.18146 6.23319l0.192647 4.82137l-4.4302 5.66217l-0.477987 6.76721l-2.55595 9.05961l-8.54185 8.19979l-1.89811 3.92004l-7.69206 6.59843l-7.63291 6.54171l-3.65961 3.34764l-7.55129 3.32515l-3.57349 0.0736694l-3.56 -2.75378l-7.60559 4.14693l-0.882996 1.88462l-2.15336 -0.339986l-2.46049 1.9199l-1.69094 1.92786l0.214437 4.0698l-2.93087 1.25203l-1.00647 0.999898l-2.13641 1.67503l-3.77374 0.931417l-2.45945 1.52216l-0.178121 2.45357l-0.660604 0.625671l2.25435 0.921387l3.20929 2.48539l4.89158 6.68559l1.40318 3.6731l0.0442708 6.52926l-2.13538 3.11418l-5.13161 1.08809l-4.53015 2.3505l-5.10429 0.48525l-0.633626 -3.08616l1.05074 -4.25l-2.50372 -5.89805l4.20919 -0.954244l-3.88511 -4.84939l-2.75171 -1.0791l-0.683431 1.06561l-1.66119 0.470032l-0.199565 -1.0663l-1.46785 -0.519145l-1.52319 -0.903056l1.55155 -2.49473l1.33643 -0.6651l-0.504618 -1.03587l1.43846 -3.05538l-0.371806 -0.927266l-3.30717 -0.616333l-2.67354 -1.52008l-7.92206 1.64701l-4.17149 2.64864l-6.10211 1.54671l3.01145 -2.62581l-1.18563 -2.20662l4.48692 -3.80902l-2.99312 -2.96926l-4.94035 2.00014l-6.39748 3.9408l-3.49186 3.65926l-5.55772 0.272196l-2.89006 2.64414l2.98621 3.8315l4.63875 0.930725l0.189189 2.54315l4.48346 1.65462l6.3501 -4.04594l5.03097 2.20662l3.6641 0.150452l0.918966 2.96822l-8.02271 1.58337l-2.6476 3.05884l-5.51034 2.84233l-2.90908 3.96674l6.09831 3.11348l2.22703 5.57467l3.44897 5.19283l3.84741 4.35203l-0.0916545 4.21057l-3.55654 1.54671l1.35545 3.02287l3.33553 1.75873l-0.870544 4.61489l-1.43915 4.49141l-3.16675 0.509115l-4.13759 6.13359l-4.58999 7.43681l-5.262 6.76272l-7.79305 5.23018l-7.88228 4.76914l-6.38503 0.650574l-3.46454 2.51721l-1.95864 -1.83828l-3.20618 2.815l-7.9186 2.83921l-5.99628 0.868123l-1.93477 5.98486l-3.14046 0.332377l-1.48584 -4.11304l1.34196 -2.19175l-7.60248 -1.81441l-2.67804 0.922424l-7.56616 4.84835l-4.72245 5.354l-1.24443 3.93146l4.3337 5.9738l5.29832 7.40395l5.14303 3.50085l3.44309 4.55056l2.59676 10.4867l-0.766439 9.96889l-4.72591 3.73189l-6.48948 3.64819l-4.62284 4.72384l-7.065 5.27688l-2.05721 -3.6347l1.59237 -3.83877l-4.20365 -3.21967l-4.7439 -0.827311l-2.30416 -2.95231l-2.86515 -5.85378l-5.08872 -2.60195l-4.84593 0.106527l0.83077 -4.45199l-4.99015 0.0328573l-0.448934 6.23216l-3.05884 8.27692l-1.84277 5.00606l0.389791 4.10128l3.69143 0.178121l2.29966 5.17139l1.01754 4.90507l3.16191 3.24595l3.43306 0.658183l2.9364 2.94124l1.30322 0.529175l3.34591 3.42165l2.37748 3.79311l0.32546 3.81594l-0.604228 2.57843l0.552002 1.94826l0.413656 3.35352l1.99565 1.56158l2.22841 5.01056l-0.10791 1.91644l-4.01862 0.378377l-5.36058 -4.19777l-6.70392 -4.49833l-0.663025 -2.8866l-3.27639 -3.78965l-0.782003 -4.69305l-2.04441 -3.08962l0.620829 -4.12653l-1.24892 -2.40135l-2.23948 -2.17515l-0.96877 -2.80601l-3.01145 -3.19926l-2.74479 -2.68738l-0.930379 3.33103l-1.07461 -3.14842l0.618754 -3.53475l1.66742 -5.43563l-0.545431 -4.20573l1.74109 -4.34062l-1.90538 -3.35352l0.461385 -6.17336l-2.3007 -2.93536l-1.84727 -6.78174l-1.02342 -7.15942l-2.45046 -4.69202l-3.73293 2.84129l-6.44071 4.03937l-3.17816 -0.504618l-3.51088 -1.32916l1.95276 -7.02212l-1.18217 -5.30524l-4.44161 -6.53375l0.692769 -2.04338l-3.31512 -0.726318l-4.02207 -4.62181l-1.61865 -2.95473l-0.326152 -2.8866l-1.0791 -2.72681l-2.36745 -3.29887l-5.21912 -0.226888l0.515686 2.33598l-1.78052 3.15291l-2.41069 -1.14827l-0.823853 1.03137l-1.60482 -0.618754l-2.19175 -0.506694l-0.811401 2.06862l-3.85571 -0.0715942l-6.9858 1.17767l0.325114 4.26245l-3.0246 3.35248l-8.15448 3.81352l-6.34214 6.66726l-4.26038 3.57452l-5.64626 3.70941l-0.00899251 2.60679l-2.82538 1.39626l-5.10325 2.02989l-2.6476 0.299174l-1.69889 4.32263l1.17975 7.37006l0.300557 4.70101l-2.40169 5.3834l-0.0249023 9.62752l-2.93294 0.274272l-2.57843 4.32263l1.7238 1.86664l-5.16585 1.60689l-1.90849 3.85433l-2.27441 1.62868l-5.36542 -5.2914l-2.62339 -7.93555l-2.17377 -5.71543l-1.98562 -2.68046l-3.01007 -5.44324l-1.40664 -7.08783l-0.979146 -3.53959l-5.15444 -7.78267l-2.34843 -10.9819l-1.69405 -7.25108l0.0204061 -6.86336l-1.09847 -5.30731l-8.24717 3.39191l-3.99371 -0.678935l-7.40291 -6.86786l2.72439 -2.04787l-1.67295 -2.22496l-6.64685 -4.80961l-4.1535 -1.43258l-1.6899 -4.07326l-4.37797 -4.31571l-10.4403 1.0663l-9.2073 0.105489l-7.97982 0.794454l-10.6613 -1.71031l-6.17786 -1.30322l-6.39541 -0.735657l-2.41622 -6.94845l-2.71297 -1.00405l-4.35445 1.012"/>
<path d="M314.155 -144.155l3.5804 -3.4929l1.65013 -1.92889l0.700378 0.491821l-0.534017 2.34013l-0.73877 1.02791l0.769552 4.47689l2.54073 3.87024l3.16329 2.05686l4.15696 0.741191l3.35594 1.03276l2.55664 3.24803l1.52769 1.88255l2.02885 0.717326l-0.010376 1.26483l-2.0624 3.37738l-0.905823 1.58995l-2.38786 1.81234l-2.11359 3.88165l-2.57151 -0.297099l-1.17767 1.35095l-0.909973 2.87311l0.695882 3.78758l-0.533671 0.69692l-2.60783 -0.0193685l-3.53959 2.11843l-0.551656 2.7607l-1.29665 1.19566l-3.52472 -0.046346l-2.21804 1.42773l0.0273234 2.28963"/>
<path d="M314.175 -387.819l10.6215 -0.156331l8.41526 -2.34947l6.45662 3.4137l6.43933 -3.7523l-5.93748 -3.2833l2.94678 -1.8701l16.7392 1.7148l7.84285 1.77118l20.5358 6.47496l3.78896 -2.96615l-5.75867 -2.9952l-0.165324 -1.20258l-6.82947 -0.556498l1.86871 -2.68599l-3.03151 -4.4212l-0.171204 -1.81441l10.4573 -5.13057l3.7184 -5.15098l4.21507 -1.11403l15.0019 1.49483l1.18182 3.15188l-5.37199 4.59552l3.52472 1.8068l1.8234 3.96189l-1.28731 7.76469l6.25153 3.47353l-2.43213 3.78204l-11.0988 8.04865l6.47703 0.835266l2.25297 -2.03992l6.23562 -1.45506l1.50417 -2.80393l4.90507 -2.69845l-3.30267 -3.22209l2.64414 -3.74123l-6.19722 -0.465535l-1.36202 -3.15188l4.52185 -5.69053l-7.36003 -4.61938l10.1425 -3.82043l-1.31256 -4.02899l2.82642 -0.129354l2.97721 3.14288l-2.23464 5.4671l6.06337 1.03587l-2.58431 -4.08675l9.48399 -2.22807l11.7605 -0.29952l10.4721 3.23004l-5.03996 -4.71899l-0.564453 -6.03743l9.85441 -1.14343l13.6292 0.250407l12.28 -0.742228l-4.60486 -2.96269l6.55727 -3.72186l6.50989 -0.155294l11.0182 -2.81154l14.9635 -0.755025l1.8905 -1.55259l14.8795 -0.525716l4.63633 1.27244l12.7171 -3.01111l10.4109 0.0940755l1.56158 -2.44562l5.41522 -2.41172l13.3777 -2.3256l9.71849 1.83586l-7.71592 1.39626l12.8361 0.868123l1.52907 2.80048l5.1783 -1.37828l16.5656 0.0750529l12.7739 2.76416l4.54917 2.12258l-1.40975 2.94574l-6.26847 1.6771l-14.8919 3.14634l-4.25692 1.68056l7.02661 0.793416l8.38241 1.43016l5.10083 -1.07218l2.89144 3.63713l2.48851 -1.47235l9.06099 -0.895447l18.1811 0.936259l1.38139 2.64968l23.6901 0.843221l0.324076 -4.32817l12.0261 0.991597l9.04612 -0.0304362l9.15057 2.98517l2.60887 3.62675l-3.35248 2.37195l7.11757 4.45959l8.91123 2.3007l5.4671 -5.94543l9.09074 2.54903l9.65796 -1.52319l10.9684 1.74282l4.17322 -1.58891l9.26921 0.794454l-4.09125 -5.26097l7.48108 -2.45461l51.1816 3.68001l4.82345 3.36355l14.8328 4.33059l22.8821 -1.07218l11.2825 0.933838l4.71692 2.34255l-0.689311 4.14347l6.9813 1.61381l7.58449 -1.16038l10.0491 -0.148376l10.6987 1.11161l10.7395 -0.626709l9.87136 5.0365l7.02212 -1.81199l-4.58203 -3.62225l2.52275 -2.51721l18.0791 1.58441"/>
<path d="M447.614 -264.909l-3.36407 0.515386l-0.567218 1.07177l-2.47678 -1.01613l-3.84548 0.0251836l-5.54304 -0.774104l-7.16123 -0.208351l-4.7887 2.20415l-0.417287 1.26314l-1.93475 0.123722l0.327973 0.965178l-1.68379 1.17236l-0.0184485 1.11291l3.75822 3.51634l1.0091 -5.75241l2.79568 -0.588009l0.792406 -1.68203l2.80183 -0.374826l0.326802 -1.13224l0.838381 0.926085l9.03712 0.63252l7.02097 0.557554l2.52071 -0.412309l2.01323 -1.55963l-1.44162 -0.586252"/>
<path d="M603.953 -299.2l-1.81322 1.01994l-1.58657 0.566632l-2.83345 1.35992l-2.38015 1.58672l-3.74006 0.793431l-3.05981 0l-1.35992 0.679958l0.793285 0.793285l3.06011 0.566632l2.94649 0.226653l2.38015 -0.339979l2.83345 -1.35992l2.03988 -1.58657l3.06011 -1.58686l3.8531 -0.566632l2.71983 -0.906611l2.15349 -1.24659l1.58657 -1.92684l1.70019 -0.339979l0.226653 -1.01994l-1.13326 -0.339979l2.26653 -1.92684l1.24688 0.906904l0.566339 -1.13341l0.906611 -2.94663l1.02023 -2.15335l0.226653 -1.47339l1.30223 -4.1534l-2.39596 -0.10176l-1.77662 1.10676l-0.797677 2.8787l-3.8121 4.34974l-1.92684 2.26682l-2.49318 1.92655l-1.6999 0.793285l-1.24659 1.13326l-3.06011 1.36006l0.226653 0.793431"/>
<path d="M340.299 -250.833l1.06035 -2.94327l-0.65946 -4.46951l-1.60297 0.296347l0.600894 -1.63049l1.00207 -0.44496l0 -1.18597l-2.00356 -0.889481l-1.20237 -0.29664l-0.129432 3.40184l-1.87413 -1.32624l-2.40416 0.296494l-0.510115 2.19142l-2.29493 3.44225l0 2.37209l1.20208 1.48247l2.40445 -2.96494l0 -2.0756l0.22636 -1.54792l2.25481 1.04834l-0.0770151 1.09256l-1.60268 3.55822l4.00713 1.18597l1.60268 -0.592987"/>
<path d="M595.428 -443.739l-31.9449 2.18671l10.3516 -7.44028l4.65488 -0.637047l4.2583 0.369013l14.3628 3.21838l-1.68277 2.30322"/>
<path d="M566.325 -446.992l-12.3636 0.70686l-15.7836 -1.63509l-9.40502 -2.16328"/>
<path d="M567.724 -452.087l-1.39907 5.09544"/>
</g>
</g>
</g>
</g>
<g inkscape:groupmode="layer" inkscape:label="Coastline" id="Coastline"><title>Coastline</title>
<g>
<g id="drawing" transform="translate(-311.667,-0)">
<g stroke-width="1px" stroke="rgb(51,51,51)" fill="none">
<path d="M311.667 -0l0 -453.333l680 0l0 453.333l-680 0"/>
</g>
</g>
</g>
</g>
<g id="Clone of page">
</g>
</g>
</g><!--ePage-->
</svg>
