<?xml version="1.0" ?>
<svg version="1.1" encoding="iso-8859-1" baseProfile="full"
xmlns:dc="http://purl.org/dc/elements/1.1/"
xmlns:cc="http://creativecommons.org/ns#"
xmlns:rdf="http://www.w3.org/1999/02/22-rdf-syntax-ns#"
xmlns="http://www.w3.org/2000/svg"
xmlns:xlink="http://www.w3.org/1999/xlink"
xmlns:ev="http://www.w3.org/2001/xml-events"
xmlns:sodipodi="http://sodipodi.sourceforge.net/DTD/sodipodi-0.dtd"
xmlns:inkscape="http://www.inkscape.org/namespaces/inkscape"
inkscape:version="0.46"
inkscape:output_extension="org.inkscape.output.svg.inkscape"
viewBox="0 0 681 198" xml:space="preserve">
<title>Magics plot</title>
<metadata id="MAGICSmetadata">
<rdf:RDF><cc:Work rdf:about="">
	<dc:format>image/svg+xml</dc:format>
	<dc:title>Magics plot</dc:title>
	<dc:author>baudouin on Baudouins-iMac-3.local</dc:author>
	<dc:date>Sat Sep 12 16:16:45 2020</dc:date>
	<dc:language>en-GB</dc:language>
	<dc:publisher><cc:Agent>
	 <dc:title>Magics 4.4.5 (64 bit)</dc:title>
	</cc:Agent></dc:publisher>
	<dc:coverage>Plot of meteorological data</dc:coverage>
</cc:Work></rdf:RDF>
</metadata>
<g id="page" transform="translate(0,197.943)" vector-effect="non-scaling-stroke">
<g id="Page13">
<g inkscape:groupmode="layer" inkscape:label="Coastline" id="Coastline"><title>Coastline</title>
<g>
<g id="drawing" transform="translate(207.509,-272.691)">
</g>
</g>
</g>
<g inkscape:groupmode="layer" inkscape:label="Coastline" id="Coastline"><title>Coastline</title>
<g>
<g id="drawing" transform="translate(207.509,-272.691)">
<g fill-rule="evenodd" stroke="none">
<path fill="rgb(255,225,170)" d="M143.942 221.822l2.67425 -4.49457l-0.369434 -0.292261l-0.85822 -0.68084l1.19755 -3.67898l-2.47416 3.67928l-2.77192 1.73151l0.177366 1.48492l-0.254506 0.200134l-1.71772 1.33735l2.10583 1.32196l2.29097 -0.608496"/>
<path fill="rgb(255,225,170)" d="M109.443 237.564l0.343737 0.8559l5.74757 -3.2604l-0.21568 -1.72721l-1.93516 1.68842l-0.322133 -0.920718l-3.21843 1.09091l-3.07626 1.75943l-3.0192 -0.706495l0.178883 2.49993l5.51668 -1.27976"/>
<path fill="rgb(255,225,170)" d="M66.0717 241.354l-1.07392 -1.46429l0.359681 -4.54299l-3.00308 1.30347l-4.0824 1.64741l-4.98693 0.65553l0.0178782 2.85888l6.5385 1.32923l2.30193 0.032462l3.77918 1.14668l0.149155 -2.96638"/>
<path fill="rgb(255,225,170)" d="M38.2404 235.717l1.92648 0.0239122l-0.628979 -7.07832l-3.00006 -3.32076l-1.71899 1.9352l-2.22093 0.0609139l1.34903 2.87681l1.10834 6.37037l1.78156 1.17599l1.40355 -2.04412"/>
<path fill="rgb(255,225,170)" d="M37.0877 220.21l-1.38668 -4.32393l-2.12502 2.3617l-0.479272 2.04453l1.43055 3.36701l1.94383 0.781465l0.616597 -4.23077"/>
<path fill="rgb(255,225,170)" d="M-179.22 91.5563l-0.532244 -2.57872l1.67925 -2.18287l-1.98136 -0.498689l-1.15558 1.52745l0.0606388 4.97761l0.899312 1.01535l2.65772 0.562886l-1.62774 -2.82301"/>
<path fill="rgb(255,225,170)" d="M-164.645 88.1504l0.308617 -3.90407l-0.765909 -4.33741l-0.857461 -0.818021l-0.804032 3.73046l0.528464 4.47952l0.826733 1.36714l0.763588 -0.517611"/>
<path fill="rgb(255,225,170)" d="M-155.463 118.653l1.86247 -2.73357l1.87475 -1.94383l-2.07355 -1.3546l3.55944 -1.3549l-0.6638 -3.52405l-1.85848 -0.519662l-0.509913 -3.1471l2.07149 -0.0479321l-0.323923 -2.37322l-2.55457 -0.812512l4.78252 -0.647909l3.50998 -0.373106l1.43809 -0.26792l-0.622821 -1.29333l-2.89203 -1.27474l-3.41014 -0.0881588l-8.47368 1.41144l-4.01825 -0.807296l-0.423059 1.94813l-2.59833 -0.888575l-1.0203 1.21037l3.34524 5.70914l2.25781 2.8976l0.827716 3.40084l-3.33993 -0.665797l1.02095 1.80951l5.88363 0.725374l0.0355372 1.14362l-3.79503 1.82755l0.577076 2.41696l1.09598 1.15345l4.43511 -1.53577"/>
<path fill="rgb(255,225,170)" d="M-20.3377 170.84l2.71475 -4.09199l-0.104211 -3.51026l1.85645 -3.15767l-2.64148 -3.29236l-2.31819 -0.090381l-2.39212 1.94489l-4.39928 3.14725l0.686396 5.13728l-3.24652 4.64481l4.13664 1.42875l5.70756 -2.16033"/>
<path fill="rgb(255,225,170)" d="M34.219 151.965l-1.36325 -2.16607l-3.54453 2.35582l0.753516 1.8895l3.37938 2.09142l0.774881 -4.17067"/>
<path fill="rgb(255,225,170)" d="M-14.3755 180.942l2.88756 0.770893l2.21748 -2.20038l1.41879 1.0442l5.38644 -1.2087l4.18849 0.0544598l2.75076 -2.63678l-1.27874 -2.52157l1.50985 -1.476l0.274509 -3.14346l-3.5953 -0.863896l-0.845672 -1.92321l-1.75055 -5.54032l-1.91173 -0.803453l-2.49113 -6.26861l-2.76549 -0.432501l2.58044 -4.17947l0.813742 -3.86049l-2.78496 -0.146815l-2.63413 0.489654l2.99651 -4.96548l-2.99924 0.210531l-1.93595 -0.532595l-2.29628 3.65197l-1.44372 4.80812l1.07591 2.56691l-0.295892 4.62817l1.67129 -2.13099l0.77698 1.3971l-1.17838 2.06162l0.546135 1.35986l3.32147 1.09953l1.75961 3.16052l-0.571776 2.79815l-4.27755 -0.728972l-0.814506 3.14028l1.41818 2.75731l-3.26296 1.25597l0.682567 2.02679l4.74047 1.17548l-2.82581 0.877369l-5.04203 4.77738l1.59372 1.15131l2.39091 -1.69988"/>
<path fill="rgb(255,225,170)" d="M-35.9691 112.068l6.50116 -1.39578l3.34644 -2.77908l-1.32415 -3.57062l1.16471 -2.76522l-2.83891 -1.11557l-3.59389 1.45806l-1.80602 -1.96929l-3.5162 1.38986l-1.56866 -3.95623l-2.83348 -0.460124l-2.3719 2.21833l3.2554 2.56495l-0.434135 1.28309l-3.52432 -0.530145l3.0861 3.75034l-2.60886 1.1395l4.77747 3.44268l2.33735 1.54235l1.95189 -0.247101"/>
<path fill="rgb(255,225,170)" d="M-175.662 99.5929l3.09036 -2.02861l-6.71317 -0.304378l-3.39163 -4.87643l0.256005 -5.26435l2.98037 -2.67539l4.47909 -3.287l4.39982 1.4022l0.971462 -3.68044l-2.38685 -4.13057h-29.1434l1.46846 1.65131l3.06 2.8993l3.81325 2.67157l1.30852 -1.23734l2.1737 3.44434l2.57712 5.18154l-6.5182 -3.97652l-3.95396 1.90453l0.82701 2.76479l5.15883 2.18905l3.49293 2.35496l6.47612 5.70088l5.1092 2.20048l0.464955 -2.90395"/>
<path fill="rgb(255,225,170)" d="M-138.137 94.0318l0.869451 -1.99383l-0.697146 -2.22659l2.83786 -3.17214l0.345398 -2.33712l-1.21713 -4.41529l1.15808 -3.50002l0.240393 -1.63891h-31.1698l0.584331 1.00793l2.00867 4.3161l2.18074 6.53002l3.32408 4.30859l5.51408 1.33104l4.18898 3.38524l2.64966 0.889425l2.76084 0.791368l4.42151 -3.27581"/>
<path fill="rgb(255,225,170)" d="M160.297 250.101l-4.16565 -3.31986l0.157453 -0.729162l4.0082 2.67474v-102.039l-1.23507 -1.39717l-5.90035 -0.867526l-1.44204 -6.25157l1.68309 -3.14464l-1.22015 -3.20775l1.30764 -3.18066l0.828078 -4.52769l2.80103 -1.54104l1.91999 -2.91032l1.25778 0.604249v-45.5155h-87.2406l0.979927 2.05374l-2.35548 0.0238156l-1.42394 0.948793l-0.344218 6.2493l3.17017 1.74064l-0.551888 1.93148l-5.49802 0.694173l-0.0243339 2.10925l2.2242 0.904075l1.14353 1.94636l-1.9898 -0.017613l-2.92164 0.357415l-4.11771 -5.47049l-4.37351 -1.10179l0.786571 -1.22058l8.67466 -2.02437l1.57604 -2.86498l-0.0267116 -3.14639l-2.0891 -2.21629l-2.42147 -0.778369l-8.13416 -0.116825l-4.23558 1.66025l-3.66932 -0.887221l-0.553064 2.19167l-2.91788 -1.58264l0.725566 -1.38339h-6.50171l-0.746212 0.776991l-2.50501 0.971625l-0.580703 4.34842l-2.42305 0.72873l-2.49535 3.03552l-2.47913 6.7766l-1.80856 4.06418l-2.13248 9.60443l-2.19493 6.9918l-3.16199 5.37313l-5.02663 4.56837l-1.70108 3.17394l1.69194 10.7163l1.3497 4.97723l3.69208 2.01988l3.15715 -1.55093l3.87303 -6.18661l2.13491 2.5496l3.1983 6.20789l3.28478 4.84041l1.84218 4.24188l3.02995 -0.956742l0.534324 -4.07355l3.25064 -0.406982l0.189894 -4.72561l-1.36189 -7.92789l2.10167 -1.81721l0.413087 -5.74395l-2.92947 -1.77734l-2.53485 -2.66392l-0.454674 -6.74399l2.54098 -5.08375l1.71211 -4.61561l-1.31271 -2.52092l0.540684 -3.67096l2.46416 -2.46079l3.28792 0.882039l1.01396 1.67398l-0.768911 1.42405l-2.18723 6.42083l-0.648674 3.40175l0.0426518 2.88868l2.51338 3.53485l1.21817 4.47648l2.64864 0.601069l2.23827 1.84865l3.11454 -2.45005l2.97015 -3.31663l3.56872 -2.25134l3.21496 0.793485l-1.12594 3.57748l-2.1313 1.2653l-2.6718 0.456612l-2.43422 1.90459l-2.24918 2.43989l1.27415 2.41214l2.12072 0.907659l0.59038 -0.921648l0.89105 2.67398l1.05155 3.54136l-1.87307 0.924273l-3.26773 -2.48683l-1.62011 2.41183l-0.0961126 3.25762l1.21162 3.39959l1.99972 3.56478l-3.02504 2.80881l0.120161 2.21933l-2.58692 0.83497l-0.578323 -1.05127l-2.90011 0.089258l-2.89005 2.59488l-3.65258 3.347l-1.53759 1.87003l-1.68294 -1.1777l-3.54731 -1.14201l-1.27126 1.635l-2.65517 1.46739l-0.29754 -1.6965l-3.00051 -0.594201l-0.371146 -1.83175l-1.13606 -2.18773l1.31295 -3.74688l0.878281 0.367296l0.300673 -1.89906l-1.54131 -0.448388l-0.549422 -1.2615l0.475365 -1.66953l-0.363669 -2.4255l-1.78394 1.68619l-0.672809 1.44798l-2.20801 0.648836l-0.529867 1.52747l-0.249954 1.34153l0.772559 4.8497l1.49203 2.48606l0.534553 2.69458l0.915773 1.69933l-1.57732 2.6582l-0.679565 -0.987324l-2.35017 0.576985l-0.434385 1.09119l-2.40771 0.135669l-3.77728 2.4063l-2.07849 7.38965l-1.49396 1.44937l-2.42411 1.09896l-2.67877 1.09497l-0.840771 4.08565l-7.48512 3.908l-2.99902 -2.21732l0.859306 5.68938l-5.48869 -1.52615l-4.34697 0.793718l0.0454125 3.68151l5.04889 2.27517l2.41297 2.67292l3.45229 5.44835l-0.923158 10.2334l-2.02984 3.05889l-6.09417 -0.460153l-3.15041 0.0567026l-3.92704 -1.22718l-5.03435 -0.503004l-4.44288 -1.5208l-5.8603 2.90719l1.18516 2.49018l-0.779665 3.66501l-0.107471 1.7838l0.490876 1.99993l-0.255636 2.23511l-1.32982 3.03536l-0.626215 2.08994l-1.94058 1.65794l-0.909922 3.42464l0.662898 2.18895l1.80147 0.793856l-0.113097 3.36657l-1.31408 4.12992l2.32891 -0.256645l2.18181 1.09063l1.93571 -1.17676l3.95321 1.34094l0.891935 3.28368l1.44463 2.02922l2.13539 0.671751l1.88627 -1.92531l2.92279 -1.71283l4.18863 0.389973l5.59772 0.188229l3.22818 -4.11679l3.287 -1.02649l0.963007 -3.52711l2.45778 -2.40724l-1.62894 -3.08383l1.59553 -4.36066l2.47355 -2.97209l0.334374 -1.79156l5.08614 -1.24936l3.58367 -3.68166l-0.368217 -3.03857l0.271617 -3.1699l5.40639 -2.05683l7.58813 0.681695l3.04397 -3.33666l1.4954 -0.585183l1.79251 -2.68657l1.57925 -0.946597l3.25548 1.19784l1.93266 0.272667l2.08586 4.8511l3.14012 2.46961l4.19376 2.63306l3.53701 1.6596l2.94776 -0.341889l2.19236 1.65521l2.74981 0.293079l1.74818 1.91673l1.81227 0.198507l1.93468 2.2645l2.41964 2.55333l-0.559998 1.35996l-0.0419357 3.02948l0.432814 1.60498l1.60574 -0.892864l0.865467 -5.09851l1.588 -0.81467l-0.353534 -2.83101l-3.43498 -1.04028l0.656962 -3.80392l3.63148 -0.212022l2.93178 1.67061l0.122332 -2.0582l-0.715337 -0.812546l-4.14974 -1.57199l-3.28025 -0.667265l-3.95085 -0.833995l0.773601 -1.31632l-1.24084 -0.854911l-2.94731 0.853295l-5.24247 -3.00728l-2.88533 -3.73198l-4.01017 -1.75404l-1.75023 -2.3097l0.124473 -1.53116l-0.741852 -2.45021l2.44526 -2.41707l2.94452 0.0578143l-0.664726 0.643056l-0.104641 0.110877l0.342498 1.75069l1.4553 1.41791l0.539657 -2.4264l2.45985 0.198206l0.512962 1.6625l2.18806 1.65811l-0.619304 0.569129l4.05659 2.83253l3.76078 0.502517l2.67045 1.14038l4.04149 0.72531l1.92021 0.451468l1.59347 1.26628l0.909261 0.113969l0.900049 0.563151l0.0386145 1.72631l0.880114 3.52463l1.17397 2.27713l2.73722 0.92688l0.479832 1.07927l0.787981 0.111875l0.790944 1.33915l3.08392 2.12886l2.43117 1.73483l2.00817 3.10155l3.12376 3.47584l4.25526 0.85681l2.68932 -1.20582l-3.42498 -3.81255l2.31352 -1.61044l-2.26828 -2.05219l4.22714 -0.269706l-1.31072 -2.78123l-2.55909 -0.590223l-3.14006 -1.36106l0.985231 -1.70641l-2.89956 -1.50391l-2.07977 -2.59263l0.251641 -1.37446l3.06136 1.68372l2.09043 -0.919924l1.54039 -1.64594l-3.79029 -1.58794l3.86801 -3.26394l2.10862 -0.436604l2.27052 -0.927899l0.432703 1.0101l2.24296 1.66261l1.7295 -4.08776l0.765691 -2.24696l4.04879 -2.50308l0.00801304 -1.48725l-3.8536 0.153276l-1.36522 -1.56948l-2.50756 -2.06322l-0.511401 -3.95819l0.702918 -2.82655l-2.08793 -5.97053l1.2039 -0.116019l0.996268 -1.83273l-0.728001 -1.11019l0.508475 -4.66483l-0.301841 -3.08242l2.44216 -2.21227l1.20263 1.48802l5.32198 -1.86362l1.50283 0.410103l-1.93848 3.2963l-0.00692463 1.17161l4.13861 -0.894607l0.662212 2.46566l2.28914 -0.259633l2.41012 -5.28506l2.70806 -3.05049l-0.520328 -1.89349l-2.78862 2.40808l-2.14849 0.00469983l-1.99367 -2.48511l1.36492 -3.29741l2.47405 -2.15033l0.851764 -2.70419l1.9306 -2.01264l1.90331 -2.56967l0.770689 0.802827l-2.7258 4.80583l2.78846 0.382135l0.286767 5.19441l-1.6031 2.23754l4.33387 0.513254l4.51252 -1.06295l6.46939 0.369349l2.09226 0.324673l1.99503 -0.918844l2.93785 -0.00804012l3.10246 2.03511l1.05834 2.07472l-1.73513 5.16571l-2.94244 1.84688l-3.11235 3.5652l-5.78522 1.87237l-7.74831 1.03955l-5.27657 3.73986l-3.02657 3.73517l-2.24967 5.42495l-6.92401 3.2173l0.483328 4.34882l-5.41194 3.12502l-1.76278 6.61664l3.51194 1.12293l0.0420095 4.68348l4.15651 1.28826l4.79955 3.65112l4.19828 -2.36224l5.17834 0.468054l2.33731 -2.11014l-0.279916 -2.48787l4.16627 -2.3031l4.6182 0.597175l5.31868 -4.23355l0.723426 -4.33454l3.74577 -1.08916l1.90879 -1.95806l-0.142818 2.66114l2.8046 1.06461l0.449768 2.49709l2.85313 3.20693l0.04441 0.20862l0.437072 4.56456l1.29286 4.73539l-0.0741391 0.122942l0.267716 1.57158l1.66278 4.09995l0.463216 2.94642l0.462004 0.0786035l-0.10865 2.38103l-1.20646 2.57545l-3.41647 1.85842l-4.08308 0.987133l0.0296129 2.2144l-2.66006 -1.72798l-3.36796 1.19763l-3.49427 2.61317l-0.936384 2.44903l-2.43697 3.47319l-2.45489 0.312929l-5.14515 0.794526l-4.91624 0.789698l-5.84089 2.93256l-1.8864 -1.21693l-4.68786 1.38917l-1.81032 -0.272097l-1.66654 0.695665l-2.51643 -1.70692l-6.44746 1.37222l-2.79558 1.91822l-2.3164 3.7256l-0.481994 3.14722l2.58956 3.76863l-1.34558 3.32708l-1.42628 1.76097h65.388v-22.5901z
M74.1082 106.363L74.7442 105.928L75.5051 105.549L73.9023 104.919L72.926 104.703L71.4139 103.959L70.0858 102.877L69.924 102.544L70.7751 102.343L70.1157 101.539L70.9002 101.877L71.7513 102.167L71.8542 101.797L72.1229 101.248L70.9278 100.772L69.2748 100.366L69.9781 99.9561L70.5898 99.9417L72.4998 100.84L74.6446 102.536L76.4682 103.752L76.6771 105.114L75.4588 106.374L74.1082 106.363z
M69.3303 114.89L67.0189 113.622L66.4483 112.798L64.2414 112.005L64.8995 108.646L69.7009 109.295L71.7064 110.653L71.8669 111.448L71.3159 111.514L72.1063 112.819L70.2902 113.812L70.6885 115.309L69.8569 115.775L69.3303 114.89z
M30.5342 137.302L30.3897 136.828L30.7307 136.395L31.4734 136.033L31.7265 135.316L32.4309 134.141L33.4883 134.522L33.6361 135.063L33.6906 135.945L32.4987 137.665L31.5152 138.378L30.6239 138.592L30.5342 137.302"/>
<path fill="rgb(255,225,170)" d="M88.53 272.126l-7.41467 -0.232733l-4.57387 0.157784l-3.57008 -4.31643l-6.83459 -0.861791l-4.11316 0.00996686l-1.85053 0.925443l-5.89178 -0.741915l-1.94497 -0.515466l-1.67798 -2.415l-2.40356 0.350871l-1.41801 -2.8615l2.47393 -3.32327l-0.321802 -4.84745l-1.78539 -1.06183l-0.440247 -2.51747l1.65981 -3.06272l-0.508082 -0.973775l-3.28749 2.67044l-0.364686 -2.75464l-3.1142 -0.125029l-4.35192 2.92475l-2.92471 0.752161l-1.93306 -1.03254l-4.63109 0.59502l-3.89354 2.56973l-2.2832 -0.617339l-7.2238 0.950984l-7.42714 1.28062l-4.23921 1.75055l-2.81258 2.29059l-4.87159 0.906399l-4.44278 2.90856l-1.9751 -0.141246l-4.63378 -1.48419l-4.33164 0.0744573l-2.51383 -2.58287l-3.29462 -0.347351l-1.77784 3.24487l-3.72426 5.4093l-3.73925 1.87239l-5.05792 1.88806l-3.63749 3.31906l-0.20857 0.529097h136.551l-3.24084 -0.56455"/>
<path fill="rgb(255,225,170)" d="M-88.3237 95.1602l3.35754 -2.16467l1.82338 -3.27036l5.03414 -0.466851l2.77291 -1.61926l2.13057 -2.43695l3.10624 -1.10322l2.79833 0.889358l2.67231 0.640197l1.14948 0.620678l5.08826 -0.336335l4.71766 -2.66401l2.43683 -0.53821l1.61145 0.954249l5.06838 1.03211l5.58273 -1.22932l5.44668 -1.91956l-1.85259 -1.05617l-3.5782 -1.88401l2.61385 -1.37814l0.716142 -2.48174h-57.3581l-1.64816 4.94005l-2.51796 4.07336l-0.484486 3.34276l3.08081 3.36994l-0.340572 5.12853l2.57671 2.09613l3.99565 -2.53856"/>
<path fill="rgb(255,225,170)" d="M-30.9385 76.0674l-0.257736 -1.31945h-4.19933l0.45554 2.6104l0.348268 2.06068l2.80996 0.228344l0.843298 -3.57998"/>
<path fill="rgb(114,163,255)" d="M160.297 120.263l-1.25778 -0.604249l-1.91999 2.91032l-2.80103 1.54104l-0.828078 4.52769l-1.30764 3.18066l1.22015 3.20775l-1.68309 3.14464l1.44204 6.25157l5.90035 0.867526l1.23507 1.39717v-26.4241"/>
<path fill="rgb(114,163,255)" d="M96.3357 270.93l1.34558 -3.32708l-2.58956 -3.76863l0.481994 -3.14722l2.3164 -3.7256l2.79558 -1.91822l6.44746 -1.37222l2.51643 1.70692l1.66654 -0.695665l1.81032 0.272097l4.68786 -1.38917l1.8864 1.21693l5.84089 -2.93256l4.91624 -0.789698l5.14515 -0.794526l2.45489 -0.312929l2.43697 -3.47319l0.936384 -2.44903l3.49427 -2.61317l3.36796 -1.19763l2.66006 1.72798l-0.0296129 -2.2144l4.08308 -0.987133l3.41647 -1.85842l1.20646 -2.57545l0.10865 -2.38103l-0.462004 -0.0786035l-0.463216 -2.94642l-1.66278 -4.09995l-0.267716 -1.57158l0.0741391 -0.122942l-1.29286 -4.73539l-0.437072 -4.56456l-0.04441 -0.20862l-2.85313 -3.20693l-0.449768 -2.49709l-2.8046 -1.06461l0.142818 -2.66114l-1.90879 1.95806l-3.74577 1.08916l-0.723426 4.33454l-5.31868 4.23355l-4.6182 -0.597175l-4.16627 2.3031l0.279916 2.48787l-2.33731 2.11014l-5.17834 -0.468054l-4.19828 2.36224l-4.79955 -3.65112l-4.15651 -1.28826l-0.0420095 -4.68348l-3.51194 -1.12293l1.76278 -6.61664l5.41194 -3.12502l-0.483328 -4.34882l6.92401 -3.2173l2.24967 -5.42495l3.02657 -3.73517l5.27657 -3.73986l7.74831 -1.03955l5.78522 -1.87237l3.11235 -3.5652l2.94244 -1.84688l1.73513 -5.16571l-1.05834 -2.07472l-3.10246 -2.03511l-2.93785 0.00804012l-1.99503 0.918844l-2.09226 -0.324673l-6.46939 -0.369349l-4.51252 1.06295l-4.33387 -0.513254l1.6031 -2.23754l-0.286767 -5.19441l-2.78846 -0.382135l2.7258 -4.80583l-0.770689 -0.802827l-1.90331 2.56967l-1.9306 2.01264l-0.851764 2.70419l-2.47405 2.15033l-1.36492 3.29741l1.99367 2.48511l2.14849 -0.00469983l2.78862 -2.40808l0.520328 1.89349l-2.70806 3.05049l-2.41012 5.28506l-2.28914 0.259633l-0.662212 -2.46566l-4.13861 0.894607l0.00692463 -1.17161l1.93848 -3.2963l-1.50283 -0.410103l-5.32198 1.86362l-1.20263 -1.48802l-2.44216 2.21227l0.301841 3.08242l-0.508475 4.66483l0.728001 1.11019l-0.996268 1.83273l-1.2039 0.116019l2.08793 5.97053l-0.702918 2.82655l0.511401 3.95819l2.50756 2.06322l1.36522 1.56948l3.8536 -0.153276l-0.00801304 1.48725l-4.04879 2.50308l-0.765691 2.24696l-1.7295 4.08776l-2.24296 -1.66261l-0.432703 -1.0101l-2.27052 0.927899l-2.10862 0.436604l-3.86801 3.26394l3.79029 1.58794l-1.54039 1.64594l-2.09043 0.919924l-3.06136 -1.68372l-0.251641 1.37446l2.07977 2.59263l2.89956 1.50391l-0.985231 1.70641l3.14006 1.36106l2.55909 0.590223l1.31072 2.78123l-4.22714 0.269706l2.26828 2.05219l-2.31352 1.61044l3.42498 3.81255l-2.68932 1.20582l-4.25526 -0.85681l-3.12376 -3.47584l-2.00817 -3.10155l-2.43117 -1.73483l-3.08392 -2.12886l-0.790944 -1.33915l-0.787981 -0.111875l-0.479832 -1.07927l-2.73722 -0.92688l-1.17397 -2.27713l-0.880114 -3.52463l-0.0386145 -1.72631l-0.900049 -0.563151l-0.909261 -0.113969l-1.59347 -1.26628l-1.92021 -0.451468l-4.04149 -0.72531l-2.67045 -1.14038l-3.76078 -0.502517l-4.05659 -2.83253l0.619304 -0.569129l-2.18806 -1.65811l-0.512962 -1.6625l-2.45985 -0.198206l-0.539657 2.4264l-1.4553 -1.41791l-0.342498 -1.75069l0.104641 -0.110877l0.664726 -0.643056l-2.94452 -0.0578143l-2.44526 2.41707l0.741852 2.45021l-0.124473 1.53116l1.75023 2.3097l4.01017 1.75404l2.88533 3.73198l5.24247 3.00728l2.94731 -0.853295l1.24084 0.854911l-0.773601 1.31632l3.95085 0.833995l3.28025 0.667265l4.14974 1.57199l0.715337 0.812546l-0.122332 2.0582l-2.93178 -1.67061l-3.63148 0.212022l-0.656962 3.80392l3.43498 1.04028l0.353534 2.83101l-1.588 0.81467l-0.865467 5.09851l-1.60574 0.892864l-0.432814 -1.60498l0.0419357 -3.02948l0.559998 -1.35996l-2.41964 -2.55333l-1.93468 -2.2645l-1.81227 -0.198507l-1.74818 -1.91673l-2.74981 -0.293079l-2.19236 -1.65521l-2.94776 0.341889l-3.53701 -1.6596l-4.19376 -2.63306l-3.14012 -2.46961l-2.08586 -4.8511l-1.93266 -0.272667l-3.25548 -1.19784l-1.57925 0.946597l-1.79251 2.68657l-1.4954 0.585183l-3.04397 3.33666l-7.58813 -0.681695l-5.40639 2.05683l-0.271617 3.1699l0.368217 3.03857l-3.58367 3.68166l-5.08614 1.24936l-0.334374 1.79156l-2.47355 2.97209l-1.59553 4.36066l1.62894 3.08383l-2.45778 2.40724l-0.963007 3.52711l-3.287 1.02649l-3.22818 4.11679l-5.59772 -0.188229l-4.18863 -0.389973l-2.92279 1.71283l-1.88627 1.92531l-2.13539 -0.671751l-1.44463 -2.02922l-0.891935 -3.28368l-3.95321 -1.34094l-1.93571 1.17676l-2.18181 -1.09063l-2.32891 0.256645l1.31408 -4.12992l0.113097 -3.36657l-1.80147 -0.793856l-0.662898 -2.18895l0.909922 -3.42464l1.94058 -1.65794l0.626215 -2.08994l1.32982 -3.03536l0.255636 -2.23511l-0.490876 -1.99993l0.107471 -1.7838l0.779665 -3.66501l-1.18516 -2.49018l5.8603 -2.90719l4.44288 1.5208l5.03435 0.503004l3.92704 1.22718l3.15041 -0.0567026l6.09417 0.460153l2.02984 -3.05889l0.923158 -10.2334l-3.45229 -5.44835l-2.41297 -2.67292l-5.04889 -2.27517l-0.0454125 -3.68151l4.34697 -0.793718l5.48869 1.52615l-0.859306 -5.68938l2.99902 2.21732l7.48512 -3.908l0.840771 -4.08565l2.67877 -1.09497l2.42411 -1.09896l1.49396 -1.44937l2.07849 -7.38965l3.77728 -2.4063l2.40771 -0.135669l0.434385 -1.09119l2.35017 -0.576985l0.679565 0.987324l1.57732 -2.6582l-0.915773 -1.69933l-0.534553 -2.69458l-1.49203 -2.48606l-0.772559 -4.8497l0.249954 -1.34153l0.529867 -1.52747l2.20801 -0.648836l0.672809 -1.44798l1.78394 -1.68619l0.363669 2.4255l-0.475365 1.66953l0.549422 1.2615l1.54131 0.448388l-0.300673 1.89906l-0.878281 -0.367296l-1.31295 3.74688l1.13606 2.18773l0.371146 1.83175l3.00051 0.594201l0.29754 1.6965l2.65517 -1.46739l1.27126 -1.635l3.54731 1.14201l1.68294 1.1777l1.53759 -1.87003l3.65258 -3.347l2.89005 -2.59488l2.90011 -0.089258l0.578323 1.05127l2.58692 -0.83497l-0.120161 -2.21933l3.02504 -2.80881l-1.99972 -3.56478l-1.21162 -3.39959l0.0961126 -3.25762l1.62011 -2.41183l3.26773 2.48683l1.87307 -0.924273l-1.05155 -3.54136l-0.89105 -2.67398l-0.59038 0.921648l-2.12072 -0.907659l-1.27415 -2.41214l2.24918 -2.43989l2.43422 -1.90459l2.6718 -0.456612l2.1313 -1.2653l1.12594 -3.57748l-3.21496 -0.793485l-3.56872 2.25134l-2.97015 3.31663l-3.11454 2.45005l-2.23827 -1.84865l-2.64864 -0.601069l-1.21817 -4.47648l-2.51338 -3.53485l-0.0426518 -2.88868l0.648674 -3.40175l2.18723 -6.42083l0.768911 -1.42405l-1.01396 -1.67398l-3.28792 -0.882039l-2.46416 2.46079l-0.540684 3.67096l1.31271 2.52092l-1.71211 4.61561l-2.54098 5.08375l0.454674 6.74399l2.53485 2.66392l2.92947 1.77734l-0.413087 5.74395l-2.10167 1.81721l1.36189 7.92789l-0.189894 4.72561l-3.25064 0.406982l-0.534324 4.07355l-3.02995 0.956742l-1.84218 -4.24188l-3.28478 -4.84041l-3.1983 -6.20789l-2.13491 -2.5496l-3.87303 6.18661l-3.15715 1.55093l-3.69208 -2.01988l-1.3497 -4.97723l-1.69194 -10.7163l1.70108 -3.17394l5.02663 -4.56837l3.16199 -5.37313l2.19493 -6.9918l2.13248 -9.60443l1.80856 -4.06418l2.47913 -6.7766l2.49535 -3.03552l2.42305 -0.72873l0.580703 -4.34842l2.50501 -0.971625l0.746212 -0.776991h-69.3843l0.257736 1.31945l-0.843298 3.57998l-2.80996 -0.228344l-0.348268 -2.06068l-0.45554 -2.6104h-0.232027l-0.716142 2.48174l-2.61385 1.37814l3.5782 1.88401l1.85259 1.05617l-5.44668 1.91956l-5.58273 1.22932l-5.06838 -1.03211l-1.61145 -0.954249l-2.43683 0.53821l-4.71766 2.66401l-5.08826 0.336335l-1.14948 -0.620678l-2.67231 -0.640197l-2.79833 -0.889358l-3.10624 1.10322l-2.13057 2.43695l-2.77291 1.61926l-5.03414 0.466851l-1.82338 3.27036l-3.35754 2.16467l-3.99565 2.53856l-2.57671 -2.09613l0.340572 -5.12853l-3.08081 -3.36994l0.484486 -3.34276l2.51796 -4.07336l1.64816 -4.94005h-41.6142l-0.240393 1.63891l-1.15808 3.50002l1.21713 4.41529l-0.345398 2.33712l-2.83786 3.17214l0.697146 2.22659l-0.869451 1.99383l-4.42151 3.27581l-2.76084 -0.791368l-2.64966 -0.889425l-4.18898 -3.38524l-5.51408 -1.33104l-3.32408 -4.30859l-2.18074 -6.53002l-2.00867 -4.3161l-0.584331 -1.00793h-6.20684l2.38685 4.13057l-0.971462 3.68044l-4.39982 -1.4022l-4.47909 3.287l-2.98037 2.67539l-0.256005 5.26435l3.39163 4.87643l6.71317 0.304378l-3.09036 2.02861l-0.464955 2.90395l-5.1092 -2.20048l-6.47612 -5.70088l-3.49293 -2.35496l-5.15883 -2.18905l-0.82701 -2.76479l3.95396 -1.90453l6.5182 3.97652l-2.57712 -5.18154l-2.1737 -3.44434l-1.30852 1.23734l-3.81325 -2.67157l-3.06 -2.8993l-1.46846 -1.65131h-6.38909v197.943h162.729l0.20857 -0.529097l3.63749 -3.31906l5.05792 -1.88806l3.73925 -1.87239l3.72426 -5.4093l1.77784 -3.24487l3.29462 0.347351l2.51383 2.58287l4.33164 -0.0744573l4.63378 1.48419l1.9751 0.141246l4.44278 -2.90856l4.87159 -0.906399l2.81258 -2.29059l4.23921 -1.75055l7.42714 -1.28062l7.2238 -0.950984l2.2832 0.617339l3.89354 -2.56973l4.63109 -0.59502l1.93306 1.03254l2.92471 -0.752161l4.35192 -2.92475l3.1142 0.125029l0.364686 2.75464l3.28749 -2.67044l0.508082 0.973775l-1.65981 3.06272l0.440247 2.51747l1.78539 1.06183l0.321802 4.84745l-2.47393 3.32327l1.41801 2.8615l2.40356 -0.350871l1.67798 2.415l1.94497 0.515466l5.89178 0.741915l1.85053 -0.925443l4.11316 -0.00996686l6.83459 0.861791l3.57008 4.31643l4.57387 -0.157784l7.41467 0.232733l3.24084 0.56455h3.13856l1.42628 -1.76097z
M-166.236 87.3009L-166.764 82.8213L-165.96 79.0909L-165.103 79.9089L-164.337 84.2463L-164.645 88.1504L-165.409 88.668L-166.236 87.3009z
M-180.25 93.8164L-181.149 92.801L-181.21 87.8234L-180.054 86.296L-178.073 86.7947L-179.752 88.9776L-179.22 91.5563L-177.592 94.3793L-180.25 93.8164z
M-160.994 119.036L-161.571 116.619L-157.776 114.791L-157.811 113.648L-163.695 112.922L-164.716 111.113L-161.376 111.779L-162.204 108.378L-164.461 105.48L-167.807 99.771L-166.786 98.5606L-164.188 99.4492L-163.765 97.5011L-159.747 98.3084L-151.273 96.8969L-147.863 96.9851L-144.971 98.2598L-144.348 99.5532L-145.786 99.8211L-149.296 100.194L-154.079 100.842L-151.524 101.655L-151.2 104.028L-153.272 104.076L-152.762 107.223L-150.903 107.743L-150.239 111.267L-153.799 112.621L-151.725 113.976L-153.6 115.92L-155.463 118.653L-159.898 120.189L-160.994 119.036z
M-40.2583 110.773L-45.0358 107.33L-42.427 106.191L-45.5131 102.44L-41.9887 102.97L-41.5546 101.687L-44.81 99.1224L-42.4381 96.904L-39.6046 97.3642L-38.036 101.32L-34.5198 99.9305L-32.7137 101.9L-29.1199 100.442L-26.281 101.557L-27.4457 104.323L-26.1215 107.893L-29.4679 110.672L-35.9691 112.068L-37.921 112.315L-40.2583 110.773z
M-18.3601 181.49L-13.3181 176.713L-10.4923 175.836L-15.2328 174.66L-15.9153 172.633L-12.6524 171.377L-14.0706 168.62L-13.2561 165.48L-8.97851 166.209L-8.40673 163.411L-10.1663 160.25L-13.4878 159.151L-14.0339 157.791L-12.8556 155.729L-13.6325 154.332L-15.3038 156.463L-15.0079 151.835L-16.0839 149.268L-14.6401 144.46L-12.3439 140.808L-10.4079 141.34L-7.40867 141.13L-10.4052 146.095L-7.77104 145.606L-4.98608 145.753L-5.79983 149.613L-8.38027 153.793L-5.61477 154.225L-3.12364 160.494L-1.21191 161.297L0.538642 166.837L1.38431 168.761L4.97961 169.625L4.7051 172.768L3.19525 174.244L4.47399 176.766L1.72324 179.402L-2.46525 179.348L-7.85169 180.557L-9.27048 179.512L-11.488 181.713L-14.3755 180.942L-16.7664 182.642L-18.3601 181.49z
M30.0647 154.044L29.3112 152.155L32.8557 149.799L34.219 151.965L33.4441 156.136L30.0647 154.044z
M-30.1819 171.571L-26.9354 166.927L-27.6218 161.789L-23.2225 158.642L-20.8304 156.697L-18.5122 156.788L-15.8707 160.08L-17.7272 163.238L-17.623 166.748L-20.3377 170.84L-26.0453 173L-30.1819 171.571z
M139.545 221.108L141.262 219.771L141.517 219.571L141.34 218.086L144.112 216.354L146.586 212.675L145.388 216.354L146.246 217.035L146.616 217.327L143.942 221.822L141.651 222.43L139.545 221.108z
M34.5273 223.659L33.0967 220.292L33.576 218.248L35.701 215.886L37.0877 220.21L36.4711 224.441L34.5273 223.659z
M35.0552 236.585L33.9469 230.215L32.5979 227.338L34.8188 227.277L36.5378 225.342L39.5379 228.662L40.1668 235.741L38.2404 235.717L36.8368 237.761L35.0552 236.585z
M103.748 236.344L106.767 237.051L109.843 235.291L113.062 234.2L113.384 235.121L115.319 233.433L115.535 235.16L109.787 238.42L109.443 237.564L103.927 238.844L103.748 236.344z
M62.1434 243.173L59.8414 243.141L53.3029 241.812L53.285 238.953L58.272 238.297L62.3544 236.65L65.3575 235.346L64.9978 239.889L66.0717 241.354L65.9225 244.32L62.1434 243.173"/>
<path fill="rgb(114,163,255)" d="M68.3871 93.332l1.9898 0.017613l-1.14353 -1.94636l-2.2242 -0.904075l0.0243339 -2.10925l5.49802 -0.694173l0.551888 -1.93148l-3.17017 -1.74064l0.344218 -6.2493l1.42394 -0.948793l2.35548 -0.0238156l-0.979927 -2.05374h-28.3672l-0.725566 1.38339l2.91788 1.58264l0.553064 -2.19167l3.66932 0.887221l4.23558 -1.66025l8.13416 0.116825l2.42147 0.778369l2.0891 2.21629l0.0267116 3.14639l-1.57604 2.86498l-8.67466 2.02437l-0.786571 1.22058l4.37351 1.10179l4.11771 5.47049l2.92164 -0.357415"/>
<path fill="rgb(114,163,255)" d="M160.297 248.726l-4.0082 -2.67474l-0.157453 0.729162l4.16565 3.31986v-1.37429"/>
<path fill="rgb(114,163,255)" d="M70.6885 115.309l-0.398359 -1.49724l1.81608 -0.992669l-0.790361 -1.30534l0.551014 -0.0656749l-0.16051 -0.794882l-2.00546 -1.35806l-4.8014 -0.649668l-0.658166 3.3596l2.20688 0.792248l0.570682 0.824353l2.31133 1.26769l0.526645 0.884995l0.831634 -0.46535"/>
<path fill="rgb(114,163,255)" d="M31.5152 138.378l0.98354 -0.712948l1.19191 -1.72014l-0.0545686 -0.881932l-0.147733 -0.541473l-1.0574 -0.380575l-0.704442 1.17554l-0.253104 0.716755l-0.742633 0.362167l-0.34108 0.43303l0.144501 0.47391l0.0897772 1.28943l0.891232 -0.213764"/>
<path fill="rgb(114,163,255)" d="M76.6771 105.114l-0.208815 -1.36246l-1.82364 -1.21609l-2.14482 -1.6958l-1.90993 -0.898011l-0.611764 0.0143842l-0.703258 0.409693l1.65301 0.405849l1.19506 0.476545l-0.268721 0.549027l-0.102827 0.369419l-0.851112 -0.289795l-0.784485 -0.337377l0.659403 0.80403l-0.851188 0.200339l0.161846 0.333004l1.32812 1.08194l1.51213 0.744365l0.976266 0.215517l1.60279 0.63013l-0.760945 0.379241l-0.635916 0.4348l1.35055 0.0116097l1.21826 -1.26036"/>
</g>
<g stroke-width="0.5px" stroke="rgb(209,179,139)" fill="none">
<path d="M146.586 212.675l-1.19755 3.67898l0.85822 0.68084l0.369434 0.292261l-2.67425 4.49457l-2.29097 0.608496l-2.10583 -1.32196l1.71772 -1.33735l0.254506 -0.200134l-0.177366 -1.48492l2.77192 -1.73151l2.47416 -3.67928"/>
<path d="M103.748 236.344l3.0192 0.706495l3.07626 -1.75943l3.21843 -1.09091l0.322133 0.920718l1.93516 -1.68842l0.21568 1.72721l-5.74757 3.2604l-0.343737 -0.8559l-5.51668 1.27976l-0.178883 -2.49993"/>
<path d="M65.3575 235.346l-0.359681 4.54299l1.07392 1.46429l-0.149155 2.96638l-3.77918 -1.14668l-2.30193 -0.032462l-6.5385 -1.32923l-0.0178782 -2.85888l4.98693 -0.65553l4.0824 -1.64741l3.00308 -1.30347"/>
<path d="M36.5378 225.342l3.00006 3.32076l0.628979 7.07832l-1.92648 -0.0239122l-1.40355 2.04412l-1.78156 -1.17599l-1.10834 -6.37037l-1.34903 -2.87681l2.22093 -0.0609139l1.71899 -1.9352"/>
<path d="M37.0877 220.21l-0.616597 4.23077l-1.94383 -0.781465l-1.43055 -3.36701l0.479272 -2.04453l2.12502 -2.3617l1.38668 4.32393"/>
<path d="M-179.752 88.9776l0.532244 2.57872l1.62774 2.82301l-2.65772 -0.562886l-0.899312 -1.01535l-0.0606388 -4.97761l1.15558 -1.52745l1.98136 0.498689l-1.67925 2.18287"/>
<path d="M-165.409 88.668l-0.826733 -1.36714l-0.528464 -4.47952l0.804032 -3.73046l0.857461 0.818021l0.765909 4.33741l-0.308617 3.90407l-0.763588 0.517611"/>
<path d="M-149.296 100.194l-4.78252 0.647909l2.55457 0.812512l0.323923 2.37322l-2.07149 0.0479321l0.509913 3.1471l1.85848 0.519662l0.6638 3.52405l-3.55944 1.3549l2.07355 1.3546l-1.87475 1.94383l-1.86247 2.73357l-4.43511 1.53577l-1.09598 -1.15345l-0.577076 -2.41696l3.79503 -1.82755l-0.0355372 -1.14362l-5.88363 -0.725374l-1.02095 -1.80951l3.33993 0.665797l-0.827716 -3.40084l-2.25781 -2.8976l-3.34524 -5.70914l1.0203 -1.21037l2.59833 0.888575l0.423059 -1.94813l4.01825 0.807296l8.47368 -1.41144l3.41014 0.0881588l2.89203 1.27474l0.622821 1.29333l-1.43809 0.26792l-3.50998 0.373106"/>
<path d="M-20.3377 170.84l-5.70756 2.16033l-4.13664 -1.42875l3.24652 -4.64481l-0.686396 -5.13728l4.39928 -3.14725l2.39212 -1.94489l2.31819 0.090381l2.64148 3.29236l-1.85645 3.15767l0.104211 3.51026l-2.71475 4.09199"/>
<path d="M34.219 151.965l-0.774881 4.17067l-3.37938 -2.09142l-0.753516 -1.8895l3.54453 -2.35582l1.36325 2.16607"/>
<path d="M-7.40867 141.13l-2.99651 4.96548l2.63413 -0.489654l2.78496 0.146815l-0.813742 3.86049l-2.58044 4.17947l2.76549 0.432501l2.49113 6.26861l1.91173 0.803453l1.75055 5.54032l0.845672 1.92321l3.5953 0.863896l-0.274509 3.14346l-1.50985 1.476l1.27874 2.52157l-2.75076 2.63678l-4.18849 -0.0544598l-5.38644 1.2087l-1.41879 -1.0442l-2.21748 2.20038l-2.88756 -0.770893l-2.39091 1.69988l-1.59372 -1.15131l5.04203 -4.77738l2.82581 -0.877369l-4.74047 -1.17548l-0.682567 -2.02679l3.26296 -1.25597l-1.41818 -2.75731l0.814506 -3.14028l4.27755 0.728972l0.571776 -2.79815l-1.75961 -3.16052l-3.32147 -1.09953l-0.546135 -1.35986l1.17838 -2.06162l-0.77698 -1.3971l-1.67129 2.13099l0.295892 -4.62817l-1.07591 -2.56691l1.44372 -4.80812l2.29628 -3.65197l1.93595 0.532595l2.99924 -0.210531"/>
<path d="M-26.281 101.557l-1.16471 2.76522l1.32415 3.57062l-3.34644 2.77908l-6.50116 1.39578l-1.95189 0.247101l-2.33735 -1.54235l-4.77747 -3.44268l2.60886 -1.1395l-3.0861 -3.75034l3.52432 0.530145l0.434135 -1.28309l-3.2554 -2.56495l2.3719 -2.21833l2.83348 0.460124l1.56866 3.95623l3.5162 -1.38986l1.80602 1.96929l3.59389 -1.45806l2.83891 1.11557"/>
<path d="M-134.84 76.3869l-1.15808 3.50002l1.21713 4.41529l-0.345398 2.33712l-2.83786 3.17214l0.697146 2.22659l-0.869451 1.99383l-4.42151 3.27581l-2.76084 -0.791368l-2.64966 -0.889425l-4.18898 -3.38524l-5.51408 -1.33104l-3.32408 -4.30859l-2.18074 -6.53002l-2.00867 -4.3161"/>
<path d="M-169.59 78.8785l-0.971462 3.68044l-4.39982 -1.4022l-4.47909 3.287l-2.98037 2.67539l-0.256005 5.26435l3.39163 4.87643l6.71317 0.304378l-3.09036 2.02861l-0.464955 2.90395l-5.1092 -2.20048l-6.47612 -5.70088l-3.49293 -2.35496l-5.15883 -2.18905l-0.82701 -2.76479l3.95396 -1.90453l6.5182 3.97652l-2.57712 -5.18154l-2.1737 -3.44434l-1.30852 1.23734l-3.81325 -2.67157l-3.06 -2.8993"/>
<path d="M156.289 246.051l-0.157453 0.729162"/>
<path d="M-44.5717 272.162l3.63749 -3.31906l5.05792 -1.88806l3.73925 -1.87239l3.72426 -5.4093l1.77784 -3.24487l3.29462 0.347351l2.51383 2.58287l4.33164 -0.0744573l4.63378 1.48419l1.9751 0.141246l4.44278 -2.90856l4.87159 -0.906399l2.81258 -2.29059l4.23921 -1.75055l7.42714 -1.28062l7.2238 -0.950984l2.2832 0.617339l3.89354 -2.56973l4.63109 -0.59502l1.93306 1.03254l2.92471 -0.752161l4.35192 -2.92475l3.1142 0.125029l0.364686 2.75464l3.28749 -2.67044l0.508082 0.973775l-1.65981 3.06272l0.440247 2.51747l1.78539 1.06183l0.321802 4.84745l-2.47393 3.32327l1.41801 2.8615l2.40356 -0.350871l1.67798 2.415l1.94497 0.515466l5.89178 0.741915l1.85053 -0.925443l4.11316 -0.00996686l6.83459 0.861791l3.57008 4.31643l4.57387 -0.157784l7.41467 0.232733"/>
<path d="M96.3357 270.93l1.34558 -3.32708l-2.58956 -3.76863l0.481994 -3.14722l2.3164 -3.7256l2.79558 -1.91822l6.44746 -1.37222l2.51643 1.70692l1.66654 -0.695665l1.81032 0.272097l4.68786 -1.38917l1.8864 1.21693l5.84089 -2.93256l4.91624 -0.789698l5.14515 -0.794526l2.45489 -0.312929l2.43697 -3.47319l0.936384 -2.44903l3.49427 -2.61317l3.36796 -1.19763l2.66006 1.72798l-0.0296129 -2.2144l4.08308 -0.987133l3.41647 -1.85842l1.20646 -2.57545l0.10865 -2.38103l-0.462004 -0.0786035l-0.463216 -2.94642l-1.66278 -4.09995l-0.267716 -1.57158l0.0741391 -0.122942l-1.29286 -4.73539l-0.437072 -4.56456l-0.04441 -0.20862l-2.85313 -3.20693l-0.449768 -2.49709l-2.8046 -1.06461l0.142818 -2.66114l-1.90879 1.95806l-3.74577 1.08916l-0.723426 4.33454l-5.31868 4.23355l-4.6182 -0.597175l-4.16627 2.3031l0.279916 2.48787l-2.33731 2.11014l-5.17834 -0.468054l-4.19828 2.36224l-4.79955 -3.65112l-4.15651 -1.28826l-0.0420095 -4.68348l-3.51194 -1.12293l1.76278 -6.61664l5.41194 -3.12502l-0.483328 -4.34882l6.92401 -3.2173l2.24967 -5.42495l3.02657 -3.73517l5.27657 -3.73986l7.74831 -1.03955l5.78522 -1.87237l3.11235 -3.5652l2.94244 -1.84688l1.73513 -5.16571l-1.05834 -2.07472l-3.10246 -2.03511l-2.93785 0.00804012l-1.99503 0.918844l-2.09226 -0.324673l-6.46939 -0.369349l-4.51252 1.06295l-4.33387 -0.513254l1.6031 -2.23754l-0.286767 -5.19441l-2.78846 -0.382135l2.7258 -4.80583l-0.770689 -0.802827l-1.90331 2.56967l-1.9306 2.01264l-0.851764 2.70419l-2.47405 2.15033l-1.36492 3.29741l1.99367 2.48511l2.14849 -0.00469983l2.78862 -2.40808l0.520328 1.89349l-2.70806 3.05049l-2.41012 5.28506l-2.28914 0.259633l-0.662212 -2.46566l-4.13861 0.894607l0.00692463 -1.17161l1.93848 -3.2963l-1.50283 -0.410103l-5.32198 1.86362l-1.20263 -1.48802l-2.44216 2.21227l0.301841 3.08242l-0.508475 4.66483l0.728001 1.11019l-0.996268 1.83273l-1.2039 0.116019l2.08793 5.97053l-0.702918 2.82655l0.511401 3.95819l2.50756 2.06322l1.36522 1.56948l3.8536 -0.153276l-0.00801304 1.48725l-4.04879 2.50308l-0.765691 2.24696l-1.7295 4.08776l-2.24296 -1.66261l-0.432703 -1.0101l-2.27052 0.927899l-2.10862 0.436604l-3.86801 3.26394l3.79029 1.58794l-1.54039 1.64594l-2.09043 0.919924l-3.06136 -1.68372l-0.251641 1.37446l2.07977 2.59263l2.89956 1.50391l-0.985231 1.70641l3.14006 1.36106l2.55909 0.590223l1.31072 2.78123l-4.22714 0.269706l2.26828 2.05219l-2.31352 1.61044l3.42498 3.81255l-2.68932 1.20582l-4.25526 -0.85681l-3.12376 -3.47584l-2.00817 -3.10155l-2.43117 -1.73483l-3.08392 -2.12886l-0.790944 -1.33915l-0.787981 -0.111875l-0.479832 -1.07927l-2.73722 -0.92688l-1.17397 -2.27713l-0.880114 -3.52463l-0.0386145 -1.72631l-0.900049 -0.563151l-0.909261 -0.113969l-1.59347 -1.26628l-1.92021 -0.451468l-4.04149 -0.72531l-2.67045 -1.14038l-3.76078 -0.502517l-4.05659 -2.83253l0.619304 -0.569129l-2.18806 -1.65811l-0.512962 -1.6625l-2.45985 -0.198206l-0.539657 2.4264l-1.4553 -1.41791l-0.342498 -1.75069l0.104641 -0.110877l0.664726 -0.643056l-2.94452 -0.0578143l-2.44526 2.41707l0.741852 2.45021l-0.124473 1.53116l1.75023 2.3097l4.01017 1.75404l2.88533 3.73198l5.24247 3.00728l2.94731 -0.853295l1.24084 0.854911l-0.773601 1.31632l3.95085 0.833995l3.28025 0.667265l4.14974 1.57199l0.715337 0.812546l-0.122332 2.0582l-2.93178 -1.67061l-3.63148 0.212022l-0.656962 3.80392l3.43498 1.04028l0.353534 2.83101l-1.588 0.81467l-0.865467 5.09851l-1.60574 0.892864l-0.432814 -1.60498l0.0419357 -3.02948l0.559998 -1.35996l-2.41964 -2.55333l-1.93468 -2.2645l-1.81227 -0.198507l-1.74818 -1.91673l-2.74981 -0.293079l-2.19236 -1.65521l-2.94776 0.341889l-3.53701 -1.6596l-4.19376 -2.63306l-3.14012 -2.46961l-2.08586 -4.8511l-1.93266 -0.272667l-3.25548 -1.19784l-1.57925 0.946597l-1.79251 2.68657l-1.4954 0.585183l-3.04397 3.33666l-7.58813 -0.681695l-5.40639 2.05683l-0.271617 3.1699l0.368217 3.03857l-3.58367 3.68166l-5.08614 1.24936l-0.334374 1.79156l-2.47355 2.97209l-1.59553 4.36066l1.62894 3.08383l-2.45778 2.40724l-0.963007 3.52711l-3.287 1.02649l-3.22818 4.11679l-5.59772 -0.188229l-4.18863 -0.389973l-2.92279 1.71283l-1.88627 1.92531l-2.13539 -0.671751l-1.44463 -2.02922l-0.891935 -3.28368l-3.95321 -1.34094l-1.93571 1.17676l-2.18181 -1.09063l-2.32891 0.256645l1.31408 -4.12992l0.113097 -3.36657l-1.80147 -0.793856l-0.662898 -2.18895l0.909922 -3.42464l1.94058 -1.65794l0.626215 -2.08994l1.32982 -3.03536l0.255636 -2.23511l-0.490876 -1.99993l0.107471 -1.7838l0.779665 -3.66501l-1.18516 -2.49018l5.8603 -2.90719l4.44288 1.5208l5.03435 0.503004l3.92704 1.22718l3.15041 -0.0567026l6.09417 0.460153l2.02984 -3.05889l0.923158 -10.2334l-3.45229 -5.44835l-2.41297 -2.67292l-5.04889 -2.27517l-0.0454125 -3.68151l4.34697 -0.793718l5.48869 1.52615l-0.859306 -5.68938l2.99902 2.21732l7.48512 -3.908l0.840771 -4.08565l2.67877 -1.09497l2.42411 -1.09896l1.49396 -1.44937l2.07849 -7.38965l3.77728 -2.4063l2.40771 -0.135669l0.434385 -1.09119l2.35017 -0.576985l0.679565 0.987324l1.57732 -2.6582l-0.915773 -1.69933l-0.534553 -2.69458l-1.49203 -2.48606l-0.772559 -4.8497l0.249954 -1.34153l0.529867 -1.52747l2.20801 -0.648836l0.672809 -1.44798l1.78394 -1.68619l0.363669 2.4255l-0.475365 1.66953l0.549422 1.2615l1.54131 0.448388l-0.300673 1.89906l-0.878281 -0.367296l-1.31295 3.74688l1.13606 2.18773l0.371146 1.83175l3.00051 0.594201l0.29754 1.6965l2.65517 -1.46739l1.27126 -1.635l3.54731 1.14201l1.68294 1.1777l1.53759 -1.87003l3.65258 -3.347l2.89005 -2.59488l2.90011 -0.089258l0.578323 1.05127l2.58692 -0.83497l-0.120161 -2.21933l3.02504 -2.80881l-1.99972 -3.56478l-1.21162 -3.39959l0.0961126 -3.25762l1.62011 -2.41183l3.26773 2.48683l1.87307 -0.924273l-1.05155 -3.54136l-0.89105 -2.67398l-0.59038 0.921648l-2.12072 -0.907659l-1.27415 -2.41214l2.24918 -2.43989l2.43422 -1.90459l2.6718 -0.456612l2.1313 -1.2653l1.12594 -3.57748l-3.21496 -0.793485l-3.56872 2.25134l-2.97015 3.31663l-3.11454 2.45005l-2.23827 -1.84865l-2.64864 -0.601069l-1.21817 -4.47648l-2.51338 -3.53485l-0.0426518 -2.88868l0.648674 -3.40175l2.18723 -6.42083l0.768911 -1.42405l-1.01396 -1.67398l-3.28792 -0.882039l-2.46416 2.46079l-0.540684 3.67096l1.31271 2.52092l-1.71211 4.61561l-2.54098 5.08375l0.454674 6.74399l2.53485 2.66392l2.92947 1.77734l-0.413087 5.74395l-2.10167 1.81721l1.36189 7.92789l-0.189894 4.72561l-3.25064 0.406982l-0.534324 4.07355l-3.02995 0.956742l-1.84218 -4.24188l-3.28478 -4.84041l-3.1983 -6.20789l-2.13491 -2.5496l-3.87303 6.18661l-3.15715 1.55093l-3.69208 -2.01988l-1.3497 -4.97723l-1.69194 -10.7163l1.70108 -3.17394l5.02663 -4.56837l3.16199 -5.37313l2.19493 -6.9918l2.13248 -9.60443l1.80856 -4.06418l2.47913 -6.7766l2.49535 -3.03552l2.42305 -0.72873l0.580703 -4.34842l2.50501 -0.971625"/>
<path d="M43.9642 76.1313l2.91788 1.58264l0.553064 -2.19167l3.66932 0.887221l4.23558 -1.66025l8.13416 0.116825l2.42147 0.778369l2.0891 2.21629l0.0267116 3.14639l-1.57604 2.86498l-8.67466 2.02437l-0.786571 1.22058l4.37351 1.10179l4.11771 5.47049l2.92164 -0.357415l1.9898 0.017613l-1.14353 -1.94636l-2.2242 -0.904075l0.0243339 -2.10925l5.49802 -0.694173l0.551888 -1.93148l-3.17017 -1.74064l0.344218 -6.2493l1.42394 -0.948793l2.35548 -0.0238156"/>
<path d="M159.04 119.659l-1.91999 2.91032l-2.80103 1.54104l-0.828078 4.52769l-1.30764 3.18066l1.22015 3.20775l-1.68309 3.14464l1.44204 6.25157l5.90035 0.867526"/>
<path d="M64.2414 112.005l2.20688 0.792248l0.570682 0.824353l2.31133 1.26769l0.526645 0.884995l0.831634 -0.46535l-0.398359 -1.49724l1.81608 -0.992669l-0.790361 -1.30534l0.551014 -0.0656749l-0.16051 -0.794882l-2.00546 -1.35806l-4.8014 -0.649668l-0.658166 3.3596"/>
<path d="M33.4883 134.522l-1.0574 -0.380575l-0.704442 1.17554l-0.253104 0.716755l-0.742633 0.362167l-0.34108 0.43303l0.144501 0.47391l0.0897772 1.28943l0.891232 -0.213764l0.98354 -0.712948l1.19191 -1.72014l-0.0545686 -0.881932l-0.147733 -0.541473"/>
<path d="M72.4998 100.84l-1.90993 -0.898011l-0.611764 0.0143842l-0.703258 0.409693l1.65301 0.405849l1.19506 0.476545l-0.268721 0.549027l-0.102827 0.369419l-0.851112 -0.289795l-0.784485 -0.337377l0.659403 0.80403l-0.851188 0.200339l0.161846 0.333004l1.32812 1.08194l1.51213 0.744365l0.976266 0.215517l1.60279 0.63013l-0.760945 0.379241l-0.635916 0.4348l1.35055 0.0116097l1.21826 -1.26036l-0.208815 -1.36246l-1.82364 -1.21609l-2.14482 -1.6958"/>
<path d="M-30.9385 76.0674l-0.843298 3.57998l-2.80996 -0.228344l-0.348268 -2.06068"/>
<path d="M-36.3438 77.2297l-2.61385 1.37814l3.5782 1.88401l1.85259 1.05617l-5.44668 1.91956l-5.58273 1.22932l-5.06838 -1.03211l-1.61145 -0.954249l-2.43683 0.53821l-4.71766 2.66401l-5.08826 0.336335l-1.14948 -0.620678l-2.67231 -0.640197l-2.79833 -0.889358l-3.10624 1.10322l-2.13057 2.43695l-2.77291 1.61926l-5.03414 0.466851l-1.82338 3.27036l-3.35754 2.16467l-3.99565 2.53856l-2.57671 -2.09613l0.340572 -5.12853l-3.08081 -3.36994l0.484486 -3.34276l2.51796 -4.07336"/>
</g>
</g>
</g>
</g>
<g inkscape:groupmode="layer" inkscape:label="Coastline" id="Coastline"><title>Coastline</title>
<g>
<g id="drawing" transform="translate(207.509,-272.691)">
<g stroke-width="0.5px" stroke="rgb(0,0,0)" fill="none">
<path d="M146.586 212.675l-1.19755 3.67898l0.85822 0.68084l0.369434 0.292261l-2.67425 4.49457l-2.29097 0.608496l-2.10583 -1.32196l1.71772 -1.33735l0.254506 -0.200134l-0.177366 -1.48492l2.77192 -1.73151l2.47416 -3.67928"/>
<path d="M103.748 236.344l3.0192 0.706495l3.07626 -1.75943l3.21843 -1.09091l0.322133 0.920718l1.93516 -1.68842l0.21568 1.72721l-5.74757 3.2604l-0.343737 -0.8559l-5.51668 1.27976l-0.178883 -2.49993"/>
<path d="M65.3575 235.346l-0.359681 4.54299l1.07392 1.46429l-0.149155 2.96638l-3.77918 -1.14668l-2.30193 -0.032462l-6.5385 -1.32923l-0.0178782 -2.85888l4.98693 -0.65553l4.0824 -1.64741l3.00308 -1.30347"/>
<path d="M36.5378 225.342l3.00006 3.32076l0.628979 7.07832l-1.92648 -0.0239122l-1.40355 2.04412l-1.78156 -1.17599l-1.10834 -6.37037l-1.34903 -2.87681l2.22093 -0.0609139l1.71899 -1.9352"/>
<path d="M37.0877 220.21l-0.616597 4.23077l-1.94383 -0.781465l-1.43055 -3.36701l0.479272 -2.04453l2.12502 -2.3617l1.38668 4.32393"/>
<path d="M-179.752 88.9776l0.532244 2.57872l1.62774 2.82301l-2.65772 -0.562886l-0.899312 -1.01535l-0.0606388 -4.97761l1.15558 -1.52745l1.98136 0.498689l-1.67925 2.18287"/>
<path d="M-165.409 88.668l-0.826733 -1.36714l-0.528464 -4.47952l0.804032 -3.73046l0.857461 0.818021l0.765909 4.33741l-0.308617 3.90407l-0.763588 0.517611"/>
<path d="M-149.296 100.194l-4.78252 0.647909l2.55457 0.812512l0.323923 2.37322l-2.07149 0.0479321l0.509913 3.1471l1.85848 0.519662l0.6638 3.52405l-3.55944 1.3549l2.07355 1.3546l-1.87475 1.94383l-1.86247 2.73357l-4.43511 1.53577l-1.09598 -1.15345l-0.577076 -2.41696l3.79503 -1.82755l-0.0355372 -1.14362l-5.88363 -0.725374l-1.02095 -1.80951l3.33993 0.665797l-0.827716 -3.40084l-2.25781 -2.8976l-3.34524 -5.70914l1.0203 -1.21037l2.59833 0.888575l0.423059 -1.94813l4.01825 0.807296l8.47368 -1.41144l3.41014 0.0881588l2.89203 1.27474l0.622821 1.29333l-1.43809 0.26792l-3.50998 0.373106"/>
<path d="M-20.3377 170.84l-5.70756 2.16033l-4.13664 -1.42875l3.24652 -4.64481l-0.686396 -5.13728l4.39928 -3.14725l2.39212 -1.94489l2.31819 0.090381l2.64148 3.29236l-1.85645 3.15767l0.104211 3.51026l-2.71475 4.09199"/>
<path d="M34.219 151.965l-0.774881 4.17067l-3.37938 -2.09142l-0.753516 -1.8895l3.54453 -2.35582l1.36325 2.16607"/>
<path d="M-7.40867 141.13l-2.99651 4.96548l2.63413 -0.489654l2.78496 0.146815l-0.813742 3.86049l-2.58044 4.17947l2.76549 0.432501l2.49113 6.26861l1.91173 0.803453l1.75055 5.54032l0.845672 1.92321l3.5953 0.863896l-0.274509 3.14346l-1.50985 1.476l1.27874 2.52157l-2.75076 2.63678l-4.18849 -0.0544598l-5.38644 1.2087l-1.41879 -1.0442l-2.21748 2.20038l-2.88756 -0.770893l-2.39091 1.69988l-1.59372 -1.15131l5.04203 -4.77738l2.82581 -0.877369l-4.74047 -1.17548l-0.682567 -2.02679l3.26296 -1.25597l-1.41818 -2.75731l0.814506 -3.14028l4.27755 0.728972l0.571776 -2.79815l-1.75961 -3.16052l-3.32147 -1.09953l-0.546135 -1.35986l1.17838 -2.06162l-0.77698 -1.3971l-1.67129 2.13099l0.295892 -4.62817l-1.07591 -2.56691l1.44372 -4.80812l2.29628 -3.65197l1.93595 0.532595l2.99924 -0.210531"/>
<path d="M-26.281 101.557l-1.16471 2.76522l1.32415 3.57062l-3.34644 2.77908l-6.50116 1.39578l-1.95189 0.247101l-2.33735 -1.54235l-4.77747 -3.44268l2.60886 -1.1395l-3.0861 -3.75034l3.52432 0.530145l0.434135 -1.28309l-3.2554 -2.56495l2.3719 -2.21833l2.83348 0.460124l1.56866 3.95623l3.5162 -1.38986l1.80602 1.96929l3.59389 -1.45806l2.83891 1.11557"/>
<path d="M-134.84 76.3869l-1.15808 3.50002l1.21713 4.41529l-0.345398 2.33712l-2.83786 3.17214l0.697146 2.22659l-0.869451 1.99383l-4.42151 3.27581l-2.76084 -0.791368l-2.64966 -0.889425l-4.18898 -3.38524l-5.51408 -1.33104l-3.32408 -4.30859l-2.18074 -6.53002l-2.00867 -4.3161"/>
<path d="M-169.59 78.8785l-0.971462 3.68044l-4.39982 -1.4022l-4.47909 3.287l-2.98037 2.67539l-0.256005 5.26435l3.39163 4.87643l6.71317 0.304378l-3.09036 2.02861l-0.464955 2.90395l-5.1092 -2.20048l-6.47612 -5.70088l-3.49293 -2.35496l-5.15883 -2.18905l-0.82701 -2.76479l3.95396 -1.90453l6.5182 3.97652l-2.57712 -5.18154l-2.1737 -3.44434l-1.30852 1.23734l-3.81325 -2.67157l-3.06 -2.8993"/>
<path d="M156.289 246.051l-0.157453 0.729162"/>
<path d="M-44.5717 272.162l3.63749 -3.31906l5.05792 -1.88806l3.73925 -1.87239l3.72426 -5.4093l1.77784 -3.24487l3.29462 0.347351l2.51383 2.58287l4.33164 -0.0744573l4.63378 1.48419l1.9751 0.141246l4.44278 -2.90856l4.87159 -0.906399l2.81258 -2.29059l4.23921 -1.75055l7.42714 -1.28062l7.2238 -0.950984l2.2832 0.617339l3.89354 -2.56973l4.63109 -0.59502l1.93306 1.03254l2.92471 -0.752161l4.35192 -2.92475l3.1142 0.125029l0.364686 2.75464l3.28749 -2.67044l0.508082 0.973775l-1.65981 3.06272l0.440247 2.51747l1.78539 1.06183l0.321802 4.84745l-2.47393 3.32327l1.41801 2.8615l2.40356 -0.350871l1.67798 2.415l1.94497 0.515466l5.89178 0.741915l1.85053 -0.925443l4.11316 -0.00996686l6.83459 0.861791l3.57008 4.31643l4.57387 -0.157784l7.41467 0.232733"/>
<path d="M96.3357 270.93l1.34558 -3.32708l-2.58956 -3.76863l0.481994 -3.14722l2.3164 -3.7256l2.79558 -1.91822l6.44746 -1.37222l2.51643 1.70692l1.66654 -0.695665l1.81032 0.272097l4.68786 -1.38917l1.8864 1.21693l5.84089 -2.93256l4.91624 -0.789698l5.14515 -0.794526l2.45489 -0.312929l2.43697 -3.47319l0.936384 -2.44903l3.49427 -2.61317l3.36796 -1.19763l2.66006 1.72798l-0.0296129 -2.2144l4.08308 -0.987133l3.41647 -1.85842l1.20646 -2.57545l0.10865 -2.38103l-0.462004 -0.0786035l-0.463216 -2.94642l-1.66278 -4.09995l-0.267716 -1.57158l0.0741391 -0.122942l-1.29286 -4.73539l-0.437072 -4.56456l-0.04441 -0.20862l-2.85313 -3.20693l-0.449768 -2.49709l-2.8046 -1.06461l0.142818 -2.66114l-1.90879 1.95806l-3.74577 1.08916l-0.723426 4.33454l-5.31868 4.23355l-4.6182 -0.597175l-4.16627 2.3031l0.279916 2.48787l-2.33731 2.11014l-5.17834 -0.468054l-4.19828 2.36224l-4.79955 -3.65112l-4.15651 -1.28826l-0.0420095 -4.68348l-3.51194 -1.12293l1.76278 -6.61664l5.41194 -3.12502l-0.483328 -4.34882l6.92401 -3.2173l2.24967 -5.42495l3.02657 -3.73517l5.27657 -3.73986l7.74831 -1.03955l5.78522 -1.87237l3.11235 -3.5652l2.94244 -1.84688l1.73513 -5.16571l-1.05834 -2.07472l-3.10246 -2.03511l-2.93785 0.00804012l-1.99503 0.918844l-2.09226 -0.324673l-6.46939 -0.369349l-4.51252 1.06295l-4.33387 -0.513254l1.6031 -2.23754l-0.286767 -5.19441l-2.78846 -0.382135l2.7258 -4.80583l-0.770689 -0.802827l-1.90331 2.56967l-1.9306 2.01264l-0.851764 2.70419l-2.47405 2.15033l-1.36492 3.29741l1.99367 2.48511l2.14849 -0.00469983l2.78862 -2.40808l0.520328 1.89349l-2.70806 3.05049l-2.41012 5.28506l-2.28914 0.259633l-0.662212 -2.46566l-4.13861 0.894607l0.00692463 -1.17161l1.93848 -3.2963l-1.50283 -0.410103l-5.32198 1.86362l-1.20263 -1.48802l-2.44216 2.21227l0.301841 3.08242l-0.508475 4.66483l0.728001 1.11019l-0.996268 1.83273l-1.2039 0.116019l2.08793 5.97053l-0.702918 2.82655l0.511401 3.95819l2.50756 2.06322l1.36522 1.56948l3.8536 -0.153276l-0.00801304 1.48725l-4.04879 2.50308l-0.765691 2.24696l-1.7295 4.08776l-2.24296 -1.66261l-0.432703 -1.0101l-2.27052 0.927899l-2.10862 0.436604l-3.86801 3.26394l3.79029 1.58794l-1.54039 1.64594l-2.09043 0.919924l-3.06136 -1.68372l-0.251641 1.37446l2.07977 2.59263l2.89956 1.50391l-0.985231 1.70641l3.14006 1.36106l2.55909 0.590223l1.31072 2.78123l-4.22714 0.269706l2.26828 2.05219l-2.31352 1.61044l3.42498 3.81255l-2.68932 1.20582l-4.25526 -0.85681l-3.12376 -3.47584l-2.00817 -3.10155l-2.43117 -1.73483l-3.08392 -2.12886l-0.790944 -1.33915l-0.787981 -0.111875l-0.479832 -1.07927l-2.73722 -0.92688l-1.17397 -2.27713l-0.880114 -3.52463l-0.0386145 -1.72631l-0.900049 -0.563151l-0.909261 -0.113969l-1.59347 -1.26628l-1.92021 -0.451468l-4.04149 -0.72531l-2.67045 -1.14038l-3.76078 -0.502517l-4.05659 -2.83253l0.619304 -0.569129l-2.18806 -1.65811l-0.512962 -1.6625l-2.45985 -0.198206l-0.539657 2.4264l-1.4553 -1.41791l-0.342498 -1.75069l0.104641 -0.110877l0.664726 -0.643056l-2.94452 -0.0578143l-2.44526 2.41707l0.741852 2.45021l-0.124473 1.53116l1.75023 2.3097l4.01017 1.75404l2.88533 3.73198l5.24247 3.00728l2.94731 -0.853295l1.24084 0.854911l-0.773601 1.31632l3.95085 0.833995l3.28025 0.667265l4.14974 1.57199l0.715337 0.812546l-0.122332 2.0582l-2.93178 -1.67061l-3.63148 0.212022l-0.656962 3.80392l3.43498 1.04028l0.353534 2.83101l-1.588 0.81467l-0.865467 5.09851l-1.60574 0.892864l-0.432814 -1.60498l0.0419357 -3.02948l0.559998 -1.35996l-2.41964 -2.55333l-1.93468 -2.2645l-1.81227 -0.198507l-1.74818 -1.91673l-2.74981 -0.293079l-2.19236 -1.65521l-2.94776 0.341889l-3.53701 -1.6596l-4.19376 -2.63306l-3.14012 -2.46961l-2.08586 -4.8511l-1.93266 -0.272667l-3.25548 -1.19784l-1.57925 0.946597l-1.79251 2.68657l-1.4954 0.585183l-3.04397 3.33666l-7.58813 -0.681695l-5.40639 2.05683l-0.271617 3.1699l0.368217 3.03857l-3.58367 3.68166l-5.08614 1.24936l-0.334374 1.79156l-2.47355 2.97209l-1.59553 4.36066l1.62894 3.08383l-2.45778 2.40724l-0.963007 3.52711l-3.287 1.02649l-3.22818 4.11679l-5.59772 -0.188229l-4.18863 -0.389973l-2.92279 1.71283l-1.88627 1.92531l-2.13539 -0.671751l-1.44463 -2.02922l-0.891935 -3.28368l-3.95321 -1.34094l-1.93571 1.17676l-2.18181 -1.09063l-2.32891 0.256645l1.31408 -4.12992l0.113097 -3.36657l-1.80147 -0.793856l-0.662898 -2.18895l0.909922 -3.42464l1.94058 -1.65794l0.626215 -2.08994l1.32982 -3.03536l0.255636 -2.23511l-0.490876 -1.99993l0.107471 -1.7838l0.779665 -3.66501l-1.18516 -2.49018l5.8603 -2.90719l4.44288 1.5208l5.03435 0.503004l3.92704 1.22718l3.15041 -0.0567026l6.09417 0.460153l2.02984 -3.05889l0.923158 -10.2334l-3.45229 -5.44835l-2.41297 -2.67292l-5.04889 -2.27517l-0.0454125 -3.68151l4.34697 -0.793718l5.48869 1.52615l-0.859306 -5.68938l2.99902 2.21732l7.48512 -3.908l0.840771 -4.08565l2.67877 -1.09497l2.42411 -1.09896l1.49396 -1.44937l2.07849 -7.38965l3.77728 -2.4063l2.40771 -0.135669l0.434385 -1.09119l2.35017 -0.576985l0.679565 0.987324l1.57732 -2.6582l-0.915773 -1.69933l-0.534553 -2.69458l-1.49203 -2.48606l-0.772559 -4.8497l0.249954 -1.34153l0.529867 -1.52747l2.20801 -0.648836l0.672809 -1.44798l1.78394 -1.68619l0.363669 2.4255l-0.475365 1.66953l0.549422 1.2615l1.54131 0.448388l-0.300673 1.89906l-0.878281 -0.367296l-1.31295 3.74688l1.13606 2.18773l0.371146 1.83175l3.00051 0.594201l0.29754 1.6965l2.65517 -1.46739l1.27126 -1.635l3.54731 1.14201l1.68294 1.1777l1.53759 -1.87003l3.65258 -3.347l2.89005 -2.59488l2.90011 -0.089258l0.578323 1.05127l2.58692 -0.83497l-0.120161 -2.21933l3.02504 -2.80881l-1.99972 -3.56478l-1.21162 -3.39959l0.0961126 -3.25762l1.62011 -2.41183l3.26773 2.48683l1.87307 -0.924273l-1.05155 -3.54136l-0.89105 -2.67398l-0.59038 0.921648l-2.12072 -0.907659l-1.27415 -2.41214l2.24918 -2.43989l2.43422 -1.90459l2.6718 -0.456612l2.1313 -1.2653l1.12594 -3.57748l-3.21496 -0.793485l-3.56872 2.25134l-2.97015 3.31663l-3.11454 2.45005l-2.23827 -1.84865l-2.64864 -0.601069l-1.21817 -4.47648l-2.51338 -3.53485l-0.0426518 -2.88868l0.648674 -3.40175l2.18723 -6.42083l0.768911 -1.42405l-1.01396 -1.67398l-3.28792 -0.882039l-2.46416 2.46079l-0.540684 3.67096l1.31271 2.52092l-1.71211 4.61561l-2.54098 5.08375l0.454674 6.74399l2.53485 2.66392l2.92947 1.77734l-0.413087 5.74395l-2.10167 1.81721l1.36189 7.92789l-0.189894 4.72561l-3.25064 0.406982l-0.534324 4.07355l-3.02995 0.956742l-1.84218 -4.24188l-3.28478 -4.84041l-3.1983 -6.20789l-2.13491 -2.5496l-3.87303 6.18661l-3.15715 1.55093l-3.69208 -2.01988l-1.3497 -4.97723l-1.69194 -10.7163l1.70108 -3.17394l5.02663 -4.56837l3.16199 -5.37313l2.19493 -6.9918l2.13248 -9.60443l1.80856 -4.06418l2.47913 -6.7766l2.49535 -3.03552l2.42305 -0.72873l0.580703 -4.34842l2.50501 -0.971625"/>
<path d="M43.9642 76.1313l2.91788 1.58264l0.553064 -2.19167l3.66932 0.887221l4.23558 -1.66025l8.13416 0.116825l2.42147 0.778369l2.0891 2.21629l0.0267116 3.14639l-1.57604 2.86498l-8.67466 2.02437l-0.786571 1.22058l4.37351 1.10179l4.11771 5.47049l2.92164 -0.357415l1.9898 0.017613l-1.14353 -1.94636l-2.2242 -0.904075l0.0243339 -2.10925l5.49802 -0.694173l0.551888 -1.93148l-3.17017 -1.74064l0.344218 -6.2493l1.42394 -0.948793l2.35548 -0.0238156"/>
<path d="M159.04 119.659l-1.91999 2.91032l-2.80103 1.54104l-0.828078 4.52769l-1.30764 3.18066l1.22015 3.20775l-1.68309 3.14464l1.44204 6.25157l5.90035 0.867526"/>
<path d="M64.2414 112.005l2.20688 0.792248l0.570682 0.824353l2.31133 1.26769l0.526645 0.884995l0.831634 -0.46535l-0.398359 -1.49724l1.81608 -0.992669l-0.790361 -1.30534l0.551014 -0.0656749l-0.16051 -0.794882l-2.00546 -1.35806l-4.8014 -0.649668l-0.658166 3.3596"/>
<path d="M33.4883 134.522l-1.0574 -0.380575l-0.704442 1.17554l-0.253104 0.716755l-0.742633 0.362167l-0.34108 0.43303l0.144501 0.47391l0.0897772 1.28943l0.891232 -0.213764l0.98354 -0.712948l1.19191 -1.72014l-0.0545686 -0.881932l-0.147733 -0.541473"/>
<path d="M72.4998 100.84l-1.90993 -0.898011l-0.611764 0.0143842l-0.703258 0.409693l1.65301 0.405849l1.19506 0.476545l-0.268721 0.549027l-0.102827 0.369419l-0.851112 -0.289795l-0.784485 -0.337377l0.659403 0.80403l-0.851188 0.200339l0.161846 0.333004l1.32812 1.08194l1.51213 0.744365l0.976266 0.215517l1.60279 0.63013l-0.760945 0.379241l-0.635916 0.4348l1.35055 0.0116097l1.21826 -1.26036l-0.208815 -1.36246l-1.82364 -1.21609l-2.14482 -1.6958"/>
<path d="M-30.9385 76.0674l-0.843298 3.57998l-2.80996 -0.228344l-0.348268 -2.06068"/>
<path d="M-36.3438 77.2297l-2.61385 1.37814l3.5782 1.88401l1.85259 1.05617l-5.44668 1.91956l-5.58273 1.22932l-5.06838 -1.03211l-1.61145 -0.954249l-2.43683 0.53821l-4.71766 2.66401l-5.08826 0.336335l-1.14948 -0.620678l-2.67231 -0.640197l-2.79833 -0.889358l-3.10624 1.10322l-2.13057 2.43695l-2.77291 1.61926l-5.03414 0.466851l-1.82338 3.27036l-3.35754 2.16467l-3.99565 2.53856l-2.57671 -2.09613l0.340572 -5.12853l-3.08081 -3.36994l0.484486 -3.34276l2.51796 -4.07336"/>
</g>
</g>
</g>
</g>
<g inkscape:groupmode="layer" inkscape:label="Coastline" id="Coastline"><title>Coastline</title>
<g>
<g id="drawing" transform="translate(207.509,-272.691)">
<g stroke-width="1px" stroke="rgb(51,51,51)" fill="none">
<path d="M-207.509 272.691l0 -197.943l367.807 0l0 197.943l-367.807 0"/>
</g>
</g>
</g>
</g>
<g id="Clone of page">
</g>
</g>
</g><!--ePage-->
</svg>
