<?xml version="1.0" ?>
<svg version="1.1" encoding="iso-8859-1" baseProfile="full"
xmlns:dc="http://purl.org/dc/elements/1.1/"
xmlns:cc="http://creativecommons.org/ns#"
xmlns:rdf="http://www.w3.org/1999/02/22-rdf-syntax-ns#"
xmlns="http://www.w3.org/2000/svg"
xmlns:xlink="http://www.w3.org/1999/xlink"
xmlns:ev="http://www.w3.org/2001/xml-events"
xmlns:sodipodi="http://sodipodi.sourceforge.net/DTD/sodipodi-0.dtd"
xmlns:inkscape="http://www.inkscape.org/namespaces/inkscape"
inkscape:version="0.46"
inkscape:output_extension="org.inkscape.output.svg.inkscape"
viewBox="0 0 681 589" xml:space="preserve">
<title>Magics plot</title>
<metadata id="MAGICSmetadata">
<rdf:RDF><cc:Work rdf:about="">
	<dc:format>image/svg+xml</dc:format>
	<dc:title>Magics plot</dc:title>
	<dc:author>baudouin on Baudouins-iMac-3.local</dc:author>
	<dc:date>Sat Sep 12 16:16:45 2020</dc:date>
	<dc:language>en-GB</dc:language>
	<dc:publisher><cc:Agent>
	 <dc:title>Magics 4.4.5 (64 bit)</dc:title>
	</cc:Agent></dc:publisher>
	<dc:coverage>Plot of meteorological data</dc:coverage>
</cc:Work></rdf:RDF>
</metadata>
<g id="page" transform="translate(0,588.678)" vector-effect="non-scaling-stroke">
<g id="Page14">
<g inkscape:groupmode="layer" inkscape:label="Coastline" id="Coastline"><title>Coastline</title>
<g>
<g id="drawing" transform="translate(171.852,555.661)">
</g>
</g>
</g>
<g inkscape:groupmode="layer" inkscape:label="Coastline" id="Coastline"><title>Coastline</title>
<g>
<g id="drawing" transform="translate(171.852,555.661)">
<g fill-rule="evenodd" stroke="none">
<path fill="rgb(255,225,170)" d="M421.416 -563.794l2.01335 -4.75122l-8.7775 1.93262l0.389518 -2.80279l-11.986 -1.14317l-12.5362 0.917618l-8.80497 -5.42747l-2.97966 6.8453l19.6499 3.14071l-0.161467 2.65755l23.193 -1.36915"/>
<path fill="rgb(255,225,170)" d="M246.583 -598.088l-2.41036 -4.99009l5.80034 -12.6773l-12.2266 1.40576l-16.4297 1.75409l-18.8476 -1.47235l-2.25389 8.26938l22.4798 8.18865l8.18989 1.73786l12.3173 6.06627l3.38083 -8.28228"/>
<path fill="rgb(255,225,170)" d="M148.415 -632.011l7.32346 1.01625l2.26221 -21.3025l-9.66308 -11.4351l-8.0534 4.99301l-8.85824 -0.805673l3.6763 9.20781l0.645037 19.4314l6.09831 4.27181l6.56939 -5.37712"/>
<path fill="rgb(255,225,170)" d="M153.975 -678.913l-2.73829 -13.8109l-10.3722 6.15033l-3.25016 5.98511l3.72873 10.8379l7.31264 3.27929l5.31927 -12.4417"/>
<path fill="rgb(255,225,170)" d="M-109.342 -841.707l12.1741 -14.3835l-2.65589 -11.5062l8.63185 -11.0655l-17.2641 -9.95771l-13.5021 0.664181l-12.1733 7.52322l-21.913 12.6136l8.41129 16.3756l-13.0589 16.8176l22.7977 2.4345l28.5523 -9.51576"/>
<path fill="rgb(255,225,170)" d="M204.387 -895.661l-5.13949 -8.07587l-23.6275 5.33841l2.24889 6.6855l16.8542 9.09752l9.66391 -13.0456"/>
<path fill="rgb(255,225,170)" d="M-73.1621 -810.811l14.8991 1.82774l10.6489 -7.5461l7.5099 3.17067l27.4203 -4.4287l21.5476 0.148983l14.488 -8.43459l-6.43123 -8.33222l8.20488 -4.72292l1.95758 -10.3002l-19.5134 -3.06788l-4.59017 -6.36215l-9.91277 -18.3507l-11.0247 -2.58681l-15.6232 -20.6965l-16.6536 -1.02748l14.4796 -14.4347l4.19899 -13.123l-17.6478 -0.0840626l-16.4093 2.20644l17.2146 -17.4264l-19.4319 1.35541l-12.8608 -1.27509l-12.5116 13.0647l-5.84903 16.6511l8.1333 8.21403l0.943836 15.5242l8.6718 -7.6156l5.2968 4.43744l-5.85319 7.19737l3.83901 4.35879l19.5555 2.834l11.0326 10.1471l-2.36874 9.35055l-23.9646 -1.45862l-3.06039 10.5495l8.82078 8.67555l-16.8301 4.99217l4.55688 6.40918l25.2788 2.69709l-14.4172 3.47904l-23.6209 16.9166l8.5611 3.21603l11.3148 -6.14991"/>
<path fill="rgb(255,225,170)" d="M-80.4529 -585.05l10.087 -5.68885l15.3521 0.306707l20.4433 -0.244776l11.4052 -12.3863l12.1582 -3.20766l3.48389 -10.4723l9.31626 -7.18405l-6.28162 -9.20616l6.20691 -13.1098l9.8992 -8.92599l1.43622 -5.41851l20.6389 -3.40426l15.2617 -10.7269l-0.86016 -9.35755l1.8432 -9.69965l23.4563 -5.22485l31.7679 4.36174l14.5922 -9.09999l6.69351 -1.18161l9.30643 -7.47405l7.41211 -2.1735l13.1039 5.31431l8.01373 1.87171l5.0253 15.9223l10.9491 9.27694l14.7338 10.4851l12.5858 7.27056l11.9184 1.04399l6.96778 6.47135l10.3494 2.92847l4.75398 6.95107l6.68761 2.01031l4.9152 8.1199l6.2885 9.33592l-3.49864 3.43965l-3.28532 8.636l-0.0648802 4.92601l6.71612 -1.24059l8.60061 -13.8156l6.72988 -0.953548l1.91004 -8.404l-11.6411 -5.97196l6.78002 -10.4182l13.9936 2.65126l8.93877 7.51828l3.0081 -5.76552l-1.66822 -3.00908l-13.8097 -8.39712l-11.825 -4.87391l-14.4281 -5.82057l4.52001 -3.20864l-3.92331 -3.55958l-12.6212 0.10027l-17.9228 -12.982l-8.10122 -13.3133l-15.1014 -8.114l-5.2799 -8.19855l1.97198 -4.58981l-0.88965 -7.99506l13.0951 -5.71441l12.8198 2.34455l-3.58514 1.46276l-0.573112 0.260505l-0.360775 5.58956l4.75398 5.39492l4.93584 -6.95402l10.3553 2.54116l0.299827 5.43719l7.34429 6.7751l-3.24993 1.20127l13.5453 11.8535l14.7308 4.7874l9.33789 5.79796l15.1427 5.95918l6.95795 3.19881l4.51608 5.25729l3.37281 1.24649l2.70925 2.53821l-2.19709 5.00269l-1.36249 10.9874l1.40181 7.67262l8.92206 5.40868l0.322436 3.54287l2.73776 1.12755l1.08921 4.58784l8.25261 9.18355l6.28162 7.40523l2.81837 10.7141l6.03979 12.8847l13.2071 7.00612l10.6974 -0.199556l-6.10762 -14.2157l10.2275 -1.69083l-4.75103 -8.21427l14.898 4.26835l-0.241827 -9.09999l-7.97245 -4.67042l-8.97121 -7.42194l6.07223 -3.53108l-8.05994 -7.55662l-3.59792 -9.61904l3.02481 -3.53599l8.52 8.2939l8.97121 -0.0157276l8.18183 -2.6257l-11.1644 -9.05084l19.5045 -4.18775l8.404 1.52371l9.81171 0.457114l-0.219217 3.32464l5.07051 7.49862l13.4391 -8.67434l6.87046 -4.98008l19.125 -0.885719l2.93142 -3.9469l-14.0614 -5.20224l-1.91299 -6.19413l-5.19929 -9.1865l5.88251 -11.5222l8.35878 -6.67189l4.50625 -19.4298l4.89357 1.507l7.80828 -3.46619l-0.374538 -4.15137l12.4728 -11.9056l5.97884 -8.86898l12.9026 -1.71547v-214.173l-0.648498 1.07786l-6.49865 -0.118187l0.0432803 -3.52357l-9.2619 -7.78955l-0.512701 -3.43243l-10.7159 -6.16656l16.3523 -8.84159l11.2421 4.41345v-132.206l-7.23045 2.43753l-17.6456 -10.1174l20.7451 -4.31063l-41.0495 -9.60056h-29.0024l-9.24496 1.02551l-29.3683 -0.711719l-24.5298 13.3428l-26.4978 -0.857209l-35.3432 7.05134l-44.2623 20.2005l-26.9716 12.1209l-38.7032 31.1014l-29.4833 22.4457l-31.7964 16.6212l-42.5302 13.5227l-14.8301 10.3622l5.09214 37.1697l5.75963 17.3182l22.2747 8.20051l21.4725 -3.77487l31.8033 -18.6286l10.8007 9.88642l12.2536 22.777l13.4814 18.2767l5.1177 15.2243l18.6483 -0.741211l9.11572 -12.7726l19.5399 1.55615l9.14521 -15.0877l6.14596 -27.0395l16.751 -3.76897l14.7918 -18.1675l-15.4013 -8.93582l-11.4642 -11.3482l11.7286 -22.6807l31.1014 -13.854l25.6209 -12.9496l-2.5156 -9.86381l15.6195 -11.2381l27.706 -4.55835l22.3976 7.60872l1.67411 6.81246l-10.7515 3.36986l-36.8482 17.4657l-14.6021 10.1145l-7.67852 9.38016l7.82106 14.5303l-3.58514 15.8653l15.5998 5.28875l9.32216 8.78444l26.2049 -3.39542l28.3243 -5.90413l29.2297 -1.28188l16.8719 7.65689l-18.3062 8.89945l-16.6183 0.476775l-17.4745 -2.6601l-20.2939 2.33865l-20.3646 4.48659l1.39788 9.25531l10.2207 5.7203l5.92379 -2.02899l-1.87072 9.50205l-3.09559 12.3666l-12.9211 0.312607l-12.7884 -12.0344l-15.1811 5.50109l-7.91445 10.1155l-0.557383 12.1238l3.42392 13.5394l-22.2265 5.22485l-3.6687 7.08673l-15.533 -0.203489l-1.21405 -3.92921l-16.0737 -2.72203l-20.284 5.44997l-25.1353 7.45045l-11.0041 4.7294l-7.60479 -5.12851l-18.1843 -6.36223l-9.05477 4.41385l-16.3764 3.02383l0.170066 -5.71735l-16.2732 -3.75226l-0.287046 -6.22362l-4.37747 -7.84367l11.5969 -11.5969l4.79625 1.74981l3.93609 -6.07518l-8.73234 -2.43892l-1.93265 -4.5092l4.76676 -5.24746l0.547553 -8.2821l-12.9555 4.54557l-5.65641 4.44137l-14.1892 0.998767l-4.6193 4.83164l-2.6837 4.34897l0.486604 16.4669l6.53918 8.93582l0.73728 9.13538l3.68246 6.03684l-10.9363 7.94001l-2.98647 -3.54975l-13.4608 0.875889l-3.14474 3.40819l-13.3841 -0.454163l-22.0358 6.74168l-14.1056 23.6991l-8.29783 4.42269l-12.9112 3.17915l-14.083 3.24993l-4.83852 13.1973l-37.4961 12.5603l-15.2047 -6.90978l5.10394 18.2324l-27.0464 -4.14253l-20.8817 3.50453l1.62201 11.7414l24.6163 6.19708l11.8781 8.14645l16.6202 16.9053l-3.06708 32.0864l-8.32831 9.66032l-26.0309 -0.530841l-13.3723 0.843446l-17.1373 -2.75054l-21.6259 0.103219l-19.7089 -2.90881l-22.7849 11.6254l6.57948 6.98646l-0.81199 11.4711l0.708772 5.43031l3.22142 5.78518l0.35586 6.82327l-3.36003 9.68588l-1.14327 6.50968l-6.42023 5.84712l-1.28188 10.5431l3.84958 6.10369l7.20666 1.48537l1.5129 9.90215l-2.45956 12.6045l8.31061 -1.77144l8.49149 2.26394l6.47331 -4.18086l15.0346 2.49692l4.56622 9.26416l5.9641 5.44014l7.88102 1.33693l6.15087 -6.08501z
M201.935 -946.652L201.683 -948.332L204.501 -949.517L209.815 -950.156L212.525 -952.338L218.905 -955.68L225.152 -953.561L225.235 -951.649L224.18 -948.69L213.932 -943.958L206.643 -942.353L200.685 -942.307L201.935 -946.652"/>
<path fill="rgb(255,225,170)" d="M489.483 -584.058l3.71392 -6.68073l14.9512 0.466431v-75.0027l-6.5089 3.51171l-30.6944 -2.13221l-6.76429 12.2408l-24.804 0.643892l-17.8648 15.4042l10.2079 7.69523l-7.83384 12.5269l11.767 8.93287l9.54138 16.0196l17.5817 -0.289995l15.5772 8.578l11.13 -1.91398"/>
<path fill="rgb(255,225,170)" d="M174.074 -561.032l2.11943 -13.9415l-5.5758 -4.00097l0.109117 -7.45045l8.05306 -7.89184l-1.14622 -3.09264l-13.6613 5.92674l0.472843 -8.14939l-11.2745 -1.93265l-17.5394 6.50084l-11.0159 0.979107l-6.54901 -3.75029l-17.211 0.125829l-15.1683 6.34945l-8.12482 -2.3937l-26.6394 1.30843l-27.296 2.86949l-15.5104 4.90242l-10.1676 6.64633l-17.4145 2.79871l-15.4829 8.80016l-6.99629 -0.170066l-16.6822 -3.55664l-15.3157 1.11477l-9.70849 -6.839l-11.8574 -0.076678l-5.06265 9.89232l-6.71282 10.4025h274.327l7.03136 -5.37132"/>
<path fill="rgb(114,163,255)" d="M508.148 -590.272l-14.9512 -0.466431l-3.71392 6.68073l-11.13 1.91398l-15.5772 -8.578l-17.5817 0.289995l-9.54138 -16.0196l-11.767 -8.93287l7.83384 -12.5269l-10.2079 -7.69523l17.8648 -15.4042l24.804 -0.643892l6.76429 -12.2408l30.6944 2.13221l6.5089 -3.51171v-86.7136l-12.9026 1.71547l-5.97884 8.86898l-12.4728 11.9056l0.374538 4.15137l-7.80828 3.46619l-4.89357 -1.507l-4.50625 19.4298l-8.35878 6.67189l-5.88251 11.5222l5.19929 9.1865l1.91299 6.19413l14.0614 5.20224l-2.93142 3.9469l-19.125 0.885719l-6.87046 4.98008l-13.4391 8.67434l-5.07051 -7.49862l0.219217 -3.32464l-9.81171 -0.457114l-8.404 -1.52371l-19.5045 4.18775l11.1644 9.05084l-8.18183 2.6257l-8.97121 0.0157276l-8.52 -8.2939l-3.02481 3.53599l3.59792 9.61904l8.05994 7.55662l-6.07223 3.53108l8.97121 7.42194l7.97245 4.67042l0.241827 9.09999l-14.898 -4.26835l4.75103 8.21427l-10.2275 1.69083l6.10762 14.2157l-10.6974 0.199556l-13.2071 -7.00612l-6.03979 -12.8847l-2.81837 -10.7141l-6.28162 -7.40523l-8.25261 -9.18355l-1.08921 -4.58784l-2.73776 -1.12755l-0.322436 -3.54287l-8.92206 -5.40868l-1.40181 -7.67262l1.36249 -10.9874l2.19709 -5.00269l-2.70925 -2.53821l-3.37281 -1.24649l-4.51608 -5.25729l-6.95795 -3.19881l-15.1427 -5.95918l-9.33789 -5.79796l-14.7308 -4.7874l-13.5453 -11.8535l3.24993 -1.20127l-7.34429 -6.7751l-0.299827 -5.43719l-10.3553 -2.54116l-4.93584 6.95402l-4.75398 -5.39492l0.360775 -5.58956l0.573112 -0.260505l3.58514 -1.46276l-12.8198 -2.34455l-13.0951 5.71441l0.88965 7.99506l-1.97198 4.58981l5.2799 8.19855l15.1014 8.114l8.10122 13.3133l17.9228 12.982l12.6212 -0.10027l3.92331 3.55958l-4.52001 3.20864l14.4281 5.82057l11.825 4.87391l13.8097 8.39712l1.66822 3.00908l-3.0081 5.76552l-8.93877 -7.51828l-13.9936 -2.65126l-6.78002 10.4182l11.6411 5.97196l-1.91004 8.404l-6.72988 0.953548l-8.60061 13.8156l-6.71612 1.24059l0.0648802 -4.92601l3.28532 -8.636l3.49864 -3.43965l-6.2885 -9.33592l-4.9152 -8.1199l-6.68761 -2.01031l-4.75398 -6.95107l-10.3494 -2.92847l-6.96778 -6.47135l-11.9184 -1.04399l-12.5858 -7.27056l-14.7338 -10.4851l-10.9491 -9.27694l-5.0253 -15.9223l-8.01373 -1.87171l-13.1039 -5.31431l-7.41211 2.1735l-9.30643 7.47405l-6.69351 1.18161l-14.5922 9.09999l-31.7679 -4.36174l-23.4563 5.22485l-1.8432 9.69965l0.86016 9.35755l-15.2617 10.7269l-20.6389 3.40426l-1.43622 5.41851l-9.8992 8.92599l-6.20691 13.1098l6.28162 9.20616l-9.31626 7.18405l-3.48389 10.4723l-12.1582 3.20766l-11.4052 12.3863l-20.4433 0.244776l-15.3521 -0.306707l-10.087 5.68885l-6.15087 6.08501l-7.88102 -1.33693l-5.9641 -5.44014l-4.56622 -9.26416l-15.0346 -2.49692l-6.47331 4.18086l-8.49149 -2.26394l-8.31061 1.77144l2.45956 -12.6045l-1.5129 -9.90215l-7.20666 -1.48537l-3.84958 -6.10369l1.28188 -10.5431l6.42023 -5.84712l1.14327 -6.50968l3.36003 -9.68588l-0.35586 -6.82327l-3.22142 -5.78518l-0.708772 -5.43031l0.81199 -11.4711l-6.57948 -6.98646l22.7849 -11.6254l19.7089 2.90881l21.6259 -0.103219l17.1373 2.75054l13.3723 -0.843446l26.0309 0.530841l8.32831 -9.66032l3.06708 -32.0864l-16.6202 -16.9053l-11.8781 -8.14645l-24.6163 -6.19708l-1.62201 -11.7414l20.8817 -3.50453l27.0464 4.14253l-5.10394 -18.2324l15.2047 6.90978l37.4961 -12.5603l4.83852 -13.1973l14.083 -3.24993l12.9112 -3.17915l8.29783 -4.42269l14.1056 -23.6991l22.0358 -6.74168l13.3841 0.454163l3.14474 -3.40819l13.4608 -0.875889l2.98647 3.54975l10.9363 -7.94001l-3.68246 -6.03684l-0.73728 -9.13538l-6.53918 -8.93582l-0.486604 -16.4669l2.6837 -4.34897l4.6193 -4.83164l14.1892 -0.998767l5.65641 -4.44137l12.9555 -4.54557l-0.547553 8.2821l-4.76676 5.24746l1.93265 4.5092l8.73234 2.43892l-3.93609 6.07518l-4.79625 -1.74981l-11.5969 11.5969l4.37747 7.84367l0.287046 6.22362l16.2732 3.75226l-0.170066 5.71735l16.3764 -3.02383l9.05477 -4.41385l18.1843 6.36223l7.60479 5.12851l11.0041 -4.7294l25.1353 -7.45045l20.284 -5.44997l16.0737 2.72203l1.21405 3.92921l15.533 0.203489l3.6687 -7.08673l22.2265 -5.22485l-3.42392 -13.5394l0.557383 -12.1238l7.91445 -10.1155l15.1811 -5.50109l12.7884 12.0344l12.9211 -0.312607l3.09559 -12.3666l1.87072 -9.50205l-5.92379 2.02899l-10.2207 -5.7203l-1.39788 -9.25531l20.3646 -4.48659l20.2939 -2.33865l17.4745 2.6601l16.6183 -0.476775l18.3062 -8.89945l-16.8719 -7.65689l-29.2297 1.28188l-28.3243 5.90413l-26.2049 3.39542l-9.32216 -8.78444l-15.5998 -5.28875l3.58514 -15.8653l-7.82106 -14.5303l7.67852 -9.38016l14.6021 -10.1145l36.8482 -17.4657l10.7515 -3.36986l-1.67411 -6.81246l-22.3976 -7.60872l-27.706 4.55835l-15.6195 11.2381l2.5156 9.86381l-25.6209 12.9496l-31.1014 13.854l-11.7286 22.6807l11.4642 11.3482l15.4013 8.93582l-14.7918 18.1675l-16.751 3.76897l-6.14596 27.0395l-9.14521 15.0877l-19.5399 -1.55615l-9.11572 12.7726l-18.6483 0.741211l-5.1177 -15.2243l-13.4814 -18.2767l-12.2536 -22.777l-10.8007 -9.88642l-31.8033 18.6286l-21.4725 3.77487l-22.2747 -8.20051l-5.75963 -17.3182l-5.09214 -37.1697l14.8301 -10.3622l42.5302 -13.5227l31.7964 -16.6212l29.4833 -22.4457l38.7032 -31.1014l26.9716 -12.1209l44.2623 -20.2005l35.3432 -7.05134l26.4978 0.857209l24.5298 -13.3428l29.3683 0.711719l9.24496 -1.02551h-605.817v588.678h64.5676l6.71282 -10.4025l5.06265 -9.89232l11.8574 0.076678l9.70849 6.839l15.3157 -1.11477l16.6822 3.55664l6.99629 0.170066l15.4829 -8.80016l17.4145 -2.79871l10.1676 -6.64633l15.5104 -4.90242l27.296 -2.86949l26.6394 -1.30843l8.12482 2.3937l15.1683 -6.34945l17.211 -0.125829l6.54901 3.75029l11.0159 -0.979107l17.5394 -6.50084l11.2745 1.93265l-0.472843 8.14939l13.6613 -5.92674l1.14622 3.09264l-8.05306 7.89184l-0.109117 7.45045l5.5758 4.00097l-2.11943 13.9415l-7.03136 5.37132h341.106v-34.6113z
M-93.038 -807.877L-69.4172 -824.794L-55 -828.273L-80.2788 -830.97L-84.8356 -837.379L-68.0056 -842.371L-76.8264 -851.047L-73.766 -861.596L-49.8014 -860.138L-47.4326 -869.488L-58.4653 -879.635L-78.0207 -882.469L-81.8597 -886.828L-76.0065 -894.026L-81.3033 -898.463L-89.9751 -890.847L-90.919 -906.372L-99.0523 -914.586L-93.2032 -931.237L-80.6916 -944.301L-67.8308 -943.026L-48.3989 -944.382L-65.6135 -926.955L-49.2042 -929.162L-31.5564 -929.078L-35.7554 -915.955L-50.235 -901.52L-33.5814 -900.493L-17.9582 -879.796L-6.93344 -877.209L2.97933 -858.859L7.5695 -852.496L27.0829 -849.429L25.1253 -839.128L16.9205 -834.405L23.3517 -826.073L8.86373 -817.639L-12.6838 -817.788L-40.1042 -813.359L-47.6141 -816.53L-58.263 -808.983L-73.1621 -810.811L-84.4769 -804.661L-93.038 -807.877z
M177.869 -891.713L175.62 -898.398L199.247 -903.737L204.387 -895.661L194.723 -882.615L177.869 -891.713z
M-160.692 -834.626L-147.633 -851.444L-156.044 -867.819L-134.131 -880.433L-121.958 -887.956L-108.456 -888.62L-91.192 -878.662L-99.8238 -867.597L-97.1679 -856.091L-109.342 -841.707L-137.894 -832.191L-160.692 -834.626z
M141.343 -669.75L137.614 -680.588L140.864 -686.573L151.236 -692.724L153.975 -678.913L148.655 -666.471L141.343 -669.75z
M135.747 -630.906L135.102 -650.338L131.426 -659.545L140.284 -658.74L148.337 -663.733L158.001 -652.298L155.738 -630.995L148.415 -632.011L141.845 -626.634L135.747 -630.906z
M230.885 -595.872L222.695 -597.61L200.215 -605.798L202.469 -614.068L221.317 -612.595L237.746 -614.349L249.973 -615.755L244.173 -603.078L246.583 -598.088L243.202 -589.806L230.885 -595.872z
M398.385 -565.083L378.735 -568.223L381.715 -575.069L390.519 -569.641L403.056 -570.559L415.042 -569.416L414.652 -566.613L423.43 -568.546L421.416 -563.794L398.223 -562.425L398.385 -565.083"/>
<path fill="rgb(114,163,255)" d="M508.148 -1122.75v-21.5911h-45.1804l41.0495 9.60056l-20.7451 4.31063l17.6456 10.1174l7.23045 -2.43753"/>
<path fill="rgb(114,163,255)" d="M508.148 -966.162v-24.3806l-11.2421 -4.41345l-16.3523 8.84159l10.7159 6.16656l0.512701 3.43243l9.2619 7.78955l-0.0432803 3.52357l6.49865 0.118187l0.648498 -1.07786"/>
<path fill="rgb(114,163,255)" d="M206.643 -942.353l7.28934 -1.60469l10.2474 -4.73249l1.05536 -2.95885l-0.0832299 -1.91181l-6.24646 -2.11905l-6.38046 3.34171l-2.70999 2.18189l-5.31428 0.639211l-2.81736 1.18479l0.251357 1.68043l-1.25012 4.34464l5.95848 -0.0457768"/>
</g>
<g stroke-width="0.5px" stroke="rgb(209,179,139)" fill="none">
<path d="M381.715 -575.069l8.80497 5.42747l12.5362 -0.917618l11.986 1.14317l-0.389519 2.80279l8.7775 -1.93262l-2.01335 4.75122l-23.193 1.36914l0.161467 -2.65755l-19.6499 -3.14071l2.97966 -6.8453"/>
<path d="M249.973 -615.755l-5.80034 12.6773l2.41036 4.99009l-3.38083 8.28228l-12.3173 -6.06626l-8.18989 -1.73786l-22.4798 -8.18865l2.25389 -8.26938l18.8476 1.47235l16.4297 -1.75409l12.2266 -1.40577"/>
<path d="M148.337 -663.733l9.66308 11.4351l-2.26221 21.3025l-7.32346 -1.01625l-6.56939 5.37712l-6.09831 -4.27181l-0.645037 -19.4314l-3.6763 -9.20781l8.85824 0.805673l8.0534 -4.99301"/>
<path d="M153.975 -678.913l-5.31927 12.4417l-7.31264 -3.27929l-3.72873 -10.8379l3.25016 -5.98511l10.3722 -6.15033l2.73829 13.8109"/>
<path d="M-109.342 -841.707l-28.5523 9.51576l-22.7977 -2.4345l13.0589 -16.8176l-8.41129 -16.3756l21.913 -12.6136l12.1733 -7.52322l13.5021 -0.66418l17.2641 9.95771l-8.63185 11.0655l2.65589 11.5062l-12.1741 14.3835"/>
<path d="M204.387 -895.661l-9.66391 13.0456l-16.8542 -9.09752l-2.24889 -6.6855l23.6275 -5.33841l5.13949 8.07587"/>
<path d="M-48.3989 -944.382l-17.2146 17.4264l16.4093 -2.20644l17.6478 0.0840629l-4.19899 13.123l-14.4796 14.4347l16.6536 1.02748l15.6232 20.6965l11.0247 2.58681l9.91277 18.3507l4.59017 6.36215l19.5134 3.06788l-1.95758 10.3002l-8.20488 4.72292l6.43123 8.33222l-14.488 8.43459l-21.5476 -0.148983l-27.4203 4.4287l-7.5099 -3.17067l-10.6489 7.54611l-14.8991 -1.82774l-11.3148 6.14991l-8.5611 -3.21603l23.6209 -16.9166l14.4172 -3.47904l-25.2788 -2.69709l-4.55688 -6.40918l16.8301 -4.99217l-8.82078 -8.67555l3.06039 -10.5495l23.9646 1.45862l2.36874 -9.35055l-11.0326 -10.1471l-19.5555 -2.834l-3.83901 -4.35879l5.85319 -7.19737l-5.2968 -4.43744l-8.6718 7.6156l-0.943835 -15.5242l-8.1333 -8.21403l5.84903 -16.6511l12.5116 -13.0647l12.8608 1.27509l19.4319 -1.35541"/>
<path d="M-100.572 -566.063l5.06265 -9.89232l11.8574 0.076677l9.70849 6.839l15.3157 -1.11477l16.6822 3.55664l6.99629 0.170066l15.4829 -8.80017l17.4145 -2.79871l10.1676 -6.64633l15.5104 -4.90242l27.296 -2.86949l26.6394 -1.30842l8.12482 2.3937l15.1683 -6.34945l17.211 -0.125829l6.54901 3.75029l11.0159 -0.979107l17.5394 -6.50084l11.2745 1.93265l-0.472842 8.14939l13.6613 -5.92674l1.14622 3.09264l-8.05306 7.89184l-0.109117 7.45045l5.5758 4.00097l-2.11943 13.9415"/>
<path d="M493.197 -590.739l-3.71392 6.68073l-11.13 1.91398l-15.5772 -8.578l-17.5817 0.289997l-9.54138 -16.0196l-11.767 -8.93288l7.83384 -12.5269l-10.2079 -7.69523l17.8648 -15.4042l24.804 -0.643891l6.76429 -12.2408l30.6944 2.13221"/>
<path d="M495.245 -750.273l-5.97884 8.86898l-12.4728 11.9056l0.374538 4.15137l-7.80828 3.4662l-4.89357 -1.507l-4.50625 19.4298l-8.35878 6.67189l-5.88251 11.5222l5.19929 9.1865l1.91299 6.19413l14.0614 5.20224l-2.93142 3.9469l-19.125 0.885718l-6.87046 4.98008l-13.4391 8.67434l-5.07052 -7.49862l0.219218 -3.32464l-9.81171 -0.457113l-8.404 -1.52371l-19.5045 4.18775l11.1644 9.05084l-8.18183 2.6257l-8.97121 0.0157286l-8.52 -8.2939l-3.02481 3.53599l3.59792 9.61904l8.05994 7.55662l-6.07223 3.53108l8.97121 7.42194l7.97245 4.67042l0.241828 9.09999l-14.898 -4.26836l4.75103 8.21427l-10.2275 1.69083l6.10762 14.2157l-10.6974 0.199557l-13.2071 -7.00612l-6.03979 -12.8847l-2.81837 -10.7141l-6.28162 -7.40523l-8.25261 -9.18355l-1.08921 -4.58784l-2.73776 -1.12755l-0.322437 -3.54287l-8.92206 -5.40868l-1.40181 -7.67262l1.36249 -10.9874l2.19709 -5.00269l-2.70926 -2.53821l-3.37281 -1.24649l-4.51608 -5.25729l-6.95795 -3.19881l-15.1427 -5.95918l-9.33789 -5.79796l-14.7308 -4.7874l-13.5453 -11.8535l3.24993 -1.20127l-7.34428 -6.7751l-0.299827 -5.43719l-10.3553 -2.54116l-4.93584 6.95402l-4.75398 -5.39492l0.360775 -5.58956l0.573112 -0.260505l3.58514 -1.46276l-12.8198 -2.34455l-13.0951 5.71441l0.88965 7.99506l-1.97198 4.58981l5.2799 8.19855l15.1014 8.114l8.10122 13.3133l17.9228 12.982l12.6212 -0.10027l3.92331 3.55958l-4.52001 3.20864l14.4281 5.82057l11.825 4.87391l13.8097 8.39712l1.66822 3.00908l-3.0081 5.76552l-8.93877 -7.51828l-13.9936 -2.65126l-6.78002 10.4182l11.6411 5.97196l-1.91004 8.404l-6.72988 0.953548l-8.60061 13.8156l-6.71612 1.2406l0.0648806 -4.92601l3.28532 -8.636l3.49864 -3.43965l-6.2885 -9.33592l-4.91519 -8.1199l-6.68761 -2.01031l-4.75398 -6.95107l-10.3494 -2.92847l-6.96778 -6.47135l-11.9184 -1.04399l-12.5858 -7.27056l-14.7338 -10.4851l-10.9491 -9.27694l-5.0253 -15.9223l-8.01373 -1.87171l-13.1039 -5.31431l-7.41211 2.1735l-9.30643 7.47405l-6.69351 1.18161l-14.5922 9.09999l-31.7679 -4.36174l-23.4563 5.22485l-1.8432 9.69965l0.860159 9.35755l-15.2617 10.7269l-20.6389 3.40426l-1.43622 5.41851l-9.8992 8.92599l-6.20691 13.1098l6.28162 9.20616l-9.31626 7.18405l-3.48389 10.4723l-12.1582 3.20766l-11.4052 12.3863l-20.4433 0.244777l-15.3521 -0.306708l-10.087 5.68885l-6.15087 6.08501l-7.88102 -1.33693l-5.9641 -5.44014l-4.56622 -9.26416l-15.0346 -2.49692l-6.47331 4.18086l-8.49149 -2.26394l-8.31061 1.77144l2.45956 -12.6045l-1.5129 -9.90215l-7.20666 -1.48537l-3.84958 -6.10369l1.28188 -10.5431l6.42023 -5.84712l1.14327 -6.50968l3.36003 -9.68588l-0.35586 -6.82327l-3.22142 -5.78518l-0.708771 -5.43031l0.81199 -11.4711l-6.57948 -6.98646l22.7849 -11.6254l19.7089 2.90881l21.6259 -0.103219l17.1373 2.75054l13.3723 -0.843447l26.0309 0.530841l8.32831 -9.66032l3.06708 -32.0864l-16.6202 -16.9053l-11.8781 -8.14644l-24.6163 -6.19708l-1.62201 -11.7414l20.8817 -3.50453l27.0464 4.14253l-5.10394 -18.2324l15.2047 6.90978l37.4961 -12.5603l4.83852 -13.1973l14.083 -3.24993l12.9112 -3.17915l8.29783 -4.42269l14.1056 -23.6991l22.0358 -6.74168l13.3841 0.454164l3.14474 -3.4082l13.4608 -0.875888l2.98647 3.54975l10.9363 -7.94001l-3.68246 -6.03684l-0.737279 -9.13538l-6.53918 -8.93582l-0.486604 -16.4669l2.6837 -4.34896l4.6193 -4.83164l14.1892 -0.998768l5.65641 -4.44137l12.9555 -4.54557l-0.547553 8.2821l-4.76676 5.24746l1.93265 4.5092l8.73234 2.43892l-3.93609 6.07518l-4.79625 -1.74981l-11.5969 11.5969l4.37747 7.84367l0.287047 6.22362l16.2732 3.75226l-0.170066 5.71735l16.3764 -3.02383l9.05477 -4.41385l18.1843 6.36223l7.60479 5.12851l11.0041 -4.7294l25.1353 -7.45045l20.284 -5.44997l16.0737 2.72203l1.21405 3.92921l15.533 0.203489l3.6687 -7.08673l22.2265 -5.22485l-3.42392 -13.5394l0.557383 -12.1238l7.91445 -10.1155l15.1811 -5.50109l12.7884 12.0344l12.9211 -0.312606l3.09559 -12.3666l1.87072 -9.50205l-5.92379 2.02899l-10.2207 -5.7203l-1.39788 -9.25531l20.3646 -4.48659l20.2939 -2.33865l17.4745 2.6601l16.6183 -0.476774l18.3062 -8.89945l-16.8719 -7.65689l-29.2297 1.28188l-28.3243 5.90413l-26.2049 3.39542l-9.32216 -8.78444l-15.5998 -5.28875l3.58514 -15.8653l-7.82106 -14.5303l7.67852 -9.38016l14.6021 -10.1145l36.8482 -17.4657l10.7515 -3.36986l-1.67412 -6.81246l-22.3976 -7.60872l-27.706 4.55835l-15.6195 11.2381l2.5156 9.86381l-25.6209 12.9496l-31.1014 13.854l-11.7286 22.6807l11.4642 11.3482l15.4013 8.93582l-14.7918 18.1675l-16.751 3.76897l-6.14596 27.0395l-9.14521 15.0877l-19.5399 -1.55615l-9.11572 12.7726l-18.6482 0.741211l-5.1177 -15.2243l-13.4814 -18.2767l-12.2536 -22.777l-10.8006 -9.88642l-31.8033 18.6286l-21.4725 3.77487l-22.2747 -8.20051l-5.75963 -17.3182l-5.09214 -37.1697l14.8301 -10.3622l42.5302 -13.5227l31.7964 -16.6212l29.4833 -22.4457l38.7032 -31.1014l26.9716 -12.1209l44.2623 -20.2005l35.3432 -7.05134l26.4978 0.85721l24.5298 -13.3428l29.3683 0.71172"/>
<path d="M504.017 -1134.74l-20.7451 4.31063l17.6455 10.1174"/>
<path d="M480.553 -986.114l10.7159 6.16656l0.512701 3.43243l9.26191 7.78956l-0.0432799 3.52357l6.49865 0.118188"/>
<path d="M496.906 -994.956l-16.3523 8.84159"/>
<path d="M225.152 -953.561l-6.24646 -2.11905l-6.38046 3.34171l-2.70999 2.18189l-5.31428 0.639211l-2.81736 1.18479l0.251357 1.68043l-1.25012 4.34464l5.95848 -0.0457768l7.28934 -1.60469l10.2474 -4.73249l1.05536 -2.95885l-0.0832306 -1.91181"/>
</g>
</g>
</g>
</g>
<g inkscape:groupmode="layer" inkscape:label="Coastline" id="Coastline"><title>Coastline</title>
<g>
<g id="drawing" transform="translate(171.852,555.661)">
<g stroke-width="0.5px" stroke="rgb(0,0,0)" fill="none">
<path d="M381.715 -575.069l8.80497 5.42747l12.5362 -0.917618l11.986 1.14317l-0.389519 2.80279l8.7775 -1.93262l-2.01335 4.75122l-23.193 1.36914l0.161467 -2.65755l-19.6499 -3.14071l2.97966 -6.8453"/>
<path d="M249.973 -615.755l-5.80034 12.6773l2.41036 4.99009l-3.38083 8.28228l-12.3173 -6.06626l-8.18989 -1.73786l-22.4798 -8.18865l2.25389 -8.26938l18.8476 1.47235l16.4297 -1.75409l12.2266 -1.40577"/>
<path d="M148.337 -663.733l9.66308 11.4351l-2.26221 21.3025l-7.32346 -1.01625l-6.56939 5.37712l-6.09831 -4.27181l-0.645037 -19.4314l-3.6763 -9.20781l8.85824 0.805673l8.0534 -4.99301"/>
<path d="M153.975 -678.913l-5.31927 12.4417l-7.31264 -3.27929l-3.72873 -10.8379l3.25016 -5.98511l10.3722 -6.15033l2.73829 13.8109"/>
<path d="M-109.342 -841.707l-28.5523 9.51576l-22.7977 -2.4345l13.0589 -16.8176l-8.41129 -16.3756l21.913 -12.6136l12.1733 -7.52322l13.5021 -0.66418l17.2641 9.95771l-8.63185 11.0655l2.65589 11.5062l-12.1741 14.3835"/>
<path d="M204.387 -895.661l-9.66391 13.0456l-16.8542 -9.09752l-2.24889 -6.6855l23.6275 -5.33841l5.13949 8.07587"/>
<path d="M-48.3989 -944.382l-17.2146 17.4264l16.4093 -2.20644l17.6478 0.0840629l-4.19899 13.123l-14.4796 14.4347l16.6536 1.02748l15.6232 20.6965l11.0247 2.58681l9.91277 18.3507l4.59017 6.36215l19.5134 3.06788l-1.95758 10.3002l-8.20488 4.72292l6.43123 8.33222l-14.488 8.43459l-21.5476 -0.148983l-27.4203 4.4287l-7.5099 -3.17067l-10.6489 7.54611l-14.8991 -1.82774l-11.3148 6.14991l-8.5611 -3.21603l23.6209 -16.9166l14.4172 -3.47904l-25.2788 -2.69709l-4.55688 -6.40918l16.8301 -4.99217l-8.82078 -8.67555l3.06039 -10.5495l23.9646 1.45862l2.36874 -9.35055l-11.0326 -10.1471l-19.5555 -2.834l-3.83901 -4.35879l5.85319 -7.19737l-5.2968 -4.43744l-8.6718 7.6156l-0.943835 -15.5242l-8.1333 -8.21403l5.84903 -16.6511l12.5116 -13.0647l12.8608 1.27509l19.4319 -1.35541"/>
<path d="M-100.572 -566.063l5.06265 -9.89232l11.8574 0.076677l9.70849 6.839l15.3157 -1.11477l16.6822 3.55664l6.99629 0.170066l15.4829 -8.80017l17.4145 -2.79871l10.1676 -6.64633l15.5104 -4.90242l27.296 -2.86949l26.6394 -1.30842l8.12482 2.3937l15.1683 -6.34945l17.211 -0.125829l6.54901 3.75029l11.0159 -0.979107l17.5394 -6.50084l11.2745 1.93265l-0.472842 8.14939l13.6613 -5.92674l1.14622 3.09264l-8.05306 7.89184l-0.109117 7.45045l5.5758 4.00097l-2.11943 13.9415"/>
<path d="M493.197 -590.739l-3.71392 6.68073l-11.13 1.91398l-15.5772 -8.578l-17.5817 0.289997l-9.54138 -16.0196l-11.767 -8.93288l7.83384 -12.5269l-10.2079 -7.69523l17.8648 -15.4042l24.804 -0.643891l6.76429 -12.2408l30.6944 2.13221"/>
<path d="M495.245 -750.273l-5.97884 8.86898l-12.4728 11.9056l0.374538 4.15137l-7.80828 3.4662l-4.89357 -1.507l-4.50625 19.4298l-8.35878 6.67189l-5.88251 11.5222l5.19929 9.1865l1.91299 6.19413l14.0614 5.20224l-2.93142 3.9469l-19.125 0.885718l-6.87046 4.98008l-13.4391 8.67434l-5.07052 -7.49862l0.219218 -3.32464l-9.81171 -0.457113l-8.404 -1.52371l-19.5045 4.18775l11.1644 9.05084l-8.18183 2.6257l-8.97121 0.0157286l-8.52 -8.2939l-3.02481 3.53599l3.59792 9.61904l8.05994 7.55662l-6.07223 3.53108l8.97121 7.42194l7.97245 4.67042l0.241828 9.09999l-14.898 -4.26836l4.75103 8.21427l-10.2275 1.69083l6.10762 14.2157l-10.6974 0.199557l-13.2071 -7.00612l-6.03979 -12.8847l-2.81837 -10.7141l-6.28162 -7.40523l-8.25261 -9.18355l-1.08921 -4.58784l-2.73776 -1.12755l-0.322437 -3.54287l-8.92206 -5.40868l-1.40181 -7.67262l1.36249 -10.9874l2.19709 -5.00269l-2.70926 -2.53821l-3.37281 -1.24649l-4.51608 -5.25729l-6.95795 -3.19881l-15.1427 -5.95918l-9.33789 -5.79796l-14.7308 -4.7874l-13.5453 -11.8535l3.24993 -1.20127l-7.34428 -6.7751l-0.299827 -5.43719l-10.3553 -2.54116l-4.93584 6.95402l-4.75398 -5.39492l0.360775 -5.58956l0.573112 -0.260505l3.58514 -1.46276l-12.8198 -2.34455l-13.0951 5.71441l0.88965 7.99506l-1.97198 4.58981l5.2799 8.19855l15.1014 8.114l8.10122 13.3133l17.9228 12.982l12.6212 -0.10027l3.92331 3.55958l-4.52001 3.20864l14.4281 5.82057l11.825 4.87391l13.8097 8.39712l1.66822 3.00908l-3.0081 5.76552l-8.93877 -7.51828l-13.9936 -2.65126l-6.78002 10.4182l11.6411 5.97196l-1.91004 8.404l-6.72988 0.953548l-8.60061 13.8156l-6.71612 1.2406l0.0648806 -4.92601l3.28532 -8.636l3.49864 -3.43965l-6.2885 -9.33592l-4.91519 -8.1199l-6.68761 -2.01031l-4.75398 -6.95107l-10.3494 -2.92847l-6.96778 -6.47135l-11.9184 -1.04399l-12.5858 -7.27056l-14.7338 -10.4851l-10.9491 -9.27694l-5.0253 -15.9223l-8.01373 -1.87171l-13.1039 -5.31431l-7.41211 2.1735l-9.30643 7.47405l-6.69351 1.18161l-14.5922 9.09999l-31.7679 -4.36174l-23.4563 5.22485l-1.8432 9.69965l0.860159 9.35755l-15.2617 10.7269l-20.6389 3.40426l-1.43622 5.41851l-9.8992 8.92599l-6.20691 13.1098l6.28162 9.20616l-9.31626 7.18405l-3.48389 10.4723l-12.1582 3.20766l-11.4052 12.3863l-20.4433 0.244777l-15.3521 -0.306708l-10.087 5.68885l-6.15087 6.08501l-7.88102 -1.33693l-5.9641 -5.44014l-4.56622 -9.26416l-15.0346 -2.49692l-6.47331 4.18086l-8.49149 -2.26394l-8.31061 1.77144l2.45956 -12.6045l-1.5129 -9.90215l-7.20666 -1.48537l-3.84958 -6.10369l1.28188 -10.5431l6.42023 -5.84712l1.14327 -6.50968l3.36003 -9.68588l-0.35586 -6.82327l-3.22142 -5.78518l-0.708771 -5.43031l0.81199 -11.4711l-6.57948 -6.98646l22.7849 -11.6254l19.7089 2.90881l21.6259 -0.103219l17.1373 2.75054l13.3723 -0.843447l26.0309 0.530841l8.32831 -9.66032l3.06708 -32.0864l-16.6202 -16.9053l-11.8781 -8.14644l-24.6163 -6.19708l-1.62201 -11.7414l20.8817 -3.50453l27.0464 4.14253l-5.10394 -18.2324l15.2047 6.90978l37.4961 -12.5603l4.83852 -13.1973l14.083 -3.24993l12.9112 -3.17915l8.29783 -4.42269l14.1056 -23.6991l22.0358 -6.74168l13.3841 0.454164l3.14474 -3.4082l13.4608 -0.875888l2.98647 3.54975l10.9363 -7.94001l-3.68246 -6.03684l-0.737279 -9.13538l-6.53918 -8.93582l-0.486604 -16.4669l2.6837 -4.34896l4.6193 -4.83164l14.1892 -0.998768l5.65641 -4.44137l12.9555 -4.54557l-0.547553 8.2821l-4.76676 5.24746l1.93265 4.5092l8.73234 2.43892l-3.93609 6.07518l-4.79625 -1.74981l-11.5969 11.5969l4.37747 7.84367l0.287047 6.22362l16.2732 3.75226l-0.170066 5.71735l16.3764 -3.02383l9.05477 -4.41385l18.1843 6.36223l7.60479 5.12851l11.0041 -4.7294l25.1353 -7.45045l20.284 -5.44997l16.0737 2.72203l1.21405 3.92921l15.533 0.203489l3.6687 -7.08673l22.2265 -5.22485l-3.42392 -13.5394l0.557383 -12.1238l7.91445 -10.1155l15.1811 -5.50109l12.7884 12.0344l12.9211 -0.312606l3.09559 -12.3666l1.87072 -9.50205l-5.92379 2.02899l-10.2207 -5.7203l-1.39788 -9.25531l20.3646 -4.48659l20.2939 -2.33865l17.4745 2.6601l16.6183 -0.476774l18.3062 -8.89945l-16.8719 -7.65689l-29.2297 1.28188l-28.3243 5.90413l-26.2049 3.39542l-9.32216 -8.78444l-15.5998 -5.28875l3.58514 -15.8653l-7.82106 -14.5303l7.67852 -9.38016l14.6021 -10.1145l36.8482 -17.4657l10.7515 -3.36986l-1.67412 -6.81246l-22.3976 -7.60872l-27.706 4.55835l-15.6195 11.2381l2.5156 9.86381l-25.6209 12.9496l-31.1014 13.854l-11.7286 22.6807l11.4642 11.3482l15.4013 8.93582l-14.7918 18.1675l-16.751 3.76897l-6.14596 27.0395l-9.14521 15.0877l-19.5399 -1.55615l-9.11572 12.7726l-18.6482 0.741211l-5.1177 -15.2243l-13.4814 -18.2767l-12.2536 -22.777l-10.8006 -9.88642l-31.8033 18.6286l-21.4725 3.77487l-22.2747 -8.20051l-5.75963 -17.3182l-5.09214 -37.1697l14.8301 -10.3622l42.5302 -13.5227l31.7964 -16.6212l29.4833 -22.4457l38.7032 -31.1014l26.9716 -12.1209l44.2623 -20.2005l35.3432 -7.05134l26.4978 0.85721l24.5298 -13.3428l29.3683 0.71172"/>
<path d="M504.017 -1134.74l-20.7451 4.31063l17.6455 10.1174"/>
<path d="M480.553 -986.114l10.7159 6.16656l0.512701 3.43243l9.26191 7.78956l-0.0432799 3.52357l6.49865 0.118188"/>
<path d="M496.906 -994.956l-16.3523 8.84159"/>
<path d="M225.152 -953.561l-6.24646 -2.11905l-6.38046 3.34171l-2.70999 2.18189l-5.31428 0.639211l-2.81736 1.18479l0.251357 1.68043l-1.25012 4.34464l5.95848 -0.0457768l7.28934 -1.60469l10.2474 -4.73249l1.05536 -2.95885l-0.0832306 -1.91181"/>
</g>
</g>
</g>
</g>
<g inkscape:groupmode="layer" inkscape:label="Coastline" id="Coastline"><title>Coastline</title>
<g>
<g id="drawing" transform="translate(171.852,555.661)">
<g stroke-width="1px" stroke="rgb(51,51,51)" fill="none">
<path d="M-171.852 -555.661l0 -588.678l680 0l0 588.678l-680 0"/>
</g>
</g>
</g>
</g>
<g id="Clone of page">
</g>
</g>
</g><!--ePage-->
</svg>
