<?xml version="1.0" ?>
<svg version="1.1" encoding="iso-8859-1" baseProfile="full"
xmlns:dc="http://purl.org/dc/elements/1.1/"
xmlns:cc="http://creativecommons.org/ns#"
xmlns:rdf="http://www.w3.org/1999/02/22-rdf-syntax-ns#"
xmlns="http://www.w3.org/2000/svg"
xmlns:xlink="http://www.w3.org/1999/xlink"
xmlns:ev="http://www.w3.org/2001/xml-events"
xmlns:sodipodi="http://sodipodi.sourceforge.net/DTD/sodipodi-0.dtd"
xmlns:inkscape="http://www.inkscape.org/namespaces/inkscape"
inkscape:version="0.46"
inkscape:output_extension="org.inkscape.output.svg.inkscape"
viewBox="0 0 681 191" xml:space="preserve">
<title>Magics plot</title>
<metadata id="MAGICSmetadata">
<rdf:RDF><cc:Work rdf:about="">
	<dc:format>image/svg+xml</dc:format>
	<dc:title>Magics plot</dc:title>
	<dc:author>baudouin on Baudouins-iMac-3.local</dc:author>
	<dc:date>Sat Sep 12 16:16:45 2020</dc:date>
	<dc:language>en-GB</dc:language>
	<dc:publisher><cc:Agent>
	 <dc:title>Magics 4.4.5 (64 bit)</dc:title>
	</cc:Agent></dc:publisher>
	<dc:coverage>Plot of meteorological data</dc:coverage>
</cc:Work></rdf:RDF>
</metadata>
<g id="page" transform="translate(0,190.4)" vector-effect="non-scaling-stroke">
<g id="Page19">
<g inkscape:groupmode="layer" inkscape:label="Coastline" id="Coastline"><title>Coastline</title>
<g>
<g id="drawing" transform="translate(95.8346,-76.1887)">
</g>
</g>
</g>
<g inkscape:groupmode="layer" inkscape:label="Coastline" id="Coastline"><title>Coastline</title>
<g>
<g id="drawing" transform="translate(95.8346,-76.1887)">
<g fill-rule="evenodd" stroke="none">
<path fill="rgb(255,225,170)" d="M-89.8086 40.4157l-0.210943 -0.866927l-0.545865 -1.29368l-0.33846 -0.121778l-0.678181 0.394057l0.456593 0.90629l0.516105 1.19821l0.600239 0.215147l0.200512 -0.431322"/>
<path fill="rgb(255,225,170)" d="M-90.8945 35.2385l-0.210138 -0.729919l0.519609 -0.138556l-0.357609 -0.8542l0.490187 -0.50584l-0.193059 -0.40124l0.100962 -1.08966l-0.413192 -1.23907l-0.354139 -0.103336l-0.179412 -1.46938l-0.225253 -0.998593l-0.579706 -0.220331l0.0421666 1.0971l-0.657709 0.190386l-0.511215 0.976585l-0.569572 -0.467889l-0.238253 -1.28181l-0.195897 -1.58488l-0.602646 0.011098l-0.292825 1.04396l0.55338 0.680673l0.179635 1.04633l0.363838 0.739948l0.0599157 1.18723l-0.47003 0.248186l-0.133703 0.517677l1.40537 0.254861l0.432726 0.452088l-0.328085 0.393499l0.328444 0.586085l0.416907 0.178866l0.114481 0.560612l0.34895 0.712143l-0.0736721 0.90634l0.920331 0.323829l0.309206 -1.0228"/>
<path fill="rgb(255,225,170)" d="M-38.9267 -86.8634l0.0205076 -0.190226l-0.247616 -0.271629l0.146879 -0.383303l-0.00419094 -0.215125l-0.519269 -0.480992l-0.160369 -0.477636l-0.491156 -0.0618145l-0.102019 0.376641l-0.376381 0.480985l-0.43704 0.625498l0.0054659 0.106953l0.652463 0.384793l0.346259 0.102062l0.333599 0.0161776l0.704189 0.00944822l0.128678 -0.0218314"/>
<path fill="rgb(255,225,170)" d="M-37.2625 -86.1605l0.0878593 -0.201865l-0.0568036 -0.0950637l-0.230194 -0.0563752l-0.408448 -0.227066l-0.455624 0.338397l-0.0399817 0.249238l0.502162 0.0727989l0.601029 -0.0800641"/>
<path fill="rgb(255,225,170)" d="M-36.1609 -86.2351l0.0305506 -0.244143l-0.827307 0.294897l0.0280162 0.194183l0.768741 -0.244937"/>
<path fill="rgb(255,225,170)" d="M-34.3538 -86.2951l-0.0843014 -0.0413568l-0.339017 -0.290876l-0.548866 0.15595l-0.116529 0.023359l-0.0433527 0.126997l0.652165 0.356886l0.167305 0.0529939l0.312596 -0.383953"/>
<path fill="rgb(255,225,170)" d="M-31.984 -85.9849l0.170378 -0.243966l0.0342872 -0.14718l-0.618164 -0.107989l-0.11832 0.228081l0.173198 0.366038l0.35862 -0.0949834"/>
<path fill="rgb(255,225,170)" d="M-91.1872 24.5463l-0.237967 -1.19316l0.50914 -0.00689295l0.109072 -1.03291l-0.150111 -0.516507l0.536434 -1.16486l0.756166 -1.56226l0.281192 -0.63651l-0.48012 -1.42329l0.504533 -0.737691l0.321983 -1.56225l-0.174221 -1.22518l-0.0721438 -1.3627l-0.236931 -0.353142l-0.310594 -1.16469l-0.42362 -0.764828l-0.455569 -0.67402l-0.654134 -0.282861l-0.611443 -0.795165l-0.101031 0.702289l0.268329 0.775264l0.4449 0.184776l0.0968959 0.657708l1.02743 1.03097l0.121838 1.5557l-0.509911 -0.531382l-0.256161 0.599841l0.0558486 2.10815l-0.278148 0.537325l-0.190989 1.56737l0.241402 0.886365l-0.899976 0.575402l-0.38191 0.658519l0.109106 1.06314l-0.299021 0.757967l-1.20897 -0.874137l0.705942 2.2949l0.142614 1.15192l0.37119 1.06661l0.511854 1.01094l0.453368 0.0771814l0.363731 -1.3979"/>
<path fill="rgb(255,225,170)" d="M-86.0694 19.0181l1.24936 -0.818769l-0.0284206 -0.459448l-1.11006 -0.108385l-0.36064 0.662603l-0.872513 0.589273l0.164245 0.354923l0.958033 -0.220197"/>
<path fill="rgb(255,225,170)" d="M-82.1009 17.6759l-0.149873 -0.956702l-0.263389 -0.650139l-0.578279 0.218007l0.582726 1.52206l0.408814 -0.133225"/>
<path fill="rgb(255,225,170)" d="M-82.2304 18.9844l0.468771 -1.29196l-0.18349 0.0426699l-0.492946 0.782657l-0.848239 0.165481l-0.146915 0.314367l1.20282 -0.0132186"/>
<path fill="rgb(255,225,170)" d="M-48.6416 24.8491l-0.144455 -0.699886l0.455762 -0.592448l-0.537756 -0.135348l-0.313634 0.414561l0.0164578 1.35096l0.244081 0.275575l0.721326 0.152772l-0.441781 -0.766187"/>
<path fill="rgb(255,225,170)" d="M-44.686 23.9247l0.0837611 -1.0596l-0.207874 -1.17721l-0.232722 -0.222017l-0.218221 1.01248l0.143429 1.21578l0.224382 0.371052l0.207244 -0.140484"/>
<path fill="rgb(255,225,170)" d="M-41.3535 -28.8709l0.773896 0.016474l0.549678 0.031683l0.592609 -0.567583l0.479384 -0.296896l0.780388 -0.526844l-0.198321 -0.250929l-0.781499 -0.193458l-0.738535 0.56197l-0.402903 -0.105771l-0.850961 0.354548l-0.547663 -0.0653274l-1.35299 0.861056l-0.0950727 0.483758l0.83063 0.109668l0.961358 -0.41235"/>
<path fill="rgb(255,225,170)" d="M-42.1938 32.2035l0.505489 -0.741912l0.508821 -0.527571l-0.562777 -0.36765l0.966061 -0.367731l-0.180161 -0.956455l-0.504407 -0.14104l-0.138394 -0.854149l0.562219 -0.0130092l-0.0879153 -0.644111l-0.693329 -0.220522l1.29801 -0.175848l0.952635 -0.101264l0.39031 -0.0727155l-0.169039 -0.351019l-0.784919 -0.345975l-0.92554 -0.023927l-2.29982 0.383077l-1.09058 -0.219106l-0.114822 0.528738l-0.705208 -0.241166l-0.276917 0.328505l0.907925 1.54951l0.612788 0.786431l0.224649 0.923016l-0.906484 -0.180703l0.277094 0.491114l1.59686 0.196872l0.00964508 0.310388l-1.03 0.49601l0.156623 0.655981l0.297459 0.313056l1.20372 -0.416821"/>
<path fill="rgb(255,225,170)" d="M-32.5787 -30.0733l0.372628 -0.149074l-0.274703 -0.32145l-0.522774 -0.291351l-0.57401 0.0130675l-0.650649 -0.19284l-0.779408 -0.0420539l-0.217255 0.242709l1.26578 0.184244l0.959723 1.177l0.420668 -0.620247"/>
<path fill="rgb(255,225,170)" d="M-33.0419 6.11201l-0.015577 -0.241073l-0.412949 -0.158991l-0.0908679 -0.0126735l-0.345976 0.218759l-0.0593979 0.280774l0.6974 0.108043l0.227368 -0.194838"/>
<path fill="rgb(255,225,170)" d="M-32.5891 4.65147l-0.0902179 -0.783895l-0.626652 -0.363256l-0.326401 0.1644l0.0187573 0.417685l0.78069 0.587436l0.243824 -0.0223708"/>
<path fill="rgb(255,225,170)" d="M-31.0653 5.02181l-0.158676 -0.385135l0.583161 -0.134999l0.303328 -0.662486l0.358764 -0.626202l0.295016 -0.335961l-0.216496 -0.24836l0.538831 -0.143162l0.0723915 -0.377752l-1.15388 -0.0990274l-0.989108 -0.00518028l-0.647673 -0.446932l0.166247 0.749566l-0.71979 0.248689l0.721538 0.742638l0.725731 0.471538l-0.522347 0.378861l-0.174486 0.90694l0.472162 0.425221l0.345293 -0.458255"/>
<path fill="rgb(255,225,170)" d="M-25.6523 6.81859l0.241517 -0.433591l-0.265773 -0.368136l-0.720515 -0.0372346l-0.564962 0.25155l0.187394 0.511092l0.432433 0.209779l0.178722 0.00787967l0.511184 -0.141338"/>
<path fill="rgb(255,225,170)" d="M-24.5696 -2.69402l0.246778 -0.101901l0.250315 -0.226961l0.405026 -0.395352l-0.483114 -0.37116l-0.314994 -0.4354l-0.641538 0.503059l0.0832678 0.375106l-0.443311 0.54874l0.401541 0.319121l0.496029 -0.215252"/>
<path fill="rgb(255,225,170)" d="M-47.6761 27.0303l0.838749 -0.55058l-1.82201 -0.0826105l-0.920515 -1.3235l0.0694818 -1.42879l0.808896 -0.726121l1.21566 -0.892117l1.19415 0.380569l0.263662 -0.9989l-0.667556 -1.15524l-1.76624 -1.30984l-2.20748 -0.756229l-0.478323 -0.679693l1.554 0.588819l2.15143 0.581266l0.981302 0.818353l1.1782 0.28877l0.450037 0.77628l0.545168 1.17142l0.59187 1.7723l0.902182 1.16938l1.49656 0.361256l1.13692 0.91878l0.719139 0.241397l0.749315 0.214784l1.20003 -0.889081l0.235976 -0.541142l-0.189211 -0.604314l0.770219 -0.860945l0.0937439 -0.634313l-0.330338 -1.19834l0.314313 -0.949934l0.176368 -1.20241l0.854314 -0.135516l1.00823 -1.40623l1.07103 -1.5137l0.810362 -0.946696l-0.71642 -0.129723l-1.54671 0.0111609l-1.03911 -0.616101l0.520447 -0.735628l-0.0318979 -0.63799l1.4398 -0.769693l1.00987 -0.355528l-0.275547 -1.06485l0.409125 -0.331525l0.475716 -0.925708l0.253789 -0.647763l-0.451964 -0.378257l-0.0358351 -0.617298l0.100984 -1.05589l-0.371393 -0.336117l-1.89587 0.61167l-1.06843 0.518052l-1.4751 -0.473706l-0.775876 1.0036l-0.963681 0.70559l-0.830258 0.257661l-0.975137 -0.184152l-1.07458 -0.624077l-0.833173 -1.06808l-0.581793 0.657245l-1.97053 0.808296l-1.43062 -0.170751l-0.545247 -0.553509l1.0515 -1.42206l1.38736 -0.789527l1.28197 -0.418689l1.14331 -0.0284563l0.0237908 -0.822229l-0.0494553 -1.23242l0.487903 -0.824494l0.305581 -0.936514l0.593872 -0.542283l0.475298 -0.726089l0.560594 -1.30985l-0.228545 -0.989167l0.994831 -0.281679l1.22055 -0.241466l0.281017 -0.959037l1.47951 0.156508l0.98323 0.320383l1.38385 0.748531l0.991434 0.760579l0.142168 0.672134l0.81804 0.0479168l0.528465 0.440586l0.0943454 0.784705l0.870478 0.595853l0.554023 0.127162l1.08005 0.431894l0.633872 0.104302l-0.330549 0.544112l0.263201 0.671129l0.988575 0.836035l0.60539 -0.0309567l0.607442 -0.42195l0.701223 0.238494l0.601127 -0.119541l0.523671 -0.661093l0.106987 -0.646717l0.0393491 -0.608305l-1.34985 0.0812198l-1.08731 -0.256241l-0.921533 -0.443495l0.818225 -0.489355l0.92074 0.107137l0.78079 -0.548941l-0.967913 -0.592457l1.26101 0.0140336l0.26956 -0.791231l0.590751 0.39457l1.40276 -0.49574l0.562254 -0.359487l0.235349 -0.485441l-0.837015 -0.545042l-1.34352 -0.184264l-0.544999 0.439971l-0.795473 0.399991l-1.2217 -0.299957l0.065951 -0.367073l-0.952005 -0.397577l1.16439 0.127697l0.500575 -0.649132l-0.156848 -0.42909l-0.769068 -0.0610949l0.138206 -0.669143l-0.0582452 -0.752452l0.721284 -0.685432l0.0271212 -0.524871l0.766628 -0.272189l0.382074 -0.268691l-0.0164134 -0.378182l0.11052 -0.538083l-0.308113 -0.411557l-0.645956 0.282245l-0.433655 -0.683901l0.867004 -0.226054l-0.0649156 -0.447333l0.34209 -1.22729l0.591131 -0.660552l0.288339 0.844159l0.821258 -0.291096l0.117564 -0.426813l0.463027 -0.449446l0.889026 -0.680425l0.779699 -0.300552l0.332853 -0.397637l-0.214083 -0.330219l0.125942 -0.553172l0.0982166 0.0586261v-15.8672l-1.12394 0.195513l-0.642756 0.615398l-1.16271 0.336795l-0.631834 0.208527l-1.9055 -0.103351l-0.832994 0.265858l-0.796631 0.7296l-0.51759 0.406984l-1.13868 -0.575902l-1.39349 -0.0427946l-0.982352 -0.609449l-0.747263 0.214276l-0.643443 -0.00940013l-0.524841 -0.427422l-1.33695 0.106313l-0.915395 -0.56717l-1.08669 0.457326l-0.573851 -0.595184l-1.22352 -0.35602l-1.36705 0.910185l-0.831623 0.167075l-2.05439 0.670467l-0.067898 0.098514l-1.10595 -0.345147l-1.0273 -0.477945l-0.182332 -0.389636l1.35539 0.2883l1.11835 -0.834985l-0.156775 -0.241965l-0.674715 -0.140121l-1.13798 -0.418015l-1.63695 -0.894794l-1.97149 -1.62335l-0.87396 -1.08479l-1.09054 -0.339221l-1.03778 -0.659909l-0.853026 -0.871809l-0.988169 0.0453285l-1.07527 -0.532383l-1.51741 0.0664102l-0.687845 0.16846l-0.266691 -0.219371l-2.28293 -0.260846l-1.90982 0.230766l-0.79258 -0.294458l-0.373944 0.150816l-0.712468 0.937604l-0.580742 0.192257l-0.409609 0.58569l-0.452456 -0.0872741l-0.443004 0.438407l-1.17015 0.328016l-0.802997 -0.166947l-1.49173 -0.156515l-1.40052 -0.00313725l-1.15344 -0.00172994l-1.1166 0.0273697l-0.748747 0.550824l-1.49277 0.508765l-0.643477 -0.347104l-0.332767 -0.73532l0.332245 -0.499514l-0.0669823 -0.147125l-1.21833 0.3785l-0.730718 0.659639l-0.541081 0.166561l0.116752 0.262559l-1.07417 0.643122l-0.745066 0.457075l-0.919747 -0.130356l-1.11564 -0.508556l-0.688954 0.566392l-1.16513 0.738444l-1.26608 0.612363l-1.12016 0.0309167l-0.103458 0.260846l0.370051 0.837178l0.275766 0.137667l0.906295 -0.278248l0.935519 -0.320199l0.311344 -0.676606l0.860813 0.234928l0.883442 -0.114538l0.84191 -0.153151l1.61226 0.104171l1.11842 -0.541073l0.652487 -0.0659517l0.550896 -0.245169l1.07486 0.141796l0.0781051 -0.241219l0.582884 0.0466535l0.190533 -0.15141l0.439295 -0.0616197l1.42649 -0.49759l0.792483 -0.158025l1.13394 0.376236l0.777715 0.114915l0.486882 0.460968l-0.707026 0.512635l-0.119101 0.434488l-0.956567 0.639837l-0.547974 -0.256586l-1.30508 -0.0280839l-1.39712 0.22738l-0.486889 -0.133205l-0.974413 0.320398l-1.09705 0.45892l-0.399039 0.674152l-1.19235 -0.0611748l-1.04601 0.53725l-0.613485 0.57944l-0.889926 -0.553003l-0.474513 0.125432l-1.06292 1.00503l-1.22533 0.377976l-1.72537 1.08571l-2.02179 0.845157l-0.982733 0.275858l-0.703093 -0.0462695l-0.899492 0.318159l-0.581782 -0.167067l-0.339236 -0.484532l-0.529662 0.0296459l-0.0179152 -0.578135l-0.938475 0.149585l-1.30733 0.516643l-1.44409 1.5139l-0.807427 0.414249v12.3972l0.600875 -0.157298l1.4409 -0.937474l1.39155 -0.15181l0.907809 -0.385981l0.973451 -0.147475l0.811754 0.265985l2.24484 0.420229l1.16537 0.425619l1.37137 0.763298l0.00272855 0.00511996l0.00290864 -0.00202467l0.595437 -0.209281l0.794838 0.0281535l1.1199 0.159691l0.685348 0.422003l0.675153 0.868181l0.54228 1.47495l1.07003 1.37724l0.284828 1.19254l0.0585444 0.865889l-0.419213 0.988232l0.155485 1.21668l-0.867568 1.02116l-0.0591926 1.01591l0.304172 0.524724l-0.232456 0.520451l0.213623 0.263977l0.312593 -0.299721l0.646926 0.0160472l0.445913 -0.26689l0.227781 0.579026l0.130784 1.04004l-0.131913 1.21911l0.280526 1.53267l-0.332638 0.883138l-0.687939 0.724895l-0.0584003 0.253823l0.850088 1.31856l-0.185358 0.560121l-1.20124 1.23179l-0.828288 0.502531l-1.10304 -0.154902l-0.604546 0.294837l-1.15343 0.836397l-1.29747 0.975737l-0.294297 0.619053l-0.687313 0.346493l-0.0827325 0.7682l0.282864 0.412038l1.06647 0.197659l0.645979 -0.0469165l1.10284 -0.145888l1.75028 -0.995038l0.688296 -0.122803l1.02363 -0.801151l1.27765 -0.667679l1.05144 -0.4031l1.13557 0.0384328l1.01205 0.475482l0.851099 0.609888l1.24145 1.22482l0.541801 0.0830642l0.678033 0.524612l0.224804 0.601555l1.05113 0.620217l0.732303 1.15734l1.27928 0.491972l1.41424 -0.533811l0.470495 -0.246023l0.0181018 -0.356372l1.3589 -0.383692l0.274965 -0.851112l-0.0456736 0.762116l0.849365 -0.458004l0.666926 0.0650567l-1.15207 0.419036l-0.403122 0.711234l-1.06563 -0.105991l-0.0312929 0.118741l1.30909 0.346648l0.648265 0.212842l0.527273 -0.172419l0.184315 -0.327717l0.701854 -0.425758l-0.259408 0.450141l-0.00946247 0.259691l-0.340982 0.179221l1.3018 0.492339l1.06792 -0.0554279l-0.024924 -0.329658l0.476415 0.211396l-0.179005 0.0175914l0.199189 0.669222l0.86902 1.33025l0.160521 -0.389929l-0.726337 -1.4458l0.659086 0.746286l0.255715 0.578186l0.212873 0.424561l0.490085 0.675575l0.14273 0.49671l0.462666 0.603425l0.413522 -0.0600745l0.189525 -0.407554l-0.452606 0.282158l-0.115613 -0.428829l0.598136 -0.580628l0.71557 -0.23768l0.263379 0.0453443l1.06892 0.245675l0.765141 0.860417l0.830509 0.786892l1.03495 0.725084l0.355142 -0.335824l0.589959 0.93482l0.69945 1.40631l-1.76909 -1.07926l-1.07314 0.516906l0.224457 0.750386l1.40015 0.594126l0.94801 0.639156l1.75767 1.54727l1.38668 0.597229l0.126192 -0.788156z
M-57.1972 -23.3232L-57.4804 -23.3857L-57.8547 -23.577L-57.2732 -23.933L-57.2129 -23.9391L-56.5313 -23.8544L-56.9013 -23.6736L-57.111 -23.5457L-57.067 -23.3107L-57.1972 -23.3232z
M-25.2681 -13.217L-25.4504 -13.3954L-25.8059 -13.7061L-25.8707 -13.8178L-25.5063 -14.5604L-25.5869 -14.6216L-25.7452 -14.6638L-25.9086 -14.7793L-25.9925 -15.8379L-25.8752 -15.7547L-25.5714 -15.3316L-25.468 -15.3374L-25.4931 -16.2813L-25.1453 -16.4751L-25.0152 -16.3568L-24.7558 -15.6657L-24.6337 -15.6066L-23.7506 -16.6017L-23.6627 -16.5058L-24.228 -13.7004L-24.3608 -13.7028L-24.6028 -14.3059L-25.1162 -13.1335L-25.2681 -13.217z
M-31.3565 -10.8683L-31.3754 -11.4823L-31.3294 -12.1997L-31.9549 -13.3215L-32.2737 -14.1269L-32.0739 -15.1894L-31.7956 -15.8112L-30.8285 -16.434L-30.6907 -16.5581L-30.5015 -16.4818L-30.521 -16.3512L-31.1661 -15.7451L-31.0505 -14.9295L-30.9029 -14.4103L-30.0487 -14.5304L-29.7155 -14.5309L-29.8024 -14.4345L-30.5142 -13.8757L-31.2204 -13.4802L-31.1102 -12.4299L-30.7065 -11.8117L-30.687 -11.2906L-31.0817 -10.9456L-31.2169 -10.8038L-31.3565 -10.8683z
M-35.9583 -10.6834L-35.6348 -12.7264L-35.878 -13.8343L-35.7002 -13.8468L-35.6207 -13.7878L-35.1355 -12.1645L-35.9256 -10.6725L-35.9583 -10.6834z
M-39.1461 -8.29998L-39.3009 -8.30638L-40.226 -9.43802L-40.1314 -9.47371L-39.781 -9.29302L-39.784 -9.24216L-39.9787 -9.2404L-39.5752 -8.82928L-39.0975 -8.89222L-38.8738 -8.84168L-38.2759 -8.22574L-38.3156 -8.07098L-38.5489 -7.87359L-39.1461 -8.29998z
M-44.9329 -7.44163L-44.921 -7.55627L-44.8574 -7.75224L-44.586 -8.20837L-44.239 -8.28458L-44.0002 -8.02387L-43.7769 -8.05568L-43.7312 -8.02971L-43.549 -7.93484L-43.3848 -7.83419L-43.436 -7.65542L-43.5791 -7.72165L-43.7809 -7.86447L-43.8256 -7.62616L-43.9595 -7.6806L-44.4314 -7.87965L-44.6765 -7.60903L-44.7486 -7.40262L-44.9329 -7.44163z
M-48.7816 -5.75261L-48.3542 -5.86958L-47.3321 -6.00939L-46.3168 -6.67515L-44.8361 -7.29143L-43.9402 -6.92438L-43.5227 -6.08419L-43.9011 -6.01761L-44.7475 -6.00541L-47.549 -5.32725L-48.505 -5.30179L-48.7816 -5.75261z
M-54.3467 5.13258L-54.3176 4.83816L-53.9497 4.60616L-54.141 3.68848L-54.4988 2.86569L-54.0043 2.17444L-53.8475 1.63463L-53.1128 1.9105L-53.5908 1.10141L-54.0472 0.353753L-54.398 -0.376961L-53.917 -0.950534L-54.1793 -1.90327L-53.9771 -1.89319L-53.4156 -1.24015L-52.8778 -0.572208L-52.4277 0.366018L-51.8837 0.72986L-51.6598 1.2387L-51.3228 1.42978L-51.1395 1.62593L-51.3803 2.46884L-51.3796 3.0885L-51.5481 3.31447L-52.3 3.66953L-52.4229 4.71162L-52.8254 4.58389L-53.1938 4.98613L-53.729 4.87528L-53.8641 5.2856L-54.3467 5.13258z
M-56.4414 9.86582L-56.3851 9.03376L-55.608 8.4076L-56.4593 8.66402L-57.3011 8.30556L-57.9551 8.45455L-58.3576 8.42742L-58.9135 7.82934L-58.3449 7.70197L-57.5575 7.41414L-57.4645 7.02523L-58.1532 6.47154L-58.1636 6.26857L-57.8165 6.17881L-57.1958 6.66837L-56.5508 6.68443L-55.9298 6.53066L-55.4692 5.75175L-55.2716 4.90368L-55.8099 4.81404L-55.9693 4.61091L-56.6703 4.49279L-56.2104 4.36464L-56.573 3.99582L-57.0587 3.78047L-57.7626 3.56299L-58.362 3.54912L-59.2132 3.94495L-60.1503 3.97826L-60.8711 3.59305L-61.0809 3.38882L-61.2535 3.10892L-61.2787 2.74598L-61.186 2.64343L-60.4473 2.3267L-60.0777 2.30433L-59.7259 2.31873L-59.037 2.16257L-58.2309 2.32637L-57.2428 2.51293L-56.1434 2.97431L-56.156 2.82699L-57.0873 2.14037L-56.9267 1.99955L-56.4085 2.36774L-55.482 2.90768L-55.3188 3.55792L-54.9886 4.28908L-55.0703 5.0568L-55.0735 5.08964L-54.8643 5.9222L-54.3645 5.39112L-54.1444 5.54876L-54.4296 5.76634L-54.52 6.49869L-54.4434 7.22369L-54.4757 8.0138L-54.6091 8.90657L-54.9872 9.28996L-55.9294 10.1006L-56.4414 9.86582z
M-59.4791 10.7425L-60.0226 10.0266L-60.3006 9.51703L-60.7876 8.95084L-61.0849 8.20749L-61.0811 7.66641L-60.8656 6.97475L-60.2748 7.27269L-60.2915 7.86129L-59.7349 8.57687L-59.2742 8.97257L-59.1628 9.26998L-59.2124 9.86078L-58.948 10.0982L-58.6832 10.5679L-58.3446 11.4256L-58.4775 11.4722L-59.4791 10.7425z
M-57.5056 13.3502L-57.5761 12.5019L-57.6907 11.7006L-57.9695 11.209L-58.1004 10.9134L-58.0429 10.4849L-57.5124 10.6996L-57.2908 10.9742L-56.9502 11.6379L-56.5852 12.4355L-56.7468 12.9327L-56.3826 13.1386L-56.1195 13.4052L-56.1696 13.6376L-56.3549 13.8011L-56.8731 13.9904L-57.5056 13.3502z
M-82.9598 13.2398L-82.5588 13.1947L-82.5616 13.5293L-82.9626 13.5761L-82.9598 13.2398"/>
<path fill="rgb(255,225,170)" d="M-92.8209 4.78026l-0.192886 -0.976777l0.0130313 -1.43945l-0.433181 -1.71388l-0.460059 -1.10676l-0.512278 -0.28731l-1.4284 -0.143227v5.00271l0.726297 0.231053l1.09243 0.834157l0.846184 0.0086238l0.348862 -0.409142"/>
<path fill="rgb(255,225,170)" d="M-22.8959 -5.19567l0.750235 -0.517055l0.866398 0.100499l0.864539 0.0595204v-0.982899l-0.124495 -0.0137594l-0.423342 -0.338049l0.547836 0.040912v-4.10227l-0.286995 -0.0144429l-0.287042 0.504624l-0.286427 0.830115l-0.577905 0.614095l0.0153501 -0.581453l0.292653 -0.510898l0.0925985 -0.670895l0.0102393 -0.308509l-1.10863 0.0346984l-0.043929 0.409492l-0.554359 0.405409l-0.630574 -0.0111345l-0.155293 0.593417l-0.262715 1.3223l0.139859 0.920418l-0.0733905 0.510229l-0.51895 0.645523l-0.374658 0.739854l0.410375 0.242047l0.522152 -0.169338l-0.0488812 0.71158l0.522205 0.148783l0.723142 -0.612818"/>
<path fill="rgb(255,225,170)" d="M-29.1981 13.821l0.974856 -0.85175l0.211003 -0.340073l0.238949 -0.891322l0.463078 -0.782031l0.686281 -0.207131l0.392752 0.536766l-0.768581 1.21948l-0.204981 0.811711l1.70262 0.15009l0.843226 -0.273502l-0.279154 -0.718721l0.726536 -1.11355l-0.0563179 -0.783715l0.338153 -1.29796l0.838404 0.537148l0.908267 -0.815562l0.327189 -0.517401l0.120727 -1.08421l0.611908 -0.634478l-0.474256 -0.612202l0.499945 -0.193933l0.426974 -0.65357l0.255826 -0.577859v-0.426297l-0.387233 -0.170913l-0.480101 -0.66357l0.797545 -0.0752499l0.069789 -0.04727v-1.67027l-0.514101 -0.127285l0.514101 -0.231871v-1.15456l-0.936106 -0.236346l-1.23846 0.120549l0.00268802 0.560087l-0.566317 -0.407555l-0.425669 0.345973l-0.160069 0.67656l-0.297928 0.907142l-0.0882125 1.56295l0.284352 0.732557l0.398335 0.153029l-0.344368 0.408003l0.0111203 0.38067l-0.640456 0.62064l-0.369218 -0.202406l-0.185314 0.98228l-0.384696 0.837243l-0.353515 0.294913l-0.485112 0.286729l-1.34104 -0.258807h-0.645964l-0.381441 0.287273l-0.43141 -0.992672l-0.242831 -0.949893l-0.972991 -0.153736l-0.327043 0.536991l0.567581 1.47951l0.348461 -0.103388l-0.369134 0.924051l-0.370324 0.978544l-0.398002 -0.0768561l-0.365173 0.847957l-0.261357 1.42219l0.146574 1.67547l0.365717 -0.266225l0.463212 -0.856839l0.708124 -1.14668l-0.389802 1.69427l-0.0115076 0.803528l0.903901 -0.207008"/>
<path fill="rgb(255,225,170)" d="M-20.4147 -2.71149v-1.05753l-0.0177575 0.00481947l0.0177575 -0.0417225v-0.717917l-0.102445 -0.0247019l-1.1064 0.729961l-0.505663 0.185718l-0.159149 0.357638l0.386009 0.69454l1.08443 0.19406l0.403216 -0.324866"/>
<path fill="rgb(255,225,170)" d="M-20.4147 -2.14965l-1.05178 0.116745l-0.0816537 0.4244l0.884663 0.454579l0.217162 0.43851l0.0316047 0.0160026v-1.45024"/>
<path fill="rgb(255,225,170)" d="M-23.9717 25.8272l0.911263 -0.587509l0.49488 -0.887603l1.36631 -0.126707l0.75259 -0.439479l0.0320041 -0.0366064v-7.88365l-0.435212 -0.142947l-1.43838 0.48904l-0.160504 0.520077l-0.843132 0.401794l-0.489879 1.26257l-0.84415 0.746896l-0.471272 0.725024l-0.587137 1.75983l-0.683396 1.10554l-0.131493 0.907251l0.836157 0.914628l-0.092434 1.39192l0.69934 0.568908l1.08445 -0.688985"/>
<path fill="rgb(114,163,255)" d="M-95.0272 -23.5476l1.44409 -1.5139l1.30733 -0.516643l0.938475 -0.149585l0.0179152 0.578135l0.529662 -0.0296459l0.339236 0.484532l0.581782 0.167067l0.899492 -0.318159l0.703093 0.0462695l0.982733 -0.275858l2.02179 -0.845157l1.72537 -1.08571l1.22533 -0.377976l1.06292 -1.00503l0.474513 -0.125432l0.889926 0.553003l0.613485 -0.57944l1.04601 -0.53725l1.19235 0.0611748l0.399039 -0.674152l1.09705 -0.45892l0.974413 -0.320398l0.486889 0.133205l1.39712 -0.22738l1.30508 0.0280839l0.547974 0.256586l0.956567 -0.639837l0.119101 -0.434488l0.707026 -0.512635l-0.486882 -0.460968l-0.777715 -0.114915l-1.13394 -0.376236l-0.792483 0.158025l-1.42649 0.49759l-0.439295 0.0616197l-0.190533 0.15141l-0.582884 -0.0466535l-0.0781051 0.241219l-1.07486 -0.141796l-0.550896 0.245169l-0.652487 0.0659517l-1.11842 0.541073l-1.61226 -0.104171l-0.84191 0.153151l-0.883442 0.114538l-0.860813 -0.234928l-0.311344 0.676606l-0.935519 0.320199l-0.906295 0.278248l-0.275766 -0.137667l-0.370051 -0.837178l0.103458 -0.260846l1.12016 -0.0309167l1.26608 -0.612363l1.16513 -0.738444l0.688954 -0.566392l1.11564 0.508556l0.919747 0.130356l0.745066 -0.457075l1.07417 -0.643122l-0.116752 -0.262559l0.541081 -0.166561l0.730718 -0.659639l1.21833 -0.3785l0.0669823 0.147125l-0.332245 0.499514l0.332767 0.73532l0.643477 0.347104l1.49277 -0.508765l0.748747 -0.550824l1.1166 -0.0273697l1.15344 0.00172994l1.40052 0.00313725l1.49173 0.156515l0.802997 0.166947l1.17015 -0.328016l0.443004 -0.438407l0.452456 0.0872741l0.409609 -0.58569l0.580742 -0.192257l0.712468 -0.937604l0.373944 -0.150816l0.79258 0.294458l1.90982 -0.230766l2.28293 0.260846l0.266691 0.219371l0.687845 -0.16846l1.51741 -0.0664102l1.07527 0.532383l0.988169 -0.0453285l0.853026 0.871809l1.03778 0.659909l1.09054 0.339221l0.87396 1.08479l1.97149 1.62335l1.63695 0.894794l1.13798 0.418015l0.674715 0.140121l0.156775 0.241965l-1.11835 0.834985l-1.35539 -0.2883l0.182332 0.389636l1.0273 0.477945l1.10595 0.345147l0.067898 -0.098514l2.05439 -0.670467l0.831623 -0.167075l1.36705 -0.910185l1.22352 0.35602l0.573851 0.595184l1.08669 -0.457326l0.915395 0.56717l1.33695 -0.106313l0.524841 0.427422l0.643443 0.00940013l0.747263 -0.214276l0.982352 0.609449l1.39349 0.0427946l1.13868 0.575902l0.51759 -0.406984l0.796631 -0.7296l0.832994 -0.265858l1.9055 0.103351l0.631834 -0.208527l1.16271 -0.336795l0.642756 -0.615398l1.12394 -0.195513v-84.4152h-75.4199v91.0779l0.807427 -0.414249z
M-39.7596 -86.851L-40.0932 -86.8672L-40.4394 -86.9693L-41.0919 -87.3541L-41.0974 -87.461L-40.6603 -88.0865L-40.2839 -88.5675L-40.1819 -88.9441L-39.6908 -88.8823L-39.5304 -88.4047L-39.0111 -87.9237L-39.0069 -87.7086L-39.1538 -87.3253L-38.9062 -87.0536L-38.9267 -86.8634L-39.0554 -86.8416L-39.7596 -86.851z
M-38.3657 -86.1532L-38.3257 -86.4025L-37.8701 -86.7409L-37.4617 -86.5138L-37.2315 -86.4574L-37.1747 -86.3624L-37.2625 -86.1605L-37.8636 -86.0804L-38.3657 -86.1532z
M-34.8337 -85.9641L-35.4859 -86.321L-35.4425 -86.448L-35.326 -86.4714L-34.7771 -86.6273L-34.4381 -86.3365L-34.3538 -86.2951L-34.6664 -85.9111L-34.8337 -85.9641z
M-32.5158 -86.2559L-32.3975 -86.484L-31.7793 -86.376L-31.8136 -86.2288L-31.984 -85.9849L-32.3426 -85.8899L-32.5158 -86.2559z
M-36.9577 -86.1844L-36.1304 -86.4793L-36.1609 -86.2351L-36.9296 -85.9902L-36.9577 -86.1844z
M-33.9591 -30.6301L-35.2249 -30.8143L-35.0077 -31.057L-34.2282 -31.015L-33.5776 -30.8221L-33.0036 -30.8352L-32.4808 -30.5439L-32.2061 -30.2224L-32.5787 -30.0733L-32.9994 -29.4531L-33.9591 -30.6301z
M-43.1455 -28.5682L-43.0504 -29.0519L-41.6974 -29.913L-41.1497 -29.8477L-40.2988 -30.2022L-39.8959 -30.0965L-39.1573 -30.6584L-38.3758 -30.465L-38.1775 -30.214L-38.9579 -29.6872L-39.4373 -29.3903L-40.0299 -28.8227L-40.5796 -28.8544L-41.3535 -28.8709L-42.3148 -28.4585L-43.1455 -28.5682"/>
<path fill="rgb(114,163,255)" d="M-20.4147 23.7493l-0.0320041 0.0366064l-0.75259 0.439479l-1.36631 0.126707l-0.49488 0.887603l-0.911263 0.587509l-1.08445 0.688985l-0.69934 -0.568908l0.092434 -1.39192l-0.836157 -0.914628l0.131493 -0.907251l0.683396 -1.10554l0.587137 -1.75983l0.471272 -0.725024l0.84415 -0.746896l0.489879 -1.26257l0.843132 -0.401794l0.160504 -0.520077l1.43838 -0.48904l0.435212 0.142947v-11.1385l-0.255826 0.577859l-0.426974 0.65357l-0.499945 0.193933l0.474256 0.612202l-0.611908 0.634478l-0.120727 1.08421l-0.327189 0.517401l-0.908267 0.815562l-0.838404 -0.537148l-0.338153 1.29796l0.0563179 0.783715l-0.726536 1.11355l0.279154 0.718721l-0.843226 0.273502l-1.70262 -0.15009l0.204981 -0.811711l0.768581 -1.21948l-0.392752 -0.536766l-0.686281 0.207131l-0.463078 0.782031l-0.238949 0.891322l-0.211003 0.340073l-0.974856 0.85175l-0.903901 0.207008l0.0115076 -0.803528l0.389802 -1.69427l-0.708124 1.14668l-0.463212 0.856839l-0.365717 0.266225l-0.146574 -1.67547l0.261357 -1.42219l0.365173 -0.847957l0.398002 0.0768561l0.370324 -0.978544l0.369134 -0.924051l-0.348461 0.103388l-0.567581 -1.47951l0.327043 -0.536991l0.972991 0.153736l0.242831 0.949893l0.43141 0.992672l0.381441 -0.287273h0.645964l1.34104 0.258807l0.485112 -0.286729l0.353515 -0.294913l0.384696 -0.837243l0.185314 -0.98228l0.369218 0.202406l0.640456 -0.62064l-0.0111203 -0.38067l0.344368 -0.408003l-0.398335 -0.153029l-0.284352 -0.732557l0.0882125 -1.56295l0.297928 -0.907142l0.160069 -0.67656l0.425669 -0.345973l0.566317 0.407555l-0.00268802 -0.560087l1.23846 -0.120549l0.936106 0.236346v-0.859309l-0.0316047 -0.0160026l-0.217162 -0.43851l-0.884663 -0.454579l0.0816537 -0.4244l1.05178 -0.116745v-0.561841l-0.403216 0.324866l-1.08443 -0.19406l-0.386009 -0.69454l0.159149 -0.357638l0.505663 -0.185718l1.1064 -0.729961l0.102445 0.0247019v-1.02886l-0.864539 -0.0595204l-0.866398 -0.100499l-0.750235 0.517055l-0.723142 0.612818l-0.522205 -0.148783l0.0488812 -0.71158l-0.522152 0.169338l-0.410375 -0.242047l0.374658 -0.739854l0.51895 -0.645523l0.0733905 -0.510229l-0.139859 -0.920418l0.262715 -1.3223l0.155293 -0.593417l0.630574 0.0111345l0.554359 -0.405409l0.043929 -0.409492l1.10863 -0.0346984l-0.0102393 0.308509l-0.0925985 0.670895l-0.292653 0.510898l-0.0153501 0.581453l0.577905 -0.614095l0.286427 -0.830115l0.287042 -0.504624l0.286995 0.0144429v-2.98013l-0.0982166 -0.0586261l-0.125942 0.553172l0.214083 0.330219l-0.332853 0.397637l-0.779699 0.300552l-0.889026 0.680425l-0.463027 0.449446l-0.117564 0.426813l-0.821258 0.291096l-0.288339 -0.844159l-0.591131 0.660552l-0.34209 1.22729l0.0649156 0.447333l-0.867004 0.226054l0.433655 0.683901l0.645956 -0.282245l0.308113 0.411557l-0.11052 0.538083l0.0164134 0.378182l-0.382074 0.268691l-0.766628 0.272189l-0.0271212 0.524871l-0.721284 0.685432l0.0582452 0.752452l-0.138206 0.669143l0.769068 0.0610949l0.156848 0.42909l-0.500575 0.649132l-1.16439 -0.127697l0.952005 0.397577l-0.065951 0.367073l1.2217 0.299957l0.795473 -0.399991l0.544999 -0.439971l1.34352 0.184264l0.837015 0.545042l-0.235349 0.485441l-0.562254 0.359487l-1.40276 0.49574l-0.590751 -0.39457l-0.26956 0.791231l-1.26101 -0.0140336l0.967913 0.592457l-0.78079 0.548941l-0.92074 -0.107137l-0.818225 0.489355l0.921533 0.443495l1.08731 0.256241l1.34985 -0.0812198l-0.0393491 0.608305l-0.106987 0.646717l-0.523671 0.661093l-0.601127 0.119541l-0.701223 -0.238494l-0.607442 0.42195l-0.60539 0.0309567l-0.988575 -0.836035l-0.263201 -0.671129l0.330549 -0.544112l-0.633872 -0.104302l-1.08005 -0.431894l-0.554023 -0.127162l-0.870478 -0.595853l-0.0943454 -0.784705l-0.528465 -0.440586l-0.81804 -0.0479168l-0.142168 -0.672134l-0.991434 -0.760579l-1.38385 -0.748531l-0.98323 -0.320383l-1.47951 -0.156508l-0.281017 0.959037l-1.22055 0.241466l-0.994831 0.281679l0.228545 0.989167l-0.560594 1.30985l-0.475298 0.726089l-0.593872 0.542283l-0.305581 0.936514l-0.487903 0.824494l0.0494553 1.23242l-0.0237908 0.822229l-1.14331 0.0284563l-1.28197 0.418689l-1.38736 0.789527l-1.0515 1.42206l0.545247 0.553509l1.43062 0.170751l1.97053 -0.808296l0.581793 -0.657245l0.833173 1.06808l1.07458 0.624077l0.975137 0.184152l0.830258 -0.257661l0.963681 -0.70559l0.775876 -1.0036l1.4751 0.473706l1.06843 -0.518052l1.89587 -0.61167l0.371393 0.336117l-0.100984 1.05589l0.0358351 0.617298l0.451964 0.378257l-0.253789 0.647763l-0.475716 0.925708l-0.409125 0.331525l0.275547 1.06485l-1.00987 0.355528l-1.4398 0.769693l0.0318979 0.63799l-0.520447 0.735628l1.03911 0.616101l1.54671 -0.0111609l0.71642 0.129723l-0.810362 0.946696l-1.07103 1.5137l-1.00823 1.40623l-0.854314 0.135516l-0.176368 1.20241l-0.314313 0.949934l0.330338 1.19834l-0.0937439 0.634313l-0.770219 0.860945l0.189211 0.604314l-0.235976 0.541142l-1.20003 0.889081l-0.749315 -0.214784l-0.719139 -0.241397l-1.13692 -0.91878l-1.49656 -0.361256l-0.902182 -1.16938l-0.59187 -1.7723l-0.545168 -1.17142l-0.450037 -0.77628l-1.1782 -0.28877l-0.981302 -0.818353l-2.15143 -0.581266l-1.554 -0.588819l0.478323 0.679693l2.20748 0.756229l1.76624 1.30984l0.667556 1.15524l-0.263662 0.9989l-1.19415 -0.380569l-1.21566 0.892117l-0.808896 0.726121l-0.0694818 1.42879l0.920515 1.3235l1.82201 0.0826105l-0.838749 0.55058l-0.126192 0.788156l-1.38668 -0.597229l-1.75767 -1.54727l-0.94801 -0.639156l-1.40015 -0.594126l-0.224457 -0.750386l1.07314 -0.516906l1.76909 1.07926l-0.69945 -1.40631l-0.589959 -0.93482l-0.355142 0.335824l-1.03495 -0.725084l-0.830509 -0.786892l-0.765141 -0.860417l-1.06892 -0.245675l-0.263379 -0.0453443l-0.71557 0.23768l-0.598136 0.580628l0.115613 0.428829l0.452606 -0.282158l-0.189525 0.407554l-0.413522 0.0600745l-0.462666 -0.603425l-0.14273 -0.49671l-0.490085 -0.675575l-0.212873 -0.424561l-0.255715 -0.578186l-0.659086 -0.746286l0.726337 1.4458l-0.160521 0.389929l-0.86902 -1.33025l-0.199189 -0.669222l0.179005 -0.0175914l-0.476415 -0.211396l0.024924 0.329658l-1.06792 0.0554279l-1.3018 -0.492339l0.340982 -0.179221l0.00946247 -0.259691l0.259408 -0.450141l-0.701854 0.425758l-0.184315 0.327717l-0.527273 0.172419l-0.648265 -0.212842l-1.30909 -0.346648l0.0312929 -0.118741l1.06563 0.105991l0.403122 -0.711234l1.15207 -0.419036l-0.666926 -0.0650567l-0.849365 0.458004l0.0456736 -0.762116l-0.274965 0.851112l-1.3589 0.383692l-0.0181018 0.356372l-0.470495 0.246023l-1.41424 0.533811l-1.27928 -0.491972l-0.732303 -1.15734l-1.05113 -0.620217l-0.224804 -0.601555l-0.678033 -0.524612l-0.541801 -0.0830642l-1.24145 -1.22482l-0.851099 -0.609888l-1.01205 -0.475482l-1.13557 -0.0384328l-1.05144 0.4031l-1.27765 0.667679l-1.02363 0.801151l-0.688296 0.122803l-1.75028 0.995038l-1.10284 0.145888l-0.645979 0.0469165l-1.06647 -0.197659l-0.282864 -0.412038l0.0827325 -0.7682l0.687313 -0.346493l0.294297 -0.619053l1.29747 -0.975737l1.15343 -0.836397l0.604546 -0.294837l1.10304 0.154902l0.828288 -0.502531l1.20124 -1.23179l0.185358 -0.560121l-0.850088 -1.31856l0.0584003 -0.253823l0.687939 -0.724895l0.332638 -0.883138l-0.280526 -1.53267l0.131913 -1.21911l-0.130784 -1.04004l-0.227781 -0.579026l-0.445913 0.26689l-0.646926 -0.0160472l-0.312593 0.299721l-0.213623 -0.263977l0.232456 -0.520451l-0.304172 -0.524724l0.0591926 -1.01591l0.867568 -1.02116l-0.155485 -1.21668l0.419213 -0.988232l-0.0585444 -0.865889l-0.284828 -1.19254l-1.07003 -1.37724l-0.54228 -1.47495l-0.675153 -0.868181l-0.685348 -0.422003l-1.1199 -0.159691l-0.794838 -0.0281535l-0.595437 0.209281l-0.00290864 0.00202467l-0.00272855 -0.00511996l-1.37137 -0.763298l-1.16537 -0.425619l-2.24484 -0.420229l-0.811754 -0.265985l-0.973451 0.147475l-0.907809 0.385981l-1.39155 0.15181l-1.4409 0.937474l-0.600875 0.157298v9.84904l1.4284 0.143227l0.512278 0.28731l0.460059 1.10676l0.433181 1.71388l-0.0130313 1.43945l0.192886 0.976777l-0.348862 0.409142l-0.846184 -0.0086238l-1.09243 -0.834157l-0.726297 -0.231053v72.0731h75.4199v-52.4394z
M-25.4671 -2.79788L-25.0238 -3.34662L-25.1071 -3.72173L-24.4655 -4.22479L-24.1505 -3.78939L-23.6674 -3.41823L-24.0725 -3.02288L-24.3228 -2.79592L-24.5696 -2.69402L-25.0656 -2.47876L-25.4671 -2.79788z
M-31.8827 5.05485L-31.7082 4.14791L-31.1859 3.76905L-31.9116 3.29751L-32.6332 2.55487L-31.9134 2.30618L-32.0796 1.55662L-31.4319 2.00355L-30.4428 2.00873L-29.2889 2.10776L-29.3613 2.48551L-29.9002 2.62867L-29.6837 2.87703L-29.9787 3.21299L-30.3374 3.83919L-30.6408 4.50168L-31.2239 4.63668L-31.0653 5.02181L-31.4106 5.48007L-31.8827 5.05485z
M-33.6136 4.08641L-33.6324 3.66872L-33.306 3.50432L-32.6793 3.86758L-32.5891 4.65147L-32.8329 4.67384L-33.6136 4.08641z
M-33.9667 6.19881L-33.9073 5.91804L-33.5613 5.69928L-33.4704 5.71195L-33.0575 5.87094L-33.0419 6.11201L-33.2693 6.30685L-33.9667 6.19881z
M-26.3422 6.95204L-26.7746 6.74227L-26.962 6.23117L-26.397 5.97962L-25.6765 6.01686L-25.4107 6.38499L-25.6523 6.81859L-26.1634 6.95992L-26.3422 6.95204z
M-92.0043 25.867L-92.5161 24.8561L-92.8873 23.7895L-93.0299 22.6376L-93.7359 20.3427L-92.5269 21.2168L-92.2279 20.4588L-92.337 19.3957L-91.9551 18.7372L-91.0551 18.1618L-91.2965 17.2754L-91.1055 15.708L-90.8274 15.1707L-90.8832 13.0626L-90.627 12.4627L-90.1171 12.9941L-90.239 11.4384L-91.2664 10.4074L-91.3633 9.74973L-91.8082 9.56495L-92.0765 8.78969L-91.9755 8.0874L-91.3641 8.88256L-90.7099 9.16542L-90.2544 9.83944L-89.8307 10.6043L-89.5201 11.769L-89.2832 12.1221L-89.2111 13.4848L-89.0368 14.71L-89.3588 16.2722L-89.8634 17.0099L-89.3832 18.4332L-89.6644 19.0697L-90.4206 20.632L-90.957 21.7969L-90.8069 22.3134L-90.916 23.3463L-91.4251 23.3532L-91.1872 24.5463L-91.5509 25.9442L-92.0043 25.867z
M-83.0925 16.287L-82.5142 16.069L-82.2508 16.7192L-82.1009 17.6759L-82.5098 17.8091L-83.0925 16.287z
M-87.1917 18.8834L-86.3191 18.2941L-85.9585 17.6315L-84.8484 17.7399L-84.82 18.1993L-86.0694 19.0181L-87.0274 19.2383L-87.1917 18.8834z
M-83.2863 18.6832L-82.4381 18.5178L-81.9451 17.7351L-81.7616 17.6924L-82.2304 18.9844L-83.4332 18.9976L-83.2863 18.6832z
M-45.1176 23.6941L-45.2611 22.4784L-45.0429 21.4659L-44.8101 21.6879L-44.6023 22.8651L-44.686 23.9247L-44.8933 24.0652L-45.1176 23.6941z
M-48.9212 25.4625L-49.1653 25.1869L-49.1817 23.836L-48.8681 23.4214L-48.3303 23.5568L-48.7861 24.1492L-48.6416 24.8491L-48.1999 25.6153L-48.9212 25.4625z
M-43.695 32.3073L-43.8516 31.6513L-42.8216 31.1553L-42.8312 30.8449L-44.4281 30.648L-44.7052 30.1569L-43.7987 30.3376L-44.0234 29.4146L-44.6361 28.6281L-45.5441 27.0786L-45.2672 26.7501L-44.5619 26.9913L-44.4471 26.4626L-43.3565 26.6817L-41.0567 26.2986L-40.1312 26.3225L-39.3463 26.6685L-39.1772 27.0195L-39.5675 27.0922L-40.5202 27.1935L-41.8182 27.3693L-41.1248 27.5899L-41.0369 28.234L-41.5991 28.247L-41.4608 29.1011L-40.9563 29.2422L-40.7762 30.1986L-41.7422 30.5664L-41.1795 30.934L-41.6883 31.4616L-42.1938 32.2035L-43.3975 32.6203L-43.695 32.3073z
M-92.1241 35.9375L-92.0504 35.0311L-92.3993 34.319L-92.5138 33.7584L-92.9307 33.5795L-93.2592 32.9934L-92.9311 32.5999L-93.3638 32.1478L-94.7692 31.893L-94.6355 31.3753L-94.1654 31.1271L-94.2254 29.9399L-94.5892 29.1999L-94.7688 28.1536L-95.3222 27.4729L-95.0294 26.429L-94.4267 26.4179L-94.2308 28.0027L-93.9926 29.2845L-93.423 29.7524L-92.9118 28.7758L-92.2541 28.5855L-92.2963 27.4884L-91.7166 27.7087L-91.4913 28.7073L-91.3119 30.1767L-90.9578 30.28L-90.5446 31.5191L-90.6455 32.6087L-90.4525 33.01L-90.9427 33.5158L-90.585 34.37L-91.1047 34.5086L-90.8945 35.2385L-91.2037 36.2613L-92.1241 35.9375z
M-90.6094 40.6318L-91.1255 39.4336L-91.5821 38.5273L-90.9039 38.1333L-90.5654 38.2551L-90.0196 39.5487L-89.8086 40.4157L-90.0091 40.847L-90.6094 40.6318"/>
<path fill="rgb(114,163,255)" d="M-20.4147 -6.8465l-0.547836 -0.040912l0.423342 0.338049l0.124495 0.0137594v-0.310896"/>
<path fill="rgb(114,163,255)" d="M-20.4147 -3.76902v-0.0369031l-0.0177575 0.0417225l0.0177575 -0.00481947"/>
<path fill="rgb(114,163,255)" d="M-20.4147 1.31446l-0.514101 0.231871l0.514101 0.127285v-0.359156"/>
<path fill="rgb(114,163,255)" d="M-20.4147 3.34388l-0.069789 0.04727l-0.797545 0.0752499l0.480101 0.66357l0.387233 0.170913v-0.957003"/>
<path fill="rgb(114,163,255)" d="M-47.549 -5.32725l2.80151 -0.678167l0.84644 -0.0121925l0.378337 -0.0665798l-0.417426 -0.840195l-0.895982 -0.367049l-1.48063 0.616275l-1.01533 0.665766l-1.02212 0.139811l-0.427364 0.116971l0.276579 0.450818l0.955986 -0.0254574"/>
<path fill="rgb(114,163,255)" d="M-31.0817 -10.9456l0.394708 -0.345023l-0.0194658 -0.521094l-0.403712 -0.618183l-0.110246 -1.05025l0.70622 -0.395491l0.711784 -0.558879l0.0868929 -0.0963443h-0.333123l-0.854269 0.120149l-0.14759 -0.519183l-0.115619 -0.815612l0.64512 -0.60617l0.0195244 -0.130532l-0.189241 -0.0763033l-0.137741 0.124084l-0.967125 0.622846l-0.278329 0.621786l-0.199712 1.06251l0.318748 0.805346l0.625492 1.1218l-0.0459674 0.717392l0.0188325 0.614016l0.139666 0.0645218l0.135153 -0.141833"/>
<path fill="rgb(114,163,255)" d="M-56.3549 13.8011l0.185262 -0.163531l0.0500632 -0.232385l-0.26303 -0.266629l-0.36422 -0.205917l0.161608 -0.497165l-0.364989 -0.797648l-0.340678 -0.663619l-0.221528 -0.274626l-0.530523 -0.214707l-0.0574857 0.428499l0.130865 0.295616l0.27886 0.491584l0.114569 0.80128l0.0704865 0.848346l0.632501 0.640195l0.518238 -0.189295"/>
<path fill="rgb(114,163,255)" d="M-58.3446 11.4256l-0.338687 -0.857661l-0.264725 -0.469715l-0.26439 -0.237428l0.0495082 -0.590804l-0.111365 -0.297408l-0.460683 -0.395699l-0.556636 -0.715586l0.016779 -0.588599l-0.590822 -0.297933l-0.215548 0.69166l-0.00374139 0.541077l0.297299 0.743346l0.486937 0.566188l0.278033 0.509598l0.543471 0.715869l1.00163 0.729722l0.132939 -0.0466263"/>
<path fill="rgb(114,163,255)" d="M-53.729 4.87528l0.535277 0.110858l0.368353 -0.402243l0.402532 0.127725l0.122916 -1.04209l0.751871 -0.35506l0.168525 -0.225967v-0.619659l0.24079 -0.842912l-0.183248 -0.196152l-0.337056 -0.191073l-0.223844 -0.508844l-0.544079 -0.363843l-0.450028 -0.938226l-0.537783 -0.667944l-0.561526 -0.653042l-0.202191 -0.0100761l0.262241 0.952737l-0.480991 0.573573l0.350863 0.730714l0.456341 0.747658l0.47805 0.809087l-0.734686 -0.275867l-0.15682 0.539804l-0.494538 0.691257l0.35777 0.822786l0.191327 0.917681l-0.367875 0.231996l-0.0290824 0.294421l0.482596 0.153026l0.135046 -0.410327"/>
<path fill="rgb(114,163,255)" d="M-82.5616 13.5293l0.00276842 -0.334643l-0.400964 0.0451682l-0.00277717 0.336243l0.400973 -0.0467679"/>
<path fill="rgb(114,163,255)" d="M-44.6765 -7.60903l0.245099 -0.270617l0.471902 0.199043l0.133974 0.0544434l0.0446638 -0.238309l0.201822 0.142815l0.143061 0.0662328l0.0512436 -0.178774l-0.164192 -0.100647l-0.182186 -0.0948678l-0.0457344 -0.0259695l-0.223339 0.0318089l-0.238759 -0.260708l-0.34698 0.0762109l-0.271416 0.456129l-0.0636233 0.195971l-0.0118478 0.114641l0.184212 0.0390091l0.0720999 -0.206411"/>
<path fill="rgb(114,163,255)" d="M-57.111 -23.5457l0.209721 -0.127877l0.36994 -0.180815l-0.681512 -0.0847346l-0.0603001 0.00608411l-0.58156 0.355998l0.374315 0.191343l0.283182 0.0624938l0.13026 0.0124966l-0.0440463 -0.234988"/>
<path fill="rgb(114,163,255)" d="M-24.6028 -14.3059l0.242014 0.603159l0.132837 0.00236771l0.565272 -2.80541l-0.0878675 -0.095882l-0.883129 0.995069l-0.122074 -0.0590412l-0.25946 -0.691141l-0.130082 -0.118327l-0.347794 0.193861l0.0251348 0.9439l-0.103411 0.00576357l-0.303851 -0.423115l-0.117235 -0.0831929l0.0838745 1.0586l0.163392 0.115464l0.158273 0.0422771l0.0806044 0.0611937l-0.3644 0.742582l0.0647989 0.111709l0.355473 0.310691l0.182312 0.178354l0.151929 0.0835661l0.513388 -1.17246"/>
<path fill="rgb(114,163,255)" d="M-35.1355 -12.1645l-0.485138 -1.62323l-0.0795314 -0.0590775l-0.177782 0.0125473l0.243136 1.10792l-0.323468 2.04297l0.0326912 0.0109293l0.790093 -1.49205"/>
<path fill="rgb(114,163,255)" d="M-38.3156 -8.07098l0.0396779 -0.154764l-0.597839 -0.615936l-0.223712 -0.0505487l-0.477667 0.0629469l-0.403541 -0.411119l0.194729 -0.00176107l0.00292366 -0.0508596l-0.350333 -0.180698l-0.0946704 0.0356996l0.925147 1.13163l0.154832 0.00640398l0.597151 0.426384l0.233301 -0.197382"/>
<path fill="rgb(114,163,255)" d="M-54.9872 9.28996l0.378108 -0.383387l0.133417 -0.892777l0.0322767 -0.790102l-0.0766249 -0.724999l0.0904574 -0.732358l0.285189 -0.217576l-0.220091 -0.157639l-0.499865 0.531083l-0.209184 -0.83257l0.00324021 -0.0328334l-0.201281 -0.15312l-0.197685 0.848072l-0.460585 0.778911l-0.620924 0.153762l-0.645064 -0.0160566l-0.620666 -0.48956l-0.347123 0.0897622l0.0104222 0.202966l0.688635 0.55369l-0.0929554 0.388916l-0.7874 0.287829l-0.56861 0.127371l0.555874 0.598077l0.402538 0.0271317l0.653994 -0.148997l0.84177 0.358465l0.851312 -0.256419l-0.777061 0.626155l-0.0562864 0.832064l0.512003 0.234824l0.942168 -0.810684"/>
<path fill="rgb(114,163,255)" d="M-54.9886 4.28908l-0.330242 -0.731156l-0.163155 -0.65024l-0.926489 -0.539945l-0.518264 -0.36819l-0.160571 0.140821l0.931319 0.686625l0.012552 0.147318l-1.09939 -0.461381l-0.988131 -0.186563l-0.80611 -0.163792l-0.68883 0.156157l-0.35179 -0.0143981l-0.369622 0.0223671l-0.738702 0.316732l-0.0926821 0.102545l0.0251613 0.362945l0.172623 0.279898l0.209759 0.204225l0.720826 0.38521l0.937117 -0.0333084l0.851159 -0.395831l0.599452 0.013878l0.703881 0.217481l0.485739 0.215343l0.362596 0.368819l-0.459965 0.128156l0.701026 0.118117l0.159386 0.203131l0.538357 0.0896419l0.201281 0.15312l0.0817036 -0.767725"/>
</g>
<g stroke-width="0.5px" stroke="rgb(209,179,139)" fill="none">
<path d="M-90.0091 40.847l-0.600239 -0.215147l-0.516105 -1.19821l-0.456593 -0.90629l0.678181 -0.394057l0.33846 0.121778l0.545865 1.29368l0.210943 0.866927l-0.200512 0.431322"/>
<path d="M-91.4913 28.7073l0.179412 1.46938l0.354139 0.103336l0.413192 1.23907l-0.100962 1.08966l0.193059 0.40124l-0.490187 0.50584l0.357609 0.8542l-0.519609 0.138556l0.210138 0.729919l-0.309206 1.0228l-0.920331 -0.323829l0.0736721 -0.90634l-0.34895 -0.712143l-0.114481 -0.560612l-0.416907 -0.178866l-0.328444 -0.586085l0.328085 -0.393499l-0.432726 -0.452088l-1.40537 -0.254861l0.133703 -0.517677l0.47003 -0.248186l-0.0599157 -1.18723l-0.363838 -0.739948l-0.179635 -1.04633l-0.55338 -0.680673l0.292825 -1.04396l0.602646 -0.011098l0.195897 1.58488l0.238253 1.28181l0.569572 0.467889l0.511215 -0.976585l0.657709 -0.190386l-0.0421666 -1.0971l0.579706 0.220331l0.225253 0.998593"/>
<path d="M-40.2839 -88.5675l0.102019 -0.376641l0.491156 0.0618145l0.160369 0.477636l0.519269 0.480992l0.00419094 0.215125l-0.146879 0.383303l0.247616 0.271629l-0.0205076 0.190226l-0.128678 0.0218314l-0.704189 -0.00944822l-0.333599 -0.0161776l-0.346259 -0.102062l-0.652463 -0.384793l-0.0054659 -0.106953l0.43704 -0.625498l0.376381 -0.480985"/>
<path d="M-38.3257 -86.4025l0.455624 -0.338397l0.408448 0.227066l0.230194 0.0563752l0.0568036 0.0950637l-0.0878593 0.201865l-0.601029 0.0800641l-0.502162 -0.0727989l0.0399817 -0.249238"/>
<path d="M-36.9296 -85.9902l-0.0280162 -0.194183l0.827307 -0.294897l-0.0305506 0.244143l-0.768741 0.244937"/>
<path d="M-35.4859 -86.321l0.0433527 -0.126997l0.116529 -0.023359l0.548866 -0.15595l0.339017 0.290876l0.0843014 0.0413568l-0.312596 0.383953l-0.167305 -0.0529939l-0.652165 -0.356886"/>
<path d="M-32.5158 -86.2559l0.11832 -0.228081l0.618164 0.107989l-0.0342872 0.14718l-0.170378 0.243966l-0.35862 0.0949834l-0.173198 -0.366038"/>
<path d="M-89.3588 16.2722l-0.504533 0.737691l0.48012 1.42329l-0.281192 0.63651l-0.756166 1.56226l-0.536434 1.16486l0.150111 0.516507l-0.109072 1.03291l-0.50914 0.00689295l0.237967 1.19316l-0.363731 1.3979l-0.453368 -0.0771814l-0.511854 -1.01094l-0.37119 -1.06661l-0.142614 -1.15192l-0.705942 -2.2949l1.20897 0.874137l0.299021 -0.757967l-0.109106 -1.06314l0.38191 -0.658519l0.899976 -0.575402l-0.241402 -0.886365l0.190989 -1.56737l0.278148 -0.537325l-0.0558486 -2.10815l0.256161 -0.599841l0.509911 0.531382l-0.121838 -1.5557l-1.02743 -1.03097l-0.0968959 -0.657708l-0.4449 -0.184776l-0.268329 -0.775264l0.101031 -0.702289l0.611443 0.795165l0.654134 0.282861l0.455569 0.67402l0.42362 0.764828l0.310594 1.16469l0.236931 0.353142l0.0721438 1.3627l0.174221 1.22518l-0.321983 1.56225"/>
<path d="M-87.0274 19.2383l-0.164245 -0.354923l0.872513 -0.589273l0.36064 -0.662603l1.11006 0.108385l0.0284206 0.459448l-1.24936 0.818769l-0.958033 0.220197"/>
<path d="M-82.5098 17.8091l-0.582726 -1.52206l0.578279 -0.218007l0.263389 0.650139l0.149873 0.956702l-0.408814 0.133225"/>
<path d="M-82.2304 18.9844l-1.20282 0.0132186l0.146915 -0.314367l0.848239 -0.165481l0.492946 -0.782657l0.18349 -0.0426699l-0.468771 1.29196"/>
<path d="M-48.7861 24.1492l0.144455 0.699886l0.441781 0.766187l-0.721326 -0.152772l-0.244081 -0.275575l-0.0164578 -1.35096l0.313634 -0.414561l0.537756 0.135348l-0.455762 0.592448"/>
<path d="M-44.8933 24.0652l-0.224382 -0.371052l-0.143429 -1.21578l0.218221 -1.01248l0.232722 0.222017l0.207874 1.17721l-0.0837611 1.0596l-0.207244 0.140484"/>
<path d="M-43.1455 -28.5682l0.0950727 -0.483758l1.35299 -0.861056l0.547663 0.0653274l0.850961 -0.354548l0.402903 0.105771l0.738535 -0.56197l0.781499 0.193458l0.198321 0.250929l-0.780388 0.526844l-0.479384 0.296896l-0.592609 0.567583l-0.549678 -0.031683l-0.773896 -0.016474l-0.961358 0.41235l-0.83063 -0.109668"/>
<path d="M-40.5202 27.1935l-1.29801 0.175848l0.693329 0.220522l0.0879153 0.644111l-0.562219 0.0130092l0.138394 0.854149l0.504407 0.14104l0.180161 0.956455l-0.966061 0.367731l0.562777 0.36765l-0.508821 0.527571l-0.505489 0.741912l-1.20372 0.416821l-0.297459 -0.313056l-0.156623 -0.655981l1.03 -0.49601l-0.00964508 -0.310388l-1.59686 -0.196872l-0.277094 -0.491114l0.906484 0.180703l-0.224649 -0.923016l-0.612788 -0.786431l-0.907925 -1.54951l0.276917 -0.328505l0.705208 0.241166l0.114822 -0.528738l1.09058 0.219106l2.29982 -0.383077l0.92554 0.023927l0.784919 0.345975l0.169039 0.351019l-0.39031 0.0727155l-0.952635 0.101264"/>
<path d="M-32.5787 -30.0733l2.75611e-07 -3.99019e-07l-4.2381e-07 4.59118e-07l1.482e-07 -6.00989e-08l-0.420668 0.620247l-0.959723 -1.177l-1.26578 -0.184244l0.217255 -0.242709l0.779408 0.0420539l0.650649 0.19284l0.57401 -0.0130675l0.522774 0.291351l0.274703 0.32145l-0.372628 0.149074"/>
<path d="M-33.2693 6.30685l-0.6974 -0.108043l0.0593979 -0.280774l0.345976 -0.218759l0.0908679 0.0126735l0.412949 0.158991l0.015577 0.241073l-0.227368 0.194838"/>
<path d="M-32.8329 4.67384l-0.78069 -0.587436l-0.0187573 -0.417685l0.326401 -0.1644l0.626652 0.363256l0.0902179 0.783895l-0.243824 0.0223708"/>
<path d="M-29.3613 2.48551l-0.538831 0.143162l0.216496 0.24836l-0.295016 0.335961l-0.358764 0.626202l-0.303328 0.662486l-0.583161 0.134999l0.158676 0.385135l-0.345293 0.458255l-0.472162 -0.425221l0.174486 -0.90694l0.522347 -0.378861l-0.725731 -0.471538l-0.721538 -0.742638l0.71979 -0.248689l-0.166247 -0.749566l0.647673 0.446932l0.989108 0.00518028l1.15388 0.0990274l-0.0723915 0.377752"/>
<path d="M-26.7746 6.74227l-0.187394 -0.511092l0.564962 -0.25155l0.720515 0.0372346l0.265773 0.368136l-0.241517 0.433591l-0.511184 0.141338l-0.178722 -0.00787967l-0.432433 -0.209779"/>
<path d="M-25.0656 -2.47876l-0.401541 -0.319121l0.443311 -0.54874l-0.0832678 -0.375106l0.641538 -0.503059l0.314994 0.4354l0.483114 0.37116l-0.405026 0.395352l-0.250315 0.226961l-0.246778 0.101901l-0.496029 0.215252"/>
<path d="M-24.7063 -0.235928l-1.26101 -0.0140336l0.967913 0.592457l-0.78079 0.548941l-0.92074 -0.107137l-0.818225 0.489355l0.921533 0.443495l1.08731 0.256241l1.34985 -0.0812198l-0.0393491 0.608305l-0.106987 0.646717l-0.523671 0.661093l-0.601127 0.119541l-0.701223 -0.238494l-0.607442 0.42195l-0.60539 0.0309567l-0.988575 -0.836035l-0.263201 -0.671129l0.330549 -0.544112l-0.633872 -0.104302l-1.08005 -0.431894l-0.554023 -0.127162l-0.870478 -0.595853l-0.0943454 -0.784705l-0.528465 -0.440586l-0.81804 -0.0479168l-0.142168 -0.672134l-0.991434 -0.760579l-1.38385 -0.748531l-0.98323 -0.320383l-1.47951 -0.156508l-0.281017 0.959037l-1.22055 0.241466l-0.994831 0.281679l0.228545 0.989167l-0.560594 1.30985l-0.475298 0.726089l-0.593872 0.542283l-0.305581 0.936514l-0.487903 0.824494l0.0494553 1.23242l-0.0237908 0.822229l-1.14331 0.0284563l-1.28197 0.418689l-1.38736 0.789527l-1.0515 1.42206l0.545247 0.553509l1.43062 0.170751l1.97053 -0.808296l0.581793 -0.657245l0.833173 1.06808l1.07458 0.624077l0.975137 0.184152l0.830258 -0.257661l0.963681 -0.70559l0.775876 -1.0036l1.4751 0.473706l1.06843 -0.518052l1.89587 -0.61167l0.371393 0.336117l-0.100984 1.05589l0.0358351 0.617298l0.451964 0.378257l-0.253789 0.647763l-0.475716 0.925708l-0.409125 0.331525l0.275547 1.06485l-1.00987 0.355528l-1.4398 0.769693l0.0318979 0.63799l-0.520447 0.735628l1.03911 0.616101l1.54671 -0.0111609l0.71642 0.129723l-0.810362 0.946696l-1.07103 1.5137l-1.00823 1.40623l-0.854314 0.135516l-0.176368 1.20241l-0.314313 0.949934l0.330338 1.19834l-0.0937439 0.634313l-0.770219 0.860945l0.189211 0.604314l-0.235976 0.541142l-1.20003 0.889081l-0.749315 -0.214784l-0.719139 -0.241397l-1.13692 -0.91878l-1.49656 -0.361256l-0.902182 -1.16938l-0.59187 -1.7723l-0.545168 -1.17142l-0.450037 -0.77628l-1.1782 -0.28877l-0.981302 -0.818353l-2.15143 -0.581266l-1.554 -0.588819l0.478323 0.679693l2.20748 0.756229l1.76624 1.30984l0.667556 1.15524l-0.263662 0.9989l-1.19415 -0.380569l-1.21566 0.892117l-0.808896 0.726121l-0.0694818 1.42879l0.920515 1.3235l1.82201 0.0826105l-0.838749 0.55058l-0.126192 0.788156l-1.38668 -0.597229l-1.75767 -1.54727l-0.94801 -0.639156l-1.40015 -0.594126l-0.224457 -0.750386l1.07314 -0.516906l1.76909 1.07926l-0.69945 -1.40631l-0.589959 -0.93482l-0.355142 0.335824l-1.03495 -0.725084l-0.830509 -0.786892l-0.765141 -0.860417l-1.06892 -0.245675l-0.263379 -0.0453443l-0.71557 0.23768l-0.598136 0.580628l0.115613 0.428829l0.452606 -0.282158l-0.189525 0.407554l-0.413522 0.0600745l-0.462666 -0.603425l-0.14273 -0.49671l-0.490085 -0.675575l-0.212873 -0.424561l-0.255715 -0.578186l-0.659086 -0.746286l0.726337 1.4458l-0.160521 0.389929l-0.86902 -1.33025l-0.199189 -0.669222l0.179005 -0.0175914l-0.476415 -0.211396l0.024924 0.329658l-1.06792 0.0554279l-1.3018 -0.492339l0.340982 -0.179221l0.00946247 -0.259691l0.259408 -0.450141l-0.701854 0.425758l-0.184315 0.327717l-0.527273 0.172419l-0.648265 -0.212842l-1.30909 -0.346648l0.0312929 -0.118741l1.06563 0.105991l0.403122 -0.711234l1.15207 -0.419036l-0.666926 -0.0650567l-0.849365 0.458004l0.0456736 -0.762116l-0.274965 0.851112l-1.3589 0.383692l-0.0181018 0.356372l-0.470495 0.246023l-1.41424 0.533811l-1.27928 -0.491972l-0.732303 -1.15734l-1.05113 -0.620217l-0.224804 -0.601555l-0.678033 -0.524612l-0.541801 -0.0830642l-1.24145 -1.22482l-0.851099 -0.609888l-1.01205 -0.475482l-1.13557 -0.0384328l-1.05144 0.4031l-1.27765 0.667679l-1.02363 0.801151l-0.688296 0.122803l-1.75028 0.995038l-1.10284 0.145888l-0.645979 0.0469165l-1.06647 -0.197659l-0.282864 -0.412038l0.0827325 -0.7682l0.687313 -0.346493l0.294297 -0.619053l1.29747 -0.975737l1.15343 -0.836397l0.604546 -0.294837l1.10304 0.154902l0.828288 -0.502531l1.20124 -1.23179l0.185358 -0.560121l-0.850088 -1.31856l0.0584003 -0.253823l0.687939 -0.724895l0.332638 -0.883138l-0.280526 -1.53267l0.131913 -1.21911l-0.130784 -1.04004l-0.227781 -0.579026l-0.445913 0.26689l-0.646926 -0.0160472l-0.312593 0.299721l-0.213623 -0.263977l0.232456 -0.520451l-0.304172 -0.524724l0.0591926 -1.01591l0.867568 -1.02116l-0.155485 -1.21668l0.419213 -0.988232l-0.0585444 -0.865889l-0.284828 -1.19254l-1.07003 -1.37724l-0.54228 -1.47495l-0.675153 -0.868181l-0.685348 -0.422003l-1.1199 -0.159691l-0.794838 -0.0281535l-0.595437 0.209281l-0.00290864 0.00202467l-0.00272855 -0.00511996l-1.37137 -0.763298l-1.16537 -0.425619l-2.24484 -0.420229l-0.811754 -0.265985l-0.973451 0.147475l-0.907809 0.385981l-1.39155 0.15181l-1.4409 0.937474"/>
<path d="M-94.4062 -0.743914l0.512278 0.28731l0.460059 1.10676l0.433181 1.71388l-0.0130313 1.43945l0.192886 0.976777l-0.348862 0.409142l-0.846184 -0.0086238l-1.09243 -0.834157"/>
<path d="M-95.0272 -23.5476l1.44409 -1.5139l1.30733 -0.516643l0.938475 -0.149585l0.0179152 0.578135l0.529662 -0.0296459l0.339236 0.484532l0.581782 0.167067l0.899492 -0.318159l0.703093 0.0462695l0.982733 -0.275858l2.02179 -0.845157l1.72537 -1.08571l1.22533 -0.377976l1.06292 -1.00503l0.474513 -0.125432l0.889926 0.553003l0.613485 -0.57944l1.04601 -0.53725l1.19235 0.0611748l0.399039 -0.674152l1.09705 -0.45892l0.974413 -0.320398l0.486889 0.133205l1.39712 -0.22738l1.30508 0.0280839l0.547974 0.256586l0.956567 -0.639837l0.119101 -0.434488l0.707026 -0.512635l-0.486882 -0.460968l-0.777715 -0.114915l-1.13394 -0.376236l-0.792483 0.158025l-1.42649 0.49759l-0.439295 0.0616197l-0.190533 0.15141l-0.582884 -0.0466535l-0.0781051 0.241219l-1.07486 -0.141796l-0.550896 0.245169l-0.652487 0.0659517l-1.11842 0.541073l-1.61226 -0.104171l-0.84191 0.153151l-0.883442 0.114538l-0.860813 -0.234928l-0.311344 0.676606l-0.935519 0.320199l-0.906295 0.278248l-0.275766 -0.137667l-0.370051 -0.837178l0.103458 -0.260846l1.12016 -0.0309167l1.26608 -0.612363l1.16513 -0.738444l0.688954 -0.566392l1.11564 0.508556l0.919747 0.130356l0.745066 -0.457075l1.07417 -0.643122l-0.116752 -0.262559l0.541081 -0.166561l0.730718 -0.659639l1.21833 -0.3785l0.0669823 0.147125l-0.332245 0.499514l0.332767 0.73532l0.643477 0.347104l1.49277 -0.508765l0.748747 -0.550824l1.1166 -0.0273697l1.15344 0.00172994l1.40052 0.00313725l1.49173 0.156515l0.802997 0.166947l1.17015 -0.328016l0.443004 -0.438407l0.452456 0.0872741l0.409609 -0.58569l0.580742 -0.192257l0.712468 -0.937604l0.373944 -0.150816l0.79258 0.294458l1.90982 -0.230766l2.28293 0.260846l0.266691 0.219371l0.687845 -0.16846l1.51741 -0.0664102l1.07527 0.532383l0.988169 -0.0453285l0.853026 0.871809l1.03778 0.659909l1.09054 0.339221l0.87396 1.08479l1.97149 1.62335l1.63695 0.894794l1.13798 0.418015l0.674715 0.140121l0.156775 0.241965l-1.11835 0.834985l-1.35539 -0.2883l0.182332 0.389636l1.0273 0.477945l1.10595 0.345147l0.067898 -0.098514l2.05439 -0.670467l0.831623 -0.167075l1.36705 -0.910185l1.22352 0.35602l0.573851 0.595184l1.08669 -0.457326l0.915395 0.56717l1.33695 -0.106313l0.524841 0.427422l0.643443 0.00940013l0.747263 -0.214276l0.982352 0.609449l1.39349 0.0427946l1.13868 0.575902l0.51759 -0.406984l0.796631 -0.7296l0.832994 -0.265858l1.9055 0.103351l0.631834 -0.208527l1.16271 -0.336795l0.642756 -0.615398"/>
<path d="M-20.5129 -13.9875l-0.125942 0.553172l0.214083 0.330219l-0.332853 0.397637l-0.779699 0.300552l-0.889026 0.680425l-0.463027 0.449446l-0.117564 0.426813l-0.821258 0.291096l-0.288339 -0.844159l-0.591131 0.660552l-0.34209 1.22729l0.0649156 0.447333l-0.867004 0.226054l0.433655 0.683901l0.645956 -0.282245l0.308113 0.411557l-0.11052 0.538083l0.0164134 0.378182l-0.382074 0.268691l-0.766628 0.272189l-0.0271212 0.524871l-0.721284 0.685432l0.0582452 0.752452l-0.138206 0.669143l0.769068 0.0610949l0.156848 0.42909l-0.500575 0.649132l-1.16439 -0.127697l0.952005 0.397577l-0.065951 0.367073l1.2217 0.299957l0.795473 -0.399991l0.544999 -0.439971l1.34352 0.184264l0.837015 0.545042l-0.235349 0.485441l-0.562254 0.359487l-1.40276 0.49574l-0.590751 -0.39457l-0.26956 0.791231"/>
<path d="M-52.4277 0.366018l-0.450028 -0.938226l-0.537783 -0.667944l-0.561526 -0.653042l-0.202191 -0.0100761l0.262241 0.952737l-0.480991 0.573573l0.350863 0.730714l0.456341 0.747658l0.47805 0.809087l-0.734686 -0.275867l-0.15682 0.539804l-0.494538 0.691257l0.35777 0.822786l0.191327 0.917681l-0.367875 0.231996l-0.0290824 0.294421l0.482596 0.153026l0.135046 -0.410327l0.535277 0.110858l0.368353 -0.402243l0.402532 0.127725l0.122916 -1.04209l0.751871 -0.35506l0.168525 -0.225967l-0.000750844 -0.619659l0.24079 -0.842912l-0.183248 -0.196152l-0.337056 -0.191073l-0.223844 -0.508844l-0.544079 -0.363843"/>
<path d="M-60.2748 7.27269l-0.590822 -0.297933l-0.215548 0.69166l-0.00374139 0.541077l0.297299 0.743346l0.486937 0.566188l0.278033 0.509598l0.543471 0.715869l1.00163 0.729722l0.132939 -0.0466263l-0.338687 -0.857661l-0.264725 -0.469715l-0.26439 -0.237428l0.0495082 -0.590804l-0.111365 -0.297408l-0.460683 -0.395699l-0.556636 -0.715586l0.016779 -0.588599"/>
<path d="M-82.9626 13.5761l0.400973 -0.0467679l0.00276842 -0.334643l-0.400964 0.0451682l-0.00277717 0.336243"/>
<path d="M-57.9695 11.209l0.27886 0.491584l0.114569 0.80128l0.0704865 0.848346l0.632501 0.640195l0.518238 -0.189295l0.185262 -0.163531l0.0500632 -0.232385l-0.26303 -0.266629l-0.36422 -0.205917l0.161608 -0.497165l-0.364989 -0.797648l-0.340678 -0.663619l-0.221528 -0.274626l-0.530523 -0.214707l-0.0574857 0.428499l0.130865 0.295616"/>
<path d="M-54.9872 9.28996l0.378108 -0.383387l0.133417 -0.892777l0.0322767 -0.790102l-0.0766249 -0.724999l0.0904574 -0.732358l0.285189 -0.217576l-0.220091 -0.157639l-0.499865 0.531083l-0.209184 -0.83257l0.00324021 -0.0328334l0.0817036 -0.767725l-0.330242 -0.731156l-0.163155 -0.65024l-0.926489 -0.539945l-0.518264 -0.36819l-0.160571 0.140821l0.931319 0.686625l0.012552 0.147318l-1.09939 -0.461381l-0.988131 -0.186563l-0.80611 -0.163792l-0.68883 0.156157l-0.35179 -0.0143981l-0.369622 0.0223671l-0.738702 0.316732l-0.0926821 0.102545l0.0251613 0.362945l0.172623 0.279898l0.209759 0.204225l0.720826 0.38521l0.937117 -0.0333084l0.851159 -0.395831l0.599452 0.013878l0.703881 0.217481l0.485739 0.215343l0.362596 0.368819l-0.459965 0.128156l0.701026 0.118117l0.159386 0.203131l0.538357 0.0896419l-0.197685 0.848072l-0.460585 0.778911l-0.620924 0.153762l-0.645064 -0.0160566l-0.620666 -0.48956l-0.347123 0.0897622l0.0104222 0.202966l0.688635 0.55369l-0.0929554 0.388916l-0.7874 0.287829l-0.56861 0.127371l0.555874 0.598077l0.402538 0.0271317l0.653994 -0.148997l0.84177 0.358465l0.851312 -0.256419l-0.777061 0.626155l-0.0562864 0.832064l0.512003 0.234824l0.942168 -0.810684"/>
<path d="M-25.4504 -13.3954l0.182312 0.178354l0.151929 0.0835661l0.513388 -1.17246l0.242014 0.603159l0.132837 0.00236771l0.565272 -2.80541l-0.0878675 -0.095882l-0.883129 0.995069l-0.122074 -0.0590412l-0.25946 -0.691141l-0.130082 -0.118327l-0.347794 0.193861l0.0251348 0.9439l-0.103411 0.00576357l-0.303851 -0.423115l-0.117235 -0.0831929l0.0838745 1.0586l0.163392 0.115464l0.158273 0.0422771l0.0806044 0.0611937l-0.3644 0.742582l0.0647989 0.111709l0.355473 0.310691"/>
<path d="M-30.9029 -14.4103l-0.14759 -0.519183l-0.115619 -0.815612l0.64512 -0.60617l0.0195244 -0.130532l-0.189241 -0.0763033l-0.137741 0.124084l-0.967125 0.622846l-0.278329 0.621786l-0.199712 1.06251l0.318748 0.805346l0.625492 1.1218l-0.0459674 0.717392l0.0188325 0.614016l0.139666 0.0645218l0.135153 -0.141833l0.394708 -0.345023l-0.0194658 -0.521094l-0.403712 -0.618183l-0.110246 -1.05025l0.70622 -0.395491l0.711784 -0.558879l0.0868929 -0.0963443l-0.333123 0.000449033l-0.854269 0.120149"/>
<path d="M-57.1972 -23.3232l0.13026 0.0124966l-0.0440463 -0.234988l0.209721 -0.127877l0.36994 -0.180815l-0.681512 -0.0847346l-0.0603001 0.00608411l-0.58156 0.355998l0.374315 0.191343l0.283182 0.0624938"/>
<path d="M-44.9329 -7.44163l0.184212 0.0390091l0.0720999 -0.206411l0.245099 -0.270617l0.471902 0.199043l0.133974 0.0544434l0.0446638 -0.238309l0.201822 0.142815l0.143061 0.0662328l0.0512436 -0.178774l-0.164192 -0.100647l-0.182186 -0.0948678l-0.0457344 -0.0259695l-0.223339 0.0318089l-0.238759 -0.260708l-0.34698 0.0762109l-0.271416 0.456129l-0.0636233 0.195971l-0.0118478 0.114641"/>
<path d="M-43.9402 -6.92438l-0.895982 -0.367049l-1.48063 0.616275l-1.01533 0.665766l-1.02212 0.139811l-0.427364 0.116971l0.276579 0.450818l0.955986 -0.0254574l2.80151 -0.678167l0.84644 -0.0121925l0.378337 -0.0665798l-0.417426 -0.840195"/>
<path d="M-35.6348 -12.7264l-0.323468 2.04297l0.0326912 0.0109293l0.790093 -1.49205l-0.485138 -1.62323l-0.0795314 -0.0590775l-0.177782 0.0125473l0.243136 1.10792"/>
<path d="M-38.3156 -8.07098l0.0396779 -0.154764l-0.597839 -0.615936l-0.223712 -0.0505487l-0.477667 0.0629469l-0.403541 -0.411119l0.194729 -0.00176107l0.00292366 -0.0508596l-0.350333 -0.180698l-0.0946704 0.0356996l0.925147 1.13163l0.154832 0.00640398l0.597151 0.426384l0.233301 -0.197382"/>
<path d="M-20.9625 -6.88741l0.423342 0.338049"/>
<path d="M-21.2792 -5.61222l-0.866398 -0.100499l-0.750235 0.517055l-0.723142 0.612818l-0.522205 -0.148783l0.0488812 -0.71158l-0.522152 0.169338l-0.410375 -0.242047l0.374658 -0.739854l0.51895 -0.645523l0.0733905 -0.510229l-0.139859 -0.920418l0.262715 -1.3223l0.155293 -0.593417l0.630574 0.0111345l0.554359 -0.405409l0.043929 -0.409492l1.10863 -0.0346984l-0.0102393 0.308509l-0.0925985 0.670895l-0.292653 0.510898l-0.0153501 0.581453l0.577905 -0.614095l0.286427 -0.830115l0.287042 -0.504624"/>
<path d="M-20.4845 3.39115l-0.797545 0.0752499l0.480101 0.66357"/>
<path d="M-20.6705 5.30504l-0.426974 0.65357l-0.499945 0.193933l0.474256 0.612202l-0.611908 0.634478l-0.120727 1.08421l-0.327189 0.517401l-0.908267 0.815562l-0.838404 -0.537148l-0.338153 1.29796l0.0563179 0.783715l-0.726536 1.11355l0.279154 0.718721l-0.843226 0.273502l-1.70262 -0.15009l0.204981 -0.811711l0.768581 -1.21948l-0.392752 -0.536766l-0.686281 0.207131l-0.463078 0.782031l-0.238949 0.891322l-0.211003 0.340073l-0.974856 0.85175l-0.903901 0.207008l0.0115076 -0.803528l0.389802 -1.69427l-0.708124 1.14668l-0.463212 0.856839l-0.365717 0.266225l-0.146574 -1.67547l0.261357 -1.42219l0.365173 -0.847957l0.398002 0.0768561l0.370324 -0.978544l0.369134 -0.924051l-0.348461 0.103388l-0.567581 -1.47951l0.327043 -0.536991l0.972991 0.153736l0.242831 0.949893l0.43141 0.992672l0.381441 -0.287273l0.645964 -0.000367373l1.34104 0.258807l0.485112 -0.286729l0.353515 -0.294913l0.384696 -0.837243l0.185314 -0.98228l0.369218 0.202406l0.640456 -0.62064l-0.0111203 -0.38067l0.344368 -0.408003l-0.398335 -0.153029l-0.284352 -0.732557l0.0882125 -1.56295l0.297928 -0.907142l0.160069 -0.67656l0.425669 -0.345973l0.566317 0.407555l-0.00268802 -0.560087l1.23846 -0.120549"/>
<path d="M-20.8179 -2.38663l-1.08443 -0.19406l-0.386009 -0.69454l0.159149 -0.357638l0.505663 -0.185718l1.1064 -0.729961"/>
<path d="M-20.6635 -1.15393l-0.884663 -0.454579l0.0816537 -0.4244"/>
<path d="M-20.4463 -0.715418l-0.217162 -0.43851"/>
<path d="M-20.4467 23.7859l-0.75259 0.439479l-1.36631 0.126707l-0.49488 0.887603l-0.911263 0.587509l-1.08445 0.688985l-0.69934 -0.568908l0.092434 -1.39192l-0.836157 -0.914628l0.131493 -0.907251l0.683396 -1.10554l0.587137 -1.75983l0.471272 -0.725024l0.84415 -0.746896l0.489879 -1.26257l0.843132 -0.401794l0.160504 -0.520077l1.43838 -0.48904"/>
</g>
</g>
</g>
</g>
<g inkscape:groupmode="layer" inkscape:label="Coastline" id="Coastline"><title>Coastline</title>
<g>
<g id="drawing" transform="translate(95.8346,-76.1887)">
<g stroke-width="0.5px" stroke="rgb(0,0,0)" fill="none">
<path d="M-90.0091 40.847l-0.600239 -0.215147l-0.516105 -1.19821l-0.456593 -0.90629l0.678181 -0.394057l0.33846 0.121778l0.545865 1.29368l0.210943 0.866927l-0.200512 0.431322"/>
<path d="M-91.4913 28.7073l0.179412 1.46938l0.354139 0.103336l0.413192 1.23907l-0.100962 1.08966l0.193059 0.40124l-0.490187 0.50584l0.357609 0.8542l-0.519609 0.138556l0.210138 0.729919l-0.309206 1.0228l-0.920331 -0.323829l0.0736721 -0.90634l-0.34895 -0.712143l-0.114481 -0.560612l-0.416907 -0.178866l-0.328444 -0.586085l0.328085 -0.393499l-0.432726 -0.452088l-1.40537 -0.254861l0.133703 -0.517677l0.47003 -0.248186l-0.0599157 -1.18723l-0.363838 -0.739948l-0.179635 -1.04633l-0.55338 -0.680673l0.292825 -1.04396l0.602646 -0.011098l0.195897 1.58488l0.238253 1.28181l0.569572 0.467889l0.511215 -0.976585l0.657709 -0.190386l-0.0421666 -1.0971l0.579706 0.220331l0.225253 0.998593"/>
<path d="M-40.2839 -88.5675l0.102019 -0.376641l0.491156 0.0618145l0.160369 0.477636l0.519269 0.480992l0.00419094 0.215125l-0.146879 0.383303l0.247616 0.271629l-0.0205076 0.190226l-0.128678 0.0218314l-0.704189 -0.00944822l-0.333599 -0.0161776l-0.346259 -0.102062l-0.652463 -0.384793l-0.0054659 -0.106953l0.43704 -0.625498l0.376381 -0.480985"/>
<path d="M-38.3257 -86.4025l0.455624 -0.338397l0.408448 0.227066l0.230194 0.0563752l0.0568036 0.0950637l-0.0878593 0.201865l-0.601029 0.0800641l-0.502162 -0.0727989l0.0399817 -0.249238"/>
<path d="M-36.9296 -85.9902l-0.0280162 -0.194183l0.827307 -0.294897l-0.0305506 0.244143l-0.768741 0.244937"/>
<path d="M-35.4859 -86.321l0.0433527 -0.126997l0.116529 -0.023359l0.548866 -0.15595l0.339017 0.290876l0.0843014 0.0413568l-0.312596 0.383953l-0.167305 -0.0529939l-0.652165 -0.356886"/>
<path d="M-32.5158 -86.2559l0.11832 -0.228081l0.618164 0.107989l-0.0342872 0.14718l-0.170378 0.243966l-0.35862 0.0949834l-0.173198 -0.366038"/>
<path d="M-89.3588 16.2722l-0.504533 0.737691l0.48012 1.42329l-0.281192 0.63651l-0.756166 1.56226l-0.536434 1.16486l0.150111 0.516507l-0.109072 1.03291l-0.50914 0.00689295l0.237967 1.19316l-0.363731 1.3979l-0.453368 -0.0771814l-0.511854 -1.01094l-0.37119 -1.06661l-0.142614 -1.15192l-0.705942 -2.2949l1.20897 0.874137l0.299021 -0.757967l-0.109106 -1.06314l0.38191 -0.658519l0.899976 -0.575402l-0.241402 -0.886365l0.190989 -1.56737l0.278148 -0.537325l-0.0558486 -2.10815l0.256161 -0.599841l0.509911 0.531382l-0.121838 -1.5557l-1.02743 -1.03097l-0.0968959 -0.657708l-0.4449 -0.184776l-0.268329 -0.775264l0.101031 -0.702289l0.611443 0.795165l0.654134 0.282861l0.455569 0.67402l0.42362 0.764828l0.310594 1.16469l0.236931 0.353142l0.0721438 1.3627l0.174221 1.22518l-0.321983 1.56225"/>
<path d="M-87.0274 19.2383l-0.164245 -0.354923l0.872513 -0.589273l0.36064 -0.662603l1.11006 0.108385l0.0284206 0.459448l-1.24936 0.818769l-0.958033 0.220197"/>
<path d="M-82.5098 17.8091l-0.582726 -1.52206l0.578279 -0.218007l0.263389 0.650139l0.149873 0.956702l-0.408814 0.133225"/>
<path d="M-82.2304 18.9844l-1.20282 0.0132186l0.146915 -0.314367l0.848239 -0.165481l0.492946 -0.782657l0.18349 -0.0426699l-0.468771 1.29196"/>
<path d="M-48.7861 24.1492l0.144455 0.699886l0.441781 0.766187l-0.721326 -0.152772l-0.244081 -0.275575l-0.0164578 -1.35096l0.313634 -0.414561l0.537756 0.135348l-0.455762 0.592448"/>
<path d="M-44.8933 24.0652l-0.224382 -0.371052l-0.143429 -1.21578l0.218221 -1.01248l0.232722 0.222017l0.207874 1.17721l-0.0837611 1.0596l-0.207244 0.140484"/>
<path d="M-43.1455 -28.5682l0.0950727 -0.483758l1.35299 -0.861056l0.547663 0.0653274l0.850961 -0.354548l0.402903 0.105771l0.738535 -0.56197l0.781499 0.193458l0.198321 0.250929l-0.780388 0.526844l-0.479384 0.296896l-0.592609 0.567583l-0.549678 -0.031683l-0.773896 -0.016474l-0.961358 0.41235l-0.83063 -0.109668"/>
<path d="M-40.5202 27.1935l-1.29801 0.175848l0.693329 0.220522l0.0879153 0.644111l-0.562219 0.0130092l0.138394 0.854149l0.504407 0.14104l0.180161 0.956455l-0.966061 0.367731l0.562777 0.36765l-0.508821 0.527571l-0.505489 0.741912l-1.20372 0.416821l-0.297459 -0.313056l-0.156623 -0.655981l1.03 -0.49601l-0.00964508 -0.310388l-1.59686 -0.196872l-0.277094 -0.491114l0.906484 0.180703l-0.224649 -0.923016l-0.612788 -0.786431l-0.907925 -1.54951l0.276917 -0.328505l0.705208 0.241166l0.114822 -0.528738l1.09058 0.219106l2.29982 -0.383077l0.92554 0.023927l0.784919 0.345975l0.169039 0.351019l-0.39031 0.0727155l-0.952635 0.101264"/>
<path d="M-32.5787 -30.0733l2.75611e-07 -3.99019e-07l-4.2381e-07 4.59118e-07l1.482e-07 -6.00989e-08l-0.420668 0.620247l-0.959723 -1.177l-1.26578 -0.184244l0.217255 -0.242709l0.779408 0.0420539l0.650649 0.19284l0.57401 -0.0130675l0.522774 0.291351l0.274703 0.32145l-0.372628 0.149074"/>
<path d="M-33.2693 6.30685l-0.6974 -0.108043l0.0593979 -0.280774l0.345976 -0.218759l0.0908679 0.0126735l0.412949 0.158991l0.015577 0.241073l-0.227368 0.194838"/>
<path d="M-32.8329 4.67384l-0.78069 -0.587436l-0.0187573 -0.417685l0.326401 -0.1644l0.626652 0.363256l0.0902179 0.783895l-0.243824 0.0223708"/>
<path d="M-29.3613 2.48551l-0.538831 0.143162l0.216496 0.24836l-0.295016 0.335961l-0.358764 0.626202l-0.303328 0.662486l-0.583161 0.134999l0.158676 0.385135l-0.345293 0.458255l-0.472162 -0.425221l0.174486 -0.90694l0.522347 -0.378861l-0.725731 -0.471538l-0.721538 -0.742638l0.71979 -0.248689l-0.166247 -0.749566l0.647673 0.446932l0.989108 0.00518028l1.15388 0.0990274l-0.0723915 0.377752"/>
<path d="M-26.7746 6.74227l-0.187394 -0.511092l0.564962 -0.25155l0.720515 0.0372346l0.265773 0.368136l-0.241517 0.433591l-0.511184 0.141338l-0.178722 -0.00787967l-0.432433 -0.209779"/>
<path d="M-25.0656 -2.47876l-0.401541 -0.319121l0.443311 -0.54874l-0.0832678 -0.375106l0.641538 -0.503059l0.314994 0.4354l0.483114 0.37116l-0.405026 0.395352l-0.250315 0.226961l-0.246778 0.101901l-0.496029 0.215252"/>
<path d="M-24.7063 -0.235928l-1.26101 -0.0140336l0.967913 0.592457l-0.78079 0.548941l-0.92074 -0.107137l-0.818225 0.489355l0.921533 0.443495l1.08731 0.256241l1.34985 -0.0812198l-0.0393491 0.608305l-0.106987 0.646717l-0.523671 0.661093l-0.601127 0.119541l-0.701223 -0.238494l-0.607442 0.42195l-0.60539 0.0309567l-0.988575 -0.836035l-0.263201 -0.671129l0.330549 -0.544112l-0.633872 -0.104302l-1.08005 -0.431894l-0.554023 -0.127162l-0.870478 -0.595853l-0.0943454 -0.784705l-0.528465 -0.440586l-0.81804 -0.0479168l-0.142168 -0.672134l-0.991434 -0.760579l-1.38385 -0.748531l-0.98323 -0.320383l-1.47951 -0.156508l-0.281017 0.959037l-1.22055 0.241466l-0.994831 0.281679l0.228545 0.989167l-0.560594 1.30985l-0.475298 0.726089l-0.593872 0.542283l-0.305581 0.936514l-0.487903 0.824494l0.0494553 1.23242l-0.0237908 0.822229l-1.14331 0.0284563l-1.28197 0.418689l-1.38736 0.789527l-1.0515 1.42206l0.545247 0.553509l1.43062 0.170751l1.97053 -0.808296l0.581793 -0.657245l0.833173 1.06808l1.07458 0.624077l0.975137 0.184152l0.830258 -0.257661l0.963681 -0.70559l0.775876 -1.0036l1.4751 0.473706l1.06843 -0.518052l1.89587 -0.61167l0.371393 0.336117l-0.100984 1.05589l0.0358351 0.617298l0.451964 0.378257l-0.253789 0.647763l-0.475716 0.925708l-0.409125 0.331525l0.275547 1.06485l-1.00987 0.355528l-1.4398 0.769693l0.0318979 0.63799l-0.520447 0.735628l1.03911 0.616101l1.54671 -0.0111609l0.71642 0.129723l-0.810362 0.946696l-1.07103 1.5137l-1.00823 1.40623l-0.854314 0.135516l-0.176368 1.20241l-0.314313 0.949934l0.330338 1.19834l-0.0937439 0.634313l-0.770219 0.860945l0.189211 0.604314l-0.235976 0.541142l-1.20003 0.889081l-0.749315 -0.214784l-0.719139 -0.241397l-1.13692 -0.91878l-1.49656 -0.361256l-0.902182 -1.16938l-0.59187 -1.7723l-0.545168 -1.17142l-0.450037 -0.77628l-1.1782 -0.28877l-0.981302 -0.818353l-2.15143 -0.581266l-1.554 -0.588819l0.478323 0.679693l2.20748 0.756229l1.76624 1.30984l0.667556 1.15524l-0.263662 0.9989l-1.19415 -0.380569l-1.21566 0.892117l-0.808896 0.726121l-0.0694818 1.42879l0.920515 1.3235l1.82201 0.0826105l-0.838749 0.55058l-0.126192 0.788156l-1.38668 -0.597229l-1.75767 -1.54727l-0.94801 -0.639156l-1.40015 -0.594126l-0.224457 -0.750386l1.07314 -0.516906l1.76909 1.07926l-0.69945 -1.40631l-0.589959 -0.93482l-0.355142 0.335824l-1.03495 -0.725084l-0.830509 -0.786892l-0.765141 -0.860417l-1.06892 -0.245675l-0.263379 -0.0453443l-0.71557 0.23768l-0.598136 0.580628l0.115613 0.428829l0.452606 -0.282158l-0.189525 0.407554l-0.413522 0.0600745l-0.462666 -0.603425l-0.14273 -0.49671l-0.490085 -0.675575l-0.212873 -0.424561l-0.255715 -0.578186l-0.659086 -0.746286l0.726337 1.4458l-0.160521 0.389929l-0.86902 -1.33025l-0.199189 -0.669222l0.179005 -0.0175914l-0.476415 -0.211396l0.024924 0.329658l-1.06792 0.0554279l-1.3018 -0.492339l0.340982 -0.179221l0.00946247 -0.259691l0.259408 -0.450141l-0.701854 0.425758l-0.184315 0.327717l-0.527273 0.172419l-0.648265 -0.212842l-1.30909 -0.346648l0.0312929 -0.118741l1.06563 0.105991l0.403122 -0.711234l1.15207 -0.419036l-0.666926 -0.0650567l-0.849365 0.458004l0.0456736 -0.762116l-0.274965 0.851112l-1.3589 0.383692l-0.0181018 0.356372l-0.470495 0.246023l-1.41424 0.533811l-1.27928 -0.491972l-0.732303 -1.15734l-1.05113 -0.620217l-0.224804 -0.601555l-0.678033 -0.524612l-0.541801 -0.0830642l-1.24145 -1.22482l-0.851099 -0.609888l-1.01205 -0.475482l-1.13557 -0.0384328l-1.05144 0.4031l-1.27765 0.667679l-1.02363 0.801151l-0.688296 0.122803l-1.75028 0.995038l-1.10284 0.145888l-0.645979 0.0469165l-1.06647 -0.197659l-0.282864 -0.412038l0.0827325 -0.7682l0.687313 -0.346493l0.294297 -0.619053l1.29747 -0.975737l1.15343 -0.836397l0.604546 -0.294837l1.10304 0.154902l0.828288 -0.502531l1.20124 -1.23179l0.185358 -0.560121l-0.850088 -1.31856l0.0584003 -0.253823l0.687939 -0.724895l0.332638 -0.883138l-0.280526 -1.53267l0.131913 -1.21911l-0.130784 -1.04004l-0.227781 -0.579026l-0.445913 0.26689l-0.646926 -0.0160472l-0.312593 0.299721l-0.213623 -0.263977l0.232456 -0.520451l-0.304172 -0.524724l0.0591926 -1.01591l0.867568 -1.02116l-0.155485 -1.21668l0.419213 -0.988232l-0.0585444 -0.865889l-0.284828 -1.19254l-1.07003 -1.37724l-0.54228 -1.47495l-0.675153 -0.868181l-0.685348 -0.422003l-1.1199 -0.159691l-0.794838 -0.0281535l-0.595437 0.209281l-0.00290864 0.00202467l-0.00272855 -0.00511996l-1.37137 -0.763298l-1.16537 -0.425619l-2.24484 -0.420229l-0.811754 -0.265985l-0.973451 0.147475l-0.907809 0.385981l-1.39155 0.15181l-1.4409 0.937474"/>
<path d="M-94.4062 -0.743914l0.512278 0.28731l0.460059 1.10676l0.433181 1.71388l-0.0130313 1.43945l0.192886 0.976777l-0.348862 0.409142l-0.846184 -0.0086238l-1.09243 -0.834157"/>
<path d="M-95.0272 -23.5476l1.44409 -1.5139l1.30733 -0.516643l0.938475 -0.149585l0.0179152 0.578135l0.529662 -0.0296459l0.339236 0.484532l0.581782 0.167067l0.899492 -0.318159l0.703093 0.0462695l0.982733 -0.275858l2.02179 -0.845157l1.72537 -1.08571l1.22533 -0.377976l1.06292 -1.00503l0.474513 -0.125432l0.889926 0.553003l0.613485 -0.57944l1.04601 -0.53725l1.19235 0.0611748l0.399039 -0.674152l1.09705 -0.45892l0.974413 -0.320398l0.486889 0.133205l1.39712 -0.22738l1.30508 0.0280839l0.547974 0.256586l0.956567 -0.639837l0.119101 -0.434488l0.707026 -0.512635l-0.486882 -0.460968l-0.777715 -0.114915l-1.13394 -0.376236l-0.792483 0.158025l-1.42649 0.49759l-0.439295 0.0616197l-0.190533 0.15141l-0.582884 -0.0466535l-0.0781051 0.241219l-1.07486 -0.141796l-0.550896 0.245169l-0.652487 0.0659517l-1.11842 0.541073l-1.61226 -0.104171l-0.84191 0.153151l-0.883442 0.114538l-0.860813 -0.234928l-0.311344 0.676606l-0.935519 0.320199l-0.906295 0.278248l-0.275766 -0.137667l-0.370051 -0.837178l0.103458 -0.260846l1.12016 -0.0309167l1.26608 -0.612363l1.16513 -0.738444l0.688954 -0.566392l1.11564 0.508556l0.919747 0.130356l0.745066 -0.457075l1.07417 -0.643122l-0.116752 -0.262559l0.541081 -0.166561l0.730718 -0.659639l1.21833 -0.3785l0.0669823 0.147125l-0.332245 0.499514l0.332767 0.73532l0.643477 0.347104l1.49277 -0.508765l0.748747 -0.550824l1.1166 -0.0273697l1.15344 0.00172994l1.40052 0.00313725l1.49173 0.156515l0.802997 0.166947l1.17015 -0.328016l0.443004 -0.438407l0.452456 0.0872741l0.409609 -0.58569l0.580742 -0.192257l0.712468 -0.937604l0.373944 -0.150816l0.79258 0.294458l1.90982 -0.230766l2.28293 0.260846l0.266691 0.219371l0.687845 -0.16846l1.51741 -0.0664102l1.07527 0.532383l0.988169 -0.0453285l0.853026 0.871809l1.03778 0.659909l1.09054 0.339221l0.87396 1.08479l1.97149 1.62335l1.63695 0.894794l1.13798 0.418015l0.674715 0.140121l0.156775 0.241965l-1.11835 0.834985l-1.35539 -0.2883l0.182332 0.389636l1.0273 0.477945l1.10595 0.345147l0.067898 -0.098514l2.05439 -0.670467l0.831623 -0.167075l1.36705 -0.910185l1.22352 0.35602l0.573851 0.595184l1.08669 -0.457326l0.915395 0.56717l1.33695 -0.106313l0.524841 0.427422l0.643443 0.00940013l0.747263 -0.214276l0.982352 0.609449l1.39349 0.0427946l1.13868 0.575902l0.51759 -0.406984l0.796631 -0.7296l0.832994 -0.265858l1.9055 0.103351l0.631834 -0.208527l1.16271 -0.336795l0.642756 -0.615398"/>
<path d="M-20.5129 -13.9875l-0.125942 0.553172l0.214083 0.330219l-0.332853 0.397637l-0.779699 0.300552l-0.889026 0.680425l-0.463027 0.449446l-0.117564 0.426813l-0.821258 0.291096l-0.288339 -0.844159l-0.591131 0.660552l-0.34209 1.22729l0.0649156 0.447333l-0.867004 0.226054l0.433655 0.683901l0.645956 -0.282245l0.308113 0.411557l-0.11052 0.538083l0.0164134 0.378182l-0.382074 0.268691l-0.766628 0.272189l-0.0271212 0.524871l-0.721284 0.685432l0.0582452 0.752452l-0.138206 0.669143l0.769068 0.0610949l0.156848 0.42909l-0.500575 0.649132l-1.16439 -0.127697l0.952005 0.397577l-0.065951 0.367073l1.2217 0.299957l0.795473 -0.399991l0.544999 -0.439971l1.34352 0.184264l0.837015 0.545042l-0.235349 0.485441l-0.562254 0.359487l-1.40276 0.49574l-0.590751 -0.39457l-0.26956 0.791231"/>
<path d="M-52.4277 0.366018l-0.450028 -0.938226l-0.537783 -0.667944l-0.561526 -0.653042l-0.202191 -0.0100761l0.262241 0.952737l-0.480991 0.573573l0.350863 0.730714l0.456341 0.747658l0.47805 0.809087l-0.734686 -0.275867l-0.15682 0.539804l-0.494538 0.691257l0.35777 0.822786l0.191327 0.917681l-0.367875 0.231996l-0.0290824 0.294421l0.482596 0.153026l0.135046 -0.410327l0.535277 0.110858l0.368353 -0.402243l0.402532 0.127725l0.122916 -1.04209l0.751871 -0.35506l0.168525 -0.225967l-0.000750844 -0.619659l0.24079 -0.842912l-0.183248 -0.196152l-0.337056 -0.191073l-0.223844 -0.508844l-0.544079 -0.363843"/>
<path d="M-60.2748 7.27269l-0.590822 -0.297933l-0.215548 0.69166l-0.00374139 0.541077l0.297299 0.743346l0.486937 0.566188l0.278033 0.509598l0.543471 0.715869l1.00163 0.729722l0.132939 -0.0466263l-0.338687 -0.857661l-0.264725 -0.469715l-0.26439 -0.237428l0.0495082 -0.590804l-0.111365 -0.297408l-0.460683 -0.395699l-0.556636 -0.715586l0.016779 -0.588599"/>
<path d="M-82.9626 13.5761l0.400973 -0.0467679l0.00276842 -0.334643l-0.400964 0.0451682l-0.00277717 0.336243"/>
<path d="M-57.9695 11.209l0.27886 0.491584l0.114569 0.80128l0.0704865 0.848346l0.632501 0.640195l0.518238 -0.189295l0.185262 -0.163531l0.0500632 -0.232385l-0.26303 -0.266629l-0.36422 -0.205917l0.161608 -0.497165l-0.364989 -0.797648l-0.340678 -0.663619l-0.221528 -0.274626l-0.530523 -0.214707l-0.0574857 0.428499l0.130865 0.295616"/>
<path d="M-54.9872 9.28996l0.378108 -0.383387l0.133417 -0.892777l0.0322767 -0.790102l-0.0766249 -0.724999l0.0904574 -0.732358l0.285189 -0.217576l-0.220091 -0.157639l-0.499865 0.531083l-0.209184 -0.83257l0.00324021 -0.0328334l0.0817036 -0.767725l-0.330242 -0.731156l-0.163155 -0.65024l-0.926489 -0.539945l-0.518264 -0.36819l-0.160571 0.140821l0.931319 0.686625l0.012552 0.147318l-1.09939 -0.461381l-0.988131 -0.186563l-0.80611 -0.163792l-0.68883 0.156157l-0.35179 -0.0143981l-0.369622 0.0223671l-0.738702 0.316732l-0.0926821 0.102545l0.0251613 0.362945l0.172623 0.279898l0.209759 0.204225l0.720826 0.38521l0.937117 -0.0333084l0.851159 -0.395831l0.599452 0.013878l0.703881 0.217481l0.485739 0.215343l0.362596 0.368819l-0.459965 0.128156l0.701026 0.118117l0.159386 0.203131l0.538357 0.0896419l-0.197685 0.848072l-0.460585 0.778911l-0.620924 0.153762l-0.645064 -0.0160566l-0.620666 -0.48956l-0.347123 0.0897622l0.0104222 0.202966l0.688635 0.55369l-0.0929554 0.388916l-0.7874 0.287829l-0.56861 0.127371l0.555874 0.598077l0.402538 0.0271317l0.653994 -0.148997l0.84177 0.358465l0.851312 -0.256419l-0.777061 0.626155l-0.0562864 0.832064l0.512003 0.234824l0.942168 -0.810684"/>
<path d="M-25.4504 -13.3954l0.182312 0.178354l0.151929 0.0835661l0.513388 -1.17246l0.242014 0.603159l0.132837 0.00236771l0.565272 -2.80541l-0.0878675 -0.095882l-0.883129 0.995069l-0.122074 -0.0590412l-0.25946 -0.691141l-0.130082 -0.118327l-0.347794 0.193861l0.0251348 0.9439l-0.103411 0.00576357l-0.303851 -0.423115l-0.117235 -0.0831929l0.0838745 1.0586l0.163392 0.115464l0.158273 0.0422771l0.0806044 0.0611937l-0.3644 0.742582l0.0647989 0.111709l0.355473 0.310691"/>
<path d="M-30.9029 -14.4103l-0.14759 -0.519183l-0.115619 -0.815612l0.64512 -0.60617l0.0195244 -0.130532l-0.189241 -0.0763033l-0.137741 0.124084l-0.967125 0.622846l-0.278329 0.621786l-0.199712 1.06251l0.318748 0.805346l0.625492 1.1218l-0.0459674 0.717392l0.0188325 0.614016l0.139666 0.0645218l0.135153 -0.141833l0.394708 -0.345023l-0.0194658 -0.521094l-0.403712 -0.618183l-0.110246 -1.05025l0.70622 -0.395491l0.711784 -0.558879l0.0868929 -0.0963443l-0.333123 0.000449033l-0.854269 0.120149"/>
<path d="M-57.1972 -23.3232l0.13026 0.0124966l-0.0440463 -0.234988l0.209721 -0.127877l0.36994 -0.180815l-0.681512 -0.0847346l-0.0603001 0.00608411l-0.58156 0.355998l0.374315 0.191343l0.283182 0.0624938"/>
<path d="M-44.9329 -7.44163l0.184212 0.0390091l0.0720999 -0.206411l0.245099 -0.270617l0.471902 0.199043l0.133974 0.0544434l0.0446638 -0.238309l0.201822 0.142815l0.143061 0.0662328l0.0512436 -0.178774l-0.164192 -0.100647l-0.182186 -0.0948678l-0.0457344 -0.0259695l-0.223339 0.0318089l-0.238759 -0.260708l-0.34698 0.0762109l-0.271416 0.456129l-0.0636233 0.195971l-0.0118478 0.114641"/>
<path d="M-43.9402 -6.92438l-0.895982 -0.367049l-1.48063 0.616275l-1.01533 0.665766l-1.02212 0.139811l-0.427364 0.116971l0.276579 0.450818l0.955986 -0.0254574l2.80151 -0.678167l0.84644 -0.0121925l0.378337 -0.0665798l-0.417426 -0.840195"/>
<path d="M-35.6348 -12.7264l-0.323468 2.04297l0.0326912 0.0109293l0.790093 -1.49205l-0.485138 -1.62323l-0.0795314 -0.0590775l-0.177782 0.0125473l0.243136 1.10792"/>
<path d="M-38.3156 -8.07098l0.0396779 -0.154764l-0.597839 -0.615936l-0.223712 -0.0505487l-0.477667 0.0629469l-0.403541 -0.411119l0.194729 -0.00176107l0.00292366 -0.0508596l-0.350333 -0.180698l-0.0946704 0.0356996l0.925147 1.13163l0.154832 0.00640398l0.597151 0.426384l0.233301 -0.197382"/>
<path d="M-20.9625 -6.88741l0.423342 0.338049"/>
<path d="M-21.2792 -5.61222l-0.866398 -0.100499l-0.750235 0.517055l-0.723142 0.612818l-0.522205 -0.148783l0.0488812 -0.71158l-0.522152 0.169338l-0.410375 -0.242047l0.374658 -0.739854l0.51895 -0.645523l0.0733905 -0.510229l-0.139859 -0.920418l0.262715 -1.3223l0.155293 -0.593417l0.630574 0.0111345l0.554359 -0.405409l0.043929 -0.409492l1.10863 -0.0346984l-0.0102393 0.308509l-0.0925985 0.670895l-0.292653 0.510898l-0.0153501 0.581453l0.577905 -0.614095l0.286427 -0.830115l0.287042 -0.504624"/>
<path d="M-20.4845 3.39115l-0.797545 0.0752499l0.480101 0.66357"/>
<path d="M-20.6705 5.30504l-0.426974 0.65357l-0.499945 0.193933l0.474256 0.612202l-0.611908 0.634478l-0.120727 1.08421l-0.327189 0.517401l-0.908267 0.815562l-0.838404 -0.537148l-0.338153 1.29796l0.0563179 0.783715l-0.726536 1.11355l0.279154 0.718721l-0.843226 0.273502l-1.70262 -0.15009l0.204981 -0.811711l0.768581 -1.21948l-0.392752 -0.536766l-0.686281 0.207131l-0.463078 0.782031l-0.238949 0.891322l-0.211003 0.340073l-0.974856 0.85175l-0.903901 0.207008l0.0115076 -0.803528l0.389802 -1.69427l-0.708124 1.14668l-0.463212 0.856839l-0.365717 0.266225l-0.146574 -1.67547l0.261357 -1.42219l0.365173 -0.847957l0.398002 0.0768561l0.370324 -0.978544l0.369134 -0.924051l-0.348461 0.103388l-0.567581 -1.47951l0.327043 -0.536991l0.972991 0.153736l0.242831 0.949893l0.43141 0.992672l0.381441 -0.287273l0.645964 -0.000367373l1.34104 0.258807l0.485112 -0.286729l0.353515 -0.294913l0.384696 -0.837243l0.185314 -0.98228l0.369218 0.202406l0.640456 -0.62064l-0.0111203 -0.38067l0.344368 -0.408003l-0.398335 -0.153029l-0.284352 -0.732557l0.0882125 -1.56295l0.297928 -0.907142l0.160069 -0.67656l0.425669 -0.345973l0.566317 0.407555l-0.00268802 -0.560087l1.23846 -0.120549"/>
<path d="M-20.8179 -2.38663l-1.08443 -0.19406l-0.386009 -0.69454l0.159149 -0.357638l0.505663 -0.185718l1.1064 -0.729961"/>
<path d="M-20.6635 -1.15393l-0.884663 -0.454579l0.0816537 -0.4244"/>
<path d="M-20.4463 -0.715418l-0.217162 -0.43851"/>
<path d="M-20.4467 23.7859l-0.75259 0.439479l-1.36631 0.126707l-0.49488 0.887603l-0.911263 0.587509l-1.08445 0.688985l-0.69934 -0.568908l0.092434 -1.39192l-0.836157 -0.914628l0.131493 -0.907251l0.683396 -1.10554l0.587137 -1.75983l0.471272 -0.725024l0.84415 -0.746896l0.489879 -1.26257l0.843132 -0.401794l0.160504 -0.520077l1.43838 -0.48904"/>
</g>
</g>
</g>
</g>
<g inkscape:groupmode="layer" inkscape:label="Coastline" id="Coastline"><title>Coastline</title>
<g>
<g id="drawing" transform="translate(95.8346,-76.1887)">
<g stroke-width="1px" stroke="rgb(51,51,51)" fill="none">
<path d="M-95.8346 76.1887l0 -190.4l75.4199 0l0 190.4l-75.4199 0"/>
</g>
</g>
</g>
</g>
<g id="Clone of page">
</g>
</g>
</g><!--ePage-->
</svg>
