<?xml version="1.0" ?>
<svg version="1.1" encoding="iso-8859-1" baseProfile="full"
xmlns:dc="http://purl.org/dc/elements/1.1/"
xmlns:cc="http://creativecommons.org/ns#"
xmlns:rdf="http://www.w3.org/1999/02/22-rdf-syntax-ns#"
xmlns="http://www.w3.org/2000/svg"
xmlns:xlink="http://www.w3.org/1999/xlink"
xmlns:ev="http://www.w3.org/2001/xml-events"
xmlns:sodipodi="http://sodipodi.sourceforge.net/DTD/sodipodi-0.dtd"
xmlns:inkscape="http://www.inkscape.org/namespaces/inkscape"
inkscape:version="0.46"
inkscape:output_extension="org.inkscape.output.svg.inkscape"
viewBox="0 0 681 232" xml:space="preserve">
<title>Magics plot</title>
<metadata id="MAGICSmetadata">
<rdf:RDF><cc:Work rdf:about="">
	<dc:format>image/svg+xml</dc:format>
	<dc:title>Magics plot</dc:title>
	<dc:author>baudouin on Baudouins-iMac-3.local</dc:author>
	<dc:date>Mon Nov  9 09:53:39 2020</dc:date>
	<dc:language>en-GB</dc:language>
	<dc:publisher><cc:Agent>
	 <dc:title>Magics 4.5.1 (64 bit)</dc:title>
	</cc:Agent></dc:publisher>
	<dc:coverage>Plot of meteorological data</dc:coverage>
</cc:Work></rdf:RDF>
</metadata>
<g id="page" transform="translate(0,231.688)" vector-effect="non-scaling-stroke">
<g id="Page0">
<g inkscape:groupmode="layer" inkscape:label="Coastline" id="Coastline"><title>Coastline</title>
<g>
<g id="drawing" transform="translate(957.089,163.165)">
</g>
</g>
</g>
<g inkscape:groupmode="layer" inkscape:label="Coastline" id="Coastline"><title>Coastline</title>
<g>
<g id="drawing" transform="translate(957.089,163.165)">
<g fill-rule="evenodd" stroke="none">
<path fill="rgb(255,225,170)" d="M-702.531 -189.682l7.94062 0.0624156l2.70211 -2.65959l-1.90189 -2.0954l-5.39168 -0.92914l-8.63127 -0.0615981l-1.49524 1.54157l0.614612 4.51378l6.16274 -0.372038"/>
<path fill="rgb(255,225,170)" d="M-811.208 -188.484l7.41459 -0.196512l-1.7479 -2.88854l-5.604 -2.5334l-7.09897 -0.945766l-2.40257 -0.355411l-4.4342 0.735081l-1.26574 2.41102l6.03055 3.84357l5.90381 1.69284l3.20443 -1.76289"/>
<path fill="rgb(255,225,170)" d="M-748.945 -192.862l3.48789 -1.51432l1.60508 2.55902l4.04962 -0.650044l1.90189 -1.92397l3.4699 0.502046l4.84221 -0.442358l5.01719 2.29437l3.91743 -4.29383l-5.18427 -3.87001l-4.6934 -0.381032l0.339876 -3.14365l-5.77135 0.210412l-1.91524 -3.74191l-2.78006 0.264923l-6.24832 -2.71519l-8.23416 -0.0487869l-1.31917 1.79805l-9.14885 -1.65659l-6.43584 -0.46607l-2.37586 2.9128l6.65525 1.64514l-0.0795865 4.02918l4.81823 4.56966l-3.79805 2.34833l-7.95997 -0.846556l-9.70868 -1.46471l-0.929414 3.4004l5.64979 3.28647l4.93543 -1.97166l6.43611 0.762609l4.97822 -0.731538l7.00603 1.79287l0.534208 3.0319l2.71574 1.6773l4.22215 -7.22325"/>
<path fill="rgb(255,225,170)" d="M-805.102 -210.474l7.26768 0.834563l7.10006 -0.52385l7.0142 -1.33906l1.2513 -2.47098l-7.97332 -4.31727l-7.77599 -0.434453l0.768332 -2.96976l-6.29111 -2.15128l-3.47262 0.144999l-6.56749 -4.75772l-8.93326 -6.53314l-3.73564 -2.47861l-9.85286 1.19161l-4.19871 -3.86183l-9.90765 -3.59364l-8.28785 -0.119107l-9.1107 -0.752524l-2.55575 1.1589l-7.98641 1.00954l-5.38705 2.05616l-4.76917 2.34561l-2.28592 3.80596l-5.56803 3.25867l4.51351 1l5.22025 -1.15345l1.51214 -2.57374l4.37069 -0.147179l7.57976 -5.48135l10.347 0.539931l-3.95559 2.63561l3.68195 2.05752l13.749 1.63478l3.16518 2.2126l9.83624 2.82858l5.96132 -0.410741l2.50042 6.00739l3.64488 3.04498l6.79998 0.7051l4.29901 2.74l-7.07144 5.88474l15.1036 -1.02753"/>
<path fill="rgb(255,225,170)" d="M-817.876 -250.63l-0.0563291 -6.12078l-3.69198 -8.75527l-3.17373 -0.425105l-2.29547 6.69473l3.94968 3.05369l2.67985 6.07753l2.58797 -0.524789"/>
<path fill="rgb(255,225,170)" d="M-820.886 -280.38l-0.316457 -2.74262l-6.96202 -0.316457l-4.95781 0.843883l0.738397 3.90295l11.4979 -1.68776"/>
<path fill="rgb(255,225,170)" d="M-812.236 -280.485l-8.33333 -4.74683l0.0208861 1.21139l4.72595 4.16835l-0.173101 5.51319l1.93945 1.352l1.82015 -7.4981"/>
<path fill="rgb(255,225,170)" d="M-847.901 -265.889l2.63198 -6.44088l0.458408 -4.1012l0.332216 -7.11433l-4.99484 -12.236l-0.0585886 -4.55703l-4.68773 -7.46844l-3.52047 -9.02329l-1.86389 -7.32679l1.62567 -7.49355l4.97166 -6.25353l5.94642 -5.02059l11.5799 -6.84843l1.50721 -3.53978l5.34058 -3.87393l5.26847 -0.676666l6.93341 -6.18786l10.9123 -3.12644l6.70485 -7.82963l-1.4821 -10.555l-1.09516 -3.64923l-3.02665 -0.730103l-0.221097 -4.91043h-152.451v87.444l6.0907 0.261806l3.95892 -2.00038l3.91449 1.55485l2.01068 -1.38552l-2.24053 -2.08472l0.171903 -4.27826l-2.01712 -2.97514l4.4772 -1.47437l8.04531 -0.725597l9.36194 1.16469l11.9225 -1.325l6.61407 2.60945l5.11845 4.92209l1.88771 0.525365l10.6419 -4.78688l4.11794 1.61795l8.22365 8.82499l2.95325 5.80156l-2.1652 7.0023l1.58447 4.12631l4.90599 8.06977l5.59038 9.07158l4.00849 2.4266l1.66559 4.6285l5.19121 1.27865l3.15413 -1.33144z
M-853.718 -282.946L-853.583 -285.537L-851.199 -285.175L-851.334 -282.584L-853.718 -282.946"/>
<path fill="rgb(255,225,170)" d="M-799.458 -394.852h-1.71857l-0.840323 1.84901l0.959951 0.419777l1.59894 -2.26879"/>
<path fill="rgb(255,225,170)" d="M-886.74 -165.067l-3.2198 -1.97012l-1.6746 -0.234354l-4.81779 -1.46214l-2.09567 0.913596l-2.75946 0.249162l-2.52446 -0.717228l-3.3608 -0.546612l-1.23744 1.18143l-3.39363 1.16662l-4.87637 0.276204l-4.89955 -0.951582l-1.63726 0.523435l-0.977979 -0.860802l-3.01892 0.151944l-2.31328 1.85423l-1.0958 -0.411407l-3.09425 -1.34818l-0.910377 1.57223l-3.4387 -1.90767l2.09052 -3.65374l1.90509 -0.335436l2.07185 -2.79938l1.22264 -5.32899l-0.665722 -1.00888l1.10481 -3.77414l-0.921966 -1.63276l1.70744 -4.56154l0.175121 -2.86891l-1.99909 -0.0482869l-0.0386297 -1.54906l2.20898 -0.175122l2.67254 2.70924l2.64486 -8.23009l1.57996 -4.5609l-1.94372 -1.83556l2.50708 -6.42414l5.66893 -6.27027l0.357326 -5.07982l-2.53025 -2.23667l-6.39775 0.892349l-9.3407 -0.366983l-11.1544 2.4472l-7.14459 2.76203l-1.82333 3.08395l-0.865309 8.86104l-2.09379 5.12615v41.282h72.7996l-2.45135 -1.90206"/>
</g>
<g stroke-width="0.5px" stroke="rgb(209,179,139)" fill="none">
<path d="M-691.888 -192.279l-2.70211 2.65959l-7.94062 -0.0624151l-6.16274 0.372038l-0.614612 -4.51378l1.49524 -1.54157l8.63127 0.0615974l5.39168 0.92914l1.90189 2.0954"/>
<path d="M-811.208 -188.484l-3.20443 1.76289l-5.90381 -1.69284l-6.03055 -3.84357l1.26575 -2.41102l4.4342 -0.735081l2.40257 0.355412l7.09897 0.945766l5.604 2.5334l1.7479 2.88854l-7.41459 0.196512"/>
<path d="M-765.608 -209.615l9.14885 1.65659l1.31917 -1.79805l8.23416 0.0487873l6.24832 2.71519l2.78006 -0.264923l1.91524 3.74191l5.77135 -0.210412l-0.339876 3.14365l4.6934 0.381032l5.18427 3.87001l-3.91743 4.29383l-5.01719 -2.29437l-4.84221 0.442357l-3.4699 -0.502046l-1.90189 1.92397l-4.04962 0.650044l-1.60508 -2.55902l-3.48789 1.51432l-4.22215 7.22325l-2.71574 -1.6773l-0.534208 -3.0319l-7.00603 -1.79287l-4.97822 0.731538l-6.43611 -0.762609l-4.93543 1.97166l-5.64979 -3.28647l0.929413 -3.4004l9.70868 1.46471l7.95997 0.846556l3.79805 -2.34833l-4.81823 -4.56966l0.0795861 -4.02918l-6.65525 -1.64514l2.37586 -2.9128l6.43584 0.466069"/>
<path d="M-840.501 -240.14l4.19871 3.86183l9.85286 -1.19161l3.73564 2.47862l8.93326 6.53314l6.56749 4.75772l3.47262 -0.144999l6.29112 2.15128l-0.768333 2.96976l7.77599 0.434453l7.97332 4.31727l-1.2513 2.47098l-7.0142 1.33906l-7.10006 0.523851l-7.26768 -0.834563l-15.1036 1.02753l7.07144 -5.88474l-4.29901 -2.74l-6.79998 -0.7051l-3.64488 -3.04498l-2.50042 -6.00739l-5.96132 0.41074l-9.83624 -2.82858l-3.16518 -2.2126l-13.749 -1.63479l-3.68195 -2.05752l3.95559 -2.63561l-10.347 -0.539931l-7.57976 5.48135l-4.37069 0.14718l-1.51214 2.57374l-5.22025 1.15345l-4.51351 -1l5.56803 -3.25867l2.28592 -3.80596l4.76917 -2.34561l5.38705 -2.05616l7.98641 -1.00954l2.55575 -1.1589l9.1107 0.752524l8.28785 0.119107l9.90765 3.59364"/>
<path d="M-817.876 -250.63l-2.58797 0.524789l-2.67985 -6.07753l-3.94968 -3.05369l2.29546 -6.69473l3.17373 0.425105l3.69198 8.75527l0.0563291 6.12078"/>
<path d="M-820.886 -280.38l-11.4979 1.68776l-0.738397 -3.90295l4.95781 -0.843882l6.96203 0.316456l0.316456 2.74262"/>
<path d="M-812.236 -280.485l-1.82015 7.4981l-1.93945 -1.352l0.173101 -5.51319l-4.72595 -4.16835l-0.0208861 -1.21139l8.33333 4.74684"/>
<path d="M-801.057 -392.584l-0.959952 -0.419778"/>
<path d="M-804.417 -389.942l3.02665 0.730104l1.09516 3.64923l1.4821 10.555l-6.70485 7.82963l-10.9123 3.12644l-6.93341 6.18786l-5.26847 0.676666l-5.34058 3.87393l-1.50721 3.53978l-11.5799 6.84843l-5.94642 5.02059l-4.97166 6.25353l-1.62567 7.49355l1.86389 7.32679l3.52047 9.02329l4.68773 7.46844l0.0585886 4.55703l4.99484 12.236l-0.332217 7.11433l-0.458408 4.1012l-2.63198 6.44088l-3.15413 1.33144l-5.19121 -1.27865l-1.66559 -4.6285l-4.00849 -2.4266l-5.59038 -9.07158l-4.90599 -8.06977l-1.58447 -4.12631l2.1652 -7.0023l-2.95325 -5.80156l-8.22365 -8.82499l-4.11794 -1.61795l-10.6419 4.78688l-1.88771 -0.525366l-5.11845 -4.92209l-6.61407 -2.60945l-11.9225 1.325l-9.36194 -1.16469l-8.04531 0.725597l-4.4772 1.47437l2.01712 2.97514l-0.171903 4.27826l2.24053 2.08472l-2.01068 1.38552l-3.91449 -1.55485l-3.95892 2.00038"/>
<path d="M-954.995 -209.573l0.865309 -8.86104l1.82333 -3.08395l7.14459 -2.76203l11.1544 -2.4472l9.3407 0.366984l6.39775 -0.892349l2.53025 2.23667l-0.357326 5.07982l-5.66893 6.27027l-2.50708 6.42414l1.94373 1.83556l-1.57996 4.5609l-2.64486 8.23009l-2.67254 -2.70924l-2.20898 0.175122l0.0386298 1.54906l1.99909 0.0482873l-0.175122 2.86891l-1.70744 4.56154l0.921966 1.63275l-1.10481 3.77414l0.665721 1.00888l-1.22263 5.32899l-2.07185 2.79938l-1.9051 0.335436l-2.09052 3.65374l3.4387 1.90767l0.910377 -1.57223l3.09425 1.34818l1.0958 0.411408l2.31328 -1.85423l3.01892 -0.151944l0.977979 0.860802l1.63726 -0.523434l4.89955 0.951582l4.87637 -0.276203l3.39363 -1.16662l1.23744 -1.18143l3.3608 0.546612l2.52446 0.717227l2.75946 -0.249163l2.09567 -0.913596l4.81779 1.46214l1.6746 0.234354l3.2198 1.97012"/>
<path d="M-851.334 -282.584l0.13437 -2.59145l-2.38404 -0.361681l-0.13437 2.59118l2.38404 0.361953"/>
</g>
<g stroke-width="0.5px" stroke="rgb(127,127,127)" fill="none">
<path d="M-930.644 -165.904l-3.27254 2.73966"/>
<path d="M-940.328 -187.851l-9.75601 -0.116139l-7.00485 0.0129061"/>
<path d="M-957.089 -176.161l0.212869 0.132947l1.17068 2.28597l1.70854 0.639768l-0.270148 3.59241l-2.82194 0.00655169"/>
<path d="M-931.435 -195.148l-2.00527 0.138819l-3.77869 6.36741l-1.91466 -1.2481l-1.277 0.485865l0.0827004 1.55222l-0.0815401 8.36224l-0.826266 11.9053l3.14884 -0.00348101"/>
<path d="M-756.417 -190.348l0.217089 -2.86551l-2.71498 -3.16719l2.57173 -1.77785l0.806224 -4.05496l-0.922889 -5.74462"/>
</g>
</g>
</g>
</g>
<g inkscape:groupmode="layer" inkscape:label="no_name" id="no_name"><title>no_name</title>
<g>
<g id="drawing" transform="translate(957.089,163.165)">
<g stroke-width="0.5px" stroke="rgb(254,0,0)" fill="none">
</g>
<g stroke="rgb(254,0,0)" fill="rgb(254,0,0)">
<circle cx="-283" cy="-169" r="1.5"/>
<circle cx="-298" cy="-170" r="1.5"/>
<circle cx="-313" cy="-171" r="1.5"/>
<circle cx="-324" cy="-171" r="1.5"/>
<circle cx="-334" cy="-171" r="1.5"/>
<circle cx="-342" cy="-172" r="1.5"/>
<circle cx="-352" cy="-176" r="1.5"/>
<circle cx="-360" cy="-180" r="1.5"/>
<circle cx="-370" cy="-184" r="1.5"/>
<circle cx="-380" cy="-188" r="1.5"/>
<circle cx="-393" cy="-194" r="1.5"/>
<circle cx="-406" cy="-198" r="1.5"/>
<circle cx="-418" cy="-201" r="1.5"/>
<circle cx="-433" cy="-201" r="1.5"/>
<circle cx="-449" cy="-199" r="1.5"/>
<circle cx="-465" cy="-197" r="1.5"/>
<circle cx="-479" cy="-195" r="1.5"/>
<circle cx="-492" cy="-191" r="1.5"/>
<circle cx="-505" cy="-188" r="1.5"/>
<circle cx="-518" cy="-185" r="1.5"/>
<circle cx="-531" cy="-182" r="1.5"/>
<circle cx="-543" cy="-179" r="1.5"/>
<circle cx="-554" cy="-177" r="1.5"/>
<circle cx="-568" cy="-176" r="1.5"/>
<circle cx="-581" cy="-175" r="1.5"/>
<circle cx="-594" cy="-175" r="1.5"/>
<circle cx="-609" cy="-176" r="1.5"/>
<circle cx="-624" cy="-178" r="1.5"/>
<circle cx="-639" cy="-182" r="1.5"/>
<circle cx="-651" cy="-186" r="1.5"/>
<circle cx="-652" cy="-186" r="1.5"/>
<circle cx="-665" cy="-190" r="1.5"/>
<circle cx="-667" cy="-190" r="1.5"/>
<circle cx="-679" cy="-195" r="1.5"/>
<circle cx="-682" cy="-196" r="1.5"/>
<circle cx="-698" cy="-202" r="1.5"/>
<circle cx="-713" cy="-207" r="1.5"/>
<circle cx="-727" cy="-213" r="1.5"/>
<circle cx="-742" cy="-218" r="1.5"/>
<circle cx="-757" cy="-222" r="1.5"/>
<circle cx="-770" cy="-226" r="1.5"/>
<circle cx="-772" cy="-226" r="1.5"/>
<circle cx="-787" cy="-229" r="1.5"/>
<circle cx="-801" cy="-232" r="1.5"/>
<circle cx="-814" cy="-233" r="1.5"/>
<circle cx="-821" cy="-235" r="1.5"/>
<circle cx="-825" cy="-236" r="1.5"/>
<circle cx="-836" cy="-239" r="1.5"/>
<circle cx="-845" cy="-243" r="1.5"/>
<circle cx="-853" cy="-246" r="1.5"/>
<circle cx="-857" cy="-250" r="1.5"/>
<circle cx="-859" cy="-258" r="1.5"/>
<circle cx="-859" cy="-260" r="1.5"/>
<circle cx="-861" cy="-270" r="1.5"/>
<circle cx="-861" cy="-273" r="1.5"/>
<circle cx="-861" cy="-282" r="1.5"/>
<circle cx="-867" cy="-297" r="1.5"/>
<circle cx="-872" cy="-312" r="1.5"/>
<circle cx="-880" cy="-325" r="1.5"/>
<circle cx="-890" cy="-336" r="1.5"/>
<circle cx="-902" cy="-347" r="1.5"/>
<circle cx="-916" cy="-356" r="1.5"/>
<circle cx="-929" cy="-367" r="1.5"/>
<circle cx="-937" cy="-375" r="1.5"/>
<circle cx="-944" cy="-381" r="1.5"/>
<circle cx="-950" cy="-388" r="1.5"/>
</g>
<g stroke-width="0.5px" stroke="rgb(254,0,0)" fill="none">
<path d="M-283.755 -169.831l-14.7679 -1.05485l-14.7679 -1.05485l-21.097 0l-8.43882 -1.05485l-9.49367 -3.16456l-8.43882 -4.21941l-9.49367 -4.21941l-10.5485 -4.21941l-12.6582 -5.27426l-12.6582 -4.21941l-12.6582 -3.16456l-14.7679 0l-15.8228 2.1097l-15.8228 2.1097l-14.7679 2.1097l-12.6582 3.16456l-12.6582 3.16456l-13.7131 3.16456l-12.6582 3.16456l-11.6034 3.16456l-11.6034 2.1097l-13.7131 1.05485l-12.6582 1.05485l-13.7131 0l-14.7679 -1.05485l-14.7679 -2.1097l-14.7679 -4.21941l-12.6582 -4.21941l-1.05485 0l-12.6582 -4.21941l-2.1097 0l-11.6034 -4.21941l-3.16456 -1.05485l-15.8228 -6.32911l-14.7679 -5.27426l-14.7679 -5.27426l-14.7679 -5.27426l-14.7679 -4.21941l-12.6582 -4.21941l-2.1097 0l-15.8228 -3.16456l-13.7131 -2.1097l-12.6582 -1.05485l-7.38397 -2.1097l-4.21941 -1.05485l-10.5485 -3.16456l-9.49367 -4.21941l-7.38397 -3.16456l-4.21941 -3.16456l-2.1097 -8.43882l0 -2.1097l-2.1097 -9.49367l0 -12.6582l-5.27426 -14.7679l-5.27426 -14.7679l-8.43882 -13.7131l-9.49367 -10.5485l-12.6582 -10.5485l-13.7131 -9.49367l-12.6582 -10.5485l-8.43882 -8.43882l-6.32911 -6.32911l-6.32911 -6.32911"/>
</g>
</g>
</g>
</g>
<g inkscape:groupmode="layer" inkscape:label="Coastline" id="Coastline"><title>Coastline</title>
<g>
<g id="drawing" transform="translate(957.089,163.165)">
<g stroke-width="0.5px" stroke="rgb(0,0,0)" fill="none">
<path d="M-691.888 -192.279l-2.70211 2.65959l-7.94062 -0.0624151l-6.16274 0.372038l-0.614612 -4.51378l1.49524 -1.54157l8.63127 0.0615974l5.39168 0.92914l1.90189 2.0954"/>
<path d="M-811.208 -188.484l-3.20443 1.76289l-5.90381 -1.69284l-6.03055 -3.84357l1.26575 -2.41102l4.4342 -0.735081l2.40257 0.355412l7.09897 0.945766l5.604 2.5334l1.7479 2.88854l-7.41459 0.196512"/>
<path d="M-765.608 -209.615l9.14885 1.65659l1.31917 -1.79805l8.23416 0.0487873l6.24832 2.71519l2.78006 -0.264923l1.91524 3.74191l5.77135 -0.210412l-0.339876 3.14365l4.6934 0.381032l5.18427 3.87001l-3.91743 4.29383l-5.01719 -2.29437l-4.84221 0.442357l-3.4699 -0.502046l-1.90189 1.92397l-4.04962 0.650044l-1.60508 -2.55902l-3.48789 1.51432l-4.22215 7.22325l-2.71574 -1.6773l-0.534208 -3.0319l-7.00603 -1.79287l-4.97822 0.731538l-6.43611 -0.762609l-4.93543 1.97166l-5.64979 -3.28647l0.929413 -3.4004l9.70868 1.46471l7.95997 0.846556l3.79805 -2.34833l-4.81823 -4.56966l0.0795861 -4.02918l-6.65525 -1.64514l2.37586 -2.9128l6.43584 0.466069"/>
<path d="M-840.501 -240.14l4.19871 3.86183l9.85286 -1.19161l3.73564 2.47862l8.93326 6.53314l6.56749 4.75772l3.47262 -0.144999l6.29112 2.15128l-0.768333 2.96976l7.77599 0.434453l7.97332 4.31727l-1.2513 2.47098l-7.0142 1.33906l-7.10006 0.523851l-7.26768 -0.834563l-15.1036 1.02753l7.07144 -5.88474l-4.29901 -2.74l-6.79998 -0.7051l-3.64488 -3.04498l-2.50042 -6.00739l-5.96132 0.41074l-9.83624 -2.82858l-3.16518 -2.2126l-13.749 -1.63479l-3.68195 -2.05752l3.95559 -2.63561l-10.347 -0.539931l-7.57976 5.48135l-4.37069 0.14718l-1.51214 2.57374l-5.22025 1.15345l-4.51351 -1l5.56803 -3.25867l2.28592 -3.80596l4.76917 -2.34561l5.38705 -2.05616l7.98641 -1.00954l2.55575 -1.1589l9.1107 0.752524l8.28785 0.119107l9.90765 3.59364"/>
<path d="M-817.876 -250.63l-2.58797 0.524789l-2.67985 -6.07753l-3.94968 -3.05369l2.29546 -6.69473l3.17373 0.425105l3.69198 8.75527l0.0563291 6.12078"/>
<path d="M-820.886 -280.38l-11.4979 1.68776l-0.738397 -3.90295l4.95781 -0.843882l6.96203 0.316456l0.316456 2.74262"/>
<path d="M-812.236 -280.485l-1.82015 7.4981l-1.93945 -1.352l0.173101 -5.51319l-4.72595 -4.16835l-0.0208861 -1.21139l8.33333 4.74684"/>
<path d="M-801.057 -392.584l-0.959952 -0.419778"/>
<path d="M-804.417 -389.942l3.02665 0.730104l1.09516 3.64923l1.4821 10.555l-6.70485 7.82963l-10.9123 3.12644l-6.93341 6.18786l-5.26847 0.676666l-5.34058 3.87393l-1.50721 3.53978l-11.5799 6.84843l-5.94642 5.02059l-4.97166 6.25353l-1.62567 7.49355l1.86389 7.32679l3.52047 9.02329l4.68773 7.46844l0.0585886 4.55703l4.99484 12.236l-0.332217 7.11433l-0.458408 4.1012l-2.63198 6.44088l-3.15413 1.33144l-5.19121 -1.27865l-1.66559 -4.6285l-4.00849 -2.4266l-5.59038 -9.07158l-4.90599 -8.06977l-1.58447 -4.12631l2.1652 -7.0023l-2.95325 -5.80156l-8.22365 -8.82499l-4.11794 -1.61795l-10.6419 4.78688l-1.88771 -0.525366l-5.11845 -4.92209l-6.61407 -2.60945l-11.9225 1.325l-9.36194 -1.16469l-8.04531 0.725597l-4.4772 1.47437l2.01712 2.97514l-0.171903 4.27826l2.24053 2.08472l-2.01068 1.38552l-3.91449 -1.55485l-3.95892 2.00038"/>
<path d="M-954.995 -209.573l0.865309 -8.86104l1.82333 -3.08395l7.14459 -2.76203l11.1544 -2.4472l9.3407 0.366984l6.39775 -0.892349l2.53025 2.23667l-0.357326 5.07982l-5.66893 6.27027l-2.50708 6.42414l1.94373 1.83556l-1.57996 4.5609l-2.64486 8.23009l-2.67254 -2.70924l-2.20898 0.175122l0.0386298 1.54906l1.99909 0.0482873l-0.175122 2.86891l-1.70744 4.56154l0.921966 1.63275l-1.10481 3.77414l0.665721 1.00888l-1.22263 5.32899l-2.07185 2.79938l-1.9051 0.335436l-2.09052 3.65374l3.4387 1.90767l0.910377 -1.57223l3.09425 1.34818l1.0958 0.411408l2.31328 -1.85423l3.01892 -0.151944l0.977979 0.860802l1.63726 -0.523434l4.89955 0.951582l4.87637 -0.276203l3.39363 -1.16662l1.23744 -1.18143l3.3608 0.546612l2.52446 0.717227l2.75946 -0.249163l2.09567 -0.913596l4.81779 1.46214l1.6746 0.234354l3.2198 1.97012"/>
<path d="M-851.334 -282.584l0.13437 -2.59145l-2.38404 -0.361681l-0.13437 2.59118l2.38404 0.361953"/>
</g>
</g>
</g>
</g>
<g inkscape:groupmode="layer" inkscape:label="Coastline" id="Coastline"><title>Coastline</title>
<g>
<g id="drawing" transform="translate(957.089,163.165)">
<g stroke-width="1px" stroke="rgb(51,51,51)" fill="none">
<path d="M-957.089 -163.165l0 -231.688l680 0l0 231.688l-680 0"/>
</g>
</g>
</g>
</g>
<g id="Clone of page">
</g>
</g>
</g><!--ePage-->
</svg>
