<?xml version="1.0" ?>
<svg version="1.1" encoding="iso-8859-1" baseProfile="full"
xmlns:dc="http://purl.org/dc/elements/1.1/"
xmlns:cc="http://creativecommons.org/ns#"
xmlns:rdf="http://www.w3.org/1999/02/22-rdf-syntax-ns#"
xmlns="http://www.w3.org/2000/svg"
xmlns:xlink="http://www.w3.org/1999/xlink"
xmlns:ev="http://www.w3.org/2001/xml-events"
xmlns:sodipodi="http://sodipodi.sourceforge.net/DTD/sodipodi-0.dtd"
xmlns:inkscape="http://www.inkscape.org/namespaces/inkscape"
inkscape:version="0.46"
inkscape:output_extension="org.inkscape.output.svg.inkscape"
viewBox="0 0 681 421" xml:space="preserve">
<title>Magics plot</title>
<metadata id="MAGICSmetadata">
<rdf:RDF><cc:Work rdf:about="">
	<dc:format>image/svg+xml</dc:format>
	<dc:title>Magics plot</dc:title>
	<dc:author>baudouin on Baudouins-iMac-3.local</dc:author>
	<dc:date>Mon Nov  9 09:53:40 2020</dc:date>
	<dc:language>en-GB</dc:language>
	<dc:publisher><cc:Agent>
	 <dc:title>Magics 4.5.1 (64 bit)</dc:title>
	</cc:Agent></dc:publisher>
	<dc:coverage>Plot of meteorological data</dc:coverage>
</cc:Work></rdf:RDF>
</metadata>
<g id="page" transform="translate(0,420.944)" vector-effect="non-scaling-stroke">
<g id="Page1">
<g inkscape:groupmode="layer" inkscape:label="Coastline" id="Coastline"><title>Coastline</title>
<g>
<g id="drawing" transform="translate(-5143.69,-813.305)">
</g>
</g>
</g>
<g inkscape:groupmode="layer" inkscape:label="Coastline" id="Coastline"><title>Coastline</title>
<g>
<g id="drawing" transform="translate(-5143.69,-813.305)">
<g fill-rule="evenodd" stroke="none">
<path fill="rgb(255,225,170)" d="M5753.82 545.515l2.59889 -2.12751l2.14636 0.57823l1.81639 -0.12256l1.56499 -2.78744l4.72639 -3.24625l3.15826 -0.0754228l0.735357 0.248263l0.72907 1.66241l0.93334 0.7165l1.42672 0.46824l1.48328 -0.0157133l3.97532 -0.612795l4.0476 -1.39844l3.41281 -0.213692l3.44737 0.241975l-1.21931 -2.49204l0.512236 -2.68373l0.663079 -1.02761l0.122556 -1.03704l-1.46128 -0.0314235l-1.41415 0.612798l-4.63212 3.03884l-4.14816 3.71764l-0.128844 -3.55737l1.76926 -3.51337l4.15131 -2.62088l1.47071 -2.4449l1.7504 -2.20921l4.85838 -4.28329l0.025142 -0.502808l-4.88666 1.97352l-1.90753 0.232547l-2.37577 -0.446242l-2.56746 0.502808l-2.68688 0.857917l-2.4669 1.42357l-3.73021 2.75916l-2.11179 0.603369l-2.21864 0.210549l-4.28643 1.04019l-4.21102 1.45814l-3.05141 1.84153l-1.95152 2.94143l-1.94838 0.0879889l-1.87296 1.0119l-1.67498 -0.549948l-1.63098 -0.857914l-0.509092 1.35129l-0.829634 1.17846l-0.908195 0.82335l-0.524806 1.98923l3.41909 0.408531l1.10618 1.63098l0.867342 2.21235l1.33873 1.80696l3.09855 -0.773066"/>
<path fill="rgb(255,225,170)" d="M5703.34 551.787l1.33873 -1.35758l0.373963 -1.81011l-0.961619 0.179125l-0.587656 0.166556l-0.936481 0.801348l-0.879915 2.56118l1.65298 -0.540516"/>
<path fill="rgb(255,225,170)" d="M5730.04 587.292l3.09541 -0.00628469l2.69002 -2.13065l2.82515 -1.56813l2.95714 -0.355109l1.21302 0.474525l0.823346 -0.857917l3.56051 -0.106846l2.26263 -0.905054l-1.6027 -4.7641l-0.452527 -3.00742l-0.930193 -2.89743l0.669363 -1.61841l-0.131988 -1.53042l-2.19978 -1.79125l-3.61393 -2.3412l-2.32863 -2.72145l-0.936481 -0.100562l-0.942765 -0.615939v-1.42357l-1.06218 -1.37958l-1.91695 -0.518521l-1.92952 0.845348l-6.03055 1.79754l-3.93447 -0.213692l-6.43594 2.33491l-3.65164 2.52661l-3.34053 2.96342l0.15713 1.6247l0.568799 1.77554l-0.395958 0.52795l-0.81078 0.276543l-0.622223 0.76364l-0.201123 1.09361l-1.41101 0.83906l-1.6844 0.559373l-0.292256 1.65612l0.276543 1.7284l1.86353 3.50394l1.98923 1.38901l2.38519 0.886197l5.76343 1.0559l4.32415 1.23817l2.45433 1.1376l3.48823 0.2954l3.49137 -0.439958"/>
<path fill="rgb(255,225,170)" d="M5368.7 719.392l2.09294 -0.0691348l2.26263 -0.980477l1.0936 -1.97352l-1.99237 -5.51517l-3.93447 -2.35377l-4.19844 -2.05837l-3.2871 -2.58003l-3.04199 -2.89743l-6.10283 -4.68554l-7.90037 -4.9338l-3.48508 -1.33558l-2.06466 -1.71269l-2.01123 -0.817062l-1.55242 -1.67498l-3.59822 -1.433l-2.58632 -2.8063l-4.35243 -3.19911l-0.857914 -1.21617l-0.257689 -1.97666l-1.02761 -1.46443l-2.37891 -1.57127l-1.74726 -2.22178l-1.94838 -1.5807l-2.5706 -0.782494l-4.38386 -2.04266l-12.4728 -9.65076l-4.89609 -3.1834l-3.88733 0.857917l-3.62964 -2.02066l-4.59126 -3.36567l-0.615939 1.00876l-0.103705 1.95467l0.892484 1.44871l1.88553 0.845348l1.10932 1.38586l-0.191694 2.15579l0.565658 2.09922l4.60698 4.90866l1.98295 3.42852l2.58003 2.89114l3.37195 2.47004l3.09541 2.77487l6.42337 6.74077l2.32234 2.84086l2.66174 1.19103l7.46041 6.39194l2.78744 1.75669l3.18655 1.12503l6.1971 3.51337l3.97847 1.70955l2.56118 2.46061l3.52594 1.74412l5.24805 1.56499l0.88934 1.0339l0.625367 1.79125l1.07789 1.43929l3.72078 2.12122l3.99418 1.32301l0.685077 1.1376l0.974189 0.788779l1.74411 -0.219977l1.5587 0.524806l6.54907 3.56051l1.95781 -0.666219"/>
<path fill="rgb(255,225,170)" d="M5823.69 577.063l-0.70079 -0.389561l-1.01033 0.76364l0.488668 0.908195l0.791923 0.51538l0.430529 0.0707438v-1.8684"/>
<path fill="rgb(255,225,170)" d="M5793.15 544.635l3.44737 -2.39776l1.46286 -2.73402l-1.24445 -2.47947l-1.04961 0.389677l-3.42223 2.7403v2.35691l-0.00157037 1.57756v1.77554l0.807633 -1.22874"/>
<path fill="rgb(255,225,170)" d="M5794.61 531.056l0.0675645 -0.76364l0.850059 -1.53042l-1.37486 0.317398l-1.81168 1.52728l-0.00157037 0.773069v0.873627l2.27049 -1.19731"/>
<path fill="rgb(255,225,170)" d="M5792.34 545.867l-0.025142 -3.35624l0.025142 -2.35063l-2.22178 2.90372l-1.09361 2.83458l0.930196 1.16588l2.38519 -1.19731"/>
<path fill="rgb(255,225,170)" d="M5773.76 558.858l0.798208 -1.94838l-0.461956 -1.11561l-0.810777 -0.458812l-1.10932 -0.0377114l0.509092 4.43099l1.07475 -0.870486"/>
<path fill="rgb(255,225,170)" d="M5771.41 582.528l0.4211 -1.19417l-0.788779 -2.43547l-1.0119 -1.46443l-1.11561 0.857917l-0.493379 0.911339l-0.0942768 1.01504l2.79687 2.5706l0.285974 -0.260832"/>
<path fill="rgb(255,225,170)" d="M5754.62 570.514l0.804492 -1.53671l-0.691361 -2.00809l-1.41415 0.179125l-1.26959 1.97352l0.914482 1.96409l1.65612 -0.571943"/>
<path fill="rgb(255,225,170)" d="M5421.52 540.415l-0.958479 -0.477669l-2.59889 -0.644221l-2.25007 -2.40091l-0.986761 -0.430529l-1.01818 -1.00247l-1.11246 -1.47386l-0.559373 0.194838l-1.49585 1.19103l-0.355106 1.70955l0.77935 2.43547l1.05904 1.23188l0.993043 0.0691348l3.55422 -0.5908l4.42156 1.52099l0.52795 -1.33244"/>
<path fill="rgb(255,225,170)" d="M5415.74 525.704l0.0408553 -1.21617l-0.716503 -1.08732l-1.29473 -1.08104l-1.19417 -3.58879l-1.10932 -1.22874l-3.2054 3.2054l-2.56432 0.490235l-1.78811 1.03704l0.90191 1.40158l2.08037 1.39529l5.17263 1.00247l3.67678 -0.329967"/>
<path fill="rgb(255,225,170)" d="M5423.07 572.736l1.9421 -3.2871l-1.27273 -0.361394l-3.2054 -4.58498l-3.37195 0.317395l-0.691361 -0.260829l-0.710215 0.0314235l-0.782494 0.23569l-2.64603 2.97914l-1.05275 2.11493l0.766781 0.207408l1.6467 -0.609654l1.43614 0.257689l0.90191 1.27588l-1.74411 1.12817l4.75467 0.851629l4.02875 -0.2954"/>
<path fill="rgb(255,225,170)" d="M5403.33 496.724l2.93514 -4.91495l-5.6723 0.927052l-4.89295 4.4907l1.48014 0.832775l3.99103 0.141414l2.15893 -1.477"/>
<path fill="rgb(255,225,170)" d="M5371.97 501.296l5.06265 0.0911329l3.40023 -3.06084l0.0377114 -1.37329l-0.603369 -1.71583l-1.62155 -8.18634l-0.810777 -0.314254l-1.21931 -1.73154l-0.458812 -3.13312l0.685077 -1.24759l-1.57756 -0.417959l-1.2633 0.559373l-0.634793 3.91562l-1.42043 2.49204l-1.23188 0.565658l-2.41348 0.021998l-2.07094 -10.6375l-2.67745 -2.954l-1.76297 -3.17083l-1.30102 0.169696l-1.3293 3.7962l0.0377082 2.90686l3.88105 11.6306l-0.540519 6.25995l2.18407 3.52594l1.93267 1.64669l-0.021998 2.07094l2.1715 0.119416l3.56679 -1.82896"/>
<path fill="rgb(255,225,170)" d="M5413.04 513.923l1.39843 -0.490238l0.367679 -2.0238l-2.71202 -12.3596l-0.757352 -1.49271l-1.19417 7.04873l1.81639 7.87837l0.543663 1.48014l0.537375 -0.0408521"/>
<path fill="rgb(255,225,170)" d="M5412.28 493.273l-0.0722788 -4.24244l-1.6247 -6.77219l-0.691358 0.0691381l-0.345681 0.90191l0.845344 9.72933l1.33244 2.30663l0.556229 -1.99238"/>
<path fill="rgb(255,225,170)" d="M5393.68 530.921l4.77353 0.571943l2.47318 -2.14636l-1.41729 -1.7724l-0.534234 -1.74097l-1.9798 -0.864202l-1.06532 -1.70955l-1.26645 0.0879921l-4.61012 -3.12369l-0.48395 -1.56499h-0.807636l-1.48328 -0.697646l-2.47005 -5.76657l-2.63974 -1.2853l-1.74411 0.267114l-0.53109 1.39844l-1.01504 4.8898l2.14322 2.40719l0.90191 -0.182269l2.23749 -1.09675l1.08104 1.25388l0.999331 2.93514l0.666219 4.98408l1.477 3.26197l-0.345681 0.427385l0.424244 1.27902l2.47947 0.622227l2.73716 -2.43547"/>
<path fill="rgb(255,225,170)" d="M5381.05 505.997l0.496523 -2.54546l-3.71135 -0.722788l-0.782494 2.01752l3.41281 2.08665l0.584515 -0.835919"/>
<path fill="rgb(255,225,170)" d="M5733.2 615.323l0.634796 -0.314254l0.23569 -0.625367l0.713359 -0.829631l2.4669 -2.02066l0.88934 0.207408l1.39529 1.14074l4.14188 -0.917623l0.00628469 -1.38272l-2.17464 -0.751068l-2.76859 -0.524806l-1.67498 0.725929l-2.37577 0.40539l-1.66555 1.8761l-1.69069 1.23188l-1.67812 -0.194838l-1.6467 1.31673l-1.35444 0.659935l1.99866 0.967904l4.54727 -0.971048"/>
<path fill="rgb(255,225,170)" d="M5392.83 458.913l0.452527 -2.48261l-2.97599 -1.33872l-2.16836 0.845344l-0.911342 0.933337l-0.232547 2.70573l0.861058 0.430529l3.63593 0.537375l1.33872 -1.63098"/>
<path fill="rgb(255,225,170)" d="M5389.74 447.53l0.314257 -0.72907l1.42357 -0.367679l0.326827 -0.883056l0.0157133 -1.02133l-0.201123 -1.20045l-2.13065 -2.16207l-2.38833 1.24131l-0.483954 1.29787l1.90753 3.89362l0.744783 0.24826l0.471381 -0.317398"/>
<path fill="rgb(255,225,170)" d="M5467.21 649.599l-1.41415 -1.24445l-0.735357 -0.103705l-2.53604 0.276546l-0.424244 1.57127l2.2375 1.25388l1.74097 0.021998l1.13132 -1.77554"/>
<path fill="rgb(255,225,170)" d="M5454.18 628.796l-4.22673 -2.64917l-0.747927 -4.1356l-1.46757 -0.241975l-1.40472 0.738498l-0.964763 4.23615l1.42986 2.20921l2.74659 2.52661l2.93514 0.813921l1.70012 -3.49766"/>
<path fill="rgb(255,225,170)" d="M5449.13 609.491l-1.22874 -2.3632l-3.0577 -2.28777l1.75669 -1.04018l-2.50147 -1.23188l-1.09989 -3.02627l-1.80068 -0.436814l-2.3192 0.845348l-0.923911 2.05522l0.345681 3.78363l-0.351965 1.48328l8.40317 3.6045l1.29473 0.1697l1.48328 -1.55556"/>
<path fill="rgb(255,225,170)" d="M5410.07 695.59l0.5908 -5.49003l-2.61146 0.103705l-1.51157 -0.593944l-0.524802 -0.741642l-0.311113 -1.19731l0.113131 -1.02447l-2.01123 1.12503l-3.55737 0.637937l2.04894 4.21416l-0.103702 1.88239l2.1055 0.760496l0.820206 1.15331l1.27588 0.0502808l3.67678 -0.879912"/>
<path fill="rgb(255,225,170)" d="M5359.42 666.079l1.35444 -1.18474l1.08418 -2.11179l-0.656791 -0.351965l-0.0597094 -1.92952l0.565658 -1.53985l1.70326 -0.879912l-1.48328 -1.02761l-1.35758 -0.157127l0.0942768 1.19417l-0.829634 3.56051l-0.0597094 1.80068l-2.0678 2.94457l1.71269 -0.317398"/>
<path fill="rgb(255,225,170)" d="M5386.91 680.943l0.945906 -2.36948l0.00942865 -1.02133l-2.24378 -3.64221l-2.16836 -1.62784l0.144558 -5.11607l-0.933337 -1.02761l-2.08979 -0.870486l-4.77039 1.50214l-0.345681 1.2633l2.94142 0.213692l1.70641 1.2036l-2.50147 3.23682l-2.54232 0.593941l1.2853 2.40405l1.97038 2.03951l4.48441 1.16274l2.34749 2.31606l1.75983 -0.260832"/>
<path fill="rgb(255,225,170)" d="M5391.53 728.009l-0.48081 -1.41729l-2.76858 -1.21617l-0.688217 2.48261l0.697646 0.663079l0.955335 0.455671l1.2633 0.251404l1.02133 -1.21931"/>
<path fill="rgb(255,225,170)" d="M5147.2 621.445l0.751068 -2.3632l-0.490238 -3.97847l-1.01818 1.9201l0.263973 5.10978l0.493382 -0.688217"/>
<path fill="rgb(255,225,170)" d="M5792.34 532.253v-1.6467l-0.493382 1.07161l0.0817075 0.612798l0.411675 -0.0377114"/>
<path fill="rgb(255,225,170)" d="M5793.76 519.677l0.372393 -0.744783h-0.798208l-0.985188 0.864198v0.493382l1.411 -0.612798"/>
<path fill="rgb(255,225,170)" d="M5797.22 611.134l0.0989879 -0.659935l0.197982 -0.292256l0.293826 -0.197979l0.571946 0.405387l0.477666 0.0534247l-0.0722788 -0.94905l-1.00562 -0.518521l-0.807633 0.612798l-0.212122 0.672504l-0.146128 0.458812l0.0738492 0.65365l0.444669 0.135129l0.0848514 -0.373963"/>
<path fill="rgb(255,225,170)" d="M5699.71 402.422l0.175984 -0.40539l-0.285971 -0.339393l-1.6247 -0.17284l-1.32616 0.339396l-0.647362 0.116272l0.4211 0.521665l2.03008 0.267117l1.25702 -0.326827"/>
<path fill="rgb(255,225,170)" d="M5619.53 698.139l-0.0628534 -0.612798l-0.757352 -0.273402l-0.546804 0.40539l0.18541 0.7165l0.930196 0.113131l0.251404 -0.348821"/>
</g>
<g stroke-width="0.5px" stroke="rgb(209,179,139)" fill="none">
<path d="M5792.32 520.299l-4.85838 4.28329l-1.7504 2.20921l-1.47071 2.4449l-4.15131 2.62089l-1.76925 3.51337l0.128844 3.55736l4.14816 -3.71763l4.63212 -3.03884l1.41415 -0.612797l1.46128 0.0314255l-0.122559 1.03704l-0.663078 1.02761l-0.512235 2.68374l1.21931 2.49204l-3.44738 -0.241976l-3.41281 0.213693l-4.0476 1.39843l-3.97532 0.612797l-1.48328 0.0157127l-1.42672 -0.46824l-0.933337 -0.716501l-0.729071 -1.66241l-0.735356 -0.248261l-3.15826 0.0754212l-4.72639 3.24625l-1.56499 2.78744l-1.81639 0.122559l-2.14636 -0.578229l-2.59889 2.1275l-3.09855 0.773067l-1.33873 -1.80697l-0.867343 -2.21235l-1.10618 -1.63098l-3.41909 -0.408531l0.524806 -1.98923l0.908196 -0.823348l0.829633 -1.17846l0.509093 -1.3513l1.63098 0.857916l1.67498 0.549946l1.87296 -1.0119l1.94838 -0.0879913l1.95152 -2.94142l3.05141 -1.84153l4.21101 -1.45814l4.28644 -1.04018l2.21864 -0.210551l2.11179 -0.603369l3.7302 -2.75916l2.4669 -1.42357l2.68688 -0.857916l2.56746 -0.502808l2.37577 0.446242l1.90753 -0.232549l4.88666 -1.97352l-0.0251404 0.502808"/>
<path d="M5703.34 551.787l-1.65298 0.540518l0.879913 -2.56118l0.936479 -0.80135l0.587656 -0.166555l0.96162 -0.179125l-0.373963 1.81011l-1.33873 1.35758"/>
<path d="M5737 559.025l0 1.42357l0.942764 0.615939l0.936479 0.100562l2.32863 2.72145l3.61393 2.3412l2.19978 1.79125l0.131987 1.53042l-0.669363 1.61841l0.930194 2.89743l0.452527 3.00742l1.6027 4.7641l-2.26263 0.905054l-3.56051 0.106847l-0.823348 0.857916l-1.21302 -0.474525l-2.95714 0.355108l-2.82515 1.56813l-2.69002 2.13065l-3.09541 0.0062851l-3.49137 0.439957l-3.48823 -0.2954l-2.45433 -1.1376l-4.32415 -1.23816l-5.76343 -1.0559l-2.38519 -0.886199l-1.98923 -1.38901l-1.86353 -3.50394l-0.276544 -1.7284l0.292257 -1.65612l1.68441 -0.559374l1.411 -0.83906l0.201123 -1.09361l0.622225 -0.763639l0.810777 -0.276544l0.395961 -0.527948l-0.568801 -1.77554l-0.157127 -1.6247l3.34053 -2.96342l3.65164 -2.52661l6.43594 -2.33491l3.93447 0.213693l6.03055 -1.79754l1.92952 -0.845345l1.91695 0.51852l1.06218 1.37958"/>
<path d="M5283.98 651.513l3.62964 2.02066l3.88733 -0.857916l4.89609 3.1834l12.4728 9.65076l4.38385 2.04266l2.5706 0.782494l1.94838 1.5807l1.74726 2.22178l2.37891 1.57127l1.02761 1.46443l0.257689 1.97666l0.857916 1.21617l4.35243 3.19911l2.58632 2.8063l3.59822 1.433l1.55242 1.67498l2.01123 0.817062l2.06465 1.71269l3.48509 1.33558l7.90037 4.9338l6.10283 4.68554l3.04199 2.89743l3.28711 2.58003l4.19844 2.05837l3.93447 2.35377l1.99238 5.51517l-1.09361 1.97352l-2.26263 0.980475l-2.09294 0.0691361l-1.95781 0.66622l-6.54907 -3.56051l-1.5587 -0.524806l-1.74411 0.219978l-0.97419 -0.78878l-0.685075 -1.1376l-3.99418 -1.32301l-3.72078 -2.12122l-1.07789 -1.43929l-0.625367 -1.79125l-0.889341 -1.0339l-5.24806 -1.56499l-3.52594 -1.74411l-2.56118 -2.46062l-3.97847 -1.70955l-6.1971 -3.51337l-3.18654 -1.12503l-2.78744 -1.75668l-7.46041 -6.39194l-2.66174 -1.19103l-2.32234 -2.84086l-6.42337 -6.74077l-3.09541 -2.77487l-3.37195 -2.47004l-2.58003 -2.89114l-1.98295 -3.42852l-4.60698 -4.90866l-0.565659 -2.09922l0.191695 -2.15579l-1.10932 -1.38586l-1.88553 -0.845345l-0.892484 -1.44871l0.103704 -1.95466l0.615939 -1.00876l4.59126 3.36567"/>
<path d="M5823.26 578.86l-0.791922 -0.515378l-0.488666 -0.908196l1.01033 -0.763639"/>
<path d="M5793.15 544.635l-0.807635 1.22874l0 -1.77554l0.00157127 -1.57756l0 -2.35691l3.42223 -2.7403l1.04961 -0.389676l1.24445 2.47947l-1.46286 2.73402l-3.44738 2.39776"/>
<path d="M5794.61 531.056l-2.27049 1.19731l0 -0.873628l0.00157127 -0.773067l1.81168 -1.52728l1.37486 -0.317397l-0.850059 1.53042l-0.0675648 0.763639"/>
<path d="M5792.34 545.867l-2.38519 1.19731l-0.930194 -1.16589l1.09361 -2.83458l2.22178 -2.90371l-0.0251404 2.35063l0.0251404 3.35624"/>
<path d="M5773.76 558.858l-1.07475 0.870486l-0.509093 -4.43099l1.10932 0.0377106l0.810777 0.458812l0.461955 1.1156l-0.798207 1.94838"/>
<path d="M5771.41 582.528l-0.285972 0.260831l-2.79687 -2.5706l0.0942764 -1.01504l0.49338 -0.911339l1.1156 -0.857916l1.0119 1.46443l0.78878 2.43547l-0.421101 1.19417"/>
<path d="M5754.62 570.514l-1.65612 0.571944l-0.914481 -1.96409l1.26959 -1.97352l1.41415 -0.179125l0.691361 2.00809l-0.804492 1.53671"/>
<path d="M5420.57 539.937l0.958477 0.477667l-0.527948 1.33244l-4.42157 -1.52099l-3.55422 0.590799l-0.993045 -0.0691361l-1.05904 -1.23188l-0.779352 -2.43547l0.355108 -1.70955l1.49585 -1.19103l0.559374 -0.194838l1.11246 1.47386l1.01819 1.00247l0.98676 0.430529l2.25006 2.40091l2.59889 0.644222"/>
<path d="M5415.74 525.704l-3.67678 0.329968l-5.17263 -1.00247l-2.08037 -1.39529l-0.901911 -1.40158l1.78811 -1.03704l2.56432 -0.490237l3.2054 -3.2054l1.10932 1.22874l1.19417 3.58879l1.29473 1.08104l0.716501 1.08732l-0.0408531 1.21617"/>
<path d="M5420.53 564.502l3.2054 4.58498l1.27273 0.361393l-1.94209 3.28711l-4.02875 0.2954l-4.75468 -0.851631l1.74411 -1.12817l-0.901911 -1.27587l-1.43614 -0.257689l-1.6467 0.609654l-0.766782 -0.207408l1.05275 -2.11493l2.64603 -2.97914l0.782494 -0.235691l0.710216 -0.0314255l0.691361 0.260831l3.37195 -0.317397"/>
<path d="M5403.33 496.724l-2.15893 1.477l-3.99104 -0.141415l-1.48014 -0.832775l4.89295 -4.4907l5.6723 -0.927052l-2.93514 4.91495"/>
<path d="M5365.83 477.124l2.07094 10.6375l2.41348 -0.0219978l1.23188 -0.565659l1.42043 -2.49204l0.634795 -3.91561l1.2633 -0.559374l1.57756 0.417959l-0.685075 1.24759l0.458812 3.13312l1.21931 1.73154l0.810777 0.314255l1.62155 8.18634l0.603369 1.71583l-0.0377106 1.37329l-3.40024 3.06084l-5.06264 -0.0911339l-3.56679 1.82896l-2.1715 -0.119417l0.0219978 -2.07094l-1.93267 -1.6467l-2.18407 -3.52594l0.540518 -6.25996l-3.88105 -11.6306l-0.0377106 -2.90686l1.3293 -3.7962l1.30101 -0.169698l1.76297 3.17083l2.67745 2.954"/>
<path d="M5413.04 513.923l-0.537376 0.0408531l-0.543661 -1.48014l-1.81639 -7.87837l1.19417 -7.04874l0.757354 1.49271l2.71202 12.3596l-0.367678 2.0238l-1.39843 0.490237"/>
<path d="M5412.28 493.273l-0.556231 1.99238l-1.33244 -2.30663l-0.845345 -9.72933l0.34568 -0.901911l0.691361 -0.0691361l1.6247 6.77219l0.0722786 4.24244"/>
<path d="M5387.28 517.961l1.48328 0.697646l0.807635 0l0.483952 1.56499l4.61012 3.12369l1.26645 -0.0879913l1.06532 1.70955l1.97981 0.864201l0.534233 1.74097l1.41729 1.7724l-2.47319 2.14636l-4.77353 -0.571944l-2.73716 2.43547l-2.47947 -0.622225l-0.424244 -1.27902l0.34568 -0.427387l-1.477 -3.26196l-0.66622 -4.98408l-0.99933 -2.93514l-1.08104 -1.25388l-2.23749 1.09675l-0.901911 0.182268l-2.14322 -2.40719l1.01504 -4.8898l0.531091 -1.39843l1.74411 -0.267117l2.63974 1.2853l2.47004 5.76658"/>
<path d="M5381.05 505.997l-0.584514 0.835918l-3.41281 -2.08665l0.782494 -2.01752l3.71135 0.722786l-0.496523 2.54546"/>
<path d="M5743.69 610.581l-0.0062851 1.38272l-4.14188 0.917624l-1.39529 -1.14074l-0.889341 -0.207408l-2.4669 2.02066l-0.713358 0.829633l-0.235691 0.625367l-0.634795 0.314255l-4.54727 0.971047l-1.99866 -0.967905l1.35444 -0.659935l1.6467 -1.31673l1.67812 0.194838l1.69069 -1.23188l1.66555 -1.8761l2.37577 -0.405389l1.67498 -0.725929l2.76858 0.524806l2.17464 0.751069"/>
<path d="M5392.83 458.913l-1.33873 1.63098l-3.63593 -0.537376l-0.861058 -0.430529l0.232549 -2.70573l0.911339 -0.933337l2.16836 -0.845345l2.97599 1.33873l-0.452527 2.48261"/>
<path d="M5389.74 447.53l-0.471382 0.317397l-0.744784 -0.248261l-1.90753 -3.89362l0.483952 -1.29787l2.38834 -1.24131l2.13065 2.16207l0.201123 1.20045l-0.0157127 1.02133l-0.326825 0.883056l-1.42357 0.367678l-0.314255 0.729071"/>
<path d="M5467.21 649.599l-1.13132 1.77554l-1.74097 -0.0219978l-2.23749 -1.25388l0.424244 -1.57127l2.53604 -0.276544l0.735356 0.103704l1.41415 1.24445"/>
<path d="M5454.18 628.796l-1.70012 3.49766l-2.93514 -0.81392l-2.74659 -2.52661l-1.42986 -2.20921l0.964762 -4.23615l1.40472 -0.738499l1.46757 0.241976l0.747926 4.13559l4.22673 2.64917"/>
<path d="M5449.13 609.491l-1.48328 1.55556l-1.29473 -0.169698l-8.40317 -3.6045l0.351965 -1.48328l-0.34568 -3.78363l0.923909 -2.05523l2.3192 -0.845345l1.80068 0.436814l1.09989 3.02627l2.50147 1.23188l-1.75668 1.04018l3.0577 2.28777l1.22874 2.3632"/>
<path d="M5406.54 689.61l1.51157 0.593942l2.61146 -0.103704l-0.590799 5.49003l-3.67678 0.879913l-1.27587 -0.0502808l-0.820205 -1.15332l-2.10551 -0.760497l0.103704 -1.88239l-2.04894 -4.21416l3.55736 -0.637937l2.01123 -1.12503l-0.113132 1.02447l0.311112 1.19731l0.524806 0.741641"/>
<path d="M5359.42 666.079l-1.71269 0.317397l2.0678 -2.94457l0.0597084 -1.80068l0.829633 -3.56051l-0.0942764 -1.19417l1.35758 0.157127l1.48328 1.02761l-1.70326 0.879913l-0.565659 1.53985l0.0597084 1.92952l0.656793 0.351965l-1.08418 2.11179l-1.35444 1.18474"/>
<path d="M5386.91 680.943l-1.75983 0.260831l-2.34748 -2.31606l-4.48442 -1.16274l-1.97038 -2.03951l-1.2853 -2.40405l2.54232 -0.593942l2.50147 -3.23682l-1.7064 -1.2036l-2.94142 -0.213693l0.34568 -1.2633l4.77039 -1.50214l2.08979 0.870486l0.933337 1.02761l-0.144557 5.11607l2.16836 1.62784l2.24378 3.64221l-0.00942764 1.02133l-0.945907 2.36948"/>
<path d="M5391.53 728.009l-1.02133 1.21931l-1.2633 -0.251404l-0.955335 -0.455669l-0.697646 -0.663078l0.688218 -2.48261l2.76858 1.21617l0.48081 1.41729"/>
<path d="M5147.2 621.445l-0.49338 0.688218l-0.263974 -5.10978l1.01819 -1.9201l0.490237 3.97847l-0.751069 2.3632"/>
<path d="M5792.34 532.253l-0.411674 0.0377106l-0.0817062 -0.612797l0.49338 -1.07161l0 1.6467"/>
<path d="M5793.76 519.677l-1.411 0.612797l0 -0.49338l0.985189 -0.864201l0.798207 0l-0.372392 0.744784"/>
<path d="M5798.79 609.494l0.0722786 0.949049l-0.477667 -0.0534233l-0.571944 -0.405389l-0.293828 0.197981l-0.197981 0.292257l-0.0989903 0.659935l-0.0848488 0.373963l-0.444671 -0.13513l-0.0738499 -0.65365l0.146128 -0.458812l0.212122 -0.672505l0.807635 -0.612797l1.00562 0.51852"/>
<path d="M5699.71 402.422l-1.25702 0.326825l-2.03009 -0.267117l-0.421101 -0.521663l0.647365 -0.116274l1.32616 -0.339395l1.6247 0.17284l0.285972 0.339395l-0.175983 0.405389"/>
<path d="M5619.53 698.139l-0.251404 0.348823l-0.930194 -0.113132l-0.18541 -0.716501l0.546803 -0.405389l0.757354 0.273402l0.062851 0.612797"/>
</g>
</g>
</g>
</g>
<g inkscape:groupmode="layer" inkscape:label="no_name" id="no_name"><title>no_name</title>
<g>
<g id="drawing" transform="translate(-5143.69,-813.305)">
<g stroke-width="0.5px" stroke="rgb(254,0,0)" fill="none">
</g>
<g stroke="rgb(254,0,0)" fill="rgb(254,0,0)">
<circle cx="5150" cy="399" r="1.5"/>
<circle cx="5165" cy="405" r="1.5"/>
<circle cx="5181" cy="410" r="1.5"/>
<circle cx="5196" cy="415" r="1.5"/>
<circle cx="5210" cy="419" r="1.5"/>
<circle cx="5223" cy="421" r="1.5"/>
<circle cx="5234" cy="422" r="1.5"/>
<circle cx="5246" cy="424" r="1.5"/>
<circle cx="5256" cy="427" r="1.5"/>
<circle cx="5264" cy="431" r="1.5"/>
<circle cx="5272" cy="435" r="1.5"/>
<circle cx="5279" cy="439" r="1.5"/>
<circle cx="5286" cy="444" r="1.5"/>
<circle cx="5293" cy="450" r="1.5"/>
<circle cx="5300" cy="457" r="1.5"/>
<circle cx="5307" cy="466" r="1.5"/>
<circle cx="5314" cy="475" r="1.5"/>
<circle cx="5321" cy="484" r="1.5"/>
<circle cx="5329" cy="493" r="1.5"/>
<circle cx="5336" cy="502" r="1.5"/>
<circle cx="5344" cy="512" r="1.5"/>
<circle cx="5350" cy="521" r="1.5"/>
<circle cx="5358" cy="529" r="1.5"/>
<circle cx="5366" cy="538" r="1.5"/>
<circle cx="5375" cy="548" r="1.5"/>
<circle cx="5384" cy="558" r="1.5"/>
<circle cx="5393" cy="568" r="1.5"/>
<circle cx="5403" cy="578" r="1.5"/>
<circle cx="5415" cy="590" r="1.5"/>
<circle cx="5428" cy="603" r="1.5"/>
<circle cx="5445" cy="618" r="1.5"/>
<circle cx="5467" cy="637" r="1.5"/>
<circle cx="5493" cy="655" r="1.5"/>
<circle cx="5519" cy="672" r="1.5"/>
<circle cx="5546" cy="686" r="1.5"/>
<circle cx="5575" cy="696" r="1.5"/>
<circle cx="5599" cy="705" r="1.5"/>
<circle cx="5594" cy="719" r="1.5"/>
<circle cx="5602" cy="730" r="1.5"/>
<circle cx="5615" cy="736" r="1.5"/>
<circle cx="5631" cy="740" r="1.5"/>
<circle cx="5647" cy="743" r="1.5"/>
<circle cx="5663" cy="746" r="1.5"/>
<circle cx="5677" cy="749" r="1.5"/>
<circle cx="5689" cy="753" r="1.5"/>
<circle cx="5701" cy="757" r="1.5"/>
<circle cx="5711" cy="762" r="1.5"/>
<circle cx="5719" cy="767" r="1.5"/>
<circle cx="5726" cy="766" r="1.5"/>
<circle cx="5737" cy="764" r="1.5"/>
<circle cx="5748" cy="768" r="1.5"/>
<circle cx="5765" cy="778" r="1.5"/>
<circle cx="5784" cy="790" r="1.5"/>
<circle cx="5801" cy="799" r="1.5"/>
<circle cx="5817" cy="806" r="1.5"/>
</g>
<g stroke-width="0.5px" stroke="rgb(254,0,0)" fill="none">
<path d="M5150.36 399.028l15.5106 6.13989l15.4463 5.67006l15.221 4.77547l14.1591 3.52689l12.357 1.91469l11.2951 1.48348l11.6812 2.41669l10.5228 3.03454l8.3989 3.35956l7.17607 3.7972l7.20825 4.01924l6.98299 4.91384l7.11171 5.94037l7.01517 7.31123l6.95081 8.75288l7.07953 9.37073l7.36915 8.70461l7.53005 8.93308l7.49787 9.70539l7.36915 9.66356l6.75774 8.63703l7.14389 8.59841l8.43108 9.24844l9.04249 9.71827l8.59198 9.81802l9.13903 10.2074l9.84699 10.3039l11.8421 11.5042l13.1937 12.9716l16.9587 15.2532l22.1718 18.2942l25.7116 18.6449l26.1299 16.8782l27.6745 14.143l28.9939 10.2331l23.3946 8.74l-5.21311 14.262l8.43108 10.5614l13.5155 6.03369l15.4463 3.62022l16.3473 3.45932l15.8324 2.97662l13.612 2.97019l12.1317 3.46575l11.9708 4.58561l10.5549 5.0683l7.81967 5.05865l6.98299 -1.19708l10.3297 -1.77954l11.3273 3.28233l16.8622 10.3072l19.6296 12.2186l16.9587 9.16799l15.221 6.92185"/>
</g>
</g>
</g>
</g>
<g inkscape:groupmode="layer" inkscape:label="Coastline" id="Coastline"><title>Coastline</title>
<g>
<g id="drawing" transform="translate(-5143.69,-813.305)">
<g stroke-width="0.5px" stroke="rgb(0,0,0)" fill="none">
<path d="M5792.32 520.299l-4.85838 4.28329l-1.7504 2.20921l-1.47071 2.4449l-4.15131 2.62089l-1.76925 3.51337l0.128844 3.55736l4.14816 -3.71763l4.63212 -3.03884l1.41415 -0.612797l1.46128 0.0314255l-0.122559 1.03704l-0.663078 1.02761l-0.512235 2.68374l1.21931 2.49204l-3.44738 -0.241976l-3.41281 0.213693l-4.0476 1.39843l-3.97532 0.612797l-1.48328 0.0157127l-1.42672 -0.46824l-0.933337 -0.716501l-0.729071 -1.66241l-0.735356 -0.248261l-3.15826 0.0754212l-4.72639 3.24625l-1.56499 2.78744l-1.81639 0.122559l-2.14636 -0.578229l-2.59889 2.1275l-3.09855 0.773067l-1.33873 -1.80697l-0.867343 -2.21235l-1.10618 -1.63098l-3.41909 -0.408531l0.524806 -1.98923l0.908196 -0.823348l0.829633 -1.17846l0.509093 -1.3513l1.63098 0.857916l1.67498 0.549946l1.87296 -1.0119l1.94838 -0.0879913l1.95152 -2.94142l3.05141 -1.84153l4.21101 -1.45814l4.28644 -1.04018l2.21864 -0.210551l2.11179 -0.603369l3.7302 -2.75916l2.4669 -1.42357l2.68688 -0.857916l2.56746 -0.502808l2.37577 0.446242l1.90753 -0.232549l4.88666 -1.97352l-0.0251404 0.502808"/>
<path d="M5703.34 551.787l-1.65298 0.540518l0.879913 -2.56118l0.936479 -0.80135l0.587656 -0.166555l0.96162 -0.179125l-0.373963 1.81011l-1.33873 1.35758"/>
<path d="M5737 559.025l0 1.42357l0.942764 0.615939l0.936479 0.100562l2.32863 2.72145l3.61393 2.3412l2.19978 1.79125l0.131987 1.53042l-0.669363 1.61841l0.930194 2.89743l0.452527 3.00742l1.6027 4.7641l-2.26263 0.905054l-3.56051 0.106847l-0.823348 0.857916l-1.21302 -0.474525l-2.95714 0.355108l-2.82515 1.56813l-2.69002 2.13065l-3.09541 0.0062851l-3.49137 0.439957l-3.48823 -0.2954l-2.45433 -1.1376l-4.32415 -1.23816l-5.76343 -1.0559l-2.38519 -0.886199l-1.98923 -1.38901l-1.86353 -3.50394l-0.276544 -1.7284l0.292257 -1.65612l1.68441 -0.559374l1.411 -0.83906l0.201123 -1.09361l0.622225 -0.763639l0.810777 -0.276544l0.395961 -0.527948l-0.568801 -1.77554l-0.157127 -1.6247l3.34053 -2.96342l3.65164 -2.52661l6.43594 -2.33491l3.93447 0.213693l6.03055 -1.79754l1.92952 -0.845345l1.91695 0.51852l1.06218 1.37958"/>
<path d="M5283.98 651.513l3.62964 2.02066l3.88733 -0.857916l4.89609 3.1834l12.4728 9.65076l4.38385 2.04266l2.5706 0.782494l1.94838 1.5807l1.74726 2.22178l2.37891 1.57127l1.02761 1.46443l0.257689 1.97666l0.857916 1.21617l4.35243 3.19911l2.58632 2.8063l3.59822 1.433l1.55242 1.67498l2.01123 0.817062l2.06465 1.71269l3.48509 1.33558l7.90037 4.9338l6.10283 4.68554l3.04199 2.89743l3.28711 2.58003l4.19844 2.05837l3.93447 2.35377l1.99238 5.51517l-1.09361 1.97352l-2.26263 0.980475l-2.09294 0.0691361l-1.95781 0.66622l-6.54907 -3.56051l-1.5587 -0.524806l-1.74411 0.219978l-0.97419 -0.78878l-0.685075 -1.1376l-3.99418 -1.32301l-3.72078 -2.12122l-1.07789 -1.43929l-0.625367 -1.79125l-0.889341 -1.0339l-5.24806 -1.56499l-3.52594 -1.74411l-2.56118 -2.46062l-3.97847 -1.70955l-6.1971 -3.51337l-3.18654 -1.12503l-2.78744 -1.75668l-7.46041 -6.39194l-2.66174 -1.19103l-2.32234 -2.84086l-6.42337 -6.74077l-3.09541 -2.77487l-3.37195 -2.47004l-2.58003 -2.89114l-1.98295 -3.42852l-4.60698 -4.90866l-0.565659 -2.09922l0.191695 -2.15579l-1.10932 -1.38586l-1.88553 -0.845345l-0.892484 -1.44871l0.103704 -1.95466l0.615939 -1.00876l4.59126 3.36567"/>
<path d="M5823.26 578.86l-0.791922 -0.515378l-0.488666 -0.908196l1.01033 -0.763639"/>
<path d="M5793.15 544.635l-0.807635 1.22874l0 -1.77554l0.00157127 -1.57756l0 -2.35691l3.42223 -2.7403l1.04961 -0.389676l1.24445 2.47947l-1.46286 2.73402l-3.44738 2.39776"/>
<path d="M5794.61 531.056l-2.27049 1.19731l0 -0.873628l0.00157127 -0.773067l1.81168 -1.52728l1.37486 -0.317397l-0.850059 1.53042l-0.0675648 0.763639"/>
<path d="M5792.34 545.867l-2.38519 1.19731l-0.930194 -1.16589l1.09361 -2.83458l2.22178 -2.90371l-0.0251404 2.35063l0.0251404 3.35624"/>
<path d="M5773.76 558.858l-1.07475 0.870486l-0.509093 -4.43099l1.10932 0.0377106l0.810777 0.458812l0.461955 1.1156l-0.798207 1.94838"/>
<path d="M5771.41 582.528l-0.285972 0.260831l-2.79687 -2.5706l0.0942764 -1.01504l0.49338 -0.911339l1.1156 -0.857916l1.0119 1.46443l0.78878 2.43547l-0.421101 1.19417"/>
<path d="M5754.62 570.514l-1.65612 0.571944l-0.914481 -1.96409l1.26959 -1.97352l1.41415 -0.179125l0.691361 2.00809l-0.804492 1.53671"/>
<path d="M5420.57 539.937l0.958477 0.477667l-0.527948 1.33244l-4.42157 -1.52099l-3.55422 0.590799l-0.993045 -0.0691361l-1.05904 -1.23188l-0.779352 -2.43547l0.355108 -1.70955l1.49585 -1.19103l0.559374 -0.194838l1.11246 1.47386l1.01819 1.00247l0.98676 0.430529l2.25006 2.40091l2.59889 0.644222"/>
<path d="M5415.74 525.704l-3.67678 0.329968l-5.17263 -1.00247l-2.08037 -1.39529l-0.901911 -1.40158l1.78811 -1.03704l2.56432 -0.490237l3.2054 -3.2054l1.10932 1.22874l1.19417 3.58879l1.29473 1.08104l0.716501 1.08732l-0.0408531 1.21617"/>
<path d="M5420.53 564.502l3.2054 4.58498l1.27273 0.361393l-1.94209 3.28711l-4.02875 0.2954l-4.75468 -0.851631l1.74411 -1.12817l-0.901911 -1.27587l-1.43614 -0.257689l-1.6467 0.609654l-0.766782 -0.207408l1.05275 -2.11493l2.64603 -2.97914l0.782494 -0.235691l0.710216 -0.0314255l0.691361 0.260831l3.37195 -0.317397"/>
<path d="M5403.33 496.724l-2.15893 1.477l-3.99104 -0.141415l-1.48014 -0.832775l4.89295 -4.4907l5.6723 -0.927052l-2.93514 4.91495"/>
<path d="M5365.83 477.124l2.07094 10.6375l2.41348 -0.0219978l1.23188 -0.565659l1.42043 -2.49204l0.634795 -3.91561l1.2633 -0.559374l1.57756 0.417959l-0.685075 1.24759l0.458812 3.13312l1.21931 1.73154l0.810777 0.314255l1.62155 8.18634l0.603369 1.71583l-0.0377106 1.37329l-3.40024 3.06084l-5.06264 -0.0911339l-3.56679 1.82896l-2.1715 -0.119417l0.0219978 -2.07094l-1.93267 -1.6467l-2.18407 -3.52594l0.540518 -6.25996l-3.88105 -11.6306l-0.0377106 -2.90686l1.3293 -3.7962l1.30101 -0.169698l1.76297 3.17083l2.67745 2.954"/>
<path d="M5413.04 513.923l-0.537376 0.0408531l-0.543661 -1.48014l-1.81639 -7.87837l1.19417 -7.04874l0.757354 1.49271l2.71202 12.3596l-0.367678 2.0238l-1.39843 0.490237"/>
<path d="M5412.28 493.273l-0.556231 1.99238l-1.33244 -2.30663l-0.845345 -9.72933l0.34568 -0.901911l0.691361 -0.0691361l1.6247 6.77219l0.0722786 4.24244"/>
<path d="M5387.28 517.961l1.48328 0.697646l0.807635 0l0.483952 1.56499l4.61012 3.12369l1.26645 -0.0879913l1.06532 1.70955l1.97981 0.864201l0.534233 1.74097l1.41729 1.7724l-2.47319 2.14636l-4.77353 -0.571944l-2.73716 2.43547l-2.47947 -0.622225l-0.424244 -1.27902l0.34568 -0.427387l-1.477 -3.26196l-0.66622 -4.98408l-0.99933 -2.93514l-1.08104 -1.25388l-2.23749 1.09675l-0.901911 0.182268l-2.14322 -2.40719l1.01504 -4.8898l0.531091 -1.39843l1.74411 -0.267117l2.63974 1.2853l2.47004 5.76658"/>
<path d="M5381.05 505.997l-0.584514 0.835918l-3.41281 -2.08665l0.782494 -2.01752l3.71135 0.722786l-0.496523 2.54546"/>
<path d="M5743.69 610.581l-0.0062851 1.38272l-4.14188 0.917624l-1.39529 -1.14074l-0.889341 -0.207408l-2.4669 2.02066l-0.713358 0.829633l-0.235691 0.625367l-0.634795 0.314255l-4.54727 0.971047l-1.99866 -0.967905l1.35444 -0.659935l1.6467 -1.31673l1.67812 0.194838l1.69069 -1.23188l1.66555 -1.8761l2.37577 -0.405389l1.67498 -0.725929l2.76858 0.524806l2.17464 0.751069"/>
<path d="M5392.83 458.913l-1.33873 1.63098l-3.63593 -0.537376l-0.861058 -0.430529l0.232549 -2.70573l0.911339 -0.933337l2.16836 -0.845345l2.97599 1.33873l-0.452527 2.48261"/>
<path d="M5389.74 447.53l-0.471382 0.317397l-0.744784 -0.248261l-1.90753 -3.89362l0.483952 -1.29787l2.38834 -1.24131l2.13065 2.16207l0.201123 1.20045l-0.0157127 1.02133l-0.326825 0.883056l-1.42357 0.367678l-0.314255 0.729071"/>
<path d="M5467.21 649.599l-1.13132 1.77554l-1.74097 -0.0219978l-2.23749 -1.25388l0.424244 -1.57127l2.53604 -0.276544l0.735356 0.103704l1.41415 1.24445"/>
<path d="M5454.18 628.796l-1.70012 3.49766l-2.93514 -0.81392l-2.74659 -2.52661l-1.42986 -2.20921l0.964762 -4.23615l1.40472 -0.738499l1.46757 0.241976l0.747926 4.13559l4.22673 2.64917"/>
<path d="M5449.13 609.491l-1.48328 1.55556l-1.29473 -0.169698l-8.40317 -3.6045l0.351965 -1.48328l-0.34568 -3.78363l0.923909 -2.05523l2.3192 -0.845345l1.80068 0.436814l1.09989 3.02627l2.50147 1.23188l-1.75668 1.04018l3.0577 2.28777l1.22874 2.3632"/>
<path d="M5406.54 689.61l1.51157 0.593942l2.61146 -0.103704l-0.590799 5.49003l-3.67678 0.879913l-1.27587 -0.0502808l-0.820205 -1.15332l-2.10551 -0.760497l0.103704 -1.88239l-2.04894 -4.21416l3.55736 -0.637937l2.01123 -1.12503l-0.113132 1.02447l0.311112 1.19731l0.524806 0.741641"/>
<path d="M5359.42 666.079l-1.71269 0.317397l2.0678 -2.94457l0.0597084 -1.80068l0.829633 -3.56051l-0.0942764 -1.19417l1.35758 0.157127l1.48328 1.02761l-1.70326 0.879913l-0.565659 1.53985l0.0597084 1.92952l0.656793 0.351965l-1.08418 2.11179l-1.35444 1.18474"/>
<path d="M5386.91 680.943l-1.75983 0.260831l-2.34748 -2.31606l-4.48442 -1.16274l-1.97038 -2.03951l-1.2853 -2.40405l2.54232 -0.593942l2.50147 -3.23682l-1.7064 -1.2036l-2.94142 -0.213693l0.34568 -1.2633l4.77039 -1.50214l2.08979 0.870486l0.933337 1.02761l-0.144557 5.11607l2.16836 1.62784l2.24378 3.64221l-0.00942764 1.02133l-0.945907 2.36948"/>
<path d="M5391.53 728.009l-1.02133 1.21931l-1.2633 -0.251404l-0.955335 -0.455669l-0.697646 -0.663078l0.688218 -2.48261l2.76858 1.21617l0.48081 1.41729"/>
<path d="M5147.2 621.445l-0.49338 0.688218l-0.263974 -5.10978l1.01819 -1.9201l0.490237 3.97847l-0.751069 2.3632"/>
<path d="M5792.34 532.253l-0.411674 0.0377106l-0.0817062 -0.612797l0.49338 -1.07161l0 1.6467"/>
<path d="M5793.76 519.677l-1.411 0.612797l0 -0.49338l0.985189 -0.864201l0.798207 0l-0.372392 0.744784"/>
<path d="M5798.79 609.494l0.0722786 0.949049l-0.477667 -0.0534233l-0.571944 -0.405389l-0.293828 0.197981l-0.197981 0.292257l-0.0989903 0.659935l-0.0848488 0.373963l-0.444671 -0.13513l-0.0738499 -0.65365l0.146128 -0.458812l0.212122 -0.672505l0.807635 -0.612797l1.00562 0.51852"/>
<path d="M5699.71 402.422l-1.25702 0.326825l-2.03009 -0.267117l-0.421101 -0.521663l0.647365 -0.116274l1.32616 -0.339395l1.6247 0.17284l0.285972 0.339395l-0.175983 0.405389"/>
<path d="M5619.53 698.139l-0.251404 0.348823l-0.930194 -0.113132l-0.18541 -0.716501l0.546803 -0.405389l0.757354 0.273402l0.062851 0.612797"/>
</g>
</g>
</g>
</g>
<g inkscape:groupmode="layer" inkscape:label="Coastline" id="Coastline"><title>Coastline</title>
<g>
<g id="drawing" transform="translate(-5143.69,-813.305)">
<g stroke-width="1px" stroke="rgb(51,51,51)" fill="none">
<path d="M5143.69 813.305l0 -420.944l680 0l0 420.944l-680 0"/>
</g>
</g>
</g>
</g>
<g id="Clone of page">
</g>
</g>
</g><!--ePage-->
</svg>
