<?xml version="1.0" ?>
<svg version="1.1" encoding="iso-8859-1" baseProfile="full"
xmlns:dc="http://purl.org/dc/elements/1.1/"
xmlns:cc="http://creativecommons.org/ns#"
xmlns:rdf="http://www.w3.org/1999/02/22-rdf-syntax-ns#"
xmlns="http://www.w3.org/2000/svg"
xmlns:xlink="http://www.w3.org/1999/xlink"
xmlns:ev="http://www.w3.org/2001/xml-events"
xmlns:sodipodi="http://sodipodi.sourceforge.net/DTD/sodipodi-0.dtd"
xmlns:inkscape="http://www.inkscape.org/namespaces/inkscape"
inkscape:version="0.46"
inkscape:output_extension="org.inkscape.output.svg.inkscape"
viewBox="0 0 681 223" xml:space="preserve">
<title>Magics plot</title>
<metadata id="MAGICSmetadata">
<rdf:RDF><cc:Work rdf:about="">
	<dc:format>image/svg+xml</dc:format>
	<dc:title>Magics plot</dc:title>
	<dc:author>baudouin on Baudouins-iMac-3.local</dc:author>
	<dc:date>Thu Sep  3 13:01:24 2020</dc:date>
	<dc:language>en-GB</dc:language>
	<dc:publisher><cc:Agent>
	 <dc:title>Magics 4.4.3 (64 bit)</dc:title>
	</cc:Agent></dc:publisher>
	<dc:coverage>Plot of meteorological data</dc:coverage>
</cc:Work></rdf:RDF>
</metadata>
<g id="page" transform="translate(0,222.722)" vector-effect="non-scaling-stroke">
<g id="Page11">
<g inkscape:groupmode="layer" inkscape:label="Coastline" id="Coastline"><title>Coastline</title>
<g>
<g id="drawing" transform="translate(969.43,173.228)">
</g>
</g>
</g>
<g inkscape:groupmode="layer" inkscape:label="Coastline" id="Coastline"><title>Coastline</title>
<g>
<g id="drawing" transform="translate(969.43,173.228)">
<g fill-rule="evenodd" stroke="none">
<path fill="rgb(255,225,170)" d="M-716.582 -193.475l8.09943 0.0636639l2.75615 -2.71278l-1.93993 -2.13731l-5.49952 -0.947723l-8.8039 -0.0628301l-1.52514 1.5724l0.626904 4.60406l6.286 -0.379479"/>
<path fill="rgb(255,225,170)" d="M-827.433 -192.253l7.56288 -0.200442l-1.78285 -2.94631l-5.71608 -2.58407l-7.24095 -0.964681l-2.45062 -0.36252l-4.52288 0.749783l-1.29106 2.45924l6.15116 3.92044l6.02189 1.7267l3.26852 -1.79814"/>
<path fill="rgb(255,225,170)" d="M-763.924 -196.719l3.55764 -1.5446l1.63718 2.6102l4.13062 -0.663045l1.93993 -1.96244l3.5393 0.512087l4.93906 -0.451205l5.11754 2.34026l3.99578 -4.37971l-5.28795 -3.94741l-4.78727 -0.388652l0.346673 -3.20652l-5.88678 0.214621l-1.95355 -3.81675l-2.83566 0.270221l-6.37329 -2.7695l-8.39884 -0.0497627l-1.34555 1.83401l-9.33183 -1.68972l-6.56456 -0.475391l-2.42338 2.97105l6.78835 1.67804l-0.0811782 4.10977l4.91459 4.66105l-3.87401 2.3953l-8.11917 -0.863487l-9.90286 -1.49401l-0.948002 3.4684l5.76279 3.3522l5.03413 -2.0111l6.56484 0.777861l5.07778 -0.746169l7.14615 1.82872l0.544892 3.09254l2.77005 1.71085l4.30659 -7.36772"/>
<path fill="rgb(255,225,170)" d="M-821.204 -214.683l7.41303 0.851255l7.24206 -0.534327l7.15449 -1.36584l1.27633 -2.5204l-8.13279 -4.40362l-7.93151 -0.443142l0.783699 -3.02915l-6.41694 -2.1943l-3.54208 0.147899l-6.69883 -4.85287l-9.11193 -6.66381l-3.81035 -2.52819l-10.0499 1.21544l-4.28268 -3.93907l-10.1058 -3.66551l-8.45361 -0.121489l-9.29291 -0.767575l-2.60686 1.18208l-8.14614 1.02974l-5.49479 2.09728l-4.86455 2.39252l-2.33164 3.88208l-5.67939 3.32384l4.60378 1.02l5.32465 -1.17652l1.54238 -2.62521l4.45811 -0.150123l7.73135 -5.59098l10.5539 0.55073l-4.0347 2.68832l3.75559 2.09867l14.024 1.66748l3.22849 2.25685l10.033 2.88515l6.08055 -0.418955l2.55043 6.12753l3.71778 3.10588l6.93598 0.719202l4.38499 2.7948l-7.21287 6.00243l15.4057 -1.04808"/>
<path fill="rgb(255,225,170)" d="M-834.234 -255.643l-0.0574557 -6.2432l-3.76582 -8.93038l-3.23721 -0.433608l-2.34137 6.82862l4.02868 3.11477l2.73345 6.19908l2.63973 -0.535285"/>
<path fill="rgb(255,225,170)" d="M-837.304 -285.987l-0.322786 -2.79747l-7.10126 -0.322786l-5.05696 0.860761l0.753165 3.98101l11.7278 -1.72152"/>
<path fill="rgb(255,225,170)" d="M-828.481 -286.095l-8.5 -4.84177l0.0213038 1.23562l4.82047 4.25172l-0.176563 5.62345l1.97824 1.37904l1.85655 -7.64806"/>
<path fill="rgb(255,225,170)" d="M-864.859 -271.207l2.68462 -6.5697l0.467576 -4.18323l0.338861 -7.25662l-5.09474 -12.4807l-0.0597604 -4.64818l-4.78149 -7.61781l-3.59088 -9.20375l-1.90117 -7.47333l1.65819 -7.64342l5.07109 -6.3786l6.06535 -5.121l11.8115 -6.9854l1.53735 -3.61058l5.44739 -3.95141l5.37384 -0.690199l7.07208 -6.31161l11.1305 -3.18897l6.83895 -7.98622l-1.51174 -10.7661l-0.802951 -2.67556h-152.326v82.363l3.4506 -1.74354l3.99278 1.58595l2.0509 -1.41323l-2.28534 -2.12642l0.175341 -4.36382l-2.05746 -3.03464l4.56674 -1.50386l8.20622 -0.740109l9.54918 1.18798l12.1609 -1.3515l6.74636 2.66164l5.22082 5.02053l1.92547 0.535872l10.8547 -4.88262l4.2003 1.65031l8.38812 9.00149l3.01232 5.91759l-2.20851 7.14235l1.61616 4.20884l5.00411 8.23117l5.70219 9.25301l4.08866 2.47513l1.6989 4.72107l5.29503 1.30422l3.21721 -1.35807z
M-870.792 -288.605L-870.655 -291.248L-868.223 -290.879L-868.36 -288.236L-870.792 -288.605"/>
<path fill="rgb(255,225,170)" d="M-954.716 -174.666l1.9432 -0.342144l2.11328 -2.85536l1.24709 -5.43557l-0.679036 -1.02906l1.12691 -3.84962l-0.940406 -1.66541l1.74159 -4.65277l0.178624 -2.92629l-2.03908 -0.0492527l-0.0394023 -1.58004l2.25316 -0.178625l2.72599 2.76343l2.69775 -8.39469l1.61156 -4.65212l-1.9826 -1.87227l2.55722 -6.55263l5.78231 -6.39567l0.364472 -5.18142l-2.58086 -2.2814l-6.5257 0.910196l-9.52751 -0.374323l-11.3775 2.49614l-5.36556 2.07428v53.4632h13.8914l0.823098 -1.43858"/>
</g>
<g stroke-width="0.5px" stroke="rgb(102,84,51)" fill="none">
<path d="M-705.726 -196.124l-2.75615 2.71278l-8.09943 -0.0636634l-6.286 0.379478l-0.626904 -4.60406l1.52514 -1.5724l8.8039 0.0628294l5.49952 0.947723l1.93993 2.13731"/>
<path d="M-827.433 -192.253l-3.26852 1.79814l-6.02189 -1.7267l-6.15116 -3.92044l1.29106 -2.45924l4.52288 -0.749783l2.45062 0.36252l7.24095 0.964681l5.71608 2.58407l1.78285 2.94631l-7.56288 0.200442"/>
<path d="M-780.921 -213.807l9.33183 1.68972l1.34555 -1.83401l8.39884 0.0497631l6.37329 2.7695l2.83566 -0.270222l1.95355 3.81675l5.88678 -0.214621l-0.346674 3.20652l4.78727 0.388653l5.28795 3.94741l-3.99578 4.37971l-5.11754 -2.34026l-4.93906 0.451204l-3.5393 -0.512087l-1.93993 1.96245l-4.13061 0.663045l-1.63718 -2.6102l-3.55764 1.5446l-4.30659 7.36772l-2.77005 -1.71085l-0.544892 -3.09254l-7.14615 -1.82872l-5.07778 0.746168l-6.56484 -0.777861l-5.03413 2.0111l-5.76279 -3.3522l0.948001 -3.4684l9.90286 1.494l8.11917 0.863487l3.87402 -2.3953l-4.91459 -4.66105l0.0811778 -4.10976l-6.78835 -1.67804l2.42338 -2.97105l6.56456 0.47539"/>
<path d="M-857.311 -244.943l4.28268 3.93907l10.0499 -1.21544l3.81035 2.52819l9.11193 6.66381l6.69884 4.85287l3.54208 -0.147899l6.41694 2.1943l-0.783699 3.02915l7.93151 0.443142l8.13279 4.40362l-1.27633 2.5204l-7.15449 1.36584l-7.24206 0.534328l-7.41303 -0.851255l-15.4057 1.04808l7.21287 -6.00243l-4.38499 -2.7948l-6.93597 -0.719202l-3.71778 -3.10588l-2.55043 -6.12753l-6.08055 0.418955l-10.033 -2.88515l-3.22849 -2.25685l-14.024 -1.66748l-3.75558 -2.09867l4.0347 -2.68832l-10.5539 -0.55073l-7.73135 5.59098l-4.45811 0.150123l-1.54238 2.62521l-5.32465 1.17652l-4.60378 -1.02l5.67939 -3.32384l2.33164 -3.88208l4.86455 -2.39252l5.49479 -2.09728l8.14614 -1.02973l2.60686 -1.18208l9.29291 0.767575l8.45361 0.121489l10.1058 3.66551"/>
<path d="M-834.234 -255.643l-2.63973 0.535285l-2.73345 -6.19908l-4.02868 -3.11477l2.34137 -6.82862l3.23721 0.433608l3.76582 8.93038l0.0574557 6.2432"/>
<path d="M-837.304 -285.987l-11.7278 1.72152l-0.753165 -3.98101l5.05696 -0.860759l7.10127 0.322785l0.322785 2.79747"/>
<path d="M-828.481 -286.095l-1.85655 7.64806l-1.97824 -1.37904l0.176563 -5.62345l-4.82047 -4.25172l-0.0213038 -1.23562l8.5 4.84177"/>
<path d="M-816.301 -393.274l1.51174 10.7661l-6.83895 7.98622l-11.1305 3.18897l-7.07208 6.31161l-5.37384 0.690199l-5.44739 3.95141l-1.53735 3.61058l-11.8115 6.9854l-6.06535 5.121l-5.07109 6.3786l-1.65819 7.64342l1.90117 7.47333l3.59088 9.20375l4.78149 7.61781l0.0597604 4.64817l5.09474 12.4807l-0.338861 7.25662l-0.467576 4.18323l-2.68462 6.5697l-3.21721 1.35807l-5.29503 -1.30422l-1.6989 -4.72107l-4.08866 -2.47513l-5.70219 -9.25301l-5.00411 -8.23117l-1.61616 -4.20884l2.20851 -7.14235l-3.01232 -5.91759l-8.38812 -9.00149l-4.2003 -1.65031l-10.8547 4.88262l-1.92547 -0.535873l-5.22082 -5.02053l-6.74635 -2.66164l-12.1609 1.3515l-9.54918 -1.18798l-8.20622 0.740109l-4.56674 1.50386l2.05746 3.03464l-0.175341 4.36382l2.28534 2.12642l-2.0509 1.41323l-3.99278 -1.58595"/>
<path d="M-964.065 -228.765l11.3775 -2.49614l9.52751 0.374323l6.5257 -0.910196l2.58086 2.2814l-0.364473 5.18142l-5.78231 6.39567l-2.55722 6.55263l1.9826 1.87227l-1.61156 4.65212l-2.69775 8.39469l-2.72599 -2.76342l-2.25316 0.178624l0.0394024 1.58004l2.03908 0.0492531l-0.178624 2.92629l-1.74159 4.65277l0.940405 1.66541l-1.12691 3.84962l0.679035 1.02906l-1.24709 5.43557l-2.11328 2.85536l-1.9432 0.342145"/>
<path d="M-868.36 -288.236l0.137057 -2.64328l-2.43172 -0.368914l-0.137057 2.643l2.43172 0.369192"/>
</g>
<g stroke-width="0.5px" stroke="rgb(178,178,178)" fill="none">
<path d="M-959.134 -191.608l-9.95113 -0.118462l-0.344949 0.000635886"/>
<path d="M-950.064 -199.051l-2.04538 0.141595l-3.85427 6.49475l-1.95296 -1.27306l-1.30254 0.495582l0.0843544 1.58326l-0.0831709 8.52948l-0.683697 9.85107"/>
<path d="M-771.545 -194.155l0.22143 -2.92282l-2.76928 -3.23054l2.62316 -1.81341l0.822348 -4.13606l-0.941347 -5.85951"/>
</g>
</g>
</g>
</g>
<g inkscape:groupmode="layer" inkscape:label="no_name" id="no_name"><title>no_name</title>
<g>
<g id="drawing" transform="translate(969.43,173.228)">
<g stroke-width="0.5px" stroke="rgb(255,0,0)" fill="none">
</g>
<g stroke="rgb(255,0,0)" fill="rgb(255,0,0)">
<circle cx="-289" cy="-173" r="1.5"/>
<circle cx="-304" cy="-174" r="1.5"/>
<circle cx="-319" cy="-175" r="1.5"/>
<circle cx="-331" cy="-175" r="1.5"/>
<circle cx="-341" cy="-175" r="1.5"/>
<circle cx="-349" cy="-176" r="1.5"/>
<circle cx="-359" cy="-179" r="1.5"/>
<circle cx="-367" cy="-183" r="1.5"/>
<circle cx="-377" cy="-188" r="1.5"/>
<circle cx="-388" cy="-192" r="1.5"/>
<circle cx="-401" cy="-197" r="1.5"/>
<circle cx="-414" cy="-202" r="1.5"/>
<circle cx="-427" cy="-205" r="1.5"/>
<circle cx="-442" cy="-205" r="1.5"/>
<circle cx="-458" cy="-203" r="1.5"/>
<circle cx="-474" cy="-201" r="1.5"/>
<circle cx="-489" cy="-199" r="1.5"/>
<circle cx="-502" cy="-195" r="1.5"/>
<circle cx="-515" cy="-192" r="1.5"/>
<circle cx="-529" cy="-189" r="1.5"/>
<circle cx="-542" cy="-186" r="1.5"/>
<circle cx="-554" cy="-182" r="1.5"/>
<circle cx="-565" cy="-180" r="1.5"/>
<circle cx="-579" cy="-179" r="1.5"/>
<circle cx="-592" cy="-178" r="1.5"/>
<circle cx="-606" cy="-178" r="1.5"/>
<circle cx="-621" cy="-179" r="1.5"/>
<circle cx="-636" cy="-181" r="1.5"/>
<circle cx="-652" cy="-186" r="1.5"/>
<circle cx="-664" cy="-190" r="1.5"/>
<circle cx="-666" cy="-190" r="1.5"/>
<circle cx="-678" cy="-194" r="1.5"/>
<circle cx="-681" cy="-194" r="1.5"/>
<circle cx="-692" cy="-199" r="1.5"/>
<circle cx="-696" cy="-200" r="1.5"/>
<circle cx="-712" cy="-206" r="1.5"/>
<circle cx="-727" cy="-211" r="1.5"/>
<circle cx="-742" cy="-217" r="1.5"/>
<circle cx="-757" cy="-222" r="1.5"/>
<circle cx="-772" cy="-227" r="1.5"/>
<circle cx="-785" cy="-231" r="1.5"/>
<circle cx="-787" cy="-231" r="1.5"/>
<circle cx="-803" cy="-234" r="1.5"/>
<circle cx="-817" cy="-236" r="1.5"/>
<circle cx="-830" cy="-237" r="1.5"/>
<circle cx="-838" cy="-239" r="1.5"/>
<circle cx="-842" cy="-241" r="1.5"/>
<circle cx="-853" cy="-244" r="1.5"/>
<circle cx="-862" cy="-248" r="1.5"/>
<circle cx="-870" cy="-251" r="1.5"/>
<circle cx="-874" cy="-255" r="1.5"/>
<circle cx="-876" cy="-263" r="1.5"/>
<circle cx="-876" cy="-265" r="1.5"/>
<circle cx="-879" cy="-275" r="1.5"/>
<circle cx="-879" cy="-278" r="1.5"/>
<circle cx="-879" cy="-288" r="1.5"/>
<circle cx="-884" cy="-303" r="1.5"/>
<circle cx="-889" cy="-318" r="1.5"/>
<circle cx="-898" cy="-332" r="1.5"/>
<circle cx="-908" cy="-343" r="1.5"/>
<circle cx="-921" cy="-353" r="1.5"/>
<circle cx="-935" cy="-363" r="1.5"/>
<circle cx="-947" cy="-374" r="1.5"/>
<circle cx="-956" cy="-383" r="1.5"/>
<circle cx="-962" cy="-389" r="1.5"/>
<circle cx="-969" cy="-395" r="1.5"/>
</g>
<g stroke-width="0.5px" stroke="rgb(255,0,0)" fill="none">
<path d="M-289.43 -173.228l-15.0633 -1.07595l-15.0633 -1.07595l-21.519 0l-8.60759 -1.07595l-9.68354 -3.22785l-8.60759 -4.3038l-9.68354 -4.3038l-10.7595 -4.3038l-12.9114 -5.37975l-12.9114 -4.3038l-12.9114 -3.22785l-15.0633 0l-16.1392 2.1519l-16.1392 2.1519l-15.0633 2.1519l-12.9114 3.22785l-12.9114 3.22785l-13.9873 3.22785l-12.9114 3.22785l-11.8354 3.22785l-11.8354 2.1519l-13.9873 1.07595l-12.9114 1.07595l-13.9873 0l-15.0633 -1.07595l-15.0633 -2.1519l-15.0633 -4.3038l-12.9114 -4.3038l-1.07595 0l-12.9114 -4.3038l-2.1519 0l-11.8354 -4.3038l-3.22785 -1.07595l-16.1392 -6.4557l-15.0633 -5.37975l-15.0633 -5.37975l-15.0633 -5.37975l-15.0633 -4.3038l-12.9114 -4.3038l-2.1519 0l-16.1392 -3.22785l-13.9873 -2.1519l-12.9114 -1.07595l-7.53165 -2.1519l-4.3038 -1.07595l-10.7595 -3.22785l-9.68354 -4.3038l-7.53165 -3.22785l-4.3038 -3.22785l-2.1519 -8.60759l0 -2.1519l-2.1519 -9.68354l0 -12.9114l-5.37975 -15.0633l-5.37975 -15.0633l-8.60759 -13.9873l-9.68354 -10.7595l-12.9114 -10.7595l-13.9873 -9.68354l-12.9114 -10.7595l-8.60759 -8.60759l-6.4557 -6.4557l-6.4557 -6.4557"/>
</g>
</g>
</g>
</g>
<g inkscape:groupmode="layer" inkscape:label="Coastline" id="Coastline"><title>Coastline</title>
<g>
<g id="drawing" transform="translate(969.43,173.228)">
<g stroke-width="0.5px" stroke="rgb(0,0,0)" fill="none">
<path d="M-705.726 -196.124l-2.75615 2.71278l-8.09943 -0.0636634l-6.286 0.379478l-0.626904 -4.60406l1.52514 -1.5724l8.8039 0.0628294l5.49952 0.947723l1.93993 2.13731"/>
<path d="M-827.433 -192.253l-3.26852 1.79814l-6.02189 -1.7267l-6.15116 -3.92044l1.29106 -2.45924l4.52288 -0.749783l2.45062 0.36252l7.24095 0.964681l5.71608 2.58407l1.78285 2.94631l-7.56288 0.200442"/>
<path d="M-780.921 -213.807l9.33183 1.68972l1.34555 -1.83401l8.39884 0.0497631l6.37329 2.7695l2.83566 -0.270222l1.95355 3.81675l5.88678 -0.214621l-0.346674 3.20652l4.78727 0.388653l5.28795 3.94741l-3.99578 4.37971l-5.11754 -2.34026l-4.93906 0.451204l-3.5393 -0.512087l-1.93993 1.96245l-4.13061 0.663045l-1.63718 -2.6102l-3.55764 1.5446l-4.30659 7.36772l-2.77005 -1.71085l-0.544892 -3.09254l-7.14615 -1.82872l-5.07778 0.746168l-6.56484 -0.777861l-5.03413 2.0111l-5.76279 -3.3522l0.948001 -3.4684l9.90286 1.494l8.11917 0.863487l3.87402 -2.3953l-4.91459 -4.66105l0.0811778 -4.10976l-6.78835 -1.67804l2.42338 -2.97105l6.56456 0.47539"/>
<path d="M-857.311 -244.943l4.28268 3.93907l10.0499 -1.21544l3.81035 2.52819l9.11193 6.66381l6.69884 4.85287l3.54208 -0.147899l6.41694 2.1943l-0.783699 3.02915l7.93151 0.443142l8.13279 4.40362l-1.27633 2.5204l-7.15449 1.36584l-7.24206 0.534328l-7.41303 -0.851255l-15.4057 1.04808l7.21287 -6.00243l-4.38499 -2.7948l-6.93597 -0.719202l-3.71778 -3.10588l-2.55043 -6.12753l-6.08055 0.418955l-10.033 -2.88515l-3.22849 -2.25685l-14.024 -1.66748l-3.75558 -2.09867l4.0347 -2.68832l-10.5539 -0.55073l-7.73135 5.59098l-4.45811 0.150123l-1.54238 2.62521l-5.32465 1.17652l-4.60378 -1.02l5.67939 -3.32384l2.33164 -3.88208l4.86455 -2.39252l5.49479 -2.09728l8.14614 -1.02973l2.60686 -1.18208l9.29291 0.767575l8.45361 0.121489l10.1058 3.66551"/>
<path d="M-834.234 -255.643l-2.63973 0.535285l-2.73345 -6.19908l-4.02868 -3.11477l2.34137 -6.82862l3.23721 0.433608l3.76582 8.93038l0.0574557 6.2432"/>
<path d="M-837.304 -285.987l-11.7278 1.72152l-0.753165 -3.98101l5.05696 -0.860759l7.10127 0.322785l0.322785 2.79747"/>
<path d="M-828.481 -286.095l-1.85655 7.64806l-1.97824 -1.37904l0.176563 -5.62345l-4.82047 -4.25172l-0.0213038 -1.23562l8.5 4.84177"/>
<path d="M-816.301 -393.274l1.51174 10.7661l-6.83895 7.98622l-11.1305 3.18897l-7.07208 6.31161l-5.37384 0.690199l-5.44739 3.95141l-1.53735 3.61058l-11.8115 6.9854l-6.06535 5.121l-5.07109 6.3786l-1.65819 7.64342l1.90117 7.47333l3.59088 9.20375l4.78149 7.61781l0.0597604 4.64817l5.09474 12.4807l-0.338861 7.25662l-0.467576 4.18323l-2.68462 6.5697l-3.21721 1.35807l-5.29503 -1.30422l-1.6989 -4.72107l-4.08866 -2.47513l-5.70219 -9.25301l-5.00411 -8.23117l-1.61616 -4.20884l2.20851 -7.14235l-3.01232 -5.91759l-8.38812 -9.00149l-4.2003 -1.65031l-10.8547 4.88262l-1.92547 -0.535873l-5.22082 -5.02053l-6.74635 -2.66164l-12.1609 1.3515l-9.54918 -1.18798l-8.20622 0.740109l-4.56674 1.50386l2.05746 3.03464l-0.175341 4.36382l2.28534 2.12642l-2.0509 1.41323l-3.99278 -1.58595"/>
<path d="M-964.065 -228.765l11.3775 -2.49614l9.52751 0.374323l6.5257 -0.910196l2.58086 2.2814l-0.364473 5.18142l-5.78231 6.39567l-2.55722 6.55263l1.9826 1.87227l-1.61156 4.65212l-2.69775 8.39469l-2.72599 -2.76342l-2.25316 0.178624l0.0394024 1.58004l2.03908 0.0492531l-0.178624 2.92629l-1.74159 4.65277l0.940405 1.66541l-1.12691 3.84962l0.679035 1.02906l-1.24709 5.43557l-2.11328 2.85536l-1.9432 0.342145"/>
<path d="M-868.36 -288.236l0.137057 -2.64328l-2.43172 -0.368914l-0.137057 2.643l2.43172 0.369192"/>
</g>
</g>
</g>
</g>
<g inkscape:groupmode="layer" inkscape:label="Coastline" id="Coastline"><title>Coastline</title>
<g>
<g id="drawing" transform="translate(969.43,173.228)">
<g stroke-width="1px" stroke="rgb(51,51,51)" fill="none">
<path d="M-969.43 -173.228l0 -222.722l680 0l0 222.722l-680 0"/>
</g>
</g>
</g>
</g>
<g id="Clone of page">
</g>
</g>
</g><!--ePage-->
</svg>
