<?xml version="1.0" encoding="UTF-8" standalone="no"?>
<!DOCTYPE svg PUBLIC "-//W3C//DTD SVG 1.1//EN" "http://www.w3.org/Graphics/SVG/1.1/DTD/svg11.dtd">
<svg width="100%" height="100%" viewBox="0 0 390 671" version="1.1" xmlns="http://www.w3.org/2000/svg" xmlns:xlink="http://www.w3.org/1999/xlink" xml:space="preserve" xmlns:serif="http://www.serif.com/" style="fill-rule:evenodd;clip-rule:evenodd;stroke-linecap:round;stroke-miterlimit:2;">
    <g transform="matrix(4.16667,0,0,4.16667,-17.9542,7.57507)">
        <path d="M17.837,157.341C25.503,157.341 29.741,152.714 29.741,146.85C29.741,143.919 28.54,141.517 26.386,139.645L23.878,141.905C25.326,143.212 26.174,144.731 26.174,146.78C26.174,150.63 22.995,153.138 17.731,153.138C12.539,153.138 9.36,150.418 9.36,146.638C9.36,144.872 10.102,143.565 11.267,142.364L8.724,140.104C7.17,141.552 5.792,143.848 5.792,146.674C5.792,152.608 10.278,157.341 17.837,157.341Z" style="fill:rgb(35,31,32);fill-rule:nonzero;"/>
        <path d="M24.867,136.536C27.869,136.536 29.741,135.476 29.741,132.58C29.741,131.626 29.6,130.92 29.388,130.425L26.35,130.955C26.421,131.273 26.421,131.414 26.421,131.591C26.421,132.015 26.068,132.474 25.079,132.474L4.379,132.474L4.379,136.536L24.867,136.536Z" style="fill:rgb(35,31,32);fill-rule:nonzero;"/>
        <path d="M8.936,125.268C8.936,123.82 7.982,122.76 6.64,122.76C5.263,122.76 4.309,123.82 4.309,125.268C4.309,126.716 5.263,127.776 6.64,127.776C7.982,127.776 8.936,126.716 8.936,125.268ZM29.317,127.317L29.317,123.255L11.974,123.255L11.974,127.317L29.317,127.317Z" style="fill:rgb(35,31,32);fill-rule:nonzero;"/>
        <path d="M29.317,118.098L29.317,114.354L18.756,114.354C16.601,114.354 13.528,114.672 11.409,114.848L11.409,114.707L16.672,112.87L27.163,108.879L27.163,107.007L16.672,103.015L11.409,101.143L11.409,101.002C13.528,101.214 16.601,101.532 18.756,101.532L29.317,101.532L29.317,97.681L6.216,97.681L6.216,102.203L17.59,106.265L21.97,107.784L21.97,107.925L17.59,109.444L6.216,113.612L6.216,118.098L29.317,118.098Z" style="fill:rgb(35,31,32);fill-rule:nonzero;"/>
        <path d="M20.663,93.69C26.386,93.69 29.741,89.946 29.741,85.142C29.741,82.952 28.964,80.868 27.869,79.208L25.326,80.585C26.138,81.857 26.598,83.128 26.598,84.612C26.598,87.402 24.831,89.381 21.688,89.734L21.688,78.713C21.264,78.607 20.557,78.536 19.78,78.536C14.941,78.536 11.55,81.009 11.55,85.707C11.55,89.769 15.012,93.69 20.663,93.69ZM19.109,89.769C16.213,89.416 14.694,87.65 14.694,85.601C14.694,83.234 16.354,82.069 19.109,82.069L19.109,89.769Z" style="fill:rgb(35,31,32);fill-rule:nonzero;"/>
        <path d="M23.454,74.969C27.198,74.969 29.741,73.485 29.741,69.459C29.741,68.081 29.423,66.88 29.105,65.926L26.103,66.633C26.315,67.127 26.492,67.834 26.492,68.434C26.492,70.094 25.503,70.871 23.454,70.871L15.188,70.871L15.188,66.456L11.974,66.456L11.974,70.871L7.241,70.871L7.241,74.262L11.974,74.757L12.15,77.442L15.188,77.442L15.188,74.969L23.454,74.969Z" style="fill:rgb(35,31,32);fill-rule:nonzero;"/>
        <path d="M29.317,62.853L29.317,49.183L25.856,49.183L25.856,58.756L6.216,58.756L6.216,62.853L29.317,62.853Z" style="fill:rgb(35,31,32);fill-rule:nonzero;"/>
        <path d="M24.655,46.64C27.693,46.64 29.741,44.521 29.741,41.483C29.741,39.434 28.717,37.668 27.41,36.114L27.41,36.008L29.317,35.69L29.317,32.37L19.038,32.37C14.199,32.37 11.55,34.489 11.55,38.834C11.55,41.589 12.61,44.026 13.811,45.934L16.531,44.45C15.612,42.931 14.835,41.307 14.835,39.576C14.835,37.244 16.389,36.467 18.226,36.432C19.003,43.532 20.946,46.64 24.655,46.64ZM24.337,42.684C22.606,42.684 21.37,41.13 20.769,36.432L24.655,36.432C25.856,37.704 26.562,38.799 26.562,40.212C26.562,41.66 25.891,42.684 24.337,42.684Z" style="fill:rgb(35,31,32);fill-rule:nonzero;"/>
        <path d="M29.317,27.778L29.317,24.564L27.551,24.21L27.551,24.104C28.964,22.656 29.741,20.961 29.741,19.371C29.741,15.521 26.315,11.953 20.345,11.953C15.012,11.953 11.55,14.461 11.55,18.806C11.55,20.572 12.433,22.374 13.705,23.822L10.808,23.716L4.379,23.716L4.379,27.778L29.317,27.778ZM24.937,23.716L16.848,23.716C15.541,22.374 14.906,21.173 14.906,19.901C14.906,17.287 16.954,16.157 20.416,16.157C24.337,16.157 26.386,17.923 26.386,20.219C26.386,21.243 25.997,22.479 24.937,23.716Z" style="fill:rgb(35,31,32);fill-rule:nonzero;"/>
        <path d="M44.648,114.689L44.648,134.977C44.648,146.497 53.987,155.837 65.508,155.837C77.029,155.837 86.368,146.497 86.368,134.977L86.368,114.689L44.648,114.689Z" style="fill:url(#_Linear1);"/>
        <path d="M65.471,87.973C65.471,89.701 64.07,91.102 62.342,91.102C60.614,91.102 59.213,89.701 59.213,87.973C59.213,86.244 62.342,82.891 62.342,82.891C62.342,82.891 65.471,86.244 65.471,87.973Z" style="fill:rgb(93,169,221);fill-rule:nonzero;"/>
        <path d="M77.987,87.973C77.987,89.701 76.586,91.102 74.858,91.102C73.13,91.102 71.729,89.701 71.729,87.973C71.729,86.244 74.858,82.891 74.858,82.891C74.858,82.891 77.987,86.244 77.987,87.973Z" style="fill:rgb(93,169,221);fill-rule:nonzero;"/>
        <path d="M71.729,98.419C71.729,100.146 70.328,101.547 68.6,101.547C66.872,101.547 65.471,100.146 65.471,98.419C65.471,96.69 68.6,93.337 68.6,93.337C68.6,93.337 71.729,96.69 71.729,98.419Z" style="fill:rgb(93,169,221);fill-rule:nonzero;"/>
        <path d="M59.287,98.419C59.287,100.146 57.886,101.547 56.158,101.547C54.43,101.547 53.029,100.146 53.029,98.419C53.029,96.69 56.158,93.337 56.158,93.337C56.158,93.337 59.287,96.69 59.287,98.419Z" style="fill:rgb(93,169,221);fill-rule:nonzero;"/>
        <path d="M86.179,9.817L86.179,134.977" style="fill:none;fill-rule:nonzero;"/>
        <path d="M86.179,9.817L86.179,134.977" style="fill:none;stroke:rgb(35,31,32);stroke-width:2.94px;"/>
        <path d="M44.459,134.977L44.459,9.817" style="fill:none;fill-rule:nonzero;"/>
        <path d="M44.459,134.977L44.459,9.817" style="fill:none;stroke:rgb(35,31,32);stroke-width:2.94px;"/>
        <path d="M86.179,134.977C86.179,146.497 76.84,155.837 65.319,155.837C53.798,155.837 44.459,146.497 44.459,134.977" style="fill:none;stroke:rgb(35,31,32);stroke-width:2.94px;"/>
        <path d="M86.179,9.817C86.179,5.209 89.915,1.473 94.523,1.473" style="fill:none;stroke:rgb(35,31,32);stroke-width:2.94px;"/>
        <path d="M44.459,9.817C44.459,5.209 40.723,1.473 36.115,1.473" style="fill:none;stroke:rgb(35,31,32);stroke-width:2.94px;"/>
        <path d="M74.04,57.582C73.22,53.415 69.916,50.27 65.508,50.27C61.1,50.27 57.796,53.415 56.976,57.582C54.231,57.861 51.718,60.151 51.718,62.969C51.718,65.975 54.155,68.412 57.161,68.412L73.854,68.412C76.861,68.412 79.298,65.975 79.298,62.969C79.298,60.151 76.785,57.861 74.04,57.582Z" style="fill:white;fill-rule:nonzero;"/>
        <path d="M74.04,57.582C73.22,53.415 69.916,50.27 65.508,50.27C61.1,50.27 57.796,53.415 56.976,57.582C54.231,57.861 51.718,60.151 51.718,62.969C51.718,65.975 54.155,68.412 57.161,68.412L73.854,68.412C76.861,68.412 79.298,65.975 79.298,62.969C79.298,60.151 76.785,57.861 74.04,57.582Z" style="fill:none;stroke:rgb(182,184,186);stroke-width:2.13px;stroke-linecap:butt;"/>
        <path d="M65.508,13.801L65.508,17.973" style="fill:none;stroke:rgb(252,179,21);stroke-width:2.21px;stroke-linecap:butt;"/>
        <path d="M56.455,17.551L59.405,20.501" style="fill:none;stroke:rgb(252,179,21);stroke-width:2.21px;stroke-linecap:butt;"/>
        <path d="M52.705,26.604L56.877,26.604" style="fill:none;stroke:rgb(252,179,21);stroke-width:2.21px;stroke-linecap:butt;"/>
        <path d="M56.455,35.657L59.405,32.707" style="fill:none;stroke:rgb(252,179,21);stroke-width:2.21px;stroke-linecap:butt;"/>
        <path d="M65.508,39.407L65.508,35.235" style="fill:none;stroke:rgb(252,179,21);stroke-width:2.21px;stroke-linecap:butt;"/>
        <path d="M74.561,35.657L71.611,32.707" style="fill:none;stroke:rgb(252,179,21);stroke-width:2.21px;stroke-linecap:butt;"/>
        <path d="M78.311,26.604L74.139,26.604" style="fill:none;stroke:rgb(252,179,21);stroke-width:2.21px;stroke-linecap:butt;"/>
        <path d="M74.561,17.551L71.611,20.501" style="fill:none;stroke:rgb(252,179,21);stroke-width:2.21px;stroke-linecap:butt;"/>
        <path d="M59.25,26.604C59.25,23.148 62.052,20.346 65.508,20.346C68.964,20.346 71.766,23.148 71.766,26.604C71.766,30.06 68.964,32.862 65.508,32.862C62.052,32.862 59.25,30.06 59.25,26.604Z" style="fill:rgb(252,179,21);fill-rule:nonzero;"/>
    </g>
    <defs>
        <linearGradient id="_Linear1" x1="0" y1="0" x2="1" y2="0" gradientUnits="userSpaceOnUse" gradientTransform="matrix(2.51956e-16,41.1475,-41.1475,2.51956e-16,65.5083,114.689)"><stop offset="0" style="stop-color:rgb(185,229,251);stop-opacity:1"/><stop offset="1" style="stop-color:rgb(93,169,221);stop-opacity:1"/></linearGradient>
    </defs>
</svg>
