<?xml version="1.0" encoding="UTF-8" standalone="no"?>
<!DOCTYPE svg PUBLIC "-//W3C//DTD SVG 1.1//EN" "http://www.w3.org/Graphics/SVG/1.1/DTD/svg11.dtd">
<svg width="100%" height="100%" viewBox="0 0 886 671" version="1.1" xmlns="http://www.w3.org/2000/svg" xmlns:xlink="http://www.w3.org/1999/xlink" xml:space="preserve" xmlns:serif="http://www.serif.com/" style="fill-rule:evenodd;clip-rule:evenodd;stroke-linecap:round;stroke-miterlimit:2;">
    <g transform="matrix(4.16667,0,0,4.16667,7.58343,4.69593)">
        <path d="M65.261,76.274C65.261,83.939 69.889,88.177 75.752,88.177C78.684,88.177 81.086,86.976 82.958,84.822L80.697,82.314C79.39,83.762 77.872,84.61 75.823,84.61C71.973,84.61 69.465,81.431 69.465,76.168C69.465,70.975 72.185,67.796 75.964,67.796C77.73,67.796 79.037,68.538 80.238,69.703L82.499,67.16C81.051,65.606 78.755,64.228 75.929,64.228C69.995,64.228 65.261,68.714 65.261,76.274Z" style="fill:rgb(35,31,32);fill-rule:nonzero;"/>
        <path d="M86.066,83.303C86.066,86.305 87.126,88.177 90.023,88.177C90.976,88.177 91.683,88.036 92.177,87.824L91.647,84.786C91.329,84.857 91.188,84.857 91.012,84.857C90.588,84.857 90.129,84.504 90.129,83.515L90.129,62.816L86.066,62.816L86.066,83.303Z" style="fill:rgb(35,31,32);fill-rule:nonzero;"/>
        <path d="M97.334,67.372C98.783,67.372 99.842,66.418 99.842,65.076C99.842,63.699 98.783,62.745 97.334,62.745C95.886,62.745 94.826,63.699 94.826,65.076C94.826,66.418 95.886,67.372 97.334,67.372ZM95.286,87.754L99.348,87.754L99.348,70.41L95.286,70.41L95.286,87.754Z" style="fill:rgb(35,31,32);fill-rule:nonzero;"/>
        <path d="M104.504,87.753L108.248,87.753L108.248,77.192C108.248,75.037 107.93,71.964 107.754,69.845L107.895,69.845L109.732,75.108L113.723,85.599L115.595,85.599L119.587,75.108L121.459,69.845L121.6,69.845C121.388,71.964 121.07,75.037 121.07,77.192L121.07,87.753L124.921,87.753L124.921,64.652L120.399,64.652L116.337,76.026L114.818,80.406L114.677,80.406L113.158,76.026L108.99,64.652L104.504,64.652L104.504,87.753Z" style="fill:rgb(35,31,32);fill-rule:nonzero;"/>
        <path d="M128.912,79.099C128.912,84.822 132.656,88.177 137.46,88.177C139.65,88.177 141.734,87.4 143.394,86.305L142.017,83.762C140.745,84.574 139.473,85.034 137.99,85.034C135.199,85.034 133.221,83.267 132.868,80.124L143.889,80.124C143.995,79.7 144.065,78.993 144.065,78.216C144.065,73.377 141.593,69.986 136.895,69.986C132.833,69.986 128.912,73.448 128.912,79.099ZM132.833,77.545C133.186,74.649 134.952,73.13 137.001,73.13C139.367,73.13 140.533,74.79 140.533,77.545L132.833,77.545Z" style="fill:rgb(35,31,32);fill-rule:nonzero;"/>
        <path d="M147.633,81.89C147.633,85.634 149.116,88.177 153.143,88.177C154.521,88.177 155.722,87.859 156.675,87.542L155.969,84.539C155.474,84.751 154.768,84.928 154.168,84.928C152.507,84.928 151.73,83.939 151.73,81.89L151.73,73.624L156.146,73.624L156.146,70.41L151.73,70.41L151.73,65.677L148.339,65.677L147.845,70.41L145.16,70.587L145.16,73.624L147.633,73.624L147.633,81.89Z" style="fill:rgb(35,31,32);fill-rule:nonzero;"/>
        <path d="M159.749,87.753L173.419,87.753L173.419,84.292L163.846,84.292L163.846,64.652L159.749,64.652L159.749,87.753Z" style="fill:rgb(35,31,32);fill-rule:nonzero;"/>
        <path d="M175.961,83.091C175.961,86.129 178.081,88.177 181.118,88.177C183.167,88.177 184.933,87.153 186.488,85.846L186.593,85.846L186.911,87.753L190.232,87.753L190.232,77.475C190.232,72.635 188.112,69.986 183.768,69.986C181.012,69.986 178.575,71.046 176.668,72.247L178.151,74.967C179.67,74.048 181.295,73.271 183.026,73.271C185.357,73.271 186.134,74.825 186.17,76.662C179.07,77.439 175.961,79.382 175.961,83.091ZM179.917,82.773C179.917,81.042 181.472,79.806 186.17,79.205L186.17,83.091C184.898,84.292 183.803,84.998 182.39,84.998C180.942,84.998 179.917,84.327 179.917,82.773Z" style="fill:rgb(35,31,32);fill-rule:nonzero;"/>
        <path d="M194.824,87.754L198.038,87.754L198.391,85.987L198.497,85.987C199.946,87.4 201.641,88.177 203.231,88.177C207.081,88.177 210.648,84.751 210.648,78.781C210.648,73.448 208.14,69.986 203.796,69.986C202.03,69.986 200.228,70.869 198.78,72.141L198.886,69.244L198.886,62.816L194.824,62.816L194.824,87.754ZM198.886,83.373L198.886,75.285C200.228,73.978 201.429,73.342 202.701,73.342C205.315,73.342 206.445,75.39 206.445,78.852C206.445,82.773 204.679,84.822 202.383,84.822C201.358,84.822 200.122,84.433 198.886,83.373Z" style="fill:rgb(35,31,32);fill-rule:nonzero;"/>
        <path d="M10.004,115.38L10.004,135.668C10.004,147.188 19.344,156.528 30.864,156.528C42.385,156.528 51.724,147.188 51.724,135.668L51.724,115.38L10.004,115.38Z" style="fill:url(#_Linear1);"/>
        <path d="M30.827,88.664C30.827,90.392 29.426,91.793 27.698,91.793C25.97,91.793 24.569,90.392 24.569,88.664C24.569,86.935 27.698,83.582 27.698,83.582C27.698,83.582 30.827,86.935 30.827,88.664Z" style="fill:rgb(93,169,221);fill-rule:nonzero;"/>
        <path d="M43.343,88.664C43.343,90.392 41.942,91.793 40.214,91.793C38.486,91.793 37.085,90.392 37.085,88.664C37.085,86.935 40.214,83.582 40.214,83.582C40.214,83.582 43.343,86.935 43.343,88.664Z" style="fill:rgb(93,169,221);fill-rule:nonzero;"/>
        <path d="M37.085,99.11C37.085,100.837 35.684,102.238 33.956,102.238C32.228,102.238 30.827,100.837 30.827,99.11C30.827,97.381 33.956,94.028 33.956,94.028C33.956,94.028 37.085,97.381 37.085,99.11Z" style="fill:rgb(93,169,221);fill-rule:nonzero;"/>
        <path d="M24.643,99.11C24.643,100.837 23.242,102.238 21.514,102.238C19.786,102.238 18.385,100.837 18.385,99.11C18.385,97.381 21.514,94.028 21.514,94.028C21.514,94.028 24.643,97.381 24.643,99.11Z" style="fill:rgb(93,169,221);fill-rule:nonzero;"/>
        <path d="M51.535,10.508L51.535,135.668" style="fill:none;fill-rule:nonzero;"/>
        <path d="M51.535,10.508L51.535,135.668" style="fill:none;stroke:rgb(35,31,32);stroke-width:2.94px;"/>
        <path d="M9.815,135.668L9.815,10.508" style="fill:none;fill-rule:nonzero;"/>
        <path d="M9.815,135.668L9.815,10.508" style="fill:none;stroke:rgb(35,31,32);stroke-width:2.94px;"/>
        <path d="M51.535,135.668C51.535,147.188 42.196,156.528 30.675,156.528C19.155,156.528 9.815,147.188 9.815,135.668" style="fill:none;stroke:rgb(35,31,32);stroke-width:2.94px;"/>
        <path d="M51.535,10.508C51.535,5.9 55.271,2.164 59.879,2.164" style="fill:none;stroke:rgb(35,31,32);stroke-width:2.94px;"/>
        <path d="M9.815,10.508C9.815,5.9 6.08,2.164 1.471,2.164" style="fill:none;stroke:rgb(35,31,32);stroke-width:2.94px;"/>
        <path d="M39.396,58.273C38.576,54.106 35.272,50.961 30.864,50.961C26.456,50.961 23.152,54.106 22.332,58.273C19.587,58.552 17.074,60.842 17.074,63.66C17.074,66.666 19.511,69.103 22.518,69.103L39.211,69.103C42.217,69.103 44.654,66.666 44.654,63.66C44.654,60.842 42.141,58.552 39.396,58.273Z" style="fill:white;fill-rule:nonzero;"/>
        <path d="M39.396,58.273C38.576,54.106 35.272,50.961 30.864,50.961C26.456,50.961 23.152,54.106 22.332,58.273C19.587,58.552 17.074,60.842 17.074,63.66C17.074,66.666 19.511,69.103 22.518,69.103L39.211,69.103C42.217,69.103 44.654,66.666 44.654,63.66C44.654,60.842 42.141,58.552 39.396,58.273Z" style="fill:none;stroke:rgb(182,184,186);stroke-width:2.13px;stroke-linecap:butt;"/>
        <path d="M30.864,14.492L30.864,18.664" style="fill:none;stroke:rgb(252,179,21);stroke-width:2.21px;stroke-linecap:butt;"/>
        <path d="M21.811,18.242L24.761,21.192" style="fill:none;stroke:rgb(252,179,21);stroke-width:2.21px;stroke-linecap:butt;"/>
        <path d="M18.061,27.295L22.233,27.295" style="fill:none;stroke:rgb(252,179,21);stroke-width:2.21px;stroke-linecap:butt;"/>
        <path d="M21.811,36.348L24.761,33.398" style="fill:none;stroke:rgb(252,179,21);stroke-width:2.21px;stroke-linecap:butt;"/>
        <path d="M30.864,40.098L30.864,35.926" style="fill:none;stroke:rgb(252,179,21);stroke-width:2.21px;stroke-linecap:butt;"/>
        <path d="M39.917,36.348L36.967,33.398" style="fill:none;stroke:rgb(252,179,21);stroke-width:2.21px;stroke-linecap:butt;"/>
        <path d="M43.667,27.295L39.495,27.295" style="fill:none;stroke:rgb(252,179,21);stroke-width:2.21px;stroke-linecap:butt;"/>
        <path d="M39.917,18.242L36.967,21.192" style="fill:none;stroke:rgb(252,179,21);stroke-width:2.21px;stroke-linecap:butt;"/>
        <path d="M24.606,27.295C24.606,23.839 27.408,21.037 30.864,21.037C34.32,21.037 37.122,23.839 37.122,27.295C37.122,30.751 34.32,33.553 30.864,33.553C27.408,33.553 24.606,30.751 24.606,27.295Z" style="fill:rgb(252,179,21);fill-rule:nonzero;"/>
    </g>
    <defs>
        <linearGradient id="_Linear1" x1="0" y1="0" x2="1" y2="0" gradientUnits="userSpaceOnUse" gradientTransform="matrix(2.51956e-16,41.1475,-41.1475,2.51956e-16,30.8646,115.38)"><stop offset="0" style="stop-color:rgb(185,229,251);stop-opacity:1"/><stop offset="1" style="stop-color:rgb(93,169,221);stop-opacity:1"/></linearGradient>
    </defs>
</svg>
