<?xml version="1.0" ?>
<svg version="1.1" encoding="iso-8859-1" baseProfile="full"
xmlns:dc="http://purl.org/dc/elements/1.1/"
xmlns:cc="http://creativecommons.org/ns#"
xmlns:rdf="http://www.w3.org/1999/02/22-rdf-syntax-ns#"
xmlns="http://www.w3.org/2000/svg"
xmlns:xlink="http://www.w3.org/1999/xlink"
xmlns:ev="http://www.w3.org/2001/xml-events"
xmlns:sodipodi="http://sodipodi.sourceforge.net/DTD/sodipodi-0.dtd"
xmlns:inkscape="http://www.inkscape.org/namespaces/inkscape"
inkscape:version="0.46"
inkscape:output_extension="org.inkscape.output.svg.inkscape"
viewBox="0 0 681 416" xml:space="preserve">
<title>Magics plot</title>
<metadata id="MAGICSmetadata">
<rdf:RDF><cc:Work rdf:about="">
	<dc:format>image/svg+xml</dc:format>
	<dc:title>Magics plot</dc:title>
	<dc:author>baudouin on Baudouins-iMac-3.local</dc:author>
	<dc:date>Wed Sep  2 19:48:32 2020</dc:date>
	<dc:language>en-GB</dc:language>
	<dc:publisher><cc:Agent>
	 <dc:title>Magics 4.4.3 (64 bit)</dc:title>
	</cc:Agent></dc:publisher>
	<dc:coverage>Plot of meteorological data</dc:coverage>
</cc:Work></rdf:RDF>
</metadata>
<g id="page" transform="translate(0,415.763)" vector-effect="non-scaling-stroke">
<g id="Page0">
<g inkscape:groupmode="layer" inkscape:label="Coastline" id="Coastline"><title>Coastline</title>
<g>
<g id="drawing" transform="translate(-5253.37,-822.771)">
</g>
</g>
</g>
<g inkscape:groupmode="layer" inkscape:label="Coastline" id="Coastline"><title>Coastline</title>
<g>
<g id="drawing" transform="translate(-5253.37,-822.771)">
<g fill-rule="evenodd" stroke="none">
<path fill="rgb(255,225,170)" d="M5868.9 556.425l2.65087 -2.17006l2.18929 0.589795l1.85272 -0.125011l1.59629 -2.84319l4.82092 -3.31118l3.22142 -0.0769312l0.750065 0.253228l0.743651 1.69565l0.952007 0.73083l1.45525 0.477605l1.51295 -0.0160276l4.05483 -0.625051l4.12855 -1.4264l3.48106 -0.217966l3.51632 0.246815l-1.24369 -2.54188l0.522481 -2.73741l0.67634 -1.04817l0.125007 -1.05778l-1.49051 -0.0320519l-1.44243 0.625054l-4.72476 3.09962l-4.23113 3.79199l-0.131421 -3.62851l1.80464 -3.58364l4.23433 -2.6733l1.50013 -2.4938l1.78541 -2.2534l4.95555 -4.36896l0.0256448 -0.512864l-4.9844 2.01299l-1.94568 0.237197l-2.42328 -0.455167l-2.61881 0.512864l-2.74062 0.875075l-2.51624 1.45205l-3.80481 2.81434l-2.15403 0.615437l-2.26301 0.214759l-4.37216 1.06099l-4.29524 1.48731l-3.11244 1.87836l-1.99055 3.00026l-1.98735 0.0897487l-1.91042 1.03214l-1.70848 -0.560947l-1.6636 -0.875072l-0.519274 1.37832l-0.846227 1.20202l-0.926358 0.839817l-0.535302 2.02902l3.48747 0.416701l1.1283 1.6636l0.884689 2.2566l1.3655 1.8431l3.16052 -0.788527"/>
<path fill="rgb(255,225,170)" d="M5817.41 562.823l1.3655 -1.38473l0.381443 -1.84631l-0.980852 0.182708l-0.599409 0.169887l-0.95521 0.817375l-0.897513 2.6124l1.68604 -0.551326"/>
<path fill="rgb(255,225,170)" d="M5844.64 599.038l3.15732 -0.00641039l2.74382 -2.17326l2.88165 -1.59949l3.01628 -0.362212l1.23728 0.484015l0.839813 -0.875075l3.63172 -0.108983l2.30789 -0.923155l-1.63475 -4.85938l-0.461577 -3.06757l-0.948796 -2.95538l0.682751 -1.65078l-0.134628 -1.56103l-2.24378 -1.82708l-3.68621 -2.38802l-2.3752 -2.77588l-0.95521 -0.102573l-0.961621 -0.628257v-1.45205l-1.08342 -1.40717l-1.95529 -0.528891l-1.96811 0.862255l-6.15116 1.83349l-4.01316 -0.217966l-6.56466 2.38161l-3.72467 2.57714l-3.40734 3.02269l0.160273 1.65719l0.580175 1.81105l-0.403877 0.538509l-0.826996 0.282073l-0.634668 0.778913l-0.205146 1.11548l-1.43923 0.855841l-1.71809 0.570561l-0.298101 1.68925l0.282073 1.76297l1.9008 3.57402l2.02902 1.41679l2.4329 0.90392l5.8787 1.07701l4.41063 1.26293l2.50342 1.16036l3.55799 0.301308l3.5612 -0.448757"/>
<path fill="rgb(255,225,170)" d="M5476.07 733.78l2.1348 -0.0705175l2.30789 -1.00009l1.11548 -2.01299l-2.03222 -5.62547l-4.01316 -2.40085l-4.28241 -2.09953l-3.35285 -2.63163l-3.10283 -2.95538l-6.22488 -4.77925l-8.05838 -5.03248l-3.55478 -1.36229l-2.10595 -1.74694l-2.05146 -0.833403l-1.58347 -1.70848l-3.67018 -1.46166l-2.63804 -2.86242l-4.43948 -3.26309l-0.875072 -1.24049l-0.262842 -2.0162l-1.04817 -1.49372l-2.42649 -1.6027l-1.7822 -2.26622l-1.98735 -1.61232l-2.62202 -0.798144l-4.47153 -2.08351l-12.7222 -9.84378l-4.99401 -3.24707l-3.96508 0.875075l-3.70224 -2.06107l-4.68309 -3.43298l-0.628257 1.02893l-0.10578 1.99376l0.910334 1.47769l1.92324 0.862255l1.1315 1.41358l-0.195528 2.1989l0.576971 2.1412l4.69912 5.00683l2.02261 3.49709l2.63163 2.94897l3.43939 2.51944l3.15732 2.83037l6.55184 6.87558l2.36879 2.89768l2.71497 1.21485l7.60962 6.51978l2.84319 1.79182l3.25028 1.14753l6.32105 3.58364l4.05803 1.74374l2.6124 2.50983l3.59646 1.779l5.35302 1.59629l0.907127 1.05458l0.637875 1.82708l1.09945 1.46807l3.79519 2.16365l4.07406 1.34947l0.698778 1.16035l0.993672 0.804555l1.779 -0.224377l1.58988 0.535302l6.68005 3.63172l1.99697 -0.679544"/>
<path fill="rgb(255,225,170)" d="M5909.02 555.528l3.51632 -2.44572l1.49211 -2.7887l-1.26934 -2.52906l-1.0706 0.39747l-3.49068 2.79511v2.40405l-0.00160178 1.60911v1.81105l0.823786 -1.25331"/>
<path fill="rgb(255,225,170)" d="M5910.51 541.677l0.0689158 -0.778913l0.86706 -1.56103l-1.40236 0.323746l-1.84791 1.55782l-0.00160178 0.78853v0.8911l2.3159 -1.22126"/>
<path fill="rgb(255,225,170)" d="M5908.19 556.784l-0.0256448 -3.42337l0.0256448 -2.39764l-2.26622 2.96179l-1.11548 2.89127l0.9488 1.1892l2.4329 -1.22126"/>
<path fill="rgb(255,225,170)" d="M5889.23 570.035l0.814172 -1.98734l-0.471195 -1.13792l-0.826993 -0.467988l-1.1315 -0.0384656l0.519274 4.51961l1.09625 -0.887896"/>
<path fill="rgb(255,225,170)" d="M5886.83 594.178l0.429522 -1.21805l-0.804555 -2.48418l-1.03214 -1.49372l-1.13792 0.875075l-0.503247 0.929565l-0.0961624 1.03534l2.8528 2.62202l0.291694 -0.266049"/>
<path fill="rgb(255,225,170)" d="M5869.71 581.924l0.820582 -1.56744l-0.705189 -2.04825l-1.44243 0.182708l-1.29498 2.01299l0.932772 2.00338l1.68924 -0.583381"/>
<path fill="rgb(255,225,170)" d="M5529.95 551.223l-0.977648 -0.487222l-2.65086 -0.657106l-2.29507 -2.44893l-1.0065 -0.439139l-1.03855 -1.02252l-1.13471 -1.50333l-0.570561 0.198735l-1.52577 1.21485l-0.362208 1.74374l0.794937 2.48418l1.08022 1.25652l1.0129 0.0705175l3.62531 -0.602616l4.50999 1.55141l0.538509 -1.35909"/>
<path fill="rgb(255,225,170)" d="M5524.05 536.218l0.0416724 -1.24049l-0.730833 -1.10907l-1.32062 -1.10266l-1.21805 -3.66056l-1.13151 -1.25331l-3.2695 3.26951l-2.61561 0.50004l-1.82387 1.05778l0.919948 1.42961l2.12197 1.4232l5.27609 1.02252l3.75032 -0.336567"/>
<path fill="rgb(255,225,170)" d="M5531.53 584.19l1.98094 -3.35285l-1.29819 -0.368622l-3.26951 -4.67667l-3.43939 0.323743l-0.705189 -0.266046l-0.72442 0.0320519l-0.798144 0.240404l-2.69895 3.03872l-1.07381 2.15723l0.782117 0.211556l1.67963 -0.621847l1.46487 0.262842l0.919948 1.30139l-1.779 1.15074l4.84977 0.868662l4.10932 -0.301308"/>
<path fill="rgb(255,225,170)" d="M5511.4 506.658l2.99384 -5.01324l-5.78574 0.945593l-4.99081 4.58052l1.50974 0.849431l4.07086 0.144242l2.20211 -1.50654"/>
<path fill="rgb(255,225,170)" d="M5479.41 511.322l5.1639 0.0929555l3.46824 -3.12206l0.0384656 -1.40076l-0.615437 -1.75015l-1.65399 -8.35006l-0.826993 -0.320539l-1.2437 -1.76618l-0.467988 -3.19578l0.698778 -1.27254l-1.60911 -0.426319l-1.28857 0.570561l-0.647489 3.99393l-1.44884 2.54188l-1.25652 0.576971l-2.46175 0.022438l-2.11236 -10.8503l-2.731 -3.01308l-1.79823 -3.23425l-1.32704 0.17309l-1.35588 3.87212l0.0384623 2.96499l3.95867 11.8632l-0.551329 6.38515l2.22775 3.59646l1.97132 1.67963l-0.022438 2.11236l2.21493 0.121804l3.63813 -1.86554"/>
<path fill="rgb(255,225,170)" d="M5521.3 524.201l1.4264 -0.500043l0.375032 -2.06428l-2.76626 -12.6068l-0.772499 -1.52256l-1.21805 7.18971l1.85272 8.03593l0.554536 1.50974l0.548123 -0.0416692"/>
<path fill="rgb(255,225,170)" d="M5520.52 503.139l-0.0737244 -4.32729l-1.65719 -6.90764l-0.705185 0.0705208l-0.352594 0.919948l0.862251 9.92392l1.35909 2.35276l0.567354 -2.03222"/>
<path fill="rgb(255,225,170)" d="M5501.56 541.539l4.869 0.583381l2.52265 -2.18929l-1.44563 -1.80784l-0.544919 -1.77579l-2.0194 -0.881486l-1.08663 -1.74374l-1.29178 0.089752l-4.70232 -3.18617l-0.493629 -1.59629h-0.823789l-1.51295 -0.711599l-2.51945 -5.88191l-2.69253 -1.31101l-1.779 0.272456l-0.541712 1.4264l-1.03534 4.9876l2.18608 2.45534l0.919948 -0.185914l2.28224 -1.11868l1.10266 1.27895l1.01932 2.99384l0.679544 5.08376l1.50654 3.3272l-0.352594 0.435933l0.432729 1.3046l2.52906 0.634671l2.7919 -2.48418"/>
<path fill="rgb(255,225,170)" d="M5488.68 516.117l0.506453 -2.59637l-3.78558 -0.737244l-0.798144 2.05787l3.48106 2.12838l0.596205 -0.852637"/>
<path fill="rgb(255,225,170)" d="M5847.87 627.63l0.647492 -0.320539l0.240404 -0.637875l0.727627 -0.846224l2.51624 -2.06107l0.907127 0.211556l1.4232 1.16356l4.22472 -0.935976l0.00641039 -1.41038l-2.21814 -0.766089l-2.82396 -0.535302l-1.70848 0.740447l-2.42328 0.413498l-1.69886 1.91362l-1.72451 1.25652l-1.71168 -0.198735l-1.67963 1.34306l-1.38153 0.673133l2.03863 0.987262l4.63821 -0.990469"/>
<path fill="rgb(255,225,170)" d="M5500.69 468.091l0.461577 -2.53227l-3.03551 -1.3655l-2.21172 0.862251l-0.929569 0.952003l-0.237197 2.75985l0.878279 0.439139l3.70865 0.548123l1.3655 -1.6636"/>
<path fill="rgb(255,225,170)" d="M5497.53 456.481l0.320542 -0.743651l1.45204 -0.375032l0.333363 -0.900717l0.0160276 -1.04176l-0.205146 -1.22446l-2.17326 -2.20531l-2.4361 1.26613l-0.493633 1.32383l1.94568 3.97149l0.759679 0.253225l0.480809 -0.323746"/>
<path fill="rgb(255,225,170)" d="M5576.55 662.591l-1.44243 -1.26934l-0.750065 -0.10578l-2.58676 0.282077l-0.432729 1.6027l2.28225 1.27895l1.77579 0.022438l1.15394 -1.81105"/>
<path fill="rgb(255,225,170)" d="M5563.26 641.371l-4.31126 -2.70215l-0.762885 -4.21831l-1.49692 -0.246815l-1.43281 0.753268l-0.984059 4.32088l1.45846 2.2534l2.80152 2.57714l2.99384 0.830199l1.73412 -3.56761"/>
<path fill="rgb(255,225,170)" d="M5558.11 621.681l-1.25331 -2.41046l-3.11886 -2.33353l1.79182 -1.06099l-2.5515 -1.25652l-1.12189 -3.0868l-1.83669 -0.44555l-2.36558 0.862255l-0.942389 2.09633l0.352594 3.8593l-0.359005 1.51295l8.57124 3.67659l1.32063 0.173094l1.51295 -1.58667"/>
<path fill="rgb(255,225,170)" d="M5518.27 709.502l0.602616 -5.59983l-2.66369 0.10578l-1.5418 -0.605823l-0.535299 -0.756475l-0.317336 -1.22126l0.115394 -1.04496l-2.05146 1.14753l-3.62851 0.650695l2.08992 4.29844l-0.105776 1.92003l2.14761 0.775706l0.83661 1.17638l1.30139 0.0512864l3.75032 -0.89751"/>
<path fill="rgb(255,225,170)" d="M5466.61 679.4l1.38153 -1.20844l1.10586 -2.15403l-0.669927 -0.359005l-0.0609036 -1.96811l0.576971 -1.57065l1.73733 -0.89751l-1.51295 -1.04817l-1.38473 -0.16027l0.0961624 1.21805l-0.846227 3.63172l-0.0609036 1.83669l-2.10915 3.00346l1.74694 -0.323746"/>
<path fill="rgb(255,225,170)" d="M5494.65 694.562l0.964824 -2.41687l0.00961722 -1.04176l-2.28866 -3.71506l-2.21172 -1.6604l0.147449 -5.21839l-0.952003 -1.04817l-2.13159 -0.887896l-4.8658 1.53218l-0.352594 1.28857l3.00025 0.217966l1.74053 1.22767l-2.5515 3.30156l-2.59317 0.605819l1.31101 2.45213l2.00979 2.0803l4.5741 1.186l2.39444 2.36238l1.79502 -0.266049"/>
<path fill="rgb(255,225,170)" d="M5499.36 742.569l-0.490426 -1.44563l-2.82395 -1.24049l-0.701982 2.53226l0.711599 0.67634l0.974441 0.464784l1.28857 0.256432l1.04175 -1.2437"/>
<path fill="rgb(255,225,170)" d="M5908.19 542.898v-1.67963l-0.50325 1.09304l0.0833416 0.625054l0.419908 -0.0384656"/>
<path fill="rgb(255,225,170)" d="M5909.63 530.07l0.379841 -0.759679h-0.814172l-1.00489 0.881482v0.50325l1.43922 -0.625054"/>
<path fill="rgb(255,225,170)" d="M5913.16 623.357l0.100968 -0.673133l0.201942 -0.298101l0.299703 -0.201939l0.583385 0.413495l0.487219 0.0544932l-0.0737244 -0.968031l-1.02573 -0.528891l-0.823786 0.625054l-0.216365 0.685954l-0.149051 0.467988l0.0753262 0.666723l0.453562 0.137832l0.0865484 -0.381443"/>
<path fill="rgb(255,225,170)" d="M5813.71 410.471l0.179504 -0.413498l-0.291691 -0.346181l-1.65719 -0.176297l-1.35268 0.346184l-0.660309 0.118597l0.429522 0.532098l2.07069 0.27246l1.28216 -0.333363"/>
<path fill="rgb(255,225,170)" d="M5731.92 712.102l-0.0641104 -0.625054l-0.772499 -0.27887l-0.55774 0.413498l0.189118 0.73083l0.9488 0.115394l0.256432 -0.355798"/>
</g>
<g stroke-width="0.5px" stroke="rgb(102,84,51)" fill="none">
<path d="M5908.17 530.705l-4.95555 4.36896l-1.78541 2.2534l-1.50013 2.4938l-4.23433 2.6733l-1.80464 3.58364l0.131421 3.62851l4.23113 -3.79199l4.72476 -3.09962l1.44243 -0.625053l1.49051 0.032054l-0.125011 1.05778l-0.676339 1.04817l-0.52248 2.73741l1.24369 2.54188l-3.51632 -0.246816l-3.48106 0.217967l-4.12855 1.4264l-4.05483 0.625053l-1.51295 0.016027l-1.45525 -0.477604l-0.952003 -0.730831l-0.743653 -1.69566l-0.750063 -0.253227l-3.22143 0.0769296l-4.82092 3.31118l-1.59629 2.84319l-1.85272 0.125011l-2.18929 -0.589793l-2.65086 2.17006l-3.16052 0.788528l-1.3655 -1.8431l-0.88469 -2.2566l-1.1283 -1.6636l-3.48747 -0.416702l0.535302 -2.02902l0.92636 -0.839815l0.846225 -1.20202l0.519275 -1.37832l1.6636 0.875074l1.70848 0.560945l1.91042 -1.03214l1.98735 -0.0897512l1.99055 -3.00025l3.11244 -1.87836l4.29523 -1.48731l4.37216 -1.06099l2.26301 -0.214762l2.15403 -0.615437l3.80481 -2.81434l2.51624 -1.45205l2.74062 -0.875074l2.61881 -0.512864l2.42328 0.455167l1.94568 -0.2372l4.9844 -2.01299l-0.0256432 0.512864"/>
<path d="M5817.41 562.823l-1.68604 0.551329l0.897512 -2.6124l0.955209 -0.817377l0.59941 -0.169886l0.980852 -0.182708l-0.381442 1.84631l-1.3655 1.38473"/>
<path d="M5851.74 570.205l0 1.45205l0.96162 0.628258l0.955209 0.102573l2.3752 2.77588l3.68621 2.38802l2.24378 1.82708l0.134627 1.56103l-0.68275 1.65078l0.948798 2.95538l0.461577 3.06757l1.63475 4.85938l-2.30789 0.923155l-3.63172 0.108984l-0.839815 0.875074l-1.23728 -0.484015l-3.01628 0.36221l-2.88165 1.59949l-2.74382 2.17326l-3.15732 0.0064108l-3.5612 0.448756l-3.55799 -0.301308l-2.50342 -1.16035l-4.41063 -1.26293l-5.8787 -1.07701l-2.4329 -0.903923l-2.02902 -1.41679l-1.9008 -3.57402l-0.282075 -1.76297l0.298102 -1.68925l1.71809 -0.570561l1.43922 -0.855842l0.205146 -1.11548l0.634669 -0.778912l0.826993 -0.282075l0.40388 -0.538507l-0.580177 -1.81105l-0.16027 -1.65719l3.40734 -3.02269l3.72467 -2.57714l6.56466 -2.38161l4.01316 0.217967l6.15116 -1.83349l1.96811 -0.862252l1.95529 0.528891l1.08342 1.40717"/>
<path d="M5389.66 664.543l3.70224 2.06107l3.96508 -0.875074l4.99401 3.24707l12.7222 9.84378l4.47153 2.08351l2.62202 0.798144l1.98735 1.61232l1.7822 2.26622l2.42649 1.6027l1.04817 1.49372l0.262843 2.0162l0.875074 1.24049l4.43948 3.2631l2.63804 2.86242l3.67018 1.46166l1.58347 1.70848l2.05146 0.833404l2.10595 1.74694l3.55479 1.36229l8.05837 5.03248l6.22488 4.77925l3.10283 2.95538l3.35285 2.63163l4.28241 2.09954l4.01316 2.40084l2.03222 5.62548l-1.11548 2.01299l-2.30789 1.00008l-2.1348 0.0705188l-1.99696 0.679545l-6.68005 -3.63172l-1.58988 -0.535302l-1.779 0.224378l-0.993674 -0.804555l-0.698777 -1.16035l-4.07406 -1.34947l-3.79519 -2.16364l-1.09945 -1.46807l-0.637874 -1.82708l-0.907128 -1.05458l-5.35302 -1.59629l-3.59646 -1.779l-2.6124 -2.50983l-4.05804 -1.74374l-6.32105 -3.58364l-3.25027 -1.14753l-2.84319 -1.79182l-7.60962 -6.51978l-2.71497 -1.21485l-2.36879 -2.89768l-6.55184 -6.87558l-3.15732 -2.83037l-3.43939 -2.51944l-2.63163 -2.94897l-2.02261 -3.49709l-4.69911 -5.00683l-0.576972 -2.14121l0.195529 -2.1989l-1.13151 -1.41358l-1.92324 -0.862252l-0.910333 -1.47769l0.105778 -1.99376l0.628258 -1.02893l4.68309 3.43298"/>
<path d="M5909.02 555.528l-0.823788 1.25331l0 -1.81105l0.0016027 -1.60911l0 -2.40405l3.49068 -2.79511l1.0706 -0.397469l1.26934 2.52906l-1.49211 2.7887l-3.51632 2.44572"/>
<path d="M5910.51 541.677l-2.3159 1.22126l0 -0.891101l0.0016027 -0.788528l1.84791 -1.55782l1.40236 -0.323745l-0.86706 1.56103l-0.0689161 0.778912"/>
<path d="M5908.19 556.784l-2.4329 1.22126l-0.948798 -1.1892l1.11548 -2.89127l2.26622 -2.96179l-0.0256432 2.39764l0.0256432 3.42337"/>
<path d="M5889.23 570.035l-1.09625 0.887896l-0.519275 -4.51961l1.13151 0.0384648l0.826993 0.467988l0.471194 1.13792l-0.814171 1.98735"/>
<path d="M5886.83 594.178l-0.291691 0.266048l-2.85281 -2.62202l0.096162 -1.03534l0.503248 -0.929566l1.13792 -0.875074l1.03214 1.49372l0.804555 2.48418l-0.429523 1.21805"/>
<path d="M5869.71 581.924l-1.68925 0.583383l-0.932771 -2.00337l1.29498 -2.01299l1.44243 -0.182708l0.705188 2.04825l-0.820582 1.56744"/>
<path d="M5528.98 550.736l0.977647 0.487221l-0.538507 1.35909l-4.51 -1.55141l-3.62531 0.602615l-1.01291 -0.0705188l-1.08022 -1.25652l-0.794939 -2.48418l0.36221 -1.74374l1.52577 -1.21485l0.570561 -0.198735l1.13471 1.50333l1.03855 1.02252l1.0065 0.43914l2.29507 2.44892l2.65086 0.657107"/>
<path d="M5524.05 536.218l-3.75032 0.336567l-5.27609 -1.02252l-2.12197 -1.4232l-0.919949 -1.42961l1.82387 -1.05778l2.61561 -0.500042l3.26951 -3.26951l1.13151 1.25331l1.21805 3.66057l1.32062 1.10266l0.730831 1.10907l-0.0416702 1.24049"/>
<path d="M5528.94 575.792l3.26951 4.67668l1.29819 0.368621l-1.98094 3.35285l-4.10932 0.301308l-4.84977 -0.868663l1.779 -1.15074l-0.919949 -1.30139l-1.46487 -0.262843l-1.67963 0.621847l-0.782117 -0.211556l1.07381 -2.15723l2.69895 -3.03872l0.798144 -0.240405l0.72442 -0.032054l0.705188 0.266048l3.43939 -0.323745"/>
<path d="M5511.4 506.658l-2.20211 1.50654l-4.07086 -0.144243l-1.50974 -0.849431l4.99081 -4.58052l5.78575 -0.945593l-2.99384 5.01324"/>
<path d="M5473.14 486.666l2.11236 10.8503l2.46175 -0.0224378l1.25652 -0.576972l1.44884 -2.54188l0.647491 -3.99393l1.28857 -0.570561l1.60911 0.426318l-0.698777 1.27254l0.467988 3.19578l1.24369 1.76617l0.826993 0.32054l1.65399 8.35006l0.615437 1.75015l-0.0384648 1.40076l-3.46824 3.12206l-5.1639 -0.0929566l-3.63813 1.86554l-2.21493 -0.121805l0.0224378 -2.11236l-1.97132 -1.67963l-2.22775 -3.59646l0.551329 -6.38515l-3.95867 -11.8632l-0.0384648 -2.96499l1.35588 -3.87212l1.32704 -0.173092l1.79823 3.23425l2.731 3.01308"/>
<path d="M5521.3 524.201l-0.548123 0.0416702l-0.554534 -1.50974l-1.85272 -8.03594l1.21805 -7.18971l0.772501 1.52256l2.76626 12.6068l-0.375032 2.06428l-1.4264 0.500042"/>
<path d="M5520.52 503.139l-0.567356 2.03222l-1.35909 -2.35276l-0.862252 -9.92392l0.352594 -0.919949l0.705188 -0.0705188l1.65719 6.90763l0.0737242 4.32729"/>
<path d="M5495.03 528.32l1.51295 0.711599l0.823788 0l0.493631 1.59629l4.70232 3.18617l1.29178 -0.0897512l1.08663 1.74374l2.0194 0.881485l0.544918 1.77579l1.44563 1.80785l-2.52265 2.18929l-4.869 -0.583383l-2.7919 2.48418l-2.52906 -0.634669l-0.432729 -1.3046l0.352594 -0.435934l-1.50654 -3.3272l-0.679545 -5.08376l-1.01932 -2.99384l-1.10266 -1.27895l-2.28224 1.11868l-0.919949 0.185913l-2.18608 -2.45534l1.03534 -4.9876l0.541712 -1.4264l1.779 -0.272459l2.69254 1.31101l2.51944 5.88191"/>
<path d="M5488.68 516.117l-0.596204 0.852636l-3.48106 -2.12838l0.798144 -2.05787l3.78558 0.737242l-0.506453 2.59637"/>
<path d="M5858.56 622.793l-0.0064108 1.41038l-4.22472 0.935976l-1.4232 -1.16356l-0.907128 -0.211556l-2.51624 2.06107l-0.727626 0.846225l-0.240405 0.637874l-0.647491 0.32054l-4.63821 0.990468l-2.03863 -0.987263l1.38153 -0.673134l1.67963 -1.34306l1.71168 0.198735l1.7245 -1.25652l1.69886 -1.91362l2.42328 -0.413496l1.70848 -0.740447l2.82396 0.535302l2.21814 0.76609"/>
<path d="M5500.69 468.091l-1.3655 1.6636l-3.70865 -0.548123l-0.878279 -0.43914l0.2372 -2.75985l0.929566 -0.952003l2.21173 -0.862252l3.03551 1.3655l-0.461577 2.53227"/>
<path d="M5497.53 456.481l-0.48081 0.323745l-0.75968 -0.253227l-1.94568 -3.97149l0.493631 -1.32383l2.4361 -1.26613l2.17326 2.20531l0.205146 1.22446l-0.016027 1.04175l-0.333361 0.900717l-1.45205 0.375032l-0.32054 0.743653"/>
<path d="M5576.55 662.591l-1.15394 1.81105l-1.77579 -0.0224378l-2.28224 -1.27895l0.432729 -1.6027l2.58676 -0.282075l0.750063 0.105778l1.44243 1.26934"/>
<path d="M5563.26 641.371l-1.73412 3.56761l-2.99384 -0.830198l-2.80152 -2.57714l-1.45846 -2.2534l0.984057 -4.32088l1.43281 -0.753269l1.49692 0.246816l0.762885 4.21831l4.31126 2.70215"/>
<path d="M5558.11 621.681l-1.51295 1.58667l-1.32062 -0.173092l-8.57124 -3.67659l0.359005 -1.51295l-0.352594 -3.8593l0.942387 -2.09633l2.36558 -0.862252l1.83669 0.44555l1.12189 3.0868l2.5515 1.25652l-1.79182 1.06099l3.11885 2.33353l1.25331 2.41046"/>
<path d="M5514.67 703.402l1.5418 0.60582l2.66369 -0.105778l-0.602615 5.59983l-3.75032 0.897512l-1.30139 -0.0512864l-0.836609 -1.17638l-2.14762 -0.775707l0.105778 -1.92003l-2.08992 -4.29844l3.62851 -0.650696l2.05146 -1.14753l-0.115394 1.04496l0.317334 1.22126l0.535302 0.756474"/>
<path d="M5466.61 679.4l-1.74694 0.323745l2.10915 -3.00346l0.0609026 -1.83669l0.846225 -3.63172l-0.096162 -1.21805l1.38473 0.16027l1.51295 1.04817l-1.73733 0.897512l-0.576972 1.57065l0.0609026 1.96811l0.669928 0.359005l-1.10586 2.15403l-1.38153 1.20844"/>
<path d="M5494.65 694.562l-1.79502 0.266048l-2.39443 -2.36238l-4.5741 -1.186l-2.00979 -2.0803l-1.31101 -2.45213l2.59317 -0.60582l2.5515 -3.30156l-1.74053 -1.22767l-3.00025 -0.217967l0.352594 -1.28857l4.8658 -1.53218l2.13159 0.887896l0.952003 1.04817l-0.147448 5.21839l2.21173 1.6604l2.28865 3.71506l-0.0096162 1.04175l-0.964825 2.41687"/>
<path d="M5499.36 742.569l-1.04175 1.24369l-1.28857 -0.256432l-0.974441 -0.464783l-0.711599 -0.676339l0.701982 -2.53227l2.82396 1.24049l0.490426 1.44563"/>
<path d="M5908.19 542.898l-0.419907 0.0384648l-0.0833404 -0.625053l0.503248 -1.09304l0 1.67963"/>
<path d="M5909.63 530.07l-1.43922 0.625053l0 -0.503248l1.00489 -0.881485l0.814171 0l-0.37984 0.75968"/>
<path d="M5914.76 621.684l0.0737242 0.96803l-0.487221 -0.0544918l-0.583383 -0.413496l-0.299705 0.20194l-0.20194 0.298102l-0.10097 0.673134l-0.0865458 0.381442l-0.453564 -0.137832l-0.0753269 -0.666723l0.149051 -0.467988l0.216364 -0.685955l0.823788 -0.625053l1.02573 0.528891"/>
<path d="M5813.71 410.471l-1.28216 0.333361l-2.07069 -0.272459l-0.429523 -0.532096l0.660312 -0.1186l1.35268 -0.346183l1.65719 0.176297l0.291691 0.346183l-0.179502 0.413496"/>
<path d="M5731.92 712.102l-0.256432 0.355799l-0.948798 -0.115394l-0.189119 -0.730831l0.557739 -0.413496l0.772501 0.27887l0.064108 0.625053"/>
</g>
</g>
</g>
</g>
<g inkscape:groupmode="layer" inkscape:label="no_name" id="no_name"><title>no_name</title>
<g>
<g id="drawing" transform="translate(-5253.37,-822.771)">
<g stroke-width="0.5px" stroke="rgb(255,0,0)" fill="none">
</g>
<g stroke="rgb(255,0,0)" fill="rgb(255,0,0)">
<circle cx="5253" cy="407" r="1.5"/>
<circle cx="5269" cy="413" r="1.5"/>
<circle cx="5284" cy="419" r="1.5"/>
<circle cx="5300" cy="423" r="1.5"/>
<circle cx="5314" cy="427" r="1.5"/>
<circle cx="5327" cy="429" r="1.5"/>
<circle cx="5339" cy="430" r="1.5"/>
<circle cx="5350" cy="433" r="1.5"/>
<circle cx="5361" cy="436" r="1.5"/>
<circle cx="5370" cy="439" r="1.5"/>
<circle cx="5377" cy="443" r="1.5"/>
<circle cx="5384" cy="447" r="1.5"/>
<circle cx="5392" cy="452" r="1.5"/>
<circle cx="5399" cy="459" r="1.5"/>
<circle cx="5406" cy="466" r="1.5"/>
<circle cx="5413" cy="475" r="1.5"/>
<circle cx="5420" cy="484" r="1.5"/>
<circle cx="5428" cy="493" r="1.5"/>
<circle cx="5435" cy="502" r="1.5"/>
<circle cx="5443" cy="512" r="1.5"/>
<circle cx="5451" cy="522" r="1.5"/>
<circle cx="5458" cy="531" r="1.5"/>
<circle cx="5465" cy="540" r="1.5"/>
<circle cx="5473" cy="549" r="1.5"/>
<circle cx="5483" cy="559" r="1.5"/>
<circle cx="5491" cy="569" r="1.5"/>
<circle cx="5501" cy="580" r="1.5"/>
<circle cx="5511" cy="590" r="1.5"/>
<circle cx="5523" cy="602" r="1.5"/>
<circle cx="5536" cy="615" r="1.5"/>
<circle cx="5554" cy="631" r="1.5"/>
<circle cx="5576" cy="649" r="1.5"/>
<circle cx="5602" cy="668" r="1.5"/>
<circle cx="5629" cy="685" r="1.5"/>
<circle cx="5657" cy="700" r="1.5"/>
<circle cx="5687" cy="710" r="1.5"/>
<circle cx="5711" cy="719" r="1.5"/>
<circle cx="5705" cy="734" r="1.5"/>
<circle cx="5714" cy="745" r="1.5"/>
<circle cx="5728" cy="751" r="1.5"/>
<circle cx="5744" cy="754" r="1.5"/>
<circle cx="5760" cy="758" r="1.5"/>
<circle cx="5776" cy="761" r="1.5"/>
<circle cx="5790" cy="764" r="1.5"/>
<circle cx="5803" cy="768" r="1.5"/>
<circle cx="5815" cy="772" r="1.5"/>
<circle cx="5826" cy="777" r="1.5"/>
<circle cx="5834" cy="783" r="1.5"/>
<circle cx="5841" cy="781" r="1.5"/>
<circle cx="5851" cy="780" r="1.5"/>
<circle cx="5863" cy="783" r="1.5"/>
<circle cx="5880" cy="793" r="1.5"/>
<circle cx="5900" cy="806" r="1.5"/>
<circle cx="5917" cy="815" r="1.5"/>
<circle cx="5933" cy="822" r="1.5"/>
</g>
<g stroke-width="0.5px" stroke="rgb(255,0,0)" fill="none">
<path d="M5253.37 407.009l15.8208 6.26268l15.7552 5.78346l15.5254 4.87098l14.4422 3.59743l12.6041 1.95299l11.521 1.51315l11.9149 2.46503l10.7332 3.09524l8.56688 3.42675l7.31959 3.87315l7.35242 4.09963l7.12265 5.01212l7.25395 6.05918l7.15548 7.45745l7.08983 8.92793l7.22112 9.55814l7.51653 8.8787l7.68065 9.11174l7.64783 9.8995l7.51653 9.85683l6.89289 8.80977l7.28677 8.77038l8.5997 9.43341l9.22334 9.91263l8.76382 10.0144l9.32181 10.4115l10.0439 10.51l12.079 11.7343l13.4575 13.2311l17.2979 15.5582l22.6152 18.66l26.2258 19.0178l26.6525 17.2158l28.228 14.4258l29.5738 10.4378l23.8625 8.9148l-5.31737 14.5473l8.5997 10.7726l13.7858 6.15437l15.7552 3.69262l16.6742 3.5285l16.1491 3.03615l13.8842 3.02959l12.3744 3.53507l12.2103 4.67732l10.766 5.16967l7.97606 5.15982l7.12265 -1.22103l10.5363 -1.81513l11.5538 3.34798l17.1994 10.5133l20.0222 12.463l17.2979 9.35135l15.5254 7.06029"/>
</g>
</g>
</g>
</g>
<g inkscape:groupmode="layer" inkscape:label="Coastline" id="Coastline"><title>Coastline</title>
<g>
<g id="drawing" transform="translate(-5253.37,-822.771)">
<g stroke-width="0.5px" stroke="rgb(0,0,0)" fill="none">
<path d="M5908.17 530.705l-4.95555 4.36896l-1.78541 2.2534l-1.50013 2.4938l-4.23433 2.6733l-1.80464 3.58364l0.131421 3.62851l4.23113 -3.79199l4.72476 -3.09962l1.44243 -0.625053l1.49051 0.032054l-0.125011 1.05778l-0.676339 1.04817l-0.52248 2.73741l1.24369 2.54188l-3.51632 -0.246816l-3.48106 0.217967l-4.12855 1.4264l-4.05483 0.625053l-1.51295 0.016027l-1.45525 -0.477604l-0.952003 -0.730831l-0.743653 -1.69566l-0.750063 -0.253227l-3.22143 0.0769296l-4.82092 3.31118l-1.59629 2.84319l-1.85272 0.125011l-2.18929 -0.589793l-2.65086 2.17006l-3.16052 0.788528l-1.3655 -1.8431l-0.88469 -2.2566l-1.1283 -1.6636l-3.48747 -0.416702l0.535302 -2.02902l0.92636 -0.839815l0.846225 -1.20202l0.519275 -1.37832l1.6636 0.875074l1.70848 0.560945l1.91042 -1.03214l1.98735 -0.0897512l1.99055 -3.00025l3.11244 -1.87836l4.29523 -1.48731l4.37216 -1.06099l2.26301 -0.214762l2.15403 -0.615437l3.80481 -2.81434l2.51624 -1.45205l2.74062 -0.875074l2.61881 -0.512864l2.42328 0.455167l1.94568 -0.2372l4.9844 -2.01299l-0.0256432 0.512864"/>
<path d="M5817.41 562.823l-1.68604 0.551329l0.897512 -2.6124l0.955209 -0.817377l0.59941 -0.169886l0.980852 -0.182708l-0.381442 1.84631l-1.3655 1.38473"/>
<path d="M5851.74 570.205l0 1.45205l0.96162 0.628258l0.955209 0.102573l2.3752 2.77588l3.68621 2.38802l2.24378 1.82708l0.134627 1.56103l-0.68275 1.65078l0.948798 2.95538l0.461577 3.06757l1.63475 4.85938l-2.30789 0.923155l-3.63172 0.108984l-0.839815 0.875074l-1.23728 -0.484015l-3.01628 0.36221l-2.88165 1.59949l-2.74382 2.17326l-3.15732 0.0064108l-3.5612 0.448756l-3.55799 -0.301308l-2.50342 -1.16035l-4.41063 -1.26293l-5.8787 -1.07701l-2.4329 -0.903923l-2.02902 -1.41679l-1.9008 -3.57402l-0.282075 -1.76297l0.298102 -1.68925l1.71809 -0.570561l1.43922 -0.855842l0.205146 -1.11548l0.634669 -0.778912l0.826993 -0.282075l0.40388 -0.538507l-0.580177 -1.81105l-0.16027 -1.65719l3.40734 -3.02269l3.72467 -2.57714l6.56466 -2.38161l4.01316 0.217967l6.15116 -1.83349l1.96811 -0.862252l1.95529 0.528891l1.08342 1.40717"/>
<path d="M5389.66 664.543l3.70224 2.06107l3.96508 -0.875074l4.99401 3.24707l12.7222 9.84378l4.47153 2.08351l2.62202 0.798144l1.98735 1.61232l1.7822 2.26622l2.42649 1.6027l1.04817 1.49372l0.262843 2.0162l0.875074 1.24049l4.43948 3.2631l2.63804 2.86242l3.67018 1.46166l1.58347 1.70848l2.05146 0.833404l2.10595 1.74694l3.55479 1.36229l8.05837 5.03248l6.22488 4.77925l3.10283 2.95538l3.35285 2.63163l4.28241 2.09954l4.01316 2.40084l2.03222 5.62548l-1.11548 2.01299l-2.30789 1.00008l-2.1348 0.0705188l-1.99696 0.679545l-6.68005 -3.63172l-1.58988 -0.535302l-1.779 0.224378l-0.993674 -0.804555l-0.698777 -1.16035l-4.07406 -1.34947l-3.79519 -2.16364l-1.09945 -1.46807l-0.637874 -1.82708l-0.907128 -1.05458l-5.35302 -1.59629l-3.59646 -1.779l-2.6124 -2.50983l-4.05804 -1.74374l-6.32105 -3.58364l-3.25027 -1.14753l-2.84319 -1.79182l-7.60962 -6.51978l-2.71497 -1.21485l-2.36879 -2.89768l-6.55184 -6.87558l-3.15732 -2.83037l-3.43939 -2.51944l-2.63163 -2.94897l-2.02261 -3.49709l-4.69911 -5.00683l-0.576972 -2.14121l0.195529 -2.1989l-1.13151 -1.41358l-1.92324 -0.862252l-0.910333 -1.47769l0.105778 -1.99376l0.628258 -1.02893l4.68309 3.43298"/>
<path d="M5909.02 555.528l-0.823788 1.25331l0 -1.81105l0.0016027 -1.60911l0 -2.40405l3.49068 -2.79511l1.0706 -0.397469l1.26934 2.52906l-1.49211 2.7887l-3.51632 2.44572"/>
<path d="M5910.51 541.677l-2.3159 1.22126l0 -0.891101l0.0016027 -0.788528l1.84791 -1.55782l1.40236 -0.323745l-0.86706 1.56103l-0.0689161 0.778912"/>
<path d="M5908.19 556.784l-2.4329 1.22126l-0.948798 -1.1892l1.11548 -2.89127l2.26622 -2.96179l-0.0256432 2.39764l0.0256432 3.42337"/>
<path d="M5889.23 570.035l-1.09625 0.887896l-0.519275 -4.51961l1.13151 0.0384648l0.826993 0.467988l0.471194 1.13792l-0.814171 1.98735"/>
<path d="M5886.83 594.178l-0.291691 0.266048l-2.85281 -2.62202l0.096162 -1.03534l0.503248 -0.929566l1.13792 -0.875074l1.03214 1.49372l0.804555 2.48418l-0.429523 1.21805"/>
<path d="M5869.71 581.924l-1.68925 0.583383l-0.932771 -2.00337l1.29498 -2.01299l1.44243 -0.182708l0.705188 2.04825l-0.820582 1.56744"/>
<path d="M5528.98 550.736l0.977647 0.487221l-0.538507 1.35909l-4.51 -1.55141l-3.62531 0.602615l-1.01291 -0.0705188l-1.08022 -1.25652l-0.794939 -2.48418l0.36221 -1.74374l1.52577 -1.21485l0.570561 -0.198735l1.13471 1.50333l1.03855 1.02252l1.0065 0.43914l2.29507 2.44892l2.65086 0.657107"/>
<path d="M5524.05 536.218l-3.75032 0.336567l-5.27609 -1.02252l-2.12197 -1.4232l-0.919949 -1.42961l1.82387 -1.05778l2.61561 -0.500042l3.26951 -3.26951l1.13151 1.25331l1.21805 3.66057l1.32062 1.10266l0.730831 1.10907l-0.0416702 1.24049"/>
<path d="M5528.94 575.792l3.26951 4.67668l1.29819 0.368621l-1.98094 3.35285l-4.10932 0.301308l-4.84977 -0.868663l1.779 -1.15074l-0.919949 -1.30139l-1.46487 -0.262843l-1.67963 0.621847l-0.782117 -0.211556l1.07381 -2.15723l2.69895 -3.03872l0.798144 -0.240405l0.72442 -0.032054l0.705188 0.266048l3.43939 -0.323745"/>
<path d="M5511.4 506.658l-2.20211 1.50654l-4.07086 -0.144243l-1.50974 -0.849431l4.99081 -4.58052l5.78575 -0.945593l-2.99384 5.01324"/>
<path d="M5473.14 486.666l2.11236 10.8503l2.46175 -0.0224378l1.25652 -0.576972l1.44884 -2.54188l0.647491 -3.99393l1.28857 -0.570561l1.60911 0.426318l-0.698777 1.27254l0.467988 3.19578l1.24369 1.76617l0.826993 0.32054l1.65399 8.35006l0.615437 1.75015l-0.0384648 1.40076l-3.46824 3.12206l-5.1639 -0.0929566l-3.63813 1.86554l-2.21493 -0.121805l0.0224378 -2.11236l-1.97132 -1.67963l-2.22775 -3.59646l0.551329 -6.38515l-3.95867 -11.8632l-0.0384648 -2.96499l1.35588 -3.87212l1.32704 -0.173092l1.79823 3.23425l2.731 3.01308"/>
<path d="M5521.3 524.201l-0.548123 0.0416702l-0.554534 -1.50974l-1.85272 -8.03594l1.21805 -7.18971l0.772501 1.52256l2.76626 12.6068l-0.375032 2.06428l-1.4264 0.500042"/>
<path d="M5520.52 503.139l-0.567356 2.03222l-1.35909 -2.35276l-0.862252 -9.92392l0.352594 -0.919949l0.705188 -0.0705188l1.65719 6.90763l0.0737242 4.32729"/>
<path d="M5495.03 528.32l1.51295 0.711599l0.823788 0l0.493631 1.59629l4.70232 3.18617l1.29178 -0.0897512l1.08663 1.74374l2.0194 0.881485l0.544918 1.77579l1.44563 1.80785l-2.52265 2.18929l-4.869 -0.583383l-2.7919 2.48418l-2.52906 -0.634669l-0.432729 -1.3046l0.352594 -0.435934l-1.50654 -3.3272l-0.679545 -5.08376l-1.01932 -2.99384l-1.10266 -1.27895l-2.28224 1.11868l-0.919949 0.185913l-2.18608 -2.45534l1.03534 -4.9876l0.541712 -1.4264l1.779 -0.272459l2.69254 1.31101l2.51944 5.88191"/>
<path d="M5488.68 516.117l-0.596204 0.852636l-3.48106 -2.12838l0.798144 -2.05787l3.78558 0.737242l-0.506453 2.59637"/>
<path d="M5858.56 622.793l-0.0064108 1.41038l-4.22472 0.935976l-1.4232 -1.16356l-0.907128 -0.211556l-2.51624 2.06107l-0.727626 0.846225l-0.240405 0.637874l-0.647491 0.32054l-4.63821 0.990468l-2.03863 -0.987263l1.38153 -0.673134l1.67963 -1.34306l1.71168 0.198735l1.7245 -1.25652l1.69886 -1.91362l2.42328 -0.413496l1.70848 -0.740447l2.82396 0.535302l2.21814 0.76609"/>
<path d="M5500.69 468.091l-1.3655 1.6636l-3.70865 -0.548123l-0.878279 -0.43914l0.2372 -2.75985l0.929566 -0.952003l2.21173 -0.862252l3.03551 1.3655l-0.461577 2.53227"/>
<path d="M5497.53 456.481l-0.48081 0.323745l-0.75968 -0.253227l-1.94568 -3.97149l0.493631 -1.32383l2.4361 -1.26613l2.17326 2.20531l0.205146 1.22446l-0.016027 1.04175l-0.333361 0.900717l-1.45205 0.375032l-0.32054 0.743653"/>
<path d="M5576.55 662.591l-1.15394 1.81105l-1.77579 -0.0224378l-2.28224 -1.27895l0.432729 -1.6027l2.58676 -0.282075l0.750063 0.105778l1.44243 1.26934"/>
<path d="M5563.26 641.371l-1.73412 3.56761l-2.99384 -0.830198l-2.80152 -2.57714l-1.45846 -2.2534l0.984057 -4.32088l1.43281 -0.753269l1.49692 0.246816l0.762885 4.21831l4.31126 2.70215"/>
<path d="M5558.11 621.681l-1.51295 1.58667l-1.32062 -0.173092l-8.57124 -3.67659l0.359005 -1.51295l-0.352594 -3.8593l0.942387 -2.09633l2.36558 -0.862252l1.83669 0.44555l1.12189 3.0868l2.5515 1.25652l-1.79182 1.06099l3.11885 2.33353l1.25331 2.41046"/>
<path d="M5514.67 703.402l1.5418 0.60582l2.66369 -0.105778l-0.602615 5.59983l-3.75032 0.897512l-1.30139 -0.0512864l-0.836609 -1.17638l-2.14762 -0.775707l0.105778 -1.92003l-2.08992 -4.29844l3.62851 -0.650696l2.05146 -1.14753l-0.115394 1.04496l0.317334 1.22126l0.535302 0.756474"/>
<path d="M5466.61 679.4l-1.74694 0.323745l2.10915 -3.00346l0.0609026 -1.83669l0.846225 -3.63172l-0.096162 -1.21805l1.38473 0.16027l1.51295 1.04817l-1.73733 0.897512l-0.576972 1.57065l0.0609026 1.96811l0.669928 0.359005l-1.10586 2.15403l-1.38153 1.20844"/>
<path d="M5494.65 694.562l-1.79502 0.266048l-2.39443 -2.36238l-4.5741 -1.186l-2.00979 -2.0803l-1.31101 -2.45213l2.59317 -0.60582l2.5515 -3.30156l-1.74053 -1.22767l-3.00025 -0.217967l0.352594 -1.28857l4.8658 -1.53218l2.13159 0.887896l0.952003 1.04817l-0.147448 5.21839l2.21173 1.6604l2.28865 3.71506l-0.0096162 1.04175l-0.964825 2.41687"/>
<path d="M5499.36 742.569l-1.04175 1.24369l-1.28857 -0.256432l-0.974441 -0.464783l-0.711599 -0.676339l0.701982 -2.53227l2.82396 1.24049l0.490426 1.44563"/>
<path d="M5908.19 542.898l-0.419907 0.0384648l-0.0833404 -0.625053l0.503248 -1.09304l0 1.67963"/>
<path d="M5909.63 530.07l-1.43922 0.625053l0 -0.503248l1.00489 -0.881485l0.814171 0l-0.37984 0.75968"/>
<path d="M5914.76 621.684l0.0737242 0.96803l-0.487221 -0.0544918l-0.583383 -0.413496l-0.299705 0.20194l-0.20194 0.298102l-0.10097 0.673134l-0.0865458 0.381442l-0.453564 -0.137832l-0.0753269 -0.666723l0.149051 -0.467988l0.216364 -0.685955l0.823788 -0.625053l1.02573 0.528891"/>
<path d="M5813.71 410.471l-1.28216 0.333361l-2.07069 -0.272459l-0.429523 -0.532096l0.660312 -0.1186l1.35268 -0.346183l1.65719 0.176297l0.291691 0.346183l-0.179502 0.413496"/>
<path d="M5731.92 712.102l-0.256432 0.355799l-0.948798 -0.115394l-0.189119 -0.730831l0.557739 -0.413496l0.772501 0.27887l0.064108 0.625053"/>
</g>
</g>
</g>
</g>
<g inkscape:groupmode="layer" inkscape:label="Coastline" id="Coastline"><title>Coastline</title>
<g>
<g id="drawing" transform="translate(-5253.37,-822.771)">
<g stroke-width="1px" stroke="rgb(51,51,51)" fill="none">
<path d="M5253.37 822.771l0 -415.763l680 0l0 415.763l-680 0"/>
</g>
</g>
</g>
</g>
<g id="Clone of page">
</g>
</g>
</g><!--ePage-->
</svg>
